<svg xmlns="http://www.w3.org/2000/svg" width="300" height="300" viewBox="0 0 300 300" class="creatureMap" style="position:absolute;">
<defs>
<filter id="blur" x="-30%" y="-30%" width="160%" height="160%"><feGaussianBlur stdDeviation="3" />
</filter>
<pattern id="pattern-untameable" width="10" height="10" patternTransform="rotate(135)" patternUnits="userSpaceOnUse"><rect width="4" height="10" fill="black"></rect>
</pattern>
<filter id="groupStroke"><feFlood result="outsideColor" flood-color="black"/><feMorphology in="SourceAlpha" operator="dilate" radius="2"/><feComposite result="strokeoutline1" in="outsideColor" operator="in"/><feComposite result="strokeoutline2" in="strokeoutline1" in2="SourceAlpha" operator="out"/><feGaussianBlur in="strokeoutline2" result="strokeblur" stdDeviation="1"/>
</filter>
<style>
.spawningMap-very-common { fill: #0F0;}
.spawningMap-common { fill: #B2FF00;}
.spawningMap-uncommon { fill: #FF0;}
.spawningMap-very-uncommon { fill: #FC0;}
.spawningMap-rare { fill: #F60;}
.spawningMap-very-rare { fill: #F00; }.spawning-map-point {stroke:black; stroke-width:1;}
</style>
</defs>
<g filter="url(#blur)" opacity="0.7">
<g class="spawningMap-common"><rect x="22" y="203" width="23" height="18" /><rect x="0" y="184" width="21" height="18" /><rect x="47" y="8" width="23" height="18" /><rect x="44" y="210" width="23" height="19" /><rect x="22" y="241" width="23" height="18" /><rect x="0" y="241" width="21" height="18" /><rect x="0" y="241" width="-2" height="18" /><rect x="0" y="221" width="21" height="19" /><rect x="0" y="221" width="-2" height="19" /><rect x="0" y="203" width="21" height="18" /><rect x="0" y="203" width="-2" height="18" /><rect x="0" y="184" width="-2" height="18" /><rect x="0" y="165" width="-2" height="18" /><rect x="0" y="146" width="-2" height="18" /><rect x="0" y="127" width="-10" height="18" /><rect x="0" y="108" width="-10" height="18" /><rect x="0" y="89" width="-10" height="18" /><rect x="0" y="70" width="-2" height="18" /><rect x="0" y="51" width="13" height="18" /><rect x="8" y="32" width="23" height="18" /><rect x="32" y="21" width="23" height="18" /><rect x="22" y="221" width="23" height="19" />
</g>
<g class="spawningMap-very-common"><rect x="197" y="152" width="10" height="6" /><rect x="180" y="141" width="13" height="14" /><rect x="155" y="99" width="45" height="18" /><rect x="213" y="163" width="15" height="15" /><rect x="139" y="78" width="15" height="15" /><rect x="288" y="37" width="9" height="8" /><rect x="100" y="182" width="8" height="8" /><rect x="100" y="43" width="8" height="8" /><rect x="100" y="35" width="8" height="8" /><rect x="100" y="26" width="8" height="8" /><rect x="100" y="17" width="8" height="8" /><rect x="100" y="9" width="8" height="8" /><rect x="90" y="35" width="9" height="8" /><rect x="90" y="26" width="9" height="8" /><rect x="90" y="17" width="9" height="8" /><rect x="90" y="9" width="9" height="8" /><rect x="118" y="156" width="9" height="8" /><rect x="118" y="165" width="9" height="8" /><rect x="118" y="174" width="9" height="7" /><rect x="118" y="182" width="9" height="8" /><rect x="118" y="69" width="9" height="8" /><rect x="118" y="61" width="9" height="8" /><rect x="118" y="52" width="9" height="8" /><rect x="118" y="43" width="9" height="8" /><rect x="118" y="35" width="9" height="8" /><rect x="118" y="26" width="9" height="8" /><rect x="118" y="17" width="9" height="8" /><rect x="118" y="9" width="9" height="8" /><rect x="109" y="182" width="9" height="8" /><rect x="109" y="61" width="9" height="8" /><rect x="109" y="52" width="9" height="8" /><rect x="109" y="43" width="9" height="8" /><rect x="109" y="35" width="9" height="8" /><rect x="109" y="26" width="9" height="8" /><rect x="109" y="17" width="9" height="8" /><rect x="109" y="9" width="9" height="8" /><rect x="137" y="61" width="8" height="8" /><rect x="137" y="17" width="8" height="8" /><rect x="137" y="9" width="8" height="8" /><rect x="128" y="182" width="8" height="8" /><rect x="128" y="61" width="8" height="8" /><rect x="128" y="43" width="8" height="8" /><rect x="128" y="35" width="8" height="8" /><rect x="128" y="26" width="8" height="8" /><rect x="128" y="17" width="8" height="8" /><rect x="128" y="9" width="8" height="8" /><rect x="83" y="117" width="8" height="8" /><rect x="63" y="93" width="12" height="11" /><rect x="100" y="85" width="9" height="9" /><rect x="125" y="114" width="10" height="9" /><rect x="123" y="128" width="9" height="9" /><rect x="105" y="143" width="12" height="11" /><rect x="75" y="149" width="10" height="10" /><rect x="47" y="120" width="9" height="9" /><rect x="84" y="84" width="9" height="9" /><rect x="68" y="88" width="12" height="11" /><rect x="46" y="105" width="12" height="11" /><rect x="44" y="114" width="12" height="11" /><rect x="51" y="128" width="11" height="11" /><rect x="57" y="138" width="11" height="11" /><rect x="69" y="146" width="11" height="11" /><rect x="87" y="151" width="11" height="11" /><rect x="100" y="152" width="12" height="11" /><rect x="108" y="162" width="11" height="11" /><rect x="100" y="168" width="11" height="11" /><rect x="114" y="135" width="11" height="11" /><rect x="126" y="120" width="12" height="11" /><rect x="120" y="103" width="11" height="11" /><rect x="113" y="93" width="12" height="11" /><rect x="107" y="83" width="12" height="11" /><rect x="120" y="170" width="9" height="8" /><rect x="238" y="90" width="8" height="5" /><rect x="68" y="133" width="8" height="8" /><rect x="68" y="125" width="8" height="7" /><rect x="68" y="116" width="8" height="8" /><rect x="68" y="107" width="8" height="8" /><rect x="68" y="99" width="8" height="8" /><rect x="232" y="198" width="8" height="8" /><rect x="222" y="198" width="9" height="8" /><rect x="250" y="198" width="9" height="8" /><rect x="241" y="198" width="8" height="8" /><rect x="259" y="198" width="9" height="8" /><rect x="213" y="198" width="8" height="8" /><rect x="204" y="198" width="8" height="8" /><rect x="157" y="198" width="8" height="8" /><rect x="148" y="198" width="8" height="8" /><rect x="176" y="198" width="8" height="8" /><rect x="166" y="198" width="9" height="8" /><rect x="194" y="198" width="9" height="8" /><rect x="185" y="198" width="8" height="8" /><rect x="138" y="198" width="9" height="8" /><rect x="129" y="198" width="9" height="8" /><rect x="101" y="198" width="9" height="8" /><rect x="120" y="198" width="8" height="8" /><rect x="111" y="198" width="8" height="8" /><rect x="259" y="229" width="9" height="8" /><rect x="232" y="238" width="8" height="8" /><rect x="222" y="238" width="9" height="8" /><rect x="248" y="255" width="9" height="8" /><rect x="239" y="255" width="8" height="8" /><rect x="72" y="247" width="19" height="8" /><rect x="28" y="147" width="10" height="11" /><rect x="75" y="16" width="9" height="7" /><rect x="278" y="221" width="9" height="8" /><rect x="278" y="51" width="9" height="7" /><rect x="278" y="37" width="9" height="8" /><rect x="288" y="60" width="9" height="8" /><rect x="288" y="51" width="9" height="7" /><rect x="138" y="64" width="14" height="15" /><rect x="212" y="139" width="8" height="8" /><rect x="212" y="148" width="8" height="7" /><rect x="212" y="156" width="8" height="8" /><rect x="212" y="165" width="8" height="8" /><rect x="212" y="173" width="8" height="8" /><rect x="212" y="78" width="8" height="8" /><rect x="212" y="69" width="8" height="8" /><rect x="212" y="9" width="8" height="8" /><rect x="249" y="113" width="8" height="8" /><rect x="202" y="69" width="9" height="8" /><rect x="202" y="61" width="9" height="8" /><rect x="202" y="9" width="9" height="8" /><rect x="230" y="122" width="9" height="7" /><rect x="230" y="113" width="9" height="8" /><rect x="230" y="174" width="9" height="7" /><rect x="230" y="69" width="9" height="8" /><rect x="230" y="35" width="9" height="8" /><rect x="230" y="26" width="9" height="8" /><rect x="230" y="17" width="9" height="8" /><rect x="230" y="9" width="9" height="8" /><rect x="221" y="130" width="8" height="8" /><rect x="212" y="102" width="8" height="8" /><rect x="221" y="113" width="8" height="8" /><rect x="221" y="104" width="8" height="8" /><rect x="221" y="96" width="8" height="7" /><rect x="221" y="165" width="8" height="8" /><rect x="221" y="174" width="8" height="7" /><rect x="178" y="274" width="9" height="8" /><rect x="124" y="64" width="15" height="15" /><rect x="221" y="69" width="8" height="8" /><rect x="221" y="35" width="8" height="8" /><rect x="221" y="17" width="8" height="8" /><rect x="221" y="9" width="8" height="8" /><rect x="249" y="130" width="8" height="8" /><rect x="249" y="122" width="8" height="7" /><rect x="228" y="90" width="9" height="5" /><rect x="249" y="104" width="8" height="8" /><rect x="249" y="148" width="8" height="7" /><rect x="249" y="165" width="8" height="8" /><rect x="249" y="174" width="8" height="7" /><rect x="128" y="281" width="18" height="8" /><rect x="249" y="69" width="8" height="8" /><rect x="249" y="61" width="8" height="8" /><rect x="249" y="52" width="8" height="8" /><rect x="249" y="43" width="8" height="8" /><rect x="249" y="35" width="8" height="8" /><rect x="249" y="26" width="8" height="8" /><rect x="249" y="17" width="8" height="8" /><rect x="249" y="9" width="8" height="8" /><rect x="239" y="122" width="9" height="7" /><rect x="239" y="113" width="9" height="8" /><rect x="239" y="174" width="9" height="7" /><rect x="239" y="69" width="9" height="8" /><rect x="239" y="61" width="9" height="8" /><rect x="239" y="35" width="9" height="8" /><rect x="239" y="26" width="9" height="8" /><rect x="239" y="17" width="9" height="8" /><rect x="239" y="9" width="9" height="8" /><rect x="109" y="64" width="15" height="15" /><rect x="193" y="61" width="9" height="8" /><rect x="165" y="9" width="8" height="8" /><rect x="196" y="131" width="15" height="15" /><rect x="193" y="9" width="9" height="8" /><rect x="184" y="9" width="8" height="8" /><rect x="155" y="154" width="9" height="8" /><rect x="109" y="78" width="15" height="15" /><rect x="178" y="87" width="8" height="8" /><rect x="161" y="86" width="9" height="8" /><rect x="181" y="131" width="15" height="15" /><rect x="92" y="198" width="8" height="8" /><rect x="186" y="122" width="9" height="8" /><rect x="269" y="212" width="8" height="7" /><rect x="203" y="105" width="8" height="8" /><rect x="198" y="100" width="8" height="8" /><rect x="199" y="93" width="9" height="8" /><rect x="209" y="93" width="9" height="7" /><rect x="211" y="84" width="8" height="8" /><rect x="199" y="84" width="9" height="8" /><rect x="192" y="175" width="8" height="8" /><rect x="182" y="176" width="9" height="8" /><rect x="172" y="184" width="8" height="7" /><rect x="158" y="184" width="8" height="8" /><rect x="146" y="180" width="8" height="8" /><rect x="139" y="171" width="9" height="8" /><rect x="128" y="174" width="9" height="7" /><rect x="118" y="159" width="9" height="7" /><rect x="137" y="182" width="8" height="8" /><rect x="166" y="131" width="15" height="15" /><rect x="151" y="131" width="15" height="15" /><rect x="138" y="118" width="15" height="15" /><rect x="105" y="133" width="8" height="8" /><rect x="138" y="103" width="15" height="14" /><rect x="105" y="116" width="8" height="8" /><rect x="105" y="107" width="8" height="8" /><rect x="105" y="99" width="8" height="8" /><rect x="95" y="133" width="9" height="8" /><rect x="95" y="125" width="9" height="7" /><rect x="95" y="116" width="9" height="8" /><rect x="95" y="107" width="9" height="8" /><rect x="95" y="99" width="9" height="8" /><rect x="86" y="133" width="9" height="8" /><rect x="86" y="125" width="9" height="7" /><rect x="86" y="116" width="9" height="8" /><rect x="86" y="107" width="9" height="8" /><rect x="86" y="99" width="9" height="8" /><rect x="77" y="133" width="8" height="8" /><rect x="77" y="125" width="8" height="7" /><rect x="77" y="116" width="8" height="8" /><rect x="77" y="107" width="8" height="8" /><rect x="77" y="99" width="8" height="8" /><rect x="105" y="125" width="8" height="7" /><rect x="153" y="103" width="15" height="14" /><rect x="168" y="103" width="15" height="14" /><rect x="183" y="97" width="15" height="15" /><rect x="183" y="61" width="15" height="15" /><rect x="168" y="61" width="15" height="15" /><rect x="153" y="62" width="15" height="15" /><rect x="198" y="86" width="15" height="15" /><rect x="213" y="86" width="15" height="15" /><rect x="213" y="101" width="15" height="15" /><rect x="124" y="78" width="15" height="15" /><rect x="213" y="117" width="15" height="14" /><rect x="213" y="133" width="15" height="14" /><rect x="213" y="148" width="15" height="15" /><rect x="74" y="198" width="8" height="8" /><rect x="200" y="117" width="9" height="8" /><rect x="75" y="209" width="8" height="8" /><rect x="212" y="182" width="8" height="8" /><rect x="202" y="182" width="9" height="8" /><rect x="230" y="182" width="9" height="8" /><rect x="221" y="182" width="8" height="8" /><rect x="249" y="182" width="8" height="8" /><rect x="239" y="182" width="9" height="8" /><rect x="193" y="182" width="9" height="8" /><rect x="184" y="182" width="8" height="8" /><rect x="74" y="220" width="9" height="8" /><rect x="75" y="30" width="8" height="8" /><rect x="213" y="221" width="8" height="8" /><rect x="204" y="221" width="8" height="8" /><rect x="157" y="221" width="8" height="8" /><rect x="148" y="221" width="8" height="8" /><rect x="176" y="221" width="8" height="8" /><rect x="166" y="221" width="9" height="8" /><rect x="194" y="221" width="9" height="8" /><rect x="185" y="221" width="8" height="8" /><rect x="138" y="221" width="9" height="8" /><rect x="129" y="221" width="9" height="8" /><rect x="101" y="221" width="9" height="8" /><rect x="92" y="221" width="8" height="8" /><rect x="120" y="221" width="8" height="8" /><rect x="111" y="221" width="8" height="8" /><rect x="232" y="212" width="8" height="7" /><rect x="222" y="212" width="9" height="7" /><rect x="250" y="212" width="9" height="7" /><rect x="241" y="212" width="8" height="7" /><rect x="259" y="212" width="9" height="7" /><rect x="213" y="212" width="8" height="7" /><rect x="204" y="212" width="8" height="7" /><rect x="157" y="212" width="8" height="7" /><rect x="148" y="212" width="8" height="7" /><rect x="176" y="212" width="8" height="7" /><rect x="166" y="212" width="9" height="7" /><rect x="194" y="212" width="9" height="7" /><rect x="185" y="212" width="8" height="7" /><rect x="138" y="212" width="9" height="7" /><rect x="129" y="212" width="9" height="7" /><rect x="269" y="198" width="8" height="8" /><rect x="92" y="212" width="8" height="7" /><rect x="120" y="212" width="8" height="7" /><rect x="111" y="212" width="8" height="7" /><rect x="232" y="221" width="8" height="8" /><rect x="222" y="221" width="9" height="8" /><rect x="250" y="221" width="9" height="8" /><rect x="241" y="221" width="8" height="8" /><rect x="259" y="221" width="9" height="8" /><rect x="232" y="229" width="8" height="8" /><rect x="222" y="229" width="9" height="8" /><rect x="250" y="229" width="9" height="8" /><rect x="241" y="229" width="8" height="8" /><rect x="250" y="238" width="9" height="8" /><rect x="241" y="238" width="8" height="8" /><rect x="248" y="247" width="9" height="8" /><rect x="239" y="247" width="8" height="8" /><rect x="195" y="265" width="9" height="8" /><rect x="156" y="9" width="8" height="8" /><rect x="278" y="221" width="9" height="8" /><rect x="278" y="212" width="9" height="7" /><rect x="278" y="198" width="9" height="8" /><rect x="288" y="221" width="9" height="8" /><rect x="288" y="212" width="9" height="7" /><rect x="288" y="198" width="9" height="8" /><rect x="278" y="221" width="9" height="8" /><rect x="278" y="180" width="9" height="7" /><rect x="278" y="166" width="9" height="8" /><rect x="288" y="189" width="9" height="8" /><rect x="288" y="180" width="9" height="7" /><rect x="288" y="166" width="9" height="8" /><rect x="278" y="221" width="9" height="8" /><rect x="278" y="148" width="9" height="7" /><rect x="278" y="134" width="9" height="8" /><rect x="288" y="157" width="9" height="8" /><rect x="288" y="148" width="9" height="7" /><rect x="288" y="134" width="9" height="8" /><rect x="278" y="221" width="9" height="8" /><rect x="278" y="116" width="9" height="7" /><rect x="278" y="102" width="9" height="8" /><rect x="288" y="125" width="9" height="8" /><rect x="288" y="116" width="9" height="7" /><rect x="288" y="102" width="9" height="8" /><rect x="278" y="221" width="9" height="8" /><rect x="278" y="83" width="9" height="8" /><rect x="278" y="69" width="9" height="8" /><rect x="288" y="92" width="9" height="8" /><rect x="189" y="156" width="9" height="8" /><rect x="288" y="83" width="9" height="8" /><rect x="288" y="69" width="9" height="8" /><rect x="221" y="122" width="8" height="7" /><rect x="189" y="149" width="9" height="7" /><rect x="269" y="221" width="8" height="8" /><rect x="146" y="9" width="9" height="8" /><rect x="174" y="9" width="9" height="8" /><rect x="175" y="168" width="8" height="7" /><rect x="101" y="212" width="9" height="7" /><rect x="145" y="103" width="27" height="38" /><rect x="95" y="9" width="29" height="23" /><rect x="145" y="103" width="27" height="38" /><rect x="213" y="9" width="30" height="23" /><rect x="184" y="9" width="30" height="23" /><rect x="155" y="9" width="29" height="23" /><rect x="124" y="9" width="29" height="23" />
</g>
</g>
<g class="spawning-map-point" opacity="0.8">
</g>
</svg>