<?xml version="1.0" encoding="utf-8"?>
<svg xmlns="http://www.w3.org/2000/svg" width="300" height="300"
        viewBox="0 0 300 300" class="creatureMap" style="position:absolute;">
    <defs>
        <filter id="blur" x="-30%" y="-30%" width="160%" height="160%">
            <feGaussianBlur stdDeviation="3" />
        </filter>
        <pattern id="pattern-untameable" width="10" height="10" patternTransform="rotate(135)" patternUnits="userSpaceOnUse">
            <rect width="4" height="10" fill="black"></rect>
        </pattern>
        <filter id="groupStroke">
            <feFlood result="outsideColor" flood-color="black"/>
            <feMorphology in="SourceAlpha" operator="dilate" radius="2"/>
            <feComposite result="strokeoutline1" in="outsideColor" operator="in"/>
            <feComposite result="strokeoutline2" in="strokeoutline1" in2="SourceAlpha" operator="out"/>
            <feGaussianBlur in="strokeoutline2" result="strokeblur" stdDeviation="1"/>
        </filter>
        <style>
            .spawningMap-very-common { fill: #0F0; }
            .spawningMap-common { fill: #B2FF00; }
            .spawningMap-uncommon { fill: #FF0; }
            .spawningMap-very-uncommon { fill: #FC0; }
            .spawningMap-rare { fill: #F60; }
            .spawningMap-very-rare { fill: #F00; }
            .spawning-map-point { stroke:black; stroke-width:1; }
        </style>
    </defs>

<g filter="url(#blur)" opacity="0.7">
<g class="spawningMap-very-rare">
<rect x="192" y="14" width="15" height="15" />
<rect x="202" y="3" width="16" height="16" />
<rect x="192" y="24" width="15" height="16" />
<rect x="192" y="35" width="15" height="15" />
<rect x="192" y="45" width="15" height="16" />
<rect x="192" y="56" width="15" height="16" />
<rect x="202" y="56" width="16" height="16" />
<rect x="213" y="56" width="15" height="16" />
<rect x="223" y="56" width="16" height="16" />
<rect x="223" y="45" width="16" height="16" />
<rect x="213" y="45" width="15" height="16" />
<rect x="202" y="45" width="16" height="16" />
<rect x="202" y="35" width="16" height="15" />
<rect x="213" y="35" width="15" height="15" />
<rect x="223" y="35" width="16" height="15" />
<rect x="223" y="24" width="16" height="16" />
<rect x="213" y="24" width="15" height="16" />
<rect x="202" y="24" width="16" height="16" />
<rect x="202" y="14" width="16" height="15" />
<rect x="213" y="14" width="15" height="15" />
<rect x="213" y="3" width="15" height="16" />
<rect x="223" y="3" width="16" height="16" />
<rect x="223" y="14" width="16" height="15" />
<rect x="234" y="3" width="15" height="16" />
<rect x="244" y="3" width="16" height="16" />
<rect x="255" y="3" width="15" height="16" />
<rect x="265" y="3" width="16" height="16" />
<rect x="265" y="14" width="16" height="15" />
<rect x="255" y="14" width="15" height="15" />
<rect x="244" y="14" width="16" height="15" />
<rect x="234" y="14" width="15" height="15" />
<rect x="234" y="24" width="15" height="16" />
<rect x="244" y="24" width="16" height="16" />
<rect x="255" y="24" width="15" height="16" />
<rect x="265" y="24" width="16" height="16" />
<rect x="276" y="14" width="15" height="15" />
<rect x="276" y="24" width="15" height="16" />
<rect x="286" y="24" width="13" height="16" />
<rect x="286" y="35" width="14" height="15" />
<rect x="276" y="35" width="15" height="15" />
<rect x="265" y="35" width="16" height="15" />
<rect x="255" y="35" width="15" height="15" />
<rect x="244" y="35" width="16" height="15" />
<rect x="234" y="35" width="15" height="15" />
<rect x="234" y="45" width="15" height="16" />
<rect x="244" y="45" width="16" height="16" />
<rect x="255" y="45" width="15" height="16" />
<rect x="265" y="45" width="16" height="16" />
<rect x="276" y="45" width="15" height="16" />
<rect x="276" y="56" width="15" height="16" />
<rect x="265" y="56" width="16" height="16" />
<rect x="255" y="56" width="15" height="16" />
<rect x="244" y="56" width="16" height="16" />
<rect x="234" y="56" width="15" height="16" />
<rect x="234" y="66" width="15" height="16" />
<rect x="244" y="66" width="16" height="16" />
<rect x="255" y="66" width="15" height="16" />
<rect x="265" y="66" width="16" height="16" />
<rect x="276" y="66" width="15" height="16" />
<rect x="276" y="77" width="15" height="16" />
<rect x="265" y="77" width="16" height="16" />
<rect x="255" y="77" width="15" height="16" />
<rect x="244" y="77" width="16" height="16" />
<rect x="234" y="77" width="15" height="16" />
<rect x="244" y="87" width="16" height="16" />
<rect x="255" y="87" width="15" height="16" />
<rect x="265" y="87" width="16" height="16" />
<rect x="234" y="87" width="15" height="16" />
<rect x="223" y="87" width="16" height="16" />
<rect x="223" y="77" width="16" height="16" />
<rect x="223" y="66" width="16" height="16" />
<rect x="213" y="66" width="15" height="16" />
<rect x="213" y="77" width="15" height="16" />
<rect x="213" y="87" width="15" height="16" />
<rect x="202" y="77" width="16" height="16" />
<rect x="202" y="66" width="16" height="16" />
<rect x="192" y="66" width="15" height="16" />
</g>
</g>
<g fill="url(#pattern-untameable)" opacity="0.3">
<rect x="192" y="14" width="15" height="15"/>
<rect x="202" y="3" width="16" height="16"/>
<rect x="192" y="24" width="15" height="16"/>
<rect x="192" y="35" width="15" height="15"/>
<rect x="192" y="45" width="15" height="16"/>
<rect x="192" y="56" width="15" height="16"/>
<rect x="202" y="56" width="16" height="16"/>
<rect x="213" y="56" width="15" height="16"/>
<rect x="223" y="56" width="16" height="16"/>
<rect x="223" y="45" width="16" height="16"/>
<rect x="213" y="45" width="15" height="16"/>
<rect x="202" y="45" width="16" height="16"/>
<rect x="202" y="35" width="16" height="15"/>
<rect x="213" y="35" width="15" height="15"/>
<rect x="223" y="35" width="16" height="15"/>
<rect x="223" y="24" width="16" height="16"/>
<rect x="213" y="24" width="15" height="16"/>
<rect x="202" y="24" width="16" height="16"/>
<rect x="202" y="14" width="16" height="15"/>
<rect x="213" y="14" width="15" height="15"/>
<rect x="213" y="3" width="15" height="16"/>
<rect x="223" y="3" width="16" height="16"/>
<rect x="223" y="14" width="16" height="15"/>
<rect x="234" y="3" width="15" height="16"/>
<rect x="244" y="3" width="16" height="16"/>
<rect x="255" y="3" width="15" height="16"/>
<rect x="265" y="3" width="16" height="16"/>
<rect x="265" y="14" width="16" height="15"/>
<rect x="255" y="14" width="15" height="15"/>
<rect x="244" y="14" width="16" height="15"/>
<rect x="234" y="14" width="15" height="15"/>
<rect x="234" y="24" width="15" height="16"/>
<rect x="244" y="24" width="16" height="16"/>
<rect x="255" y="24" width="15" height="16"/>
<rect x="265" y="24" width="16" height="16"/>
<rect x="276" y="14" width="15" height="15"/>
<rect x="276" y="24" width="15" height="16"/>
<rect x="286" y="24" width="13" height="16"/>
<rect x="286" y="35" width="14" height="15"/>
<rect x="276" y="35" width="15" height="15"/>
<rect x="265" y="35" width="16" height="15"/>
<rect x="255" y="35" width="15" height="15"/>
<rect x="244" y="35" width="16" height="15"/>
<rect x="234" y="35" width="15" height="15"/>
<rect x="234" y="45" width="15" height="16"/>
<rect x="244" y="45" width="16" height="16"/>
<rect x="255" y="45" width="15" height="16"/>
<rect x="265" y="45" width="16" height="16"/>
<rect x="276" y="45" width="15" height="16"/>
<rect x="276" y="56" width="15" height="16"/>
<rect x="265" y="56" width="16" height="16"/>
<rect x="255" y="56" width="15" height="16"/>
<rect x="244" y="56" width="16" height="16"/>
<rect x="234" y="56" width="15" height="16"/>
<rect x="234" y="66" width="15" height="16"/>
<rect x="244" y="66" width="16" height="16"/>
<rect x="255" y="66" width="15" height="16"/>
<rect x="265" y="66" width="16" height="16"/>
<rect x="276" y="66" width="15" height="16"/>
<rect x="276" y="77" width="15" height="16"/>
<rect x="265" y="77" width="16" height="16"/>
<rect x="255" y="77" width="15" height="16"/>
<rect x="244" y="77" width="16" height="16"/>
<rect x="234" y="77" width="15" height="16"/>
<rect x="244" y="87" width="16" height="16"/>
<rect x="255" y="87" width="15" height="16"/>
<rect x="265" y="87" width="16" height="16"/>
<rect x="234" y="87" width="15" height="16"/>
<rect x="223" y="87" width="16" height="16"/>
<rect x="223" y="77" width="16" height="16"/>
<rect x="223" y="66" width="16" height="16"/>
<rect x="213" y="66" width="15" height="16"/>
<rect x="213" y="77" width="15" height="16"/>
<rect x="213" y="87" width="15" height="16"/>
<rect x="202" y="77" width="16" height="16"/>
<rect x="202" y="66" width="16" height="16"/>
<rect x="192" y="66" width="15" height="16"/>
</g>
</svg>