<?xml version="1.0" encoding="utf-8"?>
<svg xmlns="http://www.w3.org/2000/svg" width="300" height="300" viewBox="0 0 300 300" class="creatureMap" style="position:absolute;">
<defs>
    <filter id="blur" x="-30%" y="-30%" width="160%" height="160%">
        <feGaussianBlur stdDeviation="3" />
    </filter>
    <style>
        .spawningMap-very-common { fill: #0F0; }
        .spawningMap-common { fill: #B2FF00; }
        .spawningMap-uncommon { fill: #FF0; }
        .spawningMap-very-uncommon { fill: #FC0; }
        .spawningMap-rare { fill: #F60; }
        .spawningMap-very-rare { fill: #F00; }
        .spawning-map-point { stroke:black; stroke-width:1; }
    </style>
</defs>
<g filter="url(#blur)" opacity="0.7">
    <g class="spawningMap-very-common">
        <rect x="67" y="86" width="11" height="11" />
        <rect x="58" y="106" width="12" height="11" />
        <rect x="64" y="113" width="11" height="11" />
        <rect x="53" y="118" width="11" height="11" />
        <rect x="47" y="123" width="11" height="11" />
        <rect x="102" y="120" width="11" height="12" />
        <rect x="78" y="86" width="12" height="11" />
        <rect x="73" y="92" width="12" height="11" />
        <rect x="102" y="63" width="12" height="11" />
        <rect x="96" y="63" width="12" height="11" />
        <rect x="229" y="81" width="11" height="11" />
        <rect x="246" y="75" width="11" height="11" />
        <rect x="238" y="69" width="11" height="11" />
        <rect x="62" y="164" width="12" height="11" />
        <rect x="94" y="200" width="11" height="12" />
        <rect x="67" y="80" width="11" height="11" />
        <rect x="58" y="112" width="12" height="11" />
        <rect x="107" y="120" width="12" height="12" />
        <rect x="58" y="123" width="12" height="11" />
        <rect x="87" y="108" width="11" height="12" />
        <rect x="87" y="102" width="11" height="12" />
        <rect x="68" y="164" width="11" height="11" />
        <rect x="87" y="120" width="12" height="11" />
        <rect x="73" y="80" width="11" height="11" />
        <rect x="73" y="86" width="11" height="11" />
        <rect x="73" y="97" width="11" height="11" />
        <rect x="43" y="75" width="11" height="11" />
        <rect x="78" y="80" width="12" height="11" />
        <rect x="58" y="118" width="12" height="11" />
        <rect x="102" y="68" width="12" height="11" />
        <rect x="160" y="74" width="12" height="11" />
        <rect x="164" y="160" width="11" height="11" />
        <rect x="180" y="115" width="12" height="11" />
        <rect x="40" y="98" width="12" height="11" />
        <rect x="175" y="115" width="11" height="11" />
        <rect x="35" y="93" width="11" height="11" />
        <rect x="179" y="109" width="11" height="11" />
        <rect x="52" y="92" width="11" height="11" />
        <rect x="158" y="162" width="12" height="11" />
        <rect x="161" y="156" width="12" height="11" />
        <rect x="64" y="119" width="11" height="11" />
        <rect x="184" y="104" width="12" height="11" />
        <rect x="189" y="106" width="12" height="11" />
        <rect x="184" y="184" width="11" height="11" />
        <rect x="183" y="178" width="12" height="11" />
        <rect x="184" y="109" width="12" height="11" />
        <rect x="202" y="111" width="11" height="11" />
        <rect x="204" y="116" width="12" height="11" />
        <rect x="217" y="115" width="11" height="11" />
        <rect x="222" y="115" width="11" height="11" />
        <rect x="174" y="31" width="12" height="11" />
        <rect x="180" y="32" width="12" height="11" />
        <rect x="232" y="104" width="11" height="11" />
        <rect x="70" y="120" width="11" height="11" />
        <rect x="232" y="92" width="11" height="11" />
        <rect x="229" y="86" width="11" height="12" />
        <rect x="238" y="109" width="11" height="11" />
        <rect x="64" y="124" width="11" height="12" />
        <rect x="238" y="104" width="11" height="11" />
        <rect x="232" y="98" width="11" height="11" />
        <rect x="43" y="104" width="11" height="11" />
        <rect x="40" y="92" width="12" height="11" />
        <rect x="40" y="87" width="12" height="11" />
        <rect x="46" y="98" width="11" height="11" />
        <rect x="70" y="114" width="11" height="12" />
        <rect x="26" y="112" width="11" height="12" />
        <rect x="186" y="100" width="12" height="12" />
        <rect x="67" y="92" width="11" height="11" />
        <rect x="64" y="101" width="12" height="12" />
        <rect x="64" y="107" width="12" height="11" />
        <rect x="76" y="114" width="11" height="12" />
        <rect x="53" y="123" width="11" height="11" />
        <rect x="53" y="129" width="11" height="11" />
        <rect x="47" y="129" width="11" height="11" />
        <rect x="76" y="120" width="11" height="11" />
        <rect x="82" y="120" width="11" height="11" />
        <rect x="82" y="114" width="11" height="12" />
        <rect x="87" y="114" width="12" height="12" />
        <rect x="93" y="116" width="11" height="11" />
        <rect x="93" y="111" width="11" height="11" />
    </g>
    <g class="spawningMap-common">
        <rect x="93" y="100" width="11" height="16" />
        <rect x="82" y="109" width="11" height="11" />
        <rect x="172" y="74" width="10" height="13" />
        <rect x="181" y="170" width="9" height="15" />
    </g></g>
</svg>