<svg xmlns="http://www.w3.org/2000/svg" width="300" height="300" viewBox="0 0 300 300" class="creatureMap" style="position:absolute;">
<defs>
<filter id="blur" x="-30%" y="-30%" width="160%" height="160%"><feGaussianBlur stdDeviation="3" />
</filter>
<pattern id="pattern-untameable" width="10" height="10" patternTransform="rotate(135)" patternUnits="userSpaceOnUse"><rect width="4" height="10" fill="black"></rect>
</pattern>
<filter id="groupStroke"><feFlood result="outsideColor" flood-color="black"/><feMorphology in="SourceAlpha" operator="dilate" radius="2"/><feComposite result="strokeoutline1" in="outsideColor" operator="in"/><feComposite result="strokeoutline2" in="strokeoutline1" in2="SourceAlpha" operator="out"/><feGaussianBlur in="strokeoutline2" result="strokeblur" stdDeviation="1"/>
</filter>
<style>
.spawningMap-very-common { fill: #0F0;}
.spawningMap-common { fill: #B2FF00;}
.spawningMap-uncommon { fill: #FF0;}
.spawningMap-very-uncommon { fill: #FC0;}
.spawningMap-rare { fill: #F60;}
.spawningMap-very-rare { fill: #F00; }.spawning-map-point {stroke:black; stroke-width:1;}
</style>
</defs>
<g filter="url(#blur)" opacity="0.7">
<g class="spawningMap-very-uncommon"><rect x="66" y="231" width="12" height="12" /><rect x="157" y="270" width="12" height="11" /><rect x="41" y="142" width="11" height="12" /><rect x="40" y="218" width="12" height="12" /><rect x="40" y="244" width="12" height="11" /><rect x="40" y="231" width="12" height="12" /><rect x="260" y="206" width="12" height="11" /><rect x="247" y="168" width="12" height="11" /><rect x="247" y="218" width="12" height="12" /><rect x="273" y="180" width="12" height="12" /><rect x="260" y="168" width="12" height="11" /><rect x="260" y="155" width="12" height="11" /><rect x="273" y="155" width="12" height="11" /><rect x="273" y="142" width="12" height="12" /><rect x="260" y="142" width="12" height="12" /><rect x="234" y="168" width="12" height="11" /><rect x="215" y="34" width="12" height="11" /><rect x="183" y="40" width="12" height="12" /><rect x="105" y="206" width="12" height="11" /><rect x="79" y="206" width="12" height="11" /><rect x="79" y="218" width="12" height="12" /><rect x="118" y="40" width="12" height="12" /><rect x="40" y="269" width="12" height="12" /><rect x="40" y="257" width="12" height="11" /><rect x="53" y="257" width="12" height="11" /><rect x="28" y="193" width="11" height="11" /><rect x="28" y="180" width="11" height="12" /><rect x="27" y="168" width="12" height="11" /><rect x="27" y="155" width="12" height="11" /><rect x="40" y="117" width="12" height="11" /><rect x="118" y="28" width="12" height="11" /><rect x="28" y="117" width="11" height="11" /><rect x="40" y="104" width="12" height="11" /><rect x="28" y="78" width="11" height="12" /><rect x="66" y="206" width="12" height="11" /><rect x="53" y="193" width="12" height="11" /><rect x="234" y="28" width="12" height="11" /><rect x="209" y="15" width="11" height="11" /><rect x="221" y="15" width="12" height="11" /><rect x="170" y="257" width="12" height="11" /><rect x="221" y="79" width="12" height="11" /><rect x="196" y="155" width="11" height="11" /><rect x="170" y="180" width="12" height="12" /><rect x="157" y="193" width="12" height="11" /><rect x="157" y="206" width="12" height="11" /><rect x="144" y="206" width="12" height="11" /><rect x="131" y="206" width="12" height="11" /><rect x="118" y="206" width="12" height="11" /><rect x="92" y="28" width="12" height="11" /><rect x="118" y="218" width="12" height="12" /><rect x="118" y="257" width="12" height="11" /><rect x="131" y="257" width="12" height="11" /><rect x="144" y="257" width="12" height="11" /><rect x="157" y="218" width="12" height="12" /><rect x="170" y="218" width="12" height="12" /><rect x="183" y="218" width="12" height="12" /><rect x="196" y="218" width="11" height="12" /><rect x="196" y="206" width="11" height="11" /><rect x="196" y="193" width="11" height="11" /><rect x="196" y="180" width="11" height="12" /><rect x="183" y="257" width="12" height="11" /><rect x="213" y="48" width="12" height="12" /><rect x="170" y="270" width="12" height="11" /><rect x="209" y="257" width="11" height="11" />
</g>
<g class="spawningMap-common"><rect x="179" y="211" width="17" height="14" /><rect x="179" y="211" width="17" height="14" />
</g>
<g class="spawningMap-very-common"><rect x="134" y="110" width="8" height="8" /><rect x="179" y="225" width="17" height="13" /><rect x="134" y="110" width="8" height="8" /><rect x="161" y="268" width="8" height="9" /><rect x="154" y="265" width="7" height="9" /><rect x="179" y="225" width="17" height="13" /><rect x="154" y="265" width="7" height="9" /><rect x="161" y="268" width="8" height="9" />
</g>
</g>
<g class="spawning-map-point" opacity="0.8">
</g>
<g filter="url(#groupStroke)" opacity="0.8"><rect x="179" y="211" width="17" height="14"/><rect x="179" y="211" width="17" height="14"/><rect x="134" y="110" width="8" height="8"/><rect x="179" y="225" width="17" height="13"/><rect x="134" y="110" width="8" height="8"/><rect x="161" y="268" width="8" height="9"/><rect x="154" y="265" width="7" height="9"/><rect x="179" y="225" width="17" height="13"/><rect x="154" y="265" width="7" height="9"/><rect x="161" y="268" width="8" height="9"/>
</g>
</svg>