<?xml version="1.0" encoding="utf-8"?>
<svg xmlns="http://www.w3.org/2000/svg" width="300" height="300" viewBox="0 0 300 300" class="creatureMap" style="position:absolute;">
<defs>
    <filter id="blur" x="-30%" y="-30%" width="160%" height="160%">
        <feGaussianBlur stdDeviation="3" />
    </filter>
    <style>
        .spawningMap-very-common { fill: #0F0; }
        .spawningMap-common { fill: #B2FF00; }
        .spawningMap-uncommon { fill: #FF0; }
        .spawningMap-very-uncommon { fill: #FC0; }
        .spawningMap-rare { fill: #F60; }
        .spawningMap-very-rare { fill: #F00; }
        .spawning-map-point { stroke:black; stroke-width:1; }
    </style>
</defs>
<g filter="url(#blur)" opacity="0.7">
    <g class="spawningMap-very-common">
        <rect x="195" y="191" width="10" height="15" />
        <rect x="197" y="214" width="11" height="15" />
        <rect x="35" y="115" width="11" height="15" />
        <rect x="40" y="115" width="10" height="15" />
        <rect x="45" y="125" width="10" height="14" />
        <rect x="64" y="115" width="10" height="15" />
        <rect x="64" y="125" width="10" height="14" />
        <rect x="50" y="144" width="10" height="15" />
        <rect x="59" y="154" width="11" height="15" />
        <rect x="65" y="250" width="12" height="12" />
        <rect x="69" y="115" width="10" height="14" />
        <rect x="69" y="124" width="10" height="15" />
        <rect x="138" y="111" width="12" height="12" />
        <rect x="138" y="104" width="12" height="13" />
        <rect x="131" y="111" width="12" height="12" />
        <rect x="131" y="104" width="12" height="13" />
        <rect x="125" y="111" width="11" height="12" />
        <rect x="125" y="104" width="11" height="13" />
        <rect x="118" y="111" width="12" height="12" />
        <rect x="118" y="104" width="12" height="13" />
        <rect x="107" y="218" width="15" height="13" />
        <rect x="192" y="193" width="18" height="19" />
        <rect x="118" y="55" width="10" height="15" />
        <rect x="50" y="134" width="10" height="15" />
        <rect x="200" y="191" width="10" height="15" />
        <rect x="200" y="201" width="10" height="15" />
        <rect x="193" y="204" width="11" height="15" />
        <rect x="54" y="134" width="11" height="15" />
        <rect x="50" y="125" width="10" height="14" />
        <rect x="40" y="105" width="10" height="15" />
        <rect x="45" y="105" width="10" height="15" />
        <rect x="50" y="105" width="10" height="15" />
        <rect x="54" y="105" width="11" height="15" />
        <rect x="45" y="115" width="10" height="15" />
        <rect x="50" y="115" width="10" height="15" />
        <rect x="54" y="144" width="11" height="15" />
        <rect x="59" y="144" width="11" height="15" />
        <rect x="54" y="115" width="11" height="15" />
        <rect x="54" y="125" width="11" height="14" />
        <rect x="59" y="115" width="11" height="15" />
        <rect x="59" y="125" width="11" height="14" />
        <rect x="64" y="134" width="10" height="15" />
        <rect x="64" y="144" width="10" height="15" />
        <rect x="69" y="134" width="10" height="15" />
        <rect x="69" y="144" width="10" height="15" />
        <rect x="35" y="105" width="11" height="15" />
        <rect x="59" y="134" width="11" height="15" />
        <rect x="118" y="209" width="14" height="14" />
        <rect x="202" y="235" width="18" height="19" />
        <rect x="202" y="221" width="18" height="19" />
        <rect x="192" y="207" width="18" height="19" />
        <rect x="69" y="64" width="18" height="11" />
        <rect x="64" y="69" width="15" height="14" />
        <rect x="127" y="209" width="14" height="14" />
        <rect x="107" y="209" width="15" height="14" />
    </g></g>
</svg>