<svg xmlns="http://www.w3.org/2000/svg" width="300" height="300" viewBox="0 0 300 300" class="creatureMap" style="position:absolute;">
<defs>
<filter id="blur" x="-30%" y="-30%" width="160%" height="160%"><feGaussianBlur stdDeviation="3" />
</filter>
<pattern id="pattern-untameable" width="10" height="10" patternTransform="rotate(135)" patternUnits="userSpaceOnUse"><rect width="4" height="10" fill="black"></rect>
</pattern>
<filter id="groupStroke"><feFlood result="outsideColor" flood-color="black"/><feMorphology in="SourceAlpha" operator="dilate" radius="2"/><feComposite result="strokeoutline1" in="outsideColor" operator="in"/><feComposite result="strokeoutline2" in="strokeoutline1" in2="SourceAlpha" operator="out"/><feGaussianBlur in="strokeoutline2" result="strokeblur" stdDeviation="1"/>
</filter>
<style>
.spawningMap-very-common { fill: #0F0;}
.spawningMap-common { fill: #B2FF00;}
.spawningMap-uncommon { fill: #FF0;}
.spawningMap-very-uncommon { fill: #FC0;}
.spawningMap-rare { fill: #F60;}
.spawningMap-very-rare { fill: #F00; }.spawning-map-point {stroke:black; stroke-width:1;}
</style>
</defs>
<g filter="url(#blur)" opacity="0.7">
<g class="spawningMap-rare"><rect x="172" y="153" width="3" height="10" /><rect x="176" y="234" width="6" height="6" /><rect x="182" y="234" width="6" height="6" /><rect x="182" y="159" width="6" height="7" /><rect x="189" y="159" width="6" height="7" /><rect x="170" y="135" width="4" height="3" /><rect x="164" y="137" width="6" height="3" /><rect x="161" y="137" width="2" height="3" /><rect x="158" y="141" width="3" height="3" /><rect x="158" y="177" width="6" height="7" /><rect x="189" y="234" width="6" height="6" /><rect x="169" y="207" width="6" height="6" /><rect x="169" y="200" width="6" height="6" /><rect x="162" y="207" width="6" height="6" /><rect x="162" y="200" width="6" height="6" /><rect x="162" y="193" width="6" height="7" /><rect x="169" y="193" width="6" height="7" /><rect x="172" y="174" width="3" height="9" /><rect x="172" y="164" width="3" height="9" /><rect x="172" y="184" width="3" height="9" /><rect x="158" y="164" width="6" height="6" /><rect x="158" y="150" width="6" height="6" /><rect x="182" y="241" width="6" height="6" /><rect x="176" y="241" width="6" height="6" /><rect x="189" y="227" width="6" height="6" /><rect x="189" y="241" width="6" height="6" /><rect x="189" y="221" width="6" height="6" /><rect x="189" y="200" width="6" height="6" /><rect x="189" y="193" width="6" height="7" /><rect x="189" y="187" width="6" height="6" /><rect x="182" y="187" width="6" height="6" /><rect x="182" y="180" width="6" height="6" /><rect x="189" y="180" width="6" height="6" /><rect x="182" y="173" width="6" height="6" /><rect x="189" y="173" width="6" height="6" /><rect x="182" y="166" width="6" height="7" /><rect x="189" y="166" width="6" height="7" />
</g>
<g class="spawningMap-very-uncommon"><rect x="158" y="207" width="4" height="6" /><rect x="158" y="200" width="4" height="6" /><rect x="158" y="191" width="12" height="2" /><rect x="139" y="221" width="3" height="9" /><rect x="191" y="112" width="6" height="9" /><rect x="201" y="86" width="8" height="6" /><rect x="127" y="143" width="5" height="2" /><rect x="132" y="138" width="2" height="4" /><rect x="167" y="108" width="3" height="6" /><rect x="109" y="101" width="6" height="6" /><rect x="158" y="193" width="4" height="7" /><rect x="176" y="129" width="6" height="6" /><rect x="164" y="125" width="10" height="4" /><rect x="203" y="95" width="6" height="7" /><rect x="109" y="94" width="6" height="6" /><rect x="183" y="104" width="6" height="6" />
</g>
<g class="spawningMap-uncommon"><rect x="102" y="107" width="6" height="6" /><rect x="153" y="133" width="3" height="6" /><rect x="95" y="107" width="6" height="6" /><rect x="116" y="101" width="6" height="6" /><rect x="154" y="142" width="3" height="6" /><rect x="95" y="87" width="6" height="6" /><rect x="102" y="87" width="6" height="6" /><rect x="109" y="87" width="6" height="6" /><rect x="116" y="87" width="6" height="6" /><rect x="116" y="94" width="6" height="6" /><rect x="102" y="94" width="6" height="6" /><rect x="95" y="94" width="6" height="6" /><rect x="95" y="101" width="6" height="6" /><rect x="102" y="101" width="6" height="6" />
</g>
</g>
<g class="spawning-map-point" opacity="0.8">
</g>
</svg>