<svg xmlns="http://www.w3.org/2000/svg" width="300" height="300" viewBox="0 0 300 300" class="creatureMap" style="position:absolute;">
<defs>
<filter id="blur" x="-30%" y="-30%" width="160%" height="160%"><feGaussianBlur stdDeviation="3" />
</filter>
<pattern id="pattern-untameable" width="10" height="10" patternTransform="rotate(135)" patternUnits="userSpaceOnUse"><rect width="4" height="10" fill="black"></rect>
</pattern>
<filter id="groupStroke"><feFlood result="outsideColor" flood-color="black"/><feMorphology in="SourceAlpha" operator="dilate" radius="2"/><feComposite result="strokeoutline1" in="outsideColor" operator="in"/><feComposite result="strokeoutline2" in="strokeoutline1" in2="SourceAlpha" operator="out"/><feGaussianBlur in="strokeoutline2" result="strokeblur" stdDeviation="1"/>
</filter>
<style>
.spawningMap-very-common { fill: #0F0;}
.spawningMap-common { fill: #B2FF00;}
.spawningMap-uncommon { fill: #FF0;}
.spawningMap-very-uncommon { fill: #FC0;}
.spawningMap-rare { fill: #F60;}
.spawningMap-very-rare { fill: #F00; }.spawning-map-point {stroke:black; stroke-width:1;}
</style>
</defs>
<g filter="url(#blur)" opacity="0.7">
<g class="spawningMap-rare"><rect x="108" y="59" width="8" height="6" /><rect x="152" y="178" width="6" height="13" /><rect x="155" y="75" width="9" height="8" /><rect x="208" y="57" width="9" height="10" /><rect x="218" y="68" width="8" height="10" /><rect x="227" y="68" width="8" height="10" /><rect x="245" y="50" width="9" height="10" /><rect x="255" y="51" width="8" height="20" /><rect x="113" y="150" width="6" height="14" /><rect x="101" y="167" width="12" height="7" /><rect x="79" y="121" width="6" height="5" /><rect x="77" y="208" width="9" height="12" /><rect x="87" y="208" width="8" height="12" /><rect x="101" y="185" width="17" height="4" /><rect x="140" y="211" width="8" height="9" /><rect x="149" y="201" width="9" height="9" /><rect x="161" y="50" width="9" height="15" /><rect x="155" y="83" width="9" height="9" /><rect x="140" y="88" width="9" height="13" /><rect x="72" y="60" width="8" height="6" /><rect x="208" y="46" width="9" height="10" /><rect x="218" y="46" width="8" height="10" /><rect x="227" y="46" width="8" height="10" /><rect x="236" y="46" width="9" height="10" /><rect x="218" y="57" width="8" height="10" /><rect x="227" y="57" width="8" height="10" /><rect x="236" y="57" width="9" height="10" /><rect x="236" y="68" width="9" height="10" /><rect x="245" y="61" width="9" height="10" /><rect x="76" y="67" width="8" height="6" /><rect x="76" y="73" width="8" height="7" /><rect x="136" y="56" width="9" height="14" /><rect x="113" y="134" width="6" height="15" /><rect x="104" y="134" width="7" height="15" /><rect x="104" y="150" width="7" height="14" /><rect x="79" y="114" width="6" height="6" /><rect x="161" y="66" width="9" height="8" /><rect x="77" y="199" width="9" height="8" /><rect x="87" y="199" width="8" height="8" /><rect x="90" y="190" width="9" height="8" /><rect x="100" y="190" width="9" height="8" /><rect x="110" y="190" width="9" height="8" /><rect x="140" y="192" width="8" height="8" /><rect x="140" y="201" width="8" height="9" /><rect x="149" y="192" width="9" height="8" /><rect x="127" y="56" width="8" height="14" /><rect x="152" y="164" width="6" height="13" />
</g>
<g class="spawningMap-very-uncommon"><rect x="72" y="53" width="8" height="6" /><rect x="69" y="95" width="6" height="6" /><rect x="123" y="82" width="6" height="5" /><rect x="127" y="71" width="18" height="4" /><rect x="248" y="129" width="10" height="6" /><rect x="248" y="122" width="10" height="6" /><rect x="248" y="116" width="10" height="6" /><rect x="248" y="109" width="10" height="6" /><rect x="248" y="102" width="10" height="6" /><rect x="248" y="95" width="10" height="6" /><rect x="82" y="87" width="6" height="6" /><rect x="65" y="89" width="9" height="4" /><rect x="133" y="93" width="6" height="8" /><rect x="56" y="87" width="9" height="6" /><rect x="84" y="127" width="6" height="6" /><rect x="145" y="170" width="6" height="7" /><rect x="90" y="177" width="7" height="7" /><rect x="75" y="80" width="6" height="6" /><rect x="86" y="71" width="8" height="4" /><rect x="117" y="56" width="9" height="5" /><rect x="117" y="71" width="9" height="4" /><rect x="117" y="66" width="9" height="4" /><rect x="108" y="66" width="8" height="4" /><rect x="117" y="61" width="9" height="4" /><rect x="123" y="75" width="6" height="7" /><rect x="117" y="52" width="9" height="4" /><rect x="127" y="87" width="6" height="7" /><rect x="107" y="71" width="9" height="4" /><rect x="65" y="84" width="9" height="5" /><rect x="86" y="75" width="8" height="5" /><rect x="65" y="60" width="6" height="6" /><rect x="148" y="107" width="6" height="7" /><rect x="127" y="101" width="6" height="4" /><rect x="127" y="94" width="6" height="5" /><rect x="114" y="114" width="6" height="6" /><rect x="114" y="107" width="6" height="7" /><rect x="107" y="114" width="6" height="6" /><rect x="107" y="121" width="6" height="5" /><rect x="101" y="121" width="6" height="5" /><rect x="87" y="114" width="6" height="6" /><rect x="94" y="121" width="6" height="5" /><rect x="87" y="121" width="6" height="5" /><rect x="97" y="127" width="6" height="6" /><rect x="91" y="127" width="6" height="6" /><rect x="141" y="114" width="6" height="6" /><rect x="141" y="107" width="6" height="7" /><rect x="134" y="107" width="6" height="7" /><rect x="128" y="107" width="6" height="7" /><rect x="121" y="114" width="6" height="6" /><rect x="82" y="80" width="6" height="6" /><rect x="121" y="107" width="6" height="7" /><rect x="75" y="87" width="6" height="6" /><rect x="98" y="177" width="7" height="7" /><rect x="116" y="175" width="6" height="9" /><rect x="123" y="175" width="6" height="9" /><rect x="143" y="178" width="8" height="6" />
</g>
<g class="spawningMap-uncommon"><rect x="201" y="116" width="6" height="6" /><rect x="207" y="109" width="6" height="6" /><rect x="214" y="109" width="6" height="6" /><rect x="234" y="89" width="6" height="6" /><rect x="221" y="89" width="6" height="6" /><rect x="227" y="89" width="6" height="6" /><rect x="248" y="89" width="6" height="6" /><rect x="188" y="116" width="5" height="6" /><rect x="188" y="143" width="5" height="6" /><rect x="188" y="136" width="5" height="6" /><rect x="116" y="161" width="6" height="6" /><rect x="91" y="159" width="6" height="6" /><rect x="133" y="102" width="6" height="5" /><rect x="141" y="122" width="5" height="4" /><rect x="122" y="101" width="4" height="4" /><rect x="110" y="107" width="3" height="7" /><rect x="152" y="157" width="6" height="6" /><rect x="90" y="185" width="9" height="4" /><rect x="146" y="185" width="5" height="6" /><rect x="207" y="136" width="6" height="6" /><rect x="214" y="136" width="6" height="6" /><rect x="221" y="136" width="6" height="6" /><rect x="227" y="136" width="6" height="6" /><rect x="234" y="136" width="6" height="6" /><rect x="194" y="136" width="6" height="6" /><rect x="201" y="136" width="6" height="6" /><rect x="207" y="129" width="6" height="6" /><rect x="214" y="129" width="6" height="6" /><rect x="221" y="129" width="6" height="6" /><rect x="227" y="129" width="6" height="6" /><rect x="234" y="129" width="6" height="6" /><rect x="194" y="129" width="6" height="6" /><rect x="201" y="129" width="6" height="6" /><rect x="89" y="101" width="6" height="6" /><rect x="82" y="94" width="6" height="6" /><rect x="89" y="94" width="6" height="6" /><rect x="120" y="87" width="6" height="7" /><rect x="129" y="75" width="6" height="7" /><rect x="129" y="82" width="6" height="5" /><rect x="136" y="82" width="6" height="5" /><rect x="133" y="87" width="6" height="5" /><rect x="136" y="75" width="6" height="7" /><rect x="201" y="122" width="6" height="6" /><rect x="207" y="122" width="6" height="6" /><rect x="214" y="122" width="6" height="6" /><rect x="221" y="122" width="6" height="6" /><rect x="227" y="122" width="6" height="6" /><rect x="234" y="122" width="6" height="6" /><rect x="207" y="116" width="6" height="6" /><rect x="214" y="116" width="6" height="6" /><rect x="227" y="116" width="6" height="6" /><rect x="234" y="116" width="6" height="6" /><rect x="221" y="109" width="6" height="6" /><rect x="227" y="109" width="6" height="6" /><rect x="234" y="109" width="6" height="6" /><rect x="234" y="102" width="6" height="6" /><rect x="241" y="129" width="6" height="6" /><rect x="241" y="122" width="6" height="6" /><rect x="241" y="116" width="6" height="6" /><rect x="241" y="109" width="6" height="6" /><rect x="241" y="102" width="6" height="6" /><rect x="221" y="102" width="6" height="6" /><rect x="227" y="102" width="6" height="6" /><rect x="234" y="95" width="6" height="6" /><rect x="241" y="95" width="6" height="6" /><rect x="221" y="95" width="6" height="6" /><rect x="227" y="95" width="6" height="6" /><rect x="241" y="89" width="6" height="6" /><rect x="194" y="122" width="6" height="6" /><rect x="194" y="116" width="6" height="6" /><rect x="188" y="122" width="5" height="6" /><rect x="221" y="116" width="6" height="6" /><rect x="154" y="107" width="6" height="7" /><rect x="154" y="114" width="6" height="6" /><rect x="153" y="121" width="6" height="6" /><rect x="146" y="121" width="6" height="6" /><rect x="137" y="127" width="6" height="6" /><rect x="130" y="127" width="6" height="6" /><rect x="124" y="127" width="6" height="6" /><rect x="120" y="134" width="6" height="6" /><rect x="120" y="141" width="6" height="6" /><rect x="120" y="147" width="6" height="7" /><rect x="120" y="154" width="6" height="7" /><rect x="123" y="168" width="6" height="6" /><rect x="123" y="161" width="6" height="6" /><rect x="97" y="159" width="6" height="6" /><rect x="148" y="114" width="6" height="6" /><rect x="128" y="121" width="6" height="5" /><rect x="134" y="121" width="6" height="5" /><rect x="120" y="94" width="6" height="5" /><rect x="121" y="121" width="6" height="5" /><rect x="114" y="121" width="6" height="5" /><rect x="101" y="114" width="6" height="6" /><rect x="94" y="114" width="6" height="6" /><rect x="134" y="114" width="6" height="6" /><rect x="128" y="114" width="6" height="6" /><rect x="116" y="168" width="6" height="6" /><rect x="188" y="129" width="5" height="6" /><rect x="145" y="150" width="6" height="6" /><rect x="152" y="150" width="6" height="6" /><rect x="145" y="157" width="6" height="6" /><rect x="130" y="178" width="6" height="6" /><rect x="137" y="178" width="6" height="6" /><rect x="139" y="185" width="6" height="6" /><rect x="145" y="164" width="6" height="6" />
</g>
</g>
<g class="spawning-map-point" opacity="0.8">
</g>
</svg>