<svg xmlns="http://www.w3.org/2000/svg" width="300" height="300" viewBox="0 0 300 300" class="creatureMap" style="position:absolute;">
<defs>
<filter id="blur" x="-30%" y="-30%" width="160%" height="160%"><feGaussianBlur stdDeviation="3" />
</filter>
<pattern id="pattern-untameable" width="10" height="10" patternTransform="rotate(135)" patternUnits="userSpaceOnUse"><rect width="4" height="10" fill="black"></rect>
</pattern>
<filter id="groupStroke"><feFlood result="outsideColor" flood-color="black"/><feMorphology in="SourceAlpha" operator="dilate" radius="2"/><feComposite result="strokeoutline1" in="outsideColor" operator="in"/><feComposite result="strokeoutline2" in="strokeoutline1" in2="SourceAlpha" operator="out"/><feGaussianBlur in="strokeoutline2" result="strokeblur" stdDeviation="1"/>
</filter>
<style>
.spawningMap-very-common { fill: #0F0;}
.spawningMap-common { fill: #B2FF00;}
.spawningMap-uncommon { fill: #FF0;}
.spawningMap-very-uncommon { fill: #FC0;}
.spawningMap-rare { fill: #F60;}
.spawningMap-very-rare { fill: #F00; }.spawning-map-point {stroke:black; stroke-width:1;}
</style>
</defs>
<g filter="url(#blur)" opacity="0.7">
<g class="spawningMap-very-rare"><rect x="268" y="152" width="29" height="63" /><rect x="268" y="88" width="29" height="63" /><rect x="268" y="6" width="29" height="81" /><rect x="242" y="152" width="25" height="63" /><rect x="241" y="88" width="26" height="63" /><rect x="248" y="22" width="19" height="65" /><rect x="114" y="22" width="24" height="57" /><rect x="112" y="70" width="168" height="10" /><rect x="268" y="88" width="29" height="63" /><rect x="242" y="152" width="25" height="63" /><rect x="241" y="88" width="26" height="63" /><rect x="248" y="22" width="19" height="65" /><rect x="256" y="31" width="24" height="28" /><rect x="239" y="12" width="37" height="212" /><rect x="106" y="204" width="107" height="17" /><rect x="268" y="152" width="29" height="63" /><rect x="268" y="6" width="29" height="81" />
</g>
<g class="spawningMap-very-uncommon"><rect x="138" y="195" width="9" height="8" /><rect x="218" y="189" width="8" height="8" /><rect x="193" y="197" width="9" height="8" />
</g>
</g>
<g class="spawning-map-point" opacity="0.8">
</g>
</svg>