<?xml version="1.0" encoding="utf-8"?>
<svg xmlns="http://www.w3.org/2000/svg" width="300" height="300" viewBox="0 0 300 300" class="creatureMap" style="position:absolute;">
<defs>
    <filter id="blur" x="-30%" y="-30%" width="160%" height="160%">
        <feGaussianBlur stdDeviation="3" />
    </filter>
    <style>
        .spawningMap-very-common { fill: #0F0; }
        .spawningMap-common { fill: #B2FF00; }
        .spawningMap-uncommon { fill: #FF0; }
        .spawningMap-very-uncommon { fill: #FC0; }
        .spawningMap-rare { fill: #F60; }
        .spawningMap-very-rare { fill: #F00; }
        .spawning-map-point { stroke:black; stroke-width:1; }
    </style>
</defs>
<g filter="url(#blur)" opacity="0.7">
    <g class="spawningMap-very-common">
        <rect x="210" y="271" width="12" height="11" />
        <rect x="205" y="271" width="11" height="11" />
        <rect x="199" y="271" width="11" height="11" />
        <rect x="188" y="248" width="11" height="11" />
        <rect x="193" y="248" width="12" height="11" />
        <rect x="205" y="260" width="11" height="11" />
        <rect x="205" y="254" width="11" height="11" />
        <rect x="211" y="254" width="11" height="11" />
        <rect x="205" y="248" width="11" height="11" />
        <rect x="211" y="248" width="11" height="11" />
        <rect x="76" y="109" width="11" height="11" />
        <rect x="100" y="103" width="11" height="11" />
        <rect x="120" y="117" width="11" height="11" />
        <rect x="142" y="105" width="12" height="11" />
        <rect x="154" y="100" width="11" height="11" />
        <rect x="166" y="110" width="13" height="13" />
        <rect x="119" y="111" width="12" height="11" />
        <rect x="88" y="89" width="11" height="8" />
        <rect x="80" y="66" width="12" height="11" />
        <rect x="98" y="79" width="11" height="11" />
        <rect x="145" y="73" width="12" height="11" />
        <rect x="163" y="63" width="12" height="12" />
        <rect x="127" y="63" width="12" height="12" />
        <rect x="178" y="179" width="11" height="12" />
        <rect x="134" y="82" width="12" height="11" />
        <rect x="128" y="82" width="12" height="11" />
        <rect x="178" y="101" width="11" height="11" />
        <rect x="146" y="82" width="11" height="11" />
        <rect x="194" y="104" width="11" height="11" />
        <rect x="178" y="191" width="12" height="10" />
        <rect x="166" y="189" width="11" height="11" />
        <rect x="168" y="198" width="11" height="11" />
        <rect x="229" y="75" width="11" height="11" />
        <rect x="234" y="59" width="11" height="11" />
        <rect x="114" y="220" width="12" height="11" />
        <rect x="78" y="206" width="13" height="13" />
        <rect x="73" y="208" width="13" height="13" />
        <rect x="70" y="109" width="11" height="11" />
        <rect x="100" y="98" width="11" height="12" />
        <rect x="91" y="123" width="11" height="11" />
        <rect x="82" y="103" width="11" height="11" />
        <rect x="164" y="88" width="11" height="11" />
        <rect x="126" y="117" width="11" height="11" />
        <rect x="98" y="109" width="11" height="11" />
        <rect x="101" y="93" width="11" height="11" />
        <rect x="114" y="117" width="12" height="11" />
        <rect x="120" y="122" width="11" height="12" />
        <rect x="115" y="122" width="11" height="12" />
        <rect x="117" y="128" width="11" height="10" />
        <rect x="152" y="88" width="12" height="11" />
        <rect x="147" y="88" width="11" height="11" />
        <rect x="88" y="91" width="11" height="12" />
        <rect x="143" y="118" width="20" height="11" />
        <rect x="95" y="93" width="11" height="11" />
        <rect x="148" y="100" width="11" height="11" />
        <rect x="154" y="94" width="11" height="11" />
        <rect x="166" y="116" width="13" height="14" />
        <rect x="126" y="100" width="11" height="11" />
        <rect x="114" y="105" width="12" height="11" />
        <rect x="103" y="108" width="12" height="12" />
        <rect x="94" y="87" width="11" height="11" />
        <rect x="107" y="111" width="12" height="11" />
        <rect x="113" y="111" width="11" height="11" />
        <rect x="135" y="88" width="11" height="11" />
        <rect x="177" y="96" width="11" height="11" />
        <rect x="174" y="100" width="12" height="11" />
        <rect x="90" y="66" width="11" height="12" />
        <rect x="91" y="66" width="11" height="11" />
        <rect x="140" y="82" width="11" height="11" />
        <rect x="170" y="88" width="11" height="11" />
        <rect x="160" y="68" width="12" height="12" />
        <rect x="174" y="68" width="11" height="11" />
        <rect x="166" y="68" width="12" height="12" />
        <rect x="85" y="97" width="11" height="11" />
        <rect x="166" y="73" width="12" height="11" />
        <rect x="166" y="78" width="12" height="11" />
        <rect x="98" y="115" width="11" height="11" />
        <rect x="137" y="60" width="11" height="11" />
        <rect x="143" y="60" width="11" height="11" />
        <rect x="149" y="60" width="11" height="11" />
        <rect x="205" y="105" width="12" height="11" />
        <rect x="79" y="97" width="11" height="11" />
        <rect x="130" y="189" width="11" height="11" />
        <rect x="130" y="195" width="11" height="11" />
        <rect x="141" y="190" width="11" height="11" />
        <rect x="141" y="196" width="11" height="11" />
        <rect x="172" y="179" width="11" height="12" />
        <rect x="172" y="185" width="11" height="11" />
        <rect x="172" y="191" width="11" height="11" />
        <rect x="200" y="105" width="11" height="11" />
        <rect x="232" y="69" width="11" height="11" />
        <rect x="51" y="190" width="11" height="11" />
        <rect x="178" y="185" width="11" height="11" />
        <rect x="252" y="78" width="11" height="11" />
        <rect x="246" y="78" width="11" height="11" />
        <rect x="222" y="61" width="12" height="11" />
        <rect x="109" y="220" width="11" height="11" />
        <rect x="135" y="189" width="12" height="11" />
        <rect x="135" y="195" width="12" height="11" />
        <rect x="66" y="192" width="13" height="13" />
        <rect x="68" y="198" width="13" height="12" />
        <rect x="71" y="203" width="13" height="13" />
        <rect x="66" y="205" width="12" height="12" />
        <rect x="68" y="210" width="12" height="13" />
        <rect x="62" y="212" width="13" height="13" />
        <rect x="46" y="92" width="12" height="11" />
        <rect x="70" y="103" width="11" height="11" />
        <rect x="186" y="115" width="11" height="11" />
        <rect x="192" y="115" width="11" height="11" />
        <rect x="198" y="115" width="11" height="11" />
        <rect x="195" y="109" width="12" height="11" />
        <rect x="76" y="103" width="11" height="11" />
    </g>
    <g class="spawningMap-common">
        <rect x="122" y="128" width="9" height="12" />
        <rect x="137" y="105" width="11" height="11" />
        <rect x="168" y="105" width="12" height="11" />
        <rect x="120" y="100" width="11" height="11" />
        <rect x="90" y="81" width="13" height="13" />
        <rect x="80" y="74" width="13" height="13" />
        <rect x="85" y="71" width="13" height="13" />
        <rect x="109" y="88" width="11" height="11" />
        <rect x="164" y="84" width="17" height="10" />
        <rect x="158" y="88" width="12" height="11" />
        <rect x="126" y="111" width="11" height="11" />
        <rect x="141" y="88" width="11" height="11" />
        <rect x="126" y="105" width="11" height="11" />
        <rect x="132" y="105" width="11" height="11" />
        <rect x="132" y="100" width="11" height="11" />
        <rect x="137" y="100" width="12" height="11" />
        <rect x="143" y="100" width="12" height="11" />
        <rect x="143" y="94" width="12" height="11" />
        <rect x="138" y="94" width="11" height="11" />
        <rect x="132" y="94" width="11" height="11" />
        <rect x="148" y="94" width="11" height="11" />
        <rect x="120" y="88" width="11" height="11" />
        <rect x="159" y="94" width="12" height="11" />
        <rect x="165" y="94" width="12" height="11" />
        <rect x="171" y="94" width="11" height="11" />
        <rect x="163" y="100" width="11" height="11" />
        <rect x="114" y="88" width="12" height="11" />
        <rect x="114" y="94" width="12" height="11" />
        <rect x="109" y="94" width="11" height="11" />
        <rect x="114" y="100" width="12" height="11" />
        <rect x="109" y="100" width="11" height="11" />
        <rect x="168" y="100" width="12" height="11" />
        <rect x="109" y="105" width="11" height="11" />
        <rect x="126" y="94" width="11" height="11" />
        <rect x="126" y="88" width="11" height="11" />
    </g>
    <g class="spawningMap-uncommon">
        <rect x="128" y="127" width="25" height="16" />
        <rect x="120" y="94" width="11" height="11" />
        <rect x="160" y="103" width="11" height="11" />
    </g>
    <g class="spawningMap-very-uncommon">
        <rect x="153" y="104" width="10" height="9" />
        <rect x="99" y="88" width="12" height="12" />
    </g></g>
</svg>