<?xml version="1.0" encoding="utf-8"?>
<svg xmlns="http://www.w3.org/2000/svg" width="300" height="300" viewBox="0 0 300 300" class="creatureMap" style="position:absolute;">
<defs>
    <filter id="blur" x="-30%" y="-30%" width="160%" height="160%">
        <feGaussianBlur stdDeviation="3" />
    </filter>
    <style>
        .spawningMap-very-common { fill: #0F0; }
        .spawningMap-common { fill: #B2FF00; }
        .spawningMap-uncommon { fill: #FF0; }
        .spawningMap-very-uncommon { fill: #FC0; }
        .spawningMap-rare { fill: #F60; }
        .spawningMap-very-rare { fill: #F00; }
        .spawning-map-point { stroke:black; stroke-width:1; }
    </style>
</defs>
<g filter="url(#blur)" opacity="0.7">
    <g class="spawningMap-uncommon">
        <rect x="188" y="259" width="11" height="12" />
        <rect x="188" y="265" width="11" height="11" />
        <rect x="194" y="259" width="11" height="12" />
        <rect x="216" y="271" width="11" height="11" />
        <rect x="182" y="259" width="11" height="12" />
        <rect x="182" y="265" width="11" height="11" />
        <rect x="194" y="271" width="11" height="11" />
        <rect x="188" y="271" width="11" height="11" />
        <rect x="182" y="271" width="11" height="11" />
        <rect x="194" y="265" width="11" height="12" />
        <rect x="199" y="254" width="11" height="11" />
        <rect x="193" y="254" width="12" height="11" />
        <rect x="188" y="254" width="11" height="11" />
        <rect x="199" y="248" width="11" height="11" />
        <rect x="182" y="248" width="11" height="11" />
        <rect x="182" y="254" width="11" height="11" />
        <rect x="123" y="151" width="11" height="11" />
        <rect x="142" y="152" width="13" height="13" />
        <rect x="118" y="77" width="15" height="14" />
    </g>
    <g class="spawningMap-very-common">
        <rect x="29" y="103" width="12" height="11" />
        <rect x="118" y="144" width="10" height="9" />
        <rect x="126" y="155" width="11" height="11" />
        <rect x="118" y="149" width="12" height="11" />
        <rect x="116" y="161" width="11" height="11" />
        <rect x="122" y="169" width="11" height="11" />
        <rect x="111" y="179" width="11" height="11" />
        <rect x="128" y="147" width="11" height="11" />
        <rect x="144" y="147" width="11" height="11" />
        <rect x="133" y="153" width="11" height="11" />
        <rect x="142" y="113" width="11" height="11" />
        <rect x="169" y="136" width="11" height="11" />
        <rect x="156" y="126" width="13" height="11" />
        <rect x="169" y="125" width="11" height="11" />
        <rect x="148" y="108" width="11" height="11" />
        <rect x="102" y="80" width="12" height="11" />
        <rect x="115" y="68" width="11" height="11" />
        <rect x="109" y="68" width="11" height="11" />
        <rect x="97" y="68" width="11" height="11" />
        <rect x="97" y="59" width="11" height="11" />
        <rect x="133" y="57" width="11" height="11" />
        <rect x="132" y="62" width="11" height="10" />
        <rect x="151" y="74" width="9" height="11" />
        <rect x="154" y="68" width="11" height="11" />
        <rect x="181" y="138" width="11" height="11" />
        <rect x="181" y="132" width="11" height="11" />
        <rect x="163" y="165" width="11" height="11" />
        <rect x="160" y="182" width="11" height="11" />
        <rect x="166" y="182" width="12" height="11" />
        <rect x="60" y="64" width="12" height="11" />
        <rect x="85" y="208" width="11" height="11" />
        <rect x="57" y="189" width="12" height="11" />
        <rect x="186" y="148" width="11" height="11" />
        <rect x="97" y="132" width="12" height="11" />
        <rect x="103" y="126" width="12" height="11" />
        <rect x="148" y="113" width="11" height="11" />
        <rect x="114" y="134" width="11" height="8" />
        <rect x="118" y="134" width="12" height="13" />
        <rect x="120" y="139" width="10" height="9" />
        <rect x="122" y="161" width="11" height="11" />
        <rect x="125" y="148" width="8" height="10" />
        <rect x="103" y="138" width="12" height="11" />
        <rect x="106" y="143" width="12" height="12" />
        <rect x="112" y="143" width="12" height="12" />
        <rect x="106" y="149" width="12" height="11" />
        <rect x="112" y="149" width="12" height="11" />
        <rect x="108" y="155" width="11" height="11" />
        <rect x="114" y="155" width="11" height="11" />
        <rect x="120" y="155" width="11" height="11" />
        <rect x="109" y="137" width="10" height="12" />
        <rect x="122" y="142" width="11" height="11" />
        <rect x="139" y="153" width="11" height="11" />
        <rect x="125" y="136" width="11" height="11" />
        <rect x="128" y="142" width="11" height="11" />
        <rect x="133" y="142" width="11" height="11" />
        <rect x="139" y="142" width="11" height="11" />
        <rect x="131" y="136" width="11" height="11" />
        <rect x="133" y="147" width="11" height="11" />
        <rect x="139" y="147" width="11" height="11" />
        <rect x="137" y="136" width="11" height="11" />
        <rect x="135" y="159" width="14" height="8" />
        <rect x="142" y="136" width="11" height="11" />
        <rect x="148" y="136" width="11" height="11" />
        <rect x="154" y="113" width="11" height="11" />
        <rect x="159" y="109" width="11" height="11" />
        <rect x="142" y="130" width="11" height="11" />
        <rect x="148" y="130" width="11" height="11" />
        <rect x="131" y="130" width="11" height="11" />
        <rect x="137" y="130" width="11" height="11" />
        <rect x="142" y="125" width="11" height="11" />
        <rect x="97" y="126" width="12" height="11" />
        <rect x="148" y="125" width="11" height="11" />
        <rect x="137" y="125" width="11" height="11" />
        <rect x="142" y="119" width="11" height="11" />
        <rect x="148" y="119" width="11" height="11" />
        <rect x="154" y="119" width="11" height="11" />
        <rect x="159" y="119" width="11" height="11" />
        <rect x="157" y="131" width="13" height="11" />
        <rect x="169" y="130" width="11" height="11" />
        <rect x="137" y="119" width="11" height="11" />
        <rect x="103" y="132" width="12" height="11" />
        <rect x="115" y="62" width="11" height="12" />
        <rect x="109" y="62" width="11" height="12" />
        <rect x="109" y="80" width="11" height="11" />
        <rect x="115" y="57" width="11" height="11" />
        <rect x="109" y="74" width="11" height="11" />
        <rect x="115" y="80" width="11" height="11" />
        <rect x="115" y="74" width="11" height="11" />
        <rect x="115" y="52" width="11" height="10" />
        <rect x="121" y="74" width="11" height="11" />
        <rect x="109" y="57" width="11" height="11" />
        <rect x="109" y="51" width="11" height="11" />
        <rect x="102" y="74" width="12" height="11" />
        <rect x="97" y="74" width="11" height="11" />
        <rect x="102" y="59" width="12" height="11" />
        <rect x="102" y="53" width="12" height="11" />
        <rect x="49" y="75" width="11" height="11" />
        <rect x="121" y="68" width="11" height="11" />
        <rect x="121" y="62" width="11" height="12" />
        <rect x="121" y="57" width="11" height="11" />
        <rect x="121" y="53" width="11" height="9" />
        <rect x="127" y="57" width="11" height="11" />
        <rect x="127" y="53" width="11" height="9" />
        <rect x="127" y="74" width="11" height="11" />
        <rect x="127" y="68" width="11" height="11" />
        <rect x="133" y="72" width="11" height="11" />
        <rect x="133" y="66" width="11" height="12" />
        <rect x="139" y="72" width="11" height="11" />
        <rect x="139" y="66" width="11" height="12" />
        <rect x="133" y="53" width="11" height="9" />
        <rect x="139" y="54" width="11" height="9" />
        <rect x="145" y="54" width="12" height="10" />
        <rect x="145" y="67" width="12" height="11" />
        <rect x="49" y="87" width="11" height="11" />
        <rect x="144" y="142" width="11" height="11" />
        <rect x="150" y="142" width="11" height="11" />
        <rect x="150" y="147" width="11" height="11" />
        <rect x="156" y="145" width="11" height="11" />
        <rect x="161" y="145" width="11" height="11" />
        <rect x="167" y="145" width="11" height="11" />
        <rect x="156" y="150" width="11" height="11" />
        <rect x="156" y="156" width="11" height="11" />
        <rect x="161" y="150" width="11" height="11" />
        <rect x="167" y="150" width="11" height="11" />
        <rect x="173" y="150" width="11" height="11" />
        <rect x="175" y="143" width="11" height="11" />
        <rect x="181" y="141" width="11" height="11" />
        <rect x="186" y="138" width="11" height="11" />
        <rect x="186" y="132" width="11" height="11" />
        <rect x="186" y="126" width="11" height="11" />
        <rect x="186" y="121" width="11" height="11" />
        <rect x="181" y="126" width="11" height="11" />
        <rect x="181" y="121" width="11" height="11" />
        <rect x="175" y="126" width="11" height="11" />
        <rect x="175" y="121" width="11" height="11" />
        <rect x="175" y="138" width="11" height="11" />
        <rect x="175" y="132" width="11" height="11" />
        <rect x="49" y="69" width="11" height="11" />
        <rect x="117" y="184" width="12" height="11" />
        <rect x="111" y="190" width="11" height="11" />
        <rect x="123" y="190" width="12" height="11" />
        <rect x="111" y="196" width="11" height="11" />
        <rect x="123" y="196" width="12" height="11" />
        <rect x="122" y="202" width="12" height="11" />
        <rect x="116" y="202" width="12" height="11" />
        <rect x="128" y="202" width="12" height="11" />
        <rect x="163" y="171" width="11" height="11" />
        <rect x="169" y="171" width="11" height="11" />
        <rect x="160" y="177" width="11" height="11" />
        <rect x="166" y="177" width="12" height="11" />
        <rect x="175" y="171" width="11" height="11" />
        <rect x="175" y="177" width="11" height="11" />
        <rect x="175" y="159" width="11" height="12" />
        <rect x="169" y="159" width="11" height="12" />
        <rect x="35" y="103" width="12" height="11" />
        <rect x="29" y="109" width="12" height="11" />
        <rect x="175" y="165" width="11" height="11" />
        <rect x="35" y="109" width="12" height="11" />
        <rect x="117" y="190" width="12" height="11" />
        <rect x="117" y="196" width="12" height="11" />
        <rect x="112" y="208" width="12" height="11" />
        <rect x="59" y="194" width="9" height="12" />
        <rect x="55" y="86" width="11" height="11" />
        <rect x="111" y="184" width="11" height="11" />
        <rect x="77" y="196" width="11" height="11" />
        <rect x="80" y="202" width="12" height="11" />
        <rect x="82" y="220" width="12" height="8" />
        <rect x="76" y="219" width="12" height="8" />
        <rect x="71" y="219" width="11" height="8" />
        <rect x="65" y="177" width="12" height="11" />
        <rect x="71" y="182" width="11" height="11" />
        <rect x="75" y="185" width="12" height="11" />
        <rect x="76" y="191" width="11" height="11" />
        <rect x="186" y="144" width="11" height="10" />
        <rect x="159" y="113" width="11" height="11" />
        <rect x="61" y="86" width="11" height="11" />
        <rect x="97" y="121" width="12" height="11" />
    </g>
    <g class="spawningMap-common">
        <rect x="92" y="129" width="14" height="13" />
        <rect x="131" y="125" width="11" height="11" />
        <rect x="135" y="113" width="11" height="11" />
        <rect x="97" y="53" width="11" height="11" />
        <rect x="169" y="154" width="11" height="11" />
        <rect x="181" y="162" width="9" height="14" />
        <rect x="110" y="222" width="16" height="10" />
        <rect x="86" y="212" width="14" height="13" />
        <rect x="61" y="205" width="11" height="12" />
        <rect x="58" y="220" width="12" height="12" />
        <rect x="55" y="184" width="12" height="12" />
        <rect x="58" y="178" width="14" height="13" />
        <rect x="49" y="187" width="11" height="12" />
        <rect x="97" y="136" width="14" height="13" />
        <rect x="114" y="138" width="12" height="13" />
        <rect x="117" y="146" width="11" height="10" />
        <rect x="128" y="161" width="11" height="11" />
        <rect x="110" y="213" width="14" height="11" />
        <rect x="59" y="200" width="10" height="12" />
        <rect x="88" y="217" width="12" height="11" />
        <rect x="64" y="219" width="12" height="11" />
    </g></g>
</svg>