<svg xmlns="http://www.w3.org/2000/svg" width="300" height="300" viewBox="0 0 300 300" class="creatureMap" style="position:absolute;">
<defs>
<filter id="blur" x="-30%" y="-30%" width="160%" height="160%"><feGaussianBlur stdDeviation="3" />
</filter>
<pattern id="pattern-untameable" width="10" height="10" patternTransform="rotate(135)" patternUnits="userSpaceOnUse"><rect width="4" height="10" fill="black"></rect>
</pattern>
<filter id="groupStroke"><feFlood result="outsideColor" flood-color="black"/><feMorphology in="SourceAlpha" operator="dilate" radius="2"/><feComposite result="strokeoutline1" in="outsideColor" operator="in"/><feComposite result="strokeoutline2" in="strokeoutline1" in2="SourceAlpha" operator="out"/><feGaussianBlur in="strokeoutline2" result="strokeblur" stdDeviation="1"/>
</filter>
<style>
.spawningMap-very-common { fill: #0F0;}
.spawningMap-common { fill: #B2FF00;}
.spawningMap-uncommon { fill: #FF0;}
.spawningMap-very-uncommon { fill: #FC0;}
.spawningMap-rare { fill: #F60;}
.spawningMap-very-rare { fill: #F00; }.spawning-map-point {stroke:black; stroke-width:1;}
</style>
</defs>
<g filter="url(#blur)" opacity="0.7">
<g class="spawningMap-very-rare"><rect x="247" y="229" width="45" height="61" /><rect x="46" y="273" width="111" height="18" /><rect x="204" y="11" width="87" height="62" /><rect x="257" y="72" width="35" height="62" />
</g>
<g class="spawningMap-rare"><rect x="168" y="273" width="70" height="18" /><rect x="276" y="8" width="22" height="113" /><rect x="65" y="276" width="204" height="22" /><rect x="8" y="110" width="19" height="87" /><rect x="276" y="179" width="22" height="113" /><rect x="8" y="12" width="19" height="87" /><rect x="109" y="7" width="87" height="19" /><rect x="2" y="0" width="22" height="300" /><rect x="280" y="186" width="13" height="61" />
</g>
<g class="spawningMap-very-uncommon"><rect x="179" y="2" width="56" height="22" /><rect x="285" y="122" width="15" height="56" /><rect x="236" y="2" width="45" height="22" /><rect x="122" y="0" width="56" height="22" />
</g>
<g class="spawningMap-uncommon"><rect x="31" y="0" width="22" height="22" />
</g>
</g>
<g class="spawning-map-point" opacity="0.8">
</g>
</svg>