<?xml version="1.0" encoding="utf-8"?>
<svg xmlns="http://www.w3.org/2000/svg" width="300" height="300" viewBox="0 0 300 300" class="creatureMap" style="position:absolute;">
<defs>
    <filter id="blur" x="-30%" y="-30%" width="160%" height="160%">
        <feGaussianBlur stdDeviation="3" />
    </filter>
    <style>
        .spawningMap-very-common { fill: #0F0; }
        .spawningMap-common { fill: #B2FF00; }
        .spawningMap-uncommon { fill: #FF0; }
        .spawningMap-very-uncommon { fill: #FC0; }
        .spawningMap-rare { fill: #F60; }
        .spawningMap-very-rare { fill: #F00; }
        .spawning-map-point { stroke:black; stroke-width:1; }
    </style>
    <pattern id="pattern-untameable" width="10" height="10" patternTransform="rotate(135)" patternUnits="userSpaceOnUse">
        <rect width="4" height="10" fill="black"></rect>
    </pattern>
</defs>
<g filter="url(#blur)" opacity="0.7">
    <g class="spawningMap-very-common">
        <rect x="177" y="141" width="37" height="8" />
        <rect x="249" y="141" width="37" height="8" />
        <rect x="213" y="141" width="37" height="8" />
        <rect x="285" y="141" width="13" height="8" />
        <rect x="32" y="169" width="12" height="12" />
        <rect x="39" y="169" width="12" height="12" />
        <rect x="46" y="169" width="12" height="12" />
        <rect x="53" y="169" width="13" height="12" />
        <rect x="60" y="169" width="13" height="12" />
        <rect x="67" y="169" width="13" height="12" />
        <rect x="74" y="169" width="13" height="12" />
        <rect x="82" y="169" width="12" height="12" />
        <rect x="89" y="169" width="12" height="12" />
        <rect x="96" y="169" width="12" height="12" />
        <rect x="0" y="176" width="8" height="12" />
        <rect x="3" y="176" width="13" height="12" />
        <rect x="10" y="176" width="13" height="12" />
        <rect x="17" y="176" width="13" height="12" />
        <rect x="24" y="176" width="13" height="12" />
        <rect x="32" y="176" width="12" height="12" />
        <rect x="39" y="176" width="12" height="12" />
        <rect x="46" y="176" width="12" height="12" />
        <rect x="53" y="176" width="13" height="12" />
        <rect x="60" y="176" width="13" height="12" />
        <rect x="67" y="176" width="13" height="12" />
        <rect x="74" y="176" width="13" height="12" />
        <rect x="82" y="176" width="12" height="12" />
        <rect x="89" y="176" width="12" height="12" />
        <rect x="96" y="176" width="12" height="12" />
        <rect x="103" y="176" width="13" height="12" />
        <rect x="0" y="183" width="1" height="12" />
        <rect x="0" y="183" width="8" height="12" />
        <rect x="10" y="183" width="13" height="12" />
        <rect x="17" y="183" width="13" height="12" />
        <rect x="32" y="183" width="12" height="12" />
        <rect x="53" y="183" width="13" height="12" />
        <rect x="60" y="183" width="13" height="12" />
        <rect x="89" y="183" width="12" height="12" />
        <rect x="96" y="183" width="12" height="12" />
        <rect x="103" y="183" width="13" height="12" />
        <rect x="110" y="183" width="13" height="12" />
        <rect x="117" y="183" width="10" height="12" />
        <rect x="10" y="190" width="13" height="12" />
        <rect x="17" y="190" width="13" height="12" />
        <rect x="32" y="190" width="12" height="12" />
        <rect x="39" y="190" width="12" height="12" />
        <rect x="53" y="190" width="13" height="12" />
        <rect x="96" y="190" width="12" height="12" />
        <rect x="10" y="197" width="13" height="12" />
        <rect x="17" y="197" width="13" height="12" />
        <rect x="39" y="197" width="12" height="12" />
        <rect x="46" y="197" width="12" height="12" />
        <rect x="89" y="197" width="12" height="12" />
        <rect x="96" y="197" width="12" height="12" />
        <rect x="10" y="204" width="13" height="12" />
        <rect x="17" y="204" width="13" height="12" />
        <rect x="24" y="204" width="13" height="12" />
        <rect x="32" y="204" width="12" height="12" />
        <rect x="74" y="204" width="13" height="12" />
        <rect x="82" y="204" width="12" height="12" />
        <rect x="89" y="204" width="12" height="12" />
        <rect x="17" y="211" width="13" height="12" />
        <rect x="24" y="211" width="13" height="12" />
        <rect x="32" y="211" width="12" height="12" />
        <rect x="74" y="211" width="13" height="12" />
        <rect x="10" y="218" width="13" height="12" />
        <rect x="17" y="218" width="13" height="12" />
        <rect x="39" y="218" width="12" height="12" />
        <rect x="46" y="218" width="12" height="12" />
        <rect x="53" y="218" width="13" height="12" />
        <rect x="60" y="218" width="13" height="12" />
        <rect x="67" y="218" width="13" height="12" />
        <rect x="74" y="218" width="13" height="12" />
        <rect x="82" y="218" width="12" height="12" />
        <rect x="3" y="225" width="13" height="12" />
        <rect x="10" y="225" width="13" height="12" />
        <rect x="17" y="225" width="13" height="12" />
        <rect x="24" y="225" width="13" height="12" />
        <rect x="32" y="225" width="12" height="12" />
        <rect x="39" y="225" width="12" height="12" />
        <rect x="46" y="225" width="12" height="12" />
        <rect x="67" y="225" width="13" height="12" />
        <rect x="74" y="225" width="13" height="12" />
        <rect x="82" y="225" width="12" height="12" />
        <rect x="89" y="225" width="12" height="12" />
        <rect x="96" y="225" width="12" height="12" />
        <rect x="0" y="232" width="8" height="12" />
        <rect x="10" y="232" width="13" height="12" />
        <rect x="24" y="232" width="13" height="12" />
        <rect x="32" y="232" width="12" height="12" />
        <rect x="39" y="232" width="12" height="12" />
        <rect x="67" y="232" width="13" height="12" />
        <rect x="74" y="232" width="13" height="12" />
        <rect x="82" y="232" width="12" height="12" />
        <rect x="96" y="232" width="12" height="12" />
        <rect x="3" y="239" width="13" height="12" />
        <rect x="10" y="239" width="13" height="12" />
        <rect x="39" y="239" width="12" height="12" />
        <rect x="74" y="239" width="13" height="12" />
        <rect x="82" y="239" width="12" height="12" />
        <rect x="96" y="239" width="12" height="12" />
        <rect x="10" y="246" width="13" height="12" />
        <rect x="39" y="246" width="12" height="12" />
        <rect x="74" y="246" width="13" height="12" />
        <rect x="82" y="246" width="12" height="12" />
        <rect x="96" y="246" width="12" height="12" />
        <rect x="103" y="246" width="13" height="12" />
        <rect x="0" y="253" width="8" height="12" />
        <rect x="3" y="253" width="13" height="12" />
        <rect x="10" y="253" width="13" height="12" />
        <rect x="39" y="253" width="12" height="12" />
        <rect x="46" y="253" width="12" height="12" />
        <rect x="53" y="253" width="13" height="12" />
        <rect x="103" y="253" width="13" height="12" />
        <rect x="110" y="253" width="13" height="12" />
        <rect x="117" y="260" width="10" height="10" />
        <rect x="110" y="260" width="13" height="10" />
        <rect x="53" y="260" width="13" height="10" />
        <rect x="46" y="260" width="12" height="10" />
        <rect x="39" y="260" width="12" height="10" />
        <rect x="3" y="260" width="13" height="10" />
        <rect x="0" y="260" width="9" height="10" />
        <rect x="220" y="243" width="13" height="13" />
        <rect x="227" y="243" width="13" height="13" />
        <rect x="235" y="243" width="12" height="13" />
        <rect x="277" y="243" width="13" height="13" />
        <rect x="285" y="243" width="12" height="13" />
        <rect x="292" y="243" width="8" height="13" />
        <rect x="227" y="236" width="13" height="13" />
        <rect x="235" y="236" width="12" height="13" />
        <rect x="277" y="236" width="13" height="13" />
        <rect x="285" y="236" width="12" height="13" />
        <rect x="292" y="236" width="8" height="13" />
        <rect x="227" y="229" width="13" height="13" />
        <rect x="235" y="229" width="12" height="13" />
        <rect x="292" y="229" width="8" height="13" />
        <rect x="235" y="215" width="12" height="13" />
        <rect x="242" y="215" width="12" height="13" />
        <rect x="285" y="215" width="12" height="13" />
        <rect x="292" y="215" width="8" height="13" />
        <rect x="227" y="208" width="13" height="13" />
        <rect x="235" y="208" width="12" height="13" />
        <rect x="242" y="208" width="12" height="13" />
        <rect x="249" y="208" width="12" height="13" />
        <rect x="256" y="208" width="12" height="13" />
        <rect x="285" y="208" width="12" height="13" />
        <rect x="292" y="208" width="8" height="13" />
        <rect x="227" y="201" width="13" height="13" />
        <rect x="235" y="201" width="12" height="13" />
        <rect x="220" y="194" width="13" height="12" />
        <rect x="227" y="194" width="13" height="12" />
        <rect x="235" y="194" width="12" height="12" />
        <rect x="285" y="194" width="12" height="12" />
        <rect x="292" y="194" width="8" height="12" />
        <rect x="227" y="187" width="13" height="12" />
        <rect x="235" y="187" width="12" height="12" />
        <rect x="249" y="159" width="12" height="12" />
        <rect x="220" y="102" width="13" height="9" />
        <rect x="227" y="103" width="10" height="8" />
        <rect x="232" y="77" width="8" height="12" />
        <rect x="32" y="133" width="12" height="13" />
        <rect x="39" y="133" width="12" height="13" />
        <rect x="32" y="140" width="12" height="13" />
        <rect x="39" y="140" width="12" height="13" />
        <rect x="32" y="147" width="12" height="13" />
        <rect x="39" y="147" width="12" height="13" />
        <rect x="46" y="141" width="12" height="9" />
        <rect x="53" y="140" width="13" height="13" />
        <rect x="60" y="140" width="13" height="13" />
        <rect x="67" y="140" width="13" height="13" />
        <rect x="74" y="141" width="13" height="8" />
        <rect x="82" y="141" width="12" height="9" />
        <rect x="89" y="141" width="12" height="9" />
        <rect x="96" y="141" width="12" height="8" />
        <rect x="103" y="141" width="13" height="11" />
        <rect x="3" y="133" width="13" height="13" />
        <rect x="0" y="140" width="8" height="13" />
        <rect x="3" y="140" width="13" height="13" />
        <rect x="10" y="140" width="13" height="13" />
        <rect x="17" y="140" width="13" height="13" />
        <rect x="24" y="140" width="13" height="13" />
        <rect x="24" y="28" width="13" height="12" />
        <rect x="32" y="28" width="12" height="12" />
        <rect x="39" y="28" width="12" height="12" />
        <rect x="89" y="28" width="12" height="12" />
        <rect x="46" y="35" width="12" height="12" />
        <rect x="103" y="35" width="13" height="12" />
        <rect x="39" y="42" width="12" height="12" />
        <rect x="46" y="42" width="12" height="12" />
        <rect x="74" y="42" width="13" height="12" />
        <rect x="89" y="42" width="12" height="12" />
        <rect x="96" y="42" width="12" height="12" />
        <rect x="103" y="42" width="13" height="12" />
        <rect x="39" y="49" width="12" height="12" />
        <rect x="46" y="49" width="12" height="12" />
        <rect x="53" y="49" width="13" height="12" />
        <rect x="74" y="49" width="13" height="12" />
        <rect x="89" y="49" width="12" height="12" />
        <rect x="96" y="49" width="12" height="12" />
        <rect x="103" y="49" width="13" height="12" />
        <rect x="24" y="56" width="13" height="12" />
        <rect x="32" y="56" width="12" height="12" />
        <rect x="39" y="56" width="12" height="12" />
        <rect x="89" y="56" width="12" height="12" />
        <rect x="96" y="56" width="12" height="12" />
        <rect x="24" y="63" width="13" height="12" />
        <rect x="82" y="63" width="12" height="12" />
        <rect x="24" y="70" width="13" height="12" />
        <rect x="82" y="70" width="12" height="12" />
        <rect x="24" y="77" width="13" height="12" />
        <rect x="74" y="77" width="13" height="12" />
        <rect x="82" y="77" width="12" height="12" />
        <rect x="24" y="84" width="13" height="12" />
        <rect x="74" y="84" width="13" height="12" />
        <rect x="82" y="84" width="12" height="12" />
        <rect x="24" y="91" width="13" height="12" />
        <rect x="74" y="91" width="13" height="12" />
        <rect x="17" y="98" width="13" height="13" />
        <rect x="32" y="98" width="12" height="13" />
        <rect x="60" y="98" width="13" height="13" />
        <rect x="74" y="98" width="13" height="13" />
        <rect x="24" y="105" width="13" height="13" />
        <rect x="32" y="105" width="12" height="13" />
        <rect x="39" y="105" width="12" height="13" />
        <rect x="46" y="105" width="12" height="13" />
        <rect x="53" y="105" width="13" height="13" />
        <rect x="60" y="105" width="13" height="13" />
        <rect x="67" y="105" width="13" height="13" />
        <rect x="74" y="105" width="13" height="13" />
        <rect x="0" y="112" width="1" height="13" />
        <rect x="0" y="112" width="8" height="13" />
        <rect x="3" y="112" width="13" height="13" />
        <rect x="10" y="112" width="13" height="13" />
        <rect x="17" y="112" width="13" height="13" />
        <rect x="24" y="112" width="13" height="13" />
        <rect x="32" y="112" width="12" height="13" />
        <rect x="39" y="112" width="12" height="13" />
        <rect x="46" y="112" width="12" height="13" />
        <rect x="53" y="112" width="13" height="13" />
        <rect x="67" y="112" width="13" height="13" />
        <rect x="74" y="112" width="13" height="13" />
        <rect x="82" y="112" width="12" height="13" />
        <rect x="103" y="112" width="13" height="13" />
        <rect x="0" y="119" width="1" height="13" />
        <rect x="0" y="119" width="8" height="13" />
        <rect x="3" y="119" width="13" height="13" />
        <rect x="24" y="119" width="13" height="13" />
        <rect x="46" y="119" width="12" height="13" />
        <rect x="53" y="119" width="13" height="13" />
        <rect x="60" y="119" width="13" height="13" />
        <rect x="67" y="119" width="13" height="13" />
        <rect x="74" y="119" width="13" height="13" />
        <rect x="82" y="119" width="12" height="13" />
        <rect x="103" y="119" width="13" height="13" />
        <rect x="53" y="126" width="13" height="13" />
        <rect x="60" y="126" width="13" height="13" />
        <rect x="67" y="126" width="13" height="13" />
        <rect x="227" y="173" width="13" height="12" />
        <rect x="242" y="173" width="12" height="12" />
        <rect x="177" y="166" width="13" height="12" />
        <rect x="213" y="166" width="13" height="12" />
        <rect x="220" y="166" width="13" height="12" />
        <rect x="249" y="166" width="12" height="12" />
        <rect x="256" y="166" width="12" height="12" />
        <rect x="177" y="159" width="13" height="12" />
        <rect x="213" y="159" width="13" height="12" />
        <rect x="220" y="159" width="13" height="12" />
        <rect x="256" y="159" width="12" height="12" />
        <rect x="263" y="159" width="13" height="12" />
        <rect x="213" y="152" width="13" height="12" />
        <rect x="220" y="152" width="13" height="12" />
        <rect x="256" y="152" width="12" height="12" />
        <rect x="263" y="152" width="13" height="12" />
        <rect x="235" y="42" width="12" height="12" />
        <rect x="242" y="42" width="12" height="12" />
        <rect x="173" y="51" width="10" height="8" />
        <rect x="235" y="56" width="12" height="12" />
        <rect x="221" y="53" width="12" height="10" />
        <rect x="235" y="49" width="12" height="12" />
        <rect x="277" y="49" width="13" height="12" />
        <rect x="285" y="49" width="12" height="12" />
        <rect x="206" y="60" width="13" height="7" />
        <rect x="206" y="57" width="8" height="12" />
        <rect x="213" y="53" width="13" height="13" />
        <rect x="227" y="57" width="13" height="7" />
        <rect x="242" y="57" width="12" height="7" />
        <rect x="249" y="57" width="13" height="12" />
        <rect x="256" y="56" width="12" height="12" />
        <rect x="203" y="63" width="10" height="12" />
        <rect x="256" y="63" width="12" height="8" />
        <rect x="263" y="67" width="13" height="8" />
        <rect x="270" y="67" width="13" height="10" />
        <rect x="199" y="70" width="10" height="13" />
        <rect x="277" y="71" width="9" height="11" />
        <rect x="196" y="77" width="10" height="13" />
        <rect x="279" y="77" width="8" height="12" />
        <rect x="194" y="84" width="10" height="13" />
        <rect x="275" y="85" width="7" height="11" />
        <rect x="277" y="84" width="9" height="8" />
        <rect x="192" y="91" width="12" height="12" />
        <rect x="275" y="91" width="9" height="13" />
        <rect x="177" y="98" width="13" height="12" />
        <rect x="185" y="98" width="12" height="12" />
        <rect x="192" y="98" width="12" height="12" />
        <rect x="213" y="102" width="13" height="9" />
        <rect x="263" y="100" width="13" height="11" />
        <rect x="270" y="101" width="13" height="7" />
        <rect x="276" y="98" width="7" height="10" />
        <rect x="272" y="102" width="8" height="9" />
        <rect x="192" y="105" width="12" height="13" />
        <rect x="206" y="111" width="13" height="7" />
        <rect x="213" y="105" width="13" height="13" />
        <rect x="220" y="105" width="13" height="13" />
        <rect x="227" y="105" width="13" height="13" />
        <rect x="235" y="105" width="12" height="13" />
        <rect x="242" y="105" width="12" height="13" />
        <rect x="249" y="109" width="12" height="9" />
        <rect x="256" y="104" width="13" height="13" />
        <rect x="273" y="105" width="10" height="13" />
        <rect x="277" y="109" width="9" height="9" />
        <rect x="185" y="112" width="12" height="13" />
        <rect x="192" y="112" width="12" height="13" />
        <rect x="199" y="112" width="12" height="13" />
        <rect x="206" y="112" width="13" height="13" />
        <rect x="213" y="112" width="13" height="13" />
        <rect x="220" y="112" width="13" height="13" />
        <rect x="227" y="112" width="13" height="13" />
        <rect x="235" y="112" width="12" height="13" />
        <rect x="242" y="112" width="12" height="13" />
        <rect x="249" y="112" width="12" height="10" />
        <rect x="256" y="113" width="11" height="12" />
        <rect x="277" y="112" width="10" height="13" />
        <rect x="285" y="114" width="9" height="11" />
        <rect x="177" y="119" width="13" height="13" />
        <rect x="185" y="119" width="12" height="13" />
        <rect x="192" y="119" width="12" height="13" />
        <rect x="199" y="119" width="12" height="13" />
        <rect x="206" y="119" width="13" height="13" />
        <rect x="213" y="119" width="13" height="13" />
        <rect x="220" y="119" width="13" height="13" />
        <rect x="227" y="119" width="13" height="13" />
        <rect x="235" y="119" width="12" height="13" />
        <rect x="242" y="119" width="12" height="13" />
        <rect x="256" y="119" width="12" height="13" />
        <rect x="263" y="119" width="13" height="13" />
        <rect x="280" y="119" width="10" height="10" />
        <rect x="284" y="119" width="10" height="9" />
        <rect x="259" y="126" width="9" height="7" />
        <rect x="263" y="126" width="13" height="8" />
        <rect x="210" y="70" width="9" height="10" />
        <rect x="232" y="63" width="10" height="12" />
        <rect x="232" y="70" width="8" height="12" />
        <rect x="170" y="222" width="13" height="13" />
        <rect x="170" y="215" width="13" height="13" />
        <rect x="177" y="215" width="13" height="13" />
        <rect x="177" y="208" width="13" height="13" />
        <rect x="177" y="201" width="13" height="13" />
        <rect x="185" y="201" width="12" height="13" />
        <rect x="256" y="201" width="12" height="13" />
        <rect x="256" y="194" width="12" height="12" />
        <rect x="263" y="194" width="13" height="12" />
        <rect x="220" y="187" width="13" height="12" />
        <rect x="263" y="187" width="13" height="12" />
        <rect x="292" y="187" width="8" height="12" />
        <rect x="177" y="180" width="13" height="12" />
        <rect x="213" y="180" width="13" height="12" />
        <rect x="220" y="180" width="13" height="12" />
        <rect x="227" y="180" width="13" height="12" />
        <rect x="242" y="180" width="12" height="12" />
        <rect x="285" y="180" width="12" height="12" />
        <rect x="292" y="180" width="8" height="12" />
        <rect x="177" y="173" width="13" height="12" />
        <rect x="213" y="173" width="13" height="12" />
        <rect x="220" y="173" width="13" height="12" />
    </g>
    <g class="spawningMap-common">
        <rect x="249" y="173" width="12" height="12" />
        <rect x="256" y="173" width="12" height="12" />
        <rect x="277" y="173" width="13" height="12" />
        <rect x="285" y="173" width="12" height="12" />
        <rect x="185" y="243" width="12" height="13" />
        <rect x="177" y="236" width="13" height="13" />
        <rect x="185" y="236" width="12" height="13" />
        <rect x="192" y="236" width="12" height="13" />
        <rect x="177" y="229" width="13" height="13" />
        <rect x="292" y="222" width="8" height="13" />
        <rect x="185" y="194" width="12" height="12" />
        <rect x="185" y="187" width="12" height="12" />
        <rect x="256" y="180" width="12" height="12" />
    </g></g>
<g fill="url(#pattern-untameable)" opacity="0.3">
        <rect x="177" y="141" width="37" height="8" />
        <rect x="249" y="141" width="37" height="8" />
        <rect x="213" y="141" width="37" height="8" />
        <rect x="285" y="141" width="13" height="8" />
        <rect x="32" y="169" width="12" height="12" />
        <rect x="39" y="169" width="12" height="12" />
        <rect x="46" y="169" width="12" height="12" />
        <rect x="53" y="169" width="13" height="12" />
        <rect x="60" y="169" width="13" height="12" />
        <rect x="67" y="169" width="13" height="12" />
        <rect x="74" y="169" width="13" height="12" />
        <rect x="82" y="169" width="12" height="12" />
        <rect x="89" y="169" width="12" height="12" />
        <rect x="96" y="169" width="12" height="12" />
        <rect x="0" y="176" width="8" height="12" />
        <rect x="3" y="176" width="13" height="12" />
        <rect x="10" y="176" width="13" height="12" />
        <rect x="17" y="176" width="13" height="12" />
        <rect x="24" y="176" width="13" height="12" />
        <rect x="32" y="176" width="12" height="12" />
        <rect x="39" y="176" width="12" height="12" />
        <rect x="46" y="176" width="12" height="12" />
        <rect x="53" y="176" width="13" height="12" />
        <rect x="60" y="176" width="13" height="12" />
        <rect x="67" y="176" width="13" height="12" />
        <rect x="74" y="176" width="13" height="12" />
        <rect x="82" y="176" width="12" height="12" />
        <rect x="89" y="176" width="12" height="12" />
        <rect x="96" y="176" width="12" height="12" />
        <rect x="103" y="176" width="13" height="12" />
        <rect x="0" y="183" width="1" height="12" />
        <rect x="0" y="183" width="8" height="12" />
        <rect x="10" y="183" width="13" height="12" />
        <rect x="17" y="183" width="13" height="12" />
        <rect x="32" y="183" width="12" height="12" />
        <rect x="53" y="183" width="13" height="12" />
        <rect x="60" y="183" width="13" height="12" />
        <rect x="89" y="183" width="12" height="12" />
        <rect x="96" y="183" width="12" height="12" />
        <rect x="103" y="183" width="13" height="12" />
        <rect x="110" y="183" width="13" height="12" />
        <rect x="117" y="183" width="10" height="12" />
        <rect x="10" y="190" width="13" height="12" />
        <rect x="17" y="190" width="13" height="12" />
        <rect x="32" y="190" width="12" height="12" />
        <rect x="39" y="190" width="12" height="12" />
        <rect x="53" y="190" width="13" height="12" />
        <rect x="96" y="190" width="12" height="12" />
        <rect x="10" y="197" width="13" height="12" />
        <rect x="17" y="197" width="13" height="12" />
        <rect x="39" y="197" width="12" height="12" />
        <rect x="46" y="197" width="12" height="12" />
        <rect x="89" y="197" width="12" height="12" />
        <rect x="96" y="197" width="12" height="12" />
        <rect x="10" y="204" width="13" height="12" />
        <rect x="17" y="204" width="13" height="12" />
        <rect x="24" y="204" width="13" height="12" />
        <rect x="32" y="204" width="12" height="12" />
        <rect x="74" y="204" width="13" height="12" />
        <rect x="82" y="204" width="12" height="12" />
        <rect x="89" y="204" width="12" height="12" />
        <rect x="17" y="211" width="13" height="12" />
        <rect x="24" y="211" width="13" height="12" />
        <rect x="32" y="211" width="12" height="12" />
        <rect x="74" y="211" width="13" height="12" />
        <rect x="10" y="218" width="13" height="12" />
        <rect x="17" y="218" width="13" height="12" />
        <rect x="39" y="218" width="12" height="12" />
        <rect x="46" y="218" width="12" height="12" />
        <rect x="53" y="218" width="13" height="12" />
        <rect x="60" y="218" width="13" height="12" />
        <rect x="67" y="218" width="13" height="12" />
        <rect x="74" y="218" width="13" height="12" />
        <rect x="82" y="218" width="12" height="12" />
        <rect x="3" y="225" width="13" height="12" />
        <rect x="10" y="225" width="13" height="12" />
        <rect x="17" y="225" width="13" height="12" />
        <rect x="24" y="225" width="13" height="12" />
        <rect x="32" y="225" width="12" height="12" />
        <rect x="39" y="225" width="12" height="12" />
        <rect x="46" y="225" width="12" height="12" />
        <rect x="67" y="225" width="13" height="12" />
        <rect x="74" y="225" width="13" height="12" />
        <rect x="82" y="225" width="12" height="12" />
        <rect x="89" y="225" width="12" height="12" />
        <rect x="96" y="225" width="12" height="12" />
        <rect x="0" y="232" width="8" height="12" />
        <rect x="10" y="232" width="13" height="12" />
        <rect x="24" y="232" width="13" height="12" />
        <rect x="32" y="232" width="12" height="12" />
        <rect x="39" y="232" width="12" height="12" />
        <rect x="67" y="232" width="13" height="12" />
        <rect x="74" y="232" width="13" height="12" />
        <rect x="82" y="232" width="12" height="12" />
        <rect x="96" y="232" width="12" height="12" />
        <rect x="3" y="239" width="13" height="12" />
        <rect x="10" y="239" width="13" height="12" />
        <rect x="39" y="239" width="12" height="12" />
        <rect x="74" y="239" width="13" height="12" />
        <rect x="82" y="239" width="12" height="12" />
        <rect x="96" y="239" width="12" height="12" />
        <rect x="10" y="246" width="13" height="12" />
        <rect x="39" y="246" width="12" height="12" />
        <rect x="74" y="246" width="13" height="12" />
        <rect x="82" y="246" width="12" height="12" />
        <rect x="96" y="246" width="12" height="12" />
        <rect x="103" y="246" width="13" height="12" />
        <rect x="0" y="253" width="8" height="12" />
        <rect x="3" y="253" width="13" height="12" />
        <rect x="10" y="253" width="13" height="12" />
        <rect x="39" y="253" width="12" height="12" />
        <rect x="46" y="253" width="12" height="12" />
        <rect x="53" y="253" width="13" height="12" />
        <rect x="103" y="253" width="13" height="12" />
        <rect x="110" y="253" width="13" height="12" />
        <rect x="117" y="260" width="10" height="10" />
        <rect x="110" y="260" width="13" height="10" />
        <rect x="53" y="260" width="13" height="10" />
        <rect x="46" y="260" width="12" height="10" />
        <rect x="39" y="260" width="12" height="10" />
        <rect x="3" y="260" width="13" height="10" />
        <rect x="0" y="260" width="9" height="10" />
        <rect x="220" y="243" width="13" height="13" />
        <rect x="227" y="243" width="13" height="13" />
        <rect x="235" y="243" width="12" height="13" />
        <rect x="277" y="243" width="13" height="13" />
        <rect x="285" y="243" width="12" height="13" />
        <rect x="292" y="243" width="8" height="13" />
        <rect x="227" y="236" width="13" height="13" />
        <rect x="235" y="236" width="12" height="13" />
        <rect x="277" y="236" width="13" height="13" />
        <rect x="285" y="236" width="12" height="13" />
        <rect x="292" y="236" width="8" height="13" />
        <rect x="227" y="229" width="13" height="13" />
        <rect x="235" y="229" width="12" height="13" />
        <rect x="292" y="229" width="8" height="13" />
        <rect x="235" y="215" width="12" height="13" />
        <rect x="242" y="215" width="12" height="13" />
        <rect x="285" y="215" width="12" height="13" />
        <rect x="292" y="215" width="8" height="13" />
        <rect x="227" y="208" width="13" height="13" />
        <rect x="235" y="208" width="12" height="13" />
        <rect x="242" y="208" width="12" height="13" />
        <rect x="249" y="208" width="12" height="13" />
        <rect x="256" y="208" width="12" height="13" />
        <rect x="285" y="208" width="12" height="13" />
        <rect x="292" y="208" width="8" height="13" />
        <rect x="227" y="201" width="13" height="13" />
        <rect x="235" y="201" width="12" height="13" />
        <rect x="220" y="194" width="13" height="12" />
        <rect x="227" y="194" width="13" height="12" />
        <rect x="235" y="194" width="12" height="12" />
        <rect x="285" y="194" width="12" height="12" />
        <rect x="292" y="194" width="8" height="12" />
        <rect x="227" y="187" width="13" height="12" />
        <rect x="235" y="187" width="12" height="12" />
        <rect x="249" y="159" width="12" height="12" />
        <rect x="220" y="102" width="13" height="9" />
        <rect x="227" y="103" width="10" height="8" />
        <rect x="232" y="77" width="8" height="12" />
        <rect x="32" y="133" width="12" height="13" />
        <rect x="39" y="133" width="12" height="13" />
        <rect x="32" y="140" width="12" height="13" />
        <rect x="39" y="140" width="12" height="13" />
        <rect x="32" y="147" width="12" height="13" />
        <rect x="39" y="147" width="12" height="13" />
        <rect x="46" y="141" width="12" height="9" />
        <rect x="53" y="140" width="13" height="13" />
        <rect x="60" y="140" width="13" height="13" />
        <rect x="67" y="140" width="13" height="13" />
        <rect x="74" y="141" width="13" height="8" />
        <rect x="82" y="141" width="12" height="9" />
        <rect x="89" y="141" width="12" height="9" />
        <rect x="96" y="141" width="12" height="8" />
        <rect x="103" y="141" width="13" height="11" />
        <rect x="3" y="133" width="13" height="13" />
        <rect x="0" y="140" width="8" height="13" />
        <rect x="3" y="140" width="13" height="13" />
        <rect x="10" y="140" width="13" height="13" />
        <rect x="17" y="140" width="13" height="13" />
        <rect x="24" y="140" width="13" height="13" />
        <rect x="24" y="28" width="13" height="12" />
        <rect x="32" y="28" width="12" height="12" />
        <rect x="39" y="28" width="12" height="12" />
        <rect x="89" y="28" width="12" height="12" />
        <rect x="46" y="35" width="12" height="12" />
        <rect x="103" y="35" width="13" height="12" />
        <rect x="39" y="42" width="12" height="12" />
        <rect x="46" y="42" width="12" height="12" />
        <rect x="74" y="42" width="13" height="12" />
        <rect x="89" y="42" width="12" height="12" />
        <rect x="96" y="42" width="12" height="12" />
        <rect x="103" y="42" width="13" height="12" />
        <rect x="39" y="49" width="12" height="12" />
        <rect x="46" y="49" width="12" height="12" />
        <rect x="53" y="49" width="13" height="12" />
        <rect x="74" y="49" width="13" height="12" />
        <rect x="89" y="49" width="12" height="12" />
        <rect x="96" y="49" width="12" height="12" />
        <rect x="103" y="49" width="13" height="12" />
        <rect x="24" y="56" width="13" height="12" />
        <rect x="32" y="56" width="12" height="12" />
        <rect x="39" y="56" width="12" height="12" />
        <rect x="89" y="56" width="12" height="12" />
        <rect x="96" y="56" width="12" height="12" />
        <rect x="24" y="63" width="13" height="12" />
        <rect x="82" y="63" width="12" height="12" />
        <rect x="24" y="70" width="13" height="12" />
        <rect x="82" y="70" width="12" height="12" />
        <rect x="24" y="77" width="13" height="12" />
        <rect x="74" y="77" width="13" height="12" />
        <rect x="82" y="77" width="12" height="12" />
        <rect x="24" y="84" width="13" height="12" />
        <rect x="74" y="84" width="13" height="12" />
        <rect x="82" y="84" width="12" height="12" />
        <rect x="24" y="91" width="13" height="12" />
        <rect x="74" y="91" width="13" height="12" />
        <rect x="17" y="98" width="13" height="13" />
        <rect x="32" y="98" width="12" height="13" />
        <rect x="60" y="98" width="13" height="13" />
        <rect x="74" y="98" width="13" height="13" />
        <rect x="24" y="105" width="13" height="13" />
        <rect x="32" y="105" width="12" height="13" />
        <rect x="39" y="105" width="12" height="13" />
        <rect x="46" y="105" width="12" height="13" />
        <rect x="53" y="105" width="13" height="13" />
        <rect x="60" y="105" width="13" height="13" />
        <rect x="67" y="105" width="13" height="13" />
        <rect x="74" y="105" width="13" height="13" />
        <rect x="0" y="112" width="1" height="13" />
        <rect x="0" y="112" width="8" height="13" />
        <rect x="3" y="112" width="13" height="13" />
        <rect x="10" y="112" width="13" height="13" />
        <rect x="17" y="112" width="13" height="13" />
        <rect x="24" y="112" width="13" height="13" />
        <rect x="32" y="112" width="12" height="13" />
        <rect x="39" y="112" width="12" height="13" />
        <rect x="46" y="112" width="12" height="13" />
        <rect x="53" y="112" width="13" height="13" />
        <rect x="67" y="112" width="13" height="13" />
        <rect x="74" y="112" width="13" height="13" />
        <rect x="82" y="112" width="12" height="13" />
        <rect x="103" y="112" width="13" height="13" />
        <rect x="0" y="119" width="1" height="13" />
        <rect x="0" y="119" width="8" height="13" />
        <rect x="3" y="119" width="13" height="13" />
        <rect x="24" y="119" width="13" height="13" />
        <rect x="46" y="119" width="12" height="13" />
        <rect x="53" y="119" width="13" height="13" />
        <rect x="60" y="119" width="13" height="13" />
        <rect x="67" y="119" width="13" height="13" />
        <rect x="74" y="119" width="13" height="13" />
        <rect x="82" y="119" width="12" height="13" />
        <rect x="103" y="119" width="13" height="13" />
        <rect x="53" y="126" width="13" height="13" />
        <rect x="60" y="126" width="13" height="13" />
        <rect x="67" y="126" width="13" height="13" />
        <rect x="227" y="173" width="13" height="12" />
        <rect x="242" y="173" width="12" height="12" />
        <rect x="177" y="166" width="13" height="12" />
        <rect x="213" y="166" width="13" height="12" />
        <rect x="220" y="166" width="13" height="12" />
        <rect x="249" y="166" width="12" height="12" />
        <rect x="256" y="166" width="12" height="12" />
        <rect x="177" y="159" width="13" height="12" />
        <rect x="213" y="159" width="13" height="12" />
        <rect x="220" y="159" width="13" height="12" />
        <rect x="256" y="159" width="12" height="12" />
        <rect x="263" y="159" width="13" height="12" />
        <rect x="213" y="152" width="13" height="12" />
        <rect x="220" y="152" width="13" height="12" />
        <rect x="256" y="152" width="12" height="12" />
        <rect x="263" y="152" width="13" height="12" />
        <rect x="235" y="42" width="12" height="12" />
        <rect x="242" y="42" width="12" height="12" />
        <rect x="173" y="51" width="10" height="8" />
        <rect x="235" y="56" width="12" height="12" />
        <rect x="221" y="53" width="12" height="10" />
        <rect x="235" y="49" width="12" height="12" />
        <rect x="277" y="49" width="13" height="12" />
        <rect x="285" y="49" width="12" height="12" />
        <rect x="206" y="60" width="13" height="7" />
        <rect x="206" y="57" width="8" height="12" />
        <rect x="213" y="53" width="13" height="13" />
        <rect x="227" y="57" width="13" height="7" />
        <rect x="242" y="57" width="12" height="7" />
        <rect x="249" y="57" width="13" height="12" />
        <rect x="256" y="56" width="12" height="12" />
        <rect x="203" y="63" width="10" height="12" />
        <rect x="256" y="63" width="12" height="8" />
        <rect x="263" y="67" width="13" height="8" />
        <rect x="270" y="67" width="13" height="10" />
        <rect x="199" y="70" width="10" height="13" />
        <rect x="277" y="71" width="9" height="11" />
        <rect x="196" y="77" width="10" height="13" />
        <rect x="279" y="77" width="8" height="12" />
        <rect x="194" y="84" width="10" height="13" />
        <rect x="275" y="85" width="7" height="11" />
        <rect x="277" y="84" width="9" height="8" />
        <rect x="192" y="91" width="12" height="12" />
        <rect x="275" y="91" width="9" height="13" />
        <rect x="177" y="98" width="13" height="12" />
        <rect x="185" y="98" width="12" height="12" />
        <rect x="192" y="98" width="12" height="12" />
        <rect x="213" y="102" width="13" height="9" />
        <rect x="263" y="100" width="13" height="11" />
        <rect x="270" y="101" width="13" height="7" />
        <rect x="276" y="98" width="7" height="10" />
        <rect x="272" y="102" width="8" height="9" />
        <rect x="192" y="105" width="12" height="13" />
        <rect x="206" y="111" width="13" height="7" />
        <rect x="213" y="105" width="13" height="13" />
        <rect x="220" y="105" width="13" height="13" />
        <rect x="227" y="105" width="13" height="13" />
        <rect x="235" y="105" width="12" height="13" />
        <rect x="242" y="105" width="12" height="13" />
        <rect x="249" y="109" width="12" height="9" />
        <rect x="256" y="104" width="13" height="13" />
        <rect x="273" y="105" width="10" height="13" />
        <rect x="277" y="109" width="9" height="9" />
        <rect x="185" y="112" width="12" height="13" />
        <rect x="192" y="112" width="12" height="13" />
        <rect x="199" y="112" width="12" height="13" />
        <rect x="206" y="112" width="13" height="13" />
        <rect x="213" y="112" width="13" height="13" />
        <rect x="220" y="112" width="13" height="13" />
        <rect x="227" y="112" width="13" height="13" />
        <rect x="235" y="112" width="12" height="13" />
        <rect x="242" y="112" width="12" height="13" />
        <rect x="249" y="112" width="12" height="10" />
        <rect x="256" y="113" width="11" height="12" />
        <rect x="277" y="112" width="10" height="13" />
        <rect x="285" y="114" width="9" height="11" />
        <rect x="177" y="119" width="13" height="13" />
        <rect x="185" y="119" width="12" height="13" />
        <rect x="192" y="119" width="12" height="13" />
        <rect x="199" y="119" width="12" height="13" />
        <rect x="206" y="119" width="13" height="13" />
        <rect x="213" y="119" width="13" height="13" />
        <rect x="220" y="119" width="13" height="13" />
        <rect x="227" y="119" width="13" height="13" />
        <rect x="235" y="119" width="12" height="13" />
        <rect x="242" y="119" width="12" height="13" />
        <rect x="256" y="119" width="12" height="13" />
        <rect x="263" y="119" width="13" height="13" />
        <rect x="280" y="119" width="10" height="10" />
        <rect x="284" y="119" width="10" height="9" />
        <rect x="259" y="126" width="9" height="7" />
        <rect x="263" y="126" width="13" height="8" />
        <rect x="210" y="70" width="9" height="10" />
        <rect x="232" y="63" width="10" height="12" />
        <rect x="232" y="70" width="8" height="12" />
        <rect x="170" y="222" width="13" height="13" />
        <rect x="170" y="215" width="13" height="13" />
        <rect x="177" y="215" width="13" height="13" />
        <rect x="177" y="208" width="13" height="13" />
        <rect x="177" y="201" width="13" height="13" />
        <rect x="185" y="201" width="12" height="13" />
        <rect x="256" y="201" width="12" height="13" />
        <rect x="256" y="194" width="12" height="12" />
        <rect x="263" y="194" width="13" height="12" />
        <rect x="220" y="187" width="13" height="12" />
        <rect x="263" y="187" width="13" height="12" />
        <rect x="292" y="187" width="8" height="12" />
        <rect x="177" y="180" width="13" height="12" />
        <rect x="213" y="180" width="13" height="12" />
        <rect x="220" y="180" width="13" height="12" />
        <rect x="227" y="180" width="13" height="12" />
        <rect x="242" y="180" width="12" height="12" />
        <rect x="285" y="180" width="12" height="12" />
        <rect x="292" y="180" width="8" height="12" />
        <rect x="177" y="173" width="13" height="12" />
        <rect x="213" y="173" width="13" height="12" />
        <rect x="220" y="173" width="13" height="12" />
        <rect x="249" y="173" width="12" height="12" />
        <rect x="256" y="173" width="12" height="12" />
        <rect x="277" y="173" width="13" height="12" />
        <rect x="285" y="173" width="12" height="12" />
        <rect x="185" y="243" width="12" height="13" />
        <rect x="177" y="236" width="13" height="13" />
        <rect x="185" y="236" width="12" height="13" />
        <rect x="192" y="236" width="12" height="13" />
        <rect x="177" y="229" width="13" height="13" />
        <rect x="292" y="222" width="8" height="13" />
        <rect x="185" y="194" width="12" height="12" />
        <rect x="185" y="187" width="12" height="12" />
        <rect x="256" y="180" width="12" height="12" />
</g>
</svg>