<?xml version="1.0" encoding="utf-8"?>
<svg xmlns="http://www.w3.org/2000/svg" width="300" height="300" viewBox="0 0 300 300" class="creatureMap" style="position:absolute;">
<defs>
    <filter id="blur" x="-30%" y="-30%" width="160%" height="160%">
        <feGaussianBlur stdDeviation="3" />
    </filter>
    <style>
        .spawningMap-very-common { fill: #0F0; }
        .spawningMap-common { fill: #B2FF00; }
        .spawningMap-uncommon { fill: #FF0; }
        .spawningMap-very-uncommon { fill: #FC0; }
        .spawningMap-rare { fill: #F60; }
        .spawningMap-very-rare { fill: #F00; }
        .spawning-map-point { stroke:black; stroke-width:1; }
    </style>
</defs>
<g filter="url(#blur)" opacity="0.7">
    <g class="spawningMap-uncommon">
        <rect x="103" y="190" width="13" height="12" />
        <rect x="110" y="190" width="13" height="12" />
        <rect x="117" y="190" width="10" height="12" />
        <rect x="103" y="197" width="13" height="12" />
        <rect x="110" y="197" width="13" height="12" />
        <rect x="117" y="197" width="10" height="12" />
        <rect x="96" y="204" width="12" height="12" />
        <rect x="103" y="204" width="13" height="12" />
        <rect x="110" y="204" width="13" height="12" />
        <rect x="117" y="204" width="10" height="12" />
        <rect x="82" y="211" width="12" height="12" />
        <rect x="89" y="211" width="12" height="12" />
        <rect x="96" y="211" width="12" height="12" />
        <rect x="103" y="211" width="13" height="12" />
        <rect x="110" y="211" width="13" height="12" />
        <rect x="117" y="211" width="10" height="12" />
        <rect x="89" y="218" width="12" height="12" />
        <rect x="96" y="218" width="12" height="12" />
        <rect x="103" y="218" width="13" height="12" />
        <rect x="110" y="218" width="13" height="12" />
        <rect x="117" y="218" width="10" height="12" />
        <rect x="103" y="225" width="13" height="12" />
        <rect x="110" y="225" width="13" height="12" />
        <rect x="117" y="225" width="10" height="12" />
        <rect x="103" y="232" width="13" height="12" />
        <rect x="110" y="232" width="13" height="12" />
        <rect x="117" y="232" width="10" height="12" />
        <rect x="110" y="239" width="13" height="12" />
        <rect x="117" y="239" width="10" height="12" />
        <rect x="110" y="246" width="13" height="12" />
        <rect x="117" y="246" width="10" height="12" />
        <rect x="117" y="253" width="10" height="12" />
        <rect x="299" y="250" width="1" height="13" />
        <rect x="299" y="243" width="1" height="13" />
        <rect x="299" y="28" width="1" height="12" />
        <rect x="299" y="229" width="1" height="13" />
        <rect x="299" y="222" width="1" height="13" />
        <rect x="299" y="215" width="1" height="13" />
        <rect x="299" y="208" width="1" height="13" />
        <rect x="299" y="201" width="1" height="13" />
        <rect x="299" y="194" width="1" height="12" />
        <rect x="299" y="187" width="1" height="12" />
        <rect x="299" y="180" width="1" height="12" />
        <rect x="299" y="35" width="1" height="12" />
        <rect x="299" y="257" width="1" height="13" />
        <rect x="299" y="42" width="1" height="12" />
    </g>
    <g class="spawningMap-very-uncommon">
        <rect x="263" y="56" width="13" height="12" />
        <rect x="270" y="56" width="13" height="12" />
        <rect x="213" y="63" width="13" height="12" />
        <rect x="220" y="63" width="13" height="12" />
        <rect x="277" y="63" width="13" height="12" />
        <rect x="213" y="70" width="13" height="12" />
        <rect x="220" y="70" width="13" height="12" />
        <rect x="242" y="70" width="12" height="12" />
        <rect x="249" y="70" width="12" height="12" />
        <rect x="256" y="70" width="12" height="12" />
        <rect x="263" y="70" width="13" height="12" />
        <rect x="199" y="77" width="12" height="12" />
        <rect x="206" y="77" width="13" height="12" />
        <rect x="213" y="77" width="13" height="12" />
        <rect x="220" y="77" width="13" height="12" />
        <rect x="242" y="77" width="12" height="12" />
        <rect x="249" y="77" width="12" height="12" />
        <rect x="256" y="77" width="12" height="12" />
        <rect x="263" y="77" width="13" height="12" />
        <rect x="199" y="84" width="12" height="12" />
        <rect x="206" y="84" width="13" height="12" />
        <rect x="213" y="84" width="13" height="12" />
        <rect x="220" y="84" width="13" height="12" />
        <rect x="170" y="28" width="13" height="12" />
        <rect x="242" y="84" width="12" height="12" />
        <rect x="249" y="84" width="12" height="12" />
        <rect x="256" y="84" width="12" height="12" />
        <rect x="263" y="84" width="13" height="12" />
        <rect x="177" y="28" width="13" height="12" />
        <rect x="220" y="91" width="13" height="12" />
        <rect x="227" y="91" width="13" height="12" />
        <rect x="185" y="28" width="12" height="12" />
        <rect x="192" y="28" width="12" height="12" />
        <rect x="199" y="28" width="12" height="12" />
        <rect x="206" y="28" width="13" height="12" />
        <rect x="227" y="28" width="13" height="12" />
        <rect x="235" y="28" width="12" height="12" />
        <rect x="242" y="28" width="12" height="12" />
        <rect x="249" y="28" width="12" height="12" />
        <rect x="256" y="28" width="12" height="12" />
        <rect x="263" y="28" width="13" height="12" />
        <rect x="270" y="28" width="13" height="12" />
        <rect x="177" y="250" width="13" height="13" />
        <rect x="185" y="250" width="12" height="13" />
        <rect x="192" y="250" width="12" height="13" />
        <rect x="199" y="250" width="12" height="13" />
        <rect x="206" y="250" width="13" height="13" />
        <rect x="277" y="28" width="13" height="12" />
        <rect x="285" y="28" width="12" height="12" />
        <rect x="177" y="243" width="13" height="13" />
        <rect x="192" y="243" width="12" height="13" />
        <rect x="199" y="243" width="12" height="13" />
        <rect x="206" y="243" width="13" height="13" />
        <rect x="263" y="243" width="13" height="13" />
        <rect x="270" y="243" width="13" height="13" />
        <rect x="220" y="236" width="13" height="13" />
        <rect x="170" y="35" width="13" height="12" />
        <rect x="177" y="35" width="13" height="12" />
        <rect x="199" y="229" width="12" height="13" />
        <rect x="206" y="229" width="13" height="13" />
        <rect x="242" y="229" width="12" height="13" />
        <rect x="185" y="35" width="12" height="12" />
        <rect x="249" y="229" width="12" height="13" />
        <rect x="277" y="229" width="13" height="13" />
        <rect x="285" y="229" width="12" height="13" />
        <rect x="177" y="222" width="13" height="13" />
        <rect x="192" y="35" width="12" height="12" />
        <rect x="192" y="222" width="12" height="13" />
        <rect x="199" y="222" width="12" height="13" />
        <rect x="227" y="222" width="13" height="13" />
        <rect x="235" y="222" width="12" height="13" />
        <rect x="242" y="222" width="12" height="13" />
        <rect x="199" y="35" width="12" height="12" />
        <rect x="263" y="222" width="13" height="13" />
        <rect x="270" y="222" width="13" height="13" />
        <rect x="277" y="222" width="13" height="13" />
        <rect x="285" y="222" width="12" height="13" />
        <rect x="206" y="35" width="13" height="12" />
        <rect x="192" y="215" width="12" height="13" />
        <rect x="199" y="215" width="12" height="13" />
        <rect x="213" y="215" width="13" height="13" />
        <rect x="220" y="215" width="13" height="13" />
        <rect x="256" y="215" width="12" height="13" />
        <rect x="263" y="215" width="13" height="13" />
        <rect x="270" y="215" width="13" height="13" />
        <rect x="277" y="215" width="13" height="13" />
        <rect x="170" y="208" width="13" height="13" />
        <rect x="206" y="208" width="13" height="13" />
        <rect x="263" y="208" width="13" height="13" />
        <rect x="270" y="208" width="13" height="13" />
        <rect x="277" y="208" width="13" height="13" />
        <rect x="170" y="201" width="13" height="13" />
        <rect x="199" y="201" width="12" height="13" />
        <rect x="206" y="201" width="13" height="13" />
        <rect x="242" y="35" width="12" height="12" />
        <rect x="285" y="201" width="12" height="13" />
        <rect x="292" y="201" width="8" height="13" />
        <rect x="249" y="35" width="12" height="12" />
        <rect x="270" y="194" width="13" height="12" />
        <rect x="256" y="35" width="12" height="12" />
        <rect x="263" y="35" width="13" height="12" />
        <rect x="242" y="187" width="12" height="12" />
        <rect x="270" y="187" width="13" height="12" />
        <rect x="285" y="187" width="12" height="12" />
        <rect x="270" y="35" width="13" height="12" />
        <rect x="199" y="180" width="12" height="12" />
        <rect x="277" y="35" width="13" height="12" />
        <rect x="270" y="180" width="13" height="12" />
        <rect x="277" y="180" width="13" height="12" />
        <rect x="285" y="35" width="12" height="12" />
        <rect x="199" y="173" width="12" height="12" />
        <rect x="206" y="173" width="13" height="12" />
        <rect x="292" y="35" width="8" height="12" />
        <rect x="170" y="42" width="13" height="12" />
        <rect x="277" y="166" width="13" height="12" />
        <rect x="177" y="42" width="13" height="12" />
        <rect x="185" y="42" width="12" height="12" />
        <rect x="192" y="42" width="12" height="12" />
        <rect x="185" y="257" width="12" height="13" />
        <rect x="192" y="257" width="12" height="13" />
        <rect x="199" y="257" width="12" height="13" />
        <rect x="206" y="257" width="13" height="13" />
        <rect x="213" y="257" width="13" height="13" />
        <rect x="220" y="257" width="13" height="13" />
        <rect x="227" y="257" width="13" height="13" />
        <rect x="242" y="257" width="12" height="13" />
        <rect x="249" y="257" width="12" height="13" />
        <rect x="199" y="42" width="12" height="12" />
        <rect x="263" y="257" width="13" height="13" />
        <rect x="270" y="257" width="13" height="13" />
        <rect x="277" y="257" width="13" height="13" />
        <rect x="285" y="257" width="12" height="13" />
        <rect x="206" y="42" width="13" height="12" />
        <rect x="292" y="28" width="8" height="12" />
        <rect x="249" y="42" width="12" height="12" />
        <rect x="256" y="42" width="12" height="12" />
        <rect x="263" y="42" width="13" height="12" />
        <rect x="270" y="42" width="13" height="12" />
        <rect x="277" y="42" width="13" height="12" />
        <rect x="285" y="42" width="12" height="12" />
        <rect x="292" y="42" width="8" height="12" />
        <rect x="199" y="49" width="12" height="12" />
        <rect x="242" y="49" width="12" height="12" />
        <rect x="249" y="49" width="12" height="12" />
        <rect x="256" y="49" width="12" height="12" />
        <rect x="256" y="257" width="12" height="13" />
        <rect x="220" y="28" width="13" height="12" />
        <rect x="263" y="49" width="13" height="12" />
        <rect x="270" y="49" width="13" height="12" />
    </g></g>
</svg>