<svg xmlns="http://www.w3.org/2000/svg" width="300" height="300" viewBox="0 0 300 300" class="creatureMap" style="position:absolute;">
<defs>
  <filter id="blur" x="-30%" y="-30%" width="160%" height="160%">
    <feGaussianBlur stdDeviation="3" />
</filter>
<pattern id="pattern-untameable" width="10" height="10" patternTransform="rotate(135)" patternUnits="userSpaceOnUse">
<rect width="4" height="10" fill="black"></rect>
</pattern><filter id="groupStroke"><feFlood result="outsideColor" flood-color="black"/><feMorphology in="SourceAlpha" operator="dilate" radius="2"/><feComposite result="strokeoutline1" in="outsideColor" operator="in"/><feComposite result="strokeoutline2" in="strokeoutline1" in2="SourceAlpha" operator="out"/><feGaussianBlur in="strokeoutline2" result="strokeblur" stdDeviation="1"/></filter><style>.spawningMap-very-common { fill: #0F0;}.spawningMap-common { fill: #B2FF00;}.spawningMap-uncommon { fill: #FF0;}.spawningMap-very-uncommon { fill: #FC0;}.spawningMap-rare { fill: #F60;}.spawningMap-very-rare { fill: #F00; }.spawning-map-point {stroke:black; stroke-width:1;}</style></defs>
<g filter="url(#blur)" opacity="0.7"><g class="spawningMap-uncommon"><rect x="131" y="199" width="12" height="12" /><rect x="131" y="206" width="12" height="12" /><rect x="109" y="221" width="12" height="12" /><rect x="102" y="214" width="11" height="11" /><rect x="102" y="221" width="11" height="12" /><rect x="87" y="221" width="12" height="12" /><rect x="139" y="214" width="11" height="11" /><rect x="131" y="228" width="12" height="12" /><rect x="146" y="228" width="11" height="12" /><rect x="138" y="228" width="12" height="12" /><rect x="124" y="228" width="11" height="12" /><rect x="117" y="184" width="11" height="12" /><rect x="139" y="206" width="11" height="12" /><rect x="95" y="221" width="11" height="12" /><rect x="124" y="236" width="11" height="11" /><rect x="80" y="193" width="11" height="11" /><rect x="80" y="185" width="11" height="12" /><rect x="95" y="178" width="11" height="11" /><rect x="80" y="178" width="11" height="11" /><rect x="80" y="206" width="11" height="12" /><rect x="109" y="206" width="12" height="12" /><rect x="102" y="206" width="11" height="12" /><rect x="102" y="199" width="11" height="12" /><rect x="95" y="199" width="11" height="12" /><rect x="117" y="206" width="11" height="12" /><rect x="131" y="214" width="12" height="11" /><rect x="117" y="199" width="11" height="12" /><rect x="124" y="199" width="11" height="12" /><rect x="117" y="192" width="11" height="11" /><rect x="124" y="192" width="11" height="11" /><rect x="131" y="221" width="12" height="12" /><rect x="109" y="214" width="12" height="11" /><rect x="80" y="214" width="11" height="11" /><rect x="80" y="221" width="11" height="12" /><rect x="138" y="236" width="12" height="11" /><rect x="58" y="250" width="11" height="12" /><rect x="50" y="250" width="12" height="12" /><rect x="43" y="221" width="12" height="12" /><rect x="50" y="236" width="12" height="11" /><rect x="116" y="228" width="12" height="12" /><rect x="80" y="163" width="11" height="12" /><rect x="73" y="163" width="11" height="12" /><rect x="65" y="163" width="12" height="12" /><rect x="65" y="214" width="12" height="11" /><rect x="58" y="214" width="11" height="11" /><rect x="50" y="214" width="12" height="11" /><rect x="43" y="214" width="12" height="11" /><rect x="65" y="206" width="12" height="12" /><rect x="58" y="206" width="11" height="12" /><rect x="50" y="206" width="12" height="12" /><rect x="43" y="206" width="12" height="12" /><rect x="131" y="236" width="12" height="11" /><rect x="138" y="243" width="12" height="12" /><rect x="131" y="243" width="12" height="12" /><rect x="138" y="250" width="12" height="12" /><rect x="131" y="250" width="12" height="12" /><rect x="73" y="206" width="11" height="12" /><rect x="58" y="199" width="11" height="12" /><rect x="72" y="228" width="12" height="12" /><rect x="72" y="236" width="12" height="11" /><rect x="72" y="214" width="12" height="11" /><rect x="72" y="221" width="12" height="12" /><rect x="65" y="228" width="12" height="12" /><rect x="65" y="236" width="12" height="11" /><rect x="58" y="236" width="11" height="11" /><rect x="58" y="221" width="11" height="12" /><rect x="50" y="221" width="12" height="12" /><rect x="58" y="228" width="11" height="12" /><rect x="80" y="228" width="11" height="12" /><rect x="80" y="236" width="11" height="11" /><rect x="87" y="228" width="12" height="12" /><rect x="87" y="236" width="12" height="11" /><rect x="94" y="250" width="12" height="12" /><rect x="50" y="199" width="12" height="12" /><rect x="43" y="199" width="12" height="12" /><rect x="87" y="243" width="12" height="12" /><rect x="87" y="250" width="12" height="12" /><rect x="58" y="192" width="11" height="11" /><rect x="80" y="243" width="11" height="12" /><rect x="80" y="250" width="11" height="12" /><rect x="50" y="192" width="12" height="11" /><rect x="43" y="192" width="12" height="11" /><rect x="102" y="258" width="11" height="11" /><rect x="94" y="258" width="12" height="11" /><rect x="43" y="228" width="12" height="12" /><rect x="43" y="236" width="12" height="11" /><rect x="87" y="258" width="12" height="11" /><rect x="80" y="258" width="11" height="11" /><rect x="72" y="258" width="12" height="11" /><rect x="65" y="258" width="12" height="11" /><rect x="87" y="178" width="12" height="11" /><rect x="43" y="243" width="12" height="11" /><rect x="87" y="171" width="12" height="11" /><rect x="87" y="206" width="12" height="12" /><rect x="109" y="184" width="12" height="12" /><rect x="95" y="206" width="11" height="12" /><rect x="95" y="214" width="11" height="11" /><rect x="87" y="214" width="12" height="11" /><rect x="73" y="156" width="11" height="11" /><rect x="43" y="250" width="12" height="12" /><rect x="43" y="257" width="12" height="12" /><rect x="36" y="228" width="11" height="12" /><rect x="80" y="156" width="12" height="11" /><rect x="36" y="236" width="11" height="11" /><rect x="36" y="243" width="11" height="11" /><rect x="36" y="250" width="11" height="12" /><rect x="65" y="141" width="12" height="12" /><rect x="65" y="149" width="12" height="11" /><rect x="36" y="257" width="11" height="12" /><rect x="28" y="228" width="12" height="12" /><rect x="28" y="236" width="12" height="11" /><rect x="28" y="243" width="12" height="11" /><rect x="28" y="250" width="12" height="12" /><rect x="21" y="228" width="11" height="12" /><rect x="21" y="236" width="11" height="11" /><rect x="21" y="243" width="11" height="11" /><rect x="21" y="250" width="11" height="12" /><rect x="14" y="228" width="11" height="12" /><rect x="14" y="236" width="11" height="11" /><rect x="14" y="243" width="11" height="11" /><rect x="14" y="250" width="11" height="12" /><rect x="14" y="257" width="11" height="12" /><rect x="6" y="228" width="12" height="12" /><rect x="6" y="236" width="12" height="11" /><rect x="6" y="243" width="12" height="11" /><rect x="6" y="250" width="12" height="12" /><rect x="6" y="257" width="12" height="12" /><rect x="6" y="192" width="12" height="11" /><rect x="6" y="199" width="12" height="12" /><rect x="6" y="206" width="12" height="12" /><rect x="6" y="214" width="12" height="11" /><rect x="6" y="221" width="12" height="11" /><rect x="14" y="192" width="11" height="11" /><rect x="14" y="199" width="11" height="12" /><rect x="14" y="206" width="11" height="12" /><rect x="14" y="214" width="11" height="11" /><rect x="14" y="221" width="11" height="11" /><rect x="21" y="192" width="11" height="11" /><rect x="21" y="199" width="11" height="12" /><rect x="21" y="206" width="11" height="12" /><rect x="21" y="214" width="11" height="11" /><rect x="21" y="221" width="11" height="11" /><rect x="28" y="192" width="12" height="11" /><rect x="28" y="199" width="12" height="12" /><rect x="28" y="206" width="12" height="12" /><rect x="28" y="214" width="12" height="11" /><rect x="28" y="221" width="12" height="11" /><rect x="65" y="199" width="12" height="12" /><rect x="65" y="192" width="12" height="11" /><rect x="65" y="184" width="12" height="12" /><rect x="58" y="184" width="11" height="12" /><rect x="146" y="236" width="11" height="11" /><rect x="146" y="243" width="11" height="12" /><rect x="146" y="250" width="11" height="12" /><rect x="146" y="258" width="11" height="11" /><rect x="138" y="265" width="12" height="12" /><rect x="138" y="272" width="12" height="12" /><rect x="138" y="280" width="12" height="11" /><rect x="138" y="287" width="12" height="12" /><rect x="131" y="265" width="12" height="12" /><rect x="131" y="272" width="12" height="12" /><rect x="131" y="280" width="12" height="11" /><rect x="124" y="265" width="11" height="12" /><rect x="124" y="272" width="11" height="12" /><rect x="124" y="280" width="11" height="11" /><rect x="102" y="265" width="11" height="12" /><rect x="102" y="272" width="11" height="12" /><rect x="102" y="280" width="11" height="11" /><rect x="102" y="287" width="11" height="12" /><rect x="94" y="265" width="12" height="12" /><rect x="94" y="272" width="12" height="12" /><rect x="94" y="280" width="12" height="11" /><rect x="94" y="287" width="12" height="12" /><rect x="87" y="265" width="12" height="12" /><rect x="87" y="272" width="11" height="12" /><rect x="87" y="280" width="12" height="11" /><rect x="87" y="287" width="11" height="12" /><rect x="28" y="184" width="12" height="12" /><rect x="12" y="180" width="12" height="11" /><rect x="80" y="265" width="11" height="12" /><rect x="80" y="272" width="11" height="12" /><rect x="80" y="280" width="11" height="11" /><rect x="80" y="287" width="11" height="12" /><rect x="72" y="265" width="12" height="12" /><rect x="72" y="272" width="12" height="12" /><rect x="72" y="280" width="12" height="11" /><rect x="72" y="287" width="12" height="12" /><rect x="28" y="257" width="12" height="12" /><rect x="21" y="257" width="11" height="12" /><rect x="28" y="265" width="12" height="11" /><rect x="21" y="265" width="11" height="11" /><rect x="28" y="287" width="12" height="12" /><rect x="21" y="287" width="11" height="12" /><rect x="13" y="287" width="12" height="12" /><rect x="6" y="287" width="12" height="12" /><rect x="21" y="280" width="11" height="11" /><rect x="13" y="280" width="12" height="11" /><rect x="21" y="272" width="11" height="12" /><rect x="13" y="272" width="12" height="12" /><rect x="36" y="184" width="11" height="12" /><rect x="12" y="173" width="12" height="11" /><rect x="43" y="177" width="12" height="12" /><rect x="36" y="177" width="11" height="12" /><rect x="65" y="265" width="11" height="12" /><rect x="58" y="265" width="11" height="12" /><rect x="65" y="287" width="11" height="12" /><rect x="58" y="287" width="11" height="12" /><rect x="146" y="265" width="11" height="12" /><rect x="146" y="272" width="11" height="12" /><rect x="146" y="280" width="11" height="11" /><rect x="146" y="287" width="11" height="12" /><rect x="153" y="265" width="12" height="12" /><rect x="153" y="272" width="12" height="12" /><rect x="153" y="280" width="12" height="11" /><rect x="153" y="287" width="12" height="12" /><rect x="161" y="265" width="11" height="12" /><rect x="160" y="272" width="12" height="12" /><rect x="161" y="280" width="11" height="11" /><rect x="160" y="287" width="12" height="12" /><rect x="161" y="236" width="11" height="11" /><rect x="160" y="243" width="12" height="12" /><rect x="161" y="250" width="11" height="12" /><rect x="160" y="258" width="12" height="11" /><rect x="153" y="236" width="12" height="11" /><rect x="153" y="243" width="12" height="12" /><rect x="153" y="250" width="12" height="12" /><rect x="153" y="258" width="12" height="11" /><rect x="12" y="165" width="12" height="12" /><rect x="168" y="280" width="11" height="11" /><rect x="168" y="287" width="11" height="12" /><rect x="175" y="287" width="12" height="12" /><rect x="175" y="280" width="12" height="11" /><rect x="182" y="280" width="12" height="11" /><rect x="182" y="265" width="12" height="12" /><rect x="131" y="287" width="12" height="12" /><rect x="124" y="287" width="11" height="12" /><rect x="72" y="243" width="12" height="12" /><rect x="72" y="250" width="12" height="12" /><rect x="58" y="258" width="11" height="11" /><rect x="50" y="258" width="12" height="11" /><rect x="73" y="141" width="11" height="12" /><rect x="73" y="149" width="11" height="11" /><rect x="65" y="156" width="12" height="11" /><rect x="80" y="171" width="11" height="11" /><rect x="73" y="171" width="11" height="11" /><rect x="65" y="171" width="12" height="11" /><rect x="109" y="199" width="12" height="12" /><rect x="50" y="184" width="12" height="12" /><rect x="43" y="184" width="12" height="12" /><rect x="109" y="192" width="12" height="11" /><rect x="36" y="192" width="11" height="11" /><rect x="102" y="192" width="11" height="11" /><rect x="36" y="199" width="11" height="12" /><rect x="36" y="206" width="11" height="12" /><rect x="36" y="214" width="11" height="11" /><rect x="36" y="221" width="11" height="11" /><rect x="73" y="192" width="11" height="12" /><rect x="73" y="185" width="11" height="11" /><rect x="73" y="178" width="11" height="11" /><rect x="65" y="177" width="12" height="12" /><rect x="124" y="206" width="11" height="12" /><rect x="43" y="265" width="12" height="12" /><rect x="43" y="272" width="12" height="12" /><rect x="43" y="280" width="12" height="11" /><rect x="43" y="287" width="12" height="12" /><rect x="36" y="265" width="11" height="12" /><rect x="36" y="272" width="11" height="12" /><rect x="36" y="280" width="11" height="11" /><rect x="36" y="287" width="11" height="12" /><rect x="102" y="184" width="11" height="12" /><rect x="-1" y="258" width="11" height="11" /><rect x="-1" y="265" width="11" height="11" /><rect x="-1" y="272" width="11" height="12" /><rect x="-1" y="280" width="11" height="11" /><rect x="65" y="280" width="11" height="11" /><rect x="58" y="280" width="11" height="11" /><rect x="168" y="251" width="11" height="11" /><rect x="168" y="258" width="11" height="12" /><rect x="168" y="265" width="11" height="12" /><rect x="182" y="287" width="12" height="12" /><rect x="175" y="265" width="12" height="12" /><rect x="190" y="265" width="11" height="12" /><rect x="116" y="287" width="12" height="12" /><rect x="109" y="287" width="11" height="12" /><rect x="20" y="167" width="11" height="12" /><rect x="20" y="160" width="11" height="11" /><rect x="146" y="214" width="11" height="11" /><rect x="146" y="221" width="11" height="11" /><rect x="87" y="163" width="12" height="12" /><rect x="65" y="243" width="12" height="11" /><rect x="65" y="250" width="12" height="12" /><rect x="73" y="199" width="11" height="12" /><rect x="50" y="228" width="12" height="12" /><rect x="109" y="228" width="12" height="12" /><rect x="102" y="228" width="11" height="12" /><rect x="138" y="221" width="12" height="12" /><rect x="138" y="258" width="12" height="11" /><rect x="131" y="258" width="12" height="11" /><rect x="124" y="258" width="11" height="11" /><rect x="116" y="258" width="12" height="11" /></g></g>
</svg>