<svg xmlns="http://www.w3.org/2000/svg" width="300" height="300" viewBox="0 0 300 300" class="creatureMap" style="position:absolute;">
<defs>
<filter id="blur" x="-30%" y="-30%" width="160%" height="160%"><feGaussianBlur stdDeviation="3" />
</filter>
<pattern id="pattern-untameable" width="10" height="10" patternTransform="rotate(135)" patternUnits="userSpaceOnUse"><rect width="4" height="10" fill="black"></rect>
</pattern>
<filter id="groupStroke"><feFlood result="outsideColor" flood-color="black"/><feMorphology in="SourceAlpha" operator="dilate" radius="2"/><feComposite result="strokeoutline1" in="outsideColor" operator="in"/><feComposite result="strokeoutline2" in="strokeoutline1" in2="SourceAlpha" operator="out"/><feGaussianBlur in="strokeoutline2" result="strokeblur" stdDeviation="1"/>
</filter>
<style>
.spawningMap-very-common { fill: #0F0;}
.spawningMap-common { fill: #B2FF00;}
.spawningMap-uncommon { fill: #FF0;}
.spawningMap-very-uncommon { fill: #FC0;}
.spawningMap-rare { fill: #F60;}
.spawningMap-very-rare { fill: #F00; }.spawning-map-point {stroke:black; stroke-width:1;}
</style>
</defs>
<g filter="url(#blur)" opacity="0.7">
<g class="spawningMap-very-common"><rect x="25" y="105" width="8" height="8" /><rect x="17" y="95" width="24" height="26" /><rect x="39" y="105" width="5" height="5" /><rect x="34" y="100" width="4" height="4" /><rect x="62" y="78" width="9" height="8" /><rect x="62" y="69" width="9" height="8" /><rect x="62" y="61" width="9" height="8" /><rect x="53" y="148" width="9" height="7" /><rect x="53" y="156" width="9" height="8" /><rect x="53" y="165" width="9" height="8" /><rect x="53" y="174" width="9" height="7" /><rect x="53" y="69" width="9" height="8" /><rect x="44" y="165" width="8" height="8" /><rect x="34" y="165" width="9" height="8" /><rect x="90" y="69" width="9" height="8" /><rect x="90" y="61" width="9" height="8" /><rect x="26" y="145" width="14" height="15" /><rect x="34" y="111" width="4" height="4" /><rect x="39" y="111" width="5" height="4" /><rect x="34" y="105" width="4" height="5" /><rect x="81" y="78" width="8" height="8" /><rect x="81" y="69" width="8" height="8" /><rect x="81" y="61" width="8" height="8" /><rect x="81" y="52" width="8" height="8" /><rect x="44" y="156" width="8" height="8" /><rect x="72" y="174" width="8" height="7" /><rect x="72" y="78" width="8" height="8" /><rect x="72" y="69" width="8" height="8" /><rect x="72" y="61" width="8" height="8" /><rect x="72" y="52" width="8" height="8" /><rect x="62" y="156" width="9" height="8" /><rect x="62" y="165" width="9" height="8" /><rect x="62" y="174" width="9" height="7" />
</g>
</g>
<g class="spawning-map-point" opacity="0.8">
</g>
</svg>