<svg xmlns="http://www.w3.org/2000/svg" width="300" height="300" viewBox="0 0 300 300" class="creatureMap" style="position:absolute;">
<defs>
<filter id="blur" x="-30%" y="-30%" width="160%" height="160%"><feGaussianBlur stdDeviation="3" />
</filter>
<pattern id="pattern-untameable" width="10" height="10" patternTransform="rotate(135)" patternUnits="userSpaceOnUse"><rect width="4" height="10" fill="black"></rect>
</pattern>
<filter id="groupStroke"><feFlood result="outsideColor" flood-color="black"/><feMorphology in="SourceAlpha" operator="dilate" radius="2"/><feComposite result="strokeoutline1" in="outsideColor" operator="in"/><feComposite result="strokeoutline2" in="strokeoutline1" in2="SourceAlpha" operator="out"/><feGaussianBlur in="strokeoutline2" result="strokeblur" stdDeviation="1"/>
</filter>
<style>
.spawningMap-very-common { fill: #0F0;}
.spawningMap-common { fill: #B2FF00;}
.spawningMap-uncommon { fill: #FF0;}
.spawningMap-very-uncommon { fill: #FC0;}
.spawningMap-rare { fill: #F60;}
.spawningMap-very-rare { fill: #F00; }.spawning-map-point {stroke:black; stroke-width:1;}
</style>
</defs>
<g filter="url(#blur)" opacity="0.7">
<g class="spawningMap-uncommon"><rect x="131" y="270" width="12" height="11" /><rect x="27" y="28" width="12" height="11" /><rect x="144" y="15" width="12" height="11" /><rect x="234" y="244" width="12" height="11" /><rect x="247" y="244" width="12" height="11" /><rect x="260" y="244" width="12" height="11" /><rect x="260" y="231" width="12" height="12" /><rect x="273" y="231" width="12" height="12" /><rect x="273" y="244" width="12" height="11" /><rect x="286" y="231" width="12" height="12" /><rect x="286" y="218" width="12" height="12" /><rect x="273" y="218" width="12" height="12" /><rect x="157" y="15" width="12" height="11" /><rect x="273" y="206" width="12" height="11" /><rect x="286" y="206" width="12" height="11" /><rect x="286" y="193" width="12" height="11" /><rect x="273" y="193" width="12" height="11" /><rect x="286" y="180" width="12" height="12" /><rect x="170" y="15" width="12" height="11" /><rect x="286" y="168" width="12" height="11" /><rect x="273" y="168" width="12" height="11" /><rect x="286" y="155" width="12" height="11" /><rect x="286" y="142" width="12" height="12" /><rect x="273" y="129" width="12" height="12" /><rect x="183" y="15" width="12" height="11" /><rect x="286" y="129" width="12" height="12" /><rect x="286" y="116" width="12" height="12" /><rect x="273" y="116" width="12" height="12" /><rect x="273" y="104" width="12" height="11" /><rect x="286" y="104" width="12" height="11" /><rect x="286" y="91" width="12" height="12" /><rect x="273" y="91" width="12" height="12" /><rect x="273" y="79" width="12" height="11" /><rect x="286" y="79" width="12" height="11" /><rect x="286" y="66" width="12" height="11" /><rect x="105" y="257" width="12" height="11" /><rect x="105" y="270" width="12" height="11" /><rect x="92" y="270" width="12" height="11" /><rect x="92" y="257" width="12" height="11" /><rect x="92" y="244" width="12" height="11" /><rect x="66" y="257" width="12" height="11" /><rect x="79" y="257" width="12" height="11" /><rect x="79" y="270" width="12" height="11" /><rect x="66" y="270" width="12" height="11" /><rect x="66" y="282" width="12" height="12" /><rect x="53" y="282" width="12" height="12" /><rect x="40" y="282" width="12" height="12" /><rect x="27" y="257" width="12" height="11" /><rect x="196" y="28" width="11" height="11" /><rect x="27" y="270" width="12" height="11" /><rect x="15" y="257" width="11" height="11" /><rect x="15" y="244" width="11" height="11" /><rect x="15" y="231" width="11" height="12" /><rect x="15" y="218" width="11" height="12" /><rect x="15" y="206" width="11" height="11" /><rect x="15" y="193" width="11" height="11" /><rect x="15" y="180" width="11" height="12" /><rect x="209" y="28" width="11" height="11" /><rect x="15" y="168" width="11" height="11" /><rect x="15" y="155" width="11" height="11" /><rect x="15" y="142" width="11" height="12" /><rect x="27" y="142" width="12" height="12" /><rect x="27" y="129" width="12" height="12" /><rect x="15" y="129" width="11" height="12" /><rect x="15" y="117" width="11" height="11" /><rect x="28" y="104" width="11" height="11" /><rect x="15" y="104" width="11" height="11" /><rect x="28" y="91" width="11" height="12" /><rect x="15" y="91" width="11" height="12" /><rect x="15" y="78" width="11" height="12" /><rect x="28" y="66" width="11" height="11" /><rect x="40" y="28" width="12" height="11" /><rect x="14" y="66" width="12" height="11" /><rect x="14" y="53" width="12" height="11" /><rect x="14" y="40" width="12" height="12" /><rect x="234" y="40" width="12" height="12" /><rect x="14" y="28" width="12" height="11" /><rect x="247" y="40" width="12" height="12" /><rect x="247" y="28" width="12" height="11" /><rect x="286" y="28" width="12" height="11" /><rect x="260" y="15" width="12" height="11" /><rect x="273" y="15" width="12" height="11" /><rect x="273" y="28" width="12" height="11" /><rect x="53" y="28" width="12" height="11" /><rect x="286" y="40" width="12" height="12" /><rect x="273" y="40" width="12" height="12" /><rect x="273" y="53" width="12" height="11" /><rect x="286" y="53" width="12" height="11" /><rect x="260" y="53" width="12" height="11" /><rect x="15" y="269" width="12" height="11" /><rect x="247" y="53" width="12" height="11" /><rect x="234" y="53" width="12" height="11" /><rect x="260" y="40" width="12" height="12" /><rect x="66" y="28" width="12" height="11" /><rect x="79" y="28" width="12" height="11" /><rect x="105" y="244" width="12" height="11" /><rect x="118" y="270" width="12" height="11" /><rect x="105" y="28" width="12" height="11" /><rect x="118" y="15" width="12" height="11" /><rect x="131" y="15" width="12" height="11" /><rect x="183" y="270" width="12" height="11" /><rect x="196" y="270" width="11" height="11" /><rect x="209" y="270" width="11" height="11" /><rect x="221" y="257" width="12" height="11" /><rect x="221" y="244" width="12" height="11" /><rect x="248" y="134" width="23" height="16" />
</g>
<g class="spawningMap-common"><rect x="16" y="171" width="17" height="24" /><rect x="34" y="171" width="21" height="24" />
</g>
<g class="spawningMap-very-common"><rect x="170" y="2" width="12" height="11" /><rect x="183" y="2" width="12" height="12" /><rect x="196" y="2" width="12" height="11" /><rect x="209" y="2" width="12" height="12" /><rect x="196" y="15" width="11" height="11" /><rect x="286" y="257" width="12" height="11" /><rect x="273" y="257" width="12" height="11" /><rect x="260" y="257" width="12" height="11" /><rect x="221" y="269" width="12" height="12" /><rect x="221" y="282" width="12" height="12" /><rect x="209" y="282" width="11" height="12" /><rect x="2" y="53" width="12" height="11" /><rect x="2" y="66" width="11" height="11" /><rect x="53" y="2" width="12" height="11" /><rect x="40" y="2" width="12" height="11" /><rect x="2" y="282" width="11" height="11" /><rect x="273" y="257" width="12" height="11" /><rect x="248" y="257" width="11" height="11" /><rect x="248" y="270" width="11" height="11" /><rect x="235" y="282" width="11" height="12" /><rect x="247" y="282" width="12" height="12" /><rect x="260" y="282" width="12" height="12" /><rect x="273" y="282" width="12" height="12" /><rect x="273" y="269" width="12" height="12" /><rect x="260" y="269" width="12" height="12" /><rect x="14" y="15" width="12" height="11" /><rect x="27" y="15" width="12" height="11" /><rect x="40" y="15" width="12" height="11" /><rect x="53" y="15" width="12" height="11" /><rect x="66" y="15" width="12" height="11" /><rect x="79" y="15" width="12" height="11" /><rect x="92" y="15" width="12" height="11" /><rect x="105" y="15" width="12" height="11" /><rect x="247" y="15" width="12" height="11" /><rect x="118" y="2" width="12" height="11" /><rect x="131" y="2" width="12" height="12" /><rect x="144" y="2" width="12" height="11" /><rect x="157" y="2" width="12" height="12" /><rect x="221" y="2" width="12" height="11" /><rect x="234" y="2" width="12" height="12" /><rect x="247" y="2" width="12" height="11" /><rect x="260" y="2" width="12" height="12" /><rect x="66" y="2" width="12" height="11" /><rect x="79" y="2" width="12" height="12" /><rect x="92" y="2" width="12" height="11" /><rect x="105" y="2" width="12" height="12" /><rect x="273" y="2" width="12" height="11" /><rect x="286" y="2" width="12" height="11" /><rect x="286" y="15" width="12" height="11" /><rect x="157" y="282" width="12" height="12" /><rect x="170" y="282" width="12" height="12" /><rect x="183" y="282" width="12" height="12" /><rect x="196" y="282" width="11" height="12" /><rect x="235" y="269" width="11" height="12" /><rect x="235" y="256" width="11" height="12" /><rect x="105" y="282" width="12" height="12" /><rect x="118" y="282" width="12" height="12" /><rect x="131" y="282" width="12" height="12" /><rect x="144" y="282" width="12" height="12" /><rect x="80" y="282" width="11" height="11" /><rect x="93" y="282" width="11" height="12" /><rect x="2" y="230" width="12" height="12" /><rect x="2" y="243" width="11" height="12" /><rect x="2" y="256" width="12" height="12" /><rect x="2" y="269" width="11" height="12" /><rect x="2" y="179" width="12" height="12" /><rect x="2" y="192" width="11" height="12" /><rect x="2" y="205" width="12" height="12" /><rect x="2" y="218" width="11" height="12" /><rect x="2" y="129" width="12" height="12" /><rect x="2" y="142" width="11" height="12" /><rect x="2" y="155" width="12" height="12" /><rect x="2" y="168" width="11" height="12" /><rect x="2" y="77" width="12" height="12" /><rect x="2" y="90" width="11" height="12" /><rect x="2" y="103" width="12" height="12" /><rect x="2" y="116" width="11" height="12" /><rect x="27" y="2" width="12" height="11" /><rect x="14" y="2" width="12" height="11" /><rect x="27" y="282" width="12" height="11" /><rect x="14" y="282" width="12" height="11" /><rect x="2" y="27" width="12" height="12" /><rect x="2" y="40" width="11" height="12" /><rect x="2" y="2" width="12" height="11" /><rect x="2" y="15" width="11" height="11" /><rect x="262" y="137" width="9" height="9" /><rect x="263" y="132" width="14" height="7" />
</g>
</g>
<g class="spawning-map-point" opacity="0.8">
</g>
<g fill="url(#pattern-untameable)" opacity="0.3"><rect x="248" y="134" width="23" height="16"/><rect x="16" y="171" width="17" height="24"/><rect x="34" y="171" width="21" height="24"/><rect x="262" y="137" width="9" height="9"/><rect x="263" y="132" width="14" height="7"/>
</g>
<g filter="url(#groupStroke)" opacity="0.8"><rect x="248" y="134" width="23" height="16"/><rect x="16" y="171" width="17" height="24"/><rect x="34" y="171" width="21" height="24"/><rect x="262" y="137" width="9" height="9"/><rect x="263" y="132" width="14" height="7"/>
</g>
</svg>