<svg xmlns="http://www.w3.org/2000/svg" width="300" height="300" viewBox="0 0 300 300" class="creatureMap" style="position:absolute;">
<defs>
  <filter id="blur" x="-30%" y="-30%" width="160%" height="160%">
    <feGaussianBlur stdDeviation="3" />
</filter>
<pattern id="pattern-untameable" width="10" height="10" patternTransform="rotate(135)" patternUnits="userSpaceOnUse">
<rect width="4" height="10" fill="black"></rect>
</pattern><filter id="groupStroke"><feFlood result="outsideColor" flood-color="black"/><feMorphology in="SourceAlpha" operator="dilate" radius="2"/><feComposite result="strokeoutline1" in="outsideColor" operator="in"/><feComposite result="strokeoutline2" in="strokeoutline1" in2="SourceAlpha" operator="out"/><feGaussianBlur in="strokeoutline2" result="strokeblur" stdDeviation="1"/></filter><style>.spawningMap-very-common { fill: #0F0;}.spawningMap-common { fill: #B2FF00;}.spawningMap-uncommon { fill: #FF0;}.spawningMap-very-uncommon { fill: #FC0;}.spawningMap-rare { fill: #F60;}.spawningMap-very-rare { fill: #F00; }.spawning-map-point {stroke:black; stroke-width:1;}</style></defs>
<g filter="url(#blur)" opacity="0.7"><g class="spawningMap-very-common"><rect x="241" y="228" width="12" height="12" /><rect x="205" y="243" width="11" height="12" /><rect x="219" y="258" width="12" height="11" /><rect x="264" y="265" width="11" height="12" /><rect x="234" y="265" width="12" height="12" /><rect x="227" y="265" width="11" height="12" /><rect x="219" y="273" width="12" height="11" /><rect x="212" y="273" width="11" height="11" /><rect x="234" y="284" width="12" height="12" /><rect x="278" y="243" width="12" height="12" /><rect x="278" y="221" width="12" height="12" /><rect x="271" y="250" width="11" height="12" /><rect x="271" y="228" width="11" height="12" /><rect x="271" y="206" width="11" height="12" /><rect x="256" y="243" width="12" height="12" /><rect x="249" y="280" width="11" height="11" /><rect x="227" y="280" width="11" height="11" /><rect x="256" y="284" width="12" height="12" /></g></g>
</svg>