<svg xmlns="http://www.w3.org/2000/svg" width="300" height="300" viewBox="0 0 300 300" class="creatureMap" style="position:absolute;">
<defs>
<filter id="blur" x="-30%" y="-30%" width="160%" height="160%"><feGaussianBlur stdDeviation="3" />
</filter>
<pattern id="pattern-untameable" width="10" height="10" patternTransform="rotate(135)" patternUnits="userSpaceOnUse"><rect width="4" height="10" fill="black"></rect>
</pattern>
<filter id="groupStroke"><feFlood result="outsideColor" flood-color="black"/><feMorphology in="SourceAlpha" operator="dilate" radius="2"/><feComposite result="strokeoutline1" in="outsideColor" operator="in"/><feComposite result="strokeoutline2" in="strokeoutline1" in2="SourceAlpha" operator="out"/><feGaussianBlur in="strokeoutline2" result="strokeblur" stdDeviation="1"/>
</filter>
<style>
.spawningMap-very-common { fill: #0F0;}
.spawningMap-common { fill: #B2FF00;}
.spawningMap-uncommon { fill: #FF0;}
.spawningMap-very-uncommon { fill: #FC0;}
.spawningMap-rare { fill: #F60;}
.spawningMap-very-rare { fill: #F00; }.spawning-map-point {stroke:black; stroke-width:1;}
</style>
</defs>
<g filter="url(#blur)" opacity="0.7">
<g class="spawningMap-uncommon"><rect x="115" y="210" width="23" height="15" />
</g>
</g>
<g class="spawning-map-point" opacity="0.8">
<g class="spawningMap-very-uncommon"><circle cx="124" cy="199" r="4" /><circle cx="130" cy="195" r="4" /><circle cx="131" cy="194" r="4" /><circle cx="131" cy="196" r="4" /><circle cx="126" cy="196" r="4" />
</g>
<g class="spawningMap-uncommon"><circle cx="200" cy="79" r="4" /><circle cx="209" cy="77" r="4" /><circle cx="211" cy="76" r="4" /><circle cx="206" cy="76" r="4" /><circle cx="206" cy="77" r="4" /><circle cx="201" cy="77" r="4" /><circle cx="201" cy="79" r="4" /><circle cx="207" cy="76" r="4" /><circle cx="207" cy="76" r="4" /><circle cx="213" cy="73" r="4" /><circle cx="211" cy="70" r="4" /><circle cx="200" cy="80" r="4" /><circle cx="210" cy="70" r="4" /><circle cx="209" cy="70" r="4" /><circle cx="208" cy="68" r="4" /><circle cx="209" cy="67" r="4" /><circle cx="208" cy="66" r="4" /><circle cx="206" cy="66" r="4" /><circle cx="205" cy="66" r="4" /><circle cx="204" cy="64" r="4" /><circle cx="203" cy="63" r="4" /><circle cx="202" cy="63" r="4" /><circle cx="203" cy="78" r="4" /><circle cx="202" cy="61" r="4" /><circle cx="204" cy="77" r="4" /><circle cx="203" cy="77" r="4" /><circle cx="206" cy="77" r="4" /><circle cx="207" cy="76" r="4" /><circle cx="206" cy="77" r="4" /><circle cx="209" cy="76" r="4" /><circle cx="124" cy="194" r="4" /><circle cx="128" cy="197" r="4" /><circle cx="128" cy="197" r="4" /><circle cx="131" cy="196" r="4" /><circle cx="130" cy="196" r="4" /><circle cx="122" cy="197" r="4" /><circle cx="124" cy="200" r="4" /><circle cx="122" cy="200" r="4" /><circle cx="125" cy="199" r="4" /><circle cx="127" cy="191" r="4" /><circle cx="125" cy="193" r="4" /><circle cx="131" cy="194" r="4" /><circle cx="126" cy="203" r="4" /><circle cx="129" cy="198" r="4" /><circle cx="123" cy="196" r="4" /><circle cx="122" cy="202" r="4" /><circle cx="123" cy="202" r="4" /><circle cx="127" cy="202" r="4" />
</g>
<g class="spawningMap-very-common"><circle cx="120" cy="189" r="4" /><circle cx="120" cy="190" r="4" /><circle cx="120" cy="187" r="4" /><circle cx="121" cy="189" r="4" />
</g>
</g>
</svg>