<?xml version="1.0" encoding="utf-8"?>
<svg xmlns="http://www.w3.org/2000/svg" width="300" height="300"
        viewBox="0 0 300 300" class="creatureMap" style="position:absolute;">
    <defs>
        <filter id="blur" x="-30%" y="-30%" width="160%" height="160%">
            <feGaussianBlur stdDeviation="3" />
        </filter>
        <pattern id="pattern-untameable" width="10" height="10" patternTransform="rotate(135)" patternUnits="userSpaceOnUse">
            <rect width="4" height="10" fill="black"></rect>
        </pattern>
        <filter id="groupStroke">
            <feFlood result="outsideColor" flood-color="black"/>
            <feMorphology in="SourceAlpha" operator="dilate" radius="2"/>
            <feComposite result="strokeoutline1" in="outsideColor" operator="in"/>
            <feComposite result="strokeoutline2" in="strokeoutline1" in2="SourceAlpha" operator="out"/>
            <feGaussianBlur in="strokeoutline2" result="strokeblur" stdDeviation="1"/>
        </filter>
        <style>
            .spawningMap-very-common { fill: #0F0; }
            .spawningMap-common { fill: #B2FF00; }
            .spawningMap-uncommon { fill: #FF0; }
            .spawningMap-very-uncommon { fill: #FC0; }
            .spawningMap-rare { fill: #F60; }
            .spawningMap-very-rare { fill: #F00; }
            .spawning-map-point { stroke:black; stroke-width:1; }
        </style>
    </defs>

<g class="spawning-map-point" opacity="0.8">
<g class="spawningMap-very-uncommon">
<circle cx="36" cy="88" r="4" />
<circle cx="45" cy="88" r="4" />
<circle cx="39" cy="93" r="4" />
<circle cx="51" cy="77" r="4" />
<circle cx="35" cy="72" r="4" />
<circle cx="56" cy="71" r="4" />
<circle cx="61" cy="77" r="4" />
<circle cx="56" cy="89" r="4" />
<circle cx="50" cy="82" r="4" />
<circle cx="29" cy="86" r="4" />
<circle cx="41" cy="102" r="4" />
<circle cx="45" cy="100" r="4" />
<circle cx="39" cy="99" r="4" />
<circle cx="28" cy="106" r="4" />
<circle cx="31" cy="106" r="4" />
<circle cx="42" cy="97" r="4" />
<circle cx="47" cy="98" r="4" />
<circle cx="30" cy="98" r="4" />
<circle cx="242" cy="209" r="4" />
<circle cx="242" cy="208" r="4" />
<circle cx="222" cy="207" r="4" />
<circle cx="223" cy="207" r="4" />
<circle cx="85" cy="72" r="4" />
<circle cx="77" cy="75" r="4" />
<circle cx="83" cy="76" r="4" />
<circle cx="83" cy="82" r="4" />
<circle cx="89" cy="76" r="4" />
<circle cx="87" cy="88" r="4" />
<circle cx="78" cy="94" r="4" />
<circle cx="67" cy="85" r="4" />
<circle cx="64" cy="92" r="4" />
<circle cx="66" cy="76" r="4" />
<circle cx="8" cy="106" r="4" />
<circle cx="9" cy="98" r="4" />
<circle cx="21" cy="105" r="4" />
<circle cx="13" cy="85" r="4" />
<circle cx="21" cy="88" r="4" />
<circle cx="27" cy="84" r="4" />
<circle cx="10" cy="87" r="4" />
<circle cx="26" cy="101" r="4" />
<circle cx="27" cy="95" r="4" />
<circle cx="26" cy="79" r="4" />
</g>
</g>
</svg>