<svg xmlns="http://www.w3.org/2000/svg" width="300" height="300" viewBox="0 0 300 300" class="creatureMap" style="position:absolute;">
<defs>
<filter id="blur" x="-30%" y="-30%" width="160%" height="160%"><feGaussianBlur stdDeviation="3" />
</filter>
<pattern id="pattern-untameable" width="10" height="10" patternTransform="rotate(135)" patternUnits="userSpaceOnUse"><rect width="4" height="10" fill="black"></rect>
</pattern>
<filter id="groupStroke"><feFlood result="outsideColor" flood-color="black"/><feMorphology in="SourceAlpha" operator="dilate" radius="2"/><feComposite result="strokeoutline1" in="outsideColor" operator="in"/><feComposite result="strokeoutline2" in="strokeoutline1" in2="SourceAlpha" operator="out"/><feGaussianBlur in="strokeoutline2" result="strokeblur" stdDeviation="1"/>
</filter>
<style>
.spawningMap-very-common { fill: #0F0;}
.spawningMap-common { fill: #B2FF00;}
.spawningMap-uncommon { fill: #FF0;}
.spawningMap-very-uncommon { fill: #FC0;}
.spawningMap-rare { fill: #F60;}
.spawningMap-very-rare { fill: #F00; }.spawning-map-point {stroke:black; stroke-width:1;}
</style>
</defs>
<g filter="url(#blur)" opacity="0.7">
<g class="spawningMap-common"><rect x="257" y="40" width="10" height="10" /><rect x="268" y="40" width="10" height="10" /><rect x="257" y="61" width="10" height="10" /><rect x="268" y="61" width="10" height="10" /><rect x="268" y="73" width="10" height="10" /><rect x="40" y="186" width="10" height="11" /><rect x="50" y="186" width="11" height="11" /><rect x="26" y="219" width="10" height="11" /><rect x="15" y="219" width="10" height="11" /><rect x="26" y="241" width="10" height="10" /><rect x="15" y="241" width="10" height="10" /><rect x="26" y="252" width="10" height="11" /><rect x="15" y="252" width="10" height="11" /><rect x="26" y="274" width="10" height="10" /><rect x="150" y="101" width="11" height="10" /><rect x="162" y="101" width="10" height="10" /><rect x="184" y="100" width="11" height="10" /><rect x="196" y="100" width="10" height="10" /><rect x="207" y="100" width="11" height="10" /><rect x="219" y="100" width="10" height="10" /><rect x="230" y="100" width="10" height="10" /><rect x="184" y="111" width="11" height="11" /><rect x="196" y="111" width="10" height="11" /><rect x="207" y="111" width="11" height="11" /><rect x="219" y="111" width="10" height="11" /><rect x="230" y="111" width="10" height="11" /><rect x="184" y="122" width="11" height="10" /><rect x="196" y="122" width="10" height="10" /><rect x="207" y="122" width="11" height="10" /><rect x="219" y="122" width="10" height="10" /><rect x="230" y="122" width="10" height="10" /><rect x="184" y="134" width="11" height="10" /><rect x="196" y="134" width="10" height="10" /><rect x="207" y="134" width="11" height="10" /><rect x="219" y="134" width="10" height="10" /><rect x="230" y="134" width="10" height="10" /><rect x="184" y="145" width="11" height="10" /><rect x="196" y="145" width="10" height="10" /><rect x="207" y="145" width="11" height="10" /><rect x="219" y="145" width="10" height="10" /><rect x="230" y="145" width="10" height="10" /><rect x="162" y="145" width="10" height="10" /><rect x="162" y="134" width="10" height="10" /><rect x="219" y="179" width="10" height="10" /><rect x="230" y="168" width="10" height="10" /><rect x="245" y="99" width="11" height="11" /><rect x="162" y="179" width="10" height="10" /><rect x="109" y="168" width="11" height="10" /><rect x="109" y="156" width="11" height="11" /><rect x="122" y="190" width="10" height="10" /><rect x="122" y="201" width="10" height="11" /><rect x="122" y="212" width="10" height="11" /><rect x="76" y="190" width="11" height="10" /><rect x="76" y="201" width="11" height="11" /><rect x="76" y="212" width="11" height="11" /><rect x="65" y="209" width="10" height="10" /><rect x="57" y="219" width="7" height="10" /><rect x="122" y="235" width="10" height="11" /><rect x="88" y="258" width="10" height="10" /><rect x="99" y="258" width="10" height="10" /><rect x="110" y="258" width="11" height="10" /><rect x="156" y="224" width="10" height="10" /><rect x="190" y="224" width="10" height="10" /><rect x="235" y="201" width="10" height="10" /><rect x="201" y="280" width="10" height="11" /><rect x="178" y="269" width="11" height="10" /><rect x="201" y="235" width="11" height="11" /><rect x="224" y="258" width="10" height="10" /><rect x="212" y="280" width="11" height="11" /><rect x="212" y="246" width="11" height="11" /><rect x="212" y="280" width="11" height="11" /><rect x="150" y="122" width="11" height="10" /><rect x="150" y="134" width="11" height="10" /><rect x="150" y="112" width="11" height="10" /><rect x="162" y="111" width="10" height="10" /><rect x="212" y="246" width="11" height="11" /><rect x="173" y="134" width="11" height="10" /><rect x="173" y="122" width="11" height="10" /><rect x="173" y="111" width="11" height="10" /><rect x="156" y="190" width="10" height="10" /><rect x="246" y="258" width="11" height="10" /><rect x="173" y="145" width="11" height="10" /><rect x="173" y="168" width="11" height="10" /><rect x="184" y="156" width="11" height="11" /><rect x="184" y="168" width="11" height="10" /><rect x="184" y="179" width="11" height="10" /><rect x="196" y="156" width="10" height="11" /><rect x="196" y="168" width="10" height="10" /><rect x="196" y="179" width="10" height="10" /><rect x="207" y="156" width="11" height="11" /><rect x="207" y="168" width="11" height="10" /><rect x="207" y="179" width="11" height="10" /><rect x="219" y="156" width="10" height="11" /><rect x="219" y="168" width="10" height="10" /><rect x="230" y="156" width="10" height="11" /><rect x="245" y="156" width="11" height="11" /><rect x="245" y="145" width="11" height="10" /><rect x="245" y="134" width="11" height="10" /><rect x="245" y="122" width="11" height="10" /><rect x="245" y="111" width="11" height="10" /><rect x="173" y="156" width="11" height="11" /><rect x="162" y="156" width="10" height="11" /><rect x="162" y="168" width="10" height="10" /><rect x="150" y="168" width="11" height="10" /><rect x="120" y="156" width="11" height="11" /><rect x="120" y="145" width="11" height="10" /><rect x="109" y="145" width="11" height="10" /><rect x="98" y="145" width="10" height="10" /><rect x="98" y="156" width="10" height="11" /><rect x="98" y="168" width="10" height="10" /><rect x="98" y="179" width="10" height="10" /><rect x="86" y="179" width="11" height="10" /><rect x="86" y="168" width="11" height="10" /><rect x="86" y="156" width="11" height="11" /><rect x="75" y="168" width="11" height="10" /><rect x="143" y="139" width="11" height="10" /><rect x="120" y="168" width="11" height="10" /><rect x="144" y="190" width="11" height="10" /><rect x="162" y="122" width="10" height="10" /><rect x="144" y="201" width="11" height="11" /><rect x="144" y="212" width="11" height="11" /><rect x="144" y="224" width="11" height="10" /><rect x="133" y="212" width="10" height="11" /><rect x="133" y="201" width="10" height="11" /><rect x="133" y="190" width="10" height="10" /><rect x="133" y="178" width="10" height="11" /><rect x="122" y="178" width="10" height="11" /><rect x="110" y="178" width="11" height="11" /><rect x="110" y="190" width="11" height="10" /><rect x="110" y="201" width="11" height="11" /><rect x="110" y="212" width="11" height="11" /><rect x="110" y="224" width="11" height="10" /><rect x="99" y="190" width="10" height="10" /><rect x="99" y="201" width="10" height="11" /><rect x="99" y="212" width="10" height="11" /><rect x="99" y="224" width="10" height="10" /><rect x="88" y="190" width="10" height="10" /><rect x="88" y="201" width="10" height="11" /><rect x="88" y="212" width="10" height="11" /><rect x="88" y="224" width="10" height="10" /><rect x="76" y="224" width="11" height="10" /><rect x="65" y="220" width="10" height="11" /><rect x="76" y="235" width="11" height="11" /><rect x="76" y="246" width="11" height="11" /><rect x="88" y="240" width="10" height="6" /><rect x="99" y="235" width="10" height="11" /><rect x="110" y="235" width="11" height="11" /><rect x="88" y="246" width="10" height="11" /><rect x="99" y="246" width="10" height="11" /><rect x="110" y="246" width="11" height="11" /><rect x="122" y="246" width="10" height="11" /><rect x="122" y="258" width="10" height="10" /><rect x="133" y="252" width="9" height="11" /><rect x="132" y="142" width="10" height="10" /><rect x="156" y="201" width="10" height="11" /><rect x="156" y="212" width="10" height="11" /><rect x="167" y="190" width="10" height="10" /><rect x="167" y="201" width="10" height="11" /><rect x="167" y="212" width="10" height="11" /><rect x="167" y="224" width="10" height="10" /><rect x="178" y="190" width="11" height="10" /><rect x="178" y="201" width="11" height="11" /><rect x="178" y="212" width="11" height="11" /><rect x="178" y="224" width="11" height="10" /><rect x="190" y="190" width="10" height="10" /><rect x="190" y="212" width="10" height="11" /><rect x="201" y="190" width="10" height="10" /><rect x="201" y="201" width="10" height="11" /><rect x="201" y="212" width="10" height="11" /><rect x="212" y="212" width="11" height="11" /><rect x="227" y="190" width="7" height="10" /><rect x="235" y="212" width="10" height="11" /><rect x="246" y="212" width="11" height="11" /><rect x="235" y="224" width="10" height="10" /><rect x="246" y="224" width="11" height="10" /><rect x="235" y="235" width="10" height="10" /><rect x="246" y="235" width="11" height="10" /><rect x="235" y="246" width="10" height="11" /><rect x="246" y="246" width="11" height="11" /><rect x="246" y="269" width="11" height="10" /><rect x="235" y="258" width="10" height="10" /><rect x="235" y="269" width="10" height="10" /><rect x="235" y="280" width="10" height="11" /><rect x="235" y="292" width="10" height="8" /><rect x="224" y="269" width="10" height="10" /><rect x="224" y="280" width="10" height="11" /><rect x="224" y="292" width="10" height="8" /><rect x="212" y="258" width="11" height="10" /><rect x="201" y="258" width="10" height="10" /><rect x="201" y="269" width="10" height="10" /><rect x="190" y="269" width="10" height="10" /><rect x="178" y="258" width="11" height="10" /><rect x="175" y="246" width="8" height="11" /><rect x="172" y="235" width="11" height="11" /><rect x="224" y="246" width="10" height="11" /><rect x="201" y="246" width="11" height="11" /><rect x="224" y="224" width="10" height="10" /><rect x="224" y="258" width="10" height="10" />
</g>
<g class="spawningMap-very-common"><rect x="211" y="165" width="1" height="1" /><rect x="212" y="164" width="0" height="1" /><rect x="212" y="164" width="1" height="0" /><rect x="210" y="159" width="2" height="2" /><rect x="210" y="157" width="0" height="1" /><rect x="211" y="154" width="2" height="1" /><rect x="216" y="152" width="2" height="2" /><rect x="217" y="150" width="1" height="2" /><rect x="217" y="157" width="2" height="1" /><rect x="218" y="153" width="1" height="2" /><rect x="212" y="161" width="2" height="1" /><rect x="212" y="160" width="2" height="2" /><rect x="214" y="161" width="2" height="2" /><rect x="214" y="156" width="1" height="1" /><rect x="217" y="156" width="0" height="1" /><rect x="211" y="157" width="1" height="1" /><rect x="223" y="165" width="1" height="1" /><rect x="222" y="165" width="1" height="1" /><rect x="222" y="165" width="1" height="0" /><rect x="222" y="164" width="1" height="0" /><rect x="221" y="163" width="1" height="1" /><rect x="221" y="162" width="1" height="1" /><rect x="222" y="162" width="1" height="0" /><rect x="226" y="162" width="0" height="0" /><rect x="227" y="161" width="0" height="1" /><rect x="227" y="161" width="1" height="1" /><rect x="229" y="161" width="0" height="1" /><rect x="229" y="162" width="0" height="1" /><rect x="228" y="162" width="0" height="1" /><rect x="227" y="163" width="0" height="0" /><rect x="227" y="163" width="0" height="1" /><rect x="227" y="164" width="1" height="1" /><rect x="226" y="165" width="1" height="1" /><rect x="225" y="165" width="1" height="1" /><rect x="229" y="150" width="1" height="1" /><rect x="215" y="147" width="1" height="1" /><rect x="215" y="148" width="1" height="0" /><rect x="215" y="148" width="1" height="1" /><rect x="214" y="149" width="1" height="1" /><rect x="214" y="150" width="1" height="1" /><rect x="213" y="153" width="1" height="1" /><rect x="203" y="18" width="10" height="10" /><rect x="213" y="18" width="11" height="10" /><rect x="224" y="18" width="10" height="10" /><rect x="235" y="18" width="10" height="10" /><rect x="246" y="18" width="10" height="10" /><rect x="257" y="18" width="10" height="10" /><rect x="268" y="18" width="10" height="10" /><rect x="279" y="18" width="10" height="10" /><rect x="213" y="28" width="11" height="11" /><rect x="224" y="28" width="10" height="11" /><rect x="235" y="28" width="10" height="11" /><rect x="246" y="28" width="10" height="11" /><rect x="257" y="28" width="10" height="11" /><rect x="268" y="28" width="10" height="11" /><rect x="279" y="28" width="10" height="11" /><rect x="213" y="40" width="11" height="10" /><rect x="224" y="40" width="10" height="10" /><rect x="235" y="40" width="10" height="10" /><rect x="246" y="40" width="10" height="10" /><rect x="279" y="40" width="10" height="10" /><rect x="213" y="50" width="11" height="11" /><rect x="224" y="50" width="10" height="11" /><rect x="235" y="50" width="10" height="11" /><rect x="246" y="50" width="10" height="11" /><rect x="257" y="50" width="10" height="11" /><rect x="268" y="50" width="10" height="11" /><rect x="279" y="50" width="10" height="11" /><rect x="213" y="61" width="11" height="10" /><rect x="235" y="61" width="10" height="10" /><rect x="246" y="61" width="10" height="10" /><rect x="279" y="61" width="10" height="10" /><rect x="268" y="83" width="10" height="11" /><rect x="257" y="83" width="10" height="11" /><rect x="257" y="73" width="10" height="10" /><rect x="246" y="73" width="10" height="10" /><rect x="47" y="18" width="10" height="10" /><rect x="47" y="28" width="10" height="11" /><rect x="47" y="39" width="10" height="10" /><rect x="145" y="273" width="1" height="1" /><rect x="143" y="277" width="1" height="2" /><rect x="144" y="274" width="1" height="1" /><rect x="144" y="275" width="0" height="1" /><rect x="143" y="272" width="1" height="0" /><rect x="143" y="272" width="0" height="2" /><rect x="142" y="274" width="1" height="1" /><rect x="141" y="275" width="1" height="1" /><rect x="140" y="275" width="1" height="1" /><rect x="139" y="276" width="1" height="1" /><rect x="137" y="277" width="2" height="3" /><rect x="134" y="277" width="2" height="3" /><rect x="134" y="281" width="4" height="3" /><rect x="134" y="284" width="1" height="3" /><rect x="136" y="286" width="1" height="1" /><rect x="134" y="287" width="2" height="2" /><rect x="134" y="289" width="2" height="2" /><rect x="132" y="291" width="2" height="1" /><rect x="136" y="290" width="2" height="2" /><rect x="139" y="286" width="2" height="2" /><rect x="144" y="285" width="2" height="1" /><rect x="143" y="285" width="1" height="1" /><rect x="144" y="288" width="2" height="1" /><rect x="146" y="289" width="2" height="2" /><rect x="146" y="288" width="2" height="1" /><rect x="146" y="286" width="2" height="2" /><rect x="148" y="290" width="2" height="1" /><rect x="148" y="288" width="2" height="1" /><rect x="148" y="286" width="1" height="2" /><rect x="143" y="292" width="1" height="2" /><rect x="142" y="294" width="1" height="1" /><rect x="143" y="294" width="2" height="1" /><rect x="142" y="295" width="2" height="2" /><rect x="142" y="297" width="2" height="2" /><rect x="147" y="296" width="2" height="2" /><rect x="147" y="298" width="2" height="1" /><rect x="145" y="299" width="2" height="1" /><rect x="144" y="300" width="2" height="0" /><rect x="144" y="302" width="2" height="-2" /><rect x="148" y="303" width="1" height="-3" /><rect x="149" y="304" width="2" height="-4" /><rect x="151" y="304" width="2" height="-4" /><rect x="152" y="302" width="2" height="-2" /><rect x="154" y="301" width="2" height="-1" /><rect x="154" y="300" width="2" height="0" /><rect x="154" y="298" width="2" height="2" /><rect x="156" y="298" width="2" height="1" /><rect x="156" y="296" width="1" height="1" /><rect x="154" y="295" width="2" height="1" /><rect x="152" y="298" width="2" height="1" /><rect x="152" y="296" width="2" height="2" /><rect x="150" y="296" width="2" height="2" /><rect x="151" y="294" width="1" height="2" /><rect x="150" y="293" width="2" height="1" /><rect x="150" y="291" width="2" height="1" /><rect x="151" y="289" width="1" height="2" /><rect x="134" y="293" width="2" height="1" /><rect x="135" y="295" width="1" height="1" /><rect x="135" y="296" width="1" height="1" /><rect x="149" y="300" width="2" height="0" /><rect x="154" y="295" width="2" height="2" /><rect x="36" y="39" width="10" height="10" /><rect x="25" y="39" width="10" height="10" /><rect x="25" y="28" width="10" height="11" /><rect x="36" y="28" width="10" height="11" /><rect x="36" y="17" width="10" height="10" /><rect x="25" y="17" width="10" height="10" /><rect x="36" y="12" width="10" height="4" /><rect x="51" y="175" width="10" height="10" /><rect x="40" y="175" width="10" height="10" /><rect x="29" y="186" width="10" height="11" /><rect x="50" y="197" width="11" height="10" /><rect x="40" y="197" width="10" height="10" /><rect x="29" y="197" width="10" height="10" /><rect x="37" y="208" width="10" height="10" /><rect x="26" y="208" width="10" height="10" /><rect x="15" y="208" width="10" height="10" /><rect x="37" y="219" width="10" height="11" /><rect x="37" y="230" width="10" height="10" /><rect x="26" y="230" width="10" height="10" /><rect x="15" y="230" width="10" height="10" /><rect x="37" y="241" width="10" height="10" /><rect x="37" y="252" width="10" height="11" /><rect x="37" y="263" width="10" height="10" /><rect x="26" y="263" width="10" height="10" /><rect x="15" y="263" width="10" height="10" /><rect x="4" y="263" width="10" height="10" /><rect x="4" y="252" width="10" height="11" /><rect x="48" y="252" width="10" height="11" /><rect x="48" y="263" width="10" height="10" /><rect x="37" y="274" width="10" height="10" /><rect x="48" y="274" width="10" height="11" /><rect x="48" y="241" width="10" height="11" /><rect x="64" y="41" width="4" height="2" /><rect x="109" y="136" width="11" height="8" /><rect x="80" y="179" width="6" height="10" /><rect x="73" y="250" width="2" height="2" /><rect x="163" y="190" width="3" height="5" /><rect x="212" y="201" width="5" height="11" /><rect x="235" y="195" width="5" height="5" /><rect x="246" y="280" width="4" height="5" /><rect x="206" y="292" width="5" height="2" /><rect x="218" y="190" width="9" height="6" /><rect x="224" y="219" width="10" height="4" /><rect x="212" y="269" width="11" height="6" /><rect x="258" y="246" width="5" height="11" /><rect x="210" y="168" width="2" height="2" /><rect x="224" y="163" width="2" height="3" /><rect x="229" y="151" width="0" height="2" /><rect x="231" y="151" width="0" height="1" /><rect x="211" y="166" width="1" height="1" /><rect x="212" y="276" width="11" height="3" /><rect x="59" y="46" width="4" height="3" /><rect x="258" y="246" width="5" height="11" /><rect x="173" y="179" width="11" height="4" /><rect x="81" y="156" width="5" height="11" /><rect x="58" y="41" width="2" height="4" /><rect x="230" y="201" width="4" height="10" /><rect x="221" y="292" width="2" height="6" /><rect x="190" y="262" width="10" height="6" /><rect x="230" y="235" width="4" height="11" /><rect x="212" y="190" width="5" height="10" /><rect x="224" y="212" width="8" height="6" /><rect x="63" y="45" width="3" height="3" /><rect x="66" y="43" width="2" height="4" /><rect x="100" y="120" width="10" height="10" /><rect x="111" y="120" width="10" height="10" /><rect x="122" y="120" width="10" height="10" /><rect x="122" y="130" width="10" height="10" /><rect x="133" y="141" width="10" height="10" /><rect x="122" y="141" width="10" height="10" /><rect x="122" y="152" width="10" height="10" /><rect x="122" y="163" width="10" height="9" /><rect x="111" y="163" width="10" height="9" /><rect x="111" y="152" width="10" height="10" /><rect x="111" y="130" width="10" height="10" /><rect x="111" y="141" width="10" height="10" /><rect x="133" y="152" width="10" height="10" /><rect x="144" y="152" width="10" height="10" /><rect x="155" y="152" width="10" height="10" /><rect x="166" y="152" width="10" height="10" /><rect x="166" y="163" width="10" height="9" /><rect x="166" y="173" width="10" height="10" /><rect x="177" y="173" width="10" height="10" /><rect x="177" y="184" width="10" height="9" /><rect x="173" y="195" width="10" height="9" /><rect x="133" y="130" width="10" height="10" /><rect x="173" y="205" width="10" height="10" /><rect x="184" y="205" width="10" height="10" /><rect x="184" y="195" width="10" height="9" /><rect x="195" y="189" width="10" height="10" /><rect x="191" y="179" width="11" height="10" /><rect x="191" y="168" width="11" height="10" /><rect x="188" y="170" width="3" height="10" /><rect x="173" y="216" width="10" height="3" /><rect x="162" y="216" width="10" height="9" /><rect x="162" y="205" width="10" height="10" /><rect x="144" y="130" width="10" height="10" /><rect x="151" y="216" width="10" height="9" /><rect x="140" y="216" width="10" height="9" /><rect x="129" y="216" width="10" height="9" /><rect x="129" y="205" width="10" height="10" /><rect x="140" y="205" width="10" height="10" /><rect x="151" y="205" width="10" height="10" /><rect x="151" y="195" width="10" height="9" /><rect x="151" y="184" width="10" height="9" /><rect x="151" y="173" width="10" height="10" /><rect x="151" y="163" width="10" height="9" /><rect x="144" y="141" width="10" height="10" /><rect x="140" y="163" width="10" height="9" /><rect x="140" y="173" width="10" height="10" /><rect x="140" y="184" width="10" height="9" /><rect x="129" y="184" width="10" height="9" /><rect x="118" y="184" width="10" height="9" /><rect x="107" y="184" width="10" height="9" /><rect x="107" y="195" width="10" height="9" /><rect x="118" y="195" width="10" height="9" /><rect x="129" y="195" width="10" height="9" /><rect x="58" y="36" width="2" height="4" />
</g>
</g>
<g class="spawning-map-point" opacity="0.8">
</g>
<g fill="url(#pattern-untameable)" opacity="0.3"><rect x="257" y="40" width="10" height="10"/><rect x="268" y="40" width="10" height="10"/><rect x="257" y="61" width="10" height="10"/><rect x="268" y="61" width="10" height="10"/><rect x="268" y="73" width="10" height="10"/><rect x="203" y="18" width="10" height="10"/><rect x="213" y="18" width="11" height="10"/><rect x="224" y="18" width="10" height="10"/><rect x="235" y="18" width="10" height="10"/><rect x="246" y="18" width="10" height="10"/><rect x="257" y="18" width="10" height="10"/><rect x="268" y="18" width="10" height="10"/><rect x="279" y="18" width="10" height="10"/><rect x="213" y="28" width="11" height="11"/><rect x="224" y="28" width="10" height="11"/><rect x="235" y="28" width="10" height="11"/><rect x="246" y="28" width="10" height="11"/><rect x="257" y="28" width="10" height="11"/><rect x="268" y="28" width="10" height="11"/><rect x="279" y="28" width="10" height="11"/><rect x="213" y="40" width="11" height="10"/><rect x="224" y="40" width="10" height="10"/><rect x="235" y="40" width="10" height="10"/><rect x="246" y="40" width="10" height="10"/><rect x="279" y="40" width="10" height="10"/><rect x="213" y="50" width="11" height="11"/><rect x="224" y="50" width="10" height="11"/><rect x="235" y="50" width="10" height="11"/><rect x="246" y="50" width="10" height="11"/><rect x="257" y="50" width="10" height="11"/><rect x="268" y="50" width="10" height="11"/><rect x="279" y="50" width="10" height="11"/><rect x="213" y="61" width="11" height="10"/><rect x="235" y="61" width="10" height="10"/><rect x="246" y="61" width="10" height="10"/><rect x="279" y="61" width="10" height="10"/><rect x="268" y="83" width="10" height="11"/><rect x="257" y="83" width="10" height="11"/><rect x="257" y="73" width="10" height="10"/><rect x="246" y="73" width="10" height="10"/><rect x="47" y="18" width="10" height="10"/><rect x="47" y="28" width="10" height="11"/><rect x="47" y="39" width="10" height="10"/><rect x="36" y="39" width="10" height="10"/><rect x="25" y="39" width="10" height="10"/><rect x="25" y="28" width="10" height="11"/><rect x="36" y="28" width="10" height="11"/><rect x="36" y="17" width="10" height="10"/><rect x="25" y="17" width="10" height="10"/><rect x="36" y="12" width="10" height="4"/>
</g>
</svg>