<?xml version="1.0" encoding="utf-8"?>
<svg xmlns="http://www.w3.org/2000/svg" width="300" height="300" viewBox="0 0 300 300" class="creatureMap" style="position:absolute;">
<defs>
    <filter id="blur" x="-30%" y="-30%" width="160%" height="160%">
        <feGaussianBlur stdDeviation="3" />
    </filter>
    <style>
        .spawningMap-very-common { fill: #0F0; }
        .spawningMap-common { fill: #B2FF00; }
        .spawningMap-uncommon { fill: #FF0; }
        .spawningMap-very-uncommon { fill: #FC0; }
        .spawningMap-rare { fill: #F60; }
        .spawningMap-very-rare { fill: #F00; }
        .spawning-map-point { stroke:black; stroke-width:1; }
    </style>
</defs>
<g filter="url(#blur)" opacity="0.7">
    <g class="spawningMap-common">
        <rect x="185" y="243" width="12" height="13" />
        <rect x="177" y="236" width="13" height="13" />
        <rect x="185" y="236" width="12" height="13" />
        <rect x="192" y="236" width="12" height="13" />
        <rect x="177" y="229" width="13" height="13" />
        <rect x="170" y="222" width="13" height="13" />
        <rect x="170" y="215" width="13" height="13" />
        <rect x="177" y="215" width="13" height="13" />
        <rect x="220" y="187" width="13" height="12" />
        <rect x="292" y="187" width="8" height="12" />
        <rect x="213" y="180" width="13" height="12" />
        <rect x="220" y="180" width="13" height="12" />
        <rect x="227" y="180" width="13" height="12" />
        <rect x="242" y="180" width="12" height="12" />
        <rect x="256" y="180" width="12" height="12" />
        <rect x="285" y="180" width="12" height="12" />
        <rect x="292" y="180" width="8" height="12" />
    </g>
    <g class="spawningMap-very-common">
        <rect x="292" y="222" width="8" height="13" />
        <rect x="177" y="208" width="13" height="13" />
        <rect x="177" y="201" width="13" height="13" />
        <rect x="185" y="201" width="12" height="13" />
        <rect x="256" y="201" width="12" height="13" />
        <rect x="185" y="194" width="12" height="12" />
        <rect x="256" y="194" width="12" height="12" />
        <rect x="263" y="194" width="13" height="12" />
        <rect x="185" y="187" width="12" height="12" />
        <rect x="263" y="187" width="13" height="12" />
        <rect x="177" y="180" width="13" height="12" />
        <rect x="177" y="173" width="13" height="12" />
        <rect x="213" y="173" width="13" height="12" />
        <rect x="220" y="173" width="13" height="12" />
        <rect x="227" y="173" width="13" height="12" />
        <rect x="242" y="173" width="12" height="12" />
        <rect x="249" y="173" width="12" height="12" />
        <rect x="256" y="173" width="12" height="12" />
        <rect x="277" y="173" width="13" height="12" />
        <rect x="285" y="173" width="12" height="12" />
        <rect x="177" y="166" width="13" height="12" />
        <rect x="213" y="166" width="13" height="12" />
        <rect x="220" y="166" width="13" height="12" />
        <rect x="249" y="166" width="12" height="12" />
        <rect x="256" y="166" width="12" height="12" />
        <rect x="177" y="159" width="13" height="12" />
        <rect x="213" y="159" width="13" height="12" />
        <rect x="220" y="159" width="13" height="12" />
        <rect x="256" y="159" width="12" height="12" />
        <rect x="263" y="159" width="13" height="12" />
        <rect x="213" y="152" width="13" height="12" />
        <rect x="220" y="152" width="13" height="12" />
        <rect x="256" y="152" width="12" height="12" />
        <rect x="263" y="152" width="13" height="12" />
        <rect x="235" y="42" width="12" height="12" />
        <rect x="242" y="42" width="12" height="12" />
        <rect x="170" y="49" width="13" height="12" />
        <rect x="213" y="49" width="13" height="12" />
        <rect x="220" y="49" width="13" height="12" />
        <rect x="227" y="49" width="13" height="12" />
        <rect x="235" y="49" width="12" height="12" />
        <rect x="277" y="49" width="13" height="12" />
        <rect x="285" y="49" width="12" height="12" />
        <rect x="206" y="56" width="13" height="12" />
        <rect x="213" y="56" width="13" height="12" />
        <rect x="227" y="56" width="13" height="12" />
        <rect x="235" y="56" width="12" height="12" />
        <rect x="242" y="56" width="12" height="12" />
        <rect x="249" y="56" width="12" height="12" />
        <rect x="256" y="56" width="12" height="12" />
        <rect x="199" y="63" width="12" height="12" />
        <rect x="206" y="63" width="13" height="12" />
        <rect x="256" y="63" width="12" height="12" />
        <rect x="263" y="63" width="13" height="12" />
        <rect x="270" y="63" width="13" height="12" />
        <rect x="199" y="70" width="12" height="12" />
        <rect x="277" y="70" width="13" height="12" />
        <rect x="192" y="77" width="12" height="12" />
        <rect x="277" y="77" width="13" height="12" />
        <rect x="192" y="84" width="12" height="12" />
        <rect x="270" y="84" width="13" height="12" />
        <rect x="277" y="84" width="13" height="12" />
        <rect x="192" y="91" width="12" height="12" />
        <rect x="270" y="91" width="13" height="12" />
        <rect x="277" y="91" width="13" height="12" />
        <rect x="177" y="98" width="13" height="12" />
        <rect x="185" y="98" width="12" height="12" />
        <rect x="192" y="98" width="12" height="12" />
        <rect x="213" y="98" width="13" height="12" />
        <rect x="263" y="98" width="13" height="12" />
        <rect x="270" y="98" width="13" height="12" />
        <rect x="192" y="105" width="12" height="13" />
        <rect x="206" y="105" width="13" height="13" />
        <rect x="213" y="105" width="13" height="13" />
        <rect x="220" y="105" width="13" height="13" />
        <rect x="227" y="105" width="13" height="13" />
        <rect x="235" y="105" width="12" height="13" />
        <rect x="242" y="105" width="12" height="13" />
        <rect x="249" y="105" width="12" height="13" />
        <rect x="256" y="105" width="12" height="13" />
        <rect x="270" y="105" width="13" height="13" />
        <rect x="277" y="105" width="13" height="13" />
        <rect x="185" y="112" width="12" height="13" />
        <rect x="192" y="112" width="12" height="13" />
        <rect x="199" y="112" width="12" height="13" />
        <rect x="206" y="112" width="13" height="13" />
        <rect x="213" y="112" width="13" height="13" />
        <rect x="220" y="112" width="13" height="13" />
        <rect x="227" y="112" width="13" height="13" />
        <rect x="235" y="112" width="12" height="13" />
        <rect x="242" y="112" width="12" height="13" />
        <rect x="249" y="112" width="12" height="13" />
        <rect x="256" y="112" width="12" height="13" />
        <rect x="277" y="112" width="13" height="13" />
        <rect x="285" y="112" width="12" height="13" />
        <rect x="177" y="119" width="13" height="13" />
        <rect x="185" y="119" width="12" height="13" />
        <rect x="192" y="119" width="12" height="13" />
        <rect x="199" y="119" width="12" height="13" />
        <rect x="206" y="119" width="13" height="13" />
        <rect x="213" y="119" width="13" height="13" />
        <rect x="220" y="119" width="13" height="13" />
        <rect x="227" y="119" width="13" height="13" />
        <rect x="235" y="119" width="12" height="13" />
        <rect x="242" y="119" width="12" height="13" />
        <rect x="256" y="119" width="12" height="13" />
        <rect x="263" y="119" width="13" height="13" />
        <rect x="277" y="119" width="13" height="13" />
        <rect x="285" y="119" width="12" height="13" />
        <rect x="256" y="126" width="12" height="13" />
        <rect x="263" y="126" width="13" height="13" />
        <rect x="206" y="70" width="13" height="12" />
        <rect x="177" y="152" width="13" height="12" />
        <rect x="185" y="152" width="12" height="12" />
        <rect x="249" y="152" width="12" height="12" />
        <rect x="299" y="152" width="1" height="12" />
        <rect x="220" y="56" width="13" height="12" />
        <rect x="220" y="243" width="13" height="13" />
        <rect x="227" y="243" width="13" height="13" />
        <rect x="235" y="243" width="12" height="13" />
        <rect x="277" y="243" width="13" height="13" />
        <rect x="285" y="243" width="12" height="13" />
        <rect x="292" y="243" width="8" height="13" />
        <rect x="227" y="236" width="13" height="13" />
        <rect x="235" y="236" width="12" height="13" />
        <rect x="277" y="236" width="13" height="13" />
        <rect x="285" y="236" width="12" height="13" />
        <rect x="292" y="236" width="8" height="13" />
        <rect x="227" y="229" width="13" height="13" />
        <rect x="235" y="229" width="12" height="13" />
        <rect x="292" y="229" width="8" height="13" />
        <rect x="235" y="215" width="12" height="13" />
        <rect x="242" y="215" width="12" height="13" />
        <rect x="285" y="215" width="12" height="13" />
        <rect x="292" y="215" width="8" height="13" />
        <rect x="227" y="208" width="13" height="13" />
        <rect x="235" y="208" width="12" height="13" />
        <rect x="242" y="208" width="12" height="13" />
        <rect x="249" y="208" width="12" height="13" />
        <rect x="256" y="208" width="12" height="13" />
        <rect x="285" y="208" width="12" height="13" />
        <rect x="292" y="208" width="8" height="13" />
        <rect x="227" y="201" width="13" height="13" />
        <rect x="235" y="201" width="12" height="13" />
        <rect x="220" y="194" width="13" height="12" />
        <rect x="227" y="194" width="13" height="12" />
        <rect x="235" y="194" width="12" height="12" />
        <rect x="285" y="194" width="12" height="12" />
        <rect x="292" y="194" width="8" height="12" />
        <rect x="227" y="187" width="13" height="12" />
        <rect x="235" y="187" width="12" height="12" />
        <rect x="249" y="159" width="12" height="12" />
        <rect x="192" y="63" width="12" height="12" />
        <rect x="242" y="63" width="12" height="12" />
        <rect x="249" y="63" width="12" height="12" />
        <rect x="285" y="63" width="12" height="12" />
        <rect x="192" y="70" width="12" height="12" />
        <rect x="270" y="70" width="13" height="12" />
        <rect x="285" y="70" width="12" height="12" />
        <rect x="292" y="70" width="8" height="12" />
        <rect x="185" y="77" width="12" height="12" />
        <rect x="270" y="77" width="13" height="12" />
        <rect x="285" y="77" width="12" height="12" />
        <rect x="185" y="84" width="12" height="12" />
        <rect x="185" y="91" width="12" height="12" />
        <rect x="235" y="91" width="12" height="12" />
        <rect x="256" y="91" width="12" height="12" />
        <rect x="263" y="91" width="13" height="12" />
        <rect x="235" y="98" width="12" height="12" />
        <rect x="256" y="98" width="12" height="12" />
        <rect x="277" y="98" width="13" height="12" />
        <rect x="213" y="28" width="13" height="12" />
        <rect x="299" y="105" width="1" height="13" />
        <rect x="170" y="250" width="13" height="13" />
        <rect x="213" y="250" width="13" height="13" />
        <rect x="220" y="250" width="13" height="13" />
        <rect x="227" y="250" width="13" height="13" />
        <rect x="235" y="250" width="12" height="13" />
        <rect x="242" y="250" width="12" height="13" />
        <rect x="249" y="250" width="12" height="13" />
        <rect x="256" y="250" width="12" height="13" />
        <rect x="263" y="250" width="13" height="13" />
        <rect x="270" y="250" width="13" height="13" />
        <rect x="277" y="250" width="13" height="13" />
        <rect x="285" y="250" width="12" height="13" />
        <rect x="292" y="250" width="8" height="13" />
        <rect x="170" y="243" width="13" height="13" />
        <rect x="213" y="243" width="13" height="13" />
        <rect x="242" y="243" width="12" height="13" />
        <rect x="249" y="243" width="12" height="13" />
        <rect x="256" y="243" width="12" height="13" />
        <rect x="170" y="236" width="13" height="13" />
        <rect x="199" y="236" width="12" height="13" />
        <rect x="206" y="236" width="13" height="13" />
        <rect x="213" y="236" width="13" height="13" />
        <rect x="242" y="236" width="12" height="13" />
        <rect x="249" y="236" width="12" height="13" />
        <rect x="256" y="236" width="12" height="13" />
        <rect x="263" y="236" width="13" height="13" />
        <rect x="270" y="236" width="13" height="13" />
        <rect x="299" y="236" width="1" height="13" />
        <rect x="170" y="229" width="13" height="13" />
        <rect x="185" y="229" width="12" height="13" />
        <rect x="192" y="229" width="12" height="13" />
        <rect x="213" y="229" width="13" height="13" />
        <rect x="220" y="229" width="13" height="13" />
        <rect x="256" y="229" width="12" height="13" />
        <rect x="263" y="229" width="13" height="13" />
        <rect x="270" y="229" width="13" height="13" />
        <rect x="185" y="222" width="12" height="13" />
        <rect x="206" y="222" width="13" height="13" />
        <rect x="213" y="222" width="13" height="13" />
        <rect x="220" y="222" width="13" height="13" />
        <rect x="249" y="222" width="12" height="13" />
        <rect x="256" y="222" width="12" height="13" />
        <rect x="185" y="215" width="12" height="13" />
        <rect x="206" y="215" width="13" height="13" />
        <rect x="227" y="215" width="13" height="13" />
        <rect x="249" y="215" width="12" height="13" />
        <rect x="213" y="35" width="13" height="12" />
        <rect x="185" y="208" width="12" height="13" />
        <rect x="192" y="208" width="12" height="13" />
        <rect x="220" y="35" width="13" height="12" />
        <rect x="199" y="208" width="12" height="13" />
        <rect x="213" y="208" width="13" height="13" />
        <rect x="220" y="208" width="13" height="13" />
        <rect x="227" y="35" width="13" height="12" />
        <rect x="192" y="201" width="12" height="13" />
        <rect x="235" y="35" width="12" height="12" />
        <rect x="213" y="201" width="13" height="13" />
        <rect x="220" y="201" width="13" height="13" />
        <rect x="263" y="201" width="13" height="13" />
        <rect x="270" y="201" width="13" height="13" />
        <rect x="277" y="201" width="13" height="13" />
        <rect x="170" y="194" width="13" height="12" />
        <rect x="177" y="194" width="13" height="12" />
        <rect x="192" y="194" width="12" height="12" />
        <rect x="199" y="194" width="12" height="12" />
        <rect x="206" y="194" width="13" height="12" />
        <rect x="213" y="194" width="13" height="12" />
        <rect x="277" y="194" width="13" height="12" />
        <rect x="170" y="187" width="13" height="12" />
        <rect x="177" y="187" width="13" height="12" />
        <rect x="192" y="187" width="12" height="12" />
        <rect x="199" y="187" width="12" height="12" />
        <rect x="206" y="187" width="13" height="12" />
        <rect x="249" y="187" width="12" height="12" />
        <rect x="277" y="187" width="13" height="12" />
        <rect x="170" y="180" width="13" height="12" />
        <rect x="206" y="180" width="13" height="12" />
        <rect x="235" y="180" width="12" height="12" />
        <rect x="249" y="180" width="12" height="12" />
        <rect x="263" y="180" width="13" height="12" />
        <rect x="170" y="173" width="13" height="12" />
        <rect x="185" y="173" width="12" height="12" />
        <rect x="192" y="173" width="12" height="12" />
        <rect x="235" y="173" width="12" height="12" />
        <rect x="263" y="173" width="13" height="12" />
        <rect x="270" y="173" width="13" height="12" />
        <rect x="292" y="173" width="8" height="12" />
        <rect x="299" y="173" width="1" height="12" />
        <rect x="170" y="166" width="13" height="12" />
        <rect x="185" y="166" width="12" height="12" />
        <rect x="192" y="166" width="12" height="12" />
        <rect x="199" y="166" width="12" height="12" />
        <rect x="206" y="166" width="13" height="12" />
        <rect x="227" y="166" width="13" height="12" />
        <rect x="235" y="166" width="12" height="12" />
        <rect x="242" y="166" width="12" height="12" />
        <rect x="263" y="166" width="13" height="12" />
        <rect x="270" y="166" width="13" height="12" />
        <rect x="285" y="166" width="12" height="12" />
        <rect x="292" y="166" width="8" height="12" />
        <rect x="299" y="166" width="1" height="12" />
        <rect x="185" y="159" width="12" height="12" />
        <rect x="220" y="98" width="13" height="12" />
        <rect x="227" y="98" width="13" height="12" />
        <rect x="299" y="159" width="1" height="12" />
        <rect x="170" y="257" width="13" height="13" />
        <rect x="177" y="257" width="13" height="13" />
        <rect x="235" y="257" width="12" height="13" />
        <rect x="292" y="257" width="8" height="13" />
        <rect x="227" y="42" width="13" height="12" />
        <rect x="206" y="49" width="13" height="12" />
        <rect x="192" y="56" width="12" height="12" />
        <rect x="199" y="56" width="12" height="12" />
    </g></g>
</svg>