<svg xmlns="http://www.w3.org/2000/svg" width="300" height="300" viewBox="0 0 300 300" class="creatureMap" style="position:absolute;">
<defs>
<filter id="blur" x="-30%" y="-30%" width="160%" height="160%"><feGaussianBlur stdDeviation="3" />
</filter>
<pattern id="pattern-untameable" width="10" height="10" patternTransform="rotate(135)" patternUnits="userSpaceOnUse"><rect width="4" height="10" fill="black"></rect>
</pattern>
<filter id="groupStroke"><feFlood result="outsideColor" flood-color="black"/><feMorphology in="SourceAlpha" operator="dilate" radius="2"/><feComposite result="strokeoutline1" in="outsideColor" operator="in"/><feComposite result="strokeoutline2" in="strokeoutline1" in2="SourceAlpha" operator="out"/><feGaussianBlur in="strokeoutline2" result="strokeblur" stdDeviation="1"/>
</filter>
<style>
.spawningMap-very-common { fill: #0F0;}
.spawningMap-common { fill: #B2FF00;}
.spawningMap-uncommon { fill: #FF0;}
.spawningMap-very-uncommon { fill: #FC0;}
.spawningMap-rare { fill: #F60;}
.spawningMap-very-rare { fill: #F00; }.spawning-map-point {stroke:black; stroke-width:1;}
</style>
</defs>
<g filter="url(#blur)" opacity="0.7">
<g class="spawningMap-uncommon"><rect x="54" y="111" width="10" height="11" /><rect x="179" y="65" width="11" height="10" /><rect x="179" y="87" width="11" height="11" /><rect x="121" y="110" width="11" height="11" /><rect x="122" y="76" width="10" height="11" /><rect x="122" y="65" width="10" height="10" /><rect x="133" y="110" width="10" height="11" /><rect x="144" y="99" width="11" height="11" /><rect x="144" y="88" width="11" height="10" /><rect x="156" y="65" width="10" height="11" /><rect x="156" y="76" width="10" height="11" /><rect x="156" y="88" width="10" height="10" /><rect x="167" y="88" width="11" height="10" /><rect x="167" y="76" width="11" height="11" /><rect x="167" y="66" width="11" height="10" /><rect x="144" y="110" width="11" height="11" /><rect x="144" y="65" width="11" height="10" /><rect x="64" y="122" width="11" height="11" /><rect x="144" y="76" width="11" height="10" /><rect x="68" y="53" width="6" height="11" /><rect x="147" y="19" width="11" height="11" /><rect x="158" y="19" width="11" height="11" /><rect x="41" y="111" width="11" height="10" /><rect x="30" y="111" width="11" height="10" /><rect x="19" y="111" width="10" height="10" /><rect x="155" y="42" width="10" height="11" /><rect x="64" y="65" width="10" height="10" /><rect x="75" y="65" width="11" height="10" /><rect x="30" y="122" width="11" height="11" /><rect x="19" y="122" width="10" height="11" /><rect x="105" y="12" width="11" height="10" /><rect x="117" y="12" width="10" height="10" /><rect x="83" y="20" width="10" height="10" /><rect x="75" y="31" width="11" height="10" /><rect x="75" y="42" width="11" height="11" /><rect x="53" y="134" width="10" height="10" /><rect x="75" y="53" width="11" height="11" /><rect x="87" y="53" width="10" height="11" /><rect x="98" y="53" width="11" height="11" /><rect x="109" y="53" width="11" height="11" /><rect x="121" y="53" width="10" height="11" /><rect x="132" y="53" width="11" height="11" /><rect x="143" y="53" width="11" height="11" /><rect x="53" y="156" width="11" height="11" /><rect x="53" y="122" width="10" height="11" /><rect x="147" y="31" width="11" height="10" /><rect x="158" y="31" width="11" height="10" /><rect x="41" y="134" width="11" height="10" /><rect x="65" y="100" width="11" height="10" /><rect x="54" y="100" width="10" height="10" /><rect x="98" y="76" width="11" height="10" /><rect x="110" y="76" width="11" height="10" /><rect x="132" y="65" width="11" height="10" /><rect x="76" y="111" width="10" height="10" /><rect x="76" y="122" width="10" height="11" /><rect x="87" y="122" width="10" height="11" /><rect x="76" y="134" width="10" height="10" /><rect x="76" y="145" width="10" height="10" /><rect x="64" y="145" width="11" height="10" /><rect x="53" y="145" width="10" height="10" /><rect x="98" y="99" width="11" height="11" /><rect x="110" y="87" width="11" height="11" /><rect x="121" y="87" width="11" height="11" /><rect x="121" y="98" width="11" height="11" /><rect x="133" y="98" width="10" height="11" /><rect x="133" y="87" width="10" height="11" /><rect x="133" y="76" width="10" height="10" /><rect x="30" y="134" width="11" height="10" /><rect x="94" y="12" width="10" height="10" /><rect x="143" y="42" width="11" height="11" /><rect x="179" y="76" width="11" height="11" /><rect x="188" y="76" width="10" height="11" /><rect x="188" y="65" width="10" height="10" /><rect x="188" y="54" width="10" height="10" /><rect x="177" y="54" width="11" height="10" /><rect x="166" y="54" width="10" height="10" /><rect x="155" y="54" width="10" height="10" /><rect x="65" y="111" width="11" height="10" /><rect x="19" y="134" width="10" height="10" /><rect x="87" y="111" width="10" height="10" /><rect x="98" y="111" width="11" height="10" /><rect x="110" y="111" width="11" height="10" /><rect x="76" y="99" width="10" height="11" /><rect x="87" y="99" width="10" height="11" /><rect x="41" y="145" width="11" height="10" /><rect x="110" y="99" width="11" height="11" /><rect x="76" y="87" width="10" height="11" /><rect x="87" y="87" width="10" height="11" /><rect x="98" y="87" width="11" height="11" /><rect x="76" y="76" width="10" height="10" /><rect x="87" y="76" width="10" height="10" /><rect x="41" y="122" width="11" height="11" /><rect x="65" y="88" width="11" height="11" />
</g>
<g class="spawningMap-common"><rect x="14" y="134" width="4" height="10" /><rect x="14" y="122" width="4" height="11" />
</g>
</g>
<g class="spawning-map-point" opacity="0.8">
</g>
</svg>