<svg xmlns="http://www.w3.org/2000/svg" width="300" height="300" viewBox="0 0 300 300" class="creatureMap" style="position:absolute;">
<defs>
  <filter id="blur" x="-30%" y="-30%" width="160%" height="160%">
    <feGaussianBlur stdDeviation="3" />
</filter>
<pattern id="pattern-untameable" width="10" height="10" patternTransform="rotate(135)" patternUnits="userSpaceOnUse">
<rect width="4" height="10" fill="black"></rect>
</pattern><filter id="groupStroke"><feFlood result="outsideColor" flood-color="black"/><feMorphology in="SourceAlpha" operator="dilate" radius="2"/><feComposite result="strokeoutline1" in="outsideColor" operator="in"/><feComposite result="strokeoutline2" in="strokeoutline1" in2="SourceAlpha" operator="out"/><feGaussianBlur in="strokeoutline2" result="strokeblur" stdDeviation="1"/></filter><style>.spawningMap-very-common { fill: #0F0;}.spawningMap-common { fill: #B2FF00;}.spawningMap-uncommon { fill: #FF0;}.spawningMap-very-uncommon { fill: #FC0;}.spawningMap-rare { fill: #F60;}.spawningMap-very-rare { fill: #F00; }.spawning-map-point {stroke:black; stroke-width:1;}</style></defs>
<g filter="url(#blur)" opacity="0.7"><g class="spawningMap-common"><rect x="187" y="163" width="11" height="12" /><rect x="187" y="156" width="11" height="11" /><rect x="194" y="163" width="11" height="12" /><rect x="194" y="156" width="11" height="11" /><rect x="201" y="156" width="12" height="11" /><rect x="204" y="148" width="11" height="12" /><rect x="209" y="159" width="11" height="12" /><rect x="211" y="145" width="12" height="11" /><rect x="211" y="137" width="12" height="12" /><rect x="211" y="130" width="12" height="12" /><rect x="218" y="130" width="12" height="12" /><rect x="215" y="123" width="11" height="11" /><rect x="222" y="123" width="12" height="11" /><rect x="212" y="115" width="12" height="12" /><rect x="220" y="115" width="11" height="12" /><rect x="212" y="108" width="12" height="12" /><rect x="165" y="97" width="12" height="12" /><rect x="220" y="108" width="11" height="12" /><rect x="165" y="104" width="12" height="12" /><rect x="109" y="77" width="12" height="11" /><rect x="212" y="101" width="12" height="11" /><rect x="158" y="104" width="11" height="12" /><rect x="158" y="97" width="11" height="12" /><rect x="157" y="154" width="12" height="11" /><rect x="157" y="161" width="12" height="12" /><rect x="165" y="156" width="11" height="11" /><rect x="220" y="101" width="11" height="11" /><rect x="172" y="165" width="11" height="11" /><rect x="172" y="157" width="11" height="12" /><rect x="212" y="93" width="12" height="12" /><rect x="220" y="93" width="11" height="12" /><rect x="220" y="86" width="11" height="12" /><rect x="227" y="86" width="11" height="12" /><rect x="216" y="79" width="11" height="11" /><rect x="223" y="79" width="12" height="11" /><rect x="198" y="90" width="11" height="12" /><rect x="205" y="90" width="11" height="12" /><rect x="195" y="83" width="11" height="12" /><rect x="202" y="83" width="12" height="12" /><rect x="213" y="55" width="11" height="11" /><rect x="220" y="55" width="12" height="11" /><rect x="227" y="57" width="12" height="12" /><rect x="235" y="57" width="11" height="12" /><rect x="194" y="129" width="11" height="11" /><rect x="136" y="135" width="11" height="12" /><rect x="129" y="135" width="11" height="12" /><rect x="136" y="128" width="11" height="12" /><rect x="129" y="128" width="11" height="12" /><rect x="136" y="121" width="11" height="11" /><rect x="136" y="113" width="11" height="12" /><rect x="129" y="121" width="11" height="11" /><rect x="129" y="113" width="11" height="12" /><rect x="121" y="121" width="12" height="11" /><rect x="121" y="106" width="12" height="12" /><rect x="121" y="99" width="12" height="11" /><rect x="114" y="106" width="11" height="12" /><rect x="114" y="99" width="11" height="11" /><rect x="107" y="106" width="11" height="12" /><rect x="107" y="99" width="11" height="11" /><rect x="124" y="91" width="12" height="12" /><rect x="117" y="91" width="11" height="12" /><rect x="102" y="77" width="11" height="11" /><rect x="109" y="69" width="12" height="12" /><rect x="165" y="163" width="11" height="11" /><rect x="172" y="150" width="11" height="11" /><rect x="172" y="142" width="11" height="12" /><rect x="172" y="135" width="11" height="12" /><rect x="179" y="142" width="12" height="12" /><rect x="179" y="135" width="12" height="12" /><rect x="179" y="165" width="12" height="11" /><rect x="179" y="157" width="12" height="12" /><rect x="179" y="150" width="12" height="11" /><rect x="201" y="163" width="12" height="12" /><rect x="196" y="148" width="12" height="12" /><rect x="227" y="101" width="11" height="11" /><rect x="227" y="93" width="11" height="12" /><rect x="205" y="101" width="11" height="11" /><rect x="187" y="129" width="11" height="11" /><rect x="173" y="170" width="11" height="12" /><rect x="121" y="113" width="12" height="12" /><rect x="121" y="128" width="12" height="12" /><rect x="102" y="91" width="11" height="12" /><rect x="102" y="84" width="11" height="12" /><rect x="102" y="69" width="11" height="12" /><rect x="158" y="90" width="11" height="11" /><rect x="158" y="82" width="11" height="12" /><rect x="165" y="90" width="12" height="11" /><rect x="165" y="82" width="12" height="12" /></g></g>
</svg>