<?xml version="1.0" encoding="utf-8"?>
<svg xmlns="http://www.w3.org/2000/svg" width="300" height="300" viewBox="0 0 300 300" class="creatureMap" style="position:absolute;">
<defs>
    <filter id="blur" x="-30%" y="-30%" width="160%" height="160%">
        <feGaussianBlur stdDeviation="3" />
    </filter>
    <style>
        .spawningMap-very-common { fill: #0F0; }
        .spawningMap-common { fill: #B2FF00; }
        .spawningMap-uncommon { fill: #FF0; }
        .spawningMap-very-uncommon { fill: #FC0; }
        .spawningMap-rare { fill: #F60; }
        .spawningMap-very-rare { fill: #F00; }
        .spawning-map-point { stroke:black; stroke-width:1; }
    </style>
</defs>
<g filter="url(#blur)" opacity="0.7">
    <g class="spawningMap-uncommon">
        <rect x="108" y="259" width="11" height="12" />
        <rect x="197" y="236" width="11" height="12" />
        <rect x="130" y="236" width="12" height="12" />
        <rect x="119" y="236" width="11" height="11" />
        <rect x="85" y="271" width="11" height="11" />
        <rect x="79" y="271" width="12" height="11" />
        <rect x="74" y="271" width="11" height="11" />
        <rect x="68" y="271" width="11" height="11" />
        <rect x="62" y="271" width="11" height="11" />
        <rect x="85" y="265" width="11" height="11" />
        <rect x="91" y="259" width="11" height="12" />
        <rect x="91" y="265" width="11" height="11" />
        <rect x="97" y="265" width="11" height="11" />
        <rect x="114" y="254" width="11" height="11" />
        <rect x="114" y="259" width="11" height="12" />
        <rect x="191" y="242" width="11" height="11" />
        <rect x="168" y="242" width="11" height="11" />
        <rect x="245" y="254" width="11" height="11" />
        <rect x="256" y="259" width="11" height="12" />
        <rect x="163" y="242" width="11" height="11" />
        <rect x="157" y="242" width="11" height="11" />
        <rect x="250" y="248" width="12" height="11" />
        <rect x="151" y="242" width="11" height="11" />
        <rect x="145" y="242" width="12" height="11" />
        <rect x="140" y="242" width="11" height="11" />
        <rect x="197" y="242" width="11" height="11" />
        <rect x="102" y="265" width="11" height="11" />
        <rect x="94" y="253" width="11" height="12" />
        <rect x="208" y="242" width="13" height="11" />
        <rect x="125" y="242" width="14" height="11" />
        <rect x="97" y="259" width="11" height="12" />
        <rect x="102" y="259" width="11" height="12" />
        <rect x="202" y="242" width="12" height="11" />
        <rect x="202" y="236" width="12" height="12" />
        <rect x="174" y="242" width="11" height="11" />
        <rect x="185" y="242" width="12" height="11" />
        <rect x="180" y="242" width="11" height="11" />
        <rect x="222" y="248" width="11" height="11" />
        <rect x="233" y="248" width="12" height="11" />
        <rect x="228" y="248" width="11" height="11" />
        <rect x="245" y="259" width="11" height="12" />
        <rect x="250" y="259" width="12" height="12" />
        <rect x="245" y="248" width="11" height="11" />
    </g>
    <g class="spawningMap-common">
        <rect x="79" y="277" width="12" height="8" />
        <rect x="262" y="265" width="11" height="12" />
        <rect x="267" y="237" width="10" height="16" />
        <rect x="108" y="265" width="11" height="11" />
        <rect x="125" y="236" width="11" height="11" />
        <rect x="74" y="277" width="11" height="8" />
        <rect x="62" y="277" width="11" height="8" />
        <rect x="256" y="248" width="11" height="11" />
        <rect x="250" y="254" width="12" height="11" />
        <rect x="262" y="271" width="11" height="11" />
        <rect x="199" y="259" width="11" height="12" />
        <rect x="205" y="265" width="11" height="12" />
        <rect x="199" y="265" width="11" height="12" />
        <rect x="210" y="265" width="12" height="12" />
        <rect x="208" y="236" width="9" height="12" />
        <rect x="216" y="265" width="11" height="12" />
        <rect x="216" y="254" width="11" height="11" />
        <rect x="239" y="242" width="11" height="11" />
        <rect x="210" y="259" width="12" height="12" />
        <rect x="216" y="259" width="11" height="12" />
        <rect x="216" y="248" width="11" height="11" />
        <rect x="233" y="242" width="11" height="11" />
        <rect x="228" y="242" width="11" height="11" />
        <rect x="256" y="242" width="11" height="11" />
        <rect x="250" y="242" width="12" height="11" />
        <rect x="245" y="242" width="11" height="11" />
        <rect x="245" y="236" width="11" height="11" />
        <rect x="239" y="236" width="11" height="11" />
        <rect x="250" y="236" width="12" height="11" />
        <rect x="136" y="237" width="11" height="11" />
        <rect x="262" y="248" width="11" height="11" />
        <rect x="262" y="259" width="11" height="12" />
        <rect x="256" y="265" width="11" height="12" />
        <rect x="256" y="271" width="11" height="11" />
        <rect x="256" y="236" width="11" height="11" />
        <rect x="262" y="236" width="11" height="11" />
        <rect x="216" y="242" width="11" height="11" />
        <rect x="222" y="242" width="11" height="11" />
        <rect x="119" y="242" width="11" height="11" />
        <rect x="262" y="254" width="11" height="11" />
        <rect x="262" y="242" width="11" height="11" />
        <rect x="119" y="248" width="11" height="11" />
        <rect x="68" y="277" width="11" height="8" />
    </g>
    <g class="spawningMap-very-uncommon">
        <rect x="166" y="236" width="36" height="12" />
    </g>
    <g class="spawningMap-rare">
        <rect x="76" y="109" width="11" height="11" />
        <rect x="80" y="66" width="12" height="11" />
        <rect x="127" y="63" width="12" height="12" />
        <rect x="178" y="179" width="11" height="12" />
        <rect x="178" y="191" width="12" height="10" />
        <rect x="166" y="189" width="11" height="11" />
        <rect x="168" y="198" width="11" height="11" />
        <rect x="234" y="59" width="11" height="11" />
        <rect x="114" y="220" width="12" height="11" />
        <rect x="78" y="206" width="13" height="13" />
        <rect x="73" y="208" width="13" height="13" />
        <rect x="70" y="109" width="11" height="11" />
        <rect x="91" y="123" width="11" height="11" />
        <rect x="82" y="103" width="11" height="11" />
        <rect x="90" y="66" width="11" height="12" />
        <rect x="137" y="60" width="11" height="11" />
        <rect x="143" y="60" width="11" height="11" />
        <rect x="149" y="60" width="11" height="11" />
        <rect x="79" y="97" width="11" height="11" />
        <rect x="130" y="189" width="11" height="11" />
        <rect x="130" y="195" width="11" height="11" />
        <rect x="141" y="190" width="11" height="11" />
        <rect x="141" y="196" width="11" height="11" />
        <rect x="172" y="179" width="11" height="12" />
        <rect x="172" y="185" width="11" height="11" />
        <rect x="172" y="191" width="11" height="11" />
        <rect x="51" y="190" width="11" height="11" />
        <rect x="178" y="185" width="11" height="11" />
        <rect x="252" y="78" width="11" height="11" />
        <rect x="246" y="78" width="11" height="11" />
        <rect x="222" y="61" width="12" height="11" />
        <rect x="109" y="220" width="11" height="11" />
        <rect x="135" y="189" width="12" height="11" />
        <rect x="135" y="195" width="12" height="11" />
        <rect x="66" y="192" width="13" height="13" />
        <rect x="68" y="198" width="13" height="12" />
        <rect x="71" y="203" width="13" height="13" />
        <rect x="66" y="205" width="12" height="12" />
        <rect x="68" y="210" width="12" height="13" />
        <rect x="62" y="212" width="13" height="13" />
        <rect x="46" y="92" width="12" height="11" />
        <rect x="70" y="103" width="11" height="11" />
        <rect x="76" y="103" width="11" height="11" />
    </g></g>
</svg>