<?xml version="1.0" encoding="utf-8"?>
<svg xmlns="http://www.w3.org/2000/svg" width="300" height="300" viewBox="0 0 300 300" class="creatureMap" style="position:absolute;">
<defs>
    <filter id="blur" x="-30%" y="-30%" width="160%" height="160%">
        <feGaussianBlur stdDeviation="3" />
    </filter>
    <style>
        .spawningMap-very-common { fill: #0F0; }
        .spawningMap-common { fill: #B2FF00; }
        .spawningMap-uncommon { fill: #FF0; }
        .spawningMap-very-uncommon { fill: #FC0; }
        .spawningMap-rare { fill: #F60; }
        .spawningMap-very-rare { fill: #F00; }
        .spawning-map-point { stroke:black; stroke-width:1; }
    </style>
    <filter id="groupStroke">
        <feFlood result="outsideColor" flood-color="black"/>
        <feMorphology in="SourceAlpha" operator="dilate" radius="2"/>
        <feComposite result="strokeoutline1" in="outsideColor" operator="in"/>
        <feComposite result="strokeoutline2" in="strokeoutline1" in2="SourceAlpha" operator="out"/>
        <feGaussianBlur in="strokeoutline2" result="strokeblur" stdDeviation="1"/>
    </filter>
</defs>
<g filter="url(#blur)" opacity="0.7">
    <g class="spawningMap-very-rare">
        <rect x="107" y="148" width="6" height="7" />
        <rect x="215" y="189" width="7" height="6" />
        <rect x="174" y="193" width="6" height="6" />
        <rect x="117" y="205" width="6" height="6" />
        <rect x="232" y="85" width="7" height="7" />
        <rect x="148" y="69" width="7" height="7" />
        <rect x="89" y="184" width="6" height="7" />
        <rect x="64" y="167" width="7" height="6" />
        <rect x="80" y="211" width="6" height="7" />
        <rect x="113" y="216" width="6" height="6" />
        <rect x="184" y="145" width="6" height="7" />
        <rect x="180" y="135" width="6" height="7" />
        <rect x="235" y="165" width="6" height="7" />
        <rect x="241" y="111" width="7" height="6" />
        <rect x="156" y="98" width="7" height="7" />
        <rect x="150" y="97" width="7" height="7" />
        <rect x="159" y="117" width="8" height="9" />
    </g>
    <g class="spawningMap-uncommon">
        <rect x="120" y="117" width="11" height="11" />
        <rect x="154" y="100" width="11" height="11" />
        <rect x="126" y="117" width="11" height="11" />
        <rect x="148" y="100" width="11" height="11" />
        <rect x="126" y="100" width="11" height="11" />
        <rect x="103" y="108" width="12" height="12" />
    </g>
    <g class="spawningMap-very-uncommon">
        <rect x="119" y="111" width="12" height="11" />
        <rect x="80" y="74" width="13" height="13" />
        <rect x="85" y="71" width="13" height="13" />
        <rect x="134" y="82" width="12" height="11" />
        <rect x="128" y="82" width="12" height="11" />
        <rect x="178" y="101" width="11" height="11" />
        <rect x="146" y="82" width="11" height="11" />
        <rect x="164" y="84" width="17" height="10" />
        <rect x="164" y="88" width="11" height="11" />
        <rect x="152" y="88" width="12" height="11" />
        <rect x="147" y="88" width="11" height="11" />
        <rect x="107" y="111" width="12" height="11" />
        <rect x="113" y="111" width="11" height="11" />
        <rect x="135" y="88" width="11" height="11" />
        <rect x="177" y="96" width="11" height="11" />
        <rect x="174" y="100" width="12" height="11" />
        <rect x="140" y="82" width="11" height="11" />
        <rect x="170" y="88" width="11" height="11" />
    </g></g>
<g filter="url(#groupStroke)" opacity="0.8">
        <rect x="107" y="148" width="6" height="7" />
        <rect x="215" y="189" width="7" height="6" />
        <rect x="174" y="193" width="6" height="6" />
        <rect x="117" y="205" width="6" height="6" />
        <rect x="232" y="85" width="7" height="7" />
        <rect x="148" y="69" width="7" height="7" />
        <rect x="89" y="184" width="6" height="7" />
        <rect x="64" y="167" width="7" height="6" />
        <rect x="80" y="211" width="6" height="7" />
        <rect x="113" y="216" width="6" height="6" />
        <rect x="184" y="145" width="6" height="7" />
        <rect x="180" y="135" width="6" height="7" />
        <rect x="235" y="165" width="6" height="7" />
        <rect x="241" y="111" width="7" height="6" />
        <rect x="156" y="98" width="7" height="7" />
        <rect x="150" y="97" width="7" height="7" />
        <rect x="159" y="117" width="8" height="9" />
</g>
<g class="spawning-map-point" opacity="0.8">
    <g class="spawningMap-very-common">
        <circle cx="184" cy="193" r="4.0" />
        <circle cx="184" cy="193" r="4.0" />
        <circle cx="185" cy="193" r="4.0" />
        <circle cx="172" cy="188" r="4.0" />
        <circle cx="171" cy="187" r="4.0" />
        <circle cx="174" cy="187" r="4.0" />
    </g></g>
</svg>