<?xml version="1.0" encoding="utf-8"?>
<svg xmlns="http://www.w3.org/2000/svg" width="300" height="300" viewBox="0 0 300 300" class="creatureMap" style="position:absolute;">
<defs>
    <filter id="blur" x="-30%" y="-30%" width="160%" height="160%">
        <feGaussianBlur stdDeviation="3" />
    </filter>
    <style>
        .spawningMap-very-common { fill: #0F0; }
        .spawningMap-common { fill: #B2FF00; }
        .spawningMap-uncommon { fill: #FF0; }
        .spawningMap-very-uncommon { fill: #FC0; }
        .spawningMap-rare { fill: #F60; }
        .spawningMap-very-rare { fill: #F00; }
        .spawning-map-point { stroke:black; stroke-width:1; }
    </style>
</defs>
<g filter="url(#blur)" opacity="0.7">
    <g class="spawningMap-very-uncommon">
        <rect x="0" y="28" width="1" height="12" />
        <rect x="0" y="28" width="8" height="12" />
        <rect x="3" y="28" width="13" height="12" />
        <rect x="10" y="28" width="13" height="12" />
        <rect x="17" y="28" width="13" height="12" />
        <rect x="60" y="28" width="13" height="12" />
        <rect x="67" y="28" width="13" height="12" />
        <rect x="74" y="28" width="13" height="12" />
        <rect x="82" y="28" width="12" height="12" />
        <rect x="110" y="28" width="13" height="12" />
        <rect x="0" y="35" width="1" height="12" />
        <rect x="0" y="35" width="8" height="12" />
        <rect x="3" y="35" width="13" height="12" />
        <rect x="10" y="35" width="13" height="12" />
        <rect x="17" y="35" width="13" height="12" />
        <rect x="67" y="35" width="13" height="12" />
        <rect x="74" y="35" width="13" height="12" />
        <rect x="82" y="35" width="12" height="12" />
        <rect x="110" y="35" width="13" height="12" />
        <rect x="0" y="42" width="1" height="12" />
        <rect x="10" y="42" width="13" height="12" />
        <rect x="17" y="42" width="13" height="12" />
        <rect x="110" y="42" width="13" height="12" />
        <rect x="0" y="49" width="1" height="12" />
        <rect x="82" y="49" width="12" height="12" />
        <rect x="0" y="56" width="1" height="12" />
    </g>
    <g class="spawningMap-uncommon">
        <rect x="117" y="28" width="10" height="12" />
        <rect x="117" y="35" width="10" height="12" />
        <rect x="117" y="42" width="10" height="12" />
    </g>
    <g class="spawningMap-common">
        <rect x="32" y="63" width="12" height="12" />
        <rect x="32" y="70" width="12" height="12" />
        <rect x="39" y="70" width="12" height="12" />
        <rect x="53" y="70" width="13" height="12" />
        <rect x="60" y="70" width="13" height="12" />
        <rect x="32" y="77" width="12" height="12" />
        <rect x="39" y="77" width="12" height="12" />
        <rect x="46" y="77" width="12" height="12" />
        <rect x="53" y="77" width="13" height="12" />
        <rect x="60" y="77" width="13" height="12" />
        <rect x="39" y="84" width="12" height="12" />
        <rect x="46" y="84" width="12" height="12" />
        <rect x="53" y="84" width="13" height="12" />
        <rect x="46" y="91" width="12" height="12" />
    </g></g>
</svg>