<svg xmlns="http://www.w3.org/2000/svg" width="300" height="300" viewBox="0 0 300 300" class="creatureMap" style="position:absolute;">
<defs>
<filter id="blur" x="-30%" y="-30%" width="160%" height="160%"><feGaussianBlur stdDeviation="3" />
</filter>
<pattern id="pattern-untameable" width="10" height="10" patternTransform="rotate(135)" patternUnits="userSpaceOnUse"><rect width="4" height="10" fill="black"></rect>
</pattern>
<filter id="groupStroke"><feFlood result="outsideColor" flood-color="black"/><feMorphology in="SourceAlpha" operator="dilate" radius="2"/><feComposite result="strokeoutline1" in="outsideColor" operator="in"/><feComposite result="strokeoutline2" in="strokeoutline1" in2="SourceAlpha" operator="out"/><feGaussianBlur in="strokeoutline2" result="strokeblur" stdDeviation="1"/>
</filter>
<style>
.spawningMap-very-common { fill: #0F0;}
.spawningMap-common { fill: #B2FF00;}
.spawningMap-uncommon { fill: #FF0;}
.spawningMap-very-uncommon { fill: #FC0;}
.spawningMap-rare { fill: #F60;}
.spawningMap-very-rare { fill: #F00; }.spawning-map-point {stroke:black; stroke-width:1;}
</style>
</defs>
<g filter="url(#blur)" opacity="0.7">
<g class="spawningMap-very-uncommon"><rect x="195" y="17" width="9" height="10" /><rect x="205" y="6" width="10" height="10" /><rect x="195" y="27" width="9" height="10" /><rect x="195" y="38" width="9" height="10" /><rect x="195" y="48" width="9" height="10" /><rect x="195" y="59" width="9" height="10" /><rect x="205" y="59" width="10" height="10" /><rect x="216" y="59" width="9" height="10" /><rect x="226" y="59" width="10" height="10" /><rect x="226" y="48" width="10" height="10" /><rect x="205" y="48" width="10" height="10" /><rect x="205" y="38" width="10" height="10" /><rect x="226" y="38" width="10" height="10" /><rect x="205" y="27" width="10" height="10" /><rect x="205" y="17" width="10" height="10" /><rect x="216" y="17" width="9" height="10" /><rect x="216" y="6" width="9" height="10" /><rect x="226" y="6" width="10" height="10" /><rect x="226" y="17" width="10" height="10" /><rect x="237" y="6" width="9" height="10" /><rect x="247" y="6" width="10" height="10" /><rect x="258" y="6" width="9" height="10" /><rect x="268" y="6" width="10" height="10" /><rect x="268" y="17" width="10" height="10" /><rect x="258" y="17" width="9" height="10" /><rect x="247" y="17" width="10" height="10" /><rect x="237" y="17" width="9" height="10" /><rect x="247" y="27" width="10" height="10" /><rect x="258" y="27" width="9" height="10" /><rect x="268" y="27" width="10" height="10" /><rect x="279" y="17" width="9" height="10" /><rect x="279" y="27" width="9" height="10" /><rect x="289" y="38" width="10" height="10" /><rect x="279" y="38" width="9" height="10" /><rect x="268" y="38" width="10" height="10" /><rect x="258" y="38" width="9" height="10" /><rect x="237" y="48" width="9" height="10" /><rect x="247" y="48" width="10" height="10" /><rect x="258" y="48" width="9" height="10" /><rect x="268" y="48" width="10" height="10" /><rect x="279" y="48" width="9" height="10" /><rect x="279" y="59" width="9" height="10" /><rect x="268" y="59" width="10" height="10" /><rect x="258" y="59" width="9" height="10" /><rect x="247" y="59" width="10" height="10" /><rect x="237" y="59" width="9" height="10" /><rect x="237" y="69" width="9" height="10" /><rect x="258" y="69" width="9" height="10" /><rect x="268" y="69" width="10" height="10" /><rect x="279" y="69" width="9" height="10" /><rect x="279" y="80" width="9" height="10" /><rect x="258" y="80" width="9" height="10" /><rect x="237" y="80" width="9" height="10" /><rect x="268" y="90" width="10" height="10" /><rect x="226" y="90" width="10" height="10" /><rect x="226" y="80" width="10" height="10" /><rect x="226" y="69" width="10" height="10" /><rect x="216" y="69" width="9" height="10" /><rect x="216" y="80" width="9" height="10" /><rect x="216" y="90" width="9" height="10" /><rect x="205" y="80" width="10" height="10" /><rect x="205" y="69" width="10" height="10" /><rect x="195" y="69" width="9" height="10" />
</g>
<g class="spawningMap-uncommon"><rect x="216" y="48" width="9" height="10" /><rect x="216" y="38" width="9" height="10" /><rect x="226" y="27" width="10" height="10" /><rect x="216" y="27" width="9" height="10" /><rect x="237" y="27" width="9" height="10" /><rect x="289" y="27" width="7" height="10" /><rect x="247" y="38" width="10" height="10" /><rect x="237" y="38" width="9" height="10" /><rect x="247" y="69" width="10" height="10" /><rect x="268" y="80" width="10" height="10" /><rect x="247" y="80" width="10" height="10" /><rect x="247" y="90" width="10" height="10" /><rect x="258" y="90" width="9" height="10" /><rect x="237" y="90" width="9" height="10" />
</g>
</g>
<g class="spawning-map-point" opacity="0.8">
</g>
</svg>