<svg xmlns="http://www.w3.org/2000/svg" width="300" height="300" viewBox="0 0 300 300" class="creatureMap" style="position:absolute;">
<defs>
<filter id="blur" x="-30%" y="-30%" width="160%" height="160%"><feGaussianBlur stdDeviation="3" />
</filter>
<pattern id="pattern-untameable" width="10" height="10" patternTransform="rotate(135)" patternUnits="userSpaceOnUse"><rect width="4" height="10" fill="black"></rect>
</pattern>
<filter id="groupStroke"><feFlood result="outsideColor" flood-color="black"/><feMorphology in="SourceAlpha" operator="dilate" radius="2"/><feComposite result="strokeoutline1" in="outsideColor" operator="in"/><feComposite result="strokeoutline2" in="strokeoutline1" in2="SourceAlpha" operator="out"/><feGaussianBlur in="strokeoutline2" result="strokeblur" stdDeviation="1"/>
</filter>
<style>
.spawningMap-very-common { fill: #0F0;}
.spawningMap-common { fill: #B2FF00;}
.spawningMap-uncommon { fill: #FF0;}
.spawningMap-very-uncommon { fill: #FC0;}
.spawningMap-rare { fill: #F60;}
.spawningMap-very-rare { fill: #F00; }.spawning-map-point {stroke:black; stroke-width:1;}
</style>
</defs>
<g filter="url(#blur)" opacity="0.7">
<g class="spawningMap-uncommon"><rect x="243" y="155" width="14" height="13" /><rect x="151" y="184" width="10" height="9" /><rect x="151" y="173" width="10" height="10" /><rect x="151" y="163" width="10" height="9" /><rect x="140" y="163" width="10" height="9" /><rect x="140" y="173" width="10" height="10" /><rect x="140" y="184" width="10" height="9" /><rect x="129" y="184" width="10" height="9" /><rect x="118" y="184" width="10" height="9" /><rect x="107" y="184" width="10" height="9" /><rect x="107" y="195" width="10" height="9" /><rect x="118" y="195" width="10" height="9" /><rect x="129" y="195" width="10" height="9" /><rect x="100" y="120" width="10" height="10" /><rect x="111" y="120" width="10" height="10" /><rect x="122" y="120" width="10" height="10" /><rect x="122" y="130" width="10" height="10" /><rect x="111" y="130" width="10" height="10" /><rect x="133" y="130" width="10" height="10" /><rect x="144" y="130" width="10" height="10" /><rect x="144" y="141" width="10" height="10" /><rect x="133" y="141" width="10" height="10" /><rect x="122" y="141" width="10" height="10" /><rect x="122" y="152" width="10" height="10" /><rect x="122" y="163" width="10" height="9" /><rect x="111" y="163" width="10" height="9" /><rect x="111" y="152" width="10" height="10" /><rect x="111" y="141" width="10" height="10" /><rect x="133" y="152" width="10" height="10" /><rect x="144" y="152" width="10" height="10" /><rect x="155" y="152" width="10" height="10" /><rect x="166" y="152" width="10" height="10" /><rect x="166" y="163" width="10" height="9" /><rect x="166" y="173" width="10" height="10" /><rect x="177" y="173" width="10" height="10" /><rect x="177" y="184" width="10" height="9" /><rect x="173" y="195" width="10" height="9" /><rect x="173" y="205" width="10" height="10" /><rect x="184" y="205" width="10" height="10" /><rect x="184" y="195" width="10" height="9" /><rect x="195" y="189" width="10" height="10" /><rect x="191" y="179" width="11" height="10" /><rect x="191" y="168" width="11" height="10" /><rect x="162" y="216" width="10" height="9" /><rect x="162" y="205" width="10" height="10" /><rect x="151" y="216" width="10" height="9" /><rect x="140" y="216" width="10" height="9" /><rect x="129" y="216" width="10" height="9" /><rect x="129" y="205" width="10" height="10" /><rect x="140" y="205" width="10" height="10" /><rect x="151" y="205" width="10" height="10" /><rect x="151" y="195" width="10" height="9" />
</g>
<g class="spawningMap-common"><rect x="148" y="166" width="7" height="12" /><rect x="54" y="111" width="10" height="11" /><rect x="190" y="98" width="11" height="12" /><rect x="202" y="96" width="10" height="14" /><rect x="236" y="110" width="10" height="11" /><rect x="236" y="100" width="10" height="10" /><rect x="236" y="88" width="10" height="11" /><rect x="247" y="99" width="10" height="11" /><rect x="99" y="179" width="10" height="10" /><rect x="88" y="179" width="10" height="10" /><rect x="76" y="179" width="11" height="10" /><rect x="156" y="179" width="10" height="10" /><rect x="168" y="179" width="10" height="10" /><rect x="224" y="122" width="11" height="10" /><rect x="224" y="134" width="11" height="10" /><rect x="236" y="122" width="10" height="10" /><rect x="236" y="133" width="10" height="11" /><rect x="247" y="122" width="11" height="10" /><rect x="247" y="133" width="11" height="11" /><rect x="236" y="144" width="10" height="11" /><rect x="247" y="144" width="10" height="11" /><rect x="201" y="178" width="10" height="10" /><rect x="190" y="178" width="10" height="10" /><rect x="178" y="178" width="11" height="10" /><rect x="144" y="65" width="11" height="10" /><rect x="64" y="122" width="11" height="11" /><rect x="144" y="76" width="11" height="10" /><rect x="147" y="19" width="11" height="11" /><rect x="158" y="19" width="11" height="11" /><rect x="41" y="111" width="11" height="10" /><rect x="110" y="145" width="11" height="10" /><rect x="98" y="144" width="12" height="12" /><rect x="88" y="156" width="10" height="10" /><rect x="88" y="168" width="10" height="10" /><rect x="155" y="42" width="10" height="11" /><rect x="64" y="65" width="10" height="10" /><rect x="75" y="65" width="11" height="10" /><rect x="117" y="12" width="10" height="10" /><rect x="83" y="20" width="10" height="10" /><rect x="75" y="53" width="11" height="11" /><rect x="87" y="53" width="10" height="11" /><rect x="98" y="53" width="11" height="11" /><rect x="109" y="53" width="11" height="11" /><rect x="121" y="53" width="10" height="11" /><rect x="132" y="53" width="11" height="11" /><rect x="143" y="53" width="11" height="11" /><rect x="53" y="156" width="11" height="11" /><rect x="53" y="122" width="10" height="11" /><rect x="147" y="31" width="11" height="10" /><rect x="158" y="31" width="11" height="10" /><rect x="65" y="100" width="11" height="10" /><rect x="54" y="100" width="10" height="10" /><rect x="110" y="76" width="11" height="10" /><rect x="132" y="65" width="11" height="10" /><rect x="76" y="122" width="10" height="11" /><rect x="87" y="122" width="10" height="11" /><rect x="76" y="134" width="10" height="10" /><rect x="76" y="145" width="10" height="10" /><rect x="64" y="145" width="11" height="10" /><rect x="53" y="145" width="10" height="10" /><rect x="98" y="99" width="11" height="11" /><rect x="110" y="87" width="11" height="11" /><rect x="121" y="87" width="11" height="11" /><rect x="121" y="98" width="11" height="11" /><rect x="133" y="98" width="10" height="11" /><rect x="133" y="87" width="10" height="11" /><rect x="133" y="76" width="10" height="10" /><rect x="247" y="110" width="10" height="11" /><rect x="143" y="42" width="11" height="11" /><rect x="77" y="168" width="10" height="10" /><rect x="65" y="111" width="11" height="10" /><rect x="87" y="111" width="10" height="10" /><rect x="110" y="111" width="11" height="10" /><rect x="76" y="99" width="10" height="11" /><rect x="87" y="99" width="10" height="11" /><rect x="41" y="145" width="11" height="10" /><rect x="110" y="99" width="11" height="11" /><rect x="76" y="87" width="10" height="11" /><rect x="87" y="87" width="10" height="11" /><rect x="98" y="87" width="11" height="11" /><rect x="87" y="76" width="10" height="10" /><rect x="65" y="88" width="11" height="11" />
</g>
<g class="spawningMap-very-common"><rect x="167" y="110" width="11" height="11" /><rect x="167" y="99" width="11" height="11" /><rect x="156" y="99" width="10" height="11" /><rect x="179" y="99" width="11" height="11" /><rect x="179" y="110" width="11" height="11" /><rect x="190" y="110" width="11" height="11" /><rect x="202" y="110" width="10" height="11" /><rect x="213" y="110" width="10" height="11" /><rect x="224" y="110" width="11" height="11" /><rect x="224" y="99" width="11" height="11" /><rect x="213" y="99" width="11" height="11" /><rect x="213" y="95" width="11" height="4" /><rect x="224" y="88" width="11" height="10" /><rect x="179" y="122" width="10" height="10" /><rect x="190" y="122" width="10" height="10" /><rect x="179" y="133" width="10" height="11" /><rect x="190" y="133" width="10" height="11" /><rect x="179" y="145" width="10" height="10" /><rect x="201" y="134" width="11" height="10" /><rect x="190" y="145" width="10" height="10" /><rect x="201" y="145" width="11" height="10" /><rect x="179" y="167" width="11" height="11" /><rect x="190" y="156" width="10" height="10" /><rect x="190" y="167" width="10" height="11" /><rect x="201" y="156" width="11" height="10" /><rect x="201" y="167" width="11" height="11" /><rect x="213" y="167" width="10" height="11" /><rect x="224" y="167" width="10" height="11" /><rect x="213" y="156" width="10" height="10" /><rect x="213" y="145" width="10" height="10" /><rect x="224" y="148" width="8" height="7" /><rect x="213" y="134" width="10" height="10" /><rect x="213" y="122" width="10" height="10" /><rect x="179" y="65" width="11" height="10" /><rect x="179" y="87" width="11" height="11" /><rect x="121" y="110" width="11" height="11" /><rect x="122" y="76" width="10" height="11" /><rect x="122" y="65" width="10" height="10" /><rect x="133" y="110" width="10" height="11" /><rect x="144" y="99" width="11" height="11" /><rect x="144" y="88" width="11" height="10" /><rect x="156" y="65" width="10" height="11" /><rect x="156" y="76" width="10" height="11" /><rect x="156" y="88" width="10" height="10" /><rect x="167" y="88" width="11" height="10" /><rect x="167" y="76" width="11" height="11" /><rect x="167" y="66" width="11" height="10" /><rect x="144" y="110" width="11" height="11" /><rect x="68" y="53" width="6" height="11" /><rect x="14" y="134" width="4" height="10" /><rect x="14" y="122" width="4" height="11" /><rect x="30" y="111" width="11" height="10" /><rect x="19" y="111" width="10" height="10" /><rect x="110" y="133" width="11" height="11" /><rect x="110" y="156" width="11" height="11" /><rect x="110" y="167" width="11" height="11" /><rect x="99" y="167" width="11" height="11" /><rect x="99" y="156" width="11" height="10" /><rect x="122" y="168" width="10" height="10" /><rect x="122" y="156" width="10" height="11" /><rect x="133" y="139" width="11" height="10" /><rect x="125" y="127" width="11" height="11" /><rect x="144" y="122" width="11" height="10" /><rect x="156" y="133" width="10" height="11" /><rect x="168" y="133" width="10" height="11" /><rect x="156" y="145" width="10" height="10" /><rect x="168" y="145" width="10" height="10" /><rect x="156" y="156" width="10" height="10" /><rect x="168" y="156" width="10" height="10" /><rect x="30" y="122" width="11" height="11" /><rect x="19" y="122" width="10" height="11" /><rect x="87" y="223" width="11" height="10" /><rect x="110" y="223" width="11" height="10" /><rect x="98" y="212" width="11" height="10" /><rect x="98" y="200" width="11" height="11" /><rect x="98" y="189" width="11" height="10" /><rect x="105" y="12" width="11" height="10" /><rect x="98" y="223" width="11" height="10" /><rect x="87" y="212" width="11" height="10" /><rect x="87" y="200" width="11" height="11" /><rect x="87" y="189" width="11" height="10" /><rect x="156" y="110" width="10" height="11" /><rect x="167" y="223" width="10" height="10" /><rect x="75" y="31" width="11" height="10" /><rect x="75" y="42" width="11" height="11" /><rect x="53" y="134" width="10" height="10" /><rect x="155" y="223" width="11" height="10" /><rect x="210" y="168" width="2" height="2" /><rect x="144" y="223" width="11" height="10" /><rect x="132" y="223" width="11" height="10" /><rect x="76" y="223" width="10" height="10" /><rect x="64" y="223" width="11" height="10" /><rect x="110" y="234" width="11" height="11" /><rect x="41" y="134" width="11" height="10" /><rect x="98" y="76" width="11" height="10" /><rect x="132" y="212" width="11" height="10" /><rect x="76" y="111" width="10" height="10" /><rect x="132" y="200" width="11" height="11" /><rect x="121" y="212" width="11" height="10" /><rect x="98" y="234" width="11" height="11" /><rect x="87" y="236" width="11" height="11" /><rect x="76" y="234" width="10" height="11" /><rect x="64" y="234" width="11" height="11" /><rect x="110" y="246" width="11" height="10" /><rect x="98" y="246" width="11" height="10" /><rect x="87" y="246" width="11" height="10" /><rect x="121" y="200" width="11" height="11" /><rect x="76" y="246" width="10" height="10" /><rect x="121" y="189" width="11" height="10" /><rect x="121" y="178" width="11" height="10" /><rect x="76" y="212" width="10" height="10" /><rect x="76" y="200" width="10" height="11" /><rect x="76" y="189" width="10" height="10" /><rect x="64" y="212" width="11" height="10" /><rect x="201" y="200" width="10" height="11" /><rect x="190" y="200" width="10" height="11" /><rect x="178" y="200" width="11" height="11" /><rect x="201" y="189" width="10" height="10" /><rect x="190" y="189" width="10" height="10" /><rect x="178" y="189" width="11" height="10" /><rect x="167" y="212" width="10" height="10" /><rect x="167" y="200" width="10" height="11" /><rect x="73" y="250" width="2" height="2" /><rect x="110" y="257" width="11" height="10" /><rect x="98" y="257" width="11" height="10" /><rect x="87" y="257" width="11" height="10" /><rect x="110" y="268" width="11" height="11" /><rect x="98" y="268" width="11" height="11" /><rect x="121" y="234" width="11" height="11" /><rect x="121" y="246" width="11" height="10" /><rect x="121" y="257" width="11" height="10" /><rect x="30" y="134" width="11" height="10" /><rect x="132" y="246" width="11" height="10" /><rect x="189" y="254" width="10" height="10" /><rect x="189" y="265" width="10" height="11" /><rect x="189" y="276" width="10" height="11" /><rect x="177" y="265" width="11" height="11" /><rect x="184" y="276" width="4" height="4" /><rect x="173" y="238" width="11" height="10" /><rect x="173" y="248" width="11" height="11" /><rect x="201" y="223" width="10" height="10" /><rect x="190" y="223" width="10" height="10" /><rect x="201" y="212" width="10" height="10" /><rect x="190" y="212" width="10" height="10" /><rect x="178" y="212" width="11" height="10" /><rect x="212" y="216" width="11" height="6" /><rect x="201" y="122" width="11" height="10" /><rect x="229" y="208" width="4" height="11" /><rect x="234" y="208" width="11" height="11" /><rect x="245" y="208" width="11" height="11" /><rect x="245" y="219" width="11" height="11" /><rect x="245" y="231" width="11" height="10" /><rect x="245" y="242" width="11" height="11" /><rect x="224" y="156" width="10" height="10" /><rect x="257" y="249" width="6" height="11" /><rect x="245" y="253" width="11" height="11" /><rect x="245" y="265" width="11" height="10" /><rect x="257" y="265" width="10" height="10" /><rect x="245" y="276" width="11" height="11" /><rect x="234" y="276" width="11" height="11" /><rect x="234" y="287" width="11" height="11" /><rect x="98" y="133" width="11" height="11" /><rect x="223" y="287" width="10" height="11" /><rect x="211" y="287" width="11" height="11" /><rect x="200" y="287" width="11" height="11" /><rect x="200" y="276" width="11" height="11" /><rect x="178" y="223" width="11" height="10" /><rect x="200" y="265" width="11" height="10" /><rect x="211" y="265" width="11" height="10" /><rect x="223" y="265" width="10" height="10" /><rect x="110" y="212" width="11" height="10" /><rect x="223" y="253" width="10" height="11" /><rect x="223" y="242" width="10" height="11" /><rect x="234" y="242" width="11" height="11" /><rect x="234" y="231" width="11" height="10" /><rect x="234" y="219" width="11" height="11" /><rect x="223" y="219" width="10" height="11" /><rect x="223" y="231" width="10" height="10" /><rect x="200" y="242" width="10" height="11" /><rect x="200" y="254" width="10" height="10" /><rect x="110" y="200" width="11" height="11" /><rect x="211" y="254" width="11" height="10" /><rect x="223" y="213" width="5" height="6" /><rect x="257" y="249" width="6" height="11" /><rect x="167" y="189" width="10" height="10" /><rect x="155" y="212" width="11" height="10" /><rect x="155" y="200" width="11" height="11" /><rect x="155" y="189" width="11" height="10" /><rect x="144" y="200" width="11" height="11" /><rect x="144" y="189" width="11" height="10" /><rect x="132" y="189" width="11" height="10" /><rect x="132" y="178" width="11" height="10" /><rect x="212" y="197" width="5" height="10" /><rect x="212" y="189" width="11" height="7" /><rect x="223" y="185" width="10" height="11" /><rect x="230" y="197" width="3" height="10" /><rect x="234" y="197" width="11" height="10" /><rect x="212" y="208" width="5" height="7" /><rect x="94" y="12" width="10" height="10" /><rect x="179" y="76" width="11" height="11" /><rect x="188" y="76" width="10" height="11" /><rect x="77" y="156" width="10" height="10" /><rect x="122" y="145" width="10" height="11" /><rect x="144" y="145" width="11" height="10" /><rect x="144" y="134" width="11" height="10" /><rect x="144" y="212" width="11" height="10" /><rect x="140" y="205" width="11" height="11" /><rect x="152" y="205" width="10" height="11" /><rect x="114" y="123" width="11" height="11" /><rect x="114" y="134" width="11" height="11" /><rect x="125" y="138" width="11" height="11" /><rect x="156" y="122" width="10" height="10" /><rect x="188" y="65" width="10" height="10" /><rect x="168" y="122" width="10" height="10" /><rect x="188" y="54" width="10" height="10" /><rect x="177" y="54" width="11" height="10" /><rect x="156" y="167" width="10" height="11" /><rect x="168" y="167" width="10" height="11" /><rect x="166" y="54" width="10" height="10" /><rect x="155" y="54" width="10" height="10" /><rect x="224" y="163" width="2" height="3" /><rect x="229" y="151" width="0" height="2" /><rect x="231" y="151" width="0" height="1" /><rect x="211" y="166" width="1" height="1" /><rect x="211" y="165" width="1" height="1" /><rect x="212" y="164" width="0" height="1" /><rect x="212" y="164" width="1" height="0" /><rect x="210" y="159" width="2" height="2" /><rect x="210" y="157" width="0" height="1" /><rect x="211" y="154" width="2" height="1" /><rect x="216" y="152" width="2" height="2" /><rect x="217" y="150" width="1" height="2" /><rect x="217" y="157" width="2" height="1" /><rect x="218" y="153" width="1" height="2" /><rect x="212" y="161" width="2" height="1" /><rect x="212" y="160" width="2" height="2" /><rect x="214" y="161" width="2" height="2" /><rect x="214" y="156" width="1" height="1" /><rect x="217" y="156" width="0" height="1" /><rect x="211" y="157" width="1" height="1" /><rect x="223" y="165" width="1" height="1" /><rect x="222" y="165" width="1" height="1" /><rect x="222" y="165" width="1" height="0" /><rect x="222" y="164" width="1" height="0" /><rect x="221" y="163" width="1" height="1" /><rect x="221" y="162" width="1" height="1" /><rect x="222" y="162" width="1" height="0" /><rect x="226" y="162" width="0" height="0" /><rect x="227" y="161" width="0" height="1" /><rect x="227" y="161" width="1" height="1" /><rect x="229" y="161" width="0" height="1" /><rect x="229" y="162" width="0" height="1" /><rect x="228" y="162" width="0" height="1" /><rect x="227" y="163" width="0" height="0" /><rect x="227" y="163" width="0" height="1" /><rect x="227" y="164" width="1" height="1" /><rect x="226" y="165" width="1" height="1" /><rect x="225" y="165" width="1" height="1" /><rect x="229" y="150" width="1" height="1" /><rect x="215" y="147" width="1" height="1" /><rect x="215" y="148" width="1" height="0" /><rect x="215" y="148" width="1" height="1" /><rect x="214" y="149" width="1" height="1" /><rect x="214" y="150" width="1" height="1" /><rect x="214" y="150" width="0" height="1" /><rect x="213" y="150" width="0" height="1" /><rect x="213" y="151" width="1" height="0" /><rect x="213" y="151" width="1" height="1" /><rect x="110" y="189" width="11" height="10" /><rect x="213" y="152" width="1" height="1" /><rect x="213" y="153" width="1" height="1" /><rect x="19" y="134" width="10" height="10" /><rect x="98" y="111" width="11" height="10" /><rect x="110" y="178" width="11" height="10" /><rect x="145" y="273" width="1" height="1" /><rect x="143" y="277" width="1" height="2" /><rect x="144" y="274" width="1" height="1" /><rect x="144" y="275" width="0" height="1" /><rect x="143" y="272" width="1" height="0" /><rect x="143" y="272" width="0" height="2" /><rect x="142" y="274" width="1" height="1" /><rect x="141" y="275" width="1" height="1" /><rect x="140" y="275" width="1" height="1" /><rect x="139" y="276" width="1" height="1" /><rect x="137" y="277" width="2" height="3" /><rect x="134" y="277" width="2" height="3" /><rect x="134" y="281" width="4" height="3" /><rect x="134" y="284" width="1" height="3" /><rect x="136" y="286" width="1" height="1" /><rect x="134" y="287" width="2" height="2" /><rect x="134" y="289" width="2" height="2" /><rect x="132" y="291" width="2" height="1" /><rect x="136" y="290" width="2" height="2" /><rect x="139" y="286" width="2" height="2" /><rect x="144" y="285" width="2" height="1" /><rect x="143" y="285" width="1" height="1" /><rect x="144" y="288" width="2" height="1" /><rect x="146" y="289" width="2" height="2" /><rect x="146" y="288" width="2" height="1" /><rect x="146" y="286" width="2" height="2" /><rect x="148" y="290" width="2" height="1" /><rect x="148" y="288" width="2" height="1" /><rect x="148" y="286" width="1" height="2" /><rect x="143" y="292" width="1" height="2" /><rect x="142" y="294" width="1" height="1" /><rect x="143" y="294" width="2" height="1" /><rect x="142" y="295" width="2" height="2" /><rect x="142" y="297" width="2" height="2" /><rect x="147" y="296" width="2" height="2" /><rect x="147" y="298" width="2" height="1" /><rect x="145" y="299" width="2" height="1" /><rect x="144" y="300" width="2" height="0" /><rect x="144" y="302" width="2" height="-2" /><rect x="148" y="303" width="1" height="-3" /><rect x="149" y="304" width="2" height="-4" /><rect x="151" y="304" width="2" height="-4" /><rect x="152" y="302" width="2" height="-2" /><rect x="154" y="301" width="2" height="-1" /><rect x="154" y="300" width="2" height="0" /><rect x="154" y="298" width="2" height="2" /><rect x="156" y="298" width="2" height="1" /><rect x="156" y="296" width="1" height="1" /><rect x="76" y="76" width="10" height="10" /><rect x="154" y="295" width="2" height="1" /><rect x="152" y="298" width="2" height="1" /><rect x="152" y="296" width="2" height="2" /><rect x="150" y="296" width="2" height="2" /><rect x="151" y="294" width="1" height="2" /><rect x="150" y="293" width="2" height="1" /><rect x="150" y="291" width="2" height="1" /><rect x="151" y="289" width="1" height="2" /><rect x="134" y="293" width="2" height="1" /><rect x="135" y="295" width="1" height="1" /><rect x="135" y="296" width="1" height="1" /><rect x="149" y="300" width="2" height="0" /><rect x="154" y="295" width="2" height="2" /><rect x="41" y="122" width="11" height="11" /><rect x="188" y="170" width="3" height="10" /><rect x="173" y="216" width="10" height="3" />
</g>
</g>
<g class="spawning-map-point" opacity="0.8">
</g>
<g filter="url(#groupStroke)" opacity="0.8"><rect x="210" y="168" width="2" height="2"/><rect x="224" y="163" width="2" height="3"/><rect x="229" y="151" width="0" height="2"/><rect x="231" y="151" width="0" height="1"/><rect x="211" y="166" width="1" height="1"/><rect x="211" y="165" width="1" height="1"/><rect x="212" y="164" width="0" height="1"/><rect x="212" y="164" width="1" height="0"/><rect x="210" y="159" width="2" height="2"/><rect x="210" y="157" width="0" height="1"/><rect x="211" y="154" width="2" height="1"/><rect x="216" y="152" width="2" height="2"/><rect x="217" y="150" width="1" height="2"/><rect x="217" y="157" width="2" height="1"/><rect x="218" y="153" width="1" height="2"/><rect x="212" y="161" width="2" height="1"/><rect x="212" y="160" width="2" height="2"/><rect x="214" y="161" width="2" height="2"/><rect x="214" y="156" width="1" height="1"/><rect x="217" y="156" width="0" height="1"/><rect x="211" y="157" width="1" height="1"/><rect x="223" y="165" width="1" height="1"/><rect x="222" y="165" width="1" height="1"/><rect x="222" y="165" width="1" height="0"/><rect x="222" y="164" width="1" height="0"/><rect x="221" y="163" width="1" height="1"/><rect x="221" y="162" width="1" height="1"/><rect x="222" y="162" width="1" height="0"/><rect x="226" y="162" width="0" height="0"/><rect x="227" y="161" width="0" height="1"/><rect x="227" y="161" width="1" height="1"/><rect x="229" y="161" width="0" height="1"/><rect x="229" y="162" width="0" height="1"/><rect x="228" y="162" width="0" height="1"/><rect x="227" y="163" width="0" height="0"/><rect x="227" y="163" width="0" height="1"/><rect x="227" y="164" width="1" height="1"/><rect x="226" y="165" width="1" height="1"/><rect x="225" y="165" width="1" height="1"/><rect x="229" y="150" width="1" height="1"/><rect x="215" y="147" width="1" height="1"/><rect x="215" y="148" width="1" height="0"/><rect x="215" y="148" width="1" height="1"/><rect x="214" y="149" width="1" height="1"/><rect x="214" y="150" width="1" height="1"/><rect x="214" y="150" width="0" height="1"/><rect x="213" y="150" width="0" height="1"/><rect x="213" y="151" width="1" height="0"/><rect x="213" y="151" width="1" height="1"/><rect x="213" y="152" width="1" height="1"/><rect x="213" y="153" width="1" height="1"/><rect x="145" y="273" width="1" height="1"/><rect x="143" y="277" width="1" height="2"/><rect x="144" y="274" width="1" height="1"/><rect x="144" y="275" width="0" height="1"/><rect x="143" y="272" width="1" height="0"/><rect x="143" y="272" width="0" height="2"/><rect x="142" y="274" width="1" height="1"/><rect x="141" y="275" width="1" height="1"/><rect x="140" y="275" width="1" height="1"/><rect x="139" y="276" width="1" height="1"/><rect x="137" y="277" width="2" height="3"/><rect x="134" y="277" width="2" height="3"/><rect x="134" y="281" width="4" height="3"/><rect x="134" y="284" width="1" height="3"/><rect x="136" y="286" width="1" height="1"/><rect x="134" y="287" width="2" height="2"/><rect x="134" y="289" width="2" height="2"/><rect x="132" y="291" width="2" height="1"/><rect x="136" y="290" width="2" height="2"/><rect x="139" y="286" width="2" height="2"/><rect x="144" y="285" width="2" height="1"/><rect x="143" y="285" width="1" height="1"/><rect x="144" y="288" width="2" height="1"/><rect x="146" y="289" width="2" height="2"/><rect x="146" y="288" width="2" height="1"/><rect x="146" y="286" width="2" height="2"/><rect x="148" y="290" width="2" height="1"/><rect x="148" y="288" width="2" height="1"/><rect x="148" y="286" width="1" height="2"/><rect x="143" y="292" width="1" height="2"/><rect x="142" y="294" width="1" height="1"/><rect x="143" y="294" width="2" height="1"/><rect x="142" y="295" width="2" height="2"/><rect x="142" y="297" width="2" height="2"/><rect x="147" y="296" width="2" height="2"/><rect x="147" y="298" width="2" height="1"/><rect x="145" y="299" width="2" height="1"/><rect x="144" y="300" width="2" height="0"/><rect x="144" y="302" width="2" height="-2"/><rect x="148" y="303" width="1" height="-3"/><rect x="149" y="304" width="2" height="-4"/><rect x="151" y="304" width="2" height="-4"/><rect x="152" y="302" width="2" height="-2"/><rect x="154" y="301" width="2" height="-1"/><rect x="154" y="300" width="2" height="0"/><rect x="154" y="298" width="2" height="2"/><rect x="156" y="298" width="2" height="1"/><rect x="156" y="296" width="1" height="1"/><rect x="154" y="295" width="2" height="1"/><rect x="152" y="298" width="2" height="1"/><rect x="152" y="296" width="2" height="2"/><rect x="150" y="296" width="2" height="2"/><rect x="151" y="294" width="1" height="2"/><rect x="150" y="293" width="2" height="1"/><rect x="150" y="291" width="2" height="1"/><rect x="151" y="289" width="1" height="2"/><rect x="134" y="293" width="2" height="1"/><rect x="135" y="295" width="1" height="1"/><rect x="135" y="296" width="1" height="1"/><rect x="149" y="300" width="2" height="0"/><rect x="154" y="295" width="2" height="2"/>
</g>
</svg>