<?xml version="1.0" encoding="utf-8"?>
<svg xmlns="http://www.w3.org/2000/svg" width="300" height="300" viewBox="0 0 300 300" class="creatureMap" style="position:absolute;">
<defs>
    <filter id="blur" x="-30%" y="-30%" width="160%" height="160%">
        <feGaussianBlur stdDeviation="3" />
    </filter>
    <style>
        .spawningMap-very-common { fill: #0F0; }
        .spawningMap-common { fill: #B2FF00; }
        .spawningMap-uncommon { fill: #FF0; }
        .spawningMap-very-uncommon { fill: #FC0; }
        .spawningMap-rare { fill: #F60; }
        .spawningMap-very-rare { fill: #F00; }
        .spawning-map-point { stroke:black; stroke-width:1; }
    </style>
    <pattern id="pattern-untameable" width="10" height="10" patternTransform="rotate(135)" patternUnits="userSpaceOnUse">
        <rect width="4" height="10" fill="black"></rect>
    </pattern>
    <filter id="groupStroke">
        <feFlood result="outsideColor" flood-color="black"/>
        <feMorphology in="SourceAlpha" operator="dilate" radius="2"/>
        <feComposite result="strokeoutline1" in="outsideColor" operator="in"/>
        <feComposite result="strokeoutline2" in="strokeoutline1" in2="SourceAlpha" operator="out"/>
        <feGaussianBlur in="strokeoutline2" result="strokeblur" stdDeviation="1"/>
    </filter>
</defs>
<g filter="url(#blur)" opacity="0.7">
    <g class="spawningMap-common">
        <rect x="125" y="265" width="11" height="11" />
        <rect x="125" y="271" width="11" height="11" />
        <rect x="119" y="260" width="12" height="11" />
        <rect x="159" y="248" width="11" height="11" />
        <rect x="165" y="248" width="11" height="11" />
        <rect x="148" y="254" width="11" height="11" />
        <rect x="148" y="259" width="11" height="12" />
        <rect x="165" y="254" width="11" height="11" />
        <rect x="159" y="259" width="11" height="12" />
        <rect x="165" y="259" width="11" height="12" />
        <rect x="159" y="254" width="11" height="11" />
        <rect x="154" y="254" width="11" height="11" />
        <rect x="154" y="259" width="11" height="12" />
        <rect x="125" y="248" width="11" height="11" />
        <rect x="142" y="248" width="11" height="11" />
        <rect x="125" y="254" width="11" height="11" />
        <rect x="131" y="254" width="11" height="11" />
        <rect x="125" y="259" width="11" height="12" />
        <rect x="131" y="259" width="11" height="12" />
        <rect x="136" y="254" width="12" height="11" />
        <rect x="142" y="254" width="11" height="11" />
        <rect x="136" y="248" width="12" height="11" />
        <rect x="136" y="259" width="12" height="12" />
        <rect x="142" y="259" width="11" height="12" />
        <rect x="131" y="248" width="11" height="11" />
        <rect x="154" y="265" width="11" height="12" />
        <rect x="159" y="265" width="11" height="12" />
        <rect x="154" y="271" width="11" height="11" />
        <rect x="159" y="271" width="11" height="11" />
        <rect x="165" y="265" width="11" height="12" />
        <rect x="171" y="265" width="11" height="12" />
        <rect x="171" y="271" width="11" height="11" />
        <rect x="176" y="259" width="12" height="12" />
        <rect x="176" y="265" width="12" height="12" />
        <rect x="131" y="265" width="11" height="12" />
        <rect x="136" y="265" width="12" height="12" />
        <rect x="131" y="271" width="11" height="11" />
        <rect x="136" y="271" width="12" height="11" />
        <rect x="142" y="265" width="11" height="12" />
        <rect x="148" y="265" width="11" height="12" />
        <rect x="142" y="271" width="11" height="11" />
        <rect x="148" y="271" width="11" height="11" />
        <rect x="119" y="265" width="11" height="11" />
        <rect x="119" y="271" width="11" height="11" />
        <rect x="119" y="254" width="11" height="11" />
        <rect x="176" y="271" width="12" height="11" />
        <rect x="176" y="254" width="12" height="11" />
        <rect x="108" y="271" width="11" height="11" />
        <rect x="91" y="271" width="11" height="11" />
        <rect x="171" y="259" width="11" height="12" />
        <rect x="171" y="254" width="11" height="11" />
        <rect x="171" y="248" width="11" height="11" />
        <rect x="114" y="265" width="11" height="11" />
        <rect x="114" y="271" width="11" height="11" />
        <rect x="97" y="271" width="11" height="11" />
        <rect x="102" y="271" width="11" height="11" />
        <rect x="188" y="259" width="11" height="12" />
        <rect x="188" y="265" width="11" height="11" />
        <rect x="194" y="259" width="11" height="12" />
        <rect x="216" y="271" width="11" height="11" />
        <rect x="182" y="259" width="11" height="12" />
        <rect x="182" y="265" width="11" height="11" />
        <rect x="194" y="271" width="11" height="11" />
        <rect x="188" y="271" width="11" height="11" />
        <rect x="182" y="271" width="11" height="11" />
        <rect x="194" y="265" width="11" height="12" />
        <rect x="199" y="254" width="11" height="11" />
        <rect x="193" y="254" width="12" height="11" />
        <rect x="188" y="254" width="11" height="11" />
        <rect x="199" y="248" width="11" height="11" />
        <rect x="134" y="242" width="11" height="11" />
        <rect x="148" y="248" width="11" height="11" />
        <rect x="154" y="248" width="11" height="11" />
        <rect x="165" y="271" width="11" height="11" />
        <rect x="182" y="248" width="11" height="11" />
        <rect x="182" y="254" width="11" height="11" />
        <rect x="134" y="164" width="18" height="9" />
        <rect x="144" y="157" width="9" height="13" />
        <rect x="154" y="173" width="11" height="11" />
        <rect x="154" y="184" width="11" height="12" />
        <rect x="242" y="175" width="10" height="11" />
        <rect x="205" y="175" width="13" height="11" />
        <rect x="207" y="169" width="11" height="11" />
        <rect x="201" y="169" width="11" height="11" />
        <rect x="135" y="178" width="12" height="11" />
        <rect x="141" y="178" width="12" height="11" />
        <rect x="149" y="178" width="12" height="11" />
        <rect x="147" y="167" width="12" height="11" />
        <rect x="147" y="162" width="12" height="11" />
        <rect x="147" y="156" width="12" height="11" />
        <rect x="154" y="167" width="11" height="11" />
        <rect x="154" y="161" width="11" height="12" />
        <rect x="154" y="179" width="11" height="11" />
        <rect x="158" y="187" width="11" height="11" />
        <rect x="187" y="161" width="11" height="11" />
        <rect x="182" y="155" width="12" height="12" />
        <rect x="180" y="150" width="12" height="11" />
        <rect x="236" y="167" width="12" height="11" />
        <rect x="230" y="167" width="12" height="11" />
        <rect x="224" y="167" width="12" height="11" />
        <rect x="242" y="167" width="10" height="11" />
        <rect x="236" y="173" width="12" height="11" />
        <rect x="230" y="173" width="12" height="11" />
        <rect x="224" y="173" width="12" height="11" />
        <rect x="234" y="179" width="12" height="11" />
        <rect x="228" y="179" width="12" height="11" />
        <rect x="222" y="179" width="11" height="11" />
    </g>
    <g class="spawningMap-very-common">
        <rect x="251" y="277" width="11" height="8" />
        <rect x="256" y="277" width="12" height="8" />
        <rect x="245" y="277" width="11" height="8" />
        <rect x="154" y="277" width="11" height="9" />
        <rect x="159" y="277" width="11" height="9" />
        <rect x="171" y="277" width="11" height="9" />
        <rect x="165" y="277" width="11" height="9" />
        <rect x="176" y="277" width="12" height="9" />
        <rect x="182" y="277" width="11" height="9" />
        <rect x="108" y="277" width="11" height="9" />
        <rect x="114" y="277" width="11" height="9" />
        <rect x="119" y="277" width="11" height="9" />
        <rect x="131" y="277" width="11" height="9" />
        <rect x="125" y="277" width="11" height="9" />
        <rect x="97" y="277" width="11" height="8" />
        <rect x="239" y="260" width="12" height="11" />
        <rect x="233" y="260" width="12" height="11" />
        <rect x="228" y="260" width="11" height="11" />
        <rect x="222" y="260" width="11" height="11" />
        <rect x="228" y="271" width="11" height="11" />
        <rect x="228" y="265" width="11" height="11" />
        <rect x="222" y="265" width="11" height="11" />
        <rect x="245" y="265" width="11" height="12" />
        <rect x="222" y="271" width="11" height="11" />
        <rect x="251" y="271" width="11" height="11" />
        <rect x="245" y="271" width="11" height="11" />
        <rect x="239" y="248" width="11" height="11" />
        <rect x="239" y="254" width="11" height="11" />
        <rect x="233" y="254" width="11" height="11" />
        <rect x="227" y="254" width="12" height="11" />
        <rect x="222" y="254" width="11" height="11" />
        <rect x="251" y="265" width="11" height="12" />
        <rect x="233" y="271" width="12" height="11" />
        <rect x="239" y="271" width="12" height="11" />
        <rect x="233" y="265" width="12" height="12" />
        <rect x="239" y="265" width="12" height="12" />
        <rect x="234" y="277" width="11" height="8" />
        <rect x="239" y="277" width="11" height="8" />
        <rect x="228" y="277" width="11" height="8" />
        <rect x="222" y="277" width="11" height="8" />
        <rect x="136" y="277" width="12" height="9" />
        <rect x="148" y="277" width="11" height="9" />
        <rect x="142" y="277" width="11" height="9" />
        <rect x="32" y="111" width="6" height="7" />
        <rect x="32" y="111" width="6" height="6" />
        <rect x="117" y="179" width="12" height="11" />
        <rect x="123" y="173" width="12" height="11" />
        <rect x="135" y="173" width="12" height="11" />
        <rect x="147" y="209" width="12" height="11" />
        <rect x="141" y="202" width="11" height="11" />
        <rect x="123" y="184" width="12" height="12" />
        <rect x="129" y="184" width="12" height="12" />
        <rect x="129" y="179" width="12" height="11" />
        <rect x="117" y="173" width="12" height="11" />
        <rect x="129" y="173" width="12" height="11" />
        <rect x="129" y="167" width="12" height="11" />
        <rect x="123" y="179" width="12" height="11" />
        <rect x="135" y="167" width="12" height="11" />
        <rect x="141" y="167" width="12" height="11" />
        <rect x="141" y="173" width="12" height="11" />
        <rect x="147" y="173" width="12" height="11" />
        <rect x="135" y="184" width="12" height="11" />
        <rect x="141" y="183" width="12" height="11" />
        <rect x="147" y="186" width="12" height="11" />
        <rect x="147" y="192" width="12" height="11" />
        <rect x="147" y="197" width="12" height="11" />
        <rect x="153" y="192" width="12" height="11" />
        <rect x="153" y="197" width="12" height="11" />
        <rect x="153" y="209" width="12" height="11" />
        <rect x="147" y="203" width="12" height="11" />
        <rect x="153" y="203" width="12" height="11" />
        <rect x="159" y="204" width="12" height="11" />
        <rect x="164" y="198" width="12" height="11" />
        <rect x="160" y="192" width="11" height="12" />
        <rect x="62" y="171" width="11" height="11" />
        <rect x="68" y="171" width="11" height="11" />
        <rect x="71" y="175" width="11" height="12" />
        <rect x="81" y="184" width="11" height="11" />
        <rect x="82" y="190" width="11" height="11" />
        <rect x="83" y="196" width="11" height="11" />
        <rect x="86" y="201" width="11" height="12" />
    </g>
    <g class="spawningMap-uncommon">
        <rect x="113" y="170" width="14" height="16" />
    </g>
    <g class="spawningMap-very-uncommon">
        <rect x="168" y="201" width="17" height="19" />
    </g></g>
<g fill="url(#pattern-untameable)" opacity="0.3">
        <rect x="32" y="111" width="6" height="7" />
        <rect x="32" y="111" width="6" height="6" />
</g>
<g filter="url(#groupStroke)" opacity="0.8">
        <rect x="32" y="111" width="6" height="7" />
        <rect x="32" y="111" width="6" height="6" />
</g>
<g class="spawning-map-point" opacity="0.8">
    <g class="spawningMap-very-common">
        <circle cx="161" cy="90" r="4.0" />
        <circle cx="161" cy="90" r="4.0" />
        <circle cx="161" cy="91" r="4.0" />
        <circle cx="220" cy="177" r="4.0" />
        <circle cx="220" cy="177" r="4.0" />
        <circle cx="219" cy="173" r="4.0" />
        <circle cx="219" cy="172" r="4.0" />
        <circle cx="224" cy="177" r="4.0" />
        <circle cx="225" cy="176" r="4.0" />
        <circle cx="224" cy="176" r="4.0" />
        <circle cx="224" cy="178" r="4.0" />
        <circle cx="224" cy="178" r="4.0" />
        <circle cx="226" cy="178" r="4.0" />
        <circle cx="226" cy="178" r="4.0" />
        <circle cx="167" cy="90" r="4.0" />
        <circle cx="167" cy="89" r="4.0" />
        <circle cx="167" cy="89" r="4.0" />
        <circle cx="166" cy="90" r="4.0" />
        <circle cx="222" cy="173" r="4.0" />
        <circle cx="223" cy="174" r="4.0" />
        <circle cx="220" cy="171" r="4.0" />
        <circle cx="220" cy="171" r="4.0" />
        <circle cx="219" cy="171" r="4.0" />
        <circle cx="220" cy="170" r="4.0" />
        <circle cx="219" cy="176" r="4.0" />
        <circle cx="219" cy="175" r="4.0" />
        <circle cx="219" cy="177" r="4.0" />
        <circle cx="219" cy="178" r="4.0" />
        <circle cx="220" cy="179" r="4.0" />
        <circle cx="178" cy="185" r="4.0" />
        <circle cx="178" cy="185" r="4.0" />
        <circle cx="177" cy="186" r="4.0" />
        <circle cx="177" cy="185" r="4.0" />
        <circle cx="177" cy="185" r="4.0" />
        <circle cx="177" cy="182" r="4.0" />
        <circle cx="178" cy="182" r="4.0" />
        <circle cx="178" cy="182" r="4.0" />
        <circle cx="178" cy="183" r="4.0" />
        <circle cx="176" cy="183" r="4.0" />
        <circle cx="176" cy="183" r="4.0" />
        <circle cx="177" cy="183" r="4.0" />
        <circle cx="177" cy="184" r="4.0" />
        <circle cx="252" cy="265" r="4.0" />
        <circle cx="252" cy="265" r="4.0" />
        <circle cx="251" cy="265" r="4.0" />
        <circle cx="251" cy="265" r="4.0" />
        <circle cx="222" cy="179" r="4.0" />
        <circle cx="223" cy="178" r="4.0" />
        <circle cx="158" cy="90" r="4.0" />
        <circle cx="159" cy="90" r="4.0" />
        <circle cx="158" cy="91" r="4.0" />
        <circle cx="159" cy="91" r="4.0" />
        <circle cx="159" cy="91" r="4.0" />
        <circle cx="250" cy="266" r="4.0" />
        <circle cx="250" cy="265" r="4.0" />
        <circle cx="250" cy="266" r="4.0" />
        <circle cx="248" cy="269" r="4.0" />
        <circle cx="248" cy="268" r="4.0" />
        <circle cx="249" cy="269" r="4.0" />
        <circle cx="249" cy="268" r="4.0" />
        <circle cx="250" cy="268" r="4.0" />
        <circle cx="249" cy="268" r="4.0" />
        <circle cx="248" cy="268" r="4.0" />
        <circle cx="248" cy="267" r="4.0" />
        <circle cx="164" cy="91" r="4.0" />
        <circle cx="164" cy="91" r="4.0" />
        <circle cx="163" cy="91" r="4.0" />
        <circle cx="163" cy="90" r="4.0" />
        <circle cx="219" cy="175" r="4.0" />
        <circle cx="220" cy="175" r="4.0" />
        <circle cx="220" cy="176" r="4.0" />
        <circle cx="219" cy="174" r="4.0" />
        <circle cx="246" cy="269" r="4.0" />
        <circle cx="247" cy="269" r="4.0" />
        <circle cx="247" cy="269" r="4.0" />
        <circle cx="248" cy="269" r="4.0" />
        <circle cx="242" cy="269" r="4.0" />
        <circle cx="243" cy="269" r="4.0" />
        <circle cx="243" cy="269" r="4.0" />
        <circle cx="244" cy="269" r="4.0" />
        <circle cx="245" cy="267" r="4.0" />
        <circle cx="245" cy="267" r="4.0" />
        <circle cx="245" cy="267" r="4.0" />
        <circle cx="246" cy="267" r="4.0" />
        <circle cx="247" cy="267" r="4.0" />
        <circle cx="133" cy="181" r="4.0" />
        <circle cx="134" cy="181" r="4.0" />
        <circle cx="134" cy="182" r="4.0" />
        <circle cx="133" cy="182" r="4.0" />
        <circle cx="132" cy="182" r="4.0" />
        <circle cx="134" cy="182" r="4.0" />
        <circle cx="134" cy="182" r="4.0" />
        <circle cx="134" cy="182" r="4.0" />
        <circle cx="133" cy="182" r="4.0" />
        <circle cx="132" cy="181" r="4.0" />
    </g></g>
</svg>