<svg xmlns="http://www.w3.org/2000/svg" width="300" height="300" viewBox="0 0 300 300" class="creatureMap" style="position:absolute;">
<defs>
<filter id="blur" x="-30%" y="-30%" width="160%" height="160%"><feGaussianBlur stdDeviation="3" />
</filter>
<pattern id="pattern-untameable" width="10" height="10" patternTransform="rotate(135)" patternUnits="userSpaceOnUse"><rect width="4" height="10" fill="black"></rect>
</pattern>
<filter id="groupStroke"><feFlood result="outsideColor" flood-color="black"/><feMorphology in="SourceAlpha" operator="dilate" radius="2"/><feComposite result="strokeoutline1" in="outsideColor" operator="in"/><feComposite result="strokeoutline2" in="strokeoutline1" in2="SourceAlpha" operator="out"/><feGaussianBlur in="strokeoutline2" result="strokeblur" stdDeviation="1"/>
</filter>
<style>
.spawningMap-very-common { fill: #0F0;}
.spawningMap-common { fill: #B2FF00;}
.spawningMap-uncommon { fill: #FF0;}
.spawningMap-very-uncommon { fill: #FC0;}
.spawningMap-rare { fill: #F60;}
.spawningMap-very-rare { fill: #F00; }.spawning-map-point {stroke:black; stroke-width:1;}
</style>
</defs>
<g filter="url(#blur)" opacity="0.7">
<g class="spawningMap-rare"><rect x="155" y="99" width="45" height="18" /><rect x="213" y="163" width="15" height="15" /><rect x="139" y="78" width="15" height="15" /><rect x="138" y="64" width="14" height="15" /><rect x="212" y="173" width="8" height="8" /><rect x="230" y="174" width="9" height="7" /><rect x="212" y="102" width="8" height="8" /><rect x="221" y="96" width="8" height="7" /><rect x="221" y="174" width="8" height="7" /><rect x="124" y="64" width="15" height="15" /><rect x="109" y="64" width="15" height="15" /><rect x="196" y="131" width="15" height="15" /><rect x="109" y="78" width="15" height="15" /><rect x="181" y="131" width="15" height="15" /><rect x="203" y="105" width="8" height="8" /><rect x="199" y="93" width="9" height="8" /><rect x="199" y="84" width="9" height="8" /><rect x="166" y="131" width="15" height="15" /><rect x="151" y="131" width="15" height="15" /><rect x="138" y="103" width="15" height="14" /><rect x="153" y="103" width="15" height="14" /><rect x="168" y="103" width="15" height="14" /><rect x="183" y="61" width="15" height="15" /><rect x="168" y="61" width="15" height="15" /><rect x="153" y="62" width="15" height="15" /><rect x="198" y="86" width="15" height="15" /><rect x="213" y="86" width="15" height="15" /><rect x="213" y="101" width="15" height="15" /><rect x="124" y="78" width="15" height="15" /><rect x="213" y="117" width="15" height="14" /><rect x="213" y="133" width="15" height="14" /><rect x="213" y="148" width="15" height="15" />
</g>
<g class="spawningMap-very-uncommon"><rect x="153" y="51" width="9" height="8" /><rect x="221" y="130" width="8" height="8" /><rect x="146" y="35" width="9" height="7" /><rect x="182" y="30" width="8" height="7" /><rect x="138" y="118" width="15" height="15" /><rect x="183" y="97" width="15" height="15" />
</g>
<g class="spawningMap-uncommon"><rect x="25" y="96" width="9" height="7" /><rect x="198" y="100" width="8" height="8" /><rect x="25" y="104" width="9" height="8" />
</g>
</g>
<g class="spawning-map-point" opacity="0.8">
</g>
</svg>