<svg xmlns="http://www.w3.org/2000/svg" width="300" height="300" viewBox="0 0 300 300" class="creatureMap" style="position:absolute;">
<defs>
<filter id="blur" x="-30%" y="-30%" width="160%" height="160%"><feGaussianBlur stdDeviation="3" />
</filter>
<pattern id="pattern-untameable" width="10" height="10" patternTransform="rotate(135)" patternUnits="userSpaceOnUse"><rect width="4" height="10" fill="black"></rect>
</pattern>
<filter id="groupStroke"><feFlood result="outsideColor" flood-color="black"/><feMorphology in="SourceAlpha" operator="dilate" radius="2"/><feComposite result="strokeoutline1" in="outsideColor" operator="in"/><feComposite result="strokeoutline2" in="strokeoutline1" in2="SourceAlpha" operator="out"/><feGaussianBlur in="strokeoutline2" result="strokeblur" stdDeviation="1"/>
</filter>
<style>
.spawningMap-very-common { fill: #0F0;}
.spawningMap-common { fill: #B2FF00;}
.spawningMap-uncommon { fill: #FF0;}
.spawningMap-very-uncommon { fill: #FC0;}
.spawningMap-rare { fill: #F60;}
.spawningMap-very-rare { fill: #F00; }.spawning-map-point {stroke:black; stroke-width:1;}
</style>
</defs>
<g filter="url(#blur)" opacity="0.7">
<g class="spawningMap-very-uncommon"><rect x="99" y="65" width="11" height="11" /><rect x="111" y="65" width="10" height="11" /><rect x="111" y="76" width="10" height="11" /><rect x="99" y="88" width="11" height="10" /><rect x="111" y="88" width="10" height="10" /><rect x="99" y="99" width="11" height="11" /><rect x="111" y="99" width="10" height="11" /><rect x="99" y="111" width="11" height="10" /><rect x="111" y="111" width="10" height="10" /><rect x="122" y="65" width="10" height="11" /><rect x="134" y="65" width="10" height="11" /><rect x="156" y="65" width="11" height="11" /><rect x="134" y="76" width="10" height="11" /><rect x="134" y="88" width="10" height="10" /><rect x="156" y="88" width="11" height="10" /><rect x="122" y="99" width="10" height="11" /><rect x="156" y="99" width="11" height="11" /><rect x="122" y="111" width="10" height="10" /><rect x="145" y="111" width="10" height="10" /><rect x="168" y="111" width="10" height="10" /><rect x="179" y="76" width="11" height="11" /><rect x="179" y="88" width="11" height="10" /><rect x="190" y="88" width="11" height="10" /><rect x="179" y="99" width="11" height="11" /><rect x="190" y="99" width="11" height="11" /><rect x="179" y="111" width="11" height="10" /><rect x="190" y="111" width="11" height="10" /><rect x="54" y="134" width="10" height="10" /><rect x="42" y="145" width="11" height="10" /><rect x="54" y="145" width="10" height="10" /><rect x="31" y="156" width="10" height="11" /><rect x="42" y="156" width="11" height="11" /><rect x="54" y="156" width="10" height="11" /><rect x="65" y="122" width="11" height="10" /><rect x="99" y="122" width="11" height="10" /><rect x="111" y="122" width="10" height="10" /><rect x="65" y="134" width="11" height="10" /><rect x="76" y="134" width="11" height="10" /><rect x="88" y="134" width="10" height="10" /><rect x="99" y="134" width="11" height="10" /><rect x="111" y="134" width="10" height="10" /><rect x="65" y="145" width="11" height="10" /><rect x="76" y="145" width="11" height="10" /><rect x="88" y="145" width="10" height="10" /><rect x="99" y="145" width="11" height="10" /><rect x="111" y="145" width="10" height="10" /><rect x="65" y="156" width="11" height="11" /><rect x="76" y="156" width="11" height="11" /><rect x="88" y="156" width="10" height="11" /><rect x="99" y="156" width="11" height="11" /><rect x="111" y="156" width="10" height="11" /><rect x="65" y="168" width="11" height="10" /><rect x="76" y="168" width="11" height="10" /><rect x="88" y="168" width="10" height="10" /><rect x="99" y="168" width="11" height="10" /><rect x="145" y="122" width="10" height="10" /><rect x="168" y="122" width="10" height="10" /><rect x="122" y="134" width="10" height="10" /><rect x="168" y="134" width="10" height="10" /><rect x="122" y="145" width="10" height="10" /><rect x="134" y="145" width="10" height="10" /><rect x="168" y="145" width="10" height="10" /><rect x="122" y="156" width="10" height="11" /><rect x="134" y="156" width="10" height="11" /><rect x="156" y="156" width="11" height="11" /><rect x="168" y="168" width="10" height="10" /><rect x="179" y="122" width="11" height="10" /><rect x="202" y="122" width="10" height="10" /><rect x="213" y="122" width="11" height="10" /><rect x="213" y="134" width="11" height="10" /><rect x="225" y="134" width="10" height="10" /><rect x="213" y="145" width="11" height="10" /><rect x="179" y="156" width="11" height="11" /><rect x="225" y="156" width="10" height="11" /><rect x="179" y="168" width="11" height="10" /><rect x="65" y="179" width="11" height="11" /><rect x="111" y="202" width="10" height="10" /><rect x="65" y="213" width="11" height="11" /><rect x="76" y="213" width="11" height="11" /><rect x="122" y="202" width="10" height="10" /><rect x="134" y="202" width="10" height="10" /><rect x="156" y="225" width="11" height="10" /><rect x="168" y="225" width="10" height="10" /><rect x="213" y="190" width="11" height="11" /><rect x="225" y="190" width="10" height="11" /><rect x="225" y="202" width="10" height="10" /><rect x="225" y="213" width="10" height="11" /><rect x="179" y="225" width="11" height="10" /><rect x="190" y="225" width="11" height="10" /><rect x="202" y="225" width="10" height="10" /><rect x="213" y="225" width="11" height="10" /><rect x="225" y="225" width="10" height="10" /><rect x="236" y="190" width="10" height="11" /><rect x="247" y="190" width="11" height="11" /><rect x="259" y="190" width="10" height="11" /><rect x="236" y="202" width="10" height="10" /><rect x="247" y="202" width="11" height="10" /><rect x="259" y="202" width="10" height="10" /><rect x="247" y="213" width="11" height="11" /><rect x="168" y="236" width="10" height="10" /><rect x="156" y="247" width="11" height="11" /><rect x="168" y="247" width="10" height="11" /><rect x="145" y="270" width="10" height="11" /><rect x="179" y="236" width="11" height="10" /><rect x="202" y="236" width="10" height="10" /><rect x="134" y="42" width="10" height="11" /><rect x="122" y="42" width="10" height="11" /><rect x="111" y="54" width="10" height="10" /><rect x="168" y="31" width="10" height="10" /><rect x="111" y="42" width="10" height="11" /><rect x="88" y="42" width="10" height="11" /><rect x="111" y="31" width="10" height="10" /><rect x="99" y="31" width="11" height="10" /><rect x="156" y="31" width="11" height="10" /><rect x="88" y="31" width="10" height="10" /><rect x="99" y="20" width="11" height="10" /><rect x="88" y="20" width="10" height="10" /><rect x="156" y="42" width="11" height="11" /><rect x="122" y="54" width="10" height="10" /><rect x="134" y="54" width="10" height="10" /><rect x="156" y="54" width="11" height="10" /><rect x="134" y="31" width="10" height="10" /><rect x="122" y="31" width="10" height="10" /><rect x="8" y="20" width="11" height="10" />
</g>
<g class="spawningMap-uncommon"><rect x="225" y="145" width="10" height="10" /><rect x="236" y="145" width="10" height="10" /><rect x="213" y="236" width="11" height="10" /><rect x="99" y="213" width="11" height="11" /><rect x="111" y="225" width="10" height="10" /><rect x="99" y="225" width="11" height="10" /><rect x="111" y="213" width="10" height="11" />
</g>
</g>
<g class="spawning-map-point" opacity="0.8">
</g>
</svg>