<?xml version="1.0" encoding="utf-8"?>
<svg xmlns="http://www.w3.org/2000/svg" width="300" height="300"
        viewBox="0 0 300 300" class="creatureMap" style="position:absolute;">
    <defs>
        <filter id="blur" x="-30%" y="-30%" width="160%" height="160%">
            <feGaussianBlur stdDeviation="3" />
        </filter>
        <pattern id="pattern-untameable" width="10" height="10" patternTransform="rotate(135)" patternUnits="userSpaceOnUse">
            <rect width="4" height="10" fill="black"></rect>
        </pattern>
        <filter id="groupStroke">
            <feFlood result="outsideColor" flood-color="black"/>
            <feMorphology in="SourceAlpha" operator="dilate" radius="2"/>
            <feComposite result="strokeoutline1" in="outsideColor" operator="in"/>
            <feComposite result="strokeoutline2" in="strokeoutline1" in2="SourceAlpha" operator="out"/>
            <feGaussianBlur in="strokeoutline2" result="strokeblur" stdDeviation="1"/>
        </filter>
        <style>
            .spawningMap-very-common { fill: #0F0; }
            .spawningMap-common { fill: #B2FF00; }
            .spawningMap-uncommon { fill: #FF0; }
            .spawningMap-very-uncommon { fill: #FC0; }
            .spawningMap-rare { fill: #F60; }
            .spawningMap-very-rare { fill: #F00; }
            .spawning-map-point { stroke:black; stroke-width:1; }
        </style>
    </defs>

<g filter="url(#blur)" opacity="0.7">
<g class="spawningMap-very-rare">
<rect x="62" y="77" width="15" height="10" />
<rect x="112" y="72" width="15" height="11" />
<rect x="72" y="104" width="12" height="13" />
<rect x="105" y="56" width="14" height="12" />
<rect x="134" y="45" width="18" height="13" />
<rect x="149" y="175" width="12" height="19" />
<rect x="62" y="86" width="15" height="10" />
<rect x="152" y="72" width="15" height="13" />
<rect x="130" y="90" width="12" height="14" />
<rect x="53" y="84" width="14" height="12" />
<rect x="152" y="89" width="11" height="14" />
<rect x="161" y="98" width="17" height="10" />
<rect x="109" y="147" width="13" height="21" />
<rect x="98" y="164" width="18" height="13" />
<rect x="87" y="169" width="16" height="10" />
<rect x="74" y="205" width="15" height="18" />
<rect x="84" y="205" width="14" height="18" />
<rect x="98" y="182" width="23" height="10" />
<rect x="87" y="174" width="13" height="13" />
<rect x="103" y="174" width="15" height="13" />
<rect x="130" y="182" width="12" height="12" />
<rect x="123" y="203" width="12" height="12" />
<rect x="130" y="203" width="12" height="12" />
<rect x="113" y="203" width="15" height="12" />
<rect x="107" y="250" width="13" height="14" />
<rect x="123" y="226" width="13" height="13" />
<rect x="123" y="234" width="13" height="13" />
<rect x="123" y="242" width="13" height="13" />
<rect x="123" y="250" width="13" height="14" />
<rect x="136" y="208" width="15" height="15" />
<rect x="146" y="198" width="14" height="15" />
<rect x="62" y="64" width="12" height="12" />
<rect x="86" y="84" width="12" height="12" />
<rect x="112" y="77" width="12" height="12" />
<rect x="92" y="72" width="15" height="11" />
<rect x="86" y="104" width="12" height="12" />
<rect x="102" y="72" width="15" height="11" />
<rect x="79" y="104" width="12" height="12" />
<rect x="79" y="98" width="12" height="12" />
<rect x="82" y="68" width="15" height="10" />
<rect x="114" y="53" width="15" height="11" />
<rect x="114" y="68" width="15" height="10" />
<rect x="158" y="47" width="15" height="21" />
<rect x="114" y="63" width="15" height="10" />
<rect x="105" y="63" width="14" height="10" />
<rect x="62" y="70" width="12" height="12" />
<rect x="114" y="58" width="15" height="10" />
<rect x="124" y="45" width="14" height="13" />
<rect x="114" y="49" width="15" height="10" />
<rect x="104" y="68" width="15" height="10" />
<rect x="152" y="80" width="15" height="14" />
<rect x="114" y="44" width="15" height="10" />
<rect x="177" y="63" width="14" height="14" />
<rect x="137" y="85" width="15" height="19" />
<rect x="56" y="64" width="12" height="12" />
<rect x="151" y="60" width="12" height="17" />
<rect x="143" y="54" width="20" height="11" />
<rect x="143" y="60" width="13" height="17" />
<rect x="140" y="72" width="17" height="13" />
<rect x="140" y="80" width="17" height="10" />
<rect x="147" y="85" width="10" height="19" />
<rect x="137" y="99" width="17" height="9" />
<rect x="149" y="98" width="17" height="10" />
<rect x="77" y="54" width="11" height="15" />
<rect x="69" y="64" width="9" height="18" />
<rect x="82" y="54" width="12" height="12" />
<rect x="62" y="81" width="15" height="10" />
<rect x="86" y="77" width="12" height="12" />
<rect x="99" y="77" width="12" height="12" />
<rect x="106" y="77" width="12" height="12" />
<rect x="82" y="72" width="15" height="11" />
<rect x="133" y="53" width="15" height="20" />
<rect x="109" y="131" width="13" height="21" />
<rect x="101" y="131" width="13" height="21" />
<rect x="101" y="147" width="13" height="21" />
<rect x="72" y="98" width="12" height="12" />
<rect x="72" y="91" width="12" height="12" />
<rect x="114" y="124" width="12" height="12" />
<rect x="108" y="124" width="12" height="12" />
<rect x="101" y="124" width="12" height="12" />
<rect x="94" y="131" width="12" height="12" />
<rect x="158" y="63" width="15" height="14" />
<rect x="74" y="196" width="15" height="14" />
<rect x="84" y="196" width="14" height="14" />
<rect x="87" y="187" width="15" height="14" />
<rect x="97" y="187" width="15" height="14" />
<rect x="87" y="162" width="16" height="13" />
<rect x="82" y="61" width="12" height="12" />
<rect x="116" y="182" width="12" height="12" />
<rect x="123" y="182" width="12" height="12" />
<rect x="116" y="189" width="12" height="12" />
<rect x="123" y="189" width="12" height="12" />
<rect x="130" y="189" width="12" height="12" />
<rect x="113" y="196" width="15" height="12" />
<rect x="123" y="196" width="12" height="12" />
<rect x="130" y="196" width="12" height="12" />
<rect x="92" y="77" width="12" height="12" />
<rect x="117" y="218" width="14" height="13" />
<rect x="126" y="218" width="11" height="13" />
<rect x="107" y="226" width="13" height="13" />
<rect x="107" y="234" width="13" height="13" />
<rect x="107" y="242" width="13" height="13" />
<rect x="115" y="226" width="13" height="13" />
<rect x="115" y="234" width="13" height="13" />
<rect x="115" y="242" width="13" height="13" />
<rect x="115" y="250" width="13" height="14" />
<rect x="107" y="187" width="14" height="14" />
<rect x="136" y="189" width="15" height="15" />
<rect x="136" y="198" width="15" height="15" />
<rect x="146" y="189" width="14" height="15" />
<rect x="124" y="53" width="14" height="20" />
<rect x="149" y="161" width="12" height="19" />
</g>
</g>
<g fill="url(#pattern-untameable)" opacity="0.3">
<rect x="62" y="77" width="15" height="10"/>
<rect x="112" y="72" width="15" height="11"/>
<rect x="72" y="104" width="12" height="13"/>
<rect x="105" y="56" width="14" height="12"/>
<rect x="134" y="45" width="18" height="13"/>
<rect x="149" y="175" width="12" height="19"/>
<rect x="62" y="86" width="15" height="10"/>
<rect x="152" y="72" width="15" height="13"/>
<rect x="130" y="90" width="12" height="14"/>
<rect x="53" y="84" width="14" height="12"/>
<rect x="152" y="89" width="11" height="14"/>
<rect x="161" y="98" width="17" height="10"/>
<rect x="109" y="147" width="13" height="21"/>
<rect x="98" y="164" width="18" height="13"/>
<rect x="87" y="169" width="16" height="10"/>
<rect x="74" y="205" width="15" height="18"/>
<rect x="84" y="205" width="14" height="18"/>
<rect x="98" y="182" width="23" height="10"/>
<rect x="87" y="174" width="13" height="13"/>
<rect x="103" y="174" width="15" height="13"/>
<rect x="130" y="182" width="12" height="12"/>
<rect x="123" y="203" width="12" height="12"/>
<rect x="130" y="203" width="12" height="12"/>
<rect x="113" y="203" width="15" height="12"/>
<rect x="107" y="250" width="13" height="14"/>
<rect x="123" y="226" width="13" height="13"/>
<rect x="123" y="234" width="13" height="13"/>
<rect x="123" y="242" width="13" height="13"/>
<rect x="123" y="250" width="13" height="14"/>
<rect x="136" y="208" width="15" height="15"/>
<rect x="146" y="198" width="14" height="15"/>
<rect x="62" y="64" width="12" height="12"/>
<rect x="86" y="84" width="12" height="12"/>
<rect x="112" y="77" width="12" height="12"/>
<rect x="92" y="72" width="15" height="11"/>
<rect x="86" y="104" width="12" height="12"/>
<rect x="102" y="72" width="15" height="11"/>
<rect x="79" y="104" width="12" height="12"/>
<rect x="79" y="98" width="12" height="12"/>
<rect x="82" y="68" width="15" height="10"/>
<rect x="114" y="53" width="15" height="11"/>
<rect x="114" y="68" width="15" height="10"/>
<rect x="158" y="47" width="15" height="21"/>
<rect x="114" y="63" width="15" height="10"/>
<rect x="105" y="63" width="14" height="10"/>
<rect x="62" y="70" width="12" height="12"/>
<rect x="114" y="58" width="15" height="10"/>
<rect x="124" y="45" width="14" height="13"/>
<rect x="114" y="49" width="15" height="10"/>
<rect x="104" y="68" width="15" height="10"/>
<rect x="152" y="80" width="15" height="14"/>
<rect x="114" y="44" width="15" height="10"/>
<rect x="177" y="63" width="14" height="14"/>
<rect x="137" y="85" width="15" height="19"/>
<rect x="56" y="64" width="12" height="12"/>
<rect x="151" y="60" width="12" height="17"/>
<rect x="143" y="54" width="20" height="11"/>
<rect x="143" y="60" width="13" height="17"/>
<rect x="140" y="72" width="17" height="13"/>
<rect x="140" y="80" width="17" height="10"/>
<rect x="147" y="85" width="10" height="19"/>
<rect x="137" y="99" width="17" height="9"/>
<rect x="149" y="98" width="17" height="10"/>
<rect x="77" y="54" width="11" height="15"/>
<rect x="69" y="64" width="9" height="18"/>
<rect x="82" y="54" width="12" height="12"/>
<rect x="62" y="81" width="15" height="10"/>
<rect x="86" y="77" width="12" height="12"/>
<rect x="99" y="77" width="12" height="12"/>
<rect x="106" y="77" width="12" height="12"/>
<rect x="82" y="72" width="15" height="11"/>
<rect x="133" y="53" width="15" height="20"/>
<rect x="109" y="131" width="13" height="21"/>
<rect x="101" y="131" width="13" height="21"/>
<rect x="101" y="147" width="13" height="21"/>
<rect x="72" y="98" width="12" height="12"/>
<rect x="72" y="91" width="12" height="12"/>
<rect x="114" y="124" width="12" height="12"/>
<rect x="108" y="124" width="12" height="12"/>
<rect x="101" y="124" width="12" height="12"/>
<rect x="94" y="131" width="12" height="12"/>
<rect x="158" y="63" width="15" height="14"/>
<rect x="74" y="196" width="15" height="14"/>
<rect x="84" y="196" width="14" height="14"/>
<rect x="87" y="187" width="15" height="14"/>
<rect x="97" y="187" width="15" height="14"/>
<rect x="87" y="162" width="16" height="13"/>
<rect x="82" y="61" width="12" height="12"/>
<rect x="116" y="182" width="12" height="12"/>
<rect x="123" y="182" width="12" height="12"/>
<rect x="116" y="189" width="12" height="12"/>
<rect x="123" y="189" width="12" height="12"/>
<rect x="130" y="189" width="12" height="12"/>
<rect x="113" y="196" width="15" height="12"/>
<rect x="123" y="196" width="12" height="12"/>
<rect x="130" y="196" width="12" height="12"/>
<rect x="92" y="77" width="12" height="12"/>
<rect x="117" y="218" width="14" height="13"/>
<rect x="126" y="218" width="11" height="13"/>
<rect x="107" y="226" width="13" height="13"/>
<rect x="107" y="234" width="13" height="13"/>
<rect x="107" y="242" width="13" height="13"/>
<rect x="115" y="226" width="13" height="13"/>
<rect x="115" y="234" width="13" height="13"/>
<rect x="115" y="242" width="13" height="13"/>
<rect x="115" y="250" width="13" height="14"/>
<rect x="107" y="187" width="14" height="14"/>
<rect x="136" y="189" width="15" height="15"/>
<rect x="136" y="198" width="15" height="15"/>
<rect x="146" y="189" width="14" height="15"/>
<rect x="124" y="53" width="14" height="20"/>
<rect x="149" y="161" width="12" height="19"/>
</g>
</svg>