<?xml version="1.0" encoding="utf-8"?>
<svg xmlns="http://www.w3.org/2000/svg" width="300" height="300"
        viewBox="0 0 300 300" class="creatureMap" style="position:absolute;">
    <defs>
        <filter id="blur" x="-30%" y="-30%" width="160%" height="160%">
            <feGaussianBlur stdDeviation="3" />
        </filter>
        <pattern id="pattern-untameable" width="10" height="10" patternTransform="rotate(135)" patternUnits="userSpaceOnUse">
            <rect width="4" height="10" fill="black"></rect>
        </pattern>
        <filter id="groupStroke">
            <feFlood result="outsideColor" flood-color="black"/>
            <feMorphology in="SourceAlpha" operator="dilate" radius="2"/>
            <feComposite result="strokeoutline1" in="outsideColor" operator="in"/>
            <feComposite result="strokeoutline2" in="strokeoutline1" in2="SourceAlpha" operator="out"/>
            <feGaussianBlur in="strokeoutline2" result="strokeblur" stdDeviation="1"/>
        </filter>
        <style>
            .spawningMap-very-common { fill: #0F0; }
            .spawningMap-common { fill: #B2FF00; }
            .spawningMap-uncommon { fill: #FF0; }
            .spawningMap-very-uncommon { fill: #FC0; }
            .spawningMap-rare { fill: #F60; }
            .spawningMap-very-rare { fill: #F00; }
            .spawning-map-point { stroke:black; stroke-width:1; }
        </style>
    </defs>

<g filter="url(#blur)" opacity="0.7">
<g class="spawningMap-very-uncommon">
<rect x="60" y="225" width="12" height="14" />
<rect x="47" y="238" width="12" height="12" />
<rect x="74" y="225" width="12" height="14" />
<rect x="67" y="225" width="12" height="14" />
<rect x="81" y="225" width="12" height="12" />
<rect x="81" y="232" width="12" height="12" />
</g>
<g class="spawningMap-uncommon">
<rect x="133" y="244" width="12" height="13" />
<rect x="133" y="251" width="12" height="12" />
<rect x="47" y="214" width="12" height="16" />
<rect x="81" y="238" width="12" height="12" />
<rect x="162" y="181" width="12" height="12" />
<rect x="155" y="181" width="12" height="12" />
<rect x="206" y="238" width="12" height="12" />
<rect x="179" y="224" width="12" height="12" />
<rect x="193" y="156" width="12" height="13" />
<rect x="139" y="217" width="12" height="13" />
<rect x="159" y="231" width="12" height="12" />
<rect x="146" y="231" width="12" height="12" />
<rect x="139" y="231" width="12" height="12" />
<rect x="193" y="184" width="12" height="12" />
<rect x="193" y="190" width="12" height="12" />
<rect x="193" y="197" width="12" height="12" />
<rect x="186" y="211" width="12" height="12" />
<rect x="139" y="238" width="12" height="12" />
<rect x="146" y="217" width="12" height="13" />
<rect x="146" y="211" width="12" height="12" />
<rect x="153" y="211" width="12" height="12" />
<rect x="139" y="244" width="12" height="13" />
<rect x="139" y="251" width="12" height="12" />
<rect x="159" y="211" width="12" height="12" />
<rect x="213" y="238" width="12" height="12" />
<rect x="155" y="154" width="12" height="12" />
<rect x="162" y="168" width="12" height="12" />
<rect x="155" y="168" width="12" height="12" />
<rect x="60" y="65" width="17" height="19" />
<rect x="54" y="232" width="12" height="12" />
<rect x="47" y="225" width="12" height="12" />
<rect x="54" y="225" width="12" height="12" />
<rect x="199" y="177" width="12" height="12" />
<rect x="199" y="184" width="12" height="12" />
<rect x="199" y="190" width="12" height="12" />
<rect x="54" y="214" width="12" height="16" />
<rect x="199" y="197" width="12" height="12" />
<rect x="199" y="204" width="12" height="12" />
<rect x="193" y="204" width="12" height="12" />
<rect x="186" y="204" width="12" height="12" />
<rect x="199" y="211" width="12" height="12" />
<rect x="193" y="211" width="12" height="12" />
<rect x="199" y="217" width="12" height="13" />
<rect x="193" y="217" width="12" height="13" />
<rect x="47" y="232" width="12" height="12" />
<rect x="206" y="224" width="12" height="12" />
<rect x="199" y="224" width="12" height="12" />
<rect x="213" y="231" width="12" height="12" />
<rect x="206" y="231" width="12" height="12" />
<rect x="54" y="238" width="12" height="12" />
<rect x="60" y="234" width="12" height="16" />
<rect x="67" y="234" width="12" height="16" />
<rect x="74" y="234" width="12" height="16" />
<rect x="179" y="211" width="12" height="12" />
<rect x="179" y="217" width="12" height="13" />
<rect x="173" y="217" width="12" height="13" />
<rect x="173" y="224" width="12" height="12" />
<rect x="193" y="177" width="12" height="12" />
<rect x="193" y="170" width="12" height="12" />
<rect x="193" y="163" width="12" height="12" />
<rect x="162" y="154" width="12" height="12" />
<rect x="159" y="217" width="12" height="13" />
<rect x="153" y="217" width="12" height="13" />
<rect x="159" y="224" width="12" height="12" />
<rect x="153" y="224" width="12" height="12" />
<rect x="146" y="224" width="12" height="12" />
<rect x="139" y="224" width="12" height="12" />
<rect x="153" y="231" width="12" height="12" />
<rect x="153" y="238" width="12" height="12" />
<rect x="159" y="238" width="12" height="12" />
<rect x="159" y="244" width="12" height="13" />
<rect x="159" y="251" width="12" height="12" />
</g>
<g class="spawningMap-common">
<rect x="139" y="258" width="12" height="9" />
<rect x="82" y="45" width="14" height="16" />
</g>
<g class="spawningMap-very-common">
<rect x="91" y="246" width="12" height="12" />
</g>
</g>
<g fill="url(#pattern-untameable)" opacity="0.3">
<rect x="60" y="225" width="12" height="14"/>
<rect x="47" y="238" width="12" height="12"/>
<rect x="74" y="225" width="12" height="14"/>
<rect x="67" y="225" width="12" height="14"/>
<rect x="81" y="225" width="12" height="12"/>
<rect x="81" y="232" width="12" height="12"/>
<rect x="133" y="244" width="12" height="13"/>
<rect x="133" y="251" width="12" height="12"/>
<rect x="47" y="214" width="12" height="16"/>
<rect x="81" y="238" width="12" height="12"/>
<rect x="162" y="181" width="12" height="12"/>
<rect x="155" y="181" width="12" height="12"/>
<rect x="206" y="238" width="12" height="12"/>
<rect x="179" y="224" width="12" height="12"/>
<rect x="193" y="156" width="12" height="13"/>
<rect x="139" y="217" width="12" height="13"/>
<rect x="159" y="231" width="12" height="12"/>
<rect x="146" y="231" width="12" height="12"/>
<rect x="139" y="231" width="12" height="12"/>
<rect x="193" y="184" width="12" height="12"/>
<rect x="193" y="190" width="12" height="12"/>
<rect x="193" y="197" width="12" height="12"/>
<rect x="186" y="211" width="12" height="12"/>
<rect x="139" y="238" width="12" height="12"/>
<rect x="146" y="217" width="12" height="13"/>
<rect x="146" y="211" width="12" height="12"/>
<rect x="153" y="211" width="12" height="12"/>
<rect x="139" y="244" width="12" height="13"/>
<rect x="139" y="251" width="12" height="12"/>
<rect x="159" y="211" width="12" height="12"/>
<rect x="213" y="238" width="12" height="12"/>
<rect x="155" y="154" width="12" height="12"/>
<rect x="162" y="168" width="12" height="12"/>
<rect x="155" y="168" width="12" height="12"/>
<rect x="60" y="65" width="17" height="19"/>
<rect x="54" y="232" width="12" height="12"/>
<rect x="47" y="225" width="12" height="12"/>
<rect x="54" y="225" width="12" height="12"/>
<rect x="199" y="177" width="12" height="12"/>
<rect x="199" y="184" width="12" height="12"/>
<rect x="199" y="190" width="12" height="12"/>
<rect x="54" y="214" width="12" height="16"/>
<rect x="199" y="197" width="12" height="12"/>
<rect x="199" y="204" width="12" height="12"/>
<rect x="193" y="204" width="12" height="12"/>
<rect x="186" y="204" width="12" height="12"/>
<rect x="199" y="211" width="12" height="12"/>
<rect x="193" y="211" width="12" height="12"/>
<rect x="199" y="217" width="12" height="13"/>
<rect x="193" y="217" width="12" height="13"/>
<rect x="47" y="232" width="12" height="12"/>
<rect x="206" y="224" width="12" height="12"/>
<rect x="199" y="224" width="12" height="12"/>
<rect x="213" y="231" width="12" height="12"/>
<rect x="206" y="231" width="12" height="12"/>
<rect x="54" y="238" width="12" height="12"/>
<rect x="60" y="234" width="12" height="16"/>
<rect x="67" y="234" width="12" height="16"/>
<rect x="74" y="234" width="12" height="16"/>
<rect x="179" y="211" width="12" height="12"/>
<rect x="179" y="217" width="12" height="13"/>
<rect x="173" y="217" width="12" height="13"/>
<rect x="173" y="224" width="12" height="12"/>
<rect x="193" y="177" width="12" height="12"/>
<rect x="193" y="170" width="12" height="12"/>
<rect x="193" y="163" width="12" height="12"/>
<rect x="162" y="154" width="12" height="12"/>
<rect x="159" y="217" width="12" height="13"/>
<rect x="153" y="217" width="12" height="13"/>
<rect x="159" y="224" width="12" height="12"/>
<rect x="153" y="224" width="12" height="12"/>
<rect x="146" y="224" width="12" height="12"/>
<rect x="139" y="224" width="12" height="12"/>
<rect x="153" y="231" width="12" height="12"/>
<rect x="153" y="238" width="12" height="12"/>
<rect x="159" y="238" width="12" height="12"/>
<rect x="159" y="244" width="12" height="13"/>
<rect x="159" y="251" width="12" height="12"/>
<rect x="139" y="258" width="12" height="9"/>
<rect x="82" y="45" width="14" height="16"/>
<rect x="91" y="246" width="12" height="12"/>
</g>
</svg>