<svg xmlns="http://www.w3.org/2000/svg" width="300" height="300" viewBox="0 0 300 300" class="creatureMap" style="position:absolute;">
<defs>
<filter id="blur" x="-30%" y="-30%" width="160%" height="160%"><feGaussianBlur stdDeviation="3" />
</filter>
<pattern id="pattern-untameable" width="10" height="10" patternTransform="rotate(135)" patternUnits="userSpaceOnUse"><rect width="4" height="10" fill="black"></rect>
</pattern>
<filter id="groupStroke"><feFlood result="outsideColor" flood-color="black"/><feMorphology in="SourceAlpha" operator="dilate" radius="2"/><feComposite result="strokeoutline1" in="outsideColor" operator="in"/><feComposite result="strokeoutline2" in="strokeoutline1" in2="SourceAlpha" operator="out"/><feGaussianBlur in="strokeoutline2" result="strokeblur" stdDeviation="1"/>
</filter>
<style>
.spawningMap-very-common { fill: #0F0;}
.spawningMap-common { fill: #B2FF00;}
.spawningMap-uncommon { fill: #FF0;}
.spawningMap-very-uncommon { fill: #FC0;}
.spawningMap-rare { fill: #F60;}
.spawningMap-very-rare { fill: #F00; }.spawning-map-point {stroke:black; stroke-width:1;}
</style>
</defs>
<g filter="url(#blur)" opacity="0.7">
<g class="spawningMap-common"><rect x="111" y="225" width="11" height="10" /><rect x="145" y="103" width="10" height="11" /><rect x="127" y="119" width="11" height="11" /><rect x="143" y="142" width="10" height="10" /><rect x="146" y="152" width="10" height="11" /><rect x="156" y="136" width="10" height="11" /><rect x="214" y="200" width="11" height="11" /><rect x="212" y="227" width="11" height="11" /><rect x="190" y="207" width="10" height="11" /><rect x="184" y="196" width="10" height="11" /><rect x="145" y="42" width="10" height="11" /><rect x="150" y="67" width="10" height="10" /><rect x="149" y="77" width="10" height="11" /><rect x="145" y="93" width="11" height="10" />
</g>
<g class="spawningMap-very-common"><rect x="230" y="145" width="10" height="10" /><rect x="111" y="213" width="11" height="11" />
</g>
</g>
<g class="spawning-map-point" opacity="0.8">
</g>
</svg>