<?xml version="1.0" encoding="utf-8"?>
<svg xmlns="http://www.w3.org/2000/svg" width="300" height="300" viewBox="0 0 300 300" class="creatureMap" style="position:absolute;">
<defs>
    <filter id="blur" x="-30%" y="-30%" width="160%" height="160%">
        <feGaussianBlur stdDeviation="3" />
    </filter>
    <style>
        .spawningMap-very-common { fill: #0F0; }
        .spawningMap-common { fill: #B2FF00; }
        .spawningMap-uncommon { fill: #FF0; }
        .spawningMap-very-uncommon { fill: #FC0; }
        .spawningMap-rare { fill: #F60; }
        .spawningMap-very-rare { fill: #F00; }
        .spawning-map-point { stroke:black; stroke-width:1; }
    </style>
</defs>
<g class="spawning-map-point" opacity="0.8">
    <g class="spawningMap-very-uncommon">
        <circle cx="195" cy="97" r="4.0" />
        <circle cx="182" cy="97" r="4.0" />
        <circle cx="182" cy="95" r="4.0" />
        <circle cx="182" cy="93" r="4.0" />
        <circle cx="182" cy="94" r="4.0" />
        <circle cx="181" cy="92" r="4.0" />
        <circle cx="180" cy="92" r="4.0" />
        <circle cx="178" cy="89" r="4.0" />
        <circle cx="179" cy="88" r="4.0" />
        <circle cx="179" cy="86" r="4.0" />
        <circle cx="181" cy="87" r="4.0" />
        <circle cx="191" cy="96" r="4.0" />
        <circle cx="181" cy="86" r="4.0" />
        <circle cx="181" cy="83" r="4.0" />
        <circle cx="179" cy="83" r="4.0" />
        <circle cx="179" cy="81" r="4.0" />
        <circle cx="178" cy="80" r="4.0" />
        <circle cx="179" cy="79" r="4.0" />
        <circle cx="180" cy="78" r="4.0" />
        <circle cx="184" cy="79" r="4.0" />
        <circle cx="184" cy="77" r="4.0" />
        <circle cx="181" cy="97" r="4.0" />
        <circle cx="190" cy="98" r="4.0" />
        <circle cx="182" cy="98" r="4.0" />
        <circle cx="189" cy="98" r="4.0" />
        <circle cx="187" cy="97" r="4.0" />
        <circle cx="188" cy="97" r="4.0" />
        <circle cx="186" cy="100" r="4.0" />
        <circle cx="183" cy="96" r="4.0" />
        <circle cx="183" cy="97" r="4.0" />
    </g></g>
</svg>