<svg xmlns="http://www.w3.org/2000/svg" width="300" height="300" viewBox="0 0 300 300" class="creatureMap" style="position:absolute;">
<defs>
  <filter id="blur" x="-30%" y="-30%" width="160%" height="160%">
    <feGaussianBlur stdDeviation="3" />
</filter>
<pattern id="pattern-untameable" width="10" height="10" patternTransform="rotate(135)" patternUnits="userSpaceOnUse">
<rect width="4" height="10" fill="black"></rect>
</pattern><filter id="groupStroke"><feFlood result="outsideColor" flood-color="black"/><feMorphology in="SourceAlpha" operator="dilate" radius="2"/><feComposite result="strokeoutline1" in="outsideColor" operator="in"/><feComposite result="strokeoutline2" in="strokeoutline1" in2="SourceAlpha" operator="out"/><feGaussianBlur in="strokeoutline2" result="strokeblur" stdDeviation="1"/></filter><style>.spawningMap-very-common { fill: #0F0;}.spawningMap-common { fill: #B2FF00;}.spawningMap-uncommon { fill: #FF0;}.spawningMap-very-uncommon { fill: #FC0;}.spawningMap-rare { fill: #F60;}.spawningMap-very-rare { fill: #F00; }.spawning-map-point {stroke:black; stroke-width:1;}</style></defs>
<g filter="url(#blur)" opacity="0.7"><g class="spawningMap-rare"><rect x="278" y="177" width="12" height="11" /><rect x="234" y="162" width="12" height="12" /><rect x="234" y="155" width="12" height="11" /><rect x="242" y="162" width="11" height="12" /><rect x="242" y="155" width="11" height="11" /><rect x="242" y="170" width="11" height="11" /><rect x="249" y="162" width="11" height="12" /><rect x="249" y="155" width="11" height="11" /><rect x="249" y="170" width="11" height="11" /><rect x="256" y="162" width="12" height="12" /><rect x="256" y="155" width="12" height="11" /><rect x="256" y="170" width="12" height="11" /><rect x="234" y="147" width="12" height="12" /><rect x="229" y="133" width="12" height="11" /><rect x="227" y="147" width="11" height="12" /><rect x="227" y="140" width="11" height="12" /><rect x="234" y="101" width="12" height="11" /><rect x="245" y="79" width="12" height="11" /><rect x="245" y="71" width="12" height="12" /><rect x="245" y="64" width="12" height="12" /><rect x="245" y="57" width="12" height="11" /><rect x="253" y="64" width="11" height="12" /><rect x="253" y="57" width="11" height="11" /><rect x="253" y="93" width="11" height="12" /><rect x="253" y="86" width="11" height="12" /><rect x="253" y="108" width="11" height="12" /><rect x="253" y="101" width="11" height="11" /><rect x="245" y="103" width="12" height="12" /><rect x="245" y="96" width="12" height="12" /><rect x="260" y="102" width="11" height="11" /><rect x="260" y="94" width="11" height="12" /><rect x="245" y="116" width="12" height="11" /><rect x="245" y="123" width="12" height="11" /><rect x="253" y="123" width="11" height="11" /><rect x="255" y="130" width="11" height="12" /><rect x="234" y="93" width="12" height="12" /><rect x="242" y="177" width="11" height="11" /><rect x="249" y="177" width="11" height="11" /><rect x="256" y="177" width="12" height="11" /><rect x="264" y="155" width="11" height="11" /><rect x="271" y="155" width="12" height="11" /><rect x="278" y="155" width="12" height="11" /><rect x="264" y="148" width="11" height="11" /><rect x="271" y="148" width="12" height="11" /><rect x="278" y="148" width="12" height="11" /><rect x="264" y="140" width="11" height="12" /><rect x="271" y="140" width="12" height="12" /><rect x="278" y="140" width="12" height="12" /><rect x="264" y="133" width="11" height="11" /><rect x="271" y="133" width="12" height="11" /><rect x="278" y="133" width="12" height="11" /><rect x="264" y="125" width="11" height="12" /><rect x="271" y="125" width="12" height="12" /><rect x="278" y="125" width="12" height="12" /><rect x="264" y="177" width="11" height="11" /><rect x="271" y="177" width="12" height="11" /><rect x="264" y="170" width="11" height="11" /><rect x="271" y="170" width="12" height="11" /><rect x="278" y="170" width="12" height="11" /><rect x="264" y="162" width="11" height="12" /><rect x="271" y="162" width="12" height="12" /><rect x="278" y="162" width="12" height="12" /><rect x="275" y="87" width="11" height="11" /><rect x="275" y="80" width="11" height="11" /><rect x="282" y="87" width="12" height="11" /><rect x="282" y="80" width="12" height="11" /><rect x="286" y="125" width="11" height="12" /><rect x="234" y="140" width="12" height="12" /><rect x="219" y="140" width="12" height="12" /><rect x="234" y="108" width="12" height="12" /><rect x="253" y="79" width="11" height="11" /><rect x="253" y="71" width="11" height="12" /><rect x="253" y="116" width="11" height="11" /><rect x="247" y="130" width="12" height="12" /><rect x="255" y="138" width="11" height="11" /><rect x="242" y="86" width="11" height="12" /><rect x="267" y="118" width="12" height="12" /><rect x="275" y="118" width="11" height="12" /><rect x="282" y="118" width="12" height="12" /><rect x="260" y="118" width="11" height="12" /><rect x="275" y="111" width="11" height="11" /><rect x="282" y="111" width="12" height="11" /><rect x="260" y="111" width="11" height="11" /><rect x="275" y="103" width="11" height="12" /><rect x="282" y="103" width="12" height="12" /><rect x="267" y="96" width="12" height="12" /><rect x="275" y="96" width="11" height="12" /><rect x="282" y="96" width="12" height="12" /><rect x="260" y="87" width="11" height="11" /><rect x="267" y="87" width="12" height="11" /><rect x="260" y="80" width="11" height="11" /><rect x="267" y="80" width="12" height="11" /><rect x="260" y="72" width="11" height="12" /><rect x="267" y="72" width="12" height="12" /><rect x="275" y="72" width="11" height="12" /><rect x="286" y="133" width="11" height="11" /><rect x="286" y="161" width="11" height="11" /></g><g class="spawningMap-uncommon"><rect x="30" y="140" width="12" height="11" /><rect x="30" y="147" width="12" height="11" /><rect x="45" y="74" width="12" height="11" /><rect x="82" y="88" width="11" height="12" /><rect x="82" y="96" width="11" height="11" /><rect x="82" y="103" width="11" height="11" /><rect x="82" y="110" width="11" height="12" /><rect x="82" y="118" width="11" height="11" /><rect x="74" y="88" width="12" height="12" /><rect x="74" y="96" width="12" height="11" /><rect x="74" y="103" width="12" height="11" /><rect x="74" y="110" width="12" height="12" /><rect x="67" y="88" width="12" height="12" /><rect x="67" y="96" width="12" height="11" /><rect x="67" y="103" width="12" height="11" /><rect x="67" y="110" width="12" height="12" /><rect x="67" y="118" width="12" height="11" /><rect x="60" y="88" width="11" height="12" /><rect x="60" y="96" width="11" height="11" /><rect x="60" y="103" width="11" height="11" /><rect x="60" y="110" width="11" height="12" /><rect x="60" y="118" width="11" height="11" /><rect x="52" y="81" width="12" height="11" /><rect x="52" y="88" width="12" height="12" /><rect x="52" y="96" width="12" height="11" /><rect x="52" y="103" width="12" height="11" /><rect x="52" y="110" width="12" height="12" /><rect x="52" y="118" width="12" height="11" /><rect x="45" y="81" width="12" height="11" /><rect x="45" y="88" width="12" height="12" /><rect x="45" y="96" width="12" height="11" /><rect x="45" y="103" width="12" height="11" /><rect x="45" y="110" width="12" height="12" /><rect x="52" y="74" width="12" height="11" /><rect x="23" y="140" width="11" height="11" /><rect x="23" y="147" width="11" height="11" /><rect x="23" y="125" width="11" height="11" /><rect x="23" y="132" width="11" height="12" /><rect x="23" y="110" width="11" height="12" /><rect x="23" y="118" width="11" height="11" /><rect x="16" y="140" width="11" height="11" /><rect x="16" y="147" width="11" height="11" /><rect x="82" y="81" width="11" height="11" /><rect x="74" y="81" width="12" height="11" /><rect x="67" y="81" width="12" height="11" /><rect x="60" y="81" width="11" height="11" /><rect x="38" y="81" width="11" height="11" /><rect x="30" y="81" width="12" height="11" /><rect x="30" y="74" width="12" height="11" /><rect x="16" y="125" width="11" height="11" /><rect x="30" y="66" width="12" height="12" /><rect x="38" y="66" width="11" height="12" /><rect x="45" y="66" width="12" height="12" /><rect x="38" y="59" width="11" height="11" /><rect x="45" y="59" width="12" height="11" /><rect x="126" y="59" width="11" height="11" /><rect x="126" y="51" width="11" height="12" /><rect x="126" y="44" width="11" height="12" /><rect x="126" y="37" width="11" height="11" /><rect x="118" y="44" width="12" height="12" /><rect x="118" y="37" width="12" height="11" /><rect x="111" y="37" width="12" height="11" /><rect x="111" y="29" width="12" height="12" /><rect x="104" y="37" width="11" height="11" /><rect x="111" y="22" width="12" height="12" /><rect x="104" y="29" width="11" height="12" /><rect x="104" y="22" width="11" height="12" /><rect x="97" y="29" width="11" height="12" /><rect x="89" y="22" width="12" height="12" /><rect x="67" y="37" width="12" height="11" /><rect x="111" y="15" width="12" height="11" /><rect x="104" y="15" width="11" height="11" /><rect x="118" y="22" width="12" height="12" /><rect x="97" y="22" width="11" height="12" /><rect x="126" y="29" width="11" height="12" /><rect x="126" y="22" width="11" height="12" /><rect x="133" y="29" width="12" height="12" /><rect x="133" y="22" width="12" height="12" /><rect x="140" y="29" width="12" height="12" /><rect x="140" y="22" width="12" height="12" /><rect x="148" y="29" width="11" height="12" /><rect x="148" y="22" width="11" height="12" /><rect x="16" y="132" width="11" height="12" /><rect x="16" y="110" width="11" height="12" /><rect x="155" y="37" width="12" height="11" /><rect x="155" y="29" width="12" height="12" /><rect x="162" y="37" width="12" height="11" /><rect x="162" y="29" width="12" height="12" /><rect x="52" y="66" width="12" height="12" /><rect x="60" y="66" width="11" height="12" /><rect x="67" y="66" width="12" height="12" /><rect x="53" y="59" width="11" height="11" /><rect x="74" y="66" width="12" height="12" /><rect x="82" y="66" width="11" height="12" /><rect x="60" y="59" width="11" height="11" /><rect x="67" y="59" width="12" height="11" /><rect x="74" y="59" width="12" height="11" /><rect x="82" y="59" width="11" height="11" /><rect x="74" y="51" width="12" height="12" /><rect x="82" y="51" width="11" height="12" /><rect x="74" y="44" width="12" height="12" /><rect x="82" y="44" width="11" height="12" /><rect x="53" y="51" width="11" height="12" /><rect x="60" y="51" width="11" height="12" /><rect x="67" y="51" width="12" height="12" /><rect x="53" y="44" width="11" height="12" /><rect x="60" y="44" width="11" height="12" /><rect x="67" y="44" width="12" height="12" /><rect x="16" y="118" width="11" height="11" /><rect x="250" y="42" width="12" height="12" /><rect x="243" y="35" width="12" height="11" /><rect x="243" y="27" width="12" height="12" /><rect x="243" y="20" width="12" height="12" /><rect x="250" y="35" width="12" height="11" /><rect x="250" y="27" width="12" height="12" /><rect x="250" y="20" width="12" height="12" /><rect x="258" y="35" width="11" height="11" /><rect x="258" y="27" width="11" height="12" /><rect x="258" y="20" width="11" height="12" /><rect x="265" y="49" width="12" height="12" /><rect x="265" y="42" width="12" height="12" /><rect x="265" y="35" width="12" height="11" /><rect x="272" y="64" width="12" height="12" /><rect x="272" y="57" width="12" height="11" /><rect x="265" y="64" width="12" height="12" /><rect x="265" y="57" width="12" height="11" /><rect x="74" y="118" width="12" height="11" /><rect x="45" y="118" width="12" height="11" /><rect x="38" y="118" width="11" height="11" /><rect x="30" y="118" width="12" height="11" /><rect x="52" y="125" width="12" height="11" /><rect x="45" y="125" width="12" height="11" /><rect x="38" y="125" width="11" height="11" /><rect x="30" y="125" width="12" height="11" /><rect x="52" y="132" width="12" height="12" /><rect x="45" y="132" width="12" height="12" /><rect x="38" y="132" width="11" height="12" /><rect x="30" y="132" width="12" height="12" /><rect x="52" y="140" width="12" height="11" /><rect x="45" y="140" width="12" height="11" /><rect x="38" y="140" width="11" height="11" /><rect x="16" y="96" width="11" height="11" /><rect x="52" y="147" width="12" height="11" /><rect x="45" y="147" width="12" height="11" /><rect x="38" y="147" width="11" height="11" /><rect x="16" y="103" width="11" height="12" /><rect x="52" y="154" width="12" height="12" /><rect x="45" y="154" width="12" height="12" /><rect x="38" y="154" width="11" height="12" /><rect x="30" y="154" width="12" height="12" /><rect x="16" y="81" width="11" height="12" /><rect x="16" y="88" width="11" height="12" /><rect x="16" y="66" width="11" height="12" /><rect x="16" y="74" width="11" height="11" /><rect x="8" y="96" width="12" height="11" /><rect x="8" y="103" width="12" height="12" /><rect x="8" y="81" width="12" height="12" /><rect x="8" y="88" width="12" height="12" /><rect x="8" y="66" width="12" height="12" /><rect x="8" y="74" width="12" height="11" /><rect x="45" y="162" width="12" height="11" /><rect x="38" y="162" width="11" height="11" /><rect x="30" y="162" width="12" height="11" /><rect x="30" y="59" width="12" height="11" /><rect x="38" y="51" width="11" height="12" /><rect x="45" y="51" width="12" height="12" /><rect x="30" y="51" width="12" height="12" /><rect x="38" y="44" width="11" height="12" /><rect x="45" y="44" width="12" height="12" /><rect x="30" y="44" width="12" height="12" /><rect x="16" y="44" width="11" height="12" /><rect x="23" y="44" width="12" height="12" /><rect x="8" y="44" width="12" height="12" /><rect x="16" y="51" width="11" height="12" /><rect x="23" y="51" width="12" height="12" /><rect x="8" y="51" width="12" height="12" /><rect x="16" y="37" width="11" height="11" /><rect x="23" y="37" width="12" height="11" /><rect x="8" y="37" width="12" height="11" /><rect x="272" y="49" width="12" height="12" /><rect x="258" y="59" width="11" height="12" /><rect x="258" y="52" width="11" height="11" /><rect x="38" y="37" width="11" height="11" /><rect x="45" y="37" width="12" height="11" /><rect x="30" y="37" width="12" height="11" /><rect x="89" y="44" width="12" height="12" /><rect x="75" y="37" width="11" height="11" /><rect x="82" y="37" width="11" height="11" /><rect x="89" y="37" width="12" height="11" /><rect x="89" y="74" width="12" height="11" /><rect x="118" y="29" width="12" height="12" /><rect x="97" y="37" width="11" height="11" /><rect x="89" y="29" width="12" height="12" /><rect x="82" y="29" width="11" height="12" /><rect x="111" y="7" width="12" height="12" /><rect x="104" y="7" width="11" height="12" /><rect x="118" y="15" width="12" height="11" /><rect x="97" y="15" width="11" height="11" /><rect x="155" y="51" width="12" height="12" /><rect x="155" y="44" width="12" height="12" /><rect x="162" y="51" width="12" height="12" /><rect x="162" y="44" width="12" height="12" /><rect x="214" y="49" width="11" height="12" /><rect x="221" y="49" width="12" height="12" /><rect x="228" y="49" width="12" height="12" /><rect x="214" y="42" width="11" height="12" /><rect x="236" y="49" width="11" height="12" /><rect x="221" y="42" width="11" height="12" /><rect x="228" y="42" width="12" height="12" /><rect x="236" y="42" width="11" height="12" /><rect x="243" y="42" width="12" height="12" /><rect x="236" y="35" width="11" height="11" /><rect x="236" y="27" width="11" height="12" /><rect x="214" y="35" width="11" height="11" /><rect x="221" y="35" width="11" height="11" /><rect x="228" y="35" width="12" height="11" /><rect x="214" y="27" width="11" height="12" /><rect x="221" y="27" width="11" height="12" /><rect x="228" y="27" width="12" height="12" /><rect x="1" y="96" width="11" height="11" /><rect x="1" y="103" width="11" height="12" /><rect x="1" y="81" width="11" height="12" /><rect x="1" y="88" width="11" height="12" /><rect x="1" y="66" width="11" height="12" /><rect x="1" y="74" width="11" height="11" /><rect x="45" y="169" width="12" height="11" /><rect x="38" y="169" width="11" height="11" /><rect x="30" y="169" width="12" height="11" /><rect x="38" y="88" width="11" height="12" /><rect x="38" y="96" width="11" height="11" /><rect x="38" y="103" width="11" height="11" /><rect x="38" y="110" width="11" height="12" /><rect x="30" y="88" width="12" height="12" /><rect x="30" y="96" width="12" height="11" /><rect x="30" y="103" width="12" height="11" /><rect x="30" y="110" width="12" height="12" /><rect x="82" y="74" width="11" height="11" /><rect x="74" y="74" width="12" height="11" /><rect x="67" y="74" width="12" height="11" /><rect x="60" y="74" width="11" height="11" /><rect x="38" y="74" width="11" height="11" /><rect x="52" y="162" width="12" height="11" /><rect x="23" y="74" width="11" height="11" /><rect x="23" y="81" width="11" height="11" /></g></g>
</svg>