<?xml version="1.0" encoding="utf-8"?>
<svg xmlns="http://www.w3.org/2000/svg" width="300" height="300"
        viewBox="0 0 300 300" class="creatureMap" style="position:absolute;">
    <defs>
        <filter id="blur" x="-30%" y="-30%" width="160%" height="160%">
            <feGaussianBlur stdDeviation="3" />
        </filter>
        <pattern id="pattern-untameable" width="10" height="10" patternTransform="rotate(135)" patternUnits="userSpaceOnUse">
            <rect width="4" height="10" fill="black"></rect>
        </pattern>
        <filter id="groupStroke">
            <feFlood result="outsideColor" flood-color="black"/>
            <feMorphology in="SourceAlpha" operator="dilate" radius="2"/>
            <feComposite result="strokeoutline1" in="outsideColor" operator="in"/>
            <feComposite result="strokeoutline2" in="strokeoutline1" in2="SourceAlpha" operator="out"/>
            <feGaussianBlur in="strokeoutline2" result="strokeblur" stdDeviation="1"/>
        </filter>
        <style>
            .spawningMap-very-common { fill: #0F0; }
            .spawningMap-common { fill: #B2FF00; }
            .spawningMap-uncommon { fill: #FF0; }
            .spawningMap-very-uncommon { fill: #FC0; }
            .spawningMap-rare { fill: #F60; }
            .spawningMap-very-rare { fill: #F00; }
            .spawning-map-point { stroke:black; stroke-width:1; }
        </style>
    </defs>

<g filter="url(#blur)" opacity="0.7">
<g class="spawningMap-rare">
<rect x="75" y="10" width="20" height="20" />
</g>
<g class="spawningMap-very-uncommon">
<rect x="60" y="94" width="21" height="20" />
<rect x="76" y="80" width="21" height="19" />
<rect x="122" y="138" width="19" height="19" />
<rect x="0" y="93" width="13" height="20" />
<rect x="0" y="108" width="13" height="20" />
<rect x="9" y="93" width="21" height="20" />
<rect x="9" y="108" width="21" height="20" />
<rect x="0" y="10" width="13" height="20" />
<rect x="42" y="80" width="22" height="19" />
<rect x="0" y="80" width="13" height="18" />
<rect x="9" y="66" width="21" height="19" />
<rect x="9" y="80" width="21" height="18" />
<rect x="0" y="40" width="13" height="18" />
<rect x="0" y="53" width="13" height="18" />
<rect x="9" y="53" width="21" height="18" />
<rect x="26" y="66" width="21" height="19" />
<rect x="26" y="94" width="21" height="19" />
<rect x="26" y="80" width="21" height="19" />
<rect x="42" y="66" width="22" height="19" />
<rect x="0" y="66" width="13" height="19" />
<rect x="42" y="94" width="22" height="19" />
</g>
<g class="spawningMap-uncommon">
<rect x="179" y="109" width="22" height="20" />
<rect x="197" y="94" width="22" height="20" />
<rect x="231" y="121" width="21" height="21" />
<rect x="231" y="137" width="21" height="20" />
<rect x="214" y="186" width="21" height="19" />
<rect x="231" y="186" width="21" height="19" />
<rect x="93" y="124" width="19" height="19" />
<rect x="60" y="66" width="21" height="19" />
<rect x="60" y="80" width="21" height="19" />
<rect x="76" y="66" width="21" height="19" />
<rect x="231" y="121" width="21" height="21" />
<rect x="231" y="137" width="21" height="20" />
</g>
<g class="spawningMap-common">
<rect x="214" y="137" width="22" height="20" />
<rect x="180" y="243" width="21" height="19" />
<rect x="214" y="137" width="22" height="20" />
<rect x="76" y="229" width="22" height="18" />
<rect x="180" y="215" width="21" height="18" />
<rect x="93" y="168" width="19" height="21" />
<rect x="107" y="152" width="18" height="21" />
<rect x="93" y="152" width="19" height="21" />
</g>
<g class="spawningMap-very-common">
<rect x="121" y="153" width="19" height="20" />
</g>
</g>
<g class="spawning-map-point" opacity="0.8">
<g class="spawningMap-very-common">
<circle cx="254" cy="149" r="4" />
<circle cx="250" cy="148" r="4" />
<circle cx="251" cy="149" r="4" />
<circle cx="249" cy="149" r="4" />
<circle cx="253" cy="147" r="4" />
<circle cx="251" cy="149" r="4" />
<circle cx="251" cy="147" r="4" />
<circle cx="252" cy="146" r="4" />
<circle cx="256" cy="148" r="4" />
<circle cx="253" cy="150" r="4" />
<circle cx="252" cy="147" r="4" />
<circle cx="251" cy="147" r="4" />
<circle cx="250" cy="146" r="4" />
<circle cx="253" cy="146" r="4" />
<circle cx="253" cy="146" r="4" />
<circle cx="254" cy="147" r="4" />
<circle cx="252" cy="149" r="4" />
</g>
</g>
</svg>