<svg xmlns="http://www.w3.org/2000/svg" width="300" height="300" viewBox="0 0 300 300" class="creatureMap" style="position:absolute;">
<defs>
<filter id="blur" x="-30%" y="-30%" width="160%" height="160%"><feGaussianBlur stdDeviation="3" />
</filter>
<pattern id="pattern-untameable" width="10" height="10" patternTransform="rotate(135)" patternUnits="userSpaceOnUse"><rect width="4" height="10" fill="black"></rect>
</pattern>
<filter id="groupStroke"><feFlood result="outsideColor" flood-color="black"/><feMorphology in="SourceAlpha" operator="dilate" radius="2"/><feComposite result="strokeoutline1" in="outsideColor" operator="in"/><feComposite result="strokeoutline2" in="strokeoutline1" in2="SourceAlpha" operator="out"/><feGaussianBlur in="strokeoutline2" result="strokeblur" stdDeviation="1"/>
</filter>
<style>
.spawningMap-very-common { fill: #0F0;}
.spawningMap-common { fill: #B2FF00;}
.spawningMap-uncommon { fill: #FF0;}
.spawningMap-very-uncommon { fill: #FC0;}
.spawningMap-rare { fill: #F60;}
.spawningMap-very-rare { fill: #F00; }.spawning-map-point {stroke:black; stroke-width:1;}
</style>
</defs>
<g filter="url(#blur)" opacity="0.7">
<g class="spawningMap-very-uncommon"><rect x="245" y="45" width="17" height="24" />
</g>
<g class="spawningMap-uncommon"><rect x="121" y="138" width="14" height="20" /><rect x="52" y="11" width="22" height="27" /><rect x="4" y="18" width="22" height="27" /><rect x="8" y="57" width="22" height="27" /><rect x="38" y="57" width="22" height="27" />
</g>
<g class="spawningMap-common"><rect x="183" y="142" width="26" height="11" /><rect x="73" y="146" width="14" height="13" /><rect x="52" y="11" width="22" height="27" /><rect x="4" y="18" width="22" height="27" /><rect x="8" y="57" width="22" height="27" /><rect x="38" y="57" width="21" height="27" />
</g>
<g class="spawningMap-very-common"><rect x="121" y="165" width="14" height="7" />
</g>
</g>
<g class="spawning-map-point" opacity="0.8">
</g>
</svg>