<svg xmlns="http://www.w3.org/2000/svg" width="300" height="300" viewBox="0 0 300 300" class="creatureMap" style="position:absolute;">
<defs>
<filter id="blur" x="-30%" y="-30%" width="160%" height="160%"><feGaussianBlur stdDeviation="3" />
</filter>
<pattern id="pattern-untameable" width="10" height="10" patternTransform="rotate(135)" patternUnits="userSpaceOnUse"><rect width="4" height="10" fill="black"></rect>
</pattern>
<filter id="groupStroke"><feFlood result="outsideColor" flood-color="black"/><feMorphology in="SourceAlpha" operator="dilate" radius="2"/><feComposite result="strokeoutline1" in="outsideColor" operator="in"/><feComposite result="strokeoutline2" in="strokeoutline1" in2="SourceAlpha" operator="out"/><feGaussianBlur in="strokeoutline2" result="strokeblur" stdDeviation="1"/>
</filter>
<style>
.spawningMap-very-common { fill: #0F0;}
.spawningMap-common { fill: #B2FF00;}
.spawningMap-uncommon { fill: #FF0;}
.spawningMap-very-uncommon { fill: #FC0;}
.spawningMap-rare { fill: #F60;}
.spawningMap-very-rare { fill: #F00; }.spawning-map-point {stroke:black; stroke-width:1;}
</style>
</defs>
<g filter="url(#blur)" opacity="0.7">
<g class="spawningMap-very-rare"><rect x="120" y="0" width="21" height="-4" />
</g>
<g class="spawningMap-rare"><rect x="16" y="185" width="10" height="10" /><rect x="6" y="185" width="9" height="10" /><rect x="6" y="196" width="9" height="9" /><rect x="6" y="206" width="9" height="10" /><rect x="6" y="217" width="9" height="9" /><rect x="6" y="227" width="9" height="10" /><rect x="6" y="238" width="9" height="9" /><rect x="6" y="248" width="9" height="10" /><rect x="6" y="259" width="9" height="9" /><rect x="58" y="238" width="10" height="9" /><rect x="69" y="238" width="9" height="9" /><rect x="172" y="0" width="13" height="0" /><rect x="142" y="238" width="10" height="9" /><rect x="142" y="248" width="10" height="10" /><rect x="153" y="238" width="9" height="9" /><rect x="153" y="248" width="9" height="10" /><rect x="153" y="259" width="9" height="9" /><rect x="163" y="259" width="10" height="9" /><rect x="163" y="248" width="10" height="10" /><rect x="163" y="238" width="10" height="9" /><rect x="163" y="269" width="10" height="10" /><rect x="163" y="280" width="10" height="9" /><rect x="174" y="290" width="9" height="10" /><rect x="174" y="269" width="9" height="10" /><rect x="174" y="259" width="9" height="9" /><rect x="174" y="248" width="9" height="10" /><rect x="174" y="238" width="9" height="9" /><rect x="184" y="290" width="10" height="10" /><rect x="79" y="6" width="10" height="10" /><rect x="90" y="6" width="9" height="10" /><rect x="100" y="6" width="10" height="10" /><rect x="111" y="17" width="9" height="10" /><rect x="100" y="17" width="10" height="10" /><rect x="90" y="17" width="9" height="10" /><rect x="79" y="17" width="10" height="10" /><rect x="90" y="27" width="9" height="10" /><rect x="100" y="27" width="10" height="10" /><rect x="111" y="27" width="9" height="10" /><rect x="111" y="38" width="9" height="10" /><rect x="100" y="38" width="10" height="10" /><rect x="90" y="38" width="9" height="10" /><rect x="121" y="6" width="10" height="10" /><rect x="132" y="6" width="9" height="10" /><rect x="142" y="6" width="10" height="10" /><rect x="121" y="17" width="10" height="10" /><rect x="121" y="27" width="10" height="10" /><rect x="121" y="38" width="10" height="10" /><rect x="132" y="38" width="9" height="10" /><rect x="132" y="27" width="9" height="10" /><rect x="142" y="27" width="10" height="10" /><rect x="142" y="17" width="10" height="10" /><rect x="153" y="17" width="9" height="10" /><rect x="153" y="27" width="9" height="10" /><rect x="153" y="38" width="9" height="10" /><rect x="142" y="38" width="10" height="10" /><rect x="174" y="111" width="9" height="10" /><rect x="163" y="111" width="10" height="10" /><rect x="153" y="101" width="9" height="10" /><rect x="142" y="101" width="10" height="10" /><rect x="132" y="101" width="9" height="10" /><rect x="111" y="101" width="9" height="10" /><rect x="79" y="111" width="10" height="10" /><rect x="90" y="111" width="9" height="10" /><rect x="100" y="101" width="10" height="10" /><rect x="58" y="122" width="10" height="10" /><rect x="58" y="164" width="10" height="10" /><rect x="58" y="175" width="10" height="9" /><rect x="48" y="175" width="9" height="9" /><rect x="37" y="175" width="10" height="9" /><rect x="27" y="175" width="9" height="9" /><rect x="16" y="175" width="10" height="9" /><rect x="6" y="175" width="9" height="9" /><rect x="6" y="164" width="9" height="10" /><rect x="6" y="154" width="9" height="9" /><rect x="6" y="143" width="9" height="10" /><rect x="48" y="132" width="9" height="10" /><rect x="48" y="143" width="9" height="10" /><rect x="48" y="154" width="9" height="9" /><rect x="48" y="164" width="9" height="10" /><rect x="37" y="164" width="10" height="10" /><rect x="27" y="164" width="9" height="10" /><rect x="16" y="164" width="10" height="10" /><rect x="16" y="154" width="10" height="9" /><rect x="16" y="143" width="10" height="10" /><rect x="27" y="143" width="9" height="10" /><rect x="37" y="143" width="10" height="10" /><rect x="37" y="154" width="10" height="9" /><rect x="27" y="154" width="9" height="9" /><rect x="69" y="122" width="9" height="10" /><rect x="69" y="175" width="9" height="9" /><rect x="195" y="122" width="9" height="10" /><rect x="205" y="122" width="10" height="10" /><rect x="216" y="122" width="9" height="10" /><rect x="226" y="132" width="10" height="10" /><rect x="205" y="175" width="10" height="9" /><rect x="237" y="164" width="9" height="10" /><rect x="247" y="164" width="10" height="10" /><rect x="258" y="164" width="9" height="10" /><rect x="258" y="175" width="9" height="9" /><rect x="268" y="164" width="10" height="10" /><rect x="279" y="164" width="9" height="10" /><rect x="279" y="175" width="9" height="9" /><rect x="247" y="154" width="10" height="9" /><rect x="247" y="143" width="10" height="10" /><rect x="237" y="132" width="9" height="10" /><rect x="195" y="185" width="9" height="10" /><rect x="184" y="185" width="10" height="10" /><rect x="174" y="185" width="9" height="10" /><rect x="174" y="196" width="9" height="9" /><rect x="184" y="196" width="10" height="9" /><rect x="184" y="206" width="10" height="10" /><rect x="174" y="206" width="9" height="10" /><rect x="174" y="217" width="9" height="9" /><rect x="174" y="227" width="9" height="10" /><rect x="163" y="227" width="10" height="10" /><rect x="153" y="227" width="9" height="10" /><rect x="142" y="227" width="10" height="10" /><rect x="132" y="227" width="9" height="10" /><rect x="121" y="217" width="10" height="9" /><rect x="132" y="217" width="9" height="9" /><rect x="142" y="217" width="10" height="9" /><rect x="153" y="217" width="9" height="9" /><rect x="163" y="217" width="10" height="9" /><rect x="163" y="206" width="10" height="10" /><rect x="153" y="206" width="9" height="10" /><rect x="142" y="206" width="10" height="10" /><rect x="132" y="206" width="9" height="10" /><rect x="121" y="206" width="10" height="10" /><rect x="142" y="196" width="10" height="9" /><rect x="153" y="196" width="9" height="9" /><rect x="163" y="196" width="10" height="9" /><rect x="90" y="185" width="9" height="10" /><rect x="79" y="185" width="10" height="10" /><rect x="100" y="196" width="10" height="9" /><rect x="111" y="196" width="9" height="9" /><rect x="111" y="206" width="9" height="10" /><rect x="100" y="206" width="10" height="10" /><rect x="100" y="217" width="10" height="9" /><rect x="111" y="217" width="9" height="9" /><rect x="37" y="185" width="10" height="10" /><rect x="27" y="185" width="9" height="10" />
</g>
<g class="spawningMap-very-uncommon"><rect x="37" y="259" width="10" height="9" /><rect x="48" y="259" width="9" height="9" /><rect x="48" y="269" width="9" height="10" /><rect x="58" y="269" width="10" height="10" /><rect x="58" y="280" width="10" height="9" /><rect x="58" y="259" width="10" height="9" /><rect x="58" y="248" width="10" height="10" /><rect x="69" y="248" width="9" height="10" /><rect x="69" y="259" width="9" height="9" /><rect x="79" y="269" width="10" height="10" /><rect x="79" y="259" width="10" height="9" /><rect x="79" y="248" width="10" height="10" /><rect x="79" y="238" width="10" height="9" /><rect x="90" y="238" width="9" height="9" /><rect x="90" y="248" width="9" height="10" /><rect x="90" y="259" width="9" height="9" /><rect x="90" y="269" width="9" height="10" /><rect x="100" y="259" width="10" height="9" /><rect x="100" y="248" width="10" height="10" /><rect x="100" y="238" width="10" height="9" /><rect x="111" y="248" width="9" height="10" /><rect x="111" y="259" width="9" height="9" /><rect x="111" y="269" width="9" height="10" /><rect x="121" y="269" width="10" height="10" /><rect x="121" y="259" width="10" height="9" /><rect x="132" y="259" width="9" height="9" /><rect x="121" y="248" width="10" height="10" /><rect x="132" y="248" width="9" height="10" /><rect x="121" y="238" width="10" height="9" /><rect x="132" y="238" width="9" height="9" /><rect x="111" y="227" width="9" height="10" /><rect x="100" y="227" width="10" height="10" /><rect x="90" y="227" width="9" height="10" /><rect x="6" y="269" width="9" height="10" /><rect x="121" y="227" width="10" height="10" /><rect x="111" y="238" width="9" height="9" /><rect x="6" y="280" width="9" height="9" /><rect x="6" y="290" width="9" height="10" /><rect x="16" y="280" width="10" height="9" /><rect x="16" y="269" width="10" height="10" /><rect x="16" y="259" width="10" height="9" /><rect x="27" y="259" width="9" height="9" /><rect x="27" y="269" width="9" height="10" /><rect x="27" y="280" width="9" height="9" /><rect x="37" y="269" width="10" height="10" />
</g>
</g>
<g class="spawning-map-point" opacity="0.8">
</g>
</svg>