<svg xmlns="http://www.w3.org/2000/svg" width="300" height="300" viewBox="0 0 300 300" class="creatureMap" style="position:absolute;">
<defs>
  <filter id="blur" x="-30%" y="-30%" width="160%" height="160%">
    <feGaussianBlur stdDeviation="3" />
</filter>
<pattern id="pattern-untameable" width="10" height="10" patternTransform="rotate(135)" patternUnits="userSpaceOnUse">
<rect width="4" height="10" fill="black"></rect>
</pattern><filter id="groupStroke"><feFlood result="outsideColor" flood-color="black"/><feMorphology in="SourceAlpha" operator="dilate" radius="2"/><feComposite result="strokeoutline1" in="outsideColor" operator="in"/><feComposite result="strokeoutline2" in="strokeoutline1" in2="SourceAlpha" operator="out"/><feGaussianBlur in="strokeoutline2" result="strokeblur" stdDeviation="1"/></filter><style>.spawningMap-very-common { fill: #0F0;}.spawningMap-common { fill: #B2FF00;}.spawningMap-uncommon { fill: #FF0;}.spawningMap-very-uncommon { fill: #FC0;}.spawningMap-rare { fill: #F60;}.spawningMap-very-rare { fill: #F00; }.spawning-map-point {stroke:black; stroke-width:1;}</style></defs>
<g class="spawning-map-point" opacity="0.8"><g class="spawningMap-very-rare"><circle cx="220" cy="183" r="4" /><circle cx="210" cy="178" r="4" /><circle cx="218" cy="169" r="4" /><circle cx="221" cy="161" r="4" /><circle cx="219" cy="152" r="4" /><circle cx="210" cy="150" r="4" /><circle cx="214" cy="141" r="4" /><circle cx="209" cy="136" r="4" /><circle cx="205" cy="129" r="4" /><circle cx="204" cy="122" r="4" /><circle cx="208" cy="116" r="4" /><circle cx="199" cy="144" r="4" /><circle cx="193" cy="158" r="4" /><circle cx="189" cy="177" r="4" /><circle cx="180" cy="176" r="4" /><circle cx="159" cy="164" r="4" /><circle cx="151" cy="165" r="4" /><circle cx="170" cy="147" r="4" /><circle cx="156" cy="119" r="4" /><circle cx="190" cy="124" r="4" /><circle cx="225" cy="180" r="4" /><circle cx="228" cy="173" r="4" /><circle cx="230" cy="175" r="4" /><circle cx="234" cy="183" r="4" /><circle cx="237" cy="175" r="4" /><circle cx="242" cy="185" r="4" /><circle cx="255" cy="185" r="4" /><circle cx="273" cy="172" r="4" /><circle cx="286" cy="180" r="4" /><circle cx="279" cy="140" r="4" /><circle cx="269" cy="140" r="4" /><circle cx="261" cy="140" r="4" /><circle cx="239" cy="153" r="4" /><circle cx="229" cy="162" r="4" /><circle cx="231" cy="154" r="4" /><circle cx="228" cy="147" r="4" /><circle cx="227" cy="140" r="4" /><circle cx="231" cy="125" r="4" /><circle cx="235" cy="121" r="4" /><circle cx="230" cy="118" r="4" /><circle cx="236" cy="60" r="4" /><circle cx="229" cy="72" r="4" /><circle cx="236" cy="79" r="4" /><circle cx="225" cy="82" r="4" /><circle cx="236" cy="89" r="4" /><circle cx="224" cy="95" r="4" /><circle cx="231" cy="109" r="4" /><circle cx="234" cy="111" r="4" /><circle cx="242" cy="104" r="4" /><circle cx="255" cy="97" r="4" /><circle cx="267" cy="103" r="4" /><circle cx="279" cy="95" r="4" /><circle cx="211" cy="60" r="4" /><circle cx="205" cy="68" r="4" /><circle cx="208" cy="79" r="4" /><circle cx="205" cy="86" r="4" /><circle cx="216" cy="86" r="4" /><circle cx="220" cy="101" r="4" /><circle cx="201" cy="92" r="4" /><circle cx="206" cy="103" r="4" /><circle cx="178" cy="105" r="4" /><circle cx="178" cy="93" r="4" /><circle cx="179" cy="76" r="4" /><circle cx="172" cy="64" r="4" /><circle cx="162" cy="66" r="4" /><circle cx="168" cy="81" r="4" /><circle cx="170" cy="97" r="4" /><circle cx="169" cy="103" r="4" /><circle cx="158" cy="108" r="4" /><circle cx="155" cy="106" r="4" /><circle cx="158" cy="97" r="4" /><circle cx="153" cy="81" r="4" /><circle cx="122" cy="167" r="4" /><circle cx="101" cy="163" r="4" /><circle cx="88" cy="138" r="4" /><circle cx="118" cy="134" r="4" /><circle cx="115" cy="132" r="4" /><circle cx="117" cy="123" r="4" /><circle cx="106" cy="118" r="4" /><circle cx="126" cy="122" r="4" /><circle cx="131" cy="139" r="4" /><circle cx="142" cy="141" r="4" /><circle cx="142" cy="136" r="4" /><circle cx="137" cy="127" r="4" /><circle cx="128" cy="129" r="4" /><circle cx="129" cy="133" r="4" /><circle cx="138" cy="149" r="4" /><circle cx="146" cy="82" r="4" /><circle cx="143" cy="91" r="4" /><circle cx="146" cy="100" r="4" /><circle cx="145" cy="106" r="4" /><circle cx="138" cy="109" r="4" /><circle cx="130" cy="98" r="4" /><circle cx="128" cy="88" r="4" /><circle cx="117" cy="93" r="4" /><circle cx="100" cy="110" r="4" /><circle cx="96" cy="100" r="4" /><circle cx="99" cy="92" r="4" /><circle cx="115" cy="109" r="4" /><circle cx="156" cy="203" r="4" /><circle cx="158" cy="218" r="4" /><circle cx="166" cy="212" r="4" /><circle cx="172" cy="222" r="4" /><circle cx="159" cy="230" r="4" /><circle cx="172" cy="206" r="4" /><circle cx="179" cy="206" r="4" /><circle cx="181" cy="202" r="4" /><circle cx="184" cy="216" r="4" /><circle cx="194" cy="209" r="4" /><circle cx="205" cy="198" r="4" /><circle cx="209" cy="209" r="4" /><circle cx="191" cy="214" r="4" /><circle cx="187" cy="232" r="4" /><circle cx="175" cy="233" r="4" /><circle cx="182" cy="233" r="4" /><circle cx="161" cy="252" r="4" /><circle cx="162" cy="262" r="4" /><circle cx="176" cy="271" r="4" /><circle cx="185" cy="281" r="4" /><circle cx="168" cy="279" r="4" /><circle cx="176" cy="291" r="4" /><circle cx="153" cy="297" r="4" /><circle cx="197" cy="270" r="4" /><circle cx="192" cy="250" r="4" /><circle cx="207" cy="270" r="4" /><circle cx="236" cy="270" r="4" /><circle cx="220" cy="281" r="4" /><circle cx="237" cy="283" r="4" /><circle cx="250" cy="278" r="4" /><circle cx="266" cy="290" r="4" /><circle cx="265" cy="266" r="4" /><circle cx="266" cy="262" r="4" /><circle cx="278" cy="264" r="4" /><circle cx="281" cy="259" r="4" /><circle cx="269" cy="254" r="4" /><circle cx="285" cy="247" r="4" /><circle cx="286" cy="235" r="4" /><circle cx="267" cy="228" r="4" /><circle cx="258" cy="215" r="4" /><circle cx="285" cy="204" r="4" /><circle cx="257" cy="225" r="4" /><circle cx="250" cy="230" r="4" /><circle cx="258" cy="246" r="4" /><circle cx="245" cy="247" r="4" /><circle cx="228" cy="239" r="4" /><circle cx="218" cy="238" r="4" /><circle cx="205" cy="224" r="4" /><circle cx="248" cy="200" r="4" /><circle cx="243" cy="192" r="4" /><circle cx="108" cy="191" r="4" /><circle cx="127" cy="190" r="4" /><circle cx="121" cy="197" r="4" /><circle cx="135" cy="201" r="4" /><circle cx="125" cy="207" r="4" /><circle cx="126" cy="213" r="4" /><circle cx="145" cy="213" r="4" /><circle cx="136" cy="213" r="4" /><circle cx="149" cy="219" r="4" /><circle cx="139" cy="224" r="4" /><circle cx="107" cy="200" r="4" /><circle cx="114" cy="200" r="4" /><circle cx="127" cy="219" r="4" /><circle cx="105" cy="207" r="4" /><circle cx="98" cy="206" r="4" /><circle cx="91" cy="211" r="4" /><circle cx="89" cy="195" r="4" /><circle cx="78" cy="195" r="4" /><circle cx="69" cy="197" r="4" /><circle cx="58" cy="193" r="4" /><circle cx="39" cy="192" r="4" /><circle cx="52" cy="201" r="4" /><circle cx="46" cy="205" r="4" /><circle cx="35" cy="215" r="4" /><circle cx="47" cy="218" r="4" /><circle cx="38" cy="228" r="4" /><circle cx="55" cy="221" r="4" /><circle cx="51" cy="211" r="4" /><circle cx="79" cy="219" r="4" /><circle cx="89" cy="221" r="4" /><circle cx="109" cy="216" r="4" /><circle cx="97" cy="227" r="4" /><circle cx="74" cy="222" r="4" /><circle cx="71" cy="234" r="4" /><circle cx="64" cy="229" r="4" /><circle cx="114" cy="215" r="4" /><circle cx="113" cy="226" r="4" /><circle cx="127" cy="227" r="4" /><circle cx="137" cy="229" r="4" /><circle cx="148" cy="231" r="4" /><circle cx="150" cy="237" r="4" /><circle cx="124" cy="237" r="4" /><circle cx="137" cy="243" r="4" /><circle cx="142" cy="256" r="4" /><circle cx="135" cy="261" r="4" /><circle cx="123" cy="264" r="4" /><circle cx="120" cy="274" r="4" /><circle cx="109" cy="260" r="4" /><circle cx="130" cy="289" r="4" /><circle cx="104" cy="280" r="4" /><circle cx="90" cy="278" r="4" /><circle cx="91" cy="284" r="4" /><circle cx="70" cy="273" r="4" /><circle cx="61" cy="269" r="4" /><circle cx="89" cy="249" r="4" /><circle cx="89" cy="229" r="4" /><circle cx="55" cy="262" r="4" /><circle cx="82" cy="255" r="4" /><circle cx="55" cy="258" r="4" /><circle cx="12" cy="270" r="4" /></g><g class="spawningMap-very-uncommon"><circle cx="247" cy="93" r="4" /><circle cx="253" cy="92" r="4" /><circle cx="252" cy="102" r="4" /><circle cx="246" cy="88" r="4" /><circle cx="249" cy="81" r="4" /><circle cx="256" cy="90" r="4" /></g><g class="spawningMap-uncommon"><circle cx="200" cy="89" r="4" /><circle cx="206" cy="96" r="4" /><circle cx="207" cy="91" r="4" /><circle cx="206" cy="86" r="4" /><circle cx="200" cy="79" r="4" /><circle cx="199" cy="82" r="4" /><circle cx="195" cy="85" r="4" /></g></g>
</svg>