<svg xmlns="http://www.w3.org/2000/svg" width="300" height="300" viewBox="0 0 300 300" class="creatureMap" style="position:absolute;">
<defs>
<filter id="blur" x="-30%" y="-30%" width="160%" height="160%"><feGaussianBlur stdDeviation="3" />
</filter>
<pattern id="pattern-untameable" width="10" height="10" patternTransform="rotate(135)" patternUnits="userSpaceOnUse"><rect width="4" height="10" fill="black"></rect>
</pattern>
<filter id="groupStroke"><feFlood result="outsideColor" flood-color="black"/><feMorphology in="SourceAlpha" operator="dilate" radius="2"/><feComposite result="strokeoutline1" in="outsideColor" operator="in"/><feComposite result="strokeoutline2" in="strokeoutline1" in2="SourceAlpha" operator="out"/><feGaussianBlur in="strokeoutline2" result="strokeblur" stdDeviation="1"/>
</filter>
<style>
.spawningMap-very-common { fill: #0F0;}
.spawningMap-common { fill: #B2FF00;}
.spawningMap-uncommon { fill: #FF0;}
.spawningMap-very-uncommon { fill: #FC0;}
.spawningMap-rare { fill: #F60;}
.spawningMap-very-rare { fill: #F00; }.spawning-map-point {stroke:black; stroke-width:1;}
</style>
</defs>
<g filter="url(#blur)" opacity="0.7">
<g class="spawningMap-very-uncommon"><rect x="74" y="35" width="26" height="23" />
</g>
<g class="spawningMap-uncommon"><rect x="250" y="69" width="11" height="76" /><rect x="37" y="165" width="32" height="44" /><rect x="123" y="212" width="15" height="47" /><rect x="63" y="248" width="56" height="12" /><rect x="63" y="222" width="56" height="11" /><rect x="95" y="48" width="11" height="24" /><rect x="152" y="45" width="67" height="11" /><rect x="63" y="209" width="56" height="11" /><rect x="63" y="235" width="56" height="12" />
</g>
<g class="spawningMap-common"><rect x="47" y="211" width="12" height="44" /><rect x="115" y="29" width="31" height="12" /><rect x="75" y="153" width="12" height="44" />
</g>
</g>
<g class="spawning-map-point" opacity="0.8">
</g>
</svg>