<?xml version="1.0" encoding="utf-8"?>
<svg xmlns="http://www.w3.org/2000/svg" width="300" height="300"
        viewBox="0 0 300 300" class="creatureMap" style="position:absolute;">
    <defs>
        <filter id="blur" x="-30%" y="-30%" width="160%" height="160%">
            <feGaussianBlur stdDeviation="3" />
        </filter>
        <pattern id="pattern-untameable" width="10" height="10" patternTransform="rotate(135)" patternUnits="userSpaceOnUse">
            <rect width="4" height="10" fill="black"></rect>
        </pattern>
        <filter id="groupStroke">
            <feFlood result="outsideColor" flood-color="black"/>
            <feMorphology in="SourceAlpha" operator="dilate" radius="2"/>
            <feComposite result="strokeoutline1" in="outsideColor" operator="in"/>
            <feComposite result="strokeoutline2" in="strokeoutline1" in2="SourceAlpha" operator="out"/>
            <feGaussianBlur in="strokeoutline2" result="strokeblur" stdDeviation="1"/>
        </filter>
        <style>
            .spawningMap-very-common { fill: #0F0; }
            .spawningMap-common { fill: #B2FF00; }
            .spawningMap-uncommon { fill: #FF0; }
            .spawningMap-very-uncommon { fill: #FC0; }
            .spawningMap-rare { fill: #F60; }
            .spawningMap-very-rare { fill: #F00; }
            .spawning-map-point { stroke:black; stroke-width:1; }
        </style>
    </defs>

<g filter="url(#blur)" opacity="0.7">
<g class="spawningMap-very-uncommon">
<rect x="35" y="138" width="11" height="11" />
<rect x="35" y="145" width="11" height="11" />
<rect x="85" y="89" width="12" height="11" />
<rect x="85" y="96" width="12" height="11" />
<rect x="85" y="103" width="12" height="11" />
<rect x="85" y="110" width="12" height="11" />
<rect x="85" y="117" width="12" height="11" />
<rect x="78" y="89" width="12" height="11" />
<rect x="78" y="96" width="12" height="11" />
<rect x="78" y="103" width="12" height="11" />
<rect x="78" y="110" width="12" height="11" />
<rect x="71" y="89" width="11" height="11" />
<rect x="71" y="96" width="11" height="11" />
<rect x="71" y="103" width="11" height="11" />
<rect x="71" y="110" width="11" height="11" />
<rect x="71" y="117" width="11" height="11" />
<rect x="64" y="89" width="11" height="11" />
<rect x="64" y="96" width="11" height="11" />
<rect x="64" y="103" width="11" height="11" />
<rect x="64" y="110" width="11" height="11" />
<rect x="64" y="117" width="11" height="11" />
<rect x="56" y="82" width="12" height="12" />
<rect x="56" y="89" width="12" height="11" />
<rect x="56" y="96" width="12" height="11" />
<rect x="56" y="103" width="12" height="11" />
<rect x="56" y="110" width="12" height="11" />
<rect x="56" y="117" width="12" height="11" />
<rect x="49" y="82" width="12" height="12" />
<rect x="49" y="89" width="12" height="11" />
<rect x="49" y="96" width="12" height="11" />
<rect x="49" y="103" width="12" height="11" />
<rect x="49" y="110" width="12" height="11" />
<rect x="27" y="138" width="12" height="11" />
<rect x="27" y="145" width="12" height="11" />
<rect x="27" y="124" width="12" height="11" />
<rect x="27" y="131" width="12" height="11" />
<rect x="27" y="110" width="12" height="11" />
<rect x="27" y="117" width="12" height="11" />
<rect x="20" y="138" width="12" height="11" />
<rect x="20" y="145" width="12" height="11" />
<rect x="85" y="82" width="12" height="12" />
<rect x="78" y="82" width="12" height="12" />
<rect x="71" y="82" width="11" height="12" />
<rect x="64" y="82" width="11" height="12" />
<rect x="42" y="82" width="11" height="12" />
<rect x="35" y="82" width="11" height="12" />
<rect x="35" y="75" width="11" height="12" />
<rect x="20" y="124" width="12" height="11" />
<rect x="20" y="131" width="12" height="11" />
<rect x="20" y="110" width="12" height="11" />
<rect x="172" y="32" width="12" height="11" />
<rect x="172" y="39" width="12" height="11" />
<rect x="172" y="46" width="12" height="11" />
<rect x="172" y="53" width="12" height="11" />
<rect x="179" y="32" width="12" height="11" />
<rect x="179" y="39" width="12" height="11" />
<rect x="179" y="46" width="12" height="11" />
<rect x="179" y="53" width="12" height="11" />
<rect x="187" y="32" width="11" height="11" />
<rect x="187" y="39" width="11" height="11" />
<rect x="187" y="46" width="11" height="11" />
<rect x="194" y="32" width="11" height="11" />
<rect x="194" y="39" width="11" height="11" />
<rect x="194" y="46" width="11" height="11" />
<rect x="20" y="117" width="12" height="11" />
<rect x="78" y="117" width="12" height="11" />
<rect x="49" y="117" width="12" height="11" />
<rect x="42" y="117" width="11" height="11" />
<rect x="35" y="117" width="11" height="11" />
<rect x="56" y="124" width="12" height="11" />
<rect x="49" y="124" width="12" height="11" />
<rect x="42" y="124" width="11" height="11" />
<rect x="35" y="124" width="11" height="11" />
<rect x="56" y="131" width="12" height="11" />
<rect x="49" y="131" width="12" height="11" />
<rect x="42" y="131" width="11" height="11" />
<rect x="35" y="131" width="11" height="11" />
<rect x="56" y="138" width="12" height="11" />
<rect x="49" y="138" width="12" height="11" />
<rect x="42" y="138" width="11" height="11" />
<rect x="20" y="96" width="12" height="12" />
<rect x="56" y="144" width="12" height="12" />
<rect x="49" y="145" width="12" height="11" />
<rect x="42" y="145" width="11" height="11" />
<rect x="20" y="103" width="12" height="11" />
<rect x="56" y="151" width="12" height="12" />
<rect x="49" y="151" width="12" height="12" />
<rect x="42" y="151" width="11" height="12" />
<rect x="35" y="151" width="11" height="12" />
<rect x="20" y="83" width="12" height="11" />
<rect x="20" y="89" width="12" height="12" />
<rect x="20" y="69" width="12" height="11" />
<rect x="20" y="76" width="12" height="11" />
<rect x="13" y="96" width="11" height="12" />
<rect x="13" y="103" width="11" height="11" />
<rect x="13" y="83" width="11" height="11" />
<rect x="13" y="89" width="11" height="12" />
<rect x="13" y="69" width="11" height="11" />
<rect x="13" y="76" width="11" height="11" />
<rect x="49" y="158" width="12" height="11" />
<rect x="42" y="158" width="11" height="11" />
<rect x="35" y="158" width="11" height="11" />
<rect x="187" y="53" width="11" height="11" />
<rect x="194" y="53" width="11" height="11" />
<rect x="201" y="32" width="12" height="11" />
<rect x="201" y="39" width="12" height="11" />
<rect x="201" y="46" width="12" height="11" />
<rect x="208" y="32" width="12" height="11" />
<rect x="208" y="39" width="12" height="11" />
<rect x="208" y="46" width="12" height="11" />
<rect x="6" y="96" width="11" height="12" />
<rect x="6" y="103" width="11" height="11" />
<rect x="6" y="83" width="11" height="11" />
<rect x="6" y="89" width="11" height="12" />
<rect x="6" y="69" width="11" height="11" />
<rect x="6" y="76" width="11" height="11" />
<rect x="49" y="165" width="12" height="11" />
<rect x="42" y="165" width="11" height="11" />
<rect x="35" y="165" width="11" height="11" />
<rect x="42" y="89" width="11" height="11" />
<rect x="42" y="96" width="11" height="11" />
<rect x="42" y="103" width="11" height="11" />
<rect x="42" y="110" width="11" height="11" />
<rect x="35" y="89" width="11" height="11" />
<rect x="35" y="96" width="11" height="11" />
<rect x="35" y="103" width="11" height="11" />
<rect x="35" y="110" width="11" height="11" />
<rect x="85" y="75" width="12" height="12" />
<rect x="78" y="75" width="12" height="12" />
<rect x="71" y="75" width="11" height="12" />
<rect x="64" y="75" width="11" height="12" />
<rect x="42" y="75" width="11" height="12" />
<rect x="56" y="158" width="12" height="11" />
<rect x="27" y="75" width="12" height="12" />
<rect x="27" y="82" width="12" height="12" />
</g>
<g class="spawningMap-uncommon">
<rect x="288" y="53" width="11" height="11" />
<rect x="281" y="60" width="11" height="11" />
<rect x="288" y="60" width="11" height="11" />
<rect x="274" y="32" width="11" height="11" />
<rect x="49" y="75" width="12" height="12" />
<rect x="56" y="75" width="12" height="12" />
<rect x="35" y="69" width="11" height="11" />
<rect x="42" y="69" width="11" height="11" />
<rect x="100" y="48" width="11" height="11" />
<rect x="49" y="69" width="12" height="11" />
<rect x="42" y="62" width="11" height="11" />
<rect x="49" y="62" width="12" height="11" />
<rect x="107" y="48" width="12" height="11" />
<rect x="114" y="62" width="12" height="11" />
<rect x="129" y="62" width="11" height="11" />
<rect x="129" y="55" width="11" height="11" />
<rect x="129" y="48" width="11" height="11" />
<rect x="129" y="41" width="11" height="11" />
<rect x="122" y="48" width="11" height="11" />
<rect x="122" y="41" width="11" height="11" />
<rect x="114" y="41" width="12" height="11" />
<rect x="114" y="34" width="12" height="11" />
<rect x="107" y="41" width="12" height="11" />
<rect x="114" y="27" width="12" height="11" />
<rect x="107" y="34" width="12" height="11" />
<rect x="107" y="27" width="12" height="11" />
<rect x="100" y="34" width="11" height="11" />
<rect x="93" y="27" width="11" height="11" />
<rect x="71" y="41" width="12" height="11" />
<rect x="114" y="20" width="12" height="11" />
<rect x="107" y="20" width="12" height="11" />
<rect x="122" y="27" width="11" height="11" />
<rect x="100" y="27" width="11" height="11" />
<rect x="129" y="34" width="11" height="11" />
<rect x="129" y="27" width="11" height="11" />
<rect x="136" y="34" width="12" height="11" />
<rect x="136" y="27" width="12" height="11" />
<rect x="143" y="34" width="12" height="11" />
<rect x="143" y="27" width="12" height="11" />
<rect x="151" y="34" width="11" height="11" />
<rect x="151" y="27" width="11" height="11" />
<rect x="93" y="69" width="11" height="11" />
<rect x="100" y="69" width="11" height="11" />
<rect x="93" y="62" width="11" height="11" />
<rect x="100" y="62" width="11" height="11" />
<rect x="107" y="69" width="12" height="11" />
<rect x="107" y="62" width="12" height="11" />
<rect x="143" y="55" width="12" height="11" />
<rect x="151" y="55" width="11" height="11" />
<rect x="136" y="62" width="12" height="11" />
<rect x="158" y="41" width="11" height="11" />
<rect x="158" y="34" width="11" height="11" />
<rect x="165" y="41" width="11" height="11" />
<rect x="165" y="34" width="11" height="11" />
<rect x="56" y="69" width="12" height="11" />
<rect x="64" y="69" width="11" height="11" />
<rect x="71" y="69" width="11" height="11" />
<rect x="57" y="62" width="11" height="11" />
<rect x="78" y="69" width="12" height="11" />
<rect x="85" y="69" width="12" height="11" />
<rect x="64" y="62" width="11" height="11" />
<rect x="71" y="62" width="11" height="11" />
<rect x="78" y="62" width="12" height="11" />
<rect x="85" y="62" width="12" height="11" />
<rect x="78" y="55" width="12" height="11" />
<rect x="85" y="55" width="12" height="11" />
<rect x="78" y="48" width="12" height="11" />
<rect x="85" y="48" width="12" height="11" />
<rect x="57" y="55" width="11" height="11" />
<rect x="64" y="55" width="11" height="11" />
<rect x="71" y="55" width="11" height="11" />
<rect x="57" y="48" width="11" height="11" />
<rect x="64" y="48" width="11" height="11" />
<rect x="71" y="48" width="11" height="11" />
<rect x="252" y="46" width="11" height="11" />
<rect x="245" y="39" width="11" height="11" />
<rect x="245" y="32" width="11" height="11" />
<rect x="245" y="25" width="11" height="11" />
<rect x="252" y="39" width="11" height="11" />
<rect x="252" y="32" width="11" height="11" />
<rect x="252" y="25" width="11" height="11" />
<rect x="259" y="39" width="12" height="11" />
<rect x="259" y="32" width="12" height="11" />
<rect x="259" y="25" width="12" height="11" />
<rect x="266" y="53" width="12" height="11" />
<rect x="266" y="46" width="12" height="11" />
<rect x="266" y="39" width="12" height="11" />
<rect x="274" y="67" width="11" height="11" />
<rect x="274" y="60" width="11" height="11" />
<rect x="266" y="67" width="12" height="11" />
<rect x="266" y="60" width="12" height="11" />
<rect x="35" y="62" width="11" height="11" />
<rect x="42" y="55" width="11" height="11" />
<rect x="49" y="55" width="12" height="11" />
<rect x="35" y="55" width="11" height="11" />
<rect x="42" y="48" width="11" height="11" />
<rect x="49" y="48" width="12" height="11" />
<rect x="35" y="48" width="11" height="11" />
<rect x="20" y="48" width="12" height="11" />
<rect x="27" y="48" width="12" height="11" />
<rect x="13" y="48" width="11" height="11" />
<rect x="20" y="55" width="12" height="11" />
<rect x="27" y="55" width="12" height="11" />
<rect x="13" y="55" width="11" height="11" />
<rect x="20" y="41" width="12" height="11" />
<rect x="27" y="41" width="12" height="11" />
<rect x="13" y="41" width="11" height="11" />
<rect x="64" y="34" width="11" height="11" />
<rect x="71" y="34" width="12" height="11" />
<rect x="78" y="34" width="12" height="11" />
<rect x="64" y="27" width="11" height="11" />
<rect x="71" y="27" width="12" height="11" />
<rect x="78" y="27" width="12" height="11" />
<rect x="71" y="20" width="12" height="11" />
<rect x="78" y="20" width="12" height="11" />
<rect x="71" y="13" width="12" height="11" />
<rect x="78" y="13" width="12" height="11" />
<rect x="64" y="20" width="11" height="11" />
<rect x="64" y="13" width="11" height="11" />
<rect x="33" y="34" width="12" height="11" />
<rect x="33" y="27" width="12" height="11" />
<rect x="93" y="55" width="11" height="11" />
<rect x="100" y="55" width="11" height="11" />
<rect x="107" y="55" width="12" height="11" />
<rect x="114" y="55" width="12" height="11" />
<rect x="237" y="18" width="12" height="11" />
<rect x="245" y="18" width="11" height="11" />
<rect x="252" y="18" width="11" height="11" />
<rect x="259" y="18" width="11" height="11" />
<rect x="245" y="11" width="11" height="11" />
<rect x="252" y="11" width="11" height="11" />
<rect x="259" y="11" width="12" height="11" />
<rect x="266" y="18" width="12" height="11" />
<rect x="274" y="18" width="11" height="11" />
<rect x="281" y="18" width="11" height="11" />
<rect x="266" y="25" width="12" height="11" />
<rect x="274" y="25" width="11" height="11" />
<rect x="281" y="25" width="11" height="11" />
<rect x="281" y="46" width="11" height="11" />
<rect x="288" y="46" width="11" height="11" />
<rect x="281" y="53" width="11" height="11" />
<rect x="274" y="53" width="11" height="11" />
<rect x="259" y="62" width="12" height="11" />
<rect x="259" y="55" width="12" height="11" />
<rect x="42" y="41" width="11" height="11" />
<rect x="49" y="41" width="12" height="11" />
<rect x="35" y="41" width="11" height="11" />
<rect x="93" y="48" width="11" height="11" />
<rect x="78" y="41" width="12" height="11" />
<rect x="86" y="41" width="11" height="11" />
<rect x="93" y="41" width="11" height="11" />
<rect x="93" y="76" width="11" height="11" />
<rect x="122" y="34" width="11" height="11" />
<rect x="100" y="41" width="11" height="11" />
<rect x="93" y="34" width="11" height="11" />
<rect x="86" y="34" width="11" height="11" />
<rect x="114" y="13" width="12" height="12" />
<rect x="107" y="13" width="12" height="12" />
<rect x="122" y="20" width="11" height="11" />
<rect x="100" y="20" width="11" height="11" />
<rect x="158" y="55" width="11" height="11" />
<rect x="158" y="48" width="11" height="11" />
<rect x="165" y="55" width="11" height="11" />
<rect x="165" y="48" width="11" height="11" />
<rect x="216" y="53" width="11" height="11" />
<rect x="223" y="53" width="11" height="11" />
<rect x="230" y="53" width="12" height="11" />
<rect x="216" y="46" width="11" height="11" />
<rect x="237" y="53" width="12" height="11" />
<rect x="223" y="46" width="11" height="11" />
<rect x="230" y="46" width="12" height="11" />
<rect x="237" y="46" width="12" height="11" />
<rect x="245" y="46" width="11" height="11" />
<rect x="237" y="39" width="12" height="11" />
<rect x="237" y="32" width="12" height="11" />
<rect x="216" y="39" width="11" height="11" />
<rect x="223" y="39" width="11" height="11" />
<rect x="230" y="39" width="12" height="11" />
<rect x="216" y="32" width="11" height="11" />
<rect x="223" y="32" width="11" height="11" />
<rect x="230" y="32" width="12" height="11" />
<rect x="114" y="48" width="12" height="11" />
<rect x="122" y="62" width="11" height="11" />
<rect x="122" y="55" width="11" height="11" />
<rect x="136" y="55" width="12" height="11" />
<rect x="136" y="48" width="12" height="11" />
<rect x="143" y="48" width="12" height="11" />
<rect x="136" y="41" width="12" height="11" />
<rect x="143" y="41" width="12" height="11" />
<rect x="151" y="48" width="11" height="11" />
<rect x="151" y="41" width="11" height="11" />
<rect x="143" y="62" width="12" height="11" />
<rect x="151" y="62" width="11" height="11" />
<rect x="140" y="68" width="12" height="12" />
<rect x="42" y="17" width="12" height="11" />
<rect x="49" y="17" width="12" height="11" />
<rect x="57" y="17" width="11" height="11" />
<rect x="40" y="34" width="12" height="11" />
<rect x="40" y="27" width="12" height="11" />
<rect x="237" y="11" width="12" height="11" />
<rect x="274" y="46" width="11" height="11" />
<rect x="266" y="32" width="12" height="11" />
<rect x="230" y="15" width="12" height="11" />
</g>
</g>
<g fill="url(#pattern-untameable)" opacity="0.3">
<rect x="35" y="138" width="11" height="11"/>
<rect x="35" y="145" width="11" height="11"/>
<rect x="85" y="89" width="12" height="11"/>
<rect x="85" y="96" width="12" height="11"/>
<rect x="85" y="103" width="12" height="11"/>
<rect x="85" y="110" width="12" height="11"/>
<rect x="85" y="117" width="12" height="11"/>
<rect x="78" y="89" width="12" height="11"/>
<rect x="78" y="96" width="12" height="11"/>
<rect x="78" y="103" width="12" height="11"/>
<rect x="78" y="110" width="12" height="11"/>
<rect x="71" y="89" width="11" height="11"/>
<rect x="71" y="96" width="11" height="11"/>
<rect x="71" y="103" width="11" height="11"/>
<rect x="71" y="110" width="11" height="11"/>
<rect x="71" y="117" width="11" height="11"/>
<rect x="64" y="89" width="11" height="11"/>
<rect x="64" y="96" width="11" height="11"/>
<rect x="64" y="103" width="11" height="11"/>
<rect x="64" y="110" width="11" height="11"/>
<rect x="64" y="117" width="11" height="11"/>
<rect x="56" y="82" width="12" height="12"/>
<rect x="56" y="89" width="12" height="11"/>
<rect x="56" y="96" width="12" height="11"/>
<rect x="56" y="103" width="12" height="11"/>
<rect x="56" y="110" width="12" height="11"/>
<rect x="56" y="117" width="12" height="11"/>
<rect x="49" y="82" width="12" height="12"/>
<rect x="49" y="89" width="12" height="11"/>
<rect x="49" y="96" width="12" height="11"/>
<rect x="49" y="103" width="12" height="11"/>
<rect x="49" y="110" width="12" height="11"/>
<rect x="27" y="138" width="12" height="11"/>
<rect x="27" y="145" width="12" height="11"/>
<rect x="27" y="124" width="12" height="11"/>
<rect x="27" y="131" width="12" height="11"/>
<rect x="27" y="110" width="12" height="11"/>
<rect x="27" y="117" width="12" height="11"/>
<rect x="20" y="138" width="12" height="11"/>
<rect x="20" y="145" width="12" height="11"/>
<rect x="85" y="82" width="12" height="12"/>
<rect x="78" y="82" width="12" height="12"/>
<rect x="71" y="82" width="11" height="12"/>
<rect x="64" y="82" width="11" height="12"/>
<rect x="42" y="82" width="11" height="12"/>
<rect x="35" y="82" width="11" height="12"/>
<rect x="35" y="75" width="11" height="12"/>
<rect x="20" y="124" width="12" height="11"/>
<rect x="20" y="131" width="12" height="11"/>
<rect x="20" y="110" width="12" height="11"/>
<rect x="172" y="32" width="12" height="11"/>
<rect x="172" y="39" width="12" height="11"/>
<rect x="172" y="46" width="12" height="11"/>
<rect x="172" y="53" width="12" height="11"/>
<rect x="179" y="32" width="12" height="11"/>
<rect x="179" y="39" width="12" height="11"/>
<rect x="179" y="46" width="12" height="11"/>
<rect x="179" y="53" width="12" height="11"/>
<rect x="187" y="32" width="11" height="11"/>
<rect x="187" y="39" width="11" height="11"/>
<rect x="187" y="46" width="11" height="11"/>
<rect x="194" y="32" width="11" height="11"/>
<rect x="194" y="39" width="11" height="11"/>
<rect x="194" y="46" width="11" height="11"/>
<rect x="20" y="117" width="12" height="11"/>
<rect x="78" y="117" width="12" height="11"/>
<rect x="49" y="117" width="12" height="11"/>
<rect x="42" y="117" width="11" height="11"/>
<rect x="35" y="117" width="11" height="11"/>
<rect x="56" y="124" width="12" height="11"/>
<rect x="49" y="124" width="12" height="11"/>
<rect x="42" y="124" width="11" height="11"/>
<rect x="35" y="124" width="11" height="11"/>
<rect x="56" y="131" width="12" height="11"/>
<rect x="49" y="131" width="12" height="11"/>
<rect x="42" y="131" width="11" height="11"/>
<rect x="35" y="131" width="11" height="11"/>
<rect x="56" y="138" width="12" height="11"/>
<rect x="49" y="138" width="12" height="11"/>
<rect x="42" y="138" width="11" height="11"/>
<rect x="20" y="96" width="12" height="12"/>
<rect x="56" y="144" width="12" height="12"/>
<rect x="49" y="145" width="12" height="11"/>
<rect x="42" y="145" width="11" height="11"/>
<rect x="20" y="103" width="12" height="11"/>
<rect x="56" y="151" width="12" height="12"/>
<rect x="49" y="151" width="12" height="12"/>
<rect x="42" y="151" width="11" height="12"/>
<rect x="35" y="151" width="11" height="12"/>
<rect x="20" y="83" width="12" height="11"/>
<rect x="20" y="89" width="12" height="12"/>
<rect x="20" y="69" width="12" height="11"/>
<rect x="20" y="76" width="12" height="11"/>
<rect x="13" y="96" width="11" height="12"/>
<rect x="13" y="103" width="11" height="11"/>
<rect x="13" y="83" width="11" height="11"/>
<rect x="13" y="89" width="11" height="12"/>
<rect x="13" y="69" width="11" height="11"/>
<rect x="13" y="76" width="11" height="11"/>
<rect x="49" y="158" width="12" height="11"/>
<rect x="42" y="158" width="11" height="11"/>
<rect x="35" y="158" width="11" height="11"/>
<rect x="187" y="53" width="11" height="11"/>
<rect x="194" y="53" width="11" height="11"/>
<rect x="201" y="32" width="12" height="11"/>
<rect x="201" y="39" width="12" height="11"/>
<rect x="201" y="46" width="12" height="11"/>
<rect x="208" y="32" width="12" height="11"/>
<rect x="208" y="39" width="12" height="11"/>
<rect x="208" y="46" width="12" height="11"/>
<rect x="6" y="96" width="11" height="12"/>
<rect x="6" y="103" width="11" height="11"/>
<rect x="6" y="83" width="11" height="11"/>
<rect x="6" y="89" width="11" height="12"/>
<rect x="6" y="69" width="11" height="11"/>
<rect x="6" y="76" width="11" height="11"/>
<rect x="49" y="165" width="12" height="11"/>
<rect x="42" y="165" width="11" height="11"/>
<rect x="35" y="165" width="11" height="11"/>
<rect x="42" y="89" width="11" height="11"/>
<rect x="42" y="96" width="11" height="11"/>
<rect x="42" y="103" width="11" height="11"/>
<rect x="42" y="110" width="11" height="11"/>
<rect x="35" y="89" width="11" height="11"/>
<rect x="35" y="96" width="11" height="11"/>
<rect x="35" y="103" width="11" height="11"/>
<rect x="35" y="110" width="11" height="11"/>
<rect x="85" y="75" width="12" height="12"/>
<rect x="78" y="75" width="12" height="12"/>
<rect x="71" y="75" width="11" height="12"/>
<rect x="64" y="75" width="11" height="12"/>
<rect x="42" y="75" width="11" height="12"/>
<rect x="56" y="158" width="12" height="11"/>
<rect x="27" y="75" width="12" height="12"/>
<rect x="27" y="82" width="12" height="12"/>
<rect x="288" y="53" width="11" height="11"/>
<rect x="281" y="60" width="11" height="11"/>
<rect x="288" y="60" width="11" height="11"/>
<rect x="274" y="32" width="11" height="11"/>
<rect x="49" y="75" width="12" height="12"/>
<rect x="56" y="75" width="12" height="12"/>
<rect x="35" y="69" width="11" height="11"/>
<rect x="42" y="69" width="11" height="11"/>
<rect x="100" y="48" width="11" height="11"/>
<rect x="49" y="69" width="12" height="11"/>
<rect x="42" y="62" width="11" height="11"/>
<rect x="49" y="62" width="12" height="11"/>
<rect x="107" y="48" width="12" height="11"/>
<rect x="114" y="62" width="12" height="11"/>
<rect x="129" y="62" width="11" height="11"/>
<rect x="129" y="55" width="11" height="11"/>
<rect x="129" y="48" width="11" height="11"/>
<rect x="129" y="41" width="11" height="11"/>
<rect x="122" y="48" width="11" height="11"/>
<rect x="122" y="41" width="11" height="11"/>
<rect x="114" y="41" width="12" height="11"/>
<rect x="114" y="34" width="12" height="11"/>
<rect x="107" y="41" width="12" height="11"/>
<rect x="114" y="27" width="12" height="11"/>
<rect x="107" y="34" width="12" height="11"/>
<rect x="107" y="27" width="12" height="11"/>
<rect x="100" y="34" width="11" height="11"/>
<rect x="93" y="27" width="11" height="11"/>
<rect x="71" y="41" width="12" height="11"/>
<rect x="114" y="20" width="12" height="11"/>
<rect x="107" y="20" width="12" height="11"/>
<rect x="122" y="27" width="11" height="11"/>
<rect x="100" y="27" width="11" height="11"/>
<rect x="129" y="34" width="11" height="11"/>
<rect x="129" y="27" width="11" height="11"/>
<rect x="136" y="34" width="12" height="11"/>
<rect x="136" y="27" width="12" height="11"/>
<rect x="143" y="34" width="12" height="11"/>
<rect x="143" y="27" width="12" height="11"/>
<rect x="151" y="34" width="11" height="11"/>
<rect x="151" y="27" width="11" height="11"/>
<rect x="93" y="69" width="11" height="11"/>
<rect x="100" y="69" width="11" height="11"/>
<rect x="93" y="62" width="11" height="11"/>
<rect x="100" y="62" width="11" height="11"/>
<rect x="107" y="69" width="12" height="11"/>
<rect x="107" y="62" width="12" height="11"/>
<rect x="143" y="55" width="12" height="11"/>
<rect x="151" y="55" width="11" height="11"/>
<rect x="136" y="62" width="12" height="11"/>
<rect x="158" y="41" width="11" height="11"/>
<rect x="158" y="34" width="11" height="11"/>
<rect x="165" y="41" width="11" height="11"/>
<rect x="165" y="34" width="11" height="11"/>
<rect x="56" y="69" width="12" height="11"/>
<rect x="64" y="69" width="11" height="11"/>
<rect x="71" y="69" width="11" height="11"/>
<rect x="57" y="62" width="11" height="11"/>
<rect x="78" y="69" width="12" height="11"/>
<rect x="85" y="69" width="12" height="11"/>
<rect x="64" y="62" width="11" height="11"/>
<rect x="71" y="62" width="11" height="11"/>
<rect x="78" y="62" width="12" height="11"/>
<rect x="85" y="62" width="12" height="11"/>
<rect x="78" y="55" width="12" height="11"/>
<rect x="85" y="55" width="12" height="11"/>
<rect x="78" y="48" width="12" height="11"/>
<rect x="85" y="48" width="12" height="11"/>
<rect x="57" y="55" width="11" height="11"/>
<rect x="64" y="55" width="11" height="11"/>
<rect x="71" y="55" width="11" height="11"/>
<rect x="57" y="48" width="11" height="11"/>
<rect x="64" y="48" width="11" height="11"/>
<rect x="71" y="48" width="11" height="11"/>
<rect x="252" y="46" width="11" height="11"/>
<rect x="245" y="39" width="11" height="11"/>
<rect x="245" y="32" width="11" height="11"/>
<rect x="245" y="25" width="11" height="11"/>
<rect x="252" y="39" width="11" height="11"/>
<rect x="252" y="32" width="11" height="11"/>
<rect x="252" y="25" width="11" height="11"/>
<rect x="259" y="39" width="12" height="11"/>
<rect x="259" y="32" width="12" height="11"/>
<rect x="259" y="25" width="12" height="11"/>
<rect x="266" y="53" width="12" height="11"/>
<rect x="266" y="46" width="12" height="11"/>
<rect x="266" y="39" width="12" height="11"/>
<rect x="274" y="67" width="11" height="11"/>
<rect x="274" y="60" width="11" height="11"/>
<rect x="266" y="67" width="12" height="11"/>
<rect x="266" y="60" width="12" height="11"/>
<rect x="35" y="62" width="11" height="11"/>
<rect x="42" y="55" width="11" height="11"/>
<rect x="49" y="55" width="12" height="11"/>
<rect x="35" y="55" width="11" height="11"/>
<rect x="42" y="48" width="11" height="11"/>
<rect x="49" y="48" width="12" height="11"/>
<rect x="35" y="48" width="11" height="11"/>
<rect x="20" y="48" width="12" height="11"/>
<rect x="27" y="48" width="12" height="11"/>
<rect x="13" y="48" width="11" height="11"/>
<rect x="20" y="55" width="12" height="11"/>
<rect x="27" y="55" width="12" height="11"/>
<rect x="13" y="55" width="11" height="11"/>
<rect x="20" y="41" width="12" height="11"/>
<rect x="27" y="41" width="12" height="11"/>
<rect x="13" y="41" width="11" height="11"/>
<rect x="64" y="34" width="11" height="11"/>
<rect x="71" y="34" width="12" height="11"/>
<rect x="78" y="34" width="12" height="11"/>
<rect x="64" y="27" width="11" height="11"/>
<rect x="71" y="27" width="12" height="11"/>
<rect x="78" y="27" width="12" height="11"/>
<rect x="71" y="20" width="12" height="11"/>
<rect x="78" y="20" width="12" height="11"/>
<rect x="71" y="13" width="12" height="11"/>
<rect x="78" y="13" width="12" height="11"/>
<rect x="64" y="20" width="11" height="11"/>
<rect x="64" y="13" width="11" height="11"/>
<rect x="33" y="34" width="12" height="11"/>
<rect x="33" y="27" width="12" height="11"/>
<rect x="93" y="55" width="11" height="11"/>
<rect x="100" y="55" width="11" height="11"/>
<rect x="107" y="55" width="12" height="11"/>
<rect x="114" y="55" width="12" height="11"/>
<rect x="237" y="18" width="12" height="11"/>
<rect x="245" y="18" width="11" height="11"/>
<rect x="252" y="18" width="11" height="11"/>
<rect x="259" y="18" width="11" height="11"/>
<rect x="245" y="11" width="11" height="11"/>
<rect x="252" y="11" width="11" height="11"/>
<rect x="259" y="11" width="12" height="11"/>
<rect x="266" y="18" width="12" height="11"/>
<rect x="274" y="18" width="11" height="11"/>
<rect x="281" y="18" width="11" height="11"/>
<rect x="266" y="25" width="12" height="11"/>
<rect x="274" y="25" width="11" height="11"/>
<rect x="281" y="25" width="11" height="11"/>
<rect x="281" y="46" width="11" height="11"/>
<rect x="288" y="46" width="11" height="11"/>
<rect x="281" y="53" width="11" height="11"/>
<rect x="274" y="53" width="11" height="11"/>
<rect x="259" y="62" width="12" height="11"/>
<rect x="259" y="55" width="12" height="11"/>
<rect x="42" y="41" width="11" height="11"/>
<rect x="49" y="41" width="12" height="11"/>
<rect x="35" y="41" width="11" height="11"/>
<rect x="93" y="48" width="11" height="11"/>
<rect x="78" y="41" width="12" height="11"/>
<rect x="86" y="41" width="11" height="11"/>
<rect x="93" y="41" width="11" height="11"/>
<rect x="93" y="76" width="11" height="11"/>
<rect x="122" y="34" width="11" height="11"/>
<rect x="100" y="41" width="11" height="11"/>
<rect x="93" y="34" width="11" height="11"/>
<rect x="86" y="34" width="11" height="11"/>
<rect x="114" y="13" width="12" height="12"/>
<rect x="107" y="13" width="12" height="12"/>
<rect x="122" y="20" width="11" height="11"/>
<rect x="100" y="20" width="11" height="11"/>
<rect x="158" y="55" width="11" height="11"/>
<rect x="158" y="48" width="11" height="11"/>
<rect x="165" y="55" width="11" height="11"/>
<rect x="165" y="48" width="11" height="11"/>
<rect x="216" y="53" width="11" height="11"/>
<rect x="223" y="53" width="11" height="11"/>
<rect x="230" y="53" width="12" height="11"/>
<rect x="216" y="46" width="11" height="11"/>
<rect x="237" y="53" width="12" height="11"/>
<rect x="223" y="46" width="11" height="11"/>
<rect x="230" y="46" width="12" height="11"/>
<rect x="237" y="46" width="12" height="11"/>
<rect x="245" y="46" width="11" height="11"/>
<rect x="237" y="39" width="12" height="11"/>
<rect x="237" y="32" width="12" height="11"/>
<rect x="216" y="39" width="11" height="11"/>
<rect x="223" y="39" width="11" height="11"/>
<rect x="230" y="39" width="12" height="11"/>
<rect x="216" y="32" width="11" height="11"/>
<rect x="223" y="32" width="11" height="11"/>
<rect x="230" y="32" width="12" height="11"/>
<rect x="114" y="48" width="12" height="11"/>
<rect x="122" y="62" width="11" height="11"/>
<rect x="122" y="55" width="11" height="11"/>
<rect x="136" y="55" width="12" height="11"/>
<rect x="136" y="48" width="12" height="11"/>
<rect x="143" y="48" width="12" height="11"/>
<rect x="136" y="41" width="12" height="11"/>
<rect x="143" y="41" width="12" height="11"/>
<rect x="151" y="48" width="11" height="11"/>
<rect x="151" y="41" width="11" height="11"/>
<rect x="143" y="62" width="12" height="11"/>
<rect x="151" y="62" width="11" height="11"/>
<rect x="140" y="68" width="12" height="12"/>
<rect x="42" y="17" width="12" height="11"/>
<rect x="49" y="17" width="12" height="11"/>
<rect x="57" y="17" width="11" height="11"/>
<rect x="40" y="34" width="12" height="11"/>
<rect x="40" y="27" width="12" height="11"/>
<rect x="237" y="11" width="12" height="11"/>
<rect x="274" y="46" width="11" height="11"/>
<rect x="266" y="32" width="12" height="11"/>
<rect x="230" y="15" width="12" height="11"/>
</g>
</svg>