<svg xmlns="http://www.w3.org/2000/svg" width="300" height="300" viewBox="0 0 300 300" class="creatureMap" style="position:absolute;">
<defs>
<filter id="blur" x="-30%" y="-30%" width="160%" height="160%"><feGaussianBlur stdDeviation="3" />
</filter>
<pattern id="pattern-untameable" width="10" height="10" patternTransform="rotate(135)" patternUnits="userSpaceOnUse"><rect width="4" height="10" fill="black"></rect>
</pattern>
<filter id="groupStroke"><feFlood result="outsideColor" flood-color="black"/><feMorphology in="SourceAlpha" operator="dilate" radius="2"/><feComposite result="strokeoutline1" in="outsideColor" operator="in"/><feComposite result="strokeoutline2" in="strokeoutline1" in2="SourceAlpha" operator="out"/><feGaussianBlur in="strokeoutline2" result="strokeblur" stdDeviation="1"/>
</filter>
<style>
.spawningMap-very-common { fill: #0F0;}
.spawningMap-common { fill: #B2FF00;}
.spawningMap-uncommon { fill: #FF0;}
.spawningMap-very-uncommon { fill: #FC0;}
.spawningMap-rare { fill: #F60;}
.spawningMap-very-rare { fill: #F00; }.spawning-map-point {stroke:black; stroke-width:1;}
</style>
</defs>
<g filter="url(#blur)" opacity="0.7">
<g class="spawningMap-very-rare"><rect x="50" y="48" width="38" height="33" /><rect x="174" y="91" width="17" height="15" /><rect x="244" y="87" width="17" height="15" /><rect x="102" y="115" width="17" height="15" /><rect x="152" y="43" width="17" height="15" />
</g>
<g class="spawningMap-very-common"><rect x="106" y="120" width="8" height="9" /><rect x="111" y="108" width="12" height="14" /><rect x="111" y="108" width="12" height="14" />
</g>
</g>
<g class="spawning-map-point" opacity="0.8">
<g class="spawningMap-common"><circle cx="113" cy="114" r="4" /><circle cx="113" cy="114" r="4" /><circle cx="113" cy="114" r="4" />
</g>
</g>
<g fill="url(#pattern-untameable)" opacity="0.3"><rect x="106" y="120" width="8" height="9"/><rect x="111" y="108" width="12" height="14"/><rect x="111" y="108" width="12" height="14"/>
</g>
<g filter="url(#groupStroke)" opacity="0.8"><rect x="106" y="120" width="8" height="9"/><rect x="111" y="108" width="12" height="14"/><rect x="111" y="108" width="12" height="14"/>
</g>
</svg>