<svg xmlns="http://www.w3.org/2000/svg" width="300" height="300" viewBox="0 0 300 300" class="creatureMap" style="position:absolute;">
<defs>
<filter id="blur" x="-30%" y="-30%" width="160%" height="160%"><feGaussianBlur stdDeviation="3" />
</filter>
<pattern id="pattern-untameable" width="10" height="10" patternTransform="rotate(135)" patternUnits="userSpaceOnUse"><rect width="4" height="10" fill="black"></rect>
</pattern>
<filter id="groupStroke"><feFlood result="outsideColor" flood-color="black"/><feMorphology in="SourceAlpha" operator="dilate" radius="2"/><feComposite result="strokeoutline1" in="outsideColor" operator="in"/><feComposite result="strokeoutline2" in="strokeoutline1" in2="SourceAlpha" operator="out"/><feGaussianBlur in="strokeoutline2" result="strokeblur" stdDeviation="1"/>
</filter>
<style>
.spawningMap-very-common { fill: #0F0;}
.spawningMap-common { fill: #B2FF00;}
.spawningMap-uncommon { fill: #FF0;}
.spawningMap-very-uncommon { fill: #FC0;}
.spawningMap-rare { fill: #F60;}
.spawningMap-very-rare { fill: #F00; }.spawning-map-point {stroke:black; stroke-width:1;}
</style>
</defs>
<g filter="url(#blur)" opacity="0.7">
<g class="spawningMap-uncommon"><rect x="128" y="174" width="8" height="7" />
</g>
<g class="spawningMap-common"><rect x="202" y="139" width="9" height="8" /><rect x="168" y="118" width="6" height="5" /><rect x="168" y="110" width="5" height="4" /><rect x="166" y="104" width="6" height="4" /><rect x="162" y="100" width="5" height="5" /><rect x="154" y="99" width="6" height="4" /><rect x="146" y="99" width="6" height="5" /><rect x="144" y="103" width="5" height="5" /><rect x="141" y="110" width="6" height="5" /><rect x="142" y="117" width="6" height="5" /><rect x="143" y="125" width="6" height="4" /><rect x="143" y="133" width="5" height="4" /><rect x="150" y="139" width="6" height="4" /><rect x="158" y="140" width="6" height="4" /><rect x="165" y="137" width="6" height="4" /><rect x="170" y="132" width="5" height="4" /><rect x="169" y="124" width="6" height="5" /><rect x="156" y="108" width="6" height="4" /><rect x="156" y="104" width="8" height="8" /><rect x="118" y="148" width="9" height="7" /><rect x="118" y="78" width="9" height="8" /><rect x="137" y="130" width="8" height="8" /><rect x="137" y="122" width="8" height="7" /><rect x="137" y="113" width="8" height="8" /><rect x="137" y="104" width="8" height="8" /><rect x="137" y="96" width="8" height="7" /><rect x="137" y="87" width="8" height="8" /><rect x="137" y="165" width="8" height="8" /><rect x="137" y="174" width="8" height="7" /><rect x="137" y="78" width="8" height="8" /><rect x="137" y="69" width="8" height="8" /><rect x="128" y="96" width="8" height="7" /><rect x="128" y="87" width="8" height="8" /><rect x="128" y="78" width="8" height="8" /><rect x="128" y="69" width="8" height="8" /><rect x="109" y="29" width="9" height="8" /><rect x="202" y="139" width="9" height="8" /><rect x="212" y="130" width="8" height="8" /><rect x="212" y="122" width="8" height="7" /><rect x="212" y="113" width="8" height="8" /><rect x="212" y="104" width="8" height="8" /><rect x="212" y="96" width="8" height="7" /><rect x="212" y="87" width="8" height="8" /><rect x="202" y="104" width="9" height="8" /><rect x="202" y="96" width="9" height="7" /><rect x="202" y="87" width="9" height="8" /><rect x="202" y="148" width="9" height="7" /><rect x="202" y="165" width="9" height="8" /><rect x="202" y="174" width="9" height="7" /><rect x="202" y="78" width="9" height="8" /><rect x="230" y="130" width="9" height="8" /><rect x="230" y="104" width="9" height="8" /><rect x="230" y="96" width="9" height="7" /><rect x="230" y="165" width="9" height="8" /><rect x="230" y="78" width="9" height="8" /><rect x="221" y="139" width="8" height="8" /><rect x="221" y="87" width="8" height="8" /><rect x="221" y="148" width="8" height="7" /><rect x="221" y="156" width="8" height="8" /><rect x="221" y="78" width="8" height="8" /><rect x="249" y="139" width="8" height="8" /><rect x="249" y="96" width="8" height="7" /><rect x="249" y="156" width="8" height="8" /><rect x="249" y="78" width="8" height="8" /><rect x="239" y="130" width="9" height="8" /><rect x="239" y="104" width="9" height="8" /><rect x="239" y="165" width="9" height="8" /><rect x="239" y="78" width="9" height="8" /><rect x="156" y="139" width="8" height="8" /><rect x="146" y="130" width="9" height="8" /><rect x="146" y="165" width="9" height="8" /><rect x="174" y="130" width="9" height="8" /><rect x="165" y="182" width="8" height="8" /><rect x="165" y="78" width="8" height="8" /><rect x="193" y="96" width="9" height="7" /><rect x="193" y="87" width="9" height="8" /><rect x="193" y="174" width="9" height="7" /><rect x="193" y="78" width="9" height="8" /><rect x="184" y="139" width="8" height="8" /><rect x="184" y="130" width="8" height="8" /><rect x="184" y="96" width="8" height="7" /><rect x="184" y="174" width="8" height="7" /><rect x="184" y="78" width="8" height="8" /><rect x="184" y="69" width="8" height="8" /><rect x="156" y="130" width="8" height="8" /><rect x="128" y="165" width="8" height="8" /><rect x="130" y="184" width="9" height="7" /><rect x="107" y="182" width="8" height="7" /><rect x="203" y="177" width="8" height="8" /><rect x="202" y="156" width="9" height="8" /><rect x="146" y="104" width="9" height="8" /><rect x="146" y="122" width="9" height="7" /><rect x="146" y="113" width="9" height="8" /><rect x="146" y="96" width="9" height="7" /><rect x="146" y="174" width="9" height="7" /><rect x="156" y="182" width="8" height="8" /><rect x="156" y="78" width="8" height="8" /><rect x="156" y="96" width="8" height="7" /><rect x="156" y="148" width="8" height="7" /><rect x="193" y="130" width="9" height="8" /><rect x="146" y="182" width="9" height="8" /><rect x="146" y="78" width="9" height="8" /><rect x="174" y="113" width="9" height="8" /><rect x="174" y="104" width="9" height="8" /><rect x="174" y="182" width="9" height="8" /><rect x="174" y="78" width="9" height="8" /><rect x="174" y="69" width="9" height="8" /><rect x="165" y="139" width="8" height="8" /><rect x="165" y="130" width="8" height="8" /><rect x="165" y="104" width="8" height="8" /><rect x="165" y="148" width="8" height="7" /><rect x="193" y="104" width="9" height="8" />
</g>
</g>
<g class="spawning-map-point" opacity="0.8">
</g>
</svg>