<svg xmlns="http://www.w3.org/2000/svg" width="300" height="300" viewBox="0 0 300 300" class="creatureMap" style="position:absolute;">
<defs>
<filter id="blur" x="-30%" y="-30%" width="160%" height="160%"><feGaussianBlur stdDeviation="3" />
</filter>
<pattern id="pattern-untameable" width="10" height="10" patternTransform="rotate(135)" patternUnits="userSpaceOnUse"><rect width="4" height="10" fill="black"></rect>
</pattern>
<filter id="groupStroke"><feFlood result="outsideColor" flood-color="black"/><feMorphology in="SourceAlpha" operator="dilate" radius="2"/><feComposite result="strokeoutline1" in="outsideColor" operator="in"/><feComposite result="strokeoutline2" in="strokeoutline1" in2="SourceAlpha" operator="out"/><feGaussianBlur in="strokeoutline2" result="strokeblur" stdDeviation="1"/>
</filter>
<style>
.spawningMap-very-common { fill: #0F0;}
.spawningMap-common { fill: #B2FF00;}
.spawningMap-uncommon { fill: #FF0;}
.spawningMap-very-uncommon { fill: #FC0;}
.spawningMap-rare { fill: #F60;}
.spawningMap-very-rare { fill: #F00; }.spawning-map-point {stroke:black; stroke-width:1;}
</style>
</defs>
<g filter="url(#blur)" opacity="0.7">
<g class="spawningMap-very-uncommon"><rect x="64" y="228" width="6" height="8" /><rect x="50" y="241" width="6" height="7" /><rect x="77" y="228" width="6" height="8" /><rect x="70" y="228" width="6" height="8" /><rect x="83" y="228" width="6" height="6" /><rect x="83" y="235" width="6" height="6" />
</g>
<g class="spawningMap-uncommon"><rect x="136" y="248" width="6" height="6" /><rect x="136" y="254" width="6" height="6" /><rect x="70" y="248" width="6" height="6" /><rect x="77" y="248" width="6" height="6" /><rect x="165" y="184" width="6" height="6" /><rect x="158" y="184" width="6" height="6" /><rect x="182" y="227" width="6" height="6" /><rect x="142" y="221" width="6" height="6" /><rect x="162" y="234" width="6" height="6" /><rect x="149" y="234" width="6" height="6" /><rect x="142" y="234" width="6" height="6" /><rect x="142" y="241" width="6" height="6" /><rect x="149" y="221" width="6" height="6" /><rect x="149" y="214" width="6" height="6" /><rect x="156" y="214" width="5" height="6" /><rect x="142" y="248" width="6" height="6" /><rect x="142" y="254" width="6" height="6" /><rect x="162" y="214" width="6" height="6" /><rect x="57" y="255" width="6" height="6" /><rect x="57" y="248" width="6" height="6" /><rect x="64" y="255" width="6" height="6" /><rect x="64" y="248" width="6" height="6" /><rect x="74" y="255" width="9" height="6" /><rect x="83" y="255" width="6" height="6" /><rect x="83" y="248" width="6" height="6" /><rect x="158" y="157" width="6" height="6" /><rect x="165" y="170" width="6" height="7" /><rect x="158" y="170" width="6" height="7" /><rect x="182" y="214" width="6" height="6" /><rect x="182" y="221" width="6" height="6" /><rect x="176" y="221" width="6" height="6" /><rect x="176" y="227" width="6" height="6" /><rect x="165" y="157" width="6" height="6" /><rect x="162" y="221" width="6" height="6" /><rect x="155" y="221" width="6" height="6" /><rect x="162" y="227" width="6" height="6" /><rect x="155" y="227" width="6" height="6" /><rect x="149" y="227" width="6" height="6" /><rect x="142" y="227" width="6" height="6" /><rect x="155" y="234" width="6" height="6" /><rect x="155" y="241" width="6" height="6" /><rect x="162" y="241" width="6" height="6" /><rect x="162" y="248" width="6" height="6" /><rect x="162" y="254" width="6" height="6" />
</g>
<g class="spawningMap-common"><rect x="142" y="261" width="6" height="3" /><rect x="165" y="177" width="6" height="7" /><rect x="196" y="227" width="6" height="6" /><rect x="196" y="234" width="6" height="6" /><rect x="196" y="241" width="6" height="6" /><rect x="176" y="248" width="6" height="6" /><rect x="202" y="254" width="6" height="6" /><rect x="196" y="254" width="6" height="6" /><rect x="189" y="254" width="6" height="6" /><rect x="182" y="254" width="6" height="6" /><rect x="176" y="159" width="6" height="7" /><rect x="176" y="153" width="6" height="6" /><rect x="155" y="248" width="6" height="6" /><rect x="149" y="254" width="6" height="6" /><rect x="155" y="254" width="6" height="6" /><rect x="202" y="234" width="6" height="6" /><rect x="165" y="164" width="6" height="6" /><rect x="202" y="241" width="6" height="6" /><rect x="202" y="248" width="6" height="6" /><rect x="196" y="248" width="6" height="6" /><rect x="189" y="248" width="6" height="6" /><rect x="182" y="248" width="6" height="6" /><rect x="165" y="150" width="6" height="6" /><rect x="169" y="234" width="6" height="6" /><rect x="169" y="227" width="6" height="6" /><rect x="169" y="221" width="6" height="6" /><rect x="169" y="214" width="6" height="6" /><rect x="176" y="214" width="6" height="6" /><rect x="176" y="207" width="6" height="6" /><rect x="182" y="207" width="6" height="6" /><rect x="182" y="200" width="6" height="6" /><rect x="182" y="193" width="6" height="7" /><rect x="176" y="200" width="6" height="6" /><rect x="176" y="193" width="6" height="7" /><rect x="176" y="187" width="6" height="6" /><rect x="176" y="180" width="6" height="6" /><rect x="176" y="173" width="6" height="6" /><rect x="176" y="166" width="6" height="7" /><rect x="169" y="241" width="6" height="6" /><rect x="149" y="241" width="6" height="6" /><rect x="149" y="248" width="6" height="6" />
</g>
<g class="spawningMap-very-common"><rect x="158" y="207" width="4" height="6" /><rect x="158" y="200" width="4" height="6" /><rect x="158" y="191" width="12" height="2" /><rect x="172" y="153" width="3" height="10" /><rect x="149" y="261" width="6" height="3" /><rect x="155" y="261" width="6" height="3" /><rect x="139" y="221" width="3" height="9" /><rect x="176" y="234" width="6" height="6" /><rect x="182" y="234" width="6" height="6" /><rect x="182" y="159" width="6" height="7" /><rect x="189" y="159" width="6" height="7" /><rect x="158" y="177" width="6" height="7" /><rect x="189" y="234" width="6" height="6" /><rect x="169" y="207" width="6" height="6" /><rect x="169" y="200" width="6" height="6" /><rect x="162" y="207" width="6" height="6" /><rect x="162" y="200" width="6" height="6" /><rect x="162" y="193" width="6" height="7" /><rect x="158" y="193" width="4" height="7" /><rect x="169" y="193" width="6" height="7" /><rect x="172" y="174" width="3" height="9" /><rect x="172" y="164" width="3" height="9" /><rect x="172" y="184" width="3" height="9" /><rect x="158" y="164" width="6" height="6" /><rect x="158" y="150" width="6" height="6" /><rect x="182" y="241" width="6" height="6" /><rect x="176" y="241" width="6" height="6" /><rect x="189" y="227" width="6" height="6" /><rect x="189" y="241" width="6" height="6" /><rect x="189" y="221" width="6" height="6" /><rect x="189" y="200" width="6" height="6" /><rect x="189" y="193" width="6" height="7" /><rect x="189" y="187" width="6" height="6" /><rect x="182" y="187" width="6" height="6" /><rect x="182" y="180" width="6" height="6" /><rect x="189" y="180" width="6" height="6" /><rect x="182" y="173" width="6" height="6" /><rect x="189" y="173" width="6" height="6" /><rect x="182" y="166" width="6" height="7" /><rect x="189" y="166" width="6" height="7" />
</g>
</g>
<g class="spawning-map-point" opacity="0.8">
</g>
</svg>