<svg xmlns="http://www.w3.org/2000/svg" width="300" height="300" viewBox="0 0 300 300" class="creatureMap" style="position:absolute;">
<defs>
<filter id="blur" x="-30%" y="-30%" width="160%" height="160%"><feGaussianBlur stdDeviation="3" />
</filter>
<pattern id="pattern-untameable" width="10" height="10" patternTransform="rotate(135)" patternUnits="userSpaceOnUse"><rect width="4" height="10" fill="black"></rect>
</pattern>
<filter id="groupStroke"><feFlood result="outsideColor" flood-color="black"/><feMorphology in="SourceAlpha" operator="dilate" radius="2"/><feComposite result="strokeoutline1" in="outsideColor" operator="in"/><feComposite result="strokeoutline2" in="strokeoutline1" in2="SourceAlpha" operator="out"/><feGaussianBlur in="strokeoutline2" result="strokeblur" stdDeviation="1"/>
</filter>
<style>
.spawningMap-very-common { fill: #0F0;}
.spawningMap-common { fill: #B2FF00;}
.spawningMap-uncommon { fill: #FF0;}
.spawningMap-very-uncommon { fill: #FC0;}
.spawningMap-rare { fill: #F60;}
.spawningMap-very-rare { fill: #F00; }.spawning-map-point {stroke:black; stroke-width:1;}
</style>
</defs>
<g filter="url(#blur)" opacity="0.7">
<g class="spawningMap-rare"><rect x="21" y="88" width="5" height="5" /><rect x="19" y="98" width="5" height="5" /><rect x="40" y="216" width="4" height="5" /><rect x="22" y="113" width="6" height="5" /><rect x="28" y="123" width="5" height="5" /><rect x="27" y="134" width="5" height="4" /><rect x="27" y="138" width="5" height="5" /><rect x="29" y="147" width="5" height="5" /><rect x="32" y="161" width="5" height="5" /><rect x="33" y="172" width="6" height="5" /><rect x="34" y="188" width="4" height="5" /><rect x="32" y="196" width="4" height="5" /><rect x="33" y="201" width="5" height="5" /><rect x="33" y="206" width="4" height="5" /><rect x="35" y="211" width="4" height="5" /><rect x="48" y="225" width="4" height="5" /><rect x="42" y="221" width="4" height="5" />
</g>
<g class="spawningMap-very-common"><rect x="136" y="175" width="2" height="2" /><rect x="129" y="173" width="5" height="4" /><rect x="125" y="177" width="4" height="5" /><rect x="77" y="79" width="3" height="3" /><rect x="76" y="83" width="3" height="5" /><rect x="75" y="88" width="3" height="3" /><rect x="74" y="93" width="3" height="3" /><rect x="72" y="97" width="2" height="2" /><rect x="77" y="79" width="3" height="3" /><rect x="76" y="83" width="3" height="5" /><rect x="75" y="88" width="3" height="3" /><rect x="74" y="93" width="3" height="3" /><rect x="72" y="97" width="2" height="2" />
</g>
</g>
<g class="spawning-map-point" opacity="0.8">
</g>
<g filter="url(#groupStroke)" opacity="0.8"><rect x="136" y="175" width="2" height="2"/><rect x="129" y="173" width="5" height="4"/><rect x="125" y="177" width="4" height="5"/><rect x="77" y="79" width="3" height="3"/><rect x="76" y="83" width="3" height="5"/><rect x="75" y="88" width="3" height="3"/><rect x="74" y="93" width="3" height="3"/><rect x="72" y="97" width="2" height="2"/><rect x="77" y="79" width="3" height="3"/><rect x="76" y="83" width="3" height="5"/><rect x="75" y="88" width="3" height="3"/><rect x="74" y="93" width="3" height="3"/><rect x="72" y="97" width="2" height="2"/>
</g>
</svg>