<svg xmlns="http://www.w3.org/2000/svg" width="300" height="300" viewBox="0 0 300 300" class="creatureMap" style="position:absolute;">
<defs>
  <filter id="blur" x="-30%" y="-30%" width="160%" height="160%">
    <feGaussianBlur stdDeviation="3" />
</filter>
<pattern id="pattern-untameable" width="10" height="10" patternTransform="rotate(135)" patternUnits="userSpaceOnUse">
<rect width="4" height="10" fill="black"></rect>
</pattern><filter id="groupStroke"><feFlood result="outsideColor" flood-color="black"/><feMorphology in="SourceAlpha" operator="dilate" radius="2"/><feComposite result="strokeoutline1" in="outsideColor" operator="in"/><feComposite result="strokeoutline2" in="strokeoutline1" in2="SourceAlpha" operator="out"/><feGaussianBlur in="strokeoutline2" result="strokeblur" stdDeviation="1"/></filter><style>.spawningMap-very-common { fill: #0F0;}.spawningMap-common { fill: #B2FF00;}.spawningMap-uncommon { fill: #FF0;}.spawningMap-very-uncommon { fill: #FC0;}.spawningMap-rare { fill: #F60;}.spawningMap-very-rare { fill: #F00; }.spawning-map-point {stroke:black; stroke-width:1;}</style></defs>
<g filter="url(#blur)" opacity="0.7"><g class="spawningMap-common"><rect x="204" y="27" width="15" height="15" /><rect x="212" y="36" width="15" height="15" /><rect x="200" y="36" width="15" height="15" /><rect x="221" y="34" width="15" height="15" /><rect x="233" y="31" width="15" height="15" /></g><g class="spawningMap-very-common"><rect x="263" y="136" width="11" height="8" /><rect x="265" y="137" width="15" height="15" /><rect x="259" y="138" width="10" height="11" /><rect x="268" y="132" width="9" height="9" /><rect x="208" y="29" width="7" height="7" /><rect x="242" y="25" width="8" height="7" /><rect x="241" y="23" width="8" height="8" /><rect x="239" y="23" width="8" height="8" /><rect x="237" y="23" width="8" height="8" /><rect x="235" y="23" width="8" height="7" /><rect x="208" y="24" width="7" height="8" /><rect x="203" y="25" width="8" height="8" /><rect x="206" y="28" width="7" height="8" /><rect x="139" y="86" width="12" height="12" /><rect x="139" y="94" width="12" height="11" /><rect x="146" y="86" width="12" height="12" /><rect x="124" y="69" width="11" height="12" /><rect x="146" y="94" width="12" height="11" /><rect x="231" y="79" width="11" height="11" /><rect x="238" y="79" width="11" height="11" /><rect x="238" y="71" width="11" height="12" /><rect x="227" y="115" width="11" height="12" /><rect x="227" y="108" width="11" height="12" /><rect x="204" y="141" width="11" height="12" /><rect x="189" y="141" width="11" height="12" /><rect x="204" y="134" width="11" height="11" /><rect x="196" y="141" width="12" height="12" /><rect x="196" y="134" width="12" height="11" /><rect x="110" y="91" width="11" height="12" /><rect x="110" y="84" width="11" height="11" /><rect x="129" y="106" width="11" height="12" /><rect x="129" y="99" width="11" height="11" /><rect x="136" y="106" width="11" height="12" /><rect x="136" y="99" width="11" height="11" /><rect x="143" y="106" width="12" height="12" /><rect x="143" y="99" width="12" height="11" /><rect x="150" y="106" width="12" height="12" /><rect x="150" y="99" width="12" height="11" /><rect x="139" y="82" width="11" height="12" /><rect x="139" y="75" width="11" height="11" /><rect x="117" y="77" width="11" height="11" /><rect x="124" y="77" width="12" height="11" /><rect x="220" y="175" width="11" height="12" /><rect x="220" y="168" width="11" height="11" /><rect x="227" y="170" width="11" height="11" /><rect x="227" y="177" width="11" height="11" /><rect x="234" y="177" width="12" height="11" /><rect x="234" y="184" width="12" height="12" /><rect x="242" y="184" width="11" height="12" /><rect x="247" y="192" width="11" height="11" /><rect x="247" y="199" width="11" height="11" /><rect x="116" y="236" width="12" height="11" /><rect x="124" y="236" width="11" height="11" /><rect x="209" y="21" width="9" height="9" /><rect x="210" y="24" width="8" height="9" /><rect x="212" y="20" width="9" height="9" /><rect x="213" y="23" width="9" height="9" /><rect x="215" y="19" width="9" height="9" /><rect x="216" y="23" width="9" height="9" /><rect x="219" y="19" width="9" height="9" /><rect x="219" y="22" width="9" height="9" /><rect x="222" y="19" width="9" height="9" /><rect x="223" y="22" width="9" height="9" /><rect x="225" y="18" width="9" height="9" /><rect x="226" y="21" width="9" height="9" /><rect x="116" y="243" width="12" height="12" /><rect x="124" y="243" width="11" height="12" /><rect x="109" y="243" width="12" height="12" /><rect x="102" y="236" width="11" height="11" /><rect x="102" y="243" width="11" height="12" /><rect x="102" y="250" width="11" height="12" /><rect x="132" y="91" width="11" height="11" /><rect x="242" y="27" width="8" height="7" /><rect x="229" y="19" width="9" height="9" /><rect x="228" y="22" width="9" height="9" /><rect x="232" y="20" width="9" height="9" /><rect x="231" y="23" width="9" height="9" /><rect x="154" y="86" width="11" height="12" /><rect x="154" y="94" width="11" height="11" /><rect x="189" y="148" width="11" height="12" /><rect x="204" y="126" width="11" height="12" /><rect x="204" y="119" width="11" height="12" /><rect x="196" y="119" width="12" height="12" /><rect x="117" y="84" width="11" height="11" /><rect x="234" y="86" width="12" height="12" /><rect x="124" y="84" width="12" height="11" /><rect x="132" y="82" width="11" height="12" /><rect x="132" y="75" width="11" height="11" /><rect x="146" y="80" width="12" height="11" /><rect x="146" y="72" width="12" height="12" /><rect x="117" y="69" width="11" height="12" /><rect x="231" y="71" width="11" height="12" /><rect x="109" y="236" width="12" height="11" /><rect x="116" y="250" width="12" height="12" /><rect x="124" y="250" width="11" height="12" /><rect x="109" y="250" width="12" height="12" /><rect x="94" y="228" width="12" height="12" /><rect x="94" y="236" width="12" height="11" /><rect x="94" y="243" width="12" height="12" /><rect x="223" y="71" width="12" height="12" /><rect x="249" y="184" width="12" height="12" /><rect x="234" y="170" width="12" height="11" /><rect x="239" y="192" width="12" height="11" /></g></g>

<g fill="url(#pattern-untameable)" opacity="0.3"><rect x="263" y="136" width="11" height="8"/><rect x="265" y="137" width="15" height="15"/><rect x="259" y="138" width="10" height="11"/><rect x="268" y="132" width="9" height="9"/></g>
<g filter="url(#groupStroke)" opacity="0.8"><rect x="263" y="136" width="11" height="8"/><rect x="265" y="137" width="15" height="15"/><rect x="259" y="138" width="10" height="11"/><rect x="268" y="132" width="9" height="9"/></g></svg>