<svg xmlns="http://www.w3.org/2000/svg" width="300" height="300" viewBox="0 0 300 300" class="creatureMap" style="position:absolute;">
<defs>
<filter id="blur" x="-30%" y="-30%" width="160%" height="160%"><feGaussianBlur stdDeviation="3" />
</filter>
<pattern id="pattern-untameable" width="10" height="10" patternTransform="rotate(135)" patternUnits="userSpaceOnUse"><rect width="4" height="10" fill="black"></rect>
</pattern>
<filter id="groupStroke"><feFlood result="outsideColor" flood-color="black"/><feMorphology in="SourceAlpha" operator="dilate" radius="2"/><feComposite result="strokeoutline1" in="outsideColor" operator="in"/><feComposite result="strokeoutline2" in="strokeoutline1" in2="SourceAlpha" operator="out"/><feGaussianBlur in="strokeoutline2" result="strokeblur" stdDeviation="1"/>
</filter>
<style>
.spawningMap-very-common { fill: #0F0;}
.spawningMap-common { fill: #B2FF00;}
.spawningMap-uncommon { fill: #FF0;}
.spawningMap-very-uncommon { fill: #FC0;}
.spawningMap-rare { fill: #F60;}
.spawningMap-very-rare { fill: #F00; }.spawning-map-point {stroke:black; stroke-width:1;}
</style>
</defs>
<g filter="url(#blur)" opacity="0.7">
<g class="spawningMap-uncommon"><rect x="213" y="203" width="9" height="8" /><rect x="262" y="167" width="9" height="8" /><rect x="228" y="179" width="9" height="8" /><rect x="250" y="51" width="9" height="8" /><rect x="215" y="73" width="9" height="8" /><rect x="217" y="182" width="8" height="8" /><rect x="188" y="209" width="9" height="8" /><rect x="148" y="212" width="9" height="8" /><rect x="128" y="199" width="8" height="8" /><rect x="242" y="68" width="9" height="8" /><rect x="267" y="85" width="8" height="8" /><rect x="123" y="65" width="8" height="8" /><rect x="118" y="47" width="9" height="8" /><rect x="235" y="183" width="8" height="8" /><rect x="272" y="148" width="8" height="8" /><rect x="265" y="132" width="9" height="7" /><rect x="252" y="181" width="9" height="8" /><rect x="262" y="119" width="8" height="8" /><rect x="261" y="107" width="8" height="8" /><rect x="265" y="98" width="8" height="7" /><rect x="253" y="71" width="9" height="8" />
</g>
</g>
<g class="spawning-map-point" opacity="0.8">
</g>
</svg>