<svg xmlns="http://www.w3.org/2000/svg" width="300" height="300" viewBox="0 0 300 300" class="creatureMap" style="position:absolute;">
<defs>
  <filter id="blur" x="-30%" y="-30%" width="160%" height="160%">
    <feGaussianBlur stdDeviation="3" />
</filter>
<pattern id="pattern-untameable" width="10" height="10" patternTransform="rotate(135)" patternUnits="userSpaceOnUse">
<rect width="4" height="10" fill="black"></rect>
</pattern><filter id="groupStroke"><feFlood result="outsideColor" flood-color="black"/><feMorphology in="SourceAlpha" operator="dilate" radius="2"/><feComposite result="strokeoutline1" in="outsideColor" operator="in"/><feComposite result="strokeoutline2" in="strokeoutline1" in2="SourceAlpha" operator="out"/><feGaussianBlur in="strokeoutline2" result="strokeblur" stdDeviation="1"/></filter><style>.spawningMap-very-common { fill: #0F0;}.spawningMap-common { fill: #B2FF00;}.spawningMap-uncommon { fill: #FF0;}.spawningMap-very-uncommon { fill: #FC0;}.spawningMap-rare { fill: #F60;}.spawningMap-very-rare { fill: #F00; }.spawning-map-point {stroke:black; stroke-width:1;}</style></defs>
<g filter="url(#blur)" opacity="0.7"><g class="spawningMap-very-uncommon"><rect x="200" y="235" width="27" height="24" /><rect x="6" y="259" width="19" height="23" /></g><g class="spawningMap-uncommon"><rect x="62" y="217" width="13" height="12" /></g><g class="spawningMap-common"><rect x="227" y="185" width="12" height="12" /><rect x="232" y="192" width="11" height="12" /><rect x="220" y="182" width="11" height="11" /><rect x="220" y="189" width="11" height="12" /><rect x="212" y="189" width="12" height="12" /><rect x="205" y="186" width="12" height="12" /><rect x="198" y="186" width="11" height="12" /><rect x="183" y="189" width="12" height="12" /><rect x="246" y="151" width="11" height="11" /><rect x="239" y="148" width="11" height="11" /><rect x="239" y="141" width="11" height="11" /><rect x="177" y="118" width="12" height="12" /><rect x="177" y="111" width="12" height="12" /><rect x="111" y="115" width="11" height="11" /><rect x="103" y="115" width="12" height="11" /><rect x="100" y="107" width="12" height="12" /><rect x="86" y="185" width="11" height="12" /><rect x="86" y="193" width="11" height="11" /><rect x="111" y="122" width="11" height="12" /><rect x="176" y="189" width="11" height="11" /><rect x="168" y="189" width="12" height="11" /><rect x="238" y="199" width="11" height="11" /><rect x="195" y="234" width="12" height="12" /><rect x="237" y="133" width="11" height="12" /><rect x="232" y="126" width="12" height="11" /><rect x="80" y="199" width="12" height="12" /><rect x="164" y="196" width="11" height="11" /><rect x="190" y="187" width="12" height="12" /></g></g>
</svg>