<?xml version="1.0" encoding="utf-8"?>
<svg xmlns="http://www.w3.org/2000/svg" width="300" height="300"
        viewBox="0 0 300 300" class="creatureMap" style="position:absolute;">
    <defs>
        <filter id="blur" x="-30%" y="-30%" width="160%" height="160%">
            <feGaussianBlur stdDeviation="3" />
        </filter>
        <pattern id="pattern-untameable" width="10" height="10" patternTransform="rotate(135)" patternUnits="userSpaceOnUse">
            <rect width="4" height="10" fill="black"></rect>
        </pattern>
        <filter id="groupStroke">
            <feFlood result="outsideColor" flood-color="black"/>
            <feMorphology in="SourceAlpha" operator="dilate" radius="2"/>
            <feComposite result="strokeoutline1" in="outsideColor" operator="in"/>
            <feComposite result="strokeoutline2" in="strokeoutline1" in2="SourceAlpha" operator="out"/>
            <feGaussianBlur in="strokeoutline2" result="strokeblur" stdDeviation="1"/>
        </filter>
        <style>
            .spawningMap-very-common { fill: #0F0; }
            .spawningMap-common { fill: #B2FF00; }
            .spawningMap-uncommon { fill: #FF0; }
            .spawningMap-very-uncommon { fill: #FC0; }
            .spawningMap-rare { fill: #F60; }
            .spawningMap-very-rare { fill: #F00; }
            .spawning-map-point { stroke:black; stroke-width:1; }
        </style>
    </defs>

<g filter="url(#blur)" opacity="0.7">
<g class="spawningMap-very-uncommon">
<rect x="135" y="284" width="20" height="16" />
</g>
<g class="spawningMap-uncommon">
<rect x="121" y="228" width="19" height="19" />
<rect x="121" y="200" width="19" height="20" />
<rect x="136" y="200" width="19" height="20" />
<rect x="150" y="185" width="19" height="20" />
<rect x="107" y="200" width="18" height="19" />
</g>
<g class="spawningMap-common">
<rect x="127" y="243" width="15" height="14" />
<rect x="127" y="253" width="15" height="15" />
<rect x="121" y="215" width="19" height="18" />
<rect x="165" y="215" width="19" height="19" />
<rect x="92" y="52" width="20" height="19" />
</g>
<g class="spawningMap-very-common">
<rect x="165" y="88" width="10" height="11" />
<rect x="164" y="92" width="9" height="11" />
<rect x="165" y="73" width="11" height="11" />
<rect x="169" y="81" width="8" height="17" />
<rect x="25" y="10" width="21" height="20" />
<rect x="41" y="25" width="21" height="19" />
<rect x="92" y="66" width="20" height="20" />
<rect x="107" y="66" width="19" height="20" />
<rect x="107" y="81" width="19" height="19" />
<rect x="121" y="67" width="19" height="19" />
<rect x="136" y="67" width="19" height="19" />
<rect x="136" y="81" width="19" height="18" />
<rect x="152" y="52" width="19" height="20" />
<rect x="184" y="37" width="20" height="20" />
<rect x="108" y="8" width="19" height="19" />
<rect x="107" y="95" width="18" height="19" />
<rect x="184" y="52" width="20" height="20" />
<rect x="136" y="124" width="19" height="19" />
<rect x="122" y="124" width="19" height="19" />
<rect x="122" y="95" width="19" height="19" />
<rect x="122" y="109" width="19" height="19" />
<rect x="136" y="95" width="19" height="19" />
<rect x="136" y="109" width="19" height="19" />
<rect x="140" y="8" width="20" height="19" />
<rect x="153" y="90" width="11" height="11" />
<rect x="147" y="90" width="11" height="11" />
<rect x="152" y="95" width="11" height="12" />
<rect x="146" y="97" width="11" height="11" />
<rect x="124" y="23" width="20" height="20" />
<rect x="180" y="81" width="21" height="18" />
<rect x="197" y="67" width="21" height="19" />
<rect x="197" y="81" width="21" height="18" />
<rect x="9" y="10" width="21" height="20" />
<rect x="9" y="25" width="21" height="19" />
<rect x="58" y="10" width="21" height="20" />
<rect x="180" y="67" width="21" height="19" />
<rect x="140" y="23" width="20" height="20" />
<rect x="75" y="25" width="20" height="19" />
<rect x="91" y="8" width="21" height="19" />
<rect x="9" y="40" width="21" height="18" />
<rect x="107" y="23" width="21" height="19" />
<rect x="92" y="37" width="20" height="20" />
<rect x="107" y="37" width="19" height="20" />
<rect x="107" y="52" width="19" height="19" />
<rect x="121" y="37" width="19" height="20" />
<rect x="136" y="37" width="19" height="20" />
<rect x="136" y="52" width="19" height="19" />
<rect x="124" y="8" width="20" height="19" />
<rect x="151" y="95" width="19" height="19" />
<rect x="151" y="109" width="19" height="19" />
<rect x="165" y="95" width="18" height="19" />
<rect x="156" y="23" width="20" height="20" />
<rect x="172" y="23" width="20" height="20" />
<rect x="156" y="9" width="20" height="20" />
<rect x="165" y="109" width="18" height="19" />
<rect x="172" y="9" width="20" height="20" />
<rect x="151" y="38" width="20" height="19" />
<rect x="167" y="38" width="20" height="19" />
<rect x="168" y="52" width="19" height="20" />
<rect x="112" y="190" width="6" height="6" />
<rect x="124" y="176" width="6" height="7" />
</g>
</g>
<g fill="url(#pattern-untameable)" opacity="0.3">
<rect x="165" y="88" width="10" height="11"/>
<rect x="164" y="92" width="9" height="11"/>
<rect x="165" y="73" width="11" height="11"/>
<rect x="169" y="81" width="8" height="17"/>
<rect x="153" y="90" width="11" height="11"/>
<rect x="147" y="90" width="11" height="11"/>
<rect x="152" y="95" width="11" height="12"/>
<rect x="146" y="97" width="11" height="11"/>
</g>
<g filter="url(#groupStroke)" opacity="0.8">
<rect x="165" y="88" width="10" height="11"/>
<rect x="164" y="92" width="9" height="11"/>
<rect x="165" y="73" width="11" height="11"/>
<rect x="169" y="81" width="8" height="17"/>
<rect x="153" y="90" width="11" height="11"/>
<rect x="147" y="90" width="11" height="11"/>
<rect x="152" y="95" width="11" height="12"/>
<rect x="146" y="97" width="11" height="11"/>
</g>
</svg>