<svg xmlns="http://www.w3.org/2000/svg" width="300" height="300" viewBox="0 0 300 300" class="creatureMap" style="position:absolute;">
<defs>
<filter id="blur" x="-30%" y="-30%" width="160%" height="160%"><feGaussianBlur stdDeviation="3" />
</filter>
<pattern id="pattern-untameable" width="10" height="10" patternTransform="rotate(135)" patternUnits="userSpaceOnUse"><rect width="4" height="10" fill="black"></rect>
</pattern>
<filter id="groupStroke"><feFlood result="outsideColor" flood-color="black"/><feMorphology in="SourceAlpha" operator="dilate" radius="2"/><feComposite result="strokeoutline1" in="outsideColor" operator="in"/><feComposite result="strokeoutline2" in="strokeoutline1" in2="SourceAlpha" operator="out"/><feGaussianBlur in="strokeoutline2" result="strokeblur" stdDeviation="1"/>
</filter>
<style>
.spawningMap-very-common { fill: #0F0;}
.spawningMap-common { fill: #B2FF00;}
.spawningMap-uncommon { fill: #FF0;}
.spawningMap-very-uncommon { fill: #FC0;}
.spawningMap-rare { fill: #F60;}
.spawningMap-very-rare { fill: #F00; }.spawning-map-point {stroke:black; stroke-width:1;}
</style>
</defs>
<g filter="url(#blur)" opacity="0.7">
<g class="spawningMap-uncommon"><rect x="74" y="21" width="44" height="21" />
</g>
<g class="spawningMap-common"><rect x="123" y="21" width="44" height="16" /><rect x="281" y="5" width="12" height="45" /><rect x="171" y="20" width="45" height="12" /><rect x="220" y="20" width="45" height="12" /><rect x="267" y="5" width="12" height="45" /><rect x="267" y="54" width="12" height="45" /><rect x="281" y="54" width="12" height="45" /><rect x="267" y="103" width="12" height="45" /><rect x="5" y="53" width="12" height="37" /><rect x="16" y="132" width="13" height="24" /><rect x="31" y="274" width="49" height="16" /><rect x="123" y="7" width="44" height="12" /><rect x="36" y="20" width="35" height="12" /><rect x="74" y="7" width="44" height="12" /><rect x="171" y="7" width="45" height="12" /><rect x="220" y="7" width="45" height="12" /><rect x="281" y="103" width="12" height="45" /><rect x="263" y="236" width="16" height="36" /><rect x="196" y="274" width="49" height="16" /><rect x="141" y="274" width="49" height="16" /><rect x="86" y="274" width="49" height="16" />
</g>
<g class="spawningMap-very-common"><rect x="35" y="33" width="23" height="12" /><rect x="3" y="92" width="12" height="24" /><rect x="3" y="118" width="12" height="23" /><rect x="3" y="143" width="12" height="24" /><rect x="3" y="169" width="12" height="23" /><rect x="41" y="6" width="30" height="12" /><rect x="99" y="66" width="2" height="1" /><rect x="266" y="34" width="2" height="0" /><rect x="276" y="99" width="3" height="4" /><rect x="13" y="146" width="1" height="0" /><rect x="7" y="142" width="1" height="1" /><rect x="17" y="146" width="1" height="1" /><rect x="17" y="151" width="2" height="1" />
</g>
</g>
<g class="spawning-map-point" opacity="0.8">
</g>
</svg>