<?xml version="1.0" encoding="utf-8"?>
<svg xmlns="http://www.w3.org/2000/svg" width="300" height="300" viewBox="0 0 300 300" class="creatureMap" style="position:absolute;">
<defs>
    <filter id="blur" x="-30%" y="-30%" width="160%" height="160%">
        <feGaussianBlur stdDeviation="3" />
    </filter>
    <style>
        .spawningMap-very-common { fill: #0F0; }
        .spawningMap-common { fill: #B2FF00; }
        .spawningMap-uncommon { fill: #FF0; }
        .spawningMap-very-uncommon { fill: #FC0; }
        .spawningMap-rare { fill: #F60; }
        .spawningMap-very-rare { fill: #F00; }
        .spawning-map-point { stroke:black; stroke-width:1; }
    </style>
</defs>
<g filter="url(#blur)" opacity="0.7">
    <g class="spawningMap-uncommon">
        <rect x="238" y="97" width="10" height="10" />
        <rect x="238" y="102" width="10" height="10" />
        <rect x="203" y="112" width="10" height="10" />
        <rect x="203" y="112" width="10" height="10" />
        <rect x="208" y="112" width="10" height="10" />
        <rect x="208" y="112" width="10" height="10" />
        <rect x="243" y="102" width="10" height="10" />
        <rect x="243" y="97" width="10" height="10" />
        <rect x="243" y="92" width="10" height="10" />
        <rect x="208" y="87" width="10" height="10" />
        <rect x="213" y="87" width="10" height="10" />
        <rect x="218" y="87" width="10" height="10" />
        <rect x="208" y="102" width="10" height="10" />
        <rect x="213" y="102" width="10" height="10" />
        <rect x="218" y="102" width="10" height="10" />
        <rect x="203" y="122" width="10" height="10" />
        <rect x="238" y="92" width="10" height="10" />
        <rect x="238" y="87" width="10" height="10" />
        <rect x="238" y="97" width="10" height="10" />
        <rect x="238" y="102" width="10" height="10" />
        <rect x="248" y="97" width="10" height="10" />
        <rect x="248" y="107" width="10" height="10" />
        <rect x="213" y="122" width="10" height="10" />
        <rect x="208" y="87" width="10" height="10" />
        <rect x="213" y="87" width="10" height="10" />
        <rect x="218" y="87" width="10" height="10" />
        <rect x="223" y="87" width="10" height="10" />
        <rect x="228" y="87" width="10" height="10" />
        <rect x="233" y="87" width="10" height="10" />
        <rect x="238" y="87" width="10" height="10" />
        <rect x="208" y="122" width="10" height="10" />
        <rect x="203" y="102" width="10" height="10" />
        <rect x="238" y="122" width="10" height="10" />
        <rect x="198" y="102" width="10" height="10" />
        <rect x="233" y="122" width="10" height="10" />
        <rect x="228" y="122" width="10" height="10" />
        <rect x="223" y="122" width="10" height="10" />
        <rect x="218" y="122" width="10" height="10" />
        <rect x="233" y="122" width="10" height="10" />
        <rect x="228" y="122" width="10" height="10" />
        <rect x="238" y="117" width="10" height="10" />
        <rect x="233" y="112" width="10" height="10" />
        <rect x="233" y="112" width="10" height="10" />
        <rect x="243" y="87" width="10" height="10" />
        <rect x="243" y="97" width="10" height="10" />
        <rect x="243" y="92" width="10" height="10" />
        <rect x="198" y="117" width="10" height="10" />
        <rect x="218" y="97" width="10" height="10" />
        <rect x="218" y="97" width="10" height="10" />
        <rect x="223" y="102" width="10" height="10" />
        <rect x="223" y="97" width="10" height="10" />
        <rect x="228" y="102" width="10" height="10" />
        <rect x="228" y="97" width="10" height="10" />
        <rect x="233" y="102" width="10" height="10" />
        <rect x="233" y="97" width="10" height="10" />
        <rect x="203" y="117" width="10" height="10" />
        <rect x="243" y="107" width="10" height="10" />
        <rect x="243" y="107" width="10" height="10" />
        <rect x="238" y="107" width="10" height="10" />
        <rect x="238" y="107" width="10" height="10" />
        <rect x="223" y="92" width="10" height="10" />
        <rect x="223" y="87" width="10" height="10" />
        <rect x="233" y="107" width="10" height="10" />
        <rect x="233" y="107" width="10" height="10" />
        <rect x="228" y="107" width="10" height="10" />
        <rect x="228" y="107" width="10" height="10" />
        <rect x="223" y="107" width="10" height="10" />
        <rect x="223" y="107" width="10" height="10" />
        <rect x="218" y="107" width="10" height="10" />
        <rect x="218" y="107" width="10" height="10" />
        <rect x="213" y="107" width="10" height="10" />
        <rect x="213" y="107" width="10" height="10" />
        <rect x="208" y="107" width="10" height="10" />
        <rect x="208" y="107" width="10" height="10" />
        <rect x="208" y="107" width="10" height="10" />
        <rect x="208" y="107" width="10" height="10" />
        <rect x="203" y="107" width="10" height="10" />
        <rect x="203" y="107" width="10" height="10" />
        <rect x="198" y="107" width="10" height="10" />
        <rect x="198" y="107" width="10" height="10" />
        <rect x="193" y="107" width="10" height="10" />
        <rect x="193" y="107" width="10" height="10" />
        <rect x="198" y="112" width="10" height="10" />
        <rect x="198" y="112" width="10" height="10" />
        <rect x="193" y="112" width="10" height="10" />
        <rect x="253" y="87" width="10" height="10" />
        <rect x="193" y="112" width="10" height="10" />
        <rect x="223" y="97" width="10" height="10" />
        <rect x="223" y="102" width="10" height="10" />
        <rect x="228" y="92" width="10" height="10" />
        <rect x="228" y="87" width="10" height="10" />
        <rect x="228" y="97" width="10" height="10" />
        <rect x="228" y="102" width="10" height="10" />
        <rect x="233" y="92" width="10" height="10" />
        <rect x="233" y="87" width="10" height="10" />
        <rect x="233" y="97" width="10" height="10" />
        <rect x="253" y="102" width="10" height="10" />
        <rect x="233" y="102" width="10" height="10" />
        <rect x="253" y="97" width="10" height="10" />
        <rect x="253" y="92" width="10" height="10" />
        <rect x="248" y="92" width="10" height="10" />
        <rect x="248" y="87" width="10" height="10" />
        <rect x="248" y="102" width="10" height="10" />
        <rect x="248" y="107" width="10" height="10" />
        <rect x="208" y="92" width="10" height="10" />
        <rect x="213" y="92" width="10" height="10" />
        <rect x="218" y="92" width="10" height="10" />
        <rect x="253" y="97" width="10" height="10" />
        <rect x="223" y="92" width="10" height="10" />
        <rect x="228" y="92" width="10" height="10" />
        <rect x="233" y="92" width="10" height="10" />
        <rect x="238" y="92" width="10" height="10" />
        <rect x="208" y="97" width="10" height="10" />
        <rect x="203" y="97" width="10" height="10" />
        <rect x="198" y="97" width="10" height="10" />
        <rect x="203" y="92" width="10" height="10" />
        <rect x="198" y="92" width="10" height="10" />
        <rect x="253" y="92" width="10" height="10" />
        <rect x="203" y="87" width="10" height="10" />
        <rect x="198" y="87" width="10" height="10" />
        <rect x="203" y="87" width="10" height="10" />
        <rect x="198" y="87" width="10" height="10" />
        <rect x="203" y="92" width="10" height="10" />
        <rect x="198" y="92" width="10" height="10" />
        <rect x="203" y="97" width="10" height="10" />
        <rect x="198" y="97" width="10" height="10" />
        <rect x="248" y="102" width="10" height="10" />
        <rect x="248" y="97" width="10" height="10" />
        <rect x="243" y="87" width="10" height="10" />
        <rect x="193" y="122" width="10" height="10" />
        <rect x="198" y="122" width="10" height="10" />
        <rect x="208" y="117" width="10" height="10" />
        <rect x="213" y="117" width="10" height="10" />
        <rect x="248" y="92" width="10" height="10" />
        <rect x="223" y="117" width="10" height="10" />
        <rect x="228" y="117" width="10" height="10" />
        <rect x="233" y="117" width="10" height="10" />
        <rect x="238" y="117" width="10" height="10" />
        <rect x="193" y="117" width="10" height="10" />
        <rect x="248" y="97" width="10" height="10" />
        <rect x="193" y="117" width="10" height="10" />
        <rect x="198" y="117" width="10" height="10" />
        <rect x="203" y="117" width="10" height="10" />
        <rect x="208" y="117" width="10" height="10" />
        <rect x="208" y="122" width="10" height="10" />
        <rect x="213" y="122" width="10" height="10" />
        <rect x="218" y="122" width="10" height="10" />
        <rect x="223" y="122" width="10" height="10" />
        <rect x="248" y="92" width="10" height="10" />
        <rect x="213" y="117" width="10" height="10" />
        <rect x="223" y="117" width="10" height="10" />
        <rect x="228" y="117" width="10" height="10" />
        <rect x="233" y="117" width="10" height="10" />
        <rect x="218" y="117" width="10" height="10" />
        <rect x="218" y="117" width="10" height="10" />
        <rect x="213" y="112" width="10" height="10" />
        <rect x="248" y="87" width="10" height="10" />
        <rect x="213" y="112" width="10" height="10" />
        <rect x="218" y="112" width="10" height="10" />
        <rect x="218" y="112" width="10" height="10" />
        <rect x="223" y="112" width="10" height="10" />
        <rect x="223" y="112" width="10" height="10" />
        <rect x="228" y="112" width="10" height="10" />
        <rect x="228" y="112" width="10" height="10" />
        <rect x="238" y="112" width="10" height="10" />
        <rect x="238" y="112" width="10" height="10" />
        <rect x="243" y="112" width="10" height="10" />
        <rect x="253" y="97" width="10" height="10" />
        <rect x="243" y="112" width="10" height="10" />
        <rect x="243" y="102" width="10" height="10" />
        <rect x="208" y="92" width="10" height="10" />
        <rect x="213" y="92" width="10" height="10" />
        <rect x="218" y="92" width="10" height="10" />
        <rect x="243" y="102" width="10" height="10" />
        <rect x="188" y="122" width="10" height="10" />
        <rect x="243" y="97" width="10" height="10" />
        <rect x="243" y="92" width="10" height="10" />
        <rect x="238" y="102" width="10" height="10" />
        <rect x="238" y="97" width="10" height="10" />
        <rect x="238" y="92" width="10" height="10" />
        <rect x="233" y="102" width="10" height="10" />
        <rect x="233" y="97" width="10" height="10" />
        <rect x="233" y="92" width="10" height="10" />
        <rect x="228" y="102" width="10" height="10" />
        <rect x="228" y="97" width="10" height="10" />
        <rect x="253" y="92" width="10" height="10" />
        <rect x="228" y="92" width="10" height="10" />
        <rect x="223" y="102" width="10" height="10" />
        <rect x="223" y="97" width="10" height="10" />
        <rect x="223" y="92" width="10" height="10" />
        <rect x="218" y="102" width="10" height="10" />
        <rect x="218" y="97" width="10" height="10" />
        <rect x="218" y="92" width="10" height="10" />
        <rect x="213" y="102" width="10" height="10" />
        <rect x="213" y="97" width="10" height="10" />
        <rect x="213" y="92" width="10" height="10" />
        <rect x="253" y="87" width="10" height="10" />
        <rect x="208" y="102" width="10" height="10" />
        <rect x="208" y="97" width="10" height="10" />
        <rect x="208" y="92" width="10" height="10" />
        <rect x="208" y="102" width="10" height="10" />
        <rect x="208" y="97" width="10" height="10" />
        <rect x="213" y="102" width="10" height="10" />
        <rect x="213" y="97" width="10" height="10" />
        <rect x="213" y="97" width="10" height="10" />
        <rect x="218" y="102" width="10" height="10" />
    </g>
    <g class="spawningMap-very-uncommon">
        <rect x="177" y="141" width="37" height="8" />
        <rect x="249" y="141" width="37" height="8" />
        <rect x="213" y="141" width="37" height="8" />
    </g>
    <g class="spawningMap-common">
        <rect x="285" y="141" width="13" height="8" />
    </g></g>
</svg>