<?xml version="1.0" encoding="utf-8"?>
<svg xmlns="http://www.w3.org/2000/svg" width="300" height="300"
        viewBox="0 0 300 300" class="creatureMap" style="position:absolute;">
    <defs>
        <filter id="blur" x="-30%" y="-30%" width="160%" height="160%">
            <feGaussianBlur stdDeviation="3" />
        </filter>
        <pattern id="pattern-untameable" width="10" height="10" patternTransform="rotate(135)" patternUnits="userSpaceOnUse">
            <rect width="4" height="10" fill="black"></rect>
        </pattern>
        <filter id="groupStroke">
            <feFlood result="outsideColor" flood-color="black"/>
            <feMorphology in="SourceAlpha" operator="dilate" radius="2"/>
            <feComposite result="strokeoutline1" in="outsideColor" operator="in"/>
            <feComposite result="strokeoutline2" in="strokeoutline1" in2="SourceAlpha" operator="out"/>
            <feGaussianBlur in="strokeoutline2" result="strokeblur" stdDeviation="1"/>
        </filter>
        <style>
            .spawningMap-very-common { fill: #0F0; }
            .spawningMap-common { fill: #B2FF00; }
            .spawningMap-uncommon { fill: #FF0; }
            .spawningMap-very-uncommon { fill: #FC0; }
            .spawningMap-rare { fill: #F60; }
            .spawningMap-very-rare { fill: #F00; }
            .spawning-map-point { stroke:black; stroke-width:1; }
        </style>
    </defs>

<g filter="url(#blur)" opacity="0.7">
<g class="spawningMap-very-common">
<rect x="127" y="243" width="15" height="14" />
<rect x="127" y="253" width="15" height="15" />
<rect x="121" y="228" width="19" height="19" />
<rect x="121" y="200" width="19" height="20" />
<rect x="107" y="200" width="18" height="19" />
</g>
</g>
<g class="spawning-map-point" opacity="0.8">
<g class="spawningMap-very-rare">
<circle cx="241" cy="210" r="4" />
<circle cx="243" cy="209" r="4" />
<circle cx="224" cy="206" r="4" />
<circle cx="242" cy="208" r="4" />
<circle cx="223" cy="206" r="4" />
<circle cx="222" cy="207" r="4" />
<circle cx="224" cy="207" r="4" />
</g>
<g class="spawningMap-rare">
<circle cx="64" cy="71" r="4" />
<circle cx="89" cy="81" r="4" />
<circle cx="32" cy="31" r="4" />
<circle cx="45" cy="82" r="4" />
<circle cx="89" cy="81" r="4" />
<circle cx="79" cy="71" r="4" />
<circle cx="74" cy="74" r="4" />
<circle cx="68" cy="76" r="4" />
<circle cx="37" cy="84" r="4" />
<circle cx="33" cy="86" r="4" />
<circle cx="31" cy="84" r="4" />
<circle cx="41" cy="77" r="4" />
<circle cx="46" cy="85" r="4" />
<circle cx="49" cy="84" r="4" />
<circle cx="55" cy="82" r="4" />
<circle cx="56" cy="87" r="4" />
<circle cx="59" cy="86" r="4" />
<circle cx="60" cy="86" r="4" />
<circle cx="59" cy="83" r="4" />
<circle cx="53" cy="79" r="4" />
<circle cx="52" cy="73" r="4" />
<circle cx="31" cy="29" r="4" />
<circle cx="33" cy="29" r="4" />
<circle cx="25" cy="26" r="4" />
<circle cx="26" cy="24" r="4" />
<circle cx="37" cy="22" r="4" />
<circle cx="42" cy="27" r="4" />
<circle cx="41" cy="26" r="4" />
<circle cx="46" cy="29" r="4" />
<circle cx="48" cy="31" r="4" />
<circle cx="52" cy="31" r="4" />
<circle cx="63" cy="22" r="4" />
<circle cx="63" cy="25" r="4" />
<circle cx="62" cy="23" r="4" />
<circle cx="62" cy="30" r="4" />
<circle cx="61" cy="28" r="4" />
<circle cx="62" cy="27" r="4" />
<circle cx="68" cy="29" r="4" />
<circle cx="68" cy="31" r="4" />
<circle cx="67" cy="38" r="4" />
<circle cx="71" cy="39" r="4" />
<circle cx="68" cy="39" r="4" />
<circle cx="69" cy="36" r="4" />
<circle cx="92" cy="25" r="4" />
<circle cx="91" cy="22" r="4" />
<circle cx="87" cy="19" r="4" />
<circle cx="82" cy="22" r="4" />
<circle cx="77" cy="22" r="4" />
<circle cx="77" cy="28" r="4" />
<circle cx="79" cy="25" r="4" />
<circle cx="83" cy="27" r="4" />
<circle cx="87" cy="25" r="4" />
<circle cx="88" cy="28" r="4" />
<circle cx="89" cy="31" r="4" />
<circle cx="86" cy="31" r="4" />
<circle cx="83" cy="30" r="4" />
<circle cx="82" cy="41" r="4" />
<circle cx="79" cy="38" r="4" />
<circle cx="75" cy="38" r="4" />
<circle cx="75" cy="33" r="4" />
<circle cx="68" cy="34" r="4" />
<circle cx="62" cy="39" r="4" />
<circle cx="61" cy="35" r="4" />
<circle cx="64" cy="32" r="4" />
<circle cx="70" cy="32" r="4" />
<circle cx="73" cy="29" r="4" />
<circle cx="73" cy="24" r="4" />
<circle cx="67" cy="22" r="4" />
<circle cx="65" cy="25" r="4" />
<circle cx="61" cy="25" r="4" />
<circle cx="58" cy="33" r="4" />
<circle cx="52" cy="35" r="4" />
<circle cx="44" cy="33" r="4" />
<circle cx="39" cy="31" r="4" />
<circle cx="28" cy="37" r="4" />
<circle cx="32" cy="37" r="4" />
<circle cx="41" cy="40" r="4" />
<circle cx="44" cy="38" r="4" />
<circle cx="57" cy="42" r="4" />
<circle cx="54" cy="33" r="4" />
<circle cx="50" cy="34" r="4" />
<circle cx="46" cy="32" r="4" />
<circle cx="40" cy="27" r="4" />
<circle cx="39" cy="25" r="4" />
<circle cx="34" cy="24" r="4" />
<circle cx="32" cy="22" r="4" />
<circle cx="25" cy="31" r="4" />
<circle cx="30" cy="31" r="4" />
<circle cx="28" cy="24" r="4" />
<circle cx="23" cy="25" r="4" />
<circle cx="20" cy="31" r="4" />
<circle cx="15" cy="30" r="4" />
<circle cx="12" cy="29" r="4" />
<circle cx="7" cy="28" r="4" />
<circle cx="6" cy="39" r="4" />
<circle cx="25" cy="42" r="4" />
<circle cx="23" cy="51" r="4" />
<circle cx="21" cy="54" r="4" />
<circle cx="27" cy="55" r="4" />
<circle cx="26" cy="64" r="4" />
<circle cx="30" cy="70" r="4" />
<circle cx="27" cy="69" r="4" />
<circle cx="30" cy="75" r="4" />
<circle cx="30" cy="78" r="4" />
<circle cx="43" cy="94" r="4" />
<circle cx="49" cy="88" r="4" />
<circle cx="48" cy="75" r="4" />
<circle cx="42" cy="81" r="4" />
<circle cx="39" cy="79" r="4" />
<circle cx="33" cy="82" r="4" />
<circle cx="32" cy="76" r="4" />
<circle cx="27" cy="64" r="4" />
<circle cx="49" cy="70" r="4" />
<circle cx="79" cy="80" r="4" />
<circle cx="73" cy="78" r="4" />
<circle cx="77" cy="73" r="4" />
<circle cx="83" cy="69" r="4" />
<circle cx="78" cy="70" r="4" />
<circle cx="70" cy="72" r="4" />
<circle cx="88" cy="69" r="4" />
<circle cx="94" cy="83" r="4" />
<circle cx="88" cy="78" r="4" />
<circle cx="85" cy="84" r="4" />
<circle cx="72" cy="83" r="4" />
<circle cx="75" cy="87" r="4" />
<circle cx="72" cy="86" r="4" />
<circle cx="82" cy="91" r="4" />
<circle cx="74" cy="94" r="4" />
<circle cx="72" cy="100" r="4" />
<circle cx="72" cy="105" r="4" />
<circle cx="68" cy="97" r="4" />
<circle cx="67" cy="91" r="4" />
<circle cx="65" cy="88" r="4" />
<circle cx="62" cy="86" r="4" />
<circle cx="56" cy="77" r="4" />
<circle cx="54" cy="80" r="4" />
<circle cx="47" cy="87" r="4" />
<circle cx="52" cy="90" r="4" />
<circle cx="47" cy="91" r="4" />
<circle cx="43" cy="90" r="4" />
<circle cx="41" cy="99" r="4" />
<circle cx="37" cy="97" r="4" />
<circle cx="57" cy="96" r="4" />
<circle cx="58" cy="88" r="4" />
<circle cx="66" cy="102" r="4" />
<circle cx="56" cy="103" r="4" />
<circle cx="53" cy="97" r="4" />
<circle cx="47" cy="95" r="4" />
<circle cx="54" cy="91" r="4" />
</g>
</g>
</svg>