<?xml version="1.0" encoding="utf-8"?>
<svg xmlns="http://www.w3.org/2000/svg" width="300" height="300" viewBox="0 0 300 300" class="creatureMap" style="position:absolute;">
<defs>
    <filter id="blur" x="-30%" y="-30%" width="160%" height="160%">
        <feGaussianBlur stdDeviation="3" />
    </filter>
    <style>
        .spawningMap-very-common { fill: #0F0; }
        .spawningMap-common { fill: #B2FF00; }
        .spawningMap-uncommon { fill: #FF0; }
        .spawningMap-very-uncommon { fill: #FC0; }
        .spawningMap-rare { fill: #F60; }
        .spawningMap-very-rare { fill: #F00; }
        .spawning-map-point { stroke:black; stroke-width:1; }
    </style>
</defs>
<g filter="url(#blur)" opacity="0.7">
    <g class="spawningMap-very-uncommon">
        <rect x="262" y="265" width="11" height="12" />
        <rect x="267" y="237" width="10" height="16" />
        <rect x="108" y="265" width="11" height="11" />
        <rect x="119" y="236" width="11" height="11" />
        <rect x="125" y="236" width="11" height="11" />
        <rect x="256" y="248" width="11" height="11" />
        <rect x="250" y="254" width="12" height="11" />
        <rect x="262" y="271" width="11" height="11" />
        <rect x="199" y="259" width="11" height="12" />
        <rect x="205" y="265" width="11" height="12" />
        <rect x="199" y="265" width="11" height="12" />
        <rect x="210" y="265" width="12" height="12" />
        <rect x="216" y="265" width="11" height="12" />
        <rect x="216" y="254" width="11" height="11" />
        <rect x="239" y="242" width="11" height="11" />
        <rect x="210" y="259" width="12" height="12" />
        <rect x="216" y="259" width="11" height="12" />
        <rect x="216" y="248" width="11" height="11" />
        <rect x="233" y="242" width="11" height="11" />
        <rect x="228" y="242" width="11" height="11" />
        <rect x="256" y="242" width="11" height="11" />
        <rect x="250" y="242" width="12" height="11" />
        <rect x="245" y="242" width="11" height="11" />
        <rect x="245" y="236" width="11" height="11" />
        <rect x="239" y="236" width="11" height="11" />
        <rect x="250" y="236" width="12" height="11" />
        <rect x="262" y="248" width="11" height="11" />
        <rect x="224" y="121" width="13" height="14" />
        <rect x="262" y="259" width="11" height="12" />
        <rect x="256" y="265" width="11" height="12" />
        <rect x="256" y="271" width="11" height="11" />
        <rect x="192" y="121" width="13" height="14" />
        <rect x="208" y="121" width="13" height="14" />
        <rect x="256" y="236" width="11" height="11" />
        <rect x="192" y="130" width="13" height="15" />
        <rect x="200" y="130" width="13" height="15" />
        <rect x="208" y="130" width="13" height="15" />
        <rect x="262" y="236" width="11" height="11" />
        <rect x="216" y="242" width="11" height="11" />
        <rect x="192" y="139" width="13" height="15" />
        <rect x="216" y="139" width="13" height="15" />
        <rect x="222" y="242" width="11" height="11" />
        <rect x="192" y="149" width="13" height="14" />
        <rect x="216" y="149" width="13" height="14" />
        <rect x="216" y="158" width="13" height="15" />
        <rect x="224" y="158" width="13" height="15" />
        <rect x="216" y="130" width="13" height="15" />
        <rect x="200" y="181" width="13" height="14" />
        <rect x="119" y="242" width="11" height="11" />
        <rect x="262" y="254" width="11" height="11" />
        <rect x="262" y="242" width="11" height="11" />
        <rect x="224" y="130" width="13" height="15" />
        <rect x="200" y="121" width="13" height="14" />
        <rect x="224" y="139" width="13" height="15" />
        <rect x="224" y="149" width="13" height="14" />
        <rect x="119" y="248" width="11" height="11" />
        <rect x="192" y="177" width="13" height="14" />
        <rect x="192" y="158" width="13" height="15" />
        <rect x="232" y="130" width="13" height="15" />
        <rect x="232" y="149" width="13" height="14" />
        <rect x="232" y="158" width="13" height="15" />
        <rect x="192" y="167" width="13" height="15" />
        <rect x="214" y="167" width="15" height="15" />
        <rect x="208" y="181" width="13" height="14" />
        <rect x="240" y="139" width="13" height="15" />
        <rect x="93" y="100" width="11" height="16" />
        <rect x="82" y="109" width="11" height="11" />
        <rect x="229" y="81" width="11" height="11" />
        <rect x="238" y="69" width="11" height="11" />
        <rect x="120" y="122" width="11" height="12" />
        <rect x="158" y="88" width="12" height="11" />
        <rect x="141" y="88" width="11" height="11" />
        <rect x="154" y="94" width="11" height="11" />
        <rect x="114" y="105" width="12" height="11" />
        <rect x="43" y="75" width="11" height="11" />
        <rect x="94" y="87" width="11" height="11" />
        <rect x="40" y="98" width="12" height="11" />
        <rect x="35" y="93" width="11" height="11" />
        <rect x="52" y="92" width="11" height="11" />
        <rect x="229" y="86" width="11" height="12" />
        <rect x="232" y="98" width="11" height="11" />
        <rect x="43" y="104" width="11" height="11" />
        <rect x="40" y="87" width="12" height="11" />
        <rect x="46" y="98" width="11" height="11" />
        <rect x="26" y="112" width="11" height="12" />
        <rect x="53" y="123" width="11" height="11" />
    </g>
    <g class="spawningMap-common">
        <rect x="216" y="121" width="13" height="14" />
        <rect x="200" y="139" width="13" height="15" />
        <rect x="208" y="139" width="13" height="15" />
        <rect x="200" y="149" width="13" height="14" />
        <rect x="208" y="149" width="13" height="14" />
        <rect x="232" y="139" width="13" height="15" />
        <rect x="200" y="158" width="13" height="15" />
        <rect x="208" y="158" width="13" height="15" />
    </g>
    <g class="spawningMap-uncommon">
        <rect x="67" y="86" width="11" height="11" />
        <rect x="64" y="113" width="11" height="11" />
        <rect x="53" y="118" width="11" height="11" />
        <rect x="47" y="123" width="11" height="11" />
        <rect x="102" y="120" width="11" height="12" />
        <rect x="78" y="86" width="12" height="11" />
        <rect x="73" y="92" width="12" height="11" />
        <rect x="102" y="63" width="12" height="11" />
        <rect x="96" y="63" width="12" height="11" />
        <rect x="172" y="74" width="10" height="13" />
        <rect x="62" y="164" width="12" height="11" />
        <rect x="94" y="200" width="11" height="12" />
        <rect x="67" y="80" width="11" height="11" />
        <rect x="58" y="112" width="12" height="11" />
        <rect x="107" y="120" width="12" height="12" />
        <rect x="58" y="123" width="12" height="11" />
        <rect x="87" y="108" width="11" height="12" />
        <rect x="87" y="102" width="11" height="12" />
        <rect x="68" y="164" width="11" height="11" />
        <rect x="87" y="120" width="12" height="11" />
        <rect x="73" y="80" width="11" height="11" />
        <rect x="73" y="86" width="11" height="11" />
        <rect x="73" y="97" width="11" height="11" />
        <rect x="78" y="80" width="12" height="11" />
        <rect x="58" y="118" width="12" height="11" />
        <rect x="102" y="68" width="12" height="11" />
        <rect x="160" y="74" width="12" height="11" />
        <rect x="164" y="160" width="11" height="11" />
        <rect x="180" y="115" width="12" height="11" />
        <rect x="175" y="115" width="11" height="11" />
        <rect x="158" y="162" width="12" height="11" />
        <rect x="161" y="156" width="12" height="11" />
        <rect x="64" y="119" width="11" height="11" />
        <rect x="184" y="104" width="12" height="11" />
        <rect x="189" y="106" width="12" height="11" />
        <rect x="204" y="116" width="12" height="11" />
        <rect x="217" y="115" width="11" height="11" />
        <rect x="222" y="115" width="11" height="11" />
        <rect x="174" y="31" width="12" height="11" />
        <rect x="180" y="32" width="12" height="11" />
        <rect x="232" y="104" width="11" height="11" />
        <rect x="70" y="120" width="11" height="11" />
        <rect x="232" y="92" width="11" height="11" />
        <rect x="238" y="109" width="11" height="11" />
        <rect x="64" y="124" width="11" height="12" />
        <rect x="40" y="92" width="12" height="11" />
        <rect x="70" y="114" width="11" height="12" />
        <rect x="67" y="92" width="11" height="11" />
        <rect x="64" y="101" width="12" height="12" />
        <rect x="64" y="107" width="12" height="11" />
        <rect x="76" y="114" width="11" height="12" />
        <rect x="53" y="129" width="11" height="11" />
        <rect x="47" y="129" width="11" height="11" />
        <rect x="76" y="120" width="11" height="11" />
        <rect x="82" y="120" width="11" height="11" />
        <rect x="82" y="114" width="11" height="12" />
        <rect x="87" y="114" width="12" height="12" />
        <rect x="93" y="116" width="11" height="11" />
        <rect x="93" y="111" width="11" height="11" />
    </g>
    <g class="spawningMap-rare">
        <rect x="58" y="106" width="12" height="11" />
        <rect x="137" y="105" width="11" height="11" />
        <rect x="168" y="105" width="12" height="11" />
        <rect x="153" y="104" width="10" height="9" />
        <rect x="120" y="94" width="11" height="11" />
        <rect x="120" y="100" width="11" height="11" />
        <rect x="90" y="81" width="13" height="13" />
        <rect x="109" y="88" width="11" height="11" />
        <rect x="181" y="170" width="9" height="15" />
        <rect x="246" y="75" width="11" height="11" />
        <rect x="126" y="111" width="11" height="11" />
        <rect x="126" y="105" width="11" height="11" />
        <rect x="132" y="105" width="11" height="11" />
        <rect x="132" y="100" width="11" height="11" />
        <rect x="137" y="100" width="12" height="11" />
        <rect x="143" y="100" width="12" height="11" />
        <rect x="143" y="94" width="12" height="11" />
        <rect x="138" y="94" width="11" height="11" />
        <rect x="132" y="94" width="11" height="11" />
        <rect x="148" y="94" width="11" height="11" />
        <rect x="120" y="88" width="11" height="11" />
        <rect x="159" y="94" width="12" height="11" />
        <rect x="165" y="94" width="12" height="11" />
        <rect x="171" y="94" width="11" height="11" />
        <rect x="163" y="100" width="11" height="11" />
        <rect x="160" y="103" width="11" height="11" />
        <rect x="114" y="88" width="12" height="11" />
        <rect x="114" y="94" width="12" height="11" />
        <rect x="109" y="94" width="11" height="11" />
        <rect x="114" y="100" width="12" height="11" />
        <rect x="109" y="100" width="11" height="11" />
        <rect x="168" y="100" width="12" height="11" />
        <rect x="109" y="105" width="11" height="11" />
        <rect x="179" y="109" width="11" height="11" />
        <rect x="184" y="184" width="11" height="11" />
        <rect x="183" y="178" width="12" height="11" />
        <rect x="184" y="109" width="12" height="11" />
        <rect x="202" y="111" width="11" height="11" />
        <rect x="238" y="104" width="11" height="11" />
        <rect x="126" y="94" width="11" height="11" />
        <rect x="186" y="100" width="12" height="12" />
        <rect x="126" y="88" width="11" height="11" />
    </g>
    <g class="spawningMap-very-rare">
        <rect x="99" y="88" width="12" height="12" />
    </g>
    <g class="spawningMap-very-common">
        <rect x="240" y="75" width="11" height="11" />
    </g></g>
</svg>