<?xml version="1.0" encoding="utf-8"?>
<svg xmlns="http://www.w3.org/2000/svg" width="300" height="300" viewBox="0 0 300 300" class="creatureMap" style="position:absolute;">
<defs>
    <filter id="blur" x="-30%" y="-30%" width="160%" height="160%">
        <feGaussianBlur stdDeviation="3" />
    </filter>
    <style>
        .spawningMap-very-common { fill: #0F0; }
        .spawningMap-common { fill: #B2FF00; }
        .spawningMap-uncommon { fill: #FF0; }
        .spawningMap-very-uncommon { fill: #FC0; }
        .spawningMap-rare { fill: #F60; }
        .spawningMap-very-rare { fill: #F00; }
        .spawning-map-point { stroke:black; stroke-width:1; }
    </style>
</defs>
<g filter="url(#blur)" opacity="0.7">
    <g class="spawningMap-very-common">
        <rect x="220" y="243" width="13" height="13" />
        <rect x="227" y="243" width="13" height="13" />
        <rect x="235" y="243" width="12" height="13" />
        <rect x="277" y="243" width="13" height="13" />
        <rect x="285" y="243" width="12" height="13" />
        <rect x="292" y="243" width="8" height="13" />
        <rect x="227" y="236" width="13" height="13" />
        <rect x="235" y="236" width="12" height="13" />
        <rect x="277" y="236" width="13" height="13" />
        <rect x="285" y="236" width="12" height="13" />
        <rect x="292" y="236" width="8" height="13" />
        <rect x="227" y="229" width="13" height="13" />
        <rect x="235" y="229" width="12" height="13" />
        <rect x="292" y="229" width="8" height="13" />
        <rect x="235" y="215" width="12" height="13" />
        <rect x="242" y="215" width="12" height="13" />
        <rect x="285" y="215" width="12" height="13" />
        <rect x="292" y="215" width="8" height="13" />
        <rect x="227" y="208" width="13" height="13" />
        <rect x="235" y="208" width="12" height="13" />
        <rect x="242" y="208" width="12" height="13" />
        <rect x="249" y="208" width="12" height="13" />
        <rect x="256" y="208" width="12" height="13" />
        <rect x="285" y="208" width="12" height="13" />
        <rect x="292" y="208" width="8" height="13" />
        <rect x="227" y="201" width="13" height="13" />
        <rect x="235" y="201" width="12" height="13" />
        <rect x="220" y="194" width="13" height="12" />
        <rect x="227" y="194" width="13" height="12" />
        <rect x="235" y="194" width="12" height="12" />
        <rect x="285" y="194" width="12" height="12" />
        <rect x="292" y="194" width="8" height="12" />
        <rect x="227" y="187" width="13" height="12" />
        <rect x="235" y="187" width="12" height="12" />
        <rect x="249" y="159" width="12" height="12" />
        <rect x="235" y="42" width="12" height="12" />
        <rect x="242" y="42" width="12" height="12" />
        <rect x="173" y="51" width="10" height="8" />
        <rect x="235" y="56" width="12" height="12" />
        <rect x="277" y="49" width="13" height="12" />
        <rect x="285" y="49" width="12" height="12" />
        <rect x="206" y="60" width="13" height="7" />
        <rect x="206" y="57" width="8" height="12" />
        <rect x="249" y="57" width="13" height="12" />
        <rect x="256" y="56" width="12" height="12" />
        <rect x="203" y="63" width="10" height="12" />
        <rect x="256" y="63" width="12" height="8" />
        <rect x="196" y="77" width="10" height="13" />
        <rect x="279" y="77" width="8" height="12" />
        <rect x="177" y="98" width="13" height="12" />
        <rect x="210" y="70" width="9" height="10" />
    </g>
    <g class="spawningMap-common">
        <rect x="0" y="112" width="1" height="13" />
        <rect x="0" y="112" width="8" height="13" />
        <rect x="3" y="112" width="13" height="13" />
        <rect x="10" y="112" width="13" height="13" />
        <rect x="17" y="112" width="13" height="13" />
        <rect x="32" y="112" width="12" height="13" />
        <rect x="103" y="112" width="13" height="13" />
        <rect x="0" y="119" width="1" height="13" />
        <rect x="0" y="119" width="8" height="13" />
        <rect x="3" y="119" width="13" height="13" />
        <rect x="103" y="119" width="13" height="13" />
        <rect x="249" y="173" width="12" height="12" />
        <rect x="256" y="173" width="12" height="12" />
        <rect x="277" y="173" width="13" height="12" />
        <rect x="285" y="173" width="12" height="12" />
        <rect x="185" y="243" width="12" height="13" />
        <rect x="177" y="236" width="13" height="13" />
        <rect x="185" y="236" width="12" height="13" />
        <rect x="192" y="236" width="12" height="13" />
        <rect x="177" y="229" width="13" height="13" />
        <rect x="292" y="222" width="8" height="13" />
        <rect x="185" y="194" width="12" height="12" />
        <rect x="185" y="187" width="12" height="12" />
        <rect x="256" y="180" width="12" height="12" />
    </g></g>
</svg>