<?xml version="1.0" encoding="utf-8"?>
<svg xmlns="http://www.w3.org/2000/svg" width="300" height="300" viewBox="0 0 300 300" class="creatureMap" style="position:absolute;">
<defs>
    <filter id="blur" x="-30%" y="-30%" width="160%" height="160%">
        <feGaussianBlur stdDeviation="3" />
    </filter>
    <style>
        .spawningMap-very-common { fill: #0F0; }
        .spawningMap-common { fill: #B2FF00; }
        .spawningMap-uncommon { fill: #FF0; }
        .spawningMap-very-uncommon { fill: #FC0; }
        .spawningMap-rare { fill: #F60; }
        .spawningMap-very-rare { fill: #F00; }
        .spawning-map-point { stroke:black; stroke-width:1; }
    </style>
</defs>
<g filter="url(#blur)" opacity="0.7">
    <g class="spawningMap-very-common">
        <rect x="154" y="47" width="16" height="12" />
        <rect x="177" y="48" width="17" height="12" />
        <rect x="17" y="107" width="11" height="16" />
        <rect x="108" y="25" width="17" height="14" />
        <rect x="120" y="25" width="17" height="14" />
        <rect x="132" y="25" width="15" height="14" />
        <rect x="142" y="25" width="16" height="14" />
        <rect x="153" y="25" width="17" height="14" />
        <rect x="165" y="25" width="17" height="14" />
        <rect x="177" y="25" width="17" height="14" />
        <rect x="189" y="25" width="16" height="14" />
        <rect x="213" y="42" width="16" height="13" />
        <rect x="224" y="42" width="17" height="13" />
        <rect x="17" y="130" width="13" height="17" />
        <rect x="252" y="43" width="13" height="18" />
        <rect x="252" y="140" width="13" height="16" />
        <rect x="252" y="151" width="13" height="17" />
        <rect x="17" y="179" width="13" height="16" />
        <rect x="17" y="59" width="13" height="17" />
        <rect x="17" y="71" width="13" height="17" />
        <rect x="17" y="83" width="13" height="17" />
        <rect x="17" y="95" width="11" height="17" />
        <rect x="17" y="142" width="13" height="17" />
        <rect x="17" y="154" width="13" height="17" />
        <rect x="17" y="167" width="13" height="16" />
        <rect x="17" y="51" width="13" height="13" />
        <rect x="17" y="39" width="13" height="17" />
        <rect x="17" y="25" width="13" height="19" />
        <rect x="17" y="119" width="11" height="16" />
        <rect x="25" y="66" width="13" height="21" />
        <rect x="213" y="222" width="16" height="16" />
        <rect x="225" y="222" width="16" height="16" />
        <rect x="237" y="222" width="16" height="16" />
        <rect x="17" y="190" width="13" height="17" />
        <rect x="96" y="231" width="17" height="13" />
        <rect x="84" y="231" width="17" height="13" />
        <rect x="17" y="203" width="13" height="16" />
        <rect x="17" y="215" width="13" height="17" />
        <rect x="17" y="227" width="13" height="17" />
        <rect x="17" y="251" width="13" height="17" />
        <rect x="248" y="222" width="17" height="16" />
        <rect x="260" y="222" width="17" height="16" />
        <rect x="142" y="222" width="16" height="16" />
        <rect x="154" y="222" width="16" height="16" />
        <rect x="165" y="222" width="17" height="16" />
        <rect x="177" y="222" width="17" height="16" />
        <rect x="189" y="222" width="17" height="16" />
        <rect x="201" y="222" width="16" height="16" />
        <rect x="37" y="179" width="17" height="16" />
        <rect x="25" y="131" width="17" height="16" />
        <rect x="109" y="33" width="16" height="17" />
        <rect x="120" y="41" width="17" height="17" />
        <rect x="25" y="52" width="17" height="16" />
        <rect x="109" y="41" width="16" height="17" />
        <rect x="132" y="33" width="16" height="17" />
        <rect x="143" y="41" width="17" height="17" />
        <rect x="120" y="33" width="17" height="17" />
        <rect x="132" y="41" width="16" height="17" />
        <rect x="189" y="46" width="17" height="16" />
        <rect x="201" y="42" width="16" height="17" />
        <rect x="188" y="193" width="17" height="10" />
        <rect x="213" y="50" width="16" height="17" />
        <rect x="236" y="43" width="20" height="16" />
        <rect x="252" y="175" width="17" height="17" />
        <rect x="200" y="193" width="17" height="10" />
        <rect x="224" y="50" width="17" height="17" />
        <rect x="188" y="234" width="17" height="16" />
        <rect x="165" y="233" width="17" height="17" />
        <rect x="177" y="234" width="16" height="16" />
        <rect x="154" y="233" width="16" height="17" />
        <rect x="225" y="234" width="16" height="16" />
        <rect x="61" y="227" width="16" height="17" />
        <rect x="213" y="234" width="17" height="16" />
        <rect x="49" y="227" width="17" height="17" />
        <rect x="49" y="51" width="16" height="17" />
        <rect x="174" y="56" width="16" height="17" />
        <rect x="37" y="191" width="17" height="17" />
        <rect x="249" y="57" width="16" height="16" />
        <rect x="33" y="64" width="16" height="16" />
        <rect x="162" y="56" width="17" height="17" />
        <rect x="66" y="65" width="16" height="17" />
        <rect x="151" y="56" width="16" height="17" />
        <rect x="120" y="210" width="17" height="17" />
        <rect x="236" y="121" width="17" height="17" />
        <rect x="201" y="233" width="17" height="17" />
        <rect x="142" y="233" width="16" height="17" />
        <rect x="119" y="227" width="17" height="16" />
        <rect x="46" y="110" width="12" height="12" />
        <rect x="46" y="116" width="10" height="11" />
        <rect x="41" y="117" width="11" height="11" />
        <rect x="49" y="142" width="16" height="17" />
        <rect x="49" y="155" width="16" height="16" />
        <rect x="72" y="130" width="17" height="17" />
        <rect x="96" y="142" width="16" height="17" />
        <rect x="61" y="130" width="16" height="17" />
        <rect x="84" y="166" width="17" height="17" />
        <rect x="84" y="142" width="17" height="17" />
        <rect x="84" y="154" width="17" height="17" />
        <rect x="84" y="130" width="16" height="17" />
        <rect x="49" y="167" width="17" height="16" />
        <rect x="96" y="154" width="16" height="17" />
        <rect x="96" y="166" width="16" height="17" />
        <rect x="96" y="178" width="16" height="17" />
        <rect x="96" y="190" width="16" height="17" />
        <rect x="72" y="142" width="17" height="17" />
        <rect x="72" y="154" width="17" height="17" />
        <rect x="61" y="142" width="16" height="17" />
        <rect x="61" y="154" width="16" height="17" />
        <rect x="37" y="131" width="17" height="16" />
        <rect x="108" y="227" width="17" height="17" />
        <rect x="108" y="239" width="17" height="16" />
        <rect x="96" y="202" width="16" height="17" />
        <rect x="96" y="214" width="16" height="17" />
        <rect x="236" y="199" width="17" height="16" />
        <rect x="236" y="211" width="17" height="16" />
        <rect x="225" y="199" width="16" height="16" />
        <rect x="225" y="211" width="16" height="16" />
        <rect x="72" y="263" width="17" height="17" />
        <rect x="188" y="211" width="17" height="16" />
        <rect x="61" y="263" width="16" height="17" />
        <rect x="177" y="211" width="16" height="16" />
        <rect x="200" y="198" width="17" height="17" />
        <rect x="212" y="211" width="16" height="16" />
        <rect x="188" y="198" width="17" height="17" />
        <rect x="200" y="211" width="17" height="16" />
        <rect x="155" y="33" width="17" height="17" />
        <rect x="129" y="211" width="17" height="16" />
        <rect x="144" y="33" width="16" height="17" />
        <rect x="261" y="232" width="17" height="17" />
        <rect x="179" y="33" width="16" height="17" />
        <rect x="189" y="34" width="17" height="16" />
        <rect x="167" y="33" width="17" height="17" />
        <rect x="23" y="95" width="16" height="17" />
        <rect x="129" y="223" width="17" height="16" />
        <rect x="49" y="203" width="17" height="17" />
        <rect x="261" y="244" width="17" height="17" />
        <rect x="261" y="256" width="17" height="17" />
        <rect x="248" y="92" width="17" height="17" />
        <rect x="248" y="104" width="17" height="17" />
        <rect x="22" y="107" width="17" height="17" />
        <rect x="22" y="119" width="17" height="17" />
        <rect x="49" y="215" width="17" height="17" />
        <rect x="224" y="187" width="17" height="16" />
        <rect x="261" y="268" width="17" height="17" />
        <rect x="212" y="198" width="17" height="17" />
        <rect x="248" y="116" width="17" height="17" />
        <rect x="248" y="191" width="17" height="13" />
        <rect x="35" y="122" width="17" height="17" />
        <rect x="236" y="193" width="17" height="11" />
        <rect x="108" y="251" width="16" height="16" />
        <rect x="142" y="211" width="16" height="16" />
        <rect x="96" y="251" width="17" height="16" />
        <rect x="73" y="227" width="16" height="17" />
        <rect x="49" y="263" width="17" height="17" />
        <rect x="165" y="211" width="17" height="16" />
        <rect x="84" y="251" width="17" height="17" />
        <rect x="154" y="211" width="16" height="16" />
        <rect x="50" y="105" width="10" height="11" />
    </g>
    <g class="spawningMap-common">
        <rect x="165" y="44" width="17" height="17" />
        <rect x="37" y="39" width="17" height="17" />
        <rect x="37" y="51" width="17" height="17" />
        <rect x="85" y="25" width="16" height="19" />
        <rect x="73" y="25" width="16" height="19" />
        <rect x="61" y="25" width="16" height="19" />
        <rect x="49" y="25" width="17" height="19" />
        <rect x="37" y="25" width="17" height="19" />
        <rect x="97" y="25" width="16" height="19" />
        <rect x="25" y="39" width="17" height="17" />
        <rect x="97" y="39" width="16" height="17" />
        <rect x="85" y="39" width="16" height="17" />
        <rect x="73" y="39" width="16" height="17" />
        <rect x="61" y="39" width="16" height="17" />
        <rect x="249" y="163" width="16" height="17" />
        <rect x="260" y="163" width="17" height="17" />
        <rect x="201" y="25" width="16" height="22" />
        <rect x="62" y="51" width="38" height="12" />
        <rect x="213" y="25" width="16" height="22" />
        <rect x="224" y="25" width="17" height="22" />
        <rect x="236" y="25" width="17" height="22" />
        <rect x="260" y="175" width="17" height="17" />
        <rect x="260" y="56" width="18" height="17" />
        <rect x="260" y="187" width="17" height="16" />
        <rect x="260" y="68" width="18" height="17" />
        <rect x="260" y="43" width="17" height="18" />
        <rect x="260" y="25" width="17" height="22" />
        <rect x="260" y="199" width="17" height="17" />
        <rect x="260" y="80" width="18" height="17" />
        <rect x="260" y="211" width="17" height="16" />
        <rect x="260" y="92" width="18" height="17" />
        <rect x="260" y="104" width="18" height="17" />
        <rect x="72" y="251" width="17" height="16" />
        <rect x="260" y="116" width="18" height="17" />
        <rect x="248" y="128" width="17" height="16" />
        <rect x="260" y="128" width="18" height="16" />
        <rect x="260" y="140" width="18" height="16" />
        <rect x="260" y="151" width="18" height="17" />
        <rect x="25" y="167" width="17" height="17" />
        <rect x="25" y="143" width="17" height="16" />
        <rect x="37" y="143" width="17" height="17" />
        <rect x="248" y="198" width="17" height="17" />
        <rect x="248" y="210" width="17" height="17" />
        <rect x="49" y="39" width="17" height="17" />
        <rect x="25" y="25" width="17" height="19" />
        <rect x="37" y="203" width="17" height="17" />
        <rect x="37" y="215" width="17" height="17" />
        <rect x="84" y="239" width="17" height="17" />
        <rect x="61" y="239" width="16" height="17" />
        <rect x="61" y="251" width="16" height="17" />
        <rect x="96" y="239" width="17" height="16" />
        <rect x="17" y="263" width="13" height="22" />
        <rect x="73" y="239" width="16" height="17" />
        <rect x="49" y="239" width="16" height="17" />
        <rect x="49" y="251" width="16" height="17" />
        <rect x="37" y="263" width="17" height="22" />
        <rect x="25" y="179" width="17" height="16" />
        <rect x="37" y="167" width="17" height="16" />
        <rect x="25" y="190" width="17" height="17" />
        <rect x="25" y="203" width="17" height="16" />
        <rect x="25" y="215" width="17" height="17" />
        <rect x="25" y="263" width="17" height="22" />
        <rect x="37" y="227" width="17" height="17" />
        <rect x="37" y="239" width="17" height="17" />
        <rect x="37" y="251" width="17" height="17" />
        <rect x="25" y="227" width="17" height="17" />
        <rect x="25" y="239" width="17" height="17" />
        <rect x="25" y="251" width="17" height="17" />
        <rect x="25" y="154" width="17" height="17" />
        <rect x="37" y="155" width="17" height="16" />
        <rect x="248" y="25" width="16" height="22" />
        <rect x="248" y="69" width="17" height="27" />
        <rect x="241" y="141" width="16" height="26" />
    </g></g>
</svg>