<?xml version="1.0" encoding="utf-8"?>
<svg xmlns="http://www.w3.org/2000/svg" width="300" height="300" viewBox="0 0 300 300" class="creatureMap" style="position:absolute;">
<defs>
    <filter id="blur" x="-30%" y="-30%" width="160%" height="160%">
        <feGaussianBlur stdDeviation="3" />
    </filter>
    <style>
        .spawningMap-very-common { fill: #0F0; }
        .spawningMap-common { fill: #B2FF00; }
        .spawningMap-uncommon { fill: #FF0; }
        .spawningMap-very-uncommon { fill: #FC0; }
        .spawningMap-rare { fill: #F60; }
        .spawningMap-very-rare { fill: #F00; }
        .spawning-map-point { stroke:black; stroke-width:1; }
    </style>
</defs>
<g filter="url(#blur)" opacity="0.7">
    <g class="spawningMap-very-common">
        <rect x="172" y="156" width="12" height="11" />
        <rect x="190" y="159" width="12" height="11" />
        <rect x="231" y="168" width="17" height="15" />
        <rect x="178" y="150" width="12" height="11" />
        <rect x="184" y="151" width="12" height="11" />
        <rect x="186" y="157" width="11" height="11" />
        <rect x="178" y="156" width="12" height="11" />
        <rect x="183" y="162" width="11" height="11" />
        <rect x="201" y="169" width="17" height="16" />
        <rect x="58" y="102" width="11" height="11" />
        <rect x="122" y="180" width="12" height="11" />
        <rect x="147" y="178" width="12" height="13" />
        <rect x="142" y="164" width="14" height="12" />
        <rect x="151" y="178" width="14" height="14" />
        <rect x="77" y="179" width="11" height="11" />
        <rect x="124" y="148" width="6" height="7" />
        <rect x="156" y="123" width="11" height="11" />
        <rect x="158" y="119" width="11" height="11" />
        <rect x="115" y="102" width="12" height="8" />
        <rect x="88" y="90" width="9" height="9" />
        <rect x="119" y="81" width="8" height="8" />
        <rect x="112" y="68" width="10" height="8" />
        <rect x="121" y="60" width="10" height="8" />
        <rect x="126" y="56" width="9" height="10" />
        <rect x="37" y="179" width="17" height="16" />
        <rect x="25" y="131" width="17" height="16" />
        <rect x="169" y="142" width="11" height="11" />
        <rect x="150" y="210" width="14" height="11" />
        <rect x="109" y="33" width="16" height="17" />
        <rect x="120" y="41" width="17" height="17" />
        <rect x="25" y="52" width="17" height="16" />
        <rect x="109" y="41" width="16" height="17" />
        <rect x="132" y="33" width="16" height="17" />
        <rect x="143" y="41" width="17" height="17" />
        <rect x="120" y="33" width="17" height="17" />
        <rect x="132" y="41" width="16" height="17" />
        <rect x="189" y="46" width="17" height="16" />
        <rect x="201" y="42" width="16" height="17" />
        <rect x="248" y="69" width="17" height="27" />
        <rect x="241" y="141" width="16" height="26" />
        <rect x="188" y="193" width="17" height="10" />
        <rect x="213" y="50" width="16" height="17" />
        <rect x="236" y="43" width="20" height="16" />
        <rect x="252" y="175" width="17" height="17" />
        <rect x="200" y="193" width="17" height="10" />
        <rect x="224" y="50" width="17" height="17" />
        <rect x="188" y="234" width="17" height="16" />
        <rect x="165" y="233" width="17" height="17" />
        <rect x="177" y="234" width="16" height="16" />
        <rect x="154" y="233" width="16" height="17" />
        <rect x="225" y="234" width="16" height="16" />
        <rect x="61" y="227" width="16" height="17" />
        <rect x="213" y="234" width="17" height="16" />
        <rect x="49" y="227" width="17" height="17" />
        <rect x="49" y="51" width="16" height="17" />
        <rect x="174" y="56" width="16" height="17" />
        <rect x="37" y="191" width="17" height="17" />
        <rect x="249" y="57" width="16" height="16" />
        <rect x="33" y="64" width="16" height="16" />
        <rect x="162" y="56" width="17" height="17" />
        <rect x="66" y="65" width="16" height="17" />
        <rect x="151" y="56" width="16" height="17" />
        <rect x="120" y="210" width="17" height="17" />
        <rect x="236" y="121" width="17" height="17" />
        <rect x="201" y="233" width="17" height="17" />
        <rect x="142" y="233" width="16" height="17" />
        <rect x="119" y="227" width="17" height="16" />
        <rect x="108" y="167" width="16" height="15" />
        <rect x="235" y="237" width="13" height="13" />
        <rect x="181" y="203" width="11" height="11" />
        <rect x="221" y="83" width="11" height="12" />
        <rect x="181" y="197" width="11" height="11" />
        <rect x="219" y="71" width="11" height="11" />
        <rect x="220" y="78" width="11" height="11" />
        <rect x="105" y="161" width="16" height="14" />
        <rect x="74" y="56" width="15" height="16" />
        <rect x="120" y="175" width="8" height="9" />
        <rect x="69" y="114" width="9" height="8" />
        <rect x="155" y="140" width="11" height="11" />
        <rect x="62" y="172" width="12" height="11" />
        <rect x="68" y="172" width="11" height="11" />
        <rect x="71" y="176" width="11" height="11" />
        <rect x="183" y="172" width="11" height="11" />
        <rect x="46" y="110" width="12" height="12" />
        <rect x="235" y="84" width="14" height="15" />
        <rect x="212" y="175" width="15" height="15" />
        <rect x="81" y="185" width="11" height="11" />
        <rect x="82" y="190" width="11" height="12" />
        <rect x="83" y="196" width="11" height="11" />
        <rect x="86" y="202" width="11" height="11" />
        <rect x="46" y="116" width="10" height="11" />
        <rect x="41" y="117" width="11" height="11" />
        <rect x="49" y="142" width="16" height="17" />
        <rect x="64" y="96" width="12" height="11" />
        <rect x="128" y="180" width="9" height="8" />
        <rect x="49" y="155" width="16" height="16" />
        <rect x="72" y="130" width="17" height="17" />
        <rect x="96" y="142" width="16" height="17" />
        <rect x="61" y="130" width="16" height="17" />
        <rect x="84" y="166" width="17" height="17" />
        <rect x="84" y="142" width="17" height="17" />
        <rect x="84" y="154" width="17" height="17" />
        <rect x="84" y="130" width="16" height="17" />
        <rect x="49" y="167" width="17" height="16" />
        <rect x="96" y="154" width="16" height="17" />
        <rect x="96" y="166" width="16" height="17" />
        <rect x="96" y="178" width="16" height="17" />
        <rect x="96" y="190" width="16" height="17" />
        <rect x="72" y="142" width="17" height="17" />
        <rect x="72" y="154" width="17" height="17" />
        <rect x="61" y="142" width="16" height="17" />
        <rect x="61" y="154" width="16" height="17" />
        <rect x="35" y="112" width="8" height="8" />
        <rect x="37" y="131" width="17" height="16" />
        <rect x="108" y="227" width="17" height="17" />
        <rect x="108" y="239" width="17" height="16" />
        <rect x="96" y="202" width="16" height="17" />
        <rect x="96" y="214" width="16" height="17" />
        <rect x="236" y="199" width="17" height="16" />
        <rect x="236" y="211" width="17" height="16" />
        <rect x="225" y="199" width="16" height="16" />
        <rect x="225" y="211" width="16" height="16" />
        <rect x="72" y="263" width="17" height="17" />
        <rect x="188" y="211" width="17" height="16" />
        <rect x="123" y="175" width="11" height="11" />
        <rect x="61" y="263" width="16" height="17" />
        <rect x="177" y="211" width="16" height="16" />
        <rect x="200" y="198" width="17" height="17" />
        <rect x="212" y="211" width="16" height="16" />
        <rect x="188" y="198" width="17" height="17" />
        <rect x="200" y="211" width="17" height="16" />
        <rect x="155" y="33" width="17" height="17" />
        <rect x="129" y="211" width="17" height="16" />
        <rect x="144" y="33" width="16" height="17" />
        <rect x="117" y="175" width="11" height="11" />
        <rect x="261" y="232" width="17" height="17" />
        <rect x="179" y="33" width="16" height="17" />
        <rect x="189" y="34" width="17" height="16" />
        <rect x="167" y="33" width="17" height="17" />
        <rect x="23" y="95" width="16" height="17" />
        <rect x="129" y="223" width="17" height="16" />
        <rect x="49" y="203" width="17" height="17" />
        <rect x="261" y="244" width="17" height="17" />
        <rect x="261" y="256" width="17" height="17" />
        <rect x="248" y="92" width="17" height="17" />
        <rect x="111" y="179" width="12" height="11" />
        <rect x="248" y="104" width="17" height="17" />
        <rect x="22" y="107" width="17" height="17" />
        <rect x="22" y="119" width="17" height="17" />
        <rect x="49" y="215" width="17" height="17" />
        <rect x="224" y="187" width="17" height="16" />
        <rect x="261" y="268" width="17" height="17" />
        <rect x="212" y="198" width="17" height="17" />
        <rect x="248" y="116" width="17" height="17" />
        <rect x="248" y="191" width="17" height="13" />
        <rect x="84" y="114" width="8" height="8" />
        <rect x="35" y="122" width="17" height="17" />
        <rect x="236" y="193" width="17" height="11" />
        <rect x="108" y="251" width="16" height="16" />
        <rect x="142" y="211" width="16" height="16" />
        <rect x="96" y="251" width="17" height="16" />
        <rect x="73" y="227" width="16" height="17" />
        <rect x="49" y="263" width="17" height="17" />
        <rect x="165" y="211" width="17" height="16" />
        <rect x="124" y="178" width="8" height="8" />
        <rect x="84" y="251" width="17" height="17" />
        <rect x="154" y="211" width="16" height="16" />
        <rect x="242" y="241" width="14" height="11" />
        <rect x="124" y="183" width="8" height="9" />
        <rect x="183" y="166" width="11" height="11" />
        <rect x="189" y="166" width="11" height="11" />
        <rect x="189" y="172" width="11" height="11" />
        <rect x="193" y="183" width="11" height="11" />
        <rect x="187" y="178" width="11" height="11" />
        <rect x="200" y="167" width="11" height="11" />
        <rect x="187" y="183" width="11" height="11" />
        <rect x="195" y="175" width="14" height="15" />
        <rect x="202" y="180" width="13" height="15" />
        <rect x="218" y="103" width="11" height="11" />
        <rect x="119" y="178" width="8" height="8" />
        <rect x="224" y="103" width="11" height="11" />
        <rect x="224" y="109" width="11" height="11" />
        <rect x="226" y="97" width="11" height="11" />
        <rect x="218" y="109" width="11" height="11" />
        <rect x="223" y="92" width="11" height="11" />
        <rect x="220" y="97" width="11" height="11" />
        <rect x="212" y="111" width="11" height="14" />
        <rect x="227" y="116" width="15" height="15" />
        <rect x="116" y="178" width="8" height="9" />
        <rect x="112" y="180" width="9" height="8" />
        <rect x="54" y="85" width="9" height="9" />
        <rect x="128" y="178" width="8" height="8" />
        <rect x="129" y="176" width="8" height="8" />
        <rect x="130" y="177" width="9" height="9" />
        <rect x="131" y="176" width="9" height="8" />
        <rect x="136" y="177" width="8" height="8" />
        <rect x="136" y="178" width="9" height="8" />
        <rect x="135" y="181" width="8" height="8" />
        <rect x="134" y="183" width="8" height="8" />
        <rect x="121" y="124" width="7" height="7" />
        <rect x="139" y="182" width="9" height="8" />
        <rect x="141" y="181" width="8" height="9" />
        <rect x="147" y="181" width="8" height="8" />
        <rect x="146" y="178" width="9" height="9" />
        <rect x="144" y="167" width="9" height="8" />
        <rect x="143" y="165" width="9" height="8" />
        <rect x="119" y="166" width="14" height="15" />
        <rect x="132" y="180" width="14" height="15" />
        <rect x="151" y="124" width="11" height="11" />
        <rect x="126" y="181" width="9" height="9" />
        <rect x="134" y="176" width="13" height="12" />
        <rect x="145" y="164" width="9" height="8" />
        <rect x="151" y="130" width="11" height="11" />
        <rect x="164" y="136" width="11" height="11" />
        <rect x="159" y="136" width="11" height="11" />
        <rect x="121" y="96" width="12" height="7" />
        <rect x="117" y="95" width="10" height="11" />
        <rect x="74" y="123" width="9" height="8" />
        <rect x="59" y="96" width="11" height="12" />
        <rect x="161" y="124" width="11" height="11" />
        <rect x="116" y="76" width="8" height="8" />
        <rect x="115" y="65" width="10" height="10" />
        <rect x="119" y="75" width="10" height="10" />
        <rect x="118" y="78" width="8" height="8" />
        <rect x="117" y="62" width="8" height="10" />
        <rect x="118" y="59" width="9" height="9" />
        <rect x="120" y="55" width="8" height="10" />
        <rect x="53" y="96" width="11" height="12" />
        <rect x="117" y="53" width="9" height="10" />
        <rect x="116" y="57" width="9" height="9" />
        <rect x="113" y="55" width="9" height="10" />
        <rect x="115" y="52" width="8" height="10" />
        <rect x="115" y="62" width="8" height="9" />
        <rect x="153" y="136" width="11" height="11" />
        <rect x="164" y="130" width="11" height="11" />
        <rect x="200" y="263" width="14" height="11" />
        <rect x="161" y="140" width="14" height="11" />
        <rect x="172" y="144" width="15" height="15" />
        <rect x="180" y="141" width="12" height="15" />
        <rect x="179" y="134" width="15" height="15" />
        <rect x="203" y="143" width="14" height="11" />
        <rect x="212" y="261" width="14" height="11" />
        <rect x="194" y="157" width="14" height="11" />
        <rect x="50" y="105" width="10" height="11" />
        <rect x="150" y="180" width="15" height="11" />
        <rect x="162" y="184" width="15" height="10" />
        <rect x="126" y="173" width="15" height="15" />
        <rect x="251" y="240" width="14" height="15" />
        <rect x="202" y="157" width="14" height="11" />
        <rect x="150" y="71" width="15" height="11" />
        <rect x="153" y="76" width="14" height="11" />
    </g>
    <g class="spawningMap-common">
        <rect x="239" y="234" width="13" height="13" />
    </g></g>
</svg>