<svg xmlns="http://www.w3.org/2000/svg" width="300" height="300" viewBox="0 0 300 300" class="creatureMap" style="position:absolute;">
<defs>
  <filter id="blur" x="-30%" y="-30%" width="160%" height="160%">
    <feGaussianBlur stdDeviation="3" />
</filter>
<pattern id="pattern-untameable" width="10" height="10" patternTransform="rotate(135)" patternUnits="userSpaceOnUse">
<rect width="4" height="10" fill="black"></rect>
</pattern><filter id="groupStroke"><feFlood result="outsideColor" flood-color="black"/><feMorphology in="SourceAlpha" operator="dilate" radius="2"/><feComposite result="strokeoutline1" in="outsideColor" operator="in"/><feComposite result="strokeoutline2" in="strokeoutline1" in2="SourceAlpha" operator="out"/><feGaussianBlur in="strokeoutline2" result="strokeblur" stdDeviation="1"/></filter><style>.spawningMap-very-common { fill: #0F0;}.spawningMap-common { fill: #B2FF00;}.spawningMap-uncommon { fill: #FF0;}.spawningMap-very-uncommon { fill: #FC0;}.spawningMap-rare { fill: #F60;}.spawningMap-very-rare { fill: #F00; }.spawning-map-point {stroke:black; stroke-width:1;}</style></defs>
<g filter="url(#blur)" opacity="0.7"><g class="spawningMap-very-uncommon"><rect x="278" y="177" width="12" height="11" /><rect x="234" y="162" width="12" height="12" /><rect x="234" y="155" width="12" height="11" /><rect x="242" y="162" width="11" height="12" /><rect x="242" y="155" width="11" height="11" /><rect x="242" y="170" width="11" height="11" /><rect x="249" y="162" width="11" height="12" /><rect x="249" y="155" width="11" height="11" /><rect x="249" y="170" width="11" height="11" /><rect x="256" y="162" width="12" height="12" /><rect x="256" y="155" width="12" height="11" /><rect x="256" y="170" width="12" height="11" /><rect x="234" y="147" width="12" height="12" /><rect x="229" y="133" width="12" height="11" /><rect x="227" y="147" width="11" height="12" /><rect x="227" y="140" width="11" height="12" /><rect x="234" y="101" width="12" height="11" /><rect x="245" y="79" width="12" height="11" /><rect x="245" y="71" width="12" height="12" /><rect x="245" y="64" width="12" height="12" /><rect x="245" y="57" width="12" height="11" /><rect x="253" y="64" width="11" height="12" /><rect x="253" y="57" width="11" height="11" /><rect x="253" y="93" width="11" height="12" /><rect x="253" y="86" width="11" height="12" /><rect x="253" y="108" width="11" height="12" /><rect x="253" y="101" width="11" height="11" /><rect x="245" y="103" width="12" height="12" /><rect x="245" y="96" width="12" height="12" /><rect x="260" y="102" width="11" height="11" /><rect x="260" y="94" width="11" height="12" /><rect x="245" y="116" width="12" height="11" /><rect x="245" y="123" width="12" height="11" /><rect x="253" y="123" width="11" height="11" /><rect x="255" y="130" width="11" height="12" /><rect x="234" y="93" width="12" height="12" /><rect x="242" y="177" width="11" height="11" /><rect x="249" y="177" width="11" height="11" /><rect x="256" y="177" width="12" height="11" /><rect x="264" y="155" width="11" height="11" /><rect x="271" y="155" width="12" height="11" /><rect x="278" y="155" width="12" height="11" /><rect x="264" y="148" width="11" height="11" /><rect x="271" y="148" width="12" height="11" /><rect x="278" y="148" width="12" height="11" /><rect x="264" y="140" width="11" height="12" /><rect x="271" y="140" width="12" height="12" /><rect x="278" y="140" width="12" height="12" /><rect x="264" y="133" width="11" height="11" /><rect x="271" y="133" width="12" height="11" /><rect x="278" y="133" width="12" height="11" /><rect x="264" y="125" width="11" height="12" /><rect x="271" y="125" width="12" height="12" /><rect x="278" y="125" width="12" height="12" /><rect x="264" y="177" width="11" height="11" /><rect x="271" y="177" width="12" height="11" /><rect x="264" y="170" width="11" height="11" /><rect x="271" y="170" width="12" height="11" /><rect x="278" y="170" width="12" height="11" /><rect x="264" y="162" width="11" height="12" /><rect x="271" y="162" width="12" height="12" /><rect x="278" y="162" width="12" height="12" /><rect x="275" y="87" width="11" height="11" /><rect x="275" y="80" width="11" height="11" /><rect x="282" y="87" width="12" height="11" /><rect x="282" y="80" width="12" height="11" /><rect x="286" y="125" width="11" height="12" /><rect x="234" y="140" width="12" height="12" /><rect x="219" y="140" width="12" height="12" /><rect x="234" y="108" width="12" height="12" /><rect x="253" y="79" width="11" height="11" /><rect x="253" y="71" width="11" height="12" /><rect x="253" y="116" width="11" height="11" /><rect x="247" y="130" width="12" height="12" /><rect x="255" y="138" width="11" height="11" /><rect x="242" y="86" width="11" height="12" /><rect x="267" y="118" width="12" height="12" /><rect x="275" y="118" width="11" height="12" /><rect x="282" y="118" width="12" height="12" /><rect x="260" y="118" width="11" height="12" /><rect x="275" y="111" width="11" height="11" /><rect x="282" y="111" width="12" height="11" /><rect x="260" y="111" width="11" height="11" /><rect x="275" y="103" width="11" height="12" /><rect x="282" y="103" width="12" height="12" /><rect x="267" y="96" width="12" height="12" /><rect x="275" y="96" width="11" height="12" /><rect x="282" y="96" width="12" height="12" /><rect x="260" y="87" width="11" height="11" /><rect x="267" y="87" width="12" height="11" /><rect x="260" y="80" width="11" height="11" /><rect x="267" y="80" width="12" height="11" /><rect x="260" y="72" width="11" height="12" /><rect x="267" y="72" width="12" height="12" /><rect x="275" y="72" width="11" height="12" /><rect x="286" y="133" width="11" height="11" /><rect x="286" y="161" width="11" height="11" /></g><g class="spawningMap-uncommon"><rect x="187" y="163" width="11" height="12" /><rect x="187" y="156" width="11" height="11" /><rect x="194" y="163" width="11" height="12" /><rect x="194" y="156" width="11" height="11" /><rect x="201" y="156" width="12" height="11" /><rect x="204" y="148" width="11" height="12" /><rect x="209" y="159" width="11" height="12" /><rect x="211" y="145" width="12" height="11" /><rect x="211" y="137" width="12" height="12" /><rect x="211" y="130" width="12" height="12" /><rect x="218" y="130" width="12" height="12" /><rect x="215" y="123" width="11" height="11" /><rect x="222" y="123" width="12" height="11" /><rect x="212" y="115" width="12" height="12" /><rect x="220" y="115" width="11" height="12" /><rect x="212" y="108" width="12" height="12" /><rect x="165" y="97" width="12" height="12" /><rect x="220" y="108" width="11" height="12" /><rect x="165" y="104" width="12" height="12" /><rect x="124" y="69" width="11" height="12" /><rect x="109" y="77" width="12" height="11" /><rect x="212" y="101" width="12" height="11" /><rect x="158" y="104" width="11" height="12" /><rect x="158" y="97" width="11" height="12" /><rect x="157" y="154" width="12" height="11" /><rect x="157" y="161" width="12" height="12" /><rect x="165" y="156" width="11" height="11" /><rect x="220" y="101" width="11" height="11" /><rect x="172" y="165" width="11" height="11" /><rect x="172" y="157" width="11" height="12" /><rect x="212" y="93" width="12" height="12" /><rect x="220" y="93" width="11" height="12" /><rect x="220" y="86" width="11" height="12" /><rect x="227" y="86" width="11" height="12" /><rect x="216" y="79" width="11" height="11" /><rect x="223" y="79" width="12" height="11" /><rect x="198" y="90" width="11" height="12" /><rect x="205" y="90" width="11" height="12" /><rect x="195" y="83" width="11" height="12" /><rect x="202" y="83" width="12" height="12" /><rect x="213" y="55" width="11" height="11" /><rect x="220" y="55" width="12" height="11" /><rect x="227" y="57" width="12" height="12" /><rect x="235" y="57" width="11" height="12" /><rect x="194" y="129" width="11" height="11" /><rect x="136" y="135" width="11" height="12" /><rect x="129" y="135" width="11" height="12" /><rect x="136" y="128" width="11" height="12" /><rect x="129" y="128" width="11" height="12" /><rect x="136" y="121" width="11" height="11" /><rect x="136" y="113" width="11" height="12" /><rect x="129" y="121" width="11" height="11" /><rect x="129" y="113" width="11" height="12" /><rect x="121" y="121" width="12" height="11" /><rect x="121" y="106" width="12" height="12" /><rect x="121" y="99" width="12" height="11" /><rect x="114" y="106" width="11" height="12" /><rect x="114" y="99" width="11" height="11" /><rect x="107" y="106" width="11" height="12" /><rect x="107" y="99" width="11" height="11" /><rect x="124" y="91" width="12" height="12" /><rect x="117" y="91" width="11" height="12" /><rect x="102" y="77" width="11" height="11" /><rect x="231" y="79" width="11" height="11" /><rect x="238" y="79" width="11" height="11" /><rect x="238" y="71" width="11" height="12" /><rect x="227" y="115" width="11" height="12" /><rect x="227" y="108" width="11" height="12" /><rect x="204" y="141" width="11" height="12" /><rect x="189" y="141" width="11" height="12" /><rect x="204" y="134" width="11" height="11" /><rect x="196" y="141" width="12" height="12" /><rect x="196" y="134" width="12" height="11" /><rect x="110" y="91" width="11" height="12" /><rect x="110" y="84" width="11" height="11" /><rect x="129" y="106" width="11" height="12" /><rect x="129" y="99" width="11" height="11" /><rect x="136" y="106" width="11" height="12" /><rect x="136" y="99" width="11" height="11" /><rect x="143" y="106" width="12" height="12" /><rect x="143" y="99" width="12" height="11" /><rect x="150" y="106" width="12" height="12" /><rect x="150" y="99" width="12" height="11" /><rect x="139" y="82" width="11" height="12" /><rect x="139" y="75" width="11" height="11" /><rect x="117" y="77" width="11" height="11" /><rect x="124" y="77" width="12" height="11" /><rect x="116" y="236" width="12" height="11" /><rect x="124" y="236" width="11" height="11" /><rect x="116" y="243" width="12" height="12" /><rect x="124" y="243" width="11" height="12" /><rect x="109" y="243" width="12" height="12" /><rect x="102" y="236" width="11" height="11" /><rect x="102" y="243" width="11" height="12" /><rect x="102" y="250" width="11" height="12" /><rect x="109" y="69" width="12" height="12" /><rect x="165" y="163" width="11" height="11" /><rect x="172" y="150" width="11" height="11" /><rect x="172" y="142" width="11" height="12" /><rect x="172" y="135" width="11" height="12" /><rect x="179" y="142" width="12" height="12" /><rect x="179" y="135" width="12" height="12" /><rect x="179" y="165" width="12" height="11" /><rect x="179" y="157" width="12" height="12" /><rect x="179" y="150" width="12" height="11" /><rect x="201" y="163" width="12" height="12" /><rect x="196" y="148" width="12" height="12" /><rect x="227" y="101" width="11" height="11" /><rect x="227" y="93" width="11" height="12" /><rect x="205" y="101" width="11" height="11" /><rect x="187" y="129" width="11" height="11" /><rect x="173" y="170" width="11" height="12" /><rect x="121" y="113" width="12" height="12" /><rect x="121" y="128" width="12" height="12" /><rect x="102" y="91" width="11" height="12" /><rect x="102" y="84" width="11" height="12" /><rect x="102" y="69" width="11" height="12" /><rect x="158" y="90" width="11" height="11" /><rect x="158" y="82" width="11" height="12" /><rect x="165" y="90" width="12" height="11" /><rect x="165" y="82" width="12" height="12" /><rect x="110" y="157" width="18" height="17" /><rect x="189" y="148" width="11" height="12" /><rect x="204" y="126" width="11" height="12" /><rect x="204" y="119" width="11" height="12" /><rect x="196" y="119" width="12" height="12" /><rect x="117" y="84" width="11" height="11" /><rect x="234" y="86" width="12" height="12" /><rect x="124" y="84" width="12" height="11" /><rect x="132" y="82" width="11" height="12" /><rect x="132" y="75" width="11" height="11" /><rect x="146" y="80" width="12" height="11" /><rect x="146" y="72" width="12" height="12" /><rect x="117" y="69" width="11" height="12" /><rect x="231" y="71" width="11" height="12" /><rect x="109" y="236" width="12" height="11" /><rect x="116" y="250" width="12" height="12" /><rect x="124" y="250" width="11" height="12" /><rect x="109" y="250" width="12" height="12" /><rect x="94" y="228" width="12" height="12" /><rect x="94" y="236" width="12" height="11" /><rect x="94" y="243" width="12" height="12" /><rect x="223" y="71" width="12" height="12" /></g><g class="spawningMap-common"><rect x="131" y="179" width="12" height="12" /><rect x="153" y="192" width="12" height="11" /><rect x="131" y="194" width="12" height="12" /><rect x="146" y="199" width="11" height="12" /><rect x="146" y="192" width="11" height="11" /><rect x="146" y="184" width="11" height="12" /><rect x="117" y="177" width="11" height="12" /><rect x="155" y="119" width="12" height="12" /><rect x="91" y="159" width="12" height="12" /><rect x="139" y="184" width="11" height="12" /><rect x="99" y="159" width="11" height="12" /><rect x="155" y="112" width="12" height="11" /><rect x="162" y="110" width="12" height="11" /><rect x="170" y="110" width="11" height="11" /><rect x="131" y="187" width="12" height="11" /><rect x="139" y="199" width="11" height="12" /><rect x="173" y="89" width="11" height="11" /><rect x="101" y="167" width="11" height="11" /><rect x="148" y="115" width="11" height="12" /><rect x="150" y="150" width="11" height="12" /><rect x="220" y="175" width="11" height="12" /><rect x="220" y="168" width="11" height="11" /><rect x="227" y="170" width="11" height="11" /><rect x="227" y="177" width="11" height="11" /><rect x="234" y="177" width="12" height="11" /><rect x="234" y="184" width="12" height="12" /><rect x="242" y="184" width="11" height="12" /><rect x="247" y="192" width="11" height="11" /><rect x="247" y="199" width="11" height="11" /><rect x="157" y="148" width="12" height="12" /><rect x="164" y="148" width="12" height="11" /><rect x="150" y="157" width="11" height="12" /><rect x="93" y="167" width="12" height="11" /><rect x="157" y="167" width="12" height="12" /><rect x="164" y="170" width="12" height="12" /><rect x="172" y="96" width="12" height="11" /><rect x="169" y="178" width="12" height="11" /><rect x="177" y="178" width="11" height="11" /><rect x="181" y="170" width="11" height="12" /><rect x="188" y="170" width="12" height="12" /><rect x="164" y="141" width="12" height="11" /><rect x="164" y="133" width="12" height="12" /><rect x="164" y="126" width="12" height="11" /><rect x="172" y="129" width="11" height="11" /><rect x="179" y="129" width="12" height="11" /><rect x="183" y="121" width="12" height="12" /><rect x="109" y="177" width="12" height="12" /><rect x="124" y="179" width="12" height="12" /><rect x="143" y="128" width="12" height="12" /><rect x="143" y="135" width="12" height="12" /><rect x="138" y="143" width="12" height="11" /><rect x="131" y="143" width="11" height="11" /><rect x="119" y="135" width="11" height="11" /><rect x="111" y="135" width="12" height="11" /><rect x="111" y="127" width="12" height="12" /><rect x="73" y="130" width="12" height="12" /><rect x="81" y="130" width="11" height="12" /><rect x="80" y="137" width="11" height="12" /><rect x="84" y="145" width="12" height="11" /><rect x="89" y="152" width="11" height="12" /><rect x="139" y="192" width="11" height="11" /><rect x="153" y="199" width="12" height="12" /><rect x="153" y="206" width="12" height="12" /><rect x="153" y="221" width="12" height="11" /><rect x="153" y="228" width="12" height="12" /><rect x="161" y="221" width="11" height="11" /><rect x="161" y="228" width="11" height="12" /><rect x="196" y="170" width="11" height="12" /><rect x="150" y="165" width="11" height="11" /><rect x="142" y="152" width="12" height="12" /><rect x="183" y="106" width="12" height="12" /><rect x="142" y="159" width="12" height="12" /><rect x="183" y="114" width="12" height="11" /><rect x="153" y="184" width="12" height="12" /><rect x="146" y="206" width="11" height="12" /><rect x="161" y="206" width="11" height="12" /><rect x="153" y="214" width="12" height="11" /><rect x="249" y="184" width="12" height="12" /><rect x="234" y="170" width="12" height="11" /><rect x="239" y="192" width="12" height="11" /></g></g>
</svg>