<?xml version="1.0" encoding="utf-8"?>
<svg xmlns="http://www.w3.org/2000/svg" width="300" height="300" viewBox="0 0 300 300" class="creatureMap" style="position:absolute;">
<defs>
    <filter id="blur" x="-30%" y="-30%" width="160%" height="160%">
        <feGaussianBlur stdDeviation="3" />
    </filter>
    <style>
        .spawningMap-very-common { fill: #0F0; }
        .spawningMap-common { fill: #B2FF00; }
        .spawningMap-uncommon { fill: #FF0; }
        .spawningMap-very-uncommon { fill: #FC0; }
        .spawningMap-rare { fill: #F60; }
        .spawningMap-very-rare { fill: #F00; }
        .spawning-map-point { stroke:black; stroke-width:1; }
    </style>
</defs>
<g filter="url(#blur)" opacity="0.7">
    <g class="spawningMap-very-uncommon">
        <rect x="67" y="183" width="13" height="12" />
        <rect x="74" y="183" width="13" height="12" />
        <rect x="82" y="183" width="12" height="12" />
        <rect x="24" y="190" width="13" height="12" />
        <rect x="60" y="190" width="13" height="12" />
        <rect x="67" y="190" width="13" height="12" />
        <rect x="74" y="190" width="13" height="12" />
        <rect x="82" y="190" width="12" height="12" />
        <rect x="24" y="197" width="13" height="12" />
        <rect x="32" y="197" width="12" height="12" />
        <rect x="53" y="197" width="13" height="12" />
        <rect x="60" y="197" width="13" height="12" />
        <rect x="39" y="204" width="12" height="12" />
        <rect x="46" y="204" width="12" height="12" />
        <rect x="53" y="204" width="13" height="12" />
        <rect x="60" y="204" width="13" height="12" />
        <rect x="53" y="211" width="13" height="12" />
        <rect x="60" y="211" width="13" height="12" />
        <rect x="24" y="183" width="13" height="12" />
        <rect x="39" y="183" width="12" height="12" />
        <rect x="46" y="183" width="12" height="12" />
    </g></g>
</svg>