<?xml version="1.0" encoding="utf-8"?>
<svg xmlns="http://www.w3.org/2000/svg" width="300" height="300"
        viewBox="0 0 300 300" class="creatureMap" style="position:absolute;">
    <defs>
        <filter id="blur" x="-30%" y="-30%" width="160%" height="160%">
            <feGaussianBlur stdDeviation="3" />
        </filter>
        <pattern id="pattern-untameable" width="10" height="10" patternTransform="rotate(135)" patternUnits="userSpaceOnUse">
            <rect width="4" height="10" fill="black"></rect>
        </pattern>
        <filter id="groupStroke">
            <feFlood result="outsideColor" flood-color="black"/>
            <feMorphology in="SourceAlpha" operator="dilate" radius="2"/>
            <feComposite result="strokeoutline1" in="outsideColor" operator="in"/>
            <feComposite result="strokeoutline2" in="strokeoutline1" in2="SourceAlpha" operator="out"/>
            <feGaussianBlur in="strokeoutline2" result="strokeblur" stdDeviation="1"/>
        </filter>
        <style>
            .spawningMap-very-common { fill: #0F0; }
            .spawningMap-common { fill: #B2FF00; }
            .spawningMap-uncommon { fill: #FF0; }
            .spawningMap-very-uncommon { fill: #FC0; }
            .spawningMap-rare { fill: #F60; }
            .spawningMap-very-rare { fill: #F00; }
            .spawning-map-point { stroke:black; stroke-width:1; }
        </style>
    </defs>

<g filter="url(#blur)" opacity="0.7">
<g class="spawningMap-very-uncommon">
<rect x="76" y="284" width="22" height="16" />
</g>
<g class="spawningMap-uncommon">
<rect x="0" y="270" width="13" height="19" />
<rect x="0" y="284" width="13" height="16" />
</g>
<g class="spawningMap-common">
<rect x="26" y="108" width="21" height="19" />
<rect x="9" y="228" width="21" height="19" />
<rect x="9" y="169" width="21" height="20" />
<rect x="60" y="242" width="21" height="19" />
<rect x="60" y="256" width="21" height="19" />
<rect x="76" y="242" width="22" height="19" />
<rect x="0" y="242" width="13" height="19" />
<rect x="0" y="256" width="13" height="19" />
<rect x="27" y="242" width="20" height="18" />
<rect x="180" y="124" width="21" height="19" />
<rect x="27" y="255" width="20" height="19" />
<rect x="43" y="242" width="21" height="18" />
<rect x="43" y="255" width="21" height="19" />
<rect x="0" y="228" width="13" height="19" />
<rect x="9" y="215" width="21" height="18" />
<rect x="0" y="215" width="13" height="18" />
<rect x="27" y="215" width="20" height="19" />
<rect x="27" y="229" width="20" height="18" />
<rect x="43" y="215" width="21" height="19" />
<rect x="43" y="229" width="21" height="18" />
<rect x="0" y="184" width="13" height="20" />
<rect x="0" y="200" width="13" height="19" />
<rect x="9" y="184" width="21" height="20" />
<rect x="27" y="185" width="20" height="19" />
<rect x="27" y="200" width="20" height="19" />
<rect x="43" y="185" width="21" height="19" />
<rect x="43" y="200" width="21" height="19" />
<rect x="0" y="153" width="13" height="20" />
<rect x="0" y="169" width="13" height="20" />
<rect x="9" y="153" width="21" height="20" />
<rect x="9" y="200" width="21" height="19" />
<rect x="26" y="169" width="21" height="20" />
<rect x="26" y="138" width="21" height="19" />
<rect x="9" y="270" width="21" height="19" />
<rect x="9" y="284" width="21" height="16" />
<rect x="76" y="256" width="22" height="19" />
</g>
<g class="spawningMap-very-common">
<rect x="59" y="270" width="22" height="19" />
<rect x="59" y="284" width="22" height="16" />
<rect x="76" y="270" width="22" height="19" />
<rect x="42" y="284" width="21" height="16" />
<rect x="197" y="169" width="21" height="20" />
<rect x="179" y="94" width="22" height="20" />
<rect x="179" y="109" width="22" height="20" />
<rect x="197" y="94" width="22" height="20" />
<rect x="197" y="109" width="22" height="20" />
<rect x="214" y="121" width="22" height="21" />
<rect x="196" y="270" width="21" height="19" />
<rect x="93" y="124" width="19" height="19" />
<rect x="107" y="124" width="18" height="19" />
<rect x="107" y="138" width="18" height="19" />
<rect x="60" y="94" width="21" height="20" />
<rect x="60" y="109" width="21" height="19" />
<rect x="76" y="94" width="21" height="20" />
<rect x="76" y="109" width="21" height="19" />
<rect x="93" y="109" width="19" height="19" />
<rect x="60" y="66" width="21" height="19" />
<rect x="60" y="80" width="21" height="19" />
<rect x="76" y="66" width="21" height="19" />
<rect x="76" y="80" width="21" height="19" />
<rect x="107" y="109" width="18" height="19" />
<rect x="26" y="270" width="21" height="19" />
<rect x="26" y="284" width="21" height="16" />
<rect x="164" y="256" width="20" height="18" />
<rect x="42" y="270" width="21" height="19" />
<rect x="165" y="185" width="19" height="20" />
<rect x="121" y="168" width="19" height="21" />
<rect x="122" y="138" width="19" height="19" />
<rect x="151" y="138" width="19" height="19" />
<rect x="214" y="121" width="22" height="21" />
<rect x="180" y="185" width="21" height="19" />
<rect x="9" y="242" width="21" height="19" />
<rect x="180" y="153" width="21" height="20" />
<rect x="214" y="169" width="22" height="20" />
<rect x="9" y="256" width="21" height="19" />
<rect x="0" y="93" width="13" height="20" />
<rect x="0" y="108" width="13" height="20" />
<rect x="9" y="93" width="21" height="20" />
<rect x="9" y="108" width="21" height="20" />
<rect x="0" y="10" width="13" height="20" />
<rect x="42" y="80" width="22" height="19" />
<rect x="75" y="10" width="20" height="20" />
<rect x="0" y="80" width="13" height="18" />
<rect x="9" y="66" width="21" height="19" />
<rect x="9" y="80" width="21" height="18" />
<rect x="0" y="40" width="13" height="18" />
<rect x="0" y="53" width="13" height="18" />
<rect x="9" y="53" width="21" height="18" />
<rect x="180" y="257" width="21" height="18" />
<rect x="26" y="66" width="21" height="19" />
<rect x="26" y="94" width="21" height="19" />
<rect x="26" y="80" width="21" height="19" />
<rect x="42" y="66" width="22" height="19" />
<rect x="0" y="66" width="13" height="19" />
<rect x="42" y="94" width="22" height="19" />
<rect x="60" y="215" width="21" height="19" />
<rect x="60" y="229" width="21" height="18" />
<rect x="76" y="215" width="22" height="19" />
<rect x="60" y="200" width="21" height="19" />
<rect x="76" y="200" width="22" height="19" />
<rect x="93" y="200" width="19" height="19" />
<rect x="107" y="185" width="18" height="19" />
<rect x="107" y="168" width="18" height="21" />
<rect x="60" y="123" width="21" height="20" />
<rect x="76" y="123" width="21" height="20" />
<rect x="237" y="116" width="21" height="19" />
<rect x="221" y="130" width="21" height="19" />
<rect x="221" y="144" width="21" height="19" />
<rect x="237" y="130" width="21" height="19" />
<rect x="237" y="144" width="21" height="19" />
<rect x="237" y="158" width="21" height="20" />
<rect x="237" y="172" width="21" height="20" />
<rect x="221" y="102" width="21" height="19" />
<rect x="221" y="116" width="21" height="19" />
<rect x="237" y="102" width="21" height="19" />
<rect x="253" y="102" width="21" height="19" />
<rect x="253" y="116" width="21" height="19" />
<rect x="270" y="102" width="20" height="19" />
<rect x="270" y="116" width="20" height="19" />
<rect x="253" y="130" width="21" height="19" />
<rect x="253" y="144" width="21" height="19" />
<rect x="270" y="130" width="20" height="19" />
<rect x="270" y="144" width="20" height="19" />
<rect x="253" y="158" width="21" height="20" />
<rect x="270" y="158" width="20" height="20" />
<rect x="253" y="172" width="21" height="20" />
<rect x="270" y="172" width="20" height="20" />
</g>
</g>
</svg>