<?xml version="1.0" encoding="utf-8"?>
<svg xmlns="http://www.w3.org/2000/svg" width="300" height="300"
        viewBox="0 0 300 300" class="creatureMap" style="position:absolute;">
    <defs>
        <filter id="blur" x="-30%" y="-30%" width="160%" height="160%">
            <feGaussianBlur stdDeviation="3" />
        </filter>
        <pattern id="pattern-untameable" width="10" height="10" patternTransform="rotate(135)" patternUnits="userSpaceOnUse">
            <rect width="4" height="10" fill="black"></rect>
        </pattern>
        <filter id="groupStroke">
            <feFlood result="outsideColor" flood-color="black"/>
            <feMorphology in="SourceAlpha" operator="dilate" radius="2"/>
            <feComposite result="strokeoutline1" in="outsideColor" operator="in"/>
            <feComposite result="strokeoutline2" in="strokeoutline1" in2="SourceAlpha" operator="out"/>
            <feGaussianBlur in="strokeoutline2" result="strokeblur" stdDeviation="1"/>
        </filter>
        <style>
            .spawningMap-very-common { fill: #0F0; }
            .spawningMap-common { fill: #B2FF00; }
            .spawningMap-uncommon { fill: #FF0; }
            .spawningMap-very-uncommon { fill: #FC0; }
            .spawningMap-rare { fill: #F60; }
            .spawningMap-very-rare { fill: #F00; }
            .spawning-map-point { stroke:black; stroke-width:1; }
        </style>
    </defs>

<g filter="url(#blur)" opacity="0.7">
<g class="spawningMap-very-uncommon">
<rect x="42" y="138" width="21" height="19" />
<rect x="42" y="124" width="21" height="19" />
</g>
<g class="spawningMap-uncommon">
<rect x="42" y="109" width="22" height="19" />
<rect x="136" y="200" width="19" height="20" />
<rect x="107" y="242" width="18" height="19" />
<rect x="107" y="256" width="18" height="19" />
<rect x="60" y="216" width="21" height="18" />
<rect x="60" y="229" width="21" height="19" />
<rect x="107" y="229" width="18" height="18" />
<rect x="60" y="185" width="21" height="20" />
<rect x="60" y="200" width="21" height="20" />
<rect x="93" y="185" width="19" height="20" />
<rect x="93" y="153" width="19" height="21" />
<rect x="93" y="169" width="19" height="21" />
<rect x="107" y="153" width="18" height="21" />
<rect x="60" y="95" width="21" height="19" />
<rect x="60" y="109" width="21" height="19" />
<rect x="136" y="242" width="19" height="19" />
<rect x="136" y="256" width="19" height="19" />
<rect x="121" y="215" width="19" height="19" />
<rect x="136" y="229" width="19" height="18" />
<rect x="150" y="216" width="19" height="18" />
<rect x="121" y="200" width="19" height="20" />
<rect x="136" y="185" width="19" height="20" />
<rect x="121" y="185" width="19" height="20" />
<rect x="121" y="169" width="19" height="20" />
<rect x="136" y="153" width="19" height="21" />
<rect x="136" y="169" width="19" height="20" />
<rect x="136" y="138" width="19" height="19" />
<rect x="165" y="138" width="19" height="20" />
<rect x="27" y="216" width="20" height="18" />
<rect x="27" y="229" width="20" height="18" />
<rect x="42" y="95" width="22" height="19" />
</g>
<g class="spawningMap-common">
<rect x="213" y="270" width="20" height="19" />
<rect x="229" y="270" width="21" height="19" />
<rect x="246" y="270" width="20" height="19" />
<rect x="262" y="270" width="21" height="19" />
<rect x="279" y="270" width="20" height="19" />
<rect x="229" y="256" width="21" height="19" />
<rect x="246" y="256" width="20" height="19" />
<rect x="262" y="256" width="21" height="19" />
<rect x="279" y="256" width="20" height="19" />
<rect x="229" y="242" width="21" height="19" />
<rect x="246" y="242" width="20" height="19" />
<rect x="262" y="242" width="21" height="19" />
<rect x="279" y="242" width="20" height="19" />
<rect x="229" y="228" width="21" height="19" />
<rect x="246" y="228" width="20" height="19" />
<rect x="262" y="228" width="21" height="19" />
<rect x="279" y="228" width="20" height="19" />
<rect x="229" y="214" width="21" height="19" />
<rect x="246" y="214" width="20" height="19" />
<rect x="262" y="214" width="21" height="19" />
<rect x="279" y="214" width="20" height="19" />
<rect x="246" y="200" width="20" height="19" />
<rect x="262" y="200" width="21" height="19" />
<rect x="279" y="200" width="20" height="19" />
<rect x="246" y="186" width="20" height="19" />
<rect x="262" y="186" width="21" height="19" />
<rect x="279" y="186" width="20" height="19" />
<rect x="213" y="228" width="20" height="19" />
<rect x="213" y="214" width="20" height="19" />
<rect x="231" y="201" width="21" height="18" />
<rect x="214" y="201" width="21" height="18" />
<rect x="196" y="216" width="21" height="18" />
<rect x="180" y="216" width="21" height="18" />
<rect x="43" y="185" width="21" height="20" />
<rect x="43" y="200" width="21" height="20" />
</g>
</g>
</svg>