<?xml version="1.0" encoding="utf-8"?>
<svg xmlns="http://www.w3.org/2000/svg" width="300" height="300" viewBox="0 0 300 300" class="creatureMap" style="position:absolute;">
<defs>
    <filter id="blur" x="-30%" y="-30%" width="160%" height="160%">
        <feGaussianBlur stdDeviation="3" />
    </filter>
    <style>
        .spawningMap-very-common { fill: #0F0; }
        .spawningMap-common { fill: #B2FF00; }
        .spawningMap-uncommon { fill: #FF0; }
        .spawningMap-very-uncommon { fill: #FC0; }
        .spawningMap-rare { fill: #F60; }
        .spawningMap-very-rare { fill: #F00; }
        .spawning-map-point { stroke:black; stroke-width:1; }
    </style>
    <pattern id="pattern-untameable" width="10" height="10" patternTransform="rotate(135)" patternUnits="userSpaceOnUse">
        <rect width="4" height="10" fill="black"></rect>
    </pattern>
</defs>
<g filter="url(#blur)" opacity="0.7">
    <g class="spawningMap-very-rare">
        <rect x="173" y="39" width="28" height="25" />
        <rect x="272" y="46" width="28" height="24" />
        <rect x="183" y="221" width="22" height="38" />
        <rect x="270" y="221" width="22" height="38" />
        <rect x="0" y="45" width="27" height="24" />
        <rect x="53" y="50" width="28" height="24" />
        <rect x="17" y="219" width="28" height="24" />
        <rect x="73" y="218" width="28" height="24" />
    </g></g>
<g fill="url(#pattern-untameable)" opacity="0.3">
        <rect x="173" y="39" width="28" height="25" />
        <rect x="272" y="46" width="28" height="24" />
        <rect x="183" y="221" width="22" height="38" />
        <rect x="270" y="221" width="22" height="38" />
        <rect x="0" y="45" width="27" height="24" />
        <rect x="53" y="50" width="28" height="24" />
        <rect x="17" y="219" width="28" height="24" />
        <rect x="73" y="218" width="28" height="24" />
</g>
</svg>