<svg xmlns="http://www.w3.org/2000/svg" width="300" height="300" viewBox="0 0 300 300" class="creatureMap" style="position:absolute;">
<defs>
<filter id="blur" x="-30%" y="-30%" width="160%" height="160%"><feGaussianBlur stdDeviation="3" />
</filter>
<pattern id="pattern-untameable" width="10" height="10" patternTransform="rotate(135)" patternUnits="userSpaceOnUse"><rect width="4" height="10" fill="black"></rect>
</pattern>
<filter id="groupStroke"><feFlood result="outsideColor" flood-color="black"/><feMorphology in="SourceAlpha" operator="dilate" radius="2"/><feComposite result="strokeoutline1" in="outsideColor" operator="in"/><feComposite result="strokeoutline2" in="strokeoutline1" in2="SourceAlpha" operator="out"/><feGaussianBlur in="strokeoutline2" result="strokeblur" stdDeviation="1"/>
</filter>
<style>
.spawningMap-very-common { fill: #0F0;}
.spawningMap-common { fill: #B2FF00;}
.spawningMap-uncommon { fill: #FF0;}
.spawningMap-very-uncommon { fill: #FC0;}
.spawningMap-rare { fill: #F60;}
.spawningMap-very-rare { fill: #F00; }.spawning-map-point {stroke:black; stroke-width:1;}
</style>
</defs>
<g filter="url(#blur)" opacity="0.7">
<g class="spawningMap-rare"><rect x="172" y="0" width="13" height="0" /><rect x="120" y="0" width="21" height="-4" />
</g>
<g class="spawningMap-very-uncommon"><rect x="37" y="280" width="10" height="9" /><rect x="79" y="6" width="10" height="10" /><rect x="90" y="6" width="9" height="10" /><rect x="100" y="6" width="10" height="10" /><rect x="111" y="17" width="9" height="10" /><rect x="100" y="17" width="10" height="10" /><rect x="90" y="17" width="9" height="10" /><rect x="79" y="17" width="10" height="10" /><rect x="90" y="27" width="9" height="10" /><rect x="100" y="27" width="10" height="10" /><rect x="111" y="27" width="9" height="10" /><rect x="111" y="38" width="9" height="10" /><rect x="100" y="38" width="10" height="10" /><rect x="90" y="38" width="9" height="10" /><rect x="121" y="6" width="10" height="10" /><rect x="132" y="6" width="9" height="10" /><rect x="142" y="6" width="10" height="10" /><rect x="121" y="17" width="10" height="10" /><rect x="121" y="27" width="10" height="10" /><rect x="121" y="38" width="10" height="10" /><rect x="132" y="38" width="9" height="10" /><rect x="132" y="27" width="9" height="10" /><rect x="142" y="27" width="10" height="10" /><rect x="142" y="17" width="10" height="10" /><rect x="153" y="17" width="9" height="10" /><rect x="153" y="27" width="9" height="10" /><rect x="153" y="38" width="9" height="10" /><rect x="142" y="38" width="10" height="10" /><rect x="289" y="175" width="10" height="9" />
</g>
<g class="spawningMap-uncommon"><rect x="174" y="280" width="9" height="9" />
</g>
</g>
<g class="spawning-map-point" opacity="0.8">
</g>
</svg>