<?xml version="1.0" encoding="utf-8"?>
<svg xmlns="http://www.w3.org/2000/svg" width="300" height="300" viewBox="0 0 300 300" class="creatureMap" style="position:absolute;">
<defs>
    <filter id="blur" x="-30%" y="-30%" width="160%" height="160%">
        <feGaussianBlur stdDeviation="3" />
    </filter>
    <style>
        .spawningMap-very-common { fill: #0F0; }
        .spawningMap-common { fill: #B2FF00; }
        .spawningMap-uncommon { fill: #FF0; }
        .spawningMap-very-uncommon { fill: #FC0; }
        .spawningMap-rare { fill: #F60; }
        .spawningMap-very-rare { fill: #F00; }
        .spawning-map-point { stroke:black; stroke-width:1; }
    </style>
    <pattern id="pattern-untameable" width="10" height="10" patternTransform="rotate(135)" patternUnits="userSpaceOnUse">
        <rect width="4" height="10" fill="black"></rect>
    </pattern>
</defs>
<g filter="url(#blur)" opacity="0.7">
    <g class="spawningMap-very-common">
        <rect x="103" y="112" width="13" height="13" />
        <rect x="0" y="119" width="1" height="13" />
        <rect x="0" y="119" width="8" height="13" />
        <rect x="3" y="119" width="13" height="13" />
        <rect x="103" y="119" width="13" height="13" />
        <rect x="0" y="112" width="1" height="13" />
        <rect x="0" y="112" width="8" height="13" />
        <rect x="3" y="112" width="13" height="13" />
        <rect x="10" y="112" width="13" height="13" />
        <rect x="17" y="112" width="13" height="13" />
        <rect x="32" y="112" width="12" height="13" />
    </g></g>
<g fill="url(#pattern-untameable)" opacity="0.3">
        <rect x="103" y="112" width="13" height="13" />
        <rect x="0" y="119" width="1" height="13" />
        <rect x="0" y="119" width="8" height="13" />
        <rect x="3" y="119" width="13" height="13" />
        <rect x="103" y="119" width="13" height="13" />
        <rect x="0" y="112" width="1" height="13" />
        <rect x="0" y="112" width="8" height="13" />
        <rect x="3" y="112" width="13" height="13" />
        <rect x="10" y="112" width="13" height="13" />
        <rect x="17" y="112" width="13" height="13" />
        <rect x="32" y="112" width="12" height="13" />
</g>
</svg>