<?xml version="1.0" encoding="utf-8"?>
<svg xmlns="http://www.w3.org/2000/svg" width="300" height="300"
        viewBox="0 0 300 300" class="creatureMap" style="position:absolute;">
    <defs>
        <filter id="blur" x="-30%" y="-30%" width="160%" height="160%">
            <feGaussianBlur stdDeviation="3" />
        </filter>
        <pattern id="pattern-untameable" width="10" height="10" patternTransform="rotate(135)" patternUnits="userSpaceOnUse">
            <rect width="4" height="10" fill="black"></rect>
        </pattern>
        <filter id="groupStroke">
            <feFlood result="outsideColor" flood-color="black"/>
            <feMorphology in="SourceAlpha" operator="dilate" radius="2"/>
            <feComposite result="strokeoutline1" in="outsideColor" operator="in"/>
            <feComposite result="strokeoutline2" in="strokeoutline1" in2="SourceAlpha" operator="out"/>
            <feGaussianBlur in="strokeoutline2" result="strokeblur" stdDeviation="1"/>
        </filter>
        <style>
            .spawningMap-very-common { fill: #0F0; }
            .spawningMap-common { fill: #B2FF00; }
            .spawningMap-uncommon { fill: #FF0; }
            .spawningMap-very-uncommon { fill: #FC0; }
            .spawningMap-rare { fill: #F60; }
            .spawningMap-very-rare { fill: #F00; }
            .spawning-map-point { stroke:black; stroke-width:1; }
        </style>
    </defs>

<g filter="url(#blur)" opacity="0.7">
<g class="spawningMap-rare">
<rect x="135" y="284" width="20" height="16" />
</g>
<g class="spawningMap-very-uncommon">
<rect x="93" y="256" width="19" height="18" />
<rect x="121" y="284" width="19" height="16" />
</g>
<g class="spawningMap-uncommon">
<rect x="107" y="283" width="18" height="17" />
<rect x="93" y="242" width="19" height="19" />
<rect x="214" y="186" width="21" height="19" />
<rect x="231" y="186" width="21" height="19" />
<rect x="121" y="228" width="19" height="19" />
<rect x="121" y="200" width="19" height="20" />
<rect x="107" y="200" width="18" height="19" />
<rect x="221" y="130" width="21" height="19" />
<rect x="221" y="144" width="21" height="19" />
<rect x="237" y="172" width="21" height="20" />
<rect x="221" y="102" width="21" height="19" />
<rect x="221" y="116" width="21" height="19" />
<rect x="237" y="102" width="21" height="19" />
<rect x="253" y="102" width="21" height="19" />
<rect x="270" y="102" width="20" height="19" />
<rect x="253" y="172" width="21" height="20" />
<rect x="270" y="172" width="20" height="20" />
</g>
<g class="spawningMap-common">
<rect x="93" y="269" width="19" height="19" />
<rect x="107" y="269" width="18" height="19" />
<rect x="121" y="270" width="19" height="19" />
<rect x="135" y="270" width="20" height="19" />
<rect x="127" y="243" width="15" height="14" />
<rect x="127" y="253" width="15" height="15" />
<rect x="136" y="256" width="19" height="19" />
<rect x="150" y="256" width="19" height="18" />
<rect x="121" y="215" width="19" height="18" />
<rect x="165" y="215" width="19" height="19" />
<rect x="136" y="200" width="19" height="20" />
<rect x="150" y="185" width="19" height="20" />
<rect x="237" y="116" width="21" height="19" />
<rect x="237" y="130" width="21" height="19" />
<rect x="237" y="144" width="21" height="19" />
<rect x="237" y="158" width="21" height="20" />
<rect x="253" y="116" width="21" height="19" />
<rect x="270" y="116" width="20" height="19" />
<rect x="253" y="130" width="21" height="19" />
<rect x="253" y="144" width="21" height="19" />
<rect x="270" y="130" width="20" height="19" />
<rect x="270" y="144" width="20" height="19" />
<rect x="253" y="158" width="21" height="20" />
<rect x="270" y="158" width="20" height="20" />
</g>
</g>
<g class="spawning-map-point" opacity="0.8">
<g class="spawningMap-very-common">
<circle cx="254" cy="149" r="4" />
<circle cx="250" cy="148" r="4" />
<circle cx="251" cy="149" r="4" />
<circle cx="249" cy="149" r="4" />
<circle cx="253" cy="147" r="4" />
<circle cx="251" cy="149" r="4" />
<circle cx="251" cy="147" r="4" />
<circle cx="252" cy="146" r="4" />
<circle cx="256" cy="148" r="4" />
<circle cx="253" cy="150" r="4" />
<circle cx="252" cy="147" r="4" />
<circle cx="251" cy="147" r="4" />
<circle cx="250" cy="146" r="4" />
<circle cx="253" cy="146" r="4" />
<circle cx="253" cy="146" r="4" />
<circle cx="254" cy="147" r="4" />
<circle cx="252" cy="149" r="4" />
</g>
</g>
<g fill="url(#pattern-untameable)" opacity="0.3">
<rect x="135" y="284" width="20" height="16"/>
<rect x="93" y="256" width="19" height="18"/>
<rect x="121" y="284" width="19" height="16"/>
<rect x="107" y="283" width="18" height="17"/>
<rect x="93" y="242" width="19" height="19"/>
<rect x="214" y="186" width="21" height="19"/>
<rect x="231" y="186" width="21" height="19"/>
<rect x="121" y="228" width="19" height="19"/>
<rect x="121" y="200" width="19" height="20"/>
<rect x="107" y="200" width="18" height="19"/>
<rect x="221" y="130" width="21" height="19"/>
<rect x="221" y="144" width="21" height="19"/>
<rect x="237" y="172" width="21" height="20"/>
<rect x="221" y="102" width="21" height="19"/>
<rect x="221" y="116" width="21" height="19"/>
<rect x="237" y="102" width="21" height="19"/>
<rect x="253" y="102" width="21" height="19"/>
<rect x="270" y="102" width="20" height="19"/>
<rect x="253" y="172" width="21" height="20"/>
<rect x="270" y="172" width="20" height="20"/>
<rect x="93" y="269" width="19" height="19"/>
<rect x="107" y="269" width="18" height="19"/>
<rect x="121" y="270" width="19" height="19"/>
<rect x="135" y="270" width="20" height="19"/>
<rect x="127" y="243" width="15" height="14"/>
<rect x="127" y="253" width="15" height="15"/>
<rect x="136" y="256" width="19" height="19"/>
<rect x="150" y="256" width="19" height="18"/>
<rect x="121" y="215" width="19" height="18"/>
<rect x="165" y="215" width="19" height="19"/>
<rect x="136" y="200" width="19" height="20"/>
<rect x="150" y="185" width="19" height="20"/>
<rect x="237" y="116" width="21" height="19"/>
<rect x="237" y="130" width="21" height="19"/>
<rect x="237" y="144" width="21" height="19"/>
<rect x="237" y="158" width="21" height="20"/>
<rect x="253" y="116" width="21" height="19"/>
<rect x="270" y="116" width="20" height="19"/>
<rect x="253" y="130" width="21" height="19"/>
<rect x="253" y="144" width="21" height="19"/>
<rect x="270" y="130" width="20" height="19"/>
<rect x="270" y="144" width="20" height="19"/>
<rect x="253" y="158" width="21" height="20"/>
<rect x="270" y="158" width="20" height="20"/>
</g>
</svg>