<svg xmlns="http://www.w3.org/2000/svg" width="300" height="300" viewBox="0 0 300 300" class="creatureMap" style="position:absolute;">
<defs>
  <filter id="blur" x="-30%" y="-30%" width="160%" height="160%">
    <feGaussianBlur stdDeviation="3" />
</filter>
<pattern id="pattern-untameable" width="10" height="10" patternTransform="rotate(135)" patternUnits="userSpaceOnUse">
<rect width="4" height="10" fill="black"></rect>
</pattern><filter id="groupStroke"><feFlood result="outsideColor" flood-color="black"/><feMorphology in="SourceAlpha" operator="dilate" radius="2"/><feComposite result="strokeoutline1" in="outsideColor" operator="in"/><feComposite result="strokeoutline2" in="strokeoutline1" in2="SourceAlpha" operator="out"/><feGaussianBlur in="strokeoutline2" result="strokeblur" stdDeviation="1"/></filter><style>.spawningMap-very-common { fill: #0F0;}.spawningMap-common { fill: #B2FF00;}.spawningMap-uncommon { fill: #FF0;}.spawningMap-very-uncommon { fill: #FC0;}.spawningMap-rare { fill: #F60;}.spawningMap-very-rare { fill: #F00; }.spawning-map-point {stroke:black; stroke-width:1;}</style></defs>
<g filter="url(#blur)" opacity="0.7"><g class="spawningMap-very-uncommon"><rect x="223" y="189" width="24" height="24" /><rect x="42" y="106" width="26" height="16" /></g><g class="spawningMap-uncommon"><rect x="185" y="177" width="13" height="16" /><rect x="116" y="150" width="16" height="13" /><rect x="88" y="117" width="29" height="12" /><rect x="178" y="182" width="13" height="13" /><rect x="107" y="169" width="18" height="13" /><rect x="95" y="146" width="15" height="16" /></g><g class="spawningMap-common"><rect x="154" y="140" width="12" height="13" /><rect x="141" y="177" width="13" height="13" /><rect x="149" y="169" width="12" height="14" /><rect x="149" y="178" width="12" height="13" /><rect x="156" y="173" width="13" height="14" /><rect x="171" y="183" width="12" height="12" /><rect x="164" y="180" width="12" height="15" /><rect x="134" y="155" width="14" height="12" /><rect x="134" y="169" width="13" height="17" /><rect x="123" y="162" width="16" height="13" /><rect x="127" y="169" width="12" height="15" /><rect x="112" y="138" width="13" height="16" /><rect x="119" y="169" width="13" height="14" /><rect x="105" y="138" width="12" height="15" /><rect x="86" y="138" width="17" height="13" /><rect x="102" y="131" width="13" height="13" /><rect x="200" y="177" width="13" height="15" /><rect x="207" y="178" width="13" height="14" /><rect x="215" y="182" width="13" height="16" /><rect x="105" y="150" width="12" height="17" /><rect x="146" y="143" width="13" height="14" /><rect x="193" y="177" width="12" height="13" /><rect x="119" y="141" width="13" height="14" /><rect x="102" y="124" width="13" height="12" /><rect x="92" y="108" width="17" height="14" /></g><g class="spawningMap-very-common"><rect x="154" y="133" width="12" height="12" /><rect x="139" y="147" width="12" height="13" /><rect x="141" y="169" width="13" height="13" /><rect x="156" y="182" width="13" height="13" /><rect x="134" y="162" width="13" height="13" /><rect x="97" y="138" width="13" height="13" /><rect x="95" y="131" width="13" height="13" /><rect x="88" y="131" width="12" height="13" /><rect x="154" y="126" width="12" height="12" /><rect x="127" y="155" width="12" height="12" /><rect x="95" y="124" width="13" height="12" /><rect x="88" y="124" width="12" height="12" /><rect x="66" y="112" width="18" height="18" /><rect x="66" y="126" width="18" height="19" /><rect x="49" y="118" width="18" height="18" /><rect x="32" y="95" width="18" height="18" /><rect x="47" y="95" width="18" height="18" /><rect x="79" y="147" width="19" height="19" /><rect x="106" y="132" width="19" height="19" /><rect x="106" y="118" width="19" height="18" /><rect x="141" y="155" width="10" height="10" /><rect x="134" y="150" width="10" height="10" /><rect x="176" y="169" width="10" height="10" /><rect x="184" y="176" width="11" height="10" /><rect x="201" y="184" width="10" height="10" /><rect x="213" y="190" width="10" height="11" /></g></g>
</svg>