<svg xmlns="http://www.w3.org/2000/svg" width="300" height="300" viewBox="0 0 300 300" class="creatureMap" style="position:absolute;">
<defs>
<filter id="blur" x="-30%" y="-30%" width="160%" height="160%"><feGaussianBlur stdDeviation="3" />
</filter>
<pattern id="pattern-untameable" width="10" height="10" patternTransform="rotate(135)" patternUnits="userSpaceOnUse"><rect width="4" height="10" fill="black"></rect>
</pattern>
<filter id="groupStroke"><feFlood result="outsideColor" flood-color="black"/><feMorphology in="SourceAlpha" operator="dilate" radius="2"/><feComposite result="strokeoutline1" in="outsideColor" operator="in"/><feComposite result="strokeoutline2" in="strokeoutline1" in2="SourceAlpha" operator="out"/><feGaussianBlur in="strokeoutline2" result="strokeblur" stdDeviation="1"/>
</filter>
<style>
.spawningMap-very-common { fill: #0F0;}
.spawningMap-common { fill: #B2FF00;}
.spawningMap-uncommon { fill: #FF0;}
.spawningMap-very-uncommon { fill: #FC0;}
.spawningMap-rare { fill: #F60;}
.spawningMap-very-rare { fill: #F00; }.spawning-map-point {stroke:black; stroke-width:1;}
</style>
</defs>
<g filter="url(#blur)" opacity="0.7">
<g class="spawningMap-very-rare"><rect x="269" y="152" width="29" height="63" /><rect x="269" y="88" width="29" height="63" /><rect x="269" y="6" width="29" height="81" /><rect x="243" y="152" width="25" height="63" /><rect x="242" y="88" width="26" height="63" /><rect x="250" y="22" width="18" height="65" /><rect x="73" y="42" width="224" height="36" /><rect x="243" y="152" width="25" height="63" /><rect x="242" y="88" width="26" height="63" /><rect x="250" y="22" width="18" height="65" /><rect x="108" y="195" width="35" height="35" /><rect x="269" y="152" width="29" height="63" /><rect x="269" y="88" width="29" height="63" /><rect x="259" y="0" width="38" height="173" /><rect x="269" y="6" width="29" height="81" />
</g>
</g>
<g class="spawning-map-point" opacity="0.8">
</g>
</svg>