<?xml version="1.0" encoding="utf-8"?>
<svg xmlns="http://www.w3.org/2000/svg" width="300" height="300" viewBox="0 0 300 300" class="creatureMap" style="position:absolute;">
<defs>
    <filter id="blur" x="-30%" y="-30%" width="160%" height="160%">
        <feGaussianBlur stdDeviation="3" />
    </filter>
    <style>
        .spawningMap-very-common { fill: #0F0; }
        .spawningMap-common { fill: #B2FF00; }
        .spawningMap-uncommon { fill: #FF0; }
        .spawningMap-very-uncommon { fill: #FC0; }
        .spawningMap-rare { fill: #F60; }
        .spawningMap-very-rare { fill: #F00; }
        .spawning-map-point { stroke:black; stroke-width:1; }
    </style>
</defs>
<g filter="url(#blur)" opacity="0.7">
    <g class="spawningMap-common">
        <rect x="61" y="75" width="17" height="11" />
        <rect x="42" y="103" width="16" height="16" />
        <rect x="56" y="97" width="17" height="16" />
        <rect x="118" y="77" width="15" height="14" />
        <rect x="168" y="201" width="17" height="19" />
        <rect x="68" y="55" width="16" height="15" />
        <rect x="243" y="184" width="15" height="14" />
        <rect x="47" y="119" width="11" height="11" />
        <rect x="102" y="149" width="12" height="12" />
        <rect x="101" y="153" width="14" height="13" />
        <rect x="56" y="56" width="17" height="15" />
        <rect x="115" y="226" width="11" height="11" />
        <rect x="221" y="206" width="15" height="14" />
        <rect x="226" y="210" width="14" height="14" />
        <rect x="82" y="126" width="11" height="11" />
        <rect x="76" y="126" width="11" height="11" />
        <rect x="70" y="132" width="11" height="11" />
        <rect x="48" y="95" width="17" height="17" />
        <rect x="56" y="93" width="17" height="14" />
        <rect x="58" y="135" width="11" height="11" />
        <rect x="86" y="128" width="13" height="13" />
        <rect x="90" y="131" width="14" height="13" />
    </g>
    <g class="spawningMap-very-common">
        <rect x="29" y="103" width="12" height="11" />
        <rect x="51" y="111" width="11" height="12" />
        <rect x="92" y="129" width="14" height="13" />
        <rect x="126" y="155" width="11" height="11" />
        <rect x="118" y="149" width="12" height="11" />
        <rect x="116" y="161" width="11" height="11" />
        <rect x="123" y="151" width="11" height="11" />
        <rect x="122" y="169" width="11" height="11" />
        <rect x="111" y="179" width="11" height="11" />
        <rect x="117" y="179" width="12" height="11" />
        <rect x="123" y="173" width="12" height="11" />
        <rect x="113" y="170" width="14" height="16" />
        <rect x="115" y="165" width="13" height="11" />
        <rect x="106" y="184" width="11" height="11" />
        <rect x="135" y="173" width="12" height="11" />
        <rect x="134" y="164" width="18" height="9" />
        <rect x="144" y="157" width="9" height="13" />
        <rect x="102" y="80" width="12" height="11" />
        <rect x="115" y="68" width="11" height="11" />
        <rect x="109" y="68" width="11" height="11" />
        <rect x="91" y="57" width="12" height="11" />
        <rect x="97" y="68" width="11" height="11" />
        <rect x="97" y="59" width="11" height="11" />
        <rect x="97" y="53" width="11" height="11" />
        <rect x="234" y="53" width="11" height="11" />
        <rect x="133" y="57" width="11" height="11" />
        <rect x="132" y="62" width="11" height="10" />
        <rect x="151" y="74" width="9" height="11" />
        <rect x="154" y="68" width="11" height="11" />
        <rect x="105" y="213" width="11" height="11" />
        <rect x="154" y="173" width="11" height="11" />
        <rect x="154" y="184" width="11" height="12" />
        <rect x="163" y="165" width="11" height="11" />
        <rect x="160" y="182" width="11" height="11" />
        <rect x="166" y="182" width="12" height="11" />
        <rect x="169" y="154" width="11" height="11" />
        <rect x="147" y="209" width="12" height="11" />
        <rect x="141" y="202" width="11" height="11" />
        <rect x="186" y="187" width="12" height="11" />
        <rect x="198" y="187" width="11" height="11" />
        <rect x="181" y="162" width="9" height="14" />
        <rect x="240" y="151" width="11" height="17" />
        <rect x="242" y="175" width="10" height="11" />
        <rect x="205" y="175" width="13" height="11" />
        <rect x="207" y="169" width="11" height="11" />
        <rect x="201" y="169" width="11" height="11" />
        <rect x="68" y="64" width="11" height="11" />
        <rect x="60" y="64" width="12" height="11" />
        <rect x="28" y="80" width="12" height="12" />
        <rect x="26" y="85" width="13" height="12" />
        <rect x="23" y="90" width="14" height="15" />
        <rect x="24" y="103" width="12" height="12" />
        <rect x="110" y="222" width="16" height="10" />
        <rect x="175" y="34" width="11" height="11" />
        <rect x="234" y="109" width="9" height="11" />
        <rect x="240" y="115" width="12" height="11" />
        <rect x="243" y="109" width="12" height="11" />
        <rect x="223" y="71" width="11" height="11" />
        <rect x="218" y="65" width="11" height="11" />
        <rect x="239" y="46" width="11" height="11" />
        <rect x="23" y="55" width="11" height="10" />
        <rect x="248" y="92" width="12" height="11" />
        <rect x="228" y="92" width="11" height="11" />
        <rect x="85" y="208" width="11" height="11" />
        <rect x="86" y="212" width="14" height="13" />
        <rect x="61" y="205" width="11" height="12" />
        <rect x="58" y="220" width="12" height="12" />
        <rect x="55" y="184" width="12" height="12" />
        <rect x="58" y="178" width="14" height="13" />
        <rect x="57" y="189" width="12" height="11" />
        <rect x="57" y="161" width="11" height="11" />
        <rect x="57" y="172" width="11" height="11" />
        <rect x="63" y="169" width="17" height="8" />
        <rect x="75" y="171" width="12" height="11" />
        <rect x="49" y="187" width="11" height="12" />
        <rect x="97" y="200" width="11" height="11" />
        <rect x="90" y="200" width="12" height="11" />
        <rect x="86" y="205" width="12" height="13" />
        <rect x="97" y="136" width="14" height="13" />
        <rect x="118" y="48" width="12" height="12" />
        <rect x="97" y="132" width="12" height="11" />
        <rect x="103" y="126" width="12" height="11" />
        <rect x="33" y="117" width="13" height="13" />
        <rect x="122" y="161" width="11" height="11" />
        <rect x="103" y="138" width="12" height="11" />
        <rect x="123" y="184" width="12" height="12" />
        <rect x="106" y="143" width="12" height="12" />
        <rect x="53" y="135" width="11" height="11" />
        <rect x="112" y="143" width="12" height="12" />
        <rect x="106" y="149" width="12" height="11" />
        <rect x="112" y="149" width="12" height="11" />
        <rect x="108" y="155" width="11" height="11" />
        <rect x="129" y="184" width="12" height="12" />
        <rect x="114" y="155" width="11" height="11" />
        <rect x="120" y="155" width="11" height="11" />
        <rect x="109" y="137" width="10" height="12" />
        <rect x="117" y="146" width="11" height="10" />
        <rect x="58" y="129" width="12" height="11" />
        <rect x="129" y="179" width="12" height="11" />
        <rect x="117" y="173" width="12" height="11" />
        <rect x="129" y="173" width="12" height="11" />
        <rect x="129" y="167" width="12" height="11" />
        <rect x="123" y="179" width="12" height="11" />
        <rect x="128" y="161" width="11" height="11" />
        <rect x="105" y="158" width="13" height="13" />
        <rect x="112" y="168" width="13" height="13" />
        <rect x="109" y="172" width="13" height="14" />
        <rect x="108" y="178" width="12" height="12" />
        <rect x="135" y="167" width="12" height="11" />
        <rect x="141" y="167" width="12" height="11" />
        <rect x="141" y="173" width="12" height="11" />
        <rect x="147" y="173" width="12" height="11" />
        <rect x="135" y="184" width="12" height="11" />
        <rect x="135" y="178" width="12" height="11" />
        <rect x="141" y="178" width="12" height="11" />
        <rect x="149" y="178" width="12" height="11" />
        <rect x="49" y="161" width="13" height="11" />
        <rect x="97" y="126" width="12" height="11" />
        <rect x="123" y="49" width="12" height="11" />
        <rect x="44" y="65" width="11" height="10" />
        <rect x="66" y="158" width="16" height="11" />
        <rect x="128" y="49" width="13" height="12" />
        <rect x="103" y="132" width="12" height="11" />
        <rect x="80" y="61" width="11" height="11" />
        <rect x="115" y="62" width="11" height="12" />
        <rect x="109" y="62" width="11" height="12" />
        <rect x="109" y="80" width="11" height="11" />
        <rect x="115" y="57" width="11" height="11" />
        <rect x="86" y="60" width="11" height="11" />
        <rect x="109" y="74" width="11" height="11" />
        <rect x="115" y="80" width="11" height="11" />
        <rect x="115" y="74" width="11" height="11" />
        <rect x="115" y="52" width="11" height="10" />
        <rect x="121" y="74" width="11" height="11" />
        <rect x="74" y="64" width="11" height="11" />
        <rect x="109" y="57" width="11" height="11" />
        <rect x="109" y="51" width="11" height="11" />
        <rect x="134" y="49" width="12" height="11" />
        <rect x="57" y="166" width="11" height="11" />
        <rect x="60" y="69" width="11" height="12" />
        <rect x="101" y="49" width="13" height="12" />
        <rect x="107" y="47" width="12" height="12" />
        <rect x="112" y="47" width="13" height="13" />
        <rect x="102" y="74" width="12" height="11" />
        <rect x="97" y="74" width="11" height="11" />
        <rect x="102" y="59" width="12" height="11" />
        <rect x="102" y="53" width="12" height="11" />
        <rect x="140" y="48" width="11" height="11" />
        <rect x="146" y="49" width="11" height="11" />
        <rect x="150" y="54" width="12" height="12" />
        <rect x="155" y="57" width="11" height="11" />
        <rect x="155" y="63" width="11" height="11" />
        <rect x="160" y="61" width="12" height="11" />
        <rect x="172" y="61" width="11" height="11" />
        <rect x="49" y="75" width="11" height="11" />
        <rect x="178" y="62" width="11" height="12" />
        <rect x="217" y="60" width="11" height="11" />
        <rect x="222" y="55" width="12" height="11" />
        <rect x="228" y="54" width="12" height="11" />
        <rect x="121" y="68" width="11" height="11" />
        <rect x="121" y="62" width="11" height="12" />
        <rect x="121" y="57" width="11" height="11" />
        <rect x="121" y="53" width="11" height="9" />
        <rect x="127" y="57" width="11" height="11" />
        <rect x="127" y="53" width="11" height="9" />
        <rect x="127" y="74" width="11" height="11" />
        <rect x="127" y="68" width="11" height="11" />
        <rect x="133" y="72" width="11" height="11" />
        <rect x="133" y="66" width="11" height="12" />
        <rect x="139" y="72" width="11" height="11" />
        <rect x="139" y="66" width="11" height="12" />
        <rect x="133" y="53" width="11" height="9" />
        <rect x="139" y="54" width="11" height="9" />
        <rect x="145" y="54" width="12" height="10" />
        <rect x="145" y="67" width="12" height="11" />
        <rect x="178" y="199" width="11" height="11" />
        <rect x="49" y="87" width="11" height="11" />
        <rect x="166" y="60" width="11" height="11" />
        <rect x="180" y="35" width="12" height="11" />
        <rect x="180" y="29" width="12" height="11" />
        <rect x="51" y="172" width="11" height="11" />
        <rect x="61" y="152" width="16" height="11" />
        <rect x="100" y="169" width="12" height="11" />
        <rect x="105" y="174" width="11" height="12" />
        <rect x="105" y="189" width="11" height="11" />
        <rect x="105" y="195" width="11" height="11" />
        <rect x="105" y="200" width="11" height="12" />
        <rect x="110" y="202" width="12" height="11" />
        <rect x="147" y="167" width="12" height="11" />
        <rect x="72" y="152" width="12" height="11" />
        <rect x="49" y="69" width="11" height="11" />
        <rect x="147" y="162" width="12" height="11" />
        <rect x="147" y="156" width="12" height="11" />
        <rect x="154" y="167" width="11" height="11" />
        <rect x="154" y="161" width="11" height="12" />
        <rect x="154" y="179" width="11" height="11" />
        <rect x="68" y="147" width="12" height="11" />
        <rect x="81" y="154" width="11" height="11" />
        <rect x="117" y="184" width="12" height="11" />
        <rect x="91" y="152" width="12" height="11" />
        <rect x="90" y="144" width="12" height="11" />
        <rect x="111" y="190" width="11" height="11" />
        <rect x="123" y="190" width="12" height="11" />
        <rect x="82" y="166" width="11" height="11" />
        <rect x="111" y="196" width="11" height="11" />
        <rect x="123" y="196" width="12" height="11" />
        <rect x="122" y="202" width="12" height="11" />
        <rect x="116" y="202" width="12" height="11" />
        <rect x="128" y="202" width="12" height="11" />
        <rect x="163" y="171" width="11" height="11" />
        <rect x="169" y="171" width="11" height="11" />
        <rect x="160" y="177" width="11" height="11" />
        <rect x="166" y="177" width="12" height="11" />
        <rect x="34" y="79" width="13" height="12" />
        <rect x="175" y="171" width="11" height="11" />
        <rect x="175" y="177" width="11" height="11" />
        <rect x="175" y="159" width="11" height="12" />
        <rect x="169" y="159" width="11" height="12" />
        <rect x="82" y="171" width="11" height="11" />
        <rect x="141" y="183" width="12" height="11" />
        <rect x="147" y="186" width="12" height="11" />
        <rect x="33" y="84" width="12" height="12" />
        <rect x="147" y="192" width="12" height="11" />
        <rect x="147" y="197" width="12" height="11" />
        <rect x="153" y="192" width="12" height="11" />
        <rect x="153" y="197" width="12" height="11" />
        <rect x="153" y="209" width="12" height="11" />
        <rect x="147" y="203" width="12" height="11" />
        <rect x="108" y="208" width="11" height="11" />
        <rect x="103" y="219" width="12" height="11" />
        <rect x="103" y="225" width="12" height="11" />
        <rect x="109" y="226" width="11" height="11" />
        <rect x="121" y="222" width="11" height="11" />
        <rect x="119" y="216" width="11" height="11" />
        <rect x="119" y="210" width="11" height="11" />
        <rect x="119" y="204" width="11" height="12" />
        <rect x="124" y="204" width="12" height="12" />
        <rect x="130" y="204" width="11" height="12" />
        <rect x="135" y="202" width="11" height="12" />
        <rect x="140" y="207" width="12" height="11" />
        <rect x="146" y="212" width="11" height="11" />
        <rect x="152" y="212" width="11" height="11" />
        <rect x="158" y="212" width="11" height="11" />
        <rect x="163" y="208" width="12" height="11" />
        <rect x="169" y="210" width="11" height="11" />
        <rect x="175" y="212" width="11" height="11" />
        <rect x="174" y="195" width="11" height="11" />
        <rect x="153" y="203" width="12" height="11" />
        <rect x="35" y="103" width="12" height="11" />
        <rect x="31" y="89" width="12" height="12" />
        <rect x="192" y="187" width="11" height="11" />
        <rect x="27" y="97" width="13" height="13" />
        <rect x="159" y="204" width="12" height="11" />
        <rect x="29" y="109" width="12" height="11" />
        <rect x="164" y="198" width="12" height="11" />
        <rect x="160" y="192" width="11" height="12" />
        <rect x="158" y="187" width="11" height="11" />
        <rect x="175" y="165" width="11" height="11" />
        <rect x="26" y="117" width="13" height="12" />
        <rect x="181" y="211" width="11" height="11" />
        <rect x="205" y="190" width="12" height="11" />
        <rect x="212" y="190" width="13" height="11" />
        <rect x="217" y="184" width="11" height="12" />
        <rect x="187" y="161" width="11" height="11" />
        <rect x="182" y="155" width="12" height="12" />
        <rect x="180" y="150" width="12" height="11" />
        <rect x="35" y="109" width="12" height="11" />
        <rect x="246" y="143" width="11" height="11" />
        <rect x="236" y="167" width="12" height="11" />
        <rect x="230" y="167" width="12" height="11" />
        <rect x="224" y="167" width="12" height="11" />
        <rect x="242" y="167" width="10" height="11" />
        <rect x="236" y="173" width="12" height="11" />
        <rect x="230" y="173" width="12" height="11" />
        <rect x="224" y="173" width="12" height="11" />
        <rect x="234" y="179" width="12" height="11" />
        <rect x="228" y="179" width="12" height="11" />
        <rect x="30" y="94" width="13" height="12" />
        <rect x="222" y="179" width="11" height="11" />
        <rect x="241" y="134" width="11" height="11" />
        <rect x="75" y="177" width="12" height="11" />
        <rect x="207" y="110" width="12" height="11" />
        <rect x="217" y="110" width="12" height="11" />
        <rect x="211" y="105" width="11" height="11" />
        <rect x="187" y="211" width="12" height="11" />
        <rect x="64" y="130" width="11" height="11" />
        <rect x="117" y="190" width="12" height="11" />
        <rect x="117" y="196" width="12" height="11" />
        <rect x="112" y="208" width="12" height="11" />
        <rect x="110" y="213" width="14" height="11" />
        <rect x="175" y="29" width="11" height="11" />
        <rect x="59" y="200" width="10" height="12" />
        <rect x="59" y="194" width="9" height="12" />
        <rect x="229" y="115" width="11" height="11" />
        <rect x="235" y="115" width="11" height="11" />
        <rect x="55" y="86" width="11" height="11" />
        <rect x="223" y="88" width="11" height="11" />
        <rect x="87" y="177" width="12" height="11" />
        <rect x="81" y="177" width="12" height="11" />
        <rect x="90" y="183" width="11" height="11" />
        <rect x="84" y="183" width="11" height="11" />
        <rect x="92" y="189" width="12" height="11" />
        <rect x="243" y="98" width="12" height="11" />
        <rect x="243" y="104" width="12" height="11" />
        <rect x="223" y="82" width="11" height="11" />
        <rect x="223" y="76" width="11" height="11" />
        <rect x="240" y="86" width="11" height="12" />
        <rect x="246" y="84" width="11" height="11" />
        <rect x="252" y="84" width="11" height="11" />
        <rect x="257" y="80" width="12" height="12" />
        <rect x="255" y="75" width="11" height="11" />
        <rect x="249" y="69" width="12" height="11" />
        <rect x="244" y="69" width="11" height="11" />
        <rect x="239" y="63" width="11" height="11" />
        <rect x="38" y="75" width="11" height="11" />
        <rect x="242" y="58" width="11" height="11" />
        <rect x="242" y="52" width="11" height="11" />
        <rect x="50" y="59" width="11" height="11" />
        <rect x="243" y="92" width="11" height="11" />
        <rect x="228" y="109" width="11" height="11" />
        <rect x="228" y="104" width="11" height="11" />
        <rect x="228" y="98" width="11" height="11" />
        <rect x="86" y="189" width="12" height="11" />
        <rect x="111" y="184" width="11" height="11" />
        <rect x="93" y="194" width="12" height="11" />
        <rect x="87" y="194" width="12" height="11" />
        <rect x="52" y="179" width="14" height="13" />
        <rect x="48" y="183" width="14" height="13" />
        <rect x="44" y="187" width="13" height="13" />
        <rect x="77" y="196" width="11" height="11" />
        <rect x="80" y="202" width="12" height="11" />
        <rect x="88" y="217" width="12" height="11" />
        <rect x="46" y="193" width="13" height="13" />
        <rect x="82" y="220" width="12" height="8" />
        <rect x="50" y="195" width="13" height="13" />
        <rect x="76" y="219" width="12" height="8" />
        <rect x="71" y="219" width="11" height="8" />
        <rect x="64" y="219" width="12" height="11" />
        <rect x="65" y="177" width="12" height="11" />
        <rect x="49" y="65" width="12" height="10" />
        <rect x="71" y="182" width="11" height="11" />
        <rect x="75" y="185" width="12" height="11" />
        <rect x="76" y="191" width="11" height="11" />
        <rect x="54" y="193" width="14" height="13" />
        <rect x="54" y="199" width="13" height="13" />
        <rect x="70" y="69" width="11" height="12" />
        <rect x="94" y="167" width="11" height="11" />
        <rect x="56" y="204" width="13" height="13" />
        <rect x="58" y="210" width="12" height="12" />
        <rect x="55" y="217" width="12" height="12" />
        <rect x="56" y="223" width="12" height="12" />
        <rect x="62" y="223" width="11" height="11" />
        <rect x="67" y="222" width="12" height="12" />
        <rect x="73" y="221" width="11" height="11" />
        <rect x="79" y="221" width="11" height="11" />
        <rect x="84" y="221" width="12" height="11" />
        <rect x="90" y="221" width="11" height="11" />
        <rect x="93" y="215" width="11" height="11" />
        <rect x="89" y="210" width="13" height="13" />
        <rect x="41" y="70" width="11" height="10" />
        <rect x="56" y="174" width="14" height="14" />
        <rect x="70" y="126" width="11" height="11" />
        <rect x="47" y="133" width="11" height="12" />
        <rect x="49" y="166" width="13" height="11" />
        <rect x="61" y="86" width="11" height="11" />
        <rect x="97" y="121" width="12" height="11" />
        <rect x="101" y="142" width="13" height="14" />
        <rect x="62" y="171" width="11" height="11" />
        <rect x="68" y="171" width="11" height="11" />
        <rect x="71" y="175" width="11" height="12" />
        <rect x="81" y="184" width="11" height="11" />
        <rect x="82" y="190" width="11" height="11" />
        <rect x="83" y="196" width="11" height="11" />
        <rect x="86" y="201" width="11" height="12" />
    </g>
    <g class="spawningMap-uncommon">
        <rect x="81" y="145" width="13" height="13" />
        <rect x="110" y="161" width="13" height="13" />
        <rect x="94" y="135" width="13" height="13" />
        <rect x="97" y="139" width="13" height="13" />
        <rect x="78" y="140" width="13" height="13" />
    </g></g>
</svg>