<svg xmlns="http://www.w3.org/2000/svg" width="300" height="300" viewBox="0 0 300 300" class="creatureMap" style="position:absolute;">
<defs>
<filter id="blur" x="-30%" y="-30%" width="160%" height="160%"><feGaussianBlur stdDeviation="3" />
</filter>
<pattern id="pattern-untameable" width="10" height="10" patternTransform="rotate(135)" patternUnits="userSpaceOnUse"><rect width="4" height="10" fill="black"></rect>
</pattern>
<filter id="groupStroke"><feFlood result="outsideColor" flood-color="black"/><feMorphology in="SourceAlpha" operator="dilate" radius="2"/><feComposite result="strokeoutline1" in="outsideColor" operator="in"/><feComposite result="strokeoutline2" in="strokeoutline1" in2="SourceAlpha" operator="out"/><feGaussianBlur in="strokeoutline2" result="strokeblur" stdDeviation="1"/>
</filter>
<style>
.spawningMap-very-common { fill: #0F0;}
.spawningMap-common { fill: #B2FF00;}
.spawningMap-uncommon { fill: #FF0;}
.spawningMap-very-uncommon { fill: #FC0;}
.spawningMap-rare { fill: #F60;}
.spawningMap-very-rare { fill: #F00; }.spawning-map-point {stroke:black; stroke-width:1;}
</style>
</defs>
<g filter="url(#blur)" opacity="0.7">
<g class="spawningMap-very-common"><rect x="79" y="168" width="12" height="11" /><rect x="209" y="168" width="11" height="11" /><rect x="92" y="79" width="12" height="11" /><rect x="118" y="155" width="12" height="11" /><rect x="221" y="168" width="12" height="11" /><rect x="221" y="155" width="12" height="11" /><rect x="92" y="206" width="12" height="11" /><rect x="221" y="142" width="12" height="12" /><rect x="221" y="129" width="12" height="12" /><rect x="221" y="117" width="12" height="11" /><rect x="66" y="244" width="12" height="11" /><rect x="53" y="244" width="12" height="11" /><rect x="209" y="117" width="11" height="11" /><rect x="118" y="53" width="12" height="11" /><rect x="53" y="206" width="12" height="11" /><rect x="66" y="193" width="12" height="11" /><rect x="66" y="180" width="12" height="12" /><rect x="118" y="66" width="12" height="11" /><rect x="144" y="142" width="12" height="12" /><rect x="66" y="168" width="12" height="11" /><rect x="79" y="155" width="12" height="11" /><rect x="92" y="155" width="12" height="11" /><rect x="92" y="168" width="12" height="11" /><rect x="105" y="155" width="12" height="11" /><rect x="118" y="142" width="12" height="12" /><rect x="131" y="142" width="12" height="12" /><rect x="144" y="129" width="12" height="12" /><rect x="157" y="129" width="12" height="12" /><rect x="157" y="142" width="12" height="12" /><rect x="170" y="129" width="12" height="12" /><rect x="79" y="180" width="12" height="12" /><rect x="92" y="185" width="12" height="12" /><rect x="118" y="79" width="12" height="11" /><rect x="221" y="66" width="12" height="11" /><rect x="105" y="79" width="12" height="11" /><rect x="79" y="79" width="12" height="11" /><rect x="79" y="117" width="12" height="11" /><rect x="66" y="129" width="12" height="12" /><rect x="66" y="142" width="12" height="12" /><rect x="196" y="129" width="11" height="12" /><rect x="196" y="142" width="11" height="12" /><rect x="183" y="155" width="12" height="11" /><rect x="118" y="231" width="12" height="12" /><rect x="105" y="231" width="12" height="12" /><rect x="118" y="244" width="12" height="11" /><rect x="53" y="129" width="12" height="12" /><rect x="144" y="244" width="12" height="11" /><rect x="157" y="231" width="12" height="12" /><rect x="196" y="231" width="11" height="12" /><rect x="183" y="244" width="12" height="11" /><rect x="196" y="244" width="11" height="11" /><rect x="209" y="231" width="11" height="12" /><rect x="209" y="218" width="11" height="12" /><rect x="221" y="218" width="12" height="12" /><rect x="221" y="231" width="12" height="12" /><rect x="221" y="206" width="12" height="11" /><rect x="209" y="206" width="11" height="11" /><rect x="209" y="193" width="11" height="11" /><rect x="209" y="180" width="11" height="12" /><rect x="60" y="77" width="1" height="3" /><rect x="16" y="171" width="17" height="24" /><rect x="34" y="171" width="21" height="24" /><rect x="73" y="66" width="6" height="7" /><rect x="62" y="79" width="5" height="2" /><rect x="68" y="75" width="3" height="4" /><rect x="69" y="69" width="6" height="5" /><rect x="79" y="67" width="7" height="7" /><rect x="62" y="79" width="5" height="2" /><rect x="68" y="75" width="3" height="4" /><rect x="60" y="77" width="1" height="3" /><rect x="69" y="69" width="6" height="5" /><rect x="79" y="67" width="7" height="7" /><rect x="73" y="66" width="6" height="7" />
</g>
</g>
<g class="spawning-map-point" opacity="0.8">
</g>
<g fill="url(#pattern-untameable)" opacity="0.3"><rect x="60" y="77" width="1" height="3"/><rect x="16" y="171" width="17" height="24"/><rect x="34" y="171" width="21" height="24"/><rect x="73" y="66" width="6" height="7"/><rect x="62" y="79" width="5" height="2"/><rect x="68" y="75" width="3" height="4"/><rect x="69" y="69" width="6" height="5"/><rect x="79" y="67" width="7" height="7"/><rect x="62" y="79" width="5" height="2"/><rect x="68" y="75" width="3" height="4"/><rect x="60" y="77" width="1" height="3"/><rect x="69" y="69" width="6" height="5"/><rect x="79" y="67" width="7" height="7"/><rect x="73" y="66" width="6" height="7"/>
</g>
<g filter="url(#groupStroke)" opacity="0.8"><rect x="60" y="77" width="1" height="3"/><rect x="16" y="171" width="17" height="24"/><rect x="34" y="171" width="21" height="24"/><rect x="73" y="66" width="6" height="7"/><rect x="62" y="79" width="5" height="2"/><rect x="68" y="75" width="3" height="4"/><rect x="69" y="69" width="6" height="5"/><rect x="79" y="67" width="7" height="7"/><rect x="62" y="79" width="5" height="2"/><rect x="68" y="75" width="3" height="4"/><rect x="60" y="77" width="1" height="3"/><rect x="69" y="69" width="6" height="5"/><rect x="79" y="67" width="7" height="7"/><rect x="73" y="66" width="6" height="7"/>
</g>
</svg>