<?xml version="1.0" encoding="utf-8"?>
<svg xmlns="http://www.w3.org/2000/svg" width="300" height="300"
        viewBox="0 0 300 300" class="creatureMap" style="position:absolute;">
    <defs>
        <filter id="blur" x="-30%" y="-30%" width="160%" height="160%">
            <feGaussianBlur stdDeviation="3" />
        </filter>
        <pattern id="pattern-untameable" width="10" height="10" patternTransform="rotate(135)" patternUnits="userSpaceOnUse">
            <rect width="4" height="10" fill="black"></rect>
        </pattern>
        <filter id="groupStroke">
            <feFlood result="outsideColor" flood-color="black"/>
            <feMorphology in="SourceAlpha" operator="dilate" radius="2"/>
            <feComposite result="strokeoutline1" in="outsideColor" operator="in"/>
            <feComposite result="strokeoutline2" in="strokeoutline1" in2="SourceAlpha" operator="out"/>
            <feGaussianBlur in="strokeoutline2" result="strokeblur" stdDeviation="1"/>
        </filter>
        <style>
            .spawningMap-very-common { fill: #0F0; }
            .spawningMap-common { fill: #B2FF00; }
            .spawningMap-uncommon { fill: #FF0; }
            .spawningMap-very-uncommon { fill: #FC0; }
            .spawningMap-rare { fill: #F60; }
            .spawningMap-very-rare { fill: #F00; }
            .spawning-map-point { stroke:black; stroke-width:1; }
        </style>
    </defs>

<g filter="url(#blur)" opacity="0.7">
<g class="spawningMap-very-rare">
<rect x="179" y="150" width="12" height="12" />
<rect x="219" y="231" width="12" height="12" />
<rect x="226" y="231" width="12" height="12" />
<rect x="219" y="238" width="12" height="12" />
<rect x="226" y="238" width="12" height="12" />
<rect x="233" y="231" width="11" height="12" />
<rect x="239" y="231" width="12" height="12" />
<rect x="233" y="238" width="11" height="12" />
<rect x="239" y="238" width="12" height="12" />
<rect x="219" y="244" width="12" height="13" />
<rect x="226" y="244" width="12" height="13" />
<rect x="233" y="244" width="11" height="13" />
<rect x="239" y="244" width="12" height="13" />
<rect x="252" y="156" width="12" height="13" />
<rect x="252" y="217" width="12" height="13" />
<rect x="246" y="231" width="12" height="12" />
<rect x="206" y="217" width="12" height="13" />
<rect x="213" y="224" width="12" height="12" />
<rect x="219" y="224" width="12" height="12" />
<rect x="199" y="150" width="12" height="12" />
<rect x="193" y="150" width="12" height="12" />
<rect x="186" y="150" width="12" height="12" />
<rect x="226" y="150" width="12" height="12" />
<rect x="233" y="150" width="11" height="12" />
<rect x="226" y="156" width="12" height="13" />
<rect x="233" y="156" width="11" height="13" />
<rect x="239" y="150" width="12" height="12" />
<rect x="246" y="150" width="12" height="12" />
<rect x="239" y="156" width="12" height="13" />
<rect x="246" y="156" width="12" height="13" />
<rect x="226" y="163" width="12" height="12" />
<rect x="233" y="163" width="11" height="12" />
<rect x="226" y="170" width="12" height="12" />
<rect x="233" y="170" width="11" height="12" />
<rect x="239" y="163" width="12" height="12" />
<rect x="246" y="163" width="12" height="12" />
<rect x="239" y="170" width="12" height="12" />
<rect x="246" y="170" width="12" height="12" />
<rect x="206" y="150" width="12" height="12" />
<rect x="199" y="156" width="12" height="13" />
<rect x="206" y="156" width="12" height="13" />
<rect x="212" y="150" width="12" height="12" />
<rect x="219" y="150" width="12" height="12" />
<rect x="212" y="156" width="12" height="13" />
<rect x="219" y="156" width="12" height="13" />
<rect x="199" y="163" width="12" height="12" />
<rect x="206" y="163" width="12" height="12" />
<rect x="206" y="170" width="12" height="12" />
<rect x="212" y="163" width="12" height="12" />
<rect x="219" y="163" width="12" height="12" />
<rect x="212" y="170" width="12" height="12" />
<rect x="219" y="170" width="12" height="12" />
<rect x="233" y="177" width="11" height="12" />
<rect x="239" y="177" width="12" height="12" />
<rect x="233" y="184" width="11" height="12" />
<rect x="239" y="184" width="12" height="12" />
<rect x="246" y="177" width="12" height="12" />
<rect x="246" y="184" width="12" height="12" />
<rect x="252" y="184" width="12" height="12" />
<rect x="233" y="190" width="11" height="12" />
<rect x="239" y="190" width="12" height="12" />
<rect x="233" y="197" width="11" height="12" />
<rect x="239" y="197" width="12" height="12" />
<rect x="246" y="190" width="12" height="12" />
<rect x="252" y="190" width="12" height="12" />
<rect x="246" y="197" width="12" height="12" />
<rect x="206" y="177" width="12" height="12" />
<rect x="213" y="177" width="12" height="12" />
<rect x="206" y="184" width="12" height="12" />
<rect x="213" y="184" width="12" height="12" />
<rect x="219" y="177" width="12" height="12" />
<rect x="226" y="177" width="12" height="12" />
<rect x="219" y="184" width="12" height="12" />
<rect x="226" y="184" width="12" height="12" />
<rect x="206" y="190" width="12" height="12" />
<rect x="213" y="190" width="12" height="12" />
<rect x="219" y="190" width="12" height="12" />
<rect x="226" y="190" width="12" height="12" />
<rect x="226" y="197" width="12" height="12" />
<rect x="226" y="204" width="12" height="12" />
<rect x="233" y="204" width="11" height="12" />
<rect x="226" y="211" width="12" height="12" />
<rect x="233" y="211" width="11" height="12" />
<rect x="239" y="204" width="12" height="12" />
<rect x="246" y="204" width="12" height="12" />
<rect x="239" y="211" width="12" height="12" />
<rect x="246" y="211" width="12" height="12" />
<rect x="226" y="217" width="12" height="13" />
<rect x="233" y="217" width="11" height="13" />
<rect x="226" y="224" width="12" height="12" />
<rect x="233" y="224" width="11" height="12" />
<rect x="239" y="217" width="12" height="13" />
<rect x="246" y="217" width="12" height="13" />
<rect x="239" y="224" width="12" height="12" />
<rect x="252" y="177" width="12" height="12" />
<rect x="252" y="170" width="12" height="12" />
<rect x="252" y="163" width="12" height="12" />
<rect x="252" y="197" width="12" height="12" />
<rect x="252" y="204" width="12" height="12" />
<rect x="252" y="211" width="12" height="12" />
<rect x="246" y="224" width="12" height="12" />
<rect x="199" y="170" width="12" height="12" />
<rect x="206" y="197" width="12" height="12" />
<rect x="213" y="197" width="12" height="12" />
<rect x="219" y="197" width="12" height="12" />
<rect x="206" y="204" width="12" height="12" />
<rect x="213" y="204" width="12" height="12" />
<rect x="219" y="204" width="12" height="12" />
<rect x="206" y="211" width="12" height="12" />
<rect x="213" y="211" width="12" height="12" />
<rect x="219" y="211" width="12" height="12" />
<rect x="213" y="217" width="12" height="13" />
<rect x="219" y="217" width="12" height="13" />
</g>
<g class="spawningMap-rare">
<rect x="186" y="72" width="15" height="14" />
<rect x="196" y="72" width="14" height="14" />
<rect x="195" y="73" width="12" height="11" />
<rect x="200" y="71" width="11" height="11" />
<rect x="204" y="70" width="12" height="12" />
<rect x="203" y="63" width="12" height="12" />
<rect x="200" y="59" width="12" height="12" />
<rect x="197" y="55" width="10" height="12" />
<rect x="186" y="63" width="15" height="14" />
<rect x="196" y="63" width="14" height="14" />
<rect x="177" y="72" width="14" height="14" />
</g>
<g class="spawningMap-very-uncommon">
<rect x="196" y="54" width="14" height="14" />
<rect x="168" y="63" width="14" height="14" />
<rect x="168" y="54" width="14" height="14" />
<rect x="205" y="63" width="14" height="14" />
<rect x="177" y="54" width="14" height="14" />
<rect x="186" y="54" width="15" height="14" />
<rect x="205" y="72" width="14" height="14" />
<rect x="168" y="72" width="14" height="14" />
<rect x="168" y="80" width="14" height="14" />
<rect x="168" y="89" width="14" height="14" />
<rect x="158" y="89" width="15" height="14" />
<rect x="162" y="80" width="11" height="14" />
<rect x="162" y="72" width="11" height="14" />
<rect x="177" y="45" width="14" height="14" />
<rect x="168" y="45" width="14" height="14" />
<rect x="186" y="45" width="15" height="14" />
</g>
</g>
<g fill="url(#pattern-untameable)" opacity="0.3">
<rect x="179" y="150" width="12" height="12"/>
<rect x="219" y="231" width="12" height="12"/>
<rect x="226" y="231" width="12" height="12"/>
<rect x="219" y="238" width="12" height="12"/>
<rect x="226" y="238" width="12" height="12"/>
<rect x="233" y="231" width="11" height="12"/>
<rect x="239" y="231" width="12" height="12"/>
<rect x="233" y="238" width="11" height="12"/>
<rect x="239" y="238" width="12" height="12"/>
<rect x="219" y="244" width="12" height="13"/>
<rect x="226" y="244" width="12" height="13"/>
<rect x="233" y="244" width="11" height="13"/>
<rect x="239" y="244" width="12" height="13"/>
<rect x="252" y="156" width="12" height="13"/>
<rect x="252" y="217" width="12" height="13"/>
<rect x="246" y="231" width="12" height="12"/>
<rect x="206" y="217" width="12" height="13"/>
<rect x="213" y="224" width="12" height="12"/>
<rect x="219" y="224" width="12" height="12"/>
<rect x="199" y="150" width="12" height="12"/>
<rect x="193" y="150" width="12" height="12"/>
<rect x="186" y="150" width="12" height="12"/>
<rect x="226" y="150" width="12" height="12"/>
<rect x="233" y="150" width="11" height="12"/>
<rect x="226" y="156" width="12" height="13"/>
<rect x="233" y="156" width="11" height="13"/>
<rect x="239" y="150" width="12" height="12"/>
<rect x="246" y="150" width="12" height="12"/>
<rect x="239" y="156" width="12" height="13"/>
<rect x="246" y="156" width="12" height="13"/>
<rect x="226" y="163" width="12" height="12"/>
<rect x="233" y="163" width="11" height="12"/>
<rect x="226" y="170" width="12" height="12"/>
<rect x="233" y="170" width="11" height="12"/>
<rect x="239" y="163" width="12" height="12"/>
<rect x="246" y="163" width="12" height="12"/>
<rect x="239" y="170" width="12" height="12"/>
<rect x="246" y="170" width="12" height="12"/>
<rect x="206" y="150" width="12" height="12"/>
<rect x="199" y="156" width="12" height="13"/>
<rect x="206" y="156" width="12" height="13"/>
<rect x="212" y="150" width="12" height="12"/>
<rect x="219" y="150" width="12" height="12"/>
<rect x="212" y="156" width="12" height="13"/>
<rect x="219" y="156" width="12" height="13"/>
<rect x="199" y="163" width="12" height="12"/>
<rect x="206" y="163" width="12" height="12"/>
<rect x="206" y="170" width="12" height="12"/>
<rect x="212" y="163" width="12" height="12"/>
<rect x="219" y="163" width="12" height="12"/>
<rect x="212" y="170" width="12" height="12"/>
<rect x="219" y="170" width="12" height="12"/>
<rect x="233" y="177" width="11" height="12"/>
<rect x="239" y="177" width="12" height="12"/>
<rect x="233" y="184" width="11" height="12"/>
<rect x="239" y="184" width="12" height="12"/>
<rect x="246" y="177" width="12" height="12"/>
<rect x="246" y="184" width="12" height="12"/>
<rect x="252" y="184" width="12" height="12"/>
<rect x="233" y="190" width="11" height="12"/>
<rect x="239" y="190" width="12" height="12"/>
<rect x="233" y="197" width="11" height="12"/>
<rect x="239" y="197" width="12" height="12"/>
<rect x="246" y="190" width="12" height="12"/>
<rect x="252" y="190" width="12" height="12"/>
<rect x="246" y="197" width="12" height="12"/>
<rect x="206" y="177" width="12" height="12"/>
<rect x="213" y="177" width="12" height="12"/>
<rect x="206" y="184" width="12" height="12"/>
<rect x="213" y="184" width="12" height="12"/>
<rect x="219" y="177" width="12" height="12"/>
<rect x="226" y="177" width="12" height="12"/>
<rect x="219" y="184" width="12" height="12"/>
<rect x="226" y="184" width="12" height="12"/>
<rect x="206" y="190" width="12" height="12"/>
<rect x="213" y="190" width="12" height="12"/>
<rect x="219" y="190" width="12" height="12"/>
<rect x="226" y="190" width="12" height="12"/>
<rect x="226" y="197" width="12" height="12"/>
<rect x="226" y="204" width="12" height="12"/>
<rect x="233" y="204" width="11" height="12"/>
<rect x="226" y="211" width="12" height="12"/>
<rect x="233" y="211" width="11" height="12"/>
<rect x="239" y="204" width="12" height="12"/>
<rect x="246" y="204" width="12" height="12"/>
<rect x="239" y="211" width="12" height="12"/>
<rect x="246" y="211" width="12" height="12"/>
<rect x="226" y="217" width="12" height="13"/>
<rect x="233" y="217" width="11" height="13"/>
<rect x="226" y="224" width="12" height="12"/>
<rect x="233" y="224" width="11" height="12"/>
<rect x="239" y="217" width="12" height="13"/>
<rect x="246" y="217" width="12" height="13"/>
<rect x="239" y="224" width="12" height="12"/>
<rect x="252" y="177" width="12" height="12"/>
<rect x="252" y="170" width="12" height="12"/>
<rect x="252" y="163" width="12" height="12"/>
<rect x="252" y="197" width="12" height="12"/>
<rect x="252" y="204" width="12" height="12"/>
<rect x="252" y="211" width="12" height="12"/>
<rect x="246" y="224" width="12" height="12"/>
<rect x="199" y="170" width="12" height="12"/>
<rect x="206" y="197" width="12" height="12"/>
<rect x="213" y="197" width="12" height="12"/>
<rect x="219" y="197" width="12" height="12"/>
<rect x="206" y="204" width="12" height="12"/>
<rect x="213" y="204" width="12" height="12"/>
<rect x="219" y="204" width="12" height="12"/>
<rect x="206" y="211" width="12" height="12"/>
<rect x="213" y="211" width="12" height="12"/>
<rect x="219" y="211" width="12" height="12"/>
<rect x="213" y="217" width="12" height="13"/>
<rect x="219" y="217" width="12" height="13"/>
<rect x="186" y="72" width="15" height="14"/>
<rect x="196" y="72" width="14" height="14"/>
<rect x="195" y="73" width="12" height="11"/>
<rect x="200" y="71" width="11" height="11"/>
<rect x="204" y="70" width="12" height="12"/>
<rect x="203" y="63" width="12" height="12"/>
<rect x="200" y="59" width="12" height="12"/>
<rect x="197" y="55" width="10" height="12"/>
<rect x="186" y="63" width="15" height="14"/>
<rect x="196" y="63" width="14" height="14"/>
<rect x="177" y="72" width="14" height="14"/>
<rect x="196" y="54" width="14" height="14"/>
<rect x="168" y="63" width="14" height="14"/>
<rect x="168" y="54" width="14" height="14"/>
<rect x="205" y="63" width="14" height="14"/>
<rect x="177" y="54" width="14" height="14"/>
<rect x="186" y="54" width="15" height="14"/>
<rect x="205" y="72" width="14" height="14"/>
<rect x="168" y="72" width="14" height="14"/>
<rect x="168" y="80" width="14" height="14"/>
<rect x="168" y="89" width="14" height="14"/>
<rect x="158" y="89" width="15" height="14"/>
<rect x="162" y="80" width="11" height="14"/>
<rect x="162" y="72" width="11" height="14"/>
<rect x="177" y="45" width="14" height="14"/>
<rect x="168" y="45" width="14" height="14"/>
<rect x="186" y="45" width="15" height="14"/>
</g>
</svg>