<?xml version="1.0" encoding="utf-8"?>
<svg xmlns="http://www.w3.org/2000/svg" width="300" height="300" viewBox="0 0 300 300" class="creatureMap" style="position:absolute;">
<defs>
    <filter id="blur" x="-30%" y="-30%" width="160%" height="160%">
        <feGaussianBlur stdDeviation="3" />
    </filter>
    <style>
        .spawningMap-very-common { fill: #0F0; }
        .spawningMap-common { fill: #B2FF00; }
        .spawningMap-uncommon { fill: #FF0; }
        .spawningMap-very-uncommon { fill: #FC0; }
        .spawningMap-rare { fill: #F60; }
        .spawningMap-very-rare { fill: #F00; }
        .spawning-map-point { stroke:black; stroke-width:1; }
    </style>
</defs>
<g filter="url(#blur)" opacity="0.7">
    <g class="spawningMap-very-uncommon">
        <rect x="194" y="83" width="13" height="14" />
        <rect x="202" y="83" width="12" height="14" />
        <rect x="180" y="74" width="12" height="14" />
        <rect x="187" y="74" width="13" height="14" />
        <rect x="180" y="83" width="12" height="14" />
        <rect x="187" y="83" width="13" height="14" />
        <rect x="216" y="92" width="12" height="15" />
        <rect x="209" y="92" width="12" height="15" />
        <rect x="202" y="92" width="12" height="15" />
        <rect x="202" y="74" width="12" height="14" />
        <rect x="209" y="74" width="12" height="14" />
        <rect x="209" y="65" width="12" height="14" />
        <rect x="187" y="65" width="13" height="14" />
        <rect x="194" y="55" width="13" height="15" />
        <rect x="202" y="55" width="12" height="15" />
        <rect x="194" y="65" width="13" height="14" />
        <rect x="202" y="65" width="12" height="14" />
        <rect x="194" y="74" width="13" height="14" />
        <rect x="194" y="92" width="13" height="15" />
        <rect x="209" y="83" width="12" height="14" />
        <rect x="216" y="83" width="12" height="14" />
        <rect x="209" y="55" width="12" height="15" />
    </g>
    <g class="spawningMap-rare">
        <rect x="183" y="92" width="17" height="11" />
        <rect x="183" y="92" width="17" height="11" />
        <rect x="183" y="92" width="17" height="11" />
        <rect x="183" y="92" width="17" height="11" />
        <rect x="183" y="92" width="17" height="11" />
        <rect x="183" y="92" width="17" height="11" />
    </g>
    <g class="spawningMap-common">
        <rect x="122" y="180" width="12" height="11" />
        <rect x="147" y="178" width="12" height="13" />
        <rect x="142" y="164" width="14" height="12" />
        <rect x="77" y="179" width="11" height="11" />
        <rect x="68" y="172" width="11" height="11" />
        <rect x="82" y="190" width="11" height="12" />
        <rect x="86" y="202" width="11" height="11" />
        <rect x="123" y="175" width="11" height="11" />
        <rect x="117" y="175" width="11" height="11" />
        <rect x="111" y="179" width="12" height="11" />
        <rect x="132" y="180" width="14" height="15" />
        <rect x="134" y="176" width="13" height="12" />
        <rect x="126" y="173" width="15" height="15" />
    </g>
    <g class="spawningMap-uncommon">
        <rect x="151" y="178" width="14" height="14" />
        <rect x="202" y="180" width="13" height="15" />
        <rect x="119" y="166" width="14" height="15" />
    </g></g>
</svg>