<?xml version="1.0" encoding="utf-8"?>
<svg xmlns="http://www.w3.org/2000/svg" width="300" height="300" viewBox="0 0 300 300" class="creatureMap" style="position:absolute;">
<defs>
    <filter id="blur" x="-30%" y="-30%" width="160%" height="160%">
        <feGaussianBlur stdDeviation="3" />
    </filter>
    <style>
        .spawningMap-very-common { fill: #0F0; }
        .spawningMap-common { fill: #B2FF00; }
        .spawningMap-uncommon { fill: #FF0; }
        .spawningMap-very-uncommon { fill: #FC0; }
        .spawningMap-rare { fill: #F60; }
        .spawningMap-very-rare { fill: #F00; }
        .spawning-map-point { stroke:black; stroke-width:1; }
    </style>
    <pattern id="pattern-untameable" width="10" height="10" patternTransform="rotate(135)" patternUnits="userSpaceOnUse">
        <rect width="4" height="10" fill="black"></rect>
    </pattern>
</defs>
<g filter="url(#blur)" opacity="0.7">
    <g class="spawningMap-very-common">
        <rect x="64" y="191" width="8" height="10" />
        <rect x="60" y="191" width="9" height="9" />
        <rect x="60" y="186" width="8" height="10" />
        <rect x="63" y="186" width="8" height="7" />
        <rect x="66" y="186" width="9" height="7" />
        <rect x="73" y="179" width="8" height="9" />
        <rect x="69" y="177" width="8" height="8" />
        <rect x="66" y="167" width="8" height="9" />
        <rect x="71" y="167" width="8" height="9" />
        <rect x="69" y="167" width="7" height="9" />
        <rect x="67" y="196" width="9" height="9" />
        <rect x="70" y="196" width="9" height="9" />
        <rect x="70" y="191" width="9" height="10" />
        <rect x="67" y="191" width="9" height="10" />
        <rect x="69" y="189" width="10" height="7" />
        <rect x="64" y="196" width="8" height="9" />
        <rect x="63" y="189" width="10" height="7" />
        <rect x="70" y="186" width="9" height="7" />
        <rect x="66" y="182" width="9" height="9" />
        <rect x="70" y="182" width="8" height="9" />
        <rect x="73" y="182" width="8" height="9" />
        <rect x="70" y="179" width="8" height="9" />
        <rect x="66" y="179" width="9" height="9" />
        <rect x="66" y="174" width="8" height="8" />
        <rect x="71" y="174" width="8" height="8" />
        <rect x="69" y="174" width="7" height="8" />
        <rect x="66" y="170" width="8" height="9" />
        <rect x="71" y="170" width="8" height="9" />
        <rect x="69" y="170" width="7" height="9" />
    </g></g>
<g fill="url(#pattern-untameable)" opacity="0.3">
        <rect x="64" y="191" width="8" height="10" />
        <rect x="60" y="191" width="9" height="9" />
        <rect x="60" y="186" width="8" height="10" />
        <rect x="63" y="186" width="8" height="7" />
        <rect x="66" y="186" width="9" height="7" />
        <rect x="73" y="179" width="8" height="9" />
        <rect x="69" y="177" width="8" height="8" />
        <rect x="66" y="167" width="8" height="9" />
        <rect x="71" y="167" width="8" height="9" />
        <rect x="69" y="167" width="7" height="9" />
        <rect x="67" y="196" width="9" height="9" />
        <rect x="70" y="196" width="9" height="9" />
        <rect x="70" y="191" width="9" height="10" />
        <rect x="67" y="191" width="9" height="10" />
        <rect x="69" y="189" width="10" height="7" />
        <rect x="64" y="196" width="8" height="9" />
        <rect x="63" y="189" width="10" height="7" />
        <rect x="70" y="186" width="9" height="7" />
        <rect x="66" y="182" width="9" height="9" />
        <rect x="70" y="182" width="8" height="9" />
        <rect x="73" y="182" width="8" height="9" />
        <rect x="70" y="179" width="8" height="9" />
        <rect x="66" y="179" width="9" height="9" />
        <rect x="66" y="174" width="8" height="8" />
        <rect x="71" y="174" width="8" height="8" />
        <rect x="69" y="174" width="7" height="8" />
        <rect x="66" y="170" width="8" height="9" />
        <rect x="71" y="170" width="8" height="9" />
        <rect x="69" y="170" width="7" height="9" />
</g>
</svg>