<svg xmlns="http://www.w3.org/2000/svg" width="300" height="300" viewBox="0 0 300 300" class="creatureMap" style="position:absolute;">
<defs>
<filter id="blur" x="-30%" y="-30%" width="160%" height="160%"><feGaussianBlur stdDeviation="3" />
</filter>
<pattern id="pattern-untameable" width="10" height="10" patternTransform="rotate(135)" patternUnits="userSpaceOnUse"><rect width="4" height="10" fill="black"></rect>
</pattern>
<filter id="groupStroke"><feFlood result="outsideColor" flood-color="black"/><feMorphology in="SourceAlpha" operator="dilate" radius="2"/><feComposite result="strokeoutline1" in="outsideColor" operator="in"/><feComposite result="strokeoutline2" in="strokeoutline1" in2="SourceAlpha" operator="out"/><feGaussianBlur in="strokeoutline2" result="strokeblur" stdDeviation="1"/>
</filter>
<style>
.spawningMap-very-common { fill: #0F0;}
.spawningMap-common { fill: #B2FF00;}
.spawningMap-uncommon { fill: #FF0;}
.spawningMap-very-uncommon { fill: #FC0;}
.spawningMap-rare { fill: #F60;}
.spawningMap-very-rare { fill: #F00; }.spawning-map-point {stroke:black; stroke-width:1;}
</style>
</defs>
<g filter="url(#blur)" opacity="0.7">
<g class="spawningMap-uncommon"><rect x="94" y="23" width="10" height="10" /><rect x="117" y="34" width="10" height="11" /><rect x="117" y="23" width="10" height="10" /><rect x="105" y="23" width="11" height="10" /><rect x="128" y="12" width="11" height="10" /><rect x="128" y="23" width="11" height="10" /><rect x="128" y="34" width="11" height="11" /><rect x="105" y="34" width="11" height="11" /><rect x="94" y="34" width="10" height="11" />
</g>
<g class="spawningMap-common"><rect x="147" y="117" width="6" height="6" /><rect x="115" y="84" width="7" height="10" /><rect x="117" y="46" width="10" height="7" /><rect x="139" y="34" width="7" height="6" /><rect x="125" y="127" width="11" height="11" /><rect x="87" y="223" width="11" height="10" /><rect x="110" y="223" width="11" height="10" /><rect x="98" y="212" width="11" height="10" /><rect x="98" y="200" width="11" height="11" /><rect x="98" y="189" width="11" height="10" /><rect x="98" y="223" width="11" height="10" /><rect x="87" y="212" width="11" height="10" /><rect x="87" y="200" width="11" height="11" /><rect x="87" y="189" width="11" height="10" /><rect x="167" y="223" width="10" height="10" /><rect x="94" y="46" width="10" height="7" /><rect x="155" y="223" width="11" height="10" /><rect x="144" y="67" width="6" height="7" /><rect x="137" y="70" width="6" height="8" /><rect x="130" y="75" width="6" height="7" /><rect x="123" y="80" width="6" height="7" /><rect x="144" y="223" width="11" height="10" /><rect x="130" y="97" width="6" height="7" /><rect x="137" y="102" width="7" height="9" /><rect x="144" y="109" width="7" height="7" /><rect x="123" y="94" width="6" height="7" /><rect x="115" y="98" width="7" height="7" /><rect x="108" y="88" width="6" height="9" /><rect x="108" y="98" width="6" height="7" /><rect x="100" y="90" width="7" height="7" /><rect x="93" y="89" width="7" height="7" /><rect x="86" y="95" width="6" height="7" /><rect x="83" y="103" width="6" height="7" /><rect x="80" y="111" width="7" height="7" /><rect x="73" y="117" width="7" height="7" /><rect x="132" y="223" width="11" height="10" /><rect x="76" y="223" width="10" height="10" /><rect x="64" y="223" width="11" height="10" /><rect x="110" y="234" width="11" height="11" /><rect x="105" y="46" width="11" height="7" /><rect x="139" y="12" width="7" height="10" /><rect x="139" y="23" width="7" height="10" /><rect x="132" y="212" width="11" height="10" /><rect x="132" y="200" width="11" height="11" /><rect x="121" y="212" width="11" height="10" /><rect x="98" y="234" width="11" height="11" /><rect x="87" y="236" width="11" height="11" /><rect x="76" y="234" width="10" height="11" /><rect x="64" y="234" width="11" height="11" /><rect x="110" y="246" width="11" height="10" /><rect x="98" y="246" width="11" height="10" /><rect x="87" y="246" width="11" height="10" /><rect x="121" y="200" width="11" height="11" /><rect x="76" y="246" width="10" height="10" /><rect x="121" y="189" width="11" height="10" /><rect x="121" y="178" width="11" height="10" /><rect x="76" y="212" width="10" height="10" /><rect x="76" y="200" width="10" height="11" /><rect x="76" y="189" width="10" height="10" /><rect x="64" y="212" width="11" height="10" /><rect x="201" y="200" width="10" height="11" /><rect x="190" y="200" width="10" height="11" /><rect x="178" y="200" width="11" height="11" /><rect x="201" y="189" width="10" height="10" /><rect x="190" y="189" width="10" height="10" /><rect x="178" y="189" width="11" height="10" /><rect x="167" y="212" width="10" height="10" /><rect x="167" y="200" width="10" height="11" /><rect x="110" y="257" width="11" height="10" /><rect x="98" y="257" width="11" height="10" /><rect x="87" y="257" width="11" height="10" /><rect x="110" y="268" width="11" height="11" /><rect x="98" y="268" width="11" height="11" /><rect x="121" y="234" width="11" height="11" /><rect x="121" y="246" width="11" height="10" /><rect x="121" y="257" width="11" height="10" /><rect x="132" y="246" width="11" height="10" /><rect x="189" y="254" width="10" height="10" /><rect x="189" y="265" width="10" height="11" /><rect x="189" y="276" width="10" height="11" /><rect x="177" y="265" width="11" height="11" /><rect x="173" y="238" width="11" height="10" /><rect x="173" y="248" width="11" height="11" /><rect x="201" y="223" width="10" height="10" /><rect x="190" y="223" width="10" height="10" /><rect x="201" y="212" width="10" height="10" /><rect x="190" y="212" width="10" height="10" /><rect x="178" y="212" width="11" height="10" /><rect x="234" y="208" width="11" height="11" /><rect x="245" y="208" width="11" height="11" /><rect x="245" y="219" width="11" height="11" /><rect x="245" y="231" width="11" height="10" /><rect x="245" y="242" width="11" height="11" /><rect x="245" y="253" width="11" height="11" /><rect x="245" y="265" width="11" height="10" /><rect x="257" y="265" width="10" height="10" /><rect x="245" y="276" width="11" height="11" /><rect x="234" y="276" width="11" height="11" /><rect x="234" y="287" width="11" height="11" /><rect x="223" y="287" width="10" height="11" /><rect x="211" y="287" width="11" height="11" /><rect x="200" y="287" width="11" height="11" /><rect x="200" y="276" width="11" height="11" /><rect x="178" y="223" width="11" height="10" /><rect x="200" y="265" width="11" height="10" /><rect x="211" y="265" width="11" height="10" /><rect x="223" y="265" width="10" height="10" /><rect x="110" y="212" width="11" height="10" /><rect x="223" y="253" width="10" height="11" /><rect x="223" y="242" width="10" height="11" /><rect x="234" y="242" width="11" height="11" /><rect x="234" y="231" width="11" height="10" /><rect x="234" y="219" width="11" height="11" /><rect x="223" y="219" width="10" height="11" /><rect x="223" y="231" width="10" height="10" /><rect x="200" y="242" width="10" height="11" /><rect x="200" y="254" width="10" height="10" /><rect x="110" y="200" width="11" height="11" /><rect x="211" y="254" width="11" height="10" /><rect x="167" y="189" width="10" height="10" /><rect x="155" y="212" width="11" height="10" /><rect x="155" y="200" width="11" height="11" /><rect x="155" y="189" width="11" height="10" /><rect x="144" y="200" width="11" height="11" /><rect x="144" y="189" width="11" height="10" /><rect x="132" y="189" width="11" height="10" /><rect x="132" y="178" width="11" height="10" /><rect x="212" y="189" width="11" height="7" /><rect x="223" y="185" width="10" height="11" /><rect x="234" y="197" width="11" height="10" /><rect x="144" y="212" width="11" height="10" /><rect x="140" y="205" width="11" height="11" /><rect x="152" y="205" width="10" height="11" /><rect x="114" y="123" width="11" height="11" /><rect x="114" y="134" width="11" height="11" /><rect x="125" y="138" width="11" height="11" /><rect x="110" y="189" width="11" height="10" /><rect x="110" y="178" width="11" height="10" />
</g>
<g class="spawningMap-very-common"><rect x="73" y="250" width="2" height="2" /><rect x="184" y="276" width="4" height="4" /><rect x="212" y="216" width="11" height="6" /><rect x="229" y="208" width="4" height="11" /><rect x="257" y="249" width="6" height="11" /><rect x="223" y="213" width="5" height="6" /><rect x="257" y="249" width="6" height="11" /><rect x="212" y="197" width="5" height="10" /><rect x="230" y="197" width="3" height="10" /><rect x="212" y="208" width="5" height="7" />
</g>
</g>
<g class="spawning-map-point" opacity="0.8">
</g>
</svg>