<svg xmlns="http://www.w3.org/2000/svg" width="300" height="300" viewBox="0 0 300 300" class="creatureMap" style="position:absolute;">
<defs>
<filter id="blur" x="-30%" y="-30%" width="160%" height="160%"><feGaussianBlur stdDeviation="3" />
</filter>
<pattern id="pattern-untameable" width="10" height="10" patternTransform="rotate(135)" patternUnits="userSpaceOnUse"><rect width="4" height="10" fill="black"></rect>
</pattern>
<filter id="groupStroke"><feFlood result="outsideColor" flood-color="black"/><feMorphology in="SourceAlpha" operator="dilate" radius="2"/><feComposite result="strokeoutline1" in="outsideColor" operator="in"/><feComposite result="strokeoutline2" in="strokeoutline1" in2="SourceAlpha" operator="out"/><feGaussianBlur in="strokeoutline2" result="strokeblur" stdDeviation="1"/>
</filter>
<style>
.spawningMap-very-common { fill: #0F0;}
.spawningMap-common { fill: #B2FF00;}
.spawningMap-uncommon { fill: #FF0;}
.spawningMap-very-uncommon { fill: #FC0;}
.spawningMap-rare { fill: #F60;}
.spawningMap-very-rare { fill: #F00; }.spawning-map-point {stroke:black; stroke-width:1;}
</style>
</defs>
<g filter="url(#blur)" opacity="0.7">
<g class="spawningMap-rare"><rect x="79" y="286" width="110" height="14" /><rect x="202" y="286" width="98" height="14" /><rect x="0" y="186" width="13" height="102" /><rect x="286" y="186" width="14" height="102" /><rect x="79" y="1" width="110" height="14" /><rect x="202" y="1" width="98" height="14" />
</g>
<g class="spawningMap-very-uncommon"><rect x="0" y="286" width="67" height="14" /><rect x="0" y="89" width="13" height="87" /><rect x="0" y="0" width="13" height="80" /><rect x="286" y="89" width="14" height="87" /><rect x="286" y="0" width="14" height="80" /><rect x="5" y="1" width="64" height="14" />
</g>
<g class="spawningMap-uncommon"><rect x="248" y="134" width="23" height="16" />
</g>
<g class="spawningMap-very-common"><rect x="60" y="77" width="1" height="3" /><rect x="73" y="66" width="6" height="7" /><rect x="62" y="79" width="5" height="2" /><rect x="68" y="75" width="3" height="4" /><rect x="69" y="69" width="6" height="5" /><rect x="79" y="67" width="7" height="7" /><rect x="262" y="137" width="9" height="9" /><rect x="263" y="132" width="14" height="7" /><rect x="62" y="79" width="5" height="2" /><rect x="68" y="75" width="3" height="4" /><rect x="60" y="77" width="1" height="3" /><rect x="69" y="69" width="6" height="5" /><rect x="79" y="67" width="7" height="7" /><rect x="73" y="66" width="6" height="7" />
</g>
</g>
<g class="spawning-map-point" opacity="0.8">
</g>
<g fill="url(#pattern-untameable)" opacity="0.3"><rect x="248" y="134" width="23" height="16"/><rect x="60" y="77" width="1" height="3"/><rect x="73" y="66" width="6" height="7"/><rect x="62" y="79" width="5" height="2"/><rect x="68" y="75" width="3" height="4"/><rect x="69" y="69" width="6" height="5"/><rect x="79" y="67" width="7" height="7"/><rect x="262" y="137" width="9" height="9"/><rect x="263" y="132" width="14" height="7"/><rect x="62" y="79" width="5" height="2"/><rect x="68" y="75" width="3" height="4"/><rect x="60" y="77" width="1" height="3"/><rect x="69" y="69" width="6" height="5"/><rect x="79" y="67" width="7" height="7"/><rect x="73" y="66" width="6" height="7"/>
</g>
<g filter="url(#groupStroke)" opacity="0.8"><rect x="248" y="134" width="23" height="16"/><rect x="60" y="77" width="1" height="3"/><rect x="73" y="66" width="6" height="7"/><rect x="62" y="79" width="5" height="2"/><rect x="68" y="75" width="3" height="4"/><rect x="69" y="69" width="6" height="5"/><rect x="79" y="67" width="7" height="7"/><rect x="262" y="137" width="9" height="9"/><rect x="263" y="132" width="14" height="7"/><rect x="62" y="79" width="5" height="2"/><rect x="68" y="75" width="3" height="4"/><rect x="60" y="77" width="1" height="3"/><rect x="69" y="69" width="6" height="5"/><rect x="79" y="67" width="7" height="7"/><rect x="73" y="66" width="6" height="7"/>
</g>
</svg>