<?xml version="1.0" encoding="utf-8"?>
<svg xmlns="http://www.w3.org/2000/svg" width="300" height="300" viewBox="0 0 300 300" class="creatureMap" style="position:absolute;">
<defs>
    <filter id="blur" x="-30%" y="-30%" width="160%" height="160%">
        <feGaussianBlur stdDeviation="3" />
    </filter>
    <style>
        .spawningMap-very-common { fill: #0F0; }
        .spawningMap-common { fill: #B2FF00; }
        .spawningMap-uncommon { fill: #FF0; }
        .spawningMap-very-uncommon { fill: #FC0; }
        .spawningMap-rare { fill: #F60; }
        .spawningMap-very-rare { fill: #F00; }
        .spawning-map-point { stroke:black; stroke-width:1; }
    </style>
</defs>
<g filter="url(#blur)" opacity="0.7">
    <g class="spawningMap-common">
        <rect x="177" y="152" width="13" height="12" />
        <rect x="185" y="152" width="12" height="12" />
        <rect x="249" y="152" width="12" height="12" />
        <rect x="170" y="250" width="13" height="13" />
        <rect x="213" y="250" width="13" height="13" />
        <rect x="220" y="250" width="13" height="13" />
        <rect x="227" y="250" width="13" height="13" />
        <rect x="235" y="250" width="12" height="13" />
        <rect x="242" y="250" width="12" height="13" />
        <rect x="249" y="250" width="12" height="13" />
        <rect x="256" y="250" width="12" height="13" />
        <rect x="263" y="250" width="13" height="13" />
        <rect x="270" y="250" width="13" height="13" />
        <rect x="277" y="250" width="13" height="13" />
        <rect x="285" y="250" width="12" height="13" />
        <rect x="292" y="250" width="8" height="13" />
        <rect x="170" y="243" width="13" height="13" />
        <rect x="213" y="243" width="13" height="13" />
        <rect x="242" y="243" width="12" height="13" />
        <rect x="249" y="243" width="12" height="13" />
        <rect x="256" y="243" width="12" height="13" />
        <rect x="170" y="236" width="13" height="13" />
        <rect x="199" y="236" width="12" height="13" />
        <rect x="206" y="236" width="13" height="13" />
        <rect x="213" y="236" width="13" height="13" />
        <rect x="242" y="236" width="12" height="13" />
        <rect x="249" y="236" width="12" height="13" />
        <rect x="256" y="236" width="12" height="13" />
        <rect x="263" y="236" width="13" height="13" />
        <rect x="270" y="236" width="13" height="13" />
        <rect x="170" y="229" width="13" height="13" />
        <rect x="185" y="229" width="12" height="13" />
        <rect x="192" y="229" width="12" height="13" />
        <rect x="213" y="229" width="13" height="13" />
        <rect x="220" y="229" width="13" height="13" />
        <rect x="256" y="229" width="12" height="13" />
        <rect x="263" y="229" width="13" height="13" />
        <rect x="270" y="229" width="13" height="13" />
        <rect x="185" y="222" width="12" height="13" />
        <rect x="206" y="222" width="13" height="13" />
        <rect x="213" y="222" width="13" height="13" />
        <rect x="220" y="222" width="13" height="13" />
        <rect x="249" y="222" width="12" height="13" />
        <rect x="256" y="222" width="12" height="13" />
        <rect x="185" y="215" width="12" height="13" />
        <rect x="206" y="215" width="13" height="13" />
        <rect x="227" y="215" width="13" height="13" />
        <rect x="249" y="215" width="12" height="13" />
        <rect x="185" y="208" width="12" height="13" />
        <rect x="192" y="208" width="12" height="13" />
        <rect x="199" y="208" width="12" height="13" />
        <rect x="213" y="208" width="13" height="13" />
        <rect x="220" y="208" width="13" height="13" />
        <rect x="192" y="201" width="12" height="13" />
        <rect x="213" y="201" width="13" height="13" />
        <rect x="220" y="201" width="13" height="13" />
        <rect x="263" y="201" width="13" height="13" />
        <rect x="270" y="201" width="13" height="13" />
        <rect x="277" y="201" width="13" height="13" />
        <rect x="170" y="194" width="13" height="12" />
        <rect x="177" y="194" width="13" height="12" />
        <rect x="192" y="194" width="12" height="12" />
        <rect x="199" y="194" width="12" height="12" />
        <rect x="206" y="194" width="13" height="12" />
        <rect x="213" y="194" width="13" height="12" />
        <rect x="277" y="194" width="13" height="12" />
        <rect x="170" y="187" width="13" height="12" />
        <rect x="177" y="187" width="13" height="12" />
        <rect x="192" y="187" width="12" height="12" />
        <rect x="199" y="187" width="12" height="12" />
        <rect x="206" y="187" width="13" height="12" />
        <rect x="277" y="187" width="13" height="12" />
        <rect x="263" y="180" width="13" height="12" />
        <rect x="263" y="173" width="13" height="12" />
        <rect x="270" y="173" width="13" height="12" />
        <rect x="185" y="166" width="12" height="12" />
        <rect x="192" y="166" width="12" height="12" />
        <rect x="199" y="166" width="12" height="12" />
        <rect x="206" y="166" width="13" height="12" />
        <rect x="227" y="166" width="13" height="12" />
        <rect x="235" y="166" width="12" height="12" />
        <rect x="242" y="166" width="12" height="12" />
        <rect x="263" y="166" width="13" height="12" />
        <rect x="270" y="166" width="13" height="12" />
        <rect x="185" y="159" width="12" height="12" />
        <rect x="170" y="257" width="13" height="13" />
        <rect x="177" y="257" width="13" height="13" />
        <rect x="235" y="257" width="12" height="13" />
        <rect x="292" y="257" width="8" height="13" />
        <rect x="0" y="28" width="1" height="12" />
        <rect x="0" y="28" width="8" height="12" />
        <rect x="3" y="28" width="13" height="12" />
        <rect x="10" y="28" width="13" height="12" />
        <rect x="17" y="28" width="13" height="12" />
        <rect x="60" y="28" width="13" height="12" />
        <rect x="67" y="28" width="13" height="12" />
        <rect x="74" y="28" width="13" height="12" />
        <rect x="82" y="28" width="12" height="12" />
        <rect x="110" y="28" width="13" height="12" />
        <rect x="0" y="35" width="1" height="12" />
        <rect x="0" y="35" width="8" height="12" />
        <rect x="3" y="35" width="13" height="12" />
        <rect x="10" y="35" width="13" height="12" />
        <rect x="17" y="35" width="13" height="12" />
        <rect x="67" y="35" width="13" height="12" />
        <rect x="74" y="35" width="13" height="12" />
        <rect x="82" y="35" width="12" height="12" />
        <rect x="110" y="35" width="13" height="12" />
        <rect x="0" y="42" width="1" height="12" />
        <rect x="10" y="42" width="13" height="12" />
        <rect x="17" y="42" width="13" height="12" />
        <rect x="110" y="42" width="13" height="12" />
        <rect x="0" y="49" width="1" height="12" />
        <rect x="82" y="49" width="12" height="12" />
        <rect x="0" y="56" width="1" height="12" />
    </g>
    <g class="spawningMap-very-common">
        <rect x="299" y="152" width="1" height="12" />
        <rect x="220" y="56" width="13" height="12" />
        <rect x="0" y="190" width="1" height="12" />
        <rect x="0" y="190" width="8" height="12" />
        <rect x="3" y="190" width="13" height="12" />
        <rect x="103" y="190" width="13" height="12" />
        <rect x="110" y="190" width="13" height="12" />
        <rect x="117" y="190" width="10" height="12" />
        <rect x="0" y="197" width="1" height="12" />
        <rect x="0" y="197" width="8" height="12" />
        <rect x="3" y="197" width="13" height="12" />
        <rect x="103" y="197" width="13" height="12" />
        <rect x="110" y="197" width="13" height="12" />
        <rect x="117" y="197" width="10" height="12" />
        <rect x="0" y="204" width="1" height="12" />
        <rect x="0" y="204" width="8" height="12" />
        <rect x="3" y="204" width="13" height="12" />
        <rect x="96" y="204" width="12" height="12" />
        <rect x="103" y="204" width="13" height="12" />
        <rect x="110" y="204" width="13" height="12" />
        <rect x="117" y="204" width="10" height="12" />
        <rect x="0" y="211" width="1" height="12" />
        <rect x="0" y="211" width="8" height="12" />
        <rect x="3" y="211" width="13" height="12" />
        <rect x="263" y="56" width="13" height="12" />
        <rect x="10" y="211" width="13" height="12" />
        <rect x="270" y="56" width="13" height="12" />
        <rect x="82" y="211" width="12" height="12" />
        <rect x="89" y="211" width="12" height="12" />
        <rect x="96" y="211" width="12" height="12" />
        <rect x="103" y="211" width="13" height="12" />
        <rect x="110" y="211" width="13" height="12" />
        <rect x="117" y="211" width="10" height="12" />
        <rect x="0" y="218" width="1" height="12" />
        <rect x="0" y="218" width="8" height="12" />
        <rect x="3" y="218" width="13" height="12" />
        <rect x="89" y="218" width="12" height="12" />
        <rect x="96" y="218" width="12" height="12" />
        <rect x="103" y="218" width="13" height="12" />
        <rect x="110" y="218" width="13" height="12" />
        <rect x="117" y="218" width="10" height="12" />
        <rect x="0" y="225" width="1" height="12" />
        <rect x="0" y="225" width="8" height="12" />
        <rect x="53" y="225" width="13" height="12" />
        <rect x="60" y="225" width="13" height="12" />
        <rect x="103" y="225" width="13" height="12" />
        <rect x="110" y="225" width="13" height="12" />
        <rect x="117" y="225" width="10" height="12" />
        <rect x="0" y="232" width="1" height="12" />
        <rect x="170" y="63" width="13" height="12" />
        <rect x="46" y="232" width="12" height="12" />
        <rect x="53" y="232" width="13" height="12" />
        <rect x="60" y="232" width="13" height="12" />
        <rect x="89" y="232" width="12" height="12" />
        <rect x="177" y="63" width="13" height="12" />
        <rect x="103" y="232" width="13" height="12" />
        <rect x="110" y="232" width="13" height="12" />
        <rect x="117" y="232" width="10" height="12" />
        <rect x="0" y="239" width="1" height="12" />
        <rect x="0" y="239" width="8" height="12" />
        <rect x="17" y="239" width="13" height="12" />
        <rect x="24" y="239" width="13" height="12" />
        <rect x="32" y="239" width="12" height="12" />
        <rect x="185" y="63" width="12" height="12" />
        <rect x="46" y="239" width="12" height="12" />
        <rect x="53" y="239" width="13" height="12" />
        <rect x="60" y="239" width="13" height="12" />
        <rect x="67" y="239" width="13" height="12" />
        <rect x="89" y="239" width="12" height="12" />
        <rect x="192" y="63" width="12" height="12" />
        <rect x="110" y="239" width="13" height="12" />
        <rect x="117" y="239" width="10" height="12" />
        <rect x="0" y="246" width="1" height="12" />
        <rect x="0" y="246" width="8" height="12" />
        <rect x="17" y="246" width="13" height="12" />
        <rect x="24" y="246" width="13" height="12" />
        <rect x="32" y="246" width="12" height="12" />
        <rect x="46" y="246" width="12" height="12" />
        <rect x="53" y="246" width="13" height="12" />
        <rect x="60" y="246" width="13" height="12" />
        <rect x="67" y="246" width="13" height="12" />
        <rect x="89" y="246" width="12" height="12" />
        <rect x="110" y="246" width="13" height="12" />
        <rect x="117" y="246" width="10" height="12" />
        <rect x="17" y="253" width="13" height="12" />
        <rect x="24" y="253" width="13" height="12" />
        <rect x="32" y="253" width="12" height="12" />
        <rect x="213" y="63" width="13" height="12" />
        <rect x="67" y="253" width="13" height="12" />
        <rect x="74" y="253" width="13" height="12" />
        <rect x="82" y="253" width="12" height="12" />
        <rect x="89" y="253" width="12" height="12" />
        <rect x="96" y="253" width="12" height="12" />
        <rect x="220" y="63" width="13" height="12" />
        <rect x="117" y="253" width="10" height="12" />
        <rect x="103" y="260" width="13" height="10" />
        <rect x="96" y="260" width="12" height="10" />
        <rect x="89" y="260" width="12" height="10" />
        <rect x="82" y="260" width="12" height="10" />
        <rect x="75" y="260" width="12" height="10" />
        <rect x="67" y="260" width="13" height="10" />
        <rect x="32" y="260" width="12" height="10" />
        <rect x="25" y="260" width="12" height="10" />
        <rect x="17" y="260" width="13" height="10" />
        <rect x="242" y="63" width="12" height="12" />
        <rect x="249" y="63" width="12" height="12" />
        <rect x="277" y="63" width="13" height="12" />
        <rect x="285" y="63" width="12" height="12" />
        <rect x="170" y="70" width="13" height="12" />
        <rect x="177" y="70" width="13" height="12" />
        <rect x="185" y="70" width="12" height="12" />
        <rect x="192" y="70" width="12" height="12" />
        <rect x="213" y="70" width="13" height="12" />
        <rect x="220" y="70" width="13" height="12" />
        <rect x="242" y="70" width="12" height="12" />
        <rect x="249" y="70" width="12" height="12" />
        <rect x="256" y="70" width="12" height="12" />
        <rect x="263" y="70" width="13" height="12" />
        <rect x="270" y="70" width="13" height="12" />
        <rect x="285" y="70" width="12" height="12" />
        <rect x="292" y="70" width="8" height="12" />
        <rect x="170" y="77" width="13" height="12" />
        <rect x="177" y="77" width="13" height="12" />
        <rect x="185" y="77" width="12" height="12" />
        <rect x="199" y="77" width="12" height="12" />
        <rect x="206" y="77" width="13" height="12" />
        <rect x="213" y="77" width="13" height="12" />
        <rect x="220" y="77" width="13" height="12" />
        <rect x="242" y="77" width="12" height="12" />
        <rect x="249" y="77" width="12" height="12" />
        <rect x="256" y="77" width="12" height="12" />
        <rect x="263" y="77" width="13" height="12" />
        <rect x="270" y="77" width="13" height="12" />
        <rect x="285" y="77" width="12" height="12" />
        <rect x="170" y="84" width="13" height="12" />
        <rect x="177" y="84" width="13" height="12" />
        <rect x="185" y="84" width="12" height="12" />
        <rect x="199" y="84" width="12" height="12" />
        <rect x="206" y="84" width="13" height="12" />
        <rect x="213" y="84" width="13" height="12" />
        <rect x="220" y="84" width="13" height="12" />
        <rect x="170" y="28" width="13" height="12" />
        <rect x="242" y="84" width="12" height="12" />
        <rect x="249" y="84" width="12" height="12" />
        <rect x="256" y="84" width="12" height="12" />
        <rect x="263" y="84" width="13" height="12" />
        <rect x="170" y="91" width="13" height="12" />
        <rect x="177" y="28" width="13" height="12" />
        <rect x="177" y="91" width="13" height="12" />
        <rect x="185" y="91" width="12" height="12" />
        <rect x="220" y="91" width="13" height="12" />
        <rect x="227" y="91" width="13" height="12" />
        <rect x="235" y="91" width="12" height="12" />
        <rect x="185" y="28" width="12" height="12" />
        <rect x="256" y="91" width="12" height="12" />
        <rect x="263" y="91" width="13" height="12" />
        <rect x="170" y="98" width="13" height="12" />
        <rect x="192" y="28" width="12" height="12" />
        <rect x="235" y="98" width="12" height="12" />
        <rect x="199" y="28" width="12" height="12" />
        <rect x="256" y="98" width="12" height="12" />
        <rect x="277" y="98" width="13" height="12" />
        <rect x="206" y="28" width="13" height="12" />
        <rect x="213" y="28" width="13" height="12" />
        <rect x="299" y="105" width="1" height="13" />
        <rect x="227" y="28" width="13" height="12" />
        <rect x="235" y="28" width="12" height="12" />
        <rect x="242" y="28" width="12" height="12" />
        <rect x="249" y="28" width="12" height="12" />
        <rect x="256" y="28" width="12" height="12" />
        <rect x="263" y="28" width="13" height="12" />
        <rect x="270" y="28" width="13" height="12" />
        <rect x="177" y="250" width="13" height="13" />
        <rect x="185" y="250" width="12" height="13" />
        <rect x="192" y="250" width="12" height="13" />
        <rect x="199" y="250" width="12" height="13" />
        <rect x="206" y="250" width="13" height="13" />
        <rect x="277" y="28" width="13" height="12" />
        <rect x="285" y="28" width="12" height="12" />
        <rect x="299" y="250" width="1" height="13" />
        <rect x="177" y="243" width="13" height="13" />
        <rect x="192" y="243" width="12" height="13" />
        <rect x="199" y="243" width="12" height="13" />
        <rect x="206" y="243" width="13" height="13" />
        <rect x="263" y="243" width="13" height="13" />
        <rect x="270" y="243" width="13" height="13" />
        <rect x="299" y="243" width="1" height="13" />
        <rect x="299" y="28" width="1" height="12" />
        <rect x="220" y="236" width="13" height="13" />
        <rect x="170" y="35" width="13" height="12" />
        <rect x="299" y="236" width="1" height="13" />
        <rect x="177" y="35" width="13" height="12" />
        <rect x="199" y="229" width="12" height="13" />
        <rect x="206" y="229" width="13" height="13" />
        <rect x="242" y="229" width="12" height="13" />
        <rect x="185" y="35" width="12" height="12" />
        <rect x="249" y="229" width="12" height="13" />
        <rect x="277" y="229" width="13" height="13" />
        <rect x="285" y="229" width="12" height="13" />
        <rect x="299" y="229" width="1" height="13" />
        <rect x="177" y="222" width="13" height="13" />
        <rect x="192" y="35" width="12" height="12" />
        <rect x="192" y="222" width="12" height="13" />
        <rect x="199" y="222" width="12" height="13" />
        <rect x="227" y="222" width="13" height="13" />
        <rect x="235" y="222" width="12" height="13" />
        <rect x="242" y="222" width="12" height="13" />
        <rect x="199" y="35" width="12" height="12" />
        <rect x="263" y="222" width="13" height="13" />
        <rect x="270" y="222" width="13" height="13" />
        <rect x="277" y="222" width="13" height="13" />
        <rect x="285" y="222" width="12" height="13" />
        <rect x="299" y="222" width="1" height="13" />
        <rect x="206" y="35" width="13" height="12" />
        <rect x="192" y="215" width="12" height="13" />
        <rect x="199" y="215" width="12" height="13" />
        <rect x="213" y="215" width="13" height="13" />
        <rect x="220" y="215" width="13" height="13" />
        <rect x="256" y="215" width="12" height="13" />
        <rect x="213" y="35" width="13" height="12" />
        <rect x="263" y="215" width="13" height="13" />
        <rect x="270" y="215" width="13" height="13" />
        <rect x="277" y="215" width="13" height="13" />
        <rect x="299" y="215" width="1" height="13" />
        <rect x="170" y="208" width="13" height="13" />
        <rect x="220" y="35" width="13" height="12" />
        <rect x="206" y="208" width="13" height="13" />
        <rect x="263" y="208" width="13" height="13" />
        <rect x="227" y="35" width="13" height="12" />
        <rect x="270" y="208" width="13" height="13" />
        <rect x="277" y="208" width="13" height="13" />
        <rect x="299" y="208" width="1" height="13" />
        <rect x="170" y="201" width="13" height="13" />
        <rect x="199" y="201" width="12" height="13" />
        <rect x="235" y="35" width="12" height="12" />
        <rect x="206" y="201" width="13" height="13" />
        <rect x="242" y="201" width="12" height="13" />
        <rect x="249" y="201" width="12" height="13" />
        <rect x="242" y="35" width="12" height="12" />
        <rect x="285" y="201" width="12" height="13" />
        <rect x="292" y="201" width="8" height="13" />
        <rect x="299" y="201" width="1" height="13" />
        <rect x="249" y="35" width="12" height="12" />
        <rect x="242" y="194" width="12" height="12" />
        <rect x="249" y="194" width="12" height="12" />
        <rect x="270" y="194" width="13" height="12" />
        <rect x="256" y="35" width="12" height="12" />
        <rect x="299" y="194" width="1" height="12" />
        <rect x="213" y="187" width="13" height="12" />
        <rect x="263" y="35" width="13" height="12" />
        <rect x="242" y="187" width="12" height="12" />
        <rect x="249" y="187" width="12" height="12" />
        <rect x="256" y="187" width="12" height="12" />
        <rect x="270" y="187" width="13" height="12" />
        <rect x="285" y="187" width="12" height="12" />
        <rect x="270" y="35" width="13" height="12" />
        <rect x="299" y="187" width="1" height="12" />
        <rect x="170" y="180" width="13" height="12" />
        <rect x="185" y="180" width="12" height="12" />
        <rect x="192" y="180" width="12" height="12" />
        <rect x="199" y="180" width="12" height="12" />
        <rect x="206" y="180" width="13" height="12" />
        <rect x="277" y="35" width="13" height="12" />
        <rect x="235" y="180" width="12" height="12" />
        <rect x="249" y="180" width="12" height="12" />
        <rect x="270" y="180" width="13" height="12" />
        <rect x="277" y="180" width="13" height="12" />
        <rect x="285" y="35" width="12" height="12" />
        <rect x="299" y="180" width="1" height="12" />
        <rect x="170" y="173" width="13" height="12" />
        <rect x="185" y="173" width="12" height="12" />
        <rect x="192" y="173" width="12" height="12" />
        <rect x="199" y="173" width="12" height="12" />
        <rect x="206" y="173" width="13" height="12" />
        <rect x="292" y="35" width="8" height="12" />
        <rect x="235" y="173" width="12" height="12" />
        <rect x="292" y="173" width="8" height="12" />
        <rect x="299" y="173" width="1" height="12" />
        <rect x="299" y="35" width="1" height="12" />
        <rect x="170" y="166" width="13" height="12" />
        <rect x="170" y="42" width="13" height="12" />
        <rect x="277" y="166" width="13" height="12" />
        <rect x="285" y="166" width="12" height="12" />
        <rect x="292" y="166" width="8" height="12" />
        <rect x="299" y="166" width="1" height="12" />
        <rect x="177" y="42" width="13" height="12" />
        <rect x="185" y="42" width="12" height="12" />
        <rect x="299" y="159" width="1" height="12" />
        <rect x="192" y="42" width="12" height="12" />
        <rect x="185" y="257" width="12" height="13" />
        <rect x="192" y="257" width="12" height="13" />
        <rect x="199" y="257" width="12" height="13" />
        <rect x="206" y="257" width="13" height="13" />
        <rect x="213" y="257" width="13" height="13" />
        <rect x="220" y="257" width="13" height="13" />
        <rect x="227" y="257" width="13" height="13" />
        <rect x="242" y="257" width="12" height="13" />
        <rect x="249" y="257" width="12" height="13" />
        <rect x="199" y="42" width="12" height="12" />
        <rect x="263" y="257" width="13" height="13" />
        <rect x="270" y="257" width="13" height="13" />
        <rect x="277" y="257" width="13" height="13" />
        <rect x="285" y="257" width="12" height="13" />
        <rect x="299" y="257" width="1" height="13" />
        <rect x="206" y="42" width="13" height="12" />
        <rect x="117" y="28" width="10" height="12" />
        <rect x="227" y="42" width="13" height="12" />
        <rect x="117" y="35" width="10" height="12" />
        <rect x="292" y="28" width="8" height="12" />
        <rect x="117" y="42" width="10" height="12" />
        <rect x="249" y="42" width="12" height="12" />
        <rect x="256" y="42" width="12" height="12" />
        <rect x="263" y="42" width="13" height="12" />
        <rect x="270" y="42" width="13" height="12" />
        <rect x="110" y="56" width="13" height="12" />
        <rect x="117" y="56" width="10" height="12" />
        <rect x="0" y="63" width="1" height="12" />
        <rect x="10" y="63" width="13" height="12" />
        <rect x="32" y="63" width="12" height="12" />
        <rect x="277" y="42" width="13" height="12" />
        <rect x="103" y="63" width="13" height="12" />
        <rect x="110" y="63" width="13" height="12" />
        <rect x="285" y="42" width="12" height="12" />
        <rect x="117" y="63" width="10" height="12" />
        <rect x="0" y="70" width="1" height="12" />
        <rect x="0" y="70" width="8" height="12" />
        <rect x="10" y="70" width="13" height="12" />
        <rect x="32" y="70" width="12" height="12" />
        <rect x="39" y="70" width="12" height="12" />
        <rect x="292" y="42" width="8" height="12" />
        <rect x="53" y="70" width="13" height="12" />
        <rect x="60" y="70" width="13" height="12" />
        <rect x="103" y="70" width="13" height="12" />
        <rect x="110" y="70" width="13" height="12" />
        <rect x="117" y="70" width="10" height="12" />
        <rect x="299" y="42" width="1" height="12" />
        <rect x="0" y="77" width="1" height="12" />
        <rect x="0" y="77" width="8" height="12" />
        <rect x="10" y="77" width="13" height="12" />
        <rect x="32" y="77" width="12" height="12" />
        <rect x="39" y="77" width="12" height="12" />
        <rect x="46" y="77" width="12" height="12" />
        <rect x="53" y="77" width="13" height="12" />
        <rect x="60" y="77" width="13" height="12" />
        <rect x="103" y="77" width="13" height="12" />
        <rect x="110" y="77" width="13" height="12" />
        <rect x="117" y="77" width="10" height="12" />
        <rect x="0" y="84" width="1" height="12" />
        <rect x="0" y="84" width="8" height="12" />
        <rect x="3" y="84" width="13" height="12" />
        <rect x="10" y="84" width="13" height="12" />
        <rect x="39" y="84" width="12" height="12" />
        <rect x="46" y="84" width="12" height="12" />
        <rect x="53" y="84" width="13" height="12" />
        <rect x="103" y="84" width="13" height="12" />
        <rect x="110" y="84" width="13" height="12" />
        <rect x="117" y="84" width="10" height="12" />
        <rect x="0" y="91" width="1" height="12" />
        <rect x="0" y="91" width="8" height="12" />
        <rect x="46" y="91" width="12" height="12" />
        <rect x="199" y="49" width="12" height="12" />
        <rect x="103" y="91" width="13" height="12" />
        <rect x="110" y="91" width="13" height="12" />
        <rect x="117" y="91" width="10" height="12" />
        <rect x="0" y="98" width="1" height="13" />
        <rect x="0" y="98" width="8" height="13" />
        <rect x="206" y="49" width="13" height="12" />
        <rect x="0" y="105" width="1" height="13" />
        <rect x="110" y="105" width="13" height="13" />
        <rect x="117" y="105" width="10" height="13" />
        <rect x="242" y="49" width="12" height="12" />
        <rect x="110" y="112" width="13" height="13" />
        <rect x="117" y="112" width="10" height="13" />
        <rect x="249" y="49" width="12" height="12" />
        <rect x="256" y="49" width="12" height="12" />
        <rect x="256" y="257" width="12" height="13" />
        <rect x="220" y="28" width="13" height="12" />
        <rect x="263" y="49" width="13" height="12" />
        <rect x="270" y="49" width="13" height="12" />
        <rect x="170" y="56" width="13" height="12" />
        <rect x="177" y="56" width="13" height="12" />
        <rect x="185" y="56" width="12" height="12" />
        <rect x="192" y="56" width="12" height="12" />
        <rect x="199" y="56" width="12" height="12" />
        <rect x="3" y="183" width="13" height="12" />
    </g></g>
</svg>