<svg xmlns="http://www.w3.org/2000/svg" width="300" height="300" viewBox="0 0 300 300" class="creatureMap" style="position:absolute;">
<defs>
<filter id="blur" x="-30%" y="-30%" width="160%" height="160%"><feGaussianBlur stdDeviation="3" />
</filter>
<pattern id="pattern-untameable" width="10" height="10" patternTransform="rotate(135)" patternUnits="userSpaceOnUse"><rect width="4" height="10" fill="black"></rect>
</pattern>
<filter id="groupStroke"><feFlood result="outsideColor" flood-color="black"/><feMorphology in="SourceAlpha" operator="dilate" radius="2"/><feComposite result="strokeoutline1" in="outsideColor" operator="in"/><feComposite result="strokeoutline2" in="strokeoutline1" in2="SourceAlpha" operator="out"/><feGaussianBlur in="strokeoutline2" result="strokeblur" stdDeviation="1"/>
</filter>
<style>
.spawningMap-very-common { fill: #0F0;}
.spawningMap-common { fill: #B2FF00;}
.spawningMap-uncommon { fill: #FF0;}
.spawningMap-very-uncommon { fill: #FC0;}
.spawningMap-rare { fill: #F60;}
.spawningMap-very-rare { fill: #F00; }.spawning-map-point {stroke:black; stroke-width:1;}
</style>
</defs>
<g filter="url(#blur)" opacity="0.7">
<g class="spawningMap-rare"><rect x="27" y="79" width="12" height="11" /><rect x="40" y="28" width="12" height="11" /><rect x="53" y="28" width="12" height="11" /><rect x="53" y="40" width="12" height="12" /><rect x="40" y="40" width="12" height="12" /><rect x="40" y="53" width="12" height="11" /><rect x="53" y="53" width="12" height="11" /><rect x="53" y="66" width="12" height="11" /><rect x="40" y="66" width="12" height="11" /><rect x="40" y="79" width="12" height="11" /><rect x="53" y="79" width="12" height="11" /><rect x="53" y="91" width="12" height="12" /><rect x="92" y="28" width="12" height="11" /><rect x="40" y="91" width="12" height="12" /><rect x="66" y="28" width="12" height="11" /><rect x="79" y="28" width="12" height="11" /><rect x="79" y="40" width="12" height="12" /><rect x="66" y="40" width="12" height="12" /><rect x="66" y="53" width="12" height="11" /><rect x="79" y="53" width="12" height="11" /><rect x="79" y="66" width="12" height="11" /><rect x="66" y="66" width="12" height="11" /><rect x="66" y="79" width="12" height="11" /><rect x="79" y="79" width="12" height="11" /><rect x="79" y="91" width="12" height="12" /><rect x="66" y="91" width="12" height="12" /><rect x="105" y="28" width="12" height="11" /><rect x="105" y="40" width="12" height="12" /><rect x="92" y="40" width="12" height="12" /><rect x="92" y="53" width="12" height="11" /><rect x="105" y="53" width="12" height="11" /><rect x="105" y="66" width="12" height="11" /><rect x="92" y="66" width="12" height="11" /><rect x="92" y="79" width="12" height="11" /><rect x="131" y="28" width="12" height="11" /><rect x="131" y="40" width="12" height="12" /><rect x="118" y="40" width="12" height="12" /><rect x="118" y="53" width="12" height="11" /><rect x="131" y="53" width="12" height="11" /><rect x="118" y="66" width="12" height="11" /><rect x="144" y="28" width="12" height="11" /><rect x="157" y="28" width="12" height="11" /><rect x="157" y="40" width="12" height="12" /><rect x="144" y="40" width="12" height="12" /><rect x="144" y="53" width="12" height="11" /><rect x="157" y="53" width="12" height="11" /><rect x="157" y="66" width="12" height="11" /><rect x="144" y="66" width="12" height="11" /><rect x="157" y="79" width="12" height="11" /><rect x="170" y="28" width="12" height="11" /><rect x="183" y="28" width="12" height="11" /><rect x="170" y="40" width="12" height="12" /><rect x="170" y="53" width="12" height="11" /><rect x="183" y="66" width="12" height="11" /><rect x="170" y="66" width="12" height="11" /><rect x="170" y="79" width="12" height="11" /><rect x="27" y="28" width="12" height="11" /><rect x="15" y="40" width="11" height="12" /><rect x="14" y="53" width="12" height="11" /><rect x="27" y="53" width="12" height="11" /><rect x="27" y="66" width="12" height="11" /><rect x="183" y="15" width="12" height="11" /><rect x="170" y="15" width="12" height="11" /><rect x="157" y="15" width="12" height="11" /><rect x="144" y="15" width="12" height="11" /><rect x="131" y="15" width="12" height="11" /><rect x="15" y="66" width="11" height="11" /><rect x="27" y="91" width="12" height="12" /><rect x="27" y="40" width="12" height="12" /><rect x="105" y="79" width="12" height="11" />
</g>
<g class="spawningMap-very-uncommon"><rect x="131" y="66" width="12" height="11" /><rect x="131" y="79" width="12" height="11" /><rect x="144" y="79" width="12" height="11" /><rect x="183" y="40" width="12" height="12" /><rect x="183" y="53" width="12" height="11" />
</g>
<g class="spawningMap-very-common"><rect x="103" y="120" width="8" height="9" /><rect x="115" y="120" width="8" height="9" /><rect x="115" y="120" width="8" height="9" /><rect x="101" y="117" width="5" height="5" /><rect x="103" y="120" width="8" height="9" /><rect x="101" y="117" width="5" height="5" /><rect x="104" y="120" width="8" height="9" /><rect x="104" y="120" width="8" height="9" /><rect x="106" y="120" width="8" height="9" /><rect x="115" y="120" width="8" height="9" /><rect x="111" y="108" width="12" height="14" /><rect x="101" y="117" width="5" height="5" /><rect x="103" y="120" width="8" height="9" /><rect x="106" y="120" width="8" height="9" /><rect x="104" y="120" width="8" height="9" />
</g>
</g>
<g class="spawning-map-point" opacity="0.8">
</g>
<g fill="url(#pattern-untameable)" opacity="0.3"><rect x="103" y="120" width="8" height="9"/><rect x="115" y="120" width="8" height="9"/><rect x="115" y="120" width="8" height="9"/><rect x="101" y="117" width="5" height="5"/><rect x="103" y="120" width="8" height="9"/><rect x="101" y="117" width="5" height="5"/><rect x="104" y="120" width="8" height="9"/><rect x="104" y="120" width="8" height="9"/><rect x="106" y="120" width="8" height="9"/><rect x="115" y="120" width="8" height="9"/><rect x="111" y="108" width="12" height="14"/><rect x="101" y="117" width="5" height="5"/><rect x="103" y="120" width="8" height="9"/><rect x="106" y="120" width="8" height="9"/><rect x="104" y="120" width="8" height="9"/>
</g>
<g filter="url(#groupStroke)" opacity="0.8"><rect x="103" y="120" width="8" height="9"/><rect x="115" y="120" width="8" height="9"/><rect x="115" y="120" width="8" height="9"/><rect x="101" y="117" width="5" height="5"/><rect x="103" y="120" width="8" height="9"/><rect x="101" y="117" width="5" height="5"/><rect x="104" y="120" width="8" height="9"/><rect x="104" y="120" width="8" height="9"/><rect x="106" y="120" width="8" height="9"/><rect x="115" y="120" width="8" height="9"/><rect x="111" y="108" width="12" height="14"/><rect x="101" y="117" width="5" height="5"/><rect x="103" y="120" width="8" height="9"/><rect x="106" y="120" width="8" height="9"/><rect x="104" y="120" width="8" height="9"/>
</g>
</svg>