<?xml version="1.0" encoding="utf-8"?>
<svg xmlns="http://www.w3.org/2000/svg" width="300" height="300" viewBox="0 0 300 300" class="creatureMap" style="position:absolute;">
<defs>
    <filter id="blur" x="-30%" y="-30%" width="160%" height="160%">
        <feGaussianBlur stdDeviation="3" />
    </filter>
    <style>
        .spawningMap-very-common { fill: #0F0; }
        .spawningMap-common { fill: #B2FF00; }
        .spawningMap-uncommon { fill: #FF0; }
        .spawningMap-very-uncommon { fill: #FC0; }
        .spawningMap-rare { fill: #F60; }
        .spawningMap-very-rare { fill: #F00; }
        .spawning-map-point { stroke:black; stroke-width:1; }
    </style>
</defs>
<g class="spawning-map-point" opacity="0.8">
    <g class="spawningMap-very-uncommon">
        <circle cx="153" cy="245" r="4.0" />
        <circle cx="168" cy="245" r="4.0" />
        <circle cx="153" cy="259" r="4.0" />
        <circle cx="168" cy="259" r="4.0" />
        <circle cx="153" cy="251" r="4.0" />
        <circle cx="168" cy="251" r="4.0" />
        <circle cx="161" cy="245" r="4.0" />
        <circle cx="161" cy="259" r="4.0" />
        <circle cx="161" cy="251" r="4.0" />
        <circle cx="153" cy="245" r="4.0" />
        <circle cx="168" cy="245" r="4.0" />
        <circle cx="153" cy="259" r="4.0" />
        <circle cx="168" cy="259" r="4.0" />
        <circle cx="153" cy="251" r="4.0" />
        <circle cx="168" cy="251" r="4.0" />
        <circle cx="161" cy="245" r="4.0" />
        <circle cx="161" cy="259" r="4.0" />
        <circle cx="161" cy="251" r="4.0" />
        <circle cx="153" cy="36" r="4.0" />
        <circle cx="168" cy="36" r="4.0" />
        <circle cx="153" cy="49" r="4.0" />
        <circle cx="168" cy="49" r="4.0" />
        <circle cx="153" cy="42" r="4.0" />
        <circle cx="168" cy="42" r="4.0" />
        <circle cx="161" cy="36" r="4.0" />
        <circle cx="161" cy="49" r="4.0" />
        <circle cx="161" cy="42" r="4.0" />
        <circle cx="153" cy="36" r="4.0" />
        <circle cx="168" cy="36" r="4.0" />
        <circle cx="153" cy="49" r="4.0" />
        <circle cx="168" cy="49" r="4.0" />
        <circle cx="153" cy="42" r="4.0" />
        <circle cx="168" cy="42" r="4.0" />
        <circle cx="161" cy="36" r="4.0" />
        <circle cx="161" cy="49" r="4.0" />
        <circle cx="161" cy="42" r="4.0" />
        <circle cx="130" cy="36" r="4.0" />
        <circle cx="144" cy="36" r="4.0" />
        <circle cx="130" cy="49" r="4.0" />
        <circle cx="144" cy="49" r="4.0" />
        <circle cx="130" cy="42" r="4.0" />
        <circle cx="144" cy="42" r="4.0" />
        <circle cx="137" cy="36" r="4.0" />
        <circle cx="137" cy="49" r="4.0" />
        <circle cx="137" cy="42" r="4.0" />
        <circle cx="130" cy="36" r="4.0" />
        <circle cx="144" cy="36" r="4.0" />
        <circle cx="130" cy="49" r="4.0" />
        <circle cx="144" cy="49" r="4.0" />
        <circle cx="130" cy="42" r="4.0" />
        <circle cx="144" cy="42" r="4.0" />
        <circle cx="137" cy="36" r="4.0" />
        <circle cx="137" cy="49" r="4.0" />
        <circle cx="137" cy="42" r="4.0" />
        <circle cx="130" cy="59" r="4.0" />
        <circle cx="144" cy="59" r="4.0" />
        <circle cx="130" cy="73" r="4.0" />
        <circle cx="144" cy="73" r="4.0" />
        <circle cx="130" cy="65" r="4.0" />
        <circle cx="144" cy="65" r="4.0" />
        <circle cx="137" cy="59" r="4.0" />
        <circle cx="137" cy="73" r="4.0" />
        <circle cx="137" cy="65" r="4.0" />
        <circle cx="130" cy="59" r="4.0" />
        <circle cx="144" cy="59" r="4.0" />
        <circle cx="130" cy="73" r="4.0" />
        <circle cx="144" cy="73" r="4.0" />
        <circle cx="130" cy="65" r="4.0" />
        <circle cx="144" cy="65" r="4.0" />
        <circle cx="137" cy="59" r="4.0" />
        <circle cx="137" cy="73" r="4.0" />
        <circle cx="137" cy="65" r="4.0" />
        <circle cx="153" cy="59" r="4.0" />
        <circle cx="168" cy="59" r="4.0" />
        <circle cx="153" cy="73" r="4.0" />
        <circle cx="168" cy="73" r="4.0" />
        <circle cx="153" cy="65" r="4.0" />
        <circle cx="168" cy="65" r="4.0" />
        <circle cx="161" cy="59" r="4.0" />
        <circle cx="161" cy="73" r="4.0" />
        <circle cx="161" cy="65" r="4.0" />
        <circle cx="153" cy="59" r="4.0" />
        <circle cx="168" cy="59" r="4.0" />
        <circle cx="153" cy="73" r="4.0" />
        <circle cx="168" cy="73" r="4.0" />
        <circle cx="153" cy="65" r="4.0" />
        <circle cx="168" cy="65" r="4.0" />
        <circle cx="161" cy="59" r="4.0" />
        <circle cx="161" cy="73" r="4.0" />
        <circle cx="161" cy="65" r="4.0" />
        <circle cx="153" cy="82" r="4.0" />
        <circle cx="168" cy="82" r="4.0" />
        <circle cx="153" cy="96" r="4.0" />
        <circle cx="168" cy="96" r="4.0" />
        <circle cx="153" cy="89" r="4.0" />
        <circle cx="168" cy="89" r="4.0" />
        <circle cx="161" cy="82" r="4.0" />
        <circle cx="161" cy="96" r="4.0" />
        <circle cx="161" cy="89" r="4.0" />
        <circle cx="153" cy="82" r="4.0" />
        <circle cx="168" cy="82" r="4.0" />
        <circle cx="153" cy="96" r="4.0" />
        <circle cx="168" cy="96" r="4.0" />
        <circle cx="153" cy="89" r="4.0" />
        <circle cx="168" cy="89" r="4.0" />
        <circle cx="161" cy="82" r="4.0" />
        <circle cx="161" cy="96" r="4.0" />
        <circle cx="161" cy="89" r="4.0" />
        <circle cx="130" cy="82" r="4.0" />
        <circle cx="144" cy="82" r="4.0" />
        <circle cx="130" cy="96" r="4.0" />
        <circle cx="144" cy="96" r="4.0" />
        <circle cx="130" cy="89" r="4.0" />
        <circle cx="144" cy="89" r="4.0" />
        <circle cx="137" cy="82" r="4.0" />
        <circle cx="137" cy="96" r="4.0" />
        <circle cx="137" cy="89" r="4.0" />
        <circle cx="130" cy="82" r="4.0" />
        <circle cx="144" cy="82" r="4.0" />
        <circle cx="130" cy="96" r="4.0" />
        <circle cx="144" cy="96" r="4.0" />
        <circle cx="130" cy="89" r="4.0" />
        <circle cx="144" cy="89" r="4.0" />
        <circle cx="137" cy="82" r="4.0" />
        <circle cx="137" cy="96" r="4.0" />
        <circle cx="137" cy="89" r="4.0" />
        <circle cx="130" cy="106" r="4.0" />
        <circle cx="144" cy="106" r="4.0" />
        <circle cx="130" cy="119" r="4.0" />
        <circle cx="144" cy="119" r="4.0" />
        <circle cx="130" cy="112" r="4.0" />
        <circle cx="144" cy="112" r="4.0" />
        <circle cx="137" cy="106" r="4.0" />
        <circle cx="137" cy="119" r="4.0" />
        <circle cx="137" cy="112" r="4.0" />
        <circle cx="130" cy="106" r="4.0" />
        <circle cx="144" cy="106" r="4.0" />
        <circle cx="130" cy="119" r="4.0" />
        <circle cx="144" cy="119" r="4.0" />
        <circle cx="130" cy="112" r="4.0" />
        <circle cx="144" cy="112" r="4.0" />
        <circle cx="137" cy="106" r="4.0" />
        <circle cx="137" cy="119" r="4.0" />
        <circle cx="137" cy="112" r="4.0" />
        <circle cx="153" cy="106" r="4.0" />
        <circle cx="168" cy="106" r="4.0" />
        <circle cx="153" cy="119" r="4.0" />
        <circle cx="168" cy="119" r="4.0" />
        <circle cx="153" cy="112" r="4.0" />
        <circle cx="168" cy="112" r="4.0" />
        <circle cx="161" cy="106" r="4.0" />
        <circle cx="161" cy="119" r="4.0" />
        <circle cx="161" cy="112" r="4.0" />
        <circle cx="153" cy="106" r="4.0" />
        <circle cx="168" cy="106" r="4.0" />
        <circle cx="153" cy="119" r="4.0" />
        <circle cx="168" cy="119" r="4.0" />
        <circle cx="153" cy="112" r="4.0" />
        <circle cx="168" cy="112" r="4.0" />
        <circle cx="161" cy="106" r="4.0" />
        <circle cx="161" cy="119" r="4.0" />
        <circle cx="161" cy="112" r="4.0" />
        <circle cx="153" cy="129" r="4.0" />
        <circle cx="168" cy="129" r="4.0" />
        <circle cx="153" cy="143" r="4.0" />
        <circle cx="168" cy="143" r="4.0" />
        <circle cx="153" cy="135" r="4.0" />
        <circle cx="168" cy="135" r="4.0" />
        <circle cx="161" cy="129" r="4.0" />
        <circle cx="161" cy="143" r="4.0" />
        <circle cx="161" cy="135" r="4.0" />
        <circle cx="153" cy="129" r="4.0" />
        <circle cx="168" cy="129" r="4.0" />
        <circle cx="153" cy="143" r="4.0" />
        <circle cx="168" cy="143" r="4.0" />
        <circle cx="153" cy="135" r="4.0" />
        <circle cx="168" cy="135" r="4.0" />
        <circle cx="161" cy="129" r="4.0" />
        <circle cx="161" cy="143" r="4.0" />
        <circle cx="161" cy="135" r="4.0" />
        <circle cx="130" cy="129" r="4.0" />
        <circle cx="144" cy="129" r="4.0" />
        <circle cx="130" cy="143" r="4.0" />
        <circle cx="144" cy="143" r="4.0" />
        <circle cx="130" cy="135" r="4.0" />
        <circle cx="144" cy="135" r="4.0" />
        <circle cx="137" cy="129" r="4.0" />
        <circle cx="137" cy="143" r="4.0" />
        <circle cx="137" cy="135" r="4.0" />
        <circle cx="130" cy="129" r="4.0" />
        <circle cx="144" cy="129" r="4.0" />
        <circle cx="130" cy="143" r="4.0" />
        <circle cx="144" cy="143" r="4.0" />
        <circle cx="130" cy="135" r="4.0" />
        <circle cx="144" cy="135" r="4.0" />
        <circle cx="137" cy="129" r="4.0" />
        <circle cx="137" cy="143" r="4.0" />
        <circle cx="137" cy="135" r="4.0" />
        <circle cx="130" cy="152" r="4.0" />
        <circle cx="144" cy="152" r="4.0" />
        <circle cx="130" cy="166" r="4.0" />
        <circle cx="144" cy="166" r="4.0" />
        <circle cx="130" cy="158" r="4.0" />
        <circle cx="144" cy="158" r="4.0" />
        <circle cx="137" cy="152" r="4.0" />
        <circle cx="137" cy="166" r="4.0" />
        <circle cx="137" cy="158" r="4.0" />
        <circle cx="130" cy="152" r="4.0" />
        <circle cx="144" cy="152" r="4.0" />
        <circle cx="130" cy="166" r="4.0" />
        <circle cx="144" cy="166" r="4.0" />
        <circle cx="130" cy="158" r="4.0" />
        <circle cx="144" cy="158" r="4.0" />
        <circle cx="137" cy="152" r="4.0" />
        <circle cx="137" cy="166" r="4.0" />
        <circle cx="137" cy="158" r="4.0" />
        <circle cx="153" cy="152" r="4.0" />
        <circle cx="168" cy="152" r="4.0" />
        <circle cx="153" cy="166" r="4.0" />
        <circle cx="168" cy="166" r="4.0" />
        <circle cx="153" cy="158" r="4.0" />
        <circle cx="168" cy="158" r="4.0" />
        <circle cx="161" cy="152" r="4.0" />
        <circle cx="161" cy="166" r="4.0" />
        <circle cx="161" cy="158" r="4.0" />
        <circle cx="153" cy="152" r="4.0" />
        <circle cx="168" cy="152" r="4.0" />
        <circle cx="153" cy="166" r="4.0" />
        <circle cx="168" cy="166" r="4.0" />
        <circle cx="153" cy="158" r="4.0" />
        <circle cx="168" cy="158" r="4.0" />
        <circle cx="161" cy="152" r="4.0" />
        <circle cx="161" cy="166" r="4.0" />
        <circle cx="161" cy="158" r="4.0" />
        <circle cx="153" cy="176" r="4.0" />
        <circle cx="168" cy="176" r="4.0" />
        <circle cx="153" cy="189" r="4.0" />
        <circle cx="168" cy="189" r="4.0" />
        <circle cx="153" cy="182" r="4.0" />
        <circle cx="168" cy="182" r="4.0" />
        <circle cx="161" cy="176" r="4.0" />
        <circle cx="161" cy="189" r="4.0" />
        <circle cx="161" cy="182" r="4.0" />
        <circle cx="153" cy="176" r="4.0" />
        <circle cx="168" cy="176" r="4.0" />
        <circle cx="153" cy="189" r="4.0" />
        <circle cx="168" cy="189" r="4.0" />
        <circle cx="153" cy="182" r="4.0" />
        <circle cx="168" cy="182" r="4.0" />
        <circle cx="161" cy="176" r="4.0" />
        <circle cx="161" cy="189" r="4.0" />
        <circle cx="161" cy="182" r="4.0" />
        <circle cx="130" cy="176" r="4.0" />
        <circle cx="144" cy="176" r="4.0" />
        <circle cx="130" cy="189" r="4.0" />
        <circle cx="144" cy="189" r="4.0" />
        <circle cx="130" cy="182" r="4.0" />
        <circle cx="144" cy="182" r="4.0" />
        <circle cx="137" cy="176" r="4.0" />
        <circle cx="137" cy="189" r="4.0" />
        <circle cx="137" cy="182" r="4.0" />
        <circle cx="130" cy="176" r="4.0" />
        <circle cx="144" cy="176" r="4.0" />
        <circle cx="130" cy="189" r="4.0" />
        <circle cx="144" cy="189" r="4.0" />
        <circle cx="130" cy="182" r="4.0" />
        <circle cx="144" cy="182" r="4.0" />
        <circle cx="137" cy="176" r="4.0" />
        <circle cx="137" cy="189" r="4.0" />
        <circle cx="137" cy="182" r="4.0" />
        <circle cx="130" cy="199" r="4.0" />
        <circle cx="144" cy="199" r="4.0" />
        <circle cx="130" cy="212" r="4.0" />
        <circle cx="144" cy="212" r="4.0" />
        <circle cx="130" cy="205" r="4.0" />
        <circle cx="144" cy="205" r="4.0" />
        <circle cx="137" cy="199" r="4.0" />
        <circle cx="137" cy="212" r="4.0" />
        <circle cx="137" cy="205" r="4.0" />
        <circle cx="130" cy="199" r="4.0" />
        <circle cx="144" cy="199" r="4.0" />
        <circle cx="130" cy="212" r="4.0" />
        <circle cx="144" cy="212" r="4.0" />
        <circle cx="130" cy="205" r="4.0" />
        <circle cx="144" cy="205" r="4.0" />
        <circle cx="137" cy="199" r="4.0" />
        <circle cx="137" cy="212" r="4.0" />
        <circle cx="137" cy="205" r="4.0" />
        <circle cx="153" cy="199" r="4.0" />
        <circle cx="168" cy="199" r="4.0" />
        <circle cx="153" cy="212" r="4.0" />
        <circle cx="168" cy="212" r="4.0" />
        <circle cx="153" cy="205" r="4.0" />
        <circle cx="168" cy="205" r="4.0" />
        <circle cx="161" cy="199" r="4.0" />
        <circle cx="161" cy="212" r="4.0" />
        <circle cx="161" cy="205" r="4.0" />
        <circle cx="153" cy="199" r="4.0" />
        <circle cx="168" cy="199" r="4.0" />
        <circle cx="153" cy="212" r="4.0" />
        <circle cx="168" cy="212" r="4.0" />
        <circle cx="153" cy="205" r="4.0" />
        <circle cx="168" cy="205" r="4.0" />
        <circle cx="161" cy="199" r="4.0" />
        <circle cx="161" cy="212" r="4.0" />
        <circle cx="161" cy="205" r="4.0" />
        <circle cx="153" cy="222" r="4.0" />
        <circle cx="168" cy="222" r="4.0" />
        <circle cx="153" cy="236" r="4.0" />
        <circle cx="168" cy="236" r="4.0" />
        <circle cx="153" cy="228" r="4.0" />
        <circle cx="168" cy="228" r="4.0" />
        <circle cx="161" cy="222" r="4.0" />
        <circle cx="161" cy="236" r="4.0" />
        <circle cx="161" cy="228" r="4.0" />
        <circle cx="153" cy="222" r="4.0" />
        <circle cx="168" cy="222" r="4.0" />
        <circle cx="153" cy="236" r="4.0" />
        <circle cx="168" cy="236" r="4.0" />
        <circle cx="153" cy="228" r="4.0" />
        <circle cx="168" cy="228" r="4.0" />
        <circle cx="161" cy="222" r="4.0" />
        <circle cx="161" cy="236" r="4.0" />
        <circle cx="161" cy="228" r="4.0" />
        <circle cx="130" cy="222" r="4.0" />
        <circle cx="144" cy="222" r="4.0" />
        <circle cx="130" cy="236" r="4.0" />
        <circle cx="144" cy="236" r="4.0" />
        <circle cx="130" cy="228" r="4.0" />
        <circle cx="144" cy="228" r="4.0" />
        <circle cx="137" cy="222" r="4.0" />
        <circle cx="137" cy="236" r="4.0" />
        <circle cx="137" cy="228" r="4.0" />
        <circle cx="130" cy="222" r="4.0" />
        <circle cx="144" cy="222" r="4.0" />
        <circle cx="130" cy="236" r="4.0" />
        <circle cx="144" cy="236" r="4.0" />
        <circle cx="130" cy="228" r="4.0" />
        <circle cx="144" cy="228" r="4.0" />
        <circle cx="137" cy="222" r="4.0" />
        <circle cx="137" cy="236" r="4.0" />
        <circle cx="137" cy="228" r="4.0" />
        <circle cx="130" cy="245" r="4.0" />
        <circle cx="144" cy="245" r="4.0" />
        <circle cx="130" cy="259" r="4.0" />
        <circle cx="144" cy="259" r="4.0" />
        <circle cx="130" cy="251" r="4.0" />
        <circle cx="144" cy="251" r="4.0" />
        <circle cx="137" cy="245" r="4.0" />
        <circle cx="137" cy="259" r="4.0" />
        <circle cx="137" cy="251" r="4.0" />
        <circle cx="130" cy="245" r="4.0" />
        <circle cx="144" cy="245" r="4.0" />
        <circle cx="130" cy="259" r="4.0" />
        <circle cx="144" cy="259" r="4.0" />
        <circle cx="130" cy="251" r="4.0" />
        <circle cx="144" cy="251" r="4.0" />
        <circle cx="137" cy="245" r="4.0" />
        <circle cx="137" cy="259" r="4.0" />
        <circle cx="137" cy="251" r="4.0" />
    </g></g>
</svg>