<svg xmlns="http://www.w3.org/2000/svg" width="300" height="300" viewBox="0 0 300 300" class="creatureMap" style="position:absolute;">
<defs>
<filter id="blur" x="-30%" y="-30%" width="160%" height="160%"><feGaussianBlur stdDeviation="3" />
</filter>
<pattern id="pattern-untameable" width="10" height="10" patternTransform="rotate(135)" patternUnits="userSpaceOnUse"><rect width="4" height="10" fill="black"></rect>
</pattern>
<filter id="groupStroke"><feFlood result="outsideColor" flood-color="black"/><feMorphology in="SourceAlpha" operator="dilate" radius="2"/><feComposite result="strokeoutline1" in="outsideColor" operator="in"/><feComposite result="strokeoutline2" in="strokeoutline1" in2="SourceAlpha" operator="out"/><feGaussianBlur in="strokeoutline2" result="strokeblur" stdDeviation="1"/>
</filter>
<style>
.spawningMap-very-common { fill: #0F0;}
.spawningMap-common { fill: #B2FF00;}
.spawningMap-uncommon { fill: #FF0;}
.spawningMap-very-uncommon { fill: #FC0;}
.spawningMap-rare { fill: #F60;}
.spawningMap-very-rare { fill: #F00; }.spawning-map-point {stroke:black; stroke-width:1;}
</style>
</defs>
<g filter="url(#blur)" opacity="0.7">
<g class="spawningMap-very-uncommon"><rect x="284" y="53" width="13" height="12" /><rect x="287" y="5" width="10" height="18" /><rect x="209" y="38" width="41" height="13" /><rect x="237" y="67" width="14" height="25" /><rect x="284" y="149" width="13" height="13" /><rect x="39" y="56" width="8" height="26" /><rect x="81" y="280" width="12" height="19" /><rect x="95" y="280" width="12" height="19" /><rect x="109" y="280" width="12" height="19" /><rect x="11" y="280" width="13" height="16" /><rect x="233" y="280" width="12" height="19" /><rect x="205" y="280" width="13" height="19" /><rect x="177" y="5" width="13" height="18" /><rect x="54" y="32" width="38" height="7" /><rect x="108" y="5" width="13" height="18" /><rect x="122" y="5" width="12" height="18" /><rect x="136" y="5" width="12" height="18" /><rect x="191" y="5" width="12" height="18" /><rect x="205" y="5" width="12" height="18" /><rect x="219" y="5" width="12" height="18" /><rect x="232" y="5" width="13" height="18" /><rect x="246" y="5" width="12" height="18" /><rect x="260" y="5" width="12" height="18" /><rect x="284" y="80" width="13" height="13" /><rect x="284" y="94" width="13" height="13" /><rect x="273" y="5" width="13" height="18" /><rect x="158" y="39" width="23" height="17" /><rect x="284" y="108" width="13" height="13" /><rect x="183" y="39" width="23" height="17" /><rect x="284" y="38" width="13" height="13" /><rect x="253" y="39" width="15" height="26" /><rect x="284" y="67" width="13" height="12" /><rect x="284" y="122" width="13" height="12" /><rect x="284" y="136" width="13" height="12" /><rect x="253" y="67" width="15" height="25" /><rect x="249" y="95" width="19" height="25" /><rect x="249" y="123" width="19" height="25" /><rect x="122" y="280" width="13" height="19" /><rect x="136" y="280" width="13" height="19" /><rect x="150" y="280" width="12" height="19" /><rect x="164" y="280" width="12" height="19" /><rect x="178" y="280" width="12" height="19" /><rect x="191" y="280" width="13" height="19" /><rect x="219" y="280" width="12" height="19" /><rect x="150" y="5" width="12" height="18" /><rect x="25" y="280" width="13" height="19" /><rect x="39" y="280" width="13" height="19" /><rect x="53" y="280" width="12" height="19" /><rect x="67" y="280" width="12" height="19" /><rect x="164" y="5" width="12" height="18" />
</g>
<g class="spawningMap-uncommon"><rect x="25" y="46" width="13" height="8" /><rect x="81" y="5" width="12" height="12" /><rect x="67" y="5" width="12" height="12" /><rect x="53" y="5" width="12" height="12" /><rect x="39" y="5" width="13" height="12" /><rect x="25" y="5" width="13" height="12" /><rect x="269" y="53" width="13" height="12" /><rect x="287" y="24" width="10" height="13" /><rect x="53" y="40" width="15" height="14" /><rect x="269" y="149" width="13" height="13" /><rect x="249" y="150" width="19" height="12" /><rect x="53" y="83" width="12" height="13" /><rect x="67" y="100" width="12" height="13" /><rect x="5" y="47" width="19" height="12" /><rect x="5" y="60" width="19" height="13" /><rect x="5" y="74" width="19" height="13" /><rect x="5" y="88" width="19" height="13" /><rect x="5" y="102" width="19" height="13" /><rect x="5" y="116" width="19" height="13" /><rect x="5" y="130" width="19" height="13" /><rect x="74" y="143" width="12" height="13" /><rect x="53" y="168" width="12" height="12" /><rect x="53" y="182" width="12" height="12" /><rect x="53" y="196" width="12" height="13" /><rect x="53" y="210" width="12" height="13" /><rect x="53" y="224" width="12" height="13" /><rect x="53" y="238" width="12" height="13" /><rect x="108" y="224" width="13" height="13" /><rect x="108" y="238" width="13" height="13" /><rect x="53" y="252" width="12" height="13" /><rect x="53" y="266" width="12" height="13" /><rect x="5" y="4" width="19" height="13" /><rect x="3" y="280" width="8" height="16" /><rect x="136" y="224" width="12" height="13" /><rect x="136" y="210" width="12" height="13" /><rect x="177" y="238" width="12" height="13" /><rect x="274" y="266" width="12" height="13" /><rect x="288" y="266" width="8" height="13" /><rect x="288" y="238" width="8" height="13" /><rect x="274" y="280" width="12" height="17" /><rect x="288" y="280" width="8" height="17" /><rect x="260" y="163" width="12" height="17" /><rect x="274" y="163" width="12" height="17" /><rect x="177" y="24" width="13" height="13" /><rect x="39" y="126" width="13" height="12" /><rect x="39" y="140" width="13" height="12" /><rect x="39" y="154" width="13" height="12" /><rect x="150" y="24" width="12" height="13" /><rect x="68" y="157" width="17" height="10" /><rect x="39" y="32" width="13" height="13" /><rect x="122" y="210" width="12" height="13" /><rect x="39" y="46" width="13" height="8" /><rect x="95" y="18" width="12" height="13" /><rect x="81" y="18" width="12" height="13" /><rect x="67" y="18" width="12" height="13" /><rect x="53" y="18" width="12" height="13" /><rect x="39" y="18" width="13" height="13" /><rect x="25" y="18" width="13" height="13" /><rect x="95" y="5" width="12" height="12" /><rect x="191" y="24" width="12" height="13" /><rect x="205" y="24" width="12" height="13" /><rect x="219" y="24" width="12" height="13" /><rect x="233" y="24" width="12" height="13" /><rect x="95" y="47" width="12" height="12" /><rect x="246" y="24" width="13" height="13" /><rect x="260" y="24" width="12" height="13" /><rect x="269" y="94" width="13" height="13" /><rect x="122" y="252" width="12" height="13" /><rect x="269" y="108" width="13" height="13" /><rect x="274" y="24" width="12" height="13" /><rect x="134" y="38" width="22" height="15" /><rect x="269" y="39" width="13" height="12" /><rect x="48" y="56" width="12" height="12" /><rect x="25" y="32" width="13" height="13" /><rect x="269" y="67" width="13" height="12" /><rect x="269" y="122" width="13" height="12" /><rect x="269" y="136" width="13" height="12" /><rect x="122" y="238" width="12" height="13" /><rect x="25" y="56" width="13" height="12" /><rect x="25" y="70" width="13" height="12" /><rect x="25" y="83" width="13" height="13" /><rect x="25" y="98" width="13" height="12" /><rect x="25" y="112" width="13" height="12" /><rect x="25" y="126" width="13" height="12" /><rect x="25" y="140" width="13" height="12" /><rect x="25" y="154" width="13" height="13" /><rect x="95" y="60" width="12" height="13" /><rect x="48" y="70" width="12" height="12" /><rect x="122" y="266" width="12" height="13" /><rect x="269" y="80" width="13" height="13" /><rect x="39" y="83" width="12" height="13" /><rect x="70" y="40" width="22" height="14" /><rect x="39" y="98" width="12" height="12" /><rect x="53" y="98" width="12" height="12" /><rect x="109" y="38" width="22" height="15" /><rect x="136" y="266" width="12" height="13" /><rect x="95" y="32" width="12" height="13" /><rect x="25" y="168" width="13" height="12" /><rect x="108" y="24" width="13" height="13" /><rect x="150" y="266" width="12" height="13" /><rect x="67" y="168" width="18" height="12" /><rect x="164" y="266" width="12" height="13" /><rect x="25" y="182" width="13" height="12" /><rect x="177" y="266" width="13" height="13" /><rect x="122" y="24" width="12" height="13" /><rect x="67" y="182" width="18" height="12" /><rect x="136" y="24" width="12" height="13" /><rect x="191" y="266" width="12" height="13" /><rect x="67" y="196" width="12" height="13" /><rect x="135" y="255" width="7" height="9" /><rect x="136" y="238" width="7" height="7" /><rect x="170" y="252" width="5" height="13" /><rect x="67" y="210" width="12" height="13" /><rect x="25" y="224" width="13" height="13" /><rect x="171" y="242" width="5" height="9" /><rect x="177" y="252" width="12" height="13" /><rect x="191" y="260" width="12" height="5" /><rect x="25" y="238" width="13" height="13" /><rect x="205" y="252" width="12" height="13" /><rect x="218" y="252" width="13" height="13" /><rect x="232" y="252" width="13" height="13" /><rect x="246" y="252" width="12" height="13" /><rect x="67" y="224" width="12" height="13" /><rect x="67" y="238" width="12" height="13" /><rect x="67" y="252" width="12" height="13" /><rect x="67" y="266" width="12" height="13" /><rect x="81" y="215" width="12" height="21" /><rect x="81" y="238" width="12" height="13" /><rect x="81" y="252" width="12" height="13" /><rect x="81" y="266" width="12" height="13" /><rect x="95" y="215" width="12" height="21" /><rect x="95" y="238" width="12" height="13" /><rect x="95" y="252" width="12" height="13" /><rect x="95" y="266" width="12" height="13" /><rect x="108" y="252" width="13" height="13" /><rect x="108" y="266" width="13" height="13" /><rect x="39" y="168" width="13" height="12" /><rect x="39" y="182" width="13" height="12" /><rect x="39" y="196" width="13" height="13" /><rect x="39" y="210" width="13" height="13" /><rect x="39" y="224" width="13" height="13" /><rect x="39" y="238" width="13" height="13" /><rect x="39" y="252" width="13" height="13" /><rect x="39" y="266" width="13" height="13" /><rect x="25" y="252" width="13" height="13" /><rect x="25" y="266" width="13" height="13" /><rect x="288" y="224" width="8" height="13" /><rect x="260" y="252" width="12" height="13" /><rect x="5" y="186" width="19" height="13" /><rect x="5" y="144" width="19" height="13" /><rect x="5" y="158" width="19" height="13" /><rect x="5" y="172" width="19" height="13" /><rect x="274" y="252" width="12" height="13" /><rect x="253" y="238" width="19" height="13" /><rect x="274" y="238" width="12" height="13" /><rect x="255" y="224" width="17" height="13" /><rect x="164" y="24" width="12" height="13" /><rect x="5" y="32" width="19" height="13" /><rect x="274" y="224" width="12" height="13" /><rect x="5" y="18" width="19" height="13" /><rect x="25" y="196" width="13" height="13" /><rect x="25" y="210" width="13" height="13" /><rect x="205" y="266" width="12" height="13" /><rect x="218" y="266" width="13" height="13" /><rect x="232" y="266" width="13" height="13" /><rect x="11" y="196" width="13" height="13" /><rect x="11" y="210" width="13" height="13" /><rect x="3" y="196" width="8" height="13" /><rect x="3" y="210" width="8" height="13" /><rect x="11" y="224" width="13" height="13" /><rect x="11" y="238" width="13" height="13" /><rect x="3" y="224" width="8" height="13" /><rect x="3" y="238" width="8" height="13" /><rect x="11" y="252" width="13" height="13" /><rect x="11" y="266" width="13" height="13" /><rect x="3" y="252" width="8" height="13" /><rect x="3" y="266" width="8" height="13" /><rect x="288" y="252" width="8" height="13" /><rect x="288" y="163" width="8" height="17" /><rect x="288" y="196" width="8" height="13" /><rect x="288" y="182" width="8" height="13" /><rect x="288" y="210" width="8" height="13" /><rect x="246" y="266" width="13" height="13" /><rect x="260" y="266" width="12" height="13" /><rect x="246" y="280" width="13" height="17" /><rect x="260" y="280" width="12" height="17" /><rect x="260" y="210" width="12" height="13" /><rect x="274" y="210" width="12" height="13" /><rect x="260" y="196" width="12" height="13" /><rect x="274" y="196" width="12" height="13" /><rect x="260" y="182" width="12" height="13" /><rect x="274" y="182" width="12" height="13" /><rect x="122" y="224" width="12" height="13" />
</g>
<g class="spawningMap-common"><rect x="53" y="157" width="13" height="10" />
</g>
</g>
<g class="spawning-map-point" opacity="0.8">
</g>
</svg>