<?xml version="1.0" encoding="utf-8"?>
<svg xmlns="http://www.w3.org/2000/svg" width="300" height="300" viewBox="0 0 300 300" class="creatureMap" style="position:absolute;">
<defs>
    <filter id="blur" x="-30%" y="-30%" width="160%" height="160%">
        <feGaussianBlur stdDeviation="3" />
    </filter>
    <style>
        .spawningMap-very-common { fill: #0F0; }
        .spawningMap-common { fill: #B2FF00; }
        .spawningMap-uncommon { fill: #FF0; }
        .spawningMap-very-uncommon { fill: #FC0; }
        .spawningMap-rare { fill: #F60; }
        .spawningMap-very-rare { fill: #F00; }
        .spawning-map-point { stroke:black; stroke-width:1; }
    </style>
</defs>
<g filter="url(#blur)" opacity="0.7">
    <g class="spawningMap-common">
        <rect x="108" y="259" width="11" height="12" />
        <rect x="197" y="236" width="11" height="12" />
        <rect x="130" y="236" width="12" height="12" />
        <rect x="85" y="271" width="11" height="11" />
        <rect x="79" y="271" width="12" height="11" />
        <rect x="74" y="271" width="11" height="11" />
        <rect x="68" y="271" width="11" height="11" />
        <rect x="62" y="271" width="11" height="11" />
        <rect x="85" y="265" width="11" height="11" />
        <rect x="91" y="259" width="11" height="12" />
        <rect x="91" y="265" width="11" height="11" />
        <rect x="97" y="265" width="11" height="11" />
        <rect x="114" y="254" width="11" height="11" />
        <rect x="114" y="259" width="11" height="12" />
        <rect x="191" y="242" width="11" height="11" />
        <rect x="168" y="242" width="11" height="11" />
        <rect x="245" y="254" width="11" height="11" />
        <rect x="256" y="259" width="11" height="12" />
        <rect x="163" y="242" width="11" height="11" />
        <rect x="157" y="242" width="11" height="11" />
        <rect x="250" y="248" width="12" height="11" />
        <rect x="151" y="242" width="11" height="11" />
        <rect x="145" y="242" width="12" height="11" />
        <rect x="140" y="242" width="11" height="11" />
        <rect x="197" y="242" width="11" height="11" />
        <rect x="102" y="265" width="11" height="11" />
        <rect x="94" y="253" width="11" height="12" />
        <rect x="208" y="242" width="13" height="11" />
        <rect x="125" y="242" width="14" height="11" />
        <rect x="97" y="259" width="11" height="12" />
        <rect x="102" y="259" width="11" height="12" />
        <rect x="183" y="92" width="17" height="11" />
        <rect x="183" y="92" width="17" height="11" />
        <rect x="183" y="92" width="17" height="11" />
        <rect x="183" y="92" width="17" height="11" />
        <rect x="202" y="242" width="12" height="11" />
        <rect x="202" y="236" width="12" height="12" />
        <rect x="174" y="242" width="11" height="11" />
        <rect x="185" y="242" width="12" height="11" />
        <rect x="180" y="242" width="11" height="11" />
        <rect x="222" y="248" width="11" height="11" />
        <rect x="233" y="248" width="12" height="11" />
        <rect x="228" y="248" width="11" height="11" />
        <rect x="245" y="259" width="11" height="12" />
        <rect x="250" y="259" width="12" height="12" />
        <rect x="245" y="248" width="11" height="11" />
        <rect x="183" y="92" width="17" height="11" />
        <rect x="183" y="92" width="17" height="11" />
        <rect x="76" y="109" width="11" height="11" />
        <rect x="178" y="179" width="11" height="12" />
        <rect x="178" y="191" width="12" height="10" />
        <rect x="166" y="189" width="11" height="11" />
        <rect x="168" y="198" width="11" height="11" />
        <rect x="234" y="59" width="11" height="11" />
        <rect x="78" y="206" width="13" height="13" />
        <rect x="73" y="208" width="13" height="13" />
        <rect x="70" y="109" width="11" height="11" />
        <rect x="91" y="123" width="11" height="11" />
        <rect x="82" y="103" width="11" height="11" />
        <rect x="114" y="134" width="11" height="8" />
        <rect x="125" y="148" width="8" height="10" />
        <rect x="79" y="97" width="11" height="11" />
        <rect x="130" y="189" width="11" height="11" />
        <rect x="130" y="195" width="11" height="11" />
        <rect x="141" y="190" width="11" height="11" />
        <rect x="141" y="196" width="11" height="11" />
        <rect x="172" y="179" width="11" height="12" />
        <rect x="172" y="185" width="11" height="11" />
        <rect x="172" y="191" width="11" height="11" />
        <rect x="51" y="190" width="11" height="11" />
        <rect x="178" y="185" width="11" height="11" />
        <rect x="252" y="78" width="11" height="11" />
        <rect x="246" y="78" width="11" height="11" />
        <rect x="222" y="61" width="12" height="11" />
        <rect x="109" y="220" width="11" height="11" />
        <rect x="135" y="189" width="12" height="11" />
        <rect x="135" y="195" width="12" height="11" />
        <rect x="66" y="192" width="13" height="13" />
        <rect x="68" y="198" width="13" height="12" />
        <rect x="71" y="203" width="13" height="13" />
        <rect x="66" y="205" width="12" height="12" />
        <rect x="68" y="210" width="12" height="13" />
        <rect x="62" y="212" width="13" height="13" />
        <rect x="46" y="92" width="12" height="11" />
        <rect x="70" y="103" width="11" height="11" />
        <rect x="76" y="103" width="11" height="11" />
    </g>
    <g class="spawningMap-very-common">
        <rect x="79" y="277" width="12" height="8" />
        <rect x="251" y="277" width="11" height="8" />
        <rect x="256" y="277" width="12" height="8" />
        <rect x="245" y="277" width="11" height="8" />
        <rect x="74" y="277" width="11" height="8" />
        <rect x="62" y="277" width="11" height="8" />
        <rect x="239" y="260" width="12" height="11" />
        <rect x="233" y="260" width="12" height="11" />
        <rect x="228" y="260" width="11" height="11" />
        <rect x="222" y="260" width="11" height="11" />
        <rect x="228" y="271" width="11" height="11" />
        <rect x="228" y="265" width="11" height="11" />
        <rect x="222" y="265" width="11" height="11" />
        <rect x="245" y="265" width="11" height="12" />
        <rect x="222" y="271" width="11" height="11" />
        <rect x="251" y="271" width="11" height="11" />
        <rect x="245" y="271" width="11" height="11" />
        <rect x="239" y="248" width="11" height="11" />
        <rect x="239" y="254" width="11" height="11" />
        <rect x="233" y="254" width="11" height="11" />
        <rect x="227" y="254" width="12" height="11" />
        <rect x="222" y="254" width="11" height="11" />
        <rect x="251" y="265" width="11" height="12" />
        <rect x="233" y="271" width="12" height="11" />
        <rect x="239" y="271" width="12" height="11" />
        <rect x="233" y="265" width="12" height="12" />
        <rect x="239" y="265" width="12" height="12" />
        <rect x="208" y="236" width="9" height="12" />
        <rect x="136" y="237" width="11" height="11" />
        <rect x="194" y="83" width="13" height="14" />
        <rect x="202" y="83" width="12" height="14" />
        <rect x="180" y="74" width="12" height="14" />
        <rect x="187" y="74" width="13" height="14" />
        <rect x="180" y="83" width="12" height="14" />
        <rect x="187" y="83" width="13" height="14" />
        <rect x="216" y="92" width="12" height="15" />
        <rect x="209" y="92" width="12" height="15" />
        <rect x="202" y="92" width="12" height="15" />
        <rect x="202" y="74" width="12" height="14" />
        <rect x="209" y="74" width="12" height="14" />
        <rect x="209" y="65" width="12" height="14" />
        <rect x="187" y="65" width="13" height="14" />
        <rect x="194" y="55" width="13" height="15" />
        <rect x="202" y="55" width="12" height="15" />
        <rect x="194" y="65" width="13" height="14" />
        <rect x="234" y="277" width="11" height="8" />
        <rect x="202" y="65" width="12" height="14" />
        <rect x="239" y="277" width="11" height="8" />
        <rect x="228" y="277" width="11" height="8" />
        <rect x="222" y="277" width="11" height="8" />
        <rect x="194" y="74" width="13" height="14" />
        <rect x="194" y="92" width="13" height="15" />
        <rect x="68" y="277" width="11" height="8" />
        <rect x="209" y="83" width="12" height="14" />
        <rect x="216" y="83" width="12" height="14" />
        <rect x="209" y="55" width="12" height="15" />
    </g>
    <g class="spawningMap-uncommon">
        <rect x="188" y="259" width="11" height="12" />
        <rect x="188" y="265" width="11" height="11" />
        <rect x="194" y="259" width="11" height="12" />
        <rect x="216" y="271" width="11" height="11" />
        <rect x="182" y="259" width="11" height="12" />
        <rect x="182" y="265" width="11" height="11" />
        <rect x="194" y="271" width="11" height="11" />
        <rect x="188" y="271" width="11" height="11" />
        <rect x="182" y="271" width="11" height="11" />
        <rect x="194" y="265" width="11" height="12" />
        <rect x="199" y="254" width="11" height="11" />
        <rect x="193" y="254" width="12" height="11" />
        <rect x="188" y="254" width="11" height="11" />
        <rect x="199" y="248" width="11" height="11" />
        <rect x="182" y="248" width="11" height="11" />
        <rect x="182" y="254" width="11" height="11" />
        <rect x="118" y="144" width="10" height="9" />
        <rect x="128" y="147" width="11" height="11" />
        <rect x="144" y="147" width="11" height="11" />
        <rect x="133" y="153" width="11" height="11" />
        <rect x="142" y="113" width="11" height="11" />
        <rect x="169" y="136" width="11" height="11" />
        <rect x="156" y="126" width="13" height="11" />
        <rect x="169" y="125" width="11" height="11" />
        <rect x="148" y="108" width="11" height="11" />
        <rect x="80" y="66" width="12" height="11" />
        <rect x="127" y="63" width="12" height="12" />
        <rect x="181" y="138" width="11" height="11" />
        <rect x="181" y="132" width="11" height="11" />
        <rect x="229" y="81" width="11" height="11" />
        <rect x="238" y="69" width="11" height="11" />
        <rect x="114" y="220" width="12" height="11" />
        <rect x="186" y="148" width="11" height="11" />
        <rect x="148" y="113" width="11" height="11" />
        <rect x="118" y="134" width="12" height="13" />
        <rect x="120" y="139" width="10" height="9" />
        <rect x="122" y="142" width="11" height="11" />
        <rect x="139" y="153" width="11" height="11" />
        <rect x="125" y="136" width="11" height="11" />
        <rect x="128" y="142" width="11" height="11" />
        <rect x="133" y="142" width="11" height="11" />
        <rect x="139" y="142" width="11" height="11" />
        <rect x="131" y="136" width="11" height="11" />
        <rect x="133" y="147" width="11" height="11" />
        <rect x="139" y="147" width="11" height="11" />
        <rect x="137" y="136" width="11" height="11" />
        <rect x="135" y="159" width="14" height="8" />
        <rect x="142" y="136" width="11" height="11" />
        <rect x="148" y="136" width="11" height="11" />
        <rect x="154" y="113" width="11" height="11" />
        <rect x="159" y="109" width="11" height="11" />
        <rect x="142" y="130" width="11" height="11" />
        <rect x="148" y="130" width="11" height="11" />
        <rect x="131" y="130" width="11" height="11" />
        <rect x="137" y="130" width="11" height="11" />
        <rect x="142" y="125" width="11" height="11" />
        <rect x="148" y="125" width="11" height="11" />
        <rect x="137" y="125" width="11" height="11" />
        <rect x="142" y="119" width="11" height="11" />
        <rect x="148" y="119" width="11" height="11" />
        <rect x="154" y="119" width="11" height="11" />
        <rect x="159" y="119" width="11" height="11" />
        <rect x="157" y="131" width="13" height="11" />
        <rect x="169" y="130" width="11" height="11" />
        <rect x="137" y="119" width="11" height="11" />
        <rect x="90" y="66" width="11" height="12" />
        <rect x="137" y="60" width="11" height="11" />
        <rect x="143" y="60" width="11" height="11" />
        <rect x="149" y="60" width="11" height="11" />
        <rect x="144" y="142" width="11" height="11" />
        <rect x="150" y="142" width="11" height="11" />
        <rect x="150" y="147" width="11" height="11" />
        <rect x="156" y="145" width="11" height="11" />
        <rect x="161" y="145" width="11" height="11" />
        <rect x="167" y="145" width="11" height="11" />
        <rect x="156" y="150" width="11" height="11" />
        <rect x="156" y="156" width="11" height="11" />
        <rect x="161" y="150" width="11" height="11" />
        <rect x="167" y="150" width="11" height="11" />
        <rect x="173" y="150" width="11" height="11" />
        <rect x="175" y="143" width="11" height="11" />
        <rect x="181" y="141" width="11" height="11" />
        <rect x="186" y="138" width="11" height="11" />
        <rect x="186" y="132" width="11" height="11" />
        <rect x="186" y="126" width="11" height="11" />
        <rect x="186" y="121" width="11" height="11" />
        <rect x="181" y="126" width="11" height="11" />
        <rect x="181" y="121" width="11" height="11" />
        <rect x="175" y="126" width="11" height="11" />
        <rect x="175" y="121" width="11" height="11" />
        <rect x="175" y="138" width="11" height="11" />
        <rect x="175" y="132" width="11" height="11" />
        <rect x="229" y="86" width="11" height="12" />
        <rect x="232" y="98" width="11" height="11" />
        <rect x="186" y="144" width="11" height="10" />
        <rect x="159" y="113" width="11" height="11" />
    </g>
    <g class="spawningMap-very-uncommon">
        <rect x="166" y="236" width="36" height="12" />
        <rect x="67" y="86" width="11" height="11" />
        <rect x="58" y="106" width="12" height="11" />
        <rect x="64" y="113" width="11" height="11" />
        <rect x="53" y="118" width="11" height="11" />
        <rect x="47" y="123" width="11" height="11" />
        <rect x="102" y="120" width="11" height="12" />
        <rect x="93" y="100" width="11" height="16" />
        <rect x="142" y="152" width="13" height="13" />
        <rect x="131" y="125" width="11" height="11" />
        <rect x="135" y="113" width="11" height="11" />
        <rect x="78" y="86" width="12" height="11" />
        <rect x="73" y="92" width="12" height="11" />
        <rect x="102" y="63" width="12" height="11" />
        <rect x="96" y="63" width="12" height="11" />
        <rect x="172" y="74" width="10" height="13" />
        <rect x="246" y="75" width="11" height="11" />
        <rect x="62" y="164" width="12" height="11" />
        <rect x="94" y="200" width="11" height="12" />
        <rect x="67" y="80" width="11" height="11" />
        <rect x="58" y="112" width="12" height="11" />
        <rect x="114" y="138" width="12" height="13" />
        <rect x="107" y="120" width="12" height="12" />
        <rect x="58" y="123" width="12" height="11" />
        <rect x="87" y="108" width="11" height="12" />
        <rect x="87" y="102" width="11" height="12" />
        <rect x="68" y="164" width="11" height="11" />
        <rect x="87" y="120" width="12" height="11" />
        <rect x="73" y="80" width="11" height="11" />
        <rect x="73" y="86" width="11" height="11" />
        <rect x="73" y="97" width="11" height="11" />
        <rect x="43" y="75" width="11" height="11" />
        <rect x="78" y="80" width="12" height="11" />
        <rect x="58" y="118" width="12" height="11" />
        <rect x="102" y="68" width="12" height="11" />
        <rect x="160" y="74" width="12" height="11" />
        <rect x="164" y="160" width="11" height="11" />
        <rect x="180" y="115" width="12" height="11" />
        <rect x="40" y="98" width="12" height="11" />
        <rect x="175" y="115" width="11" height="11" />
        <rect x="35" y="93" width="11" height="11" />
        <rect x="179" y="109" width="11" height="11" />
        <rect x="52" y="92" width="11" height="11" />
        <rect x="158" y="162" width="12" height="11" />
        <rect x="161" y="156" width="12" height="11" />
        <rect x="64" y="119" width="11" height="11" />
        <rect x="184" y="104" width="12" height="11" />
        <rect x="189" y="106" width="12" height="11" />
        <rect x="184" y="184" width="11" height="11" />
        <rect x="183" y="178" width="12" height="11" />
        <rect x="184" y="109" width="12" height="11" />
        <rect x="202" y="111" width="11" height="11" />
        <rect x="204" y="116" width="12" height="11" />
        <rect x="217" y="115" width="11" height="11" />
        <rect x="222" y="115" width="11" height="11" />
        <rect x="174" y="31" width="12" height="11" />
        <rect x="180" y="32" width="12" height="11" />
        <rect x="232" y="104" width="11" height="11" />
        <rect x="70" y="120" width="11" height="11" />
        <rect x="232" y="92" width="11" height="11" />
        <rect x="238" y="109" width="11" height="11" />
        <rect x="64" y="124" width="11" height="12" />
        <rect x="238" y="104" width="11" height="11" />
        <rect x="240" y="75" width="11" height="11" />
        <rect x="43" y="104" width="11" height="11" />
        <rect x="40" y="92" width="12" height="11" />
        <rect x="40" y="87" width="12" height="11" />
        <rect x="46" y="98" width="11" height="11" />
        <rect x="70" y="114" width="11" height="12" />
        <rect x="26" y="112" width="11" height="12" />
        <rect x="186" y="100" width="12" height="12" />
        <rect x="67" y="92" width="11" height="11" />
        <rect x="64" y="101" width="12" height="12" />
        <rect x="64" y="107" width="12" height="11" />
        <rect x="76" y="114" width="11" height="12" />
        <rect x="53" y="123" width="11" height="11" />
        <rect x="53" y="129" width="11" height="11" />
        <rect x="47" y="129" width="11" height="11" />
        <rect x="76" y="120" width="11" height="11" />
        <rect x="82" y="120" width="11" height="11" />
        <rect x="82" y="114" width="11" height="12" />
        <rect x="87" y="114" width="12" height="12" />
        <rect x="93" y="116" width="11" height="11" />
        <rect x="93" y="111" width="11" height="11" />
    </g>
    <g class="spawningMap-rare">
        <rect x="216" y="121" width="13" height="14" />
        <rect x="200" y="139" width="13" height="15" />
        <rect x="208" y="139" width="13" height="15" />
        <rect x="200" y="149" width="13" height="14" />
        <rect x="208" y="149" width="13" height="14" />
        <rect x="232" y="139" width="13" height="15" />
        <rect x="200" y="158" width="13" height="15" />
        <rect x="208" y="158" width="13" height="15" />
        <rect x="82" y="109" width="11" height="11" />
        <rect x="181" y="170" width="9" height="15" />
    </g></g>
</svg>