<svg xmlns="http://www.w3.org/2000/svg" width="300" height="300" viewBox="0 0 300 300" class="creatureMap" style="position:absolute;">
<defs>
<filter id="blur" x="-30%" y="-30%" width="160%" height="160%"><feGaussianBlur stdDeviation="3" />
</filter>
<pattern id="pattern-untameable" width="10" height="10" patternTransform="rotate(135)" patternUnits="userSpaceOnUse"><rect width="4" height="10" fill="black"></rect>
</pattern>
<filter id="groupStroke"><feFlood result="outsideColor" flood-color="black"/><feMorphology in="SourceAlpha" operator="dilate" radius="2"/><feComposite result="strokeoutline1" in="outsideColor" operator="in"/><feComposite result="strokeoutline2" in="strokeoutline1" in2="SourceAlpha" operator="out"/><feGaussianBlur in="strokeoutline2" result="strokeblur" stdDeviation="1"/>
</filter>
<style>
.spawningMap-very-common { fill: #0F0;}
.spawningMap-common { fill: #B2FF00;}
.spawningMap-uncommon { fill: #FF0;}
.spawningMap-very-uncommon { fill: #FC0;}
.spawningMap-rare { fill: #F60;}
.spawningMap-very-rare { fill: #F00; }.spawning-map-point {stroke:black; stroke-width:1;}
</style>
</defs>
<g filter="url(#blur)" opacity="0.7">
<g class="spawningMap-very-uncommon"><rect x="74" y="255" width="9" height="6" />
</g>
<g class="spawningMap-uncommon"><rect x="70" y="248" width="6" height="6" /><rect x="77" y="248" width="6" height="6" /><rect x="57" y="255" width="6" height="6" /><rect x="57" y="248" width="6" height="6" /><rect x="64" y="255" width="6" height="6" /><rect x="64" y="248" width="6" height="6" /><rect x="83" y="255" width="6" height="6" /><rect x="83" y="248" width="6" height="6" />
</g>
<g class="spawningMap-common"><rect x="172" y="153" width="3" height="10" /><rect x="176" y="234" width="6" height="6" /><rect x="182" y="234" width="6" height="6" /><rect x="196" y="227" width="6" height="6" /><rect x="196" y="234" width="6" height="6" /><rect x="196" y="241" width="6" height="6" /><rect x="176" y="248" width="6" height="6" /><rect x="202" y="254" width="6" height="6" /><rect x="196" y="254" width="6" height="6" /><rect x="189" y="254" width="6" height="6" /><rect x="182" y="254" width="6" height="6" /><rect x="182" y="159" width="6" height="7" /><rect x="189" y="159" width="6" height="7" /><rect x="158" y="177" width="6" height="7" /><rect x="189" y="234" width="6" height="6" /><rect x="169" y="207" width="6" height="6" /><rect x="169" y="200" width="6" height="6" /><rect x="162" y="207" width="6" height="6" /><rect x="162" y="200" width="6" height="6" /><rect x="162" y="193" width="6" height="7" /><rect x="169" y="193" width="6" height="7" /><rect x="172" y="174" width="3" height="9" /><rect x="172" y="164" width="3" height="9" /><rect x="172" y="184" width="3" height="9" /><rect x="202" y="234" width="6" height="6" /><rect x="158" y="164" width="6" height="6" /><rect x="202" y="241" width="6" height="6" /><rect x="202" y="248" width="6" height="6" /><rect x="196" y="248" width="6" height="6" /><rect x="189" y="248" width="6" height="6" /><rect x="182" y="248" width="6" height="6" /><rect x="158" y="150" width="6" height="6" /><rect x="182" y="241" width="6" height="6" /><rect x="176" y="241" width="6" height="6" /><rect x="189" y="227" width="6" height="6" /><rect x="189" y="241" width="6" height="6" /><rect x="189" y="221" width="6" height="6" /><rect x="189" y="200" width="6" height="6" /><rect x="189" y="193" width="6" height="7" /><rect x="189" y="187" width="6" height="6" /><rect x="182" y="187" width="6" height="6" /><rect x="182" y="180" width="6" height="6" /><rect x="189" y="180" width="6" height="6" /><rect x="182" y="173" width="6" height="6" /><rect x="189" y="173" width="6" height="6" /><rect x="182" y="166" width="6" height="7" /><rect x="189" y="166" width="6" height="7" />
</g>
<g class="spawningMap-very-common"><rect x="158" y="207" width="4" height="6" /><rect x="158" y="200" width="4" height="6" /><rect x="158" y="191" width="12" height="2" /><rect x="182" y="153" width="6" height="6" /><rect x="139" y="221" width="3" height="9" /><rect x="222" y="234" width="6" height="6" /><rect x="229" y="234" width="6" height="6" /><rect x="222" y="241" width="6" height="6" /><rect x="229" y="241" width="6" height="6" /><rect x="236" y="234" width="6" height="6" /><rect x="242" y="234" width="6" height="6" /><rect x="236" y="241" width="6" height="6" /><rect x="242" y="241" width="6" height="6" /><rect x="222" y="248" width="6" height="6" /><rect x="229" y="248" width="6" height="6" /><rect x="236" y="248" width="6" height="6" /><rect x="242" y="248" width="6" height="6" /><rect x="256" y="159" width="6" height="7" /><rect x="256" y="221" width="6" height="6" /><rect x="249" y="234" width="6" height="6" /><rect x="209" y="221" width="6" height="6" /><rect x="215" y="227" width="6" height="6" /><rect x="222" y="227" width="6" height="6" /><rect x="91" y="75" width="10" height="6" /><rect x="113" y="75" width="11" height="6" /><rect x="158" y="193" width="4" height="7" /><rect x="202" y="153" width="6" height="6" /><rect x="196" y="153" width="6" height="6" /><rect x="189" y="153" width="6" height="6" /><rect x="102" y="75" width="10" height="6" /><rect x="229" y="153" width="6" height="6" /><rect x="236" y="153" width="6" height="6" /><rect x="229" y="160" width="6" height="6" /><rect x="236" y="160" width="6" height="6" /><rect x="242" y="153" width="6" height="6" /><rect x="249" y="153" width="6" height="6" /><rect x="242" y="160" width="6" height="6" /><rect x="249" y="160" width="6" height="6" /><rect x="229" y="166" width="6" height="7" /><rect x="236" y="166" width="6" height="7" /><rect x="229" y="173" width="6" height="6" /><rect x="236" y="173" width="6" height="6" /><rect x="242" y="166" width="6" height="7" /><rect x="249" y="166" width="6" height="7" /><rect x="242" y="173" width="6" height="6" /><rect x="249" y="173" width="6" height="6" /><rect x="209" y="153" width="6" height="6" /><rect x="202" y="160" width="6" height="6" /><rect x="209" y="160" width="6" height="6" /><rect x="215" y="153" width="6" height="6" /><rect x="222" y="153" width="6" height="6" /><rect x="215" y="160" width="6" height="6" /><rect x="222" y="160" width="6" height="6" /><rect x="202" y="166" width="6" height="7" /><rect x="209" y="166" width="6" height="7" /><rect x="209" y="173" width="6" height="6" /><rect x="215" y="166" width="6" height="7" /><rect x="222" y="166" width="6" height="7" /><rect x="215" y="173" width="6" height="6" /><rect x="222" y="173" width="6" height="6" /><rect x="236" y="180" width="6" height="6" /><rect x="242" y="180" width="6" height="6" /><rect x="236" y="187" width="6" height="6" /><rect x="242" y="187" width="6" height="6" /><rect x="249" y="180" width="6" height="6" /><rect x="249" y="187" width="6" height="6" /><rect x="256" y="187" width="6" height="6" /><rect x="236" y="193" width="6" height="7" /><rect x="242" y="193" width="6" height="7" /><rect x="236" y="200" width="6" height="6" /><rect x="242" y="200" width="6" height="6" /><rect x="249" y="193" width="6" height="7" /><rect x="256" y="193" width="6" height="7" /><rect x="249" y="200" width="6" height="6" /><rect x="209" y="180" width="6" height="6" /><rect x="215" y="180" width="6" height="6" /><rect x="209" y="187" width="6" height="6" /><rect x="215" y="187" width="6" height="6" /><rect x="222" y="180" width="6" height="6" /><rect x="229" y="180" width="6" height="6" /><rect x="222" y="187" width="6" height="6" /><rect x="229" y="187" width="6" height="6" /><rect x="209" y="193" width="6" height="7" /><rect x="215" y="193" width="6" height="7" /><rect x="222" y="193" width="6" height="7" /><rect x="229" y="193" width="6" height="7" /><rect x="229" y="200" width="6" height="6" /><rect x="229" y="207" width="6" height="6" /><rect x="236" y="207" width="6" height="6" /><rect x="229" y="214" width="6" height="6" /><rect x="236" y="214" width="6" height="6" /><rect x="242" y="207" width="6" height="6" /><rect x="249" y="207" width="6" height="6" /><rect x="242" y="214" width="6" height="6" /><rect x="249" y="214" width="6" height="6" /><rect x="229" y="221" width="6" height="6" /><rect x="236" y="221" width="6" height="6" /><rect x="229" y="227" width="6" height="6" /><rect x="236" y="227" width="6" height="6" /><rect x="242" y="221" width="6" height="6" /><rect x="249" y="221" width="6" height="6" /><rect x="242" y="227" width="6" height="6" /><rect x="256" y="180" width="6" height="6" /><rect x="256" y="173" width="6" height="6" /><rect x="256" y="166" width="6" height="7" /><rect x="256" y="200" width="6" height="6" /><rect x="256" y="207" width="6" height="6" /><rect x="256" y="214" width="6" height="6" /><rect x="249" y="227" width="6" height="6" /><rect x="202" y="173" width="6" height="6" /><rect x="209" y="200" width="6" height="6" /><rect x="215" y="200" width="6" height="6" /><rect x="222" y="200" width="6" height="6" /><rect x="209" y="207" width="6" height="6" /><rect x="215" y="207" width="6" height="6" /><rect x="222" y="207" width="6" height="6" /><rect x="209" y="214" width="6" height="6" /><rect x="215" y="214" width="6" height="6" /><rect x="222" y="214" width="6" height="6" /><rect x="215" y="221" width="6" height="6" /><rect x="222" y="221" width="6" height="6" />
</g>
</g>
<g class="spawning-map-point" opacity="0.8">
</g>
</svg>