<?xml version="1.0" encoding="utf-8"?>
<svg xmlns="http://www.w3.org/2000/svg" width="300" height="300"
        viewBox="0 0 300 300" class="creatureMap" style="position:absolute;">
    <defs>
        <filter id="blur" x="-30%" y="-30%" width="160%" height="160%">
            <feGaussianBlur stdDeviation="3" />
        </filter>
        <pattern id="pattern-untameable" width="10" height="10" patternTransform="rotate(135)" patternUnits="userSpaceOnUse">
            <rect width="4" height="10" fill="black"></rect>
        </pattern>
        <filter id="groupStroke">
            <feFlood result="outsideColor" flood-color="black"/>
            <feMorphology in="SourceAlpha" operator="dilate" radius="2"/>
            <feComposite result="strokeoutline1" in="outsideColor" operator="in"/>
            <feComposite result="strokeoutline2" in="strokeoutline1" in2="SourceAlpha" operator="out"/>
            <feGaussianBlur in="strokeoutline2" result="strokeblur" stdDeviation="1"/>
        </filter>
        <style>
            .spawningMap-very-common { fill: #0F0; }
            .spawningMap-common { fill: #B2FF00; }
            .spawningMap-uncommon { fill: #FF0; }
            .spawningMap-very-uncommon { fill: #FC0; }
            .spawningMap-rare { fill: #F60; }
            .spawningMap-very-rare { fill: #F00; }
            .spawning-map-point { stroke:black; stroke-width:1; }
        </style>
    </defs>

<g filter="url(#blur)" opacity="0.7">
<g class="spawningMap-very-rare">
<rect x="133" y="244" width="12" height="13" />
<rect x="133" y="251" width="12" height="12" />
<rect x="67" y="245" width="12" height="12" />
<rect x="74" y="245" width="12" height="12" />
<rect x="60" y="225" width="12" height="14" />
<rect x="47" y="238" width="12" height="12" />
<rect x="162" y="181" width="12" height="12" />
<rect x="155" y="181" width="12" height="12" />
<rect x="179" y="224" width="12" height="12" />
<rect x="193" y="224" width="12" height="12" />
<rect x="193" y="231" width="12" height="12" />
<rect x="193" y="238" width="12" height="12" />
<rect x="173" y="244" width="12" height="13" />
<rect x="199" y="251" width="12" height="12" />
<rect x="193" y="251" width="12" height="12" />
<rect x="186" y="251" width="12" height="12" />
<rect x="179" y="251" width="12" height="12" />
<rect x="139" y="217" width="12" height="13" />
<rect x="159" y="231" width="12" height="12" />
<rect x="146" y="231" width="12" height="12" />
<rect x="139" y="231" width="12" height="12" />
<rect x="139" y="238" width="12" height="12" />
<rect x="74" y="225" width="12" height="14" />
<rect x="146" y="217" width="12" height="13" />
<rect x="146" y="211" width="12" height="12" />
<rect x="153" y="211" width="12" height="12" />
<rect x="139" y="244" width="12" height="13" />
<rect x="67" y="225" width="12" height="14" />
<rect x="139" y="251" width="12" height="12" />
<rect x="81" y="225" width="12" height="12" />
<rect x="159" y="211" width="12" height="12" />
<rect x="199" y="231" width="12" height="12" />
<rect x="54" y="252" width="12" height="12" />
<rect x="54" y="245" width="12" height="12" />
<rect x="61" y="252" width="11" height="12" />
<rect x="61" y="245" width="11" height="12" />
<rect x="71" y="252" width="15" height="12" />
<rect x="81" y="252" width="12" height="12" />
<rect x="81" y="245" width="12" height="12" />
<rect x="155" y="154" width="12" height="12" />
<rect x="162" y="168" width="12" height="12" />
<rect x="155" y="168" width="12" height="12" />
<rect x="199" y="238" width="12" height="12" />
<rect x="199" y="244" width="12" height="13" />
<rect x="193" y="244" width="12" height="13" />
<rect x="186" y="244" width="12" height="13" />
<rect x="179" y="244" width="12" height="13" />
<rect x="179" y="211" width="12" height="12" />
<rect x="179" y="217" width="12" height="13" />
<rect x="173" y="217" width="12" height="13" />
<rect x="173" y="224" width="12" height="12" />
<rect x="81" y="232" width="12" height="12" />
<rect x="162" y="154" width="12" height="12" />
<rect x="159" y="217" width="12" height="13" />
<rect x="153" y="217" width="12" height="13" />
<rect x="159" y="224" width="12" height="12" />
<rect x="153" y="224" width="12" height="12" />
<rect x="146" y="224" width="12" height="12" />
<rect x="139" y="224" width="12" height="12" />
<rect x="153" y="231" width="12" height="12" />
<rect x="153" y="238" width="12" height="12" />
<rect x="159" y="238" width="12" height="12" />
<rect x="159" y="244" width="12" height="13" />
<rect x="159" y="251" width="12" height="12" />
</g>
<g class="spawningMap-rare">
<rect x="146" y="258" width="12" height="9" />
<rect x="153" y="258" width="12" height="9" />
<rect x="139" y="258" width="12" height="9" />
<rect x="162" y="174" width="12" height="12" />
<rect x="173" y="156" width="12" height="13" />
<rect x="173" y="150" width="12" height="12" />
<rect x="153" y="244" width="12" height="13" />
<rect x="146" y="251" width="12" height="12" />
<rect x="153" y="251" width="12" height="12" />
<rect x="162" y="161" width="12" height="12" />
<rect x="162" y="147" width="12" height="12" />
<rect x="166" y="231" width="12" height="12" />
<rect x="166" y="224" width="12" height="12" />
<rect x="166" y="217" width="12" height="13" />
<rect x="166" y="211" width="12" height="12" />
<rect x="173" y="211" width="12" height="12" />
<rect x="173" y="204" width="12" height="12" />
<rect x="179" y="204" width="12" height="12" />
<rect x="179" y="197" width="12" height="12" />
<rect x="179" y="190" width="12" height="12" />
<rect x="173" y="197" width="12" height="12" />
<rect x="173" y="190" width="12" height="12" />
<rect x="173" y="184" width="12" height="12" />
<rect x="173" y="177" width="12" height="12" />
<rect x="173" y="170" width="12" height="12" />
<rect x="173" y="163" width="12" height="12" />
<rect x="166" y="238" width="12" height="12" />
<rect x="146" y="238" width="12" height="12" />
<rect x="146" y="244" width="12" height="13" />
</g>
<g class="spawningMap-very-uncommon">
<rect x="187" y="109" width="12" height="15" />
<rect x="198" y="83" width="14" height="12" />
<rect x="167" y="132" width="10" height="9" />
<rect x="161" y="134" width="11" height="9" />
<rect x="159" y="134" width="7" height="9" />
<rect x="154" y="138" width="10" height="9" />
<rect x="124" y="139" width="11" height="9" />
<rect x="129" y="135" width="8" height="10" />
<rect x="161" y="121" width="16" height="11" />
<rect x="124" y="147" width="23" height="16" />
</g>
<g class="spawningMap-uncommon">
<rect x="99" y="104" width="12" height="12" />
<rect x="199" y="101" width="17" height="14" />
<rect x="150" y="130" width="9" height="12" />
<rect x="164" y="105" width="9" height="12" />
<rect x="177" y="81" width="21" height="15" />
<rect x="106" y="98" width="12" height="12" />
<rect x="172" y="126" width="12" height="12" />
<rect x="92" y="104" width="12" height="12" />
<rect x="200" y="93" width="12" height="12" />
<rect x="112" y="98" width="12" height="12" />
<rect x="106" y="91" width="12" height="12" />
<rect x="180" y="101" width="12" height="12" />
<rect x="132" y="139" width="22" height="14" />
<rect x="127" y="158" width="20" height="12" />
<rect x="127" y="164" width="20" height="12" />
<rect x="92" y="84" width="12" height="12" />
<rect x="99" y="84" width="12" height="12" />
<rect x="106" y="84" width="12" height="12" />
<rect x="112" y="84" width="12" height="12" />
<rect x="112" y="91" width="12" height="12" />
<rect x="99" y="91" width="12" height="12" />
<rect x="92" y="91" width="12" height="12" />
<rect x="92" y="98" width="12" height="12" />
<rect x="99" y="98" width="12" height="12" />
</g>
<g class="spawningMap-common">
<rect x="142" y="124" width="12" height="13" />
<rect x="155" y="143" width="18" height="10" />
<rect x="127" y="170" width="20" height="10" />
<rect x="180" y="108" width="13" height="14" />
<rect x="155" y="127" width="22" height="10" />
<rect x="188" y="98" width="15" height="13" />
<rect x="171" y="101" width="12" height="12" />
<rect x="173" y="108" width="12" height="12" />
<rect x="151" y="139" width="9" height="12" />
<rect x="173" y="115" width="12" height="11" />
<rect x="173" y="121" width="16" height="10" />
<rect x="208" y="81" width="12" height="17" />
<rect x="165" y="114" width="13" height="12" />
<rect x="157" y="114" width="13" height="12" />
<rect x="188" y="91" width="15" height="13" />
<rect x="177" y="91" width="16" height="13" />
<rect x="132" y="135" width="22" height="10" />
<rect x="132" y="131" width="22" height="9" />
</g>
<g class="spawningMap-very-common">
<rect x="167" y="108" width="11" height="11" />
<rect x="180" y="116" width="13" height="10" />
</g>
</g>
<g fill="url(#pattern-untameable)" opacity="0.3">
<rect x="133" y="244" width="12" height="13"/>
<rect x="133" y="251" width="12" height="12"/>
<rect x="67" y="245" width="12" height="12"/>
<rect x="74" y="245" width="12" height="12"/>
<rect x="60" y="225" width="12" height="14"/>
<rect x="47" y="238" width="12" height="12"/>
<rect x="162" y="181" width="12" height="12"/>
<rect x="155" y="181" width="12" height="12"/>
<rect x="179" y="224" width="12" height="12"/>
<rect x="193" y="224" width="12" height="12"/>
<rect x="193" y="231" width="12" height="12"/>
<rect x="193" y="238" width="12" height="12"/>
<rect x="173" y="244" width="12" height="13"/>
<rect x="199" y="251" width="12" height="12"/>
<rect x="193" y="251" width="12" height="12"/>
<rect x="186" y="251" width="12" height="12"/>
<rect x="179" y="251" width="12" height="12"/>
<rect x="139" y="217" width="12" height="13"/>
<rect x="159" y="231" width="12" height="12"/>
<rect x="146" y="231" width="12" height="12"/>
<rect x="139" y="231" width="12" height="12"/>
<rect x="139" y="238" width="12" height="12"/>
<rect x="74" y="225" width="12" height="14"/>
<rect x="146" y="217" width="12" height="13"/>
<rect x="146" y="211" width="12" height="12"/>
<rect x="153" y="211" width="12" height="12"/>
<rect x="139" y="244" width="12" height="13"/>
<rect x="67" y="225" width="12" height="14"/>
<rect x="139" y="251" width="12" height="12"/>
<rect x="81" y="225" width="12" height="12"/>
<rect x="159" y="211" width="12" height="12"/>
<rect x="199" y="231" width="12" height="12"/>
<rect x="54" y="252" width="12" height="12"/>
<rect x="54" y="245" width="12" height="12"/>
<rect x="61" y="252" width="11" height="12"/>
<rect x="61" y="245" width="11" height="12"/>
<rect x="71" y="252" width="15" height="12"/>
<rect x="81" y="252" width="12" height="12"/>
<rect x="81" y="245" width="12" height="12"/>
<rect x="155" y="154" width="12" height="12"/>
<rect x="162" y="168" width="12" height="12"/>
<rect x="155" y="168" width="12" height="12"/>
<rect x="199" y="238" width="12" height="12"/>
<rect x="199" y="244" width="12" height="13"/>
<rect x="193" y="244" width="12" height="13"/>
<rect x="186" y="244" width="12" height="13"/>
<rect x="179" y="244" width="12" height="13"/>
<rect x="179" y="211" width="12" height="12"/>
<rect x="179" y="217" width="12" height="13"/>
<rect x="173" y="217" width="12" height="13"/>
<rect x="173" y="224" width="12" height="12"/>
<rect x="81" y="232" width="12" height="12"/>
<rect x="162" y="154" width="12" height="12"/>
<rect x="159" y="217" width="12" height="13"/>
<rect x="153" y="217" width="12" height="13"/>
<rect x="159" y="224" width="12" height="12"/>
<rect x="153" y="224" width="12" height="12"/>
<rect x="146" y="224" width="12" height="12"/>
<rect x="139" y="224" width="12" height="12"/>
<rect x="153" y="231" width="12" height="12"/>
<rect x="153" y="238" width="12" height="12"/>
<rect x="159" y="238" width="12" height="12"/>
<rect x="159" y="244" width="12" height="13"/>
<rect x="159" y="251" width="12" height="12"/>
<rect x="146" y="258" width="12" height="9"/>
<rect x="153" y="258" width="12" height="9"/>
<rect x="139" y="258" width="12" height="9"/>
<rect x="162" y="174" width="12" height="12"/>
<rect x="173" y="156" width="12" height="13"/>
<rect x="173" y="150" width="12" height="12"/>
<rect x="153" y="244" width="12" height="13"/>
<rect x="146" y="251" width="12" height="12"/>
<rect x="153" y="251" width="12" height="12"/>
<rect x="162" y="161" width="12" height="12"/>
<rect x="162" y="147" width="12" height="12"/>
<rect x="166" y="231" width="12" height="12"/>
<rect x="166" y="224" width="12" height="12"/>
<rect x="166" y="217" width="12" height="13"/>
<rect x="166" y="211" width="12" height="12"/>
<rect x="173" y="211" width="12" height="12"/>
<rect x="173" y="204" width="12" height="12"/>
<rect x="179" y="204" width="12" height="12"/>
<rect x="179" y="197" width="12" height="12"/>
<rect x="179" y="190" width="12" height="12"/>
<rect x="173" y="197" width="12" height="12"/>
<rect x="173" y="190" width="12" height="12"/>
<rect x="173" y="184" width="12" height="12"/>
<rect x="173" y="177" width="12" height="12"/>
<rect x="173" y="170" width="12" height="12"/>
<rect x="173" y="163" width="12" height="12"/>
<rect x="166" y="238" width="12" height="12"/>
<rect x="146" y="238" width="12" height="12"/>
<rect x="146" y="244" width="12" height="13"/>
<rect x="187" y="109" width="12" height="15"/>
<rect x="198" y="83" width="14" height="12"/>
<rect x="167" y="132" width="10" height="9"/>
<rect x="161" y="134" width="11" height="9"/>
<rect x="159" y="134" width="7" height="9"/>
<rect x="154" y="138" width="10" height="9"/>
<rect x="124" y="139" width="11" height="9"/>
<rect x="129" y="135" width="8" height="10"/>
<rect x="161" y="121" width="16" height="11"/>
<rect x="124" y="147" width="23" height="16"/>
<rect x="99" y="104" width="12" height="12"/>
<rect x="199" y="101" width="17" height="14"/>
<rect x="150" y="130" width="9" height="12"/>
<rect x="164" y="105" width="9" height="12"/>
<rect x="177" y="81" width="21" height="15"/>
<rect x="106" y="98" width="12" height="12"/>
<rect x="172" y="126" width="12" height="12"/>
<rect x="92" y="104" width="12" height="12"/>
<rect x="200" y="93" width="12" height="12"/>
<rect x="112" y="98" width="12" height="12"/>
<rect x="106" y="91" width="12" height="12"/>
<rect x="180" y="101" width="12" height="12"/>
<rect x="132" y="139" width="22" height="14"/>
<rect x="127" y="158" width="20" height="12"/>
<rect x="127" y="164" width="20" height="12"/>
<rect x="92" y="84" width="12" height="12"/>
<rect x="99" y="84" width="12" height="12"/>
<rect x="106" y="84" width="12" height="12"/>
<rect x="112" y="84" width="12" height="12"/>
<rect x="112" y="91" width="12" height="12"/>
<rect x="99" y="91" width="12" height="12"/>
<rect x="92" y="91" width="12" height="12"/>
<rect x="92" y="98" width="12" height="12"/>
<rect x="99" y="98" width="12" height="12"/>
<rect x="142" y="124" width="12" height="13"/>
<rect x="155" y="143" width="18" height="10"/>
<rect x="127" y="170" width="20" height="10"/>
<rect x="180" y="108" width="13" height="14"/>
<rect x="155" y="127" width="22" height="10"/>
<rect x="188" y="98" width="15" height="13"/>
<rect x="171" y="101" width="12" height="12"/>
<rect x="173" y="108" width="12" height="12"/>
<rect x="151" y="139" width="9" height="12"/>
<rect x="173" y="115" width="12" height="11"/>
<rect x="173" y="121" width="16" height="10"/>
<rect x="208" y="81" width="12" height="17"/>
<rect x="165" y="114" width="13" height="12"/>
<rect x="157" y="114" width="13" height="12"/>
<rect x="188" y="91" width="15" height="13"/>
<rect x="177" y="91" width="16" height="13"/>
<rect x="132" y="135" width="22" height="10"/>
<rect x="132" y="131" width="22" height="9"/>
<rect x="167" y="108" width="11" height="11"/>
<rect x="180" y="116" width="13" height="10"/>
</g>
</svg>