<?xml version="1.0" encoding="utf-8"?>
<svg xmlns="http://www.w3.org/2000/svg" width="300" height="300" viewBox="0 0 300 300" class="creatureMap" style="position:absolute;">
<defs>
    <filter id="blur" x="-30%" y="-30%" width="160%" height="160%">
        <feGaussianBlur stdDeviation="3" />
    </filter>
    <style>
        .spawningMap-very-common { fill: #0F0; }
        .spawningMap-common { fill: #B2FF00; }
        .spawningMap-uncommon { fill: #FF0; }
        .spawningMap-very-uncommon { fill: #FC0; }
        .spawningMap-rare { fill: #F60; }
        .spawningMap-very-rare { fill: #F00; }
        .spawning-map-point { stroke:black; stroke-width:1; }
    </style>
    <pattern id="pattern-untameable" width="10" height="10" patternTransform="rotate(135)" patternUnits="userSpaceOnUse">
        <rect width="4" height="10" fill="black"></rect>
    </pattern>
</defs>
<g filter="url(#blur)" opacity="0.7">
    <g class="spawningMap-very-uncommon">
        <rect x="194" y="83" width="13" height="14" />
        <rect x="202" y="83" width="12" height="14" />
        <rect x="180" y="74" width="12" height="14" />
        <rect x="187" y="74" width="13" height="14" />
        <rect x="180" y="83" width="12" height="14" />
        <rect x="187" y="83" width="13" height="14" />
        <rect x="216" y="92" width="12" height="15" />
        <rect x="209" y="92" width="12" height="15" />
        <rect x="202" y="92" width="12" height="15" />
        <rect x="202" y="74" width="12" height="14" />
        <rect x="209" y="74" width="12" height="14" />
        <rect x="209" y="65" width="12" height="14" />
        <rect x="187" y="65" width="13" height="14" />
        <rect x="194" y="55" width="13" height="15" />
        <rect x="202" y="55" width="12" height="15" />
        <rect x="194" y="65" width="13" height="14" />
        <rect x="202" y="65" width="12" height="14" />
        <rect x="194" y="74" width="13" height="14" />
        <rect x="194" y="92" width="13" height="15" />
        <rect x="209" y="83" width="12" height="14" />
        <rect x="216" y="83" width="12" height="14" />
        <rect x="209" y="55" width="12" height="15" />
    </g>
    <g class="spawningMap-rare">
        <rect x="183" y="92" width="17" height="11" />
        <rect x="183" y="92" width="17" height="11" />
        <rect x="183" y="92" width="17" height="11" />
        <rect x="183" y="92" width="17" height="11" />
        <rect x="183" y="92" width="17" height="11" />
        <rect x="183" y="92" width="17" height="11" />
    </g></g>
<g fill="url(#pattern-untameable)" opacity="0.3">
        <rect x="194" y="83" width="13" height="14" />
        <rect x="202" y="83" width="12" height="14" />
        <rect x="180" y="74" width="12" height="14" />
        <rect x="187" y="74" width="13" height="14" />
        <rect x="180" y="83" width="12" height="14" />
        <rect x="187" y="83" width="13" height="14" />
        <rect x="216" y="92" width="12" height="15" />
        <rect x="209" y="92" width="12" height="15" />
        <rect x="202" y="92" width="12" height="15" />
        <rect x="202" y="74" width="12" height="14" />
        <rect x="209" y="74" width="12" height="14" />
        <rect x="209" y="65" width="12" height="14" />
        <rect x="187" y="65" width="13" height="14" />
        <rect x="194" y="55" width="13" height="15" />
        <rect x="202" y="55" width="12" height="15" />
        <rect x="194" y="65" width="13" height="14" />
        <rect x="202" y="65" width="12" height="14" />
        <rect x="194" y="74" width="13" height="14" />
        <rect x="194" y="92" width="13" height="15" />
        <rect x="209" y="83" width="12" height="14" />
        <rect x="216" y="83" width="12" height="14" />
        <rect x="209" y="55" width="12" height="15" />
        <rect x="183" y="92" width="17" height="11" />
        <rect x="183" y="92" width="17" height="11" />
        <rect x="183" y="92" width="17" height="11" />
        <rect x="183" y="92" width="17" height="11" />
        <rect x="183" y="92" width="17" height="11" />
        <rect x="183" y="92" width="17" height="11" />
</g>
<g class="spawning-map-point" opacity="0.8">
    <g class="spawningMap-very-common">
        <circle cx="203" cy="64" r="4.0" />
        <circle cx="202" cy="64" r="4.0" />
        <circle cx="201" cy="62" r="4.0" />
        <circle cx="203" cy="61" r="4.0" />
        <circle cx="203" cy="62" r="4.0" />
        <circle cx="203" cy="63" r="4.0" />
        <circle cx="201" cy="63" r="4.0" />
        <circle cx="198" cy="71" r="4.0" />
        <circle cx="197" cy="71" r="4.0" />
        <circle cx="198" cy="71" r="4.0" />
        <circle cx="199" cy="70" r="4.0" />
        <circle cx="198" cy="70" r="4.0" />
        <circle cx="198" cy="70" r="4.0" />
        <circle cx="199" cy="71" r="4.0" />
        <circle cx="196" cy="71" r="4.0" />
        <circle cx="197" cy="72" r="4.0" />
        <circle cx="208" cy="82" r="4.0" />
        <circle cx="209" cy="81" r="4.0" />
        <circle cx="208" cy="81" r="4.0" />
        <circle cx="208" cy="80" r="4.0" />
        <circle cx="208" cy="79" r="4.0" />
        <circle cx="208" cy="78" r="4.0" />
        <circle cx="207" cy="73" r="4.0" />
        <circle cx="208" cy="71" r="4.0" />
        <circle cx="210" cy="70" r="4.0" />
        <circle cx="209" cy="71" r="4.0" />
        <circle cx="209" cy="72" r="4.0" />
        <circle cx="209" cy="73" r="4.0" />
        <circle cx="208" cy="73" r="4.0" />
        <circle cx="207" cy="77" r="4.0" />
        <circle cx="207" cy="77" r="4.0" />
        <circle cx="206" cy="77" r="4.0" />
        <circle cx="206" cy="77" r="4.0" />
        <circle cx="205" cy="75" r="4.0" />
        <circle cx="207" cy="75" r="4.0" />
        <circle cx="207" cy="76" r="4.0" />
        <circle cx="208" cy="77" r="4.0" />
        <circle cx="209" cy="76" r="4.0" />
        <circle cx="207" cy="74" r="4.0" />
        <circle cx="209" cy="73" r="4.0" />
        <circle cx="210" cy="73" r="4.0" />
    </g>
    <g class="spawningMap-common">
        <circle cx="208" cy="84" r="4.0" />
        <circle cx="209" cy="83" r="4.0" />
    </g></g>
</svg>