<?xml version="1.0" encoding="utf-8"?>
<svg xmlns="http://www.w3.org/2000/svg" width="300" height="300" viewBox="0 0 300 300" class="creatureMap" style="position:absolute;">
<defs>
    <filter id="blur" x="-30%" y="-30%" width="160%" height="160%">
        <feGaussianBlur stdDeviation="3" />
    </filter>
    <style>
        .spawningMap-very-common { fill: #0F0; }
        .spawningMap-common { fill: #B2FF00; }
        .spawningMap-uncommon { fill: #FF0; }
        .spawningMap-very-uncommon { fill: #FC0; }
        .spawningMap-rare { fill: #F60; }
        .spawningMap-very-rare { fill: #F00; }
        .spawning-map-point { stroke:black; stroke-width:1; }
    </style>
</defs>
<g filter="url(#blur)" opacity="0.7">
    <g class="spawningMap-rare">
        <rect x="45" y="233" width="45" height="38" />
    </g>
    <g class="spawningMap-uncommon">
        <rect x="33" y="233" width="12" height="52" />
        <rect x="23" y="208" width="12" height="52" />
        <rect x="23" y="164" width="12" height="46" />
        <rect x="23" y="125" width="12" height="41" />
        <rect x="33" y="183" width="12" height="52" />
        <rect x="33" y="140" width="12" height="45" />
        <rect x="145" y="225" width="55" height="12" />
        <rect x="199" y="222" width="54" height="12" />
        <rect x="17" y="57" width="12" height="45" />
        <rect x="262" y="181" width="12" height="52" />
        <rect x="262" y="137" width="12" height="45" />
        <rect x="262" y="94" width="12" height="45" />
    </g>
    <g class="spawningMap-very-uncommon">
        <rect x="28" y="43" width="51" height="14" />
        <rect x="156" y="42" width="55" height="12" />
        <rect x="216" y="29" width="54" height="12" />
    </g></g>
</svg>