<svg xmlns="http://www.w3.org/2000/svg" width="300" height="300" viewBox="0 0 300 300" class="creatureMap" style="position:absolute;">
<defs>
<filter id="blur" x="-30%" y="-30%" width="160%" height="160%"><feGaussianBlur stdDeviation="3" />
</filter>
<pattern id="pattern-untameable" width="10" height="10" patternTransform="rotate(135)" patternUnits="userSpaceOnUse"><rect width="4" height="10" fill="black"></rect>
</pattern>
<filter id="groupStroke"><feFlood result="outsideColor" flood-color="black"/><feMorphology in="SourceAlpha" operator="dilate" radius="2"/><feComposite result="strokeoutline1" in="outsideColor" operator="in"/><feComposite result="strokeoutline2" in="strokeoutline1" in2="SourceAlpha" operator="out"/><feGaussianBlur in="strokeoutline2" result="strokeblur" stdDeviation="1"/>
</filter>
<style>
.spawningMap-very-common { fill: #0F0;}
.spawningMap-common { fill: #B2FF00;}
.spawningMap-uncommon { fill: #FF0;}
.spawningMap-very-uncommon { fill: #FC0;}
.spawningMap-rare { fill: #F60;}
.spawningMap-very-rare { fill: #F00; }.spawning-map-point {stroke:black; stroke-width:1;}
</style>
</defs>
<g filter="url(#blur)" opacity="0.7">
<g class="spawningMap-common"><rect x="194" y="126" width="11" height="13" />
</g>
<g class="spawningMap-very-common"><rect x="68" y="253" width="6" height="6" /><rect x="141" y="114" width="6" height="6" /><rect x="141" y="107" width="6" height="7" /><rect x="134" y="114" width="6" height="6" /><rect x="134" y="107" width="6" height="7" /><rect x="128" y="114" width="6" height="6" /><rect x="128" y="107" width="6" height="7" /><rect x="121" y="114" width="6" height="6" /><rect x="121" y="107" width="6" height="7" /><rect x="110" y="221" width="9" height="7" /><rect x="195" y="196" width="12" height="13" /><rect x="121" y="212" width="8" height="8" /><rect x="205" y="238" width="12" height="13" /><rect x="205" y="224" width="12" height="13" /><rect x="195" y="210" width="12" height="13" /><rect x="72" y="67" width="12" height="5" /><rect x="67" y="73" width="9" height="7" /><rect x="130" y="212" width="8" height="8" /><rect x="110" y="212" width="9" height="8" /><rect x="83" y="72" width="3" height="2" /><rect x="88" y="66" width="4" height="3" /><rect x="72" y="63" width="5" height="4" /><rect x="71" y="60" width="5" height="4" /><rect x="69" y="57" width="5" height="5" /><rect x="64" y="52" width="7" height="7" /><rect x="77" y="75" width="2" height="5" /><rect x="85" y="68" width="5" height="3" /><rect x="126" y="71" width="5" height="5" /><rect x="219" y="93" width="5" height="5" /><rect x="131" y="193" width="3" height="2" /><rect x="201" y="121" width="6" height="5" /><rect x="96" y="183" width="3" height="4" /><rect x="78" y="79" width="6" height="5" /><rect x="136" y="74" width="7" height="6" /><rect x="132" y="70" width="5" height="7" /><rect x="98" y="178" width="4" height="4" /><rect x="116" y="176" width="5" height="6" /><rect x="83" y="54" width="3" height="2" /><rect x="113" y="189" width="4" height="4" /><rect x="98" y="197" width="7" height="4" /><rect x="150" y="192" width="4" height="5" /><rect x="62" y="78" width="1" height="2" /><rect x="234" y="114" width="3" height="4" /><rect x="85" y="81" width="4" height="5" /><rect x="80" y="84" width="5" height="2" />
</g>
</g>
<g class="spawning-map-point" opacity="0.8">
</g>
</svg>