<svg xmlns="http://www.w3.org/2000/svg" width="300" height="300" viewBox="0 0 300 300" class="creatureMap" style="position:absolute;">
<defs>
<filter id="blur" x="-30%" y="-30%" width="160%" height="160%"><feGaussianBlur stdDeviation="3" />
</filter>
<pattern id="pattern-untameable" width="10" height="10" patternTransform="rotate(135)" patternUnits="userSpaceOnUse"><rect width="4" height="10" fill="black"></rect>
</pattern>
<filter id="groupStroke"><feFlood result="outsideColor" flood-color="black"/><feMorphology in="SourceAlpha" operator="dilate" radius="2"/><feComposite result="strokeoutline1" in="outsideColor" operator="in"/><feComposite result="strokeoutline2" in="strokeoutline1" in2="SourceAlpha" operator="out"/><feGaussianBlur in="strokeoutline2" result="strokeblur" stdDeviation="1"/>
</filter>
<style>
.spawningMap-very-common { fill: #0F0;}
.spawningMap-common { fill: #B2FF00;}
.spawningMap-uncommon { fill: #FF0;}
.spawningMap-very-uncommon { fill: #FC0;}
.spawningMap-rare { fill: #F60;}
.spawningMap-very-rare { fill: #F00; }.spawning-map-point {stroke:black; stroke-width:1;}
</style>
</defs>
<g filter="url(#blur)" opacity="0.7">
<g class="spawningMap-very-rare"><rect x="216" y="269" width="9" height="10" /><rect x="216" y="259" width="9" height="9" /><rect x="216" y="248" width="9" height="10" /><rect x="216" y="238" width="9" height="9" /><rect x="226" y="238" width="10" height="9" /><rect x="226" y="259" width="10" height="9" /><rect x="226" y="269" width="10" height="10" /><rect x="237" y="269" width="9" height="10" /><rect x="247" y="269" width="10" height="10" /><rect x="237" y="259" width="9" height="9" /><rect x="247" y="259" width="10" height="9" /><rect x="258" y="259" width="9" height="9" /><rect x="237" y="248" width="9" height="10" /><rect x="237" y="238" width="9" height="9" /><rect x="247" y="238" width="10" height="9" /><rect x="247" y="248" width="10" height="10" /><rect x="258" y="248" width="9" height="10" /><rect x="258" y="238" width="9" height="9" /><rect x="268" y="238" width="10" height="9" /><rect x="268" y="248" width="10" height="10" /><rect x="247" y="196" width="10" height="9" /><rect x="258" y="196" width="9" height="9" /><rect x="268" y="196" width="10" height="9" /><rect x="258" y="227" width="9" height="10" /><rect x="247" y="227" width="10" height="10" /><rect x="237" y="227" width="9" height="10" /><rect x="237" y="217" width="9" height="9" /><rect x="247" y="217" width="10" height="9" /><rect x="247" y="206" width="10" height="10" /><rect x="237" y="206" width="9" height="10" /><rect x="226" y="227" width="10" height="10" />
</g>
<g class="spawningMap-rare"><rect x="16" y="196" width="10" height="9" /><rect x="16" y="248" width="10" height="10" /><rect x="16" y="238" width="10" height="9" /><rect x="27" y="238" width="9" height="9" /><rect x="27" y="248" width="9" height="10" /><rect x="37" y="280" width="10" height="9" /><rect x="37" y="248" width="10" height="10" /><rect x="37" y="238" width="10" height="9" /><rect x="174" y="280" width="9" height="9" /><rect x="289" y="175" width="10" height="9" /><rect x="69" y="185" width="9" height="10" /><rect x="79" y="196" width="10" height="9" /><rect x="90" y="196" width="9" height="9" /><rect x="90" y="206" width="9" height="10" /><rect x="79" y="206" width="10" height="10" /><rect x="69" y="206" width="9" height="10" /><rect x="69" y="217" width="9" height="9" /><rect x="79" y="217" width="10" height="9" /><rect x="90" y="217" width="9" height="9" /><rect x="79" y="227" width="10" height="10" /><rect x="69" y="227" width="9" height="10" /><rect x="58" y="227" width="10" height="10" /><rect x="58" y="217" width="10" height="9" /><rect x="58" y="206" width="10" height="10" /><rect x="58" y="196" width="10" height="9" /><rect x="58" y="185" width="10" height="10" /><rect x="48" y="185" width="9" height="10" /><rect x="48" y="196" width="9" height="9" /><rect x="48" y="206" width="9" height="10" /><rect x="48" y="217" width="9" height="9" /><rect x="48" y="227" width="9" height="10" /><rect x="37" y="227" width="10" height="10" /><rect x="37" y="217" width="10" height="9" /><rect x="37" y="206" width="10" height="10" /><rect x="37" y="196" width="10" height="9" /><rect x="27" y="196" width="9" height="9" /><rect x="27" y="206" width="9" height="10" /><rect x="27" y="217" width="9" height="9" /><rect x="27" y="227" width="9" height="10" /><rect x="16" y="227" width="10" height="10" /><rect x="16" y="217" width="10" height="9" /><rect x="16" y="206" width="10" height="10" />
</g>
<g class="spawningMap-uncommon"><rect x="37" y="259" width="10" height="9" /><rect x="48" y="259" width="9" height="9" /><rect x="48" y="269" width="9" height="10" /><rect x="58" y="269" width="10" height="10" /><rect x="58" y="280" width="10" height="9" /><rect x="58" y="259" width="10" height="9" /><rect x="58" y="248" width="10" height="10" /><rect x="69" y="248" width="9" height="10" /><rect x="69" y="259" width="9" height="9" /><rect x="79" y="269" width="10" height="10" /><rect x="79" y="259" width="10" height="9" /><rect x="79" y="248" width="10" height="10" /><rect x="79" y="238" width="10" height="9" /><rect x="90" y="238" width="9" height="9" /><rect x="90" y="248" width="9" height="10" /><rect x="90" y="259" width="9" height="9" /><rect x="90" y="269" width="9" height="10" /><rect x="100" y="259" width="10" height="9" /><rect x="100" y="248" width="10" height="10" /><rect x="100" y="238" width="10" height="9" /><rect x="111" y="248" width="9" height="10" /><rect x="111" y="259" width="9" height="9" /><rect x="111" y="269" width="9" height="10" /><rect x="121" y="269" width="10" height="10" /><rect x="121" y="259" width="10" height="9" /><rect x="132" y="259" width="9" height="9" /><rect x="121" y="248" width="10" height="10" /><rect x="132" y="248" width="9" height="10" /><rect x="121" y="238" width="10" height="9" /><rect x="132" y="238" width="9" height="9" /><rect x="111" y="227" width="9" height="10" /><rect x="100" y="227" width="10" height="10" /><rect x="90" y="227" width="9" height="10" /><rect x="6" y="269" width="9" height="10" /><rect x="121" y="227" width="10" height="10" /><rect x="111" y="238" width="9" height="9" /><rect x="6" y="280" width="9" height="9" /><rect x="6" y="290" width="9" height="10" /><rect x="16" y="280" width="10" height="9" /><rect x="16" y="269" width="10" height="10" /><rect x="16" y="259" width="10" height="9" /><rect x="27" y="259" width="9" height="9" /><rect x="27" y="269" width="9" height="10" /><rect x="27" y="280" width="9" height="9" /><rect x="37" y="269" width="10" height="10" />
</g>
</g>
<g class="spawning-map-point" opacity="0.8">
</g>
</svg>