<?xml version="1.0" encoding="utf-8"?>
<svg xmlns="http://www.w3.org/2000/svg" width="300" height="300"
        viewBox="0 0 300 300" class="creatureMap" style="position:absolute;">
    <defs>
        <filter id="blur" x="-30%" y="-30%" width="160%" height="160%">
            <feGaussianBlur stdDeviation="3" />
        </filter>
        <pattern id="pattern-untameable" width="10" height="10" patternTransform="rotate(135)" patternUnits="userSpaceOnUse">
            <rect width="4" height="10" fill="black"></rect>
        </pattern>
        <filter id="groupStroke">
            <feFlood result="outsideColor" flood-color="black"/>
            <feMorphology in="SourceAlpha" operator="dilate" radius="2"/>
            <feComposite result="strokeoutline1" in="outsideColor" operator="in"/>
            <feComposite result="strokeoutline2" in="strokeoutline1" in2="SourceAlpha" operator="out"/>
            <feGaussianBlur in="strokeoutline2" result="strokeblur" stdDeviation="1"/>
        </filter>
        <style>
            .spawningMap-very-common { fill: #0F0; }
            .spawningMap-common { fill: #B2FF00; }
            .spawningMap-uncommon { fill: #FF0; }
            .spawningMap-very-uncommon { fill: #FC0; }
            .spawningMap-rare { fill: #F60; }
            .spawningMap-very-rare { fill: #F00; }
            .spawning-map-point { stroke:black; stroke-width:1; }
        </style>
    </defs>

<g filter="url(#blur)" opacity="0.7">
<g class="spawningMap-common">
<rect x="41" y="25" width="21" height="19" />
</g>
<g class="spawningMap-very-common">
<rect x="213" y="270" width="20" height="19" />
<rect x="229" y="270" width="21" height="19" />
<rect x="246" y="270" width="20" height="19" />
<rect x="262" y="270" width="21" height="19" />
<rect x="279" y="270" width="20" height="19" />
<rect x="229" y="256" width="21" height="19" />
<rect x="246" y="256" width="20" height="19" />
<rect x="262" y="256" width="21" height="19" />
<rect x="279" y="256" width="20" height="19" />
<rect x="229" y="242" width="21" height="19" />
<rect x="246" y="242" width="20" height="19" />
<rect x="262" y="242" width="21" height="19" />
<rect x="279" y="242" width="20" height="19" />
<rect x="229" y="228" width="21" height="19" />
<rect x="246" y="228" width="20" height="19" />
<rect x="262" y="228" width="21" height="19" />
<rect x="279" y="228" width="20" height="19" />
<rect x="229" y="214" width="21" height="19" />
<rect x="246" y="214" width="20" height="19" />
<rect x="262" y="214" width="21" height="19" />
<rect x="279" y="214" width="20" height="19" />
<rect x="246" y="200" width="20" height="19" />
<rect x="262" y="200" width="21" height="19" />
<rect x="279" y="200" width="20" height="19" />
<rect x="246" y="186" width="20" height="19" />
<rect x="262" y="186" width="21" height="19" />
<rect x="279" y="186" width="20" height="19" />
<rect x="213" y="228" width="20" height="19" />
<rect x="213" y="214" width="20" height="19" />
<rect x="42" y="153" width="21" height="21" />
<rect x="42" y="80" width="22" height="19" />
<rect x="42" y="169" width="21" height="20" />
<rect x="25" y="25" width="21" height="19" />
<rect x="41" y="10" width="21" height="20" />
<rect x="25" y="10" width="21" height="20" />
<rect x="9" y="40" width="21" height="18" />
<rect x="9" y="53" width="21" height="19" />
<rect x="107" y="67" width="19" height="19" />
<rect x="92" y="67" width="20" height="19" />
<rect x="136" y="67" width="19" height="19" />
<rect x="136" y="81" width="19" height="18" />
<rect x="0" y="124" width="13" height="19" />
<rect x="42" y="67" width="22" height="18" />
<rect x="42" y="138" width="21" height="19" />
<rect x="42" y="109" width="22" height="19" />
<rect x="26" y="271" width="21" height="25" />
<rect x="76" y="165" width="8" height="8" />
<rect x="231" y="187" width="21" height="19" />
<rect x="231" y="201" width="21" height="18" />
<rect x="214" y="187" width="21" height="19" />
<rect x="180" y="244" width="21" height="18" />
<rect x="180" y="271" width="21" height="18" />
<rect x="196" y="271" width="21" height="18" />
<rect x="212" y="257" width="21" height="18" />
<rect x="212" y="244" width="21" height="18" />
<rect x="121" y="270" width="19" height="19" />
<rect x="136" y="200" width="19" height="20" />
<rect x="150" y="169" width="20" height="20" />
<rect x="197" y="95" width="21" height="19" />
<rect x="188" y="104" width="14" height="17" />
<rect x="0" y="215" width="13" height="19" />
<rect x="0" y="153" width="13" height="21" />
<rect x="214" y="201" width="21" height="18" />
<rect x="196" y="257" width="21" height="19" />
<rect x="60" y="242" width="21" height="19" />
<rect x="60" y="256" width="21" height="19" />
<rect x="77" y="242" width="21" height="19" />
<rect x="77" y="256" width="21" height="19" />
<rect x="93" y="256" width="19" height="19" />
<rect x="107" y="242" width="18" height="19" />
<rect x="107" y="256" width="18" height="19" />
<rect x="93" y="242" width="19" height="19" />
<rect x="60" y="216" width="21" height="18" />
<rect x="60" y="229" width="21" height="19" />
<rect x="180" y="229" width="21" height="18" />
<rect x="77" y="216" width="21" height="18" />
<rect x="77" y="229" width="21" height="19" />
<rect x="93" y="229" width="18" height="18" />
<rect x="107" y="215" width="18" height="19" />
<rect x="107" y="229" width="18" height="18" />
<rect x="93" y="215" width="18" height="19" />
<rect x="60" y="185" width="21" height="20" />
<rect x="60" y="200" width="21" height="20" />
<rect x="77" y="185" width="21" height="20" />
<rect x="77" y="200" width="21" height="20" />
<rect x="196" y="216" width="21" height="18" />
<rect x="93" y="200" width="19" height="20" />
<rect x="107" y="185" width="18" height="20" />
<rect x="107" y="200" width="18" height="20" />
<rect x="93" y="185" width="19" height="20" />
<rect x="197" y="67" width="21" height="19" />
<rect x="60" y="153" width="21" height="21" />
<rect x="60" y="169" width="21" height="20" />
<rect x="76" y="153" width="21" height="21" />
<rect x="76" y="169" width="21" height="20" />
<rect x="93" y="153" width="19" height="21" />
<rect x="196" y="229" width="21" height="18" />
<rect x="93" y="169" width="19" height="21" />
<rect x="107" y="153" width="18" height="21" />
<rect x="107" y="169" width="18" height="21" />
<rect x="60" y="124" width="21" height="19" />
<rect x="60" y="138" width="21" height="19" />
<rect x="76" y="124" width="21" height="19" />
<rect x="76" y="138" width="21" height="19" />
<rect x="93" y="138" width="19" height="19" />
<rect x="107" y="138" width="18" height="19" />
<rect x="60" y="95" width="21" height="19" />
<rect x="180" y="216" width="21" height="18" />
<rect x="60" y="109" width="21" height="19" />
<rect x="76" y="95" width="21" height="19" />
<rect x="76" y="109" width="21" height="19" />
<rect x="93" y="109" width="19" height="19" />
<rect x="107" y="109" width="18" height="19" />
<rect x="60" y="66" width="21" height="19" />
<rect x="60" y="80" width="21" height="19" />
<rect x="76" y="66" width="21" height="19" />
<rect x="76" y="80" width="21" height="19" />
<rect x="197" y="81" width="21" height="19" />
<rect x="121" y="284" width="19" height="16" />
<rect x="121" y="256" width="19" height="19" />
<rect x="135" y="270" width="20" height="19" />
<rect x="136" y="242" width="19" height="19" />
<rect x="136" y="256" width="19" height="19" />
<rect x="121" y="242" width="19" height="19" />
<rect x="121" y="242" width="19" height="19" />
<rect x="150" y="256" width="19" height="19" />
<rect x="165" y="243" width="19" height="18" />
<rect x="165" y="256" width="19" height="19" />
<rect x="121" y="215" width="19" height="19" />
<rect x="121" y="229" width="19" height="18" />
<rect x="136" y="215" width="19" height="19" />
<rect x="136" y="229" width="19" height="18" />
<rect x="150" y="216" width="19" height="18" />
<rect x="150" y="229" width="19" height="18" />
<rect x="165" y="216" width="19" height="18" />
<rect x="165" y="229" width="19" height="18" />
<rect x="121" y="200" width="19" height="20" />
<rect x="136" y="185" width="19" height="20" />
<rect x="121" y="185" width="19" height="20" />
<rect x="150" y="185" width="19" height="20" />
<rect x="150" y="200" width="19" height="20" />
<rect x="165" y="185" width="19" height="20" />
<rect x="165" y="185" width="19" height="20" />
<rect x="121" y="153" width="19" height="21" />
<rect x="121" y="169" width="19" height="20" />
<rect x="136" y="153" width="19" height="21" />
<rect x="136" y="169" width="19" height="20" />
<rect x="150" y="153" width="20" height="21" />
<rect x="122" y="138" width="19" height="19" />
<rect x="136" y="124" width="19" height="19" />
<rect x="136" y="138" width="19" height="19" />
<rect x="151" y="138" width="19" height="20" />
<rect x="165" y="124" width="19" height="19" />
<rect x="165" y="138" width="19" height="20" />
<rect x="122" y="95" width="19" height="19" />
<rect x="122" y="109" width="19" height="19" />
<rect x="136" y="95" width="19" height="19" />
<rect x="180" y="186" width="21" height="19" />
<rect x="180" y="200" width="21" height="19" />
<rect x="197" y="186" width="21" height="19" />
<rect x="197" y="200" width="21" height="19" />
<rect x="180" y="169" width="21" height="21" />
<rect x="197" y="169" width="21" height="21" />
<rect x="180" y="153" width="21" height="21" />
<rect x="214" y="153" width="22" height="21" />
<rect x="214" y="169" width="22" height="20" />
<rect x="231" y="153" width="21" height="21" />
<rect x="231" y="169" width="21" height="20" />
<rect x="180" y="124" width="21" height="19" />
<rect x="180" y="138" width="21" height="20" />
<rect x="197" y="124" width="21" height="19" />
<rect x="197" y="138" width="21" height="20" />
<rect x="214" y="122" width="22" height="20" />
<rect x="214" y="137" width="22" height="21" />
<rect x="231" y="122" width="21" height="20" />
<rect x="231" y="137" width="21" height="21" />
<rect x="43" y="271" width="22" height="25" />
<rect x="0" y="80" width="13" height="19" />
<rect x="27" y="242" width="20" height="19" />
<rect x="27" y="256" width="20" height="18" />
<rect x="43" y="242" width="21" height="19" />
<rect x="43" y="256" width="21" height="18" />
<rect x="0" y="256" width="13" height="19" />
<rect x="9" y="243" width="21" height="18" />
<rect x="9" y="67" width="21" height="18" />
<rect x="9" y="256" width="21" height="19" />
<rect x="0" y="243" width="13" height="18" />
<rect x="0" y="109" width="13" height="20" />
<rect x="9" y="80" width="21" height="19" />
<rect x="9" y="93" width="21" height="21" />
<rect x="9" y="109" width="21" height="20" />
<rect x="0" y="93" width="13" height="21" />
<rect x="214" y="108" width="22" height="18" />
<rect x="231" y="95" width="22" height="18" />
<rect x="231" y="108" width="22" height="18" />
<rect x="214" y="95" width="22" height="18" />
<rect x="0" y="25" width="13" height="19" />
<rect x="9" y="10" width="21" height="20" />
<rect x="9" y="25" width="21" height="19" />
<rect x="0" y="10" width="13" height="20" />
<rect x="180" y="95" width="21" height="19" />
<rect x="75" y="10" width="20" height="20" />
<rect x="75" y="25" width="20" height="19" />
<rect x="58" y="10" width="21" height="20" />
<rect x="91" y="23" width="21" height="19" />
<rect x="107" y="8" width="21" height="19" />
<rect x="107" y="23" width="21" height="19" />
<rect x="91" y="8" width="21" height="19" />
<rect x="92" y="52" width="20" height="19" />
<rect x="107" y="37" width="19" height="20" />
<rect x="26" y="95" width="21" height="19" />
<rect x="107" y="52" width="19" height="19" />
<rect x="92" y="37" width="20" height="20" />
<rect x="121" y="52" width="19" height="19" />
<rect x="136" y="37" width="19" height="20" />
<rect x="121" y="37" width="19" height="20" />
<rect x="9" y="215" width="21" height="19" />
<rect x="9" y="229" width="21" height="19" />
<rect x="0" y="229" width="13" height="19" />
<rect x="43" y="216" width="21" height="18" />
<rect x="193" y="95" width="17" height="15" />
<rect x="43" y="229" width="21" height="18" />
<rect x="27" y="216" width="20" height="18" />
<rect x="27" y="229" width="20" height="18" />
<rect x="26" y="109" width="21" height="19" />
<rect x="42" y="95" width="22" height="19" />
<rect x="0" y="200" width="13" height="20" />
<rect x="43" y="185" width="21" height="20" />
<rect x="43" y="200" width="21" height="20" />
<rect x="27" y="185" width="20" height="20" />
<rect x="27" y="200" width="20" height="20" />
<rect x="0" y="169" width="13" height="20" />
<rect x="9" y="153" width="21" height="21" />
<rect x="9" y="169" width="21" height="20" />
<rect x="0" y="184" width="13" height="20" />
<rect x="26" y="153" width="21" height="21" />
<rect x="0" y="138" width="13" height="19" />
<rect x="9" y="124" width="21" height="19" />
<rect x="180" y="67" width="21" height="19" />
<rect x="9" y="138" width="21" height="19" />
<rect x="26" y="169" width="21" height="20" />
<rect x="26" y="138" width="21" height="19" />
<rect x="42" y="124" width="21" height="19" />
<rect x="26" y="124" width="21" height="19" />
<rect x="180" y="81" width="21" height="19" />
<rect x="26" y="80" width="21" height="19" />
<rect x="26" y="67" width="21" height="18" />
<rect x="4" y="270" width="26" height="25" />
<rect x="180" y="257" width="21" height="19" />
<rect x="77" y="271" width="21" height="25" />
<rect x="60" y="271" width="21" height="25" />
<rect x="93" y="283" width="19" height="17" />
<rect x="107" y="270" width="18" height="18" />
<rect x="107" y="283" width="18" height="17" />
<rect x="93" y="270" width="19" height="18" />
<rect x="52" y="83" width="10" height="10" />
</g>
</g>
<g fill="url(#pattern-untameable)" opacity="0.3">
<rect x="41" y="25" width="21" height="19"/>
<rect x="213" y="270" width="20" height="19"/>
<rect x="229" y="270" width="21" height="19"/>
<rect x="246" y="270" width="20" height="19"/>
<rect x="262" y="270" width="21" height="19"/>
<rect x="279" y="270" width="20" height="19"/>
<rect x="229" y="256" width="21" height="19"/>
<rect x="246" y="256" width="20" height="19"/>
<rect x="262" y="256" width="21" height="19"/>
<rect x="279" y="256" width="20" height="19"/>
<rect x="229" y="242" width="21" height="19"/>
<rect x="246" y="242" width="20" height="19"/>
<rect x="262" y="242" width="21" height="19"/>
<rect x="279" y="242" width="20" height="19"/>
<rect x="229" y="228" width="21" height="19"/>
<rect x="246" y="228" width="20" height="19"/>
<rect x="262" y="228" width="21" height="19"/>
<rect x="279" y="228" width="20" height="19"/>
<rect x="229" y="214" width="21" height="19"/>
<rect x="246" y="214" width="20" height="19"/>
<rect x="262" y="214" width="21" height="19"/>
<rect x="279" y="214" width="20" height="19"/>
<rect x="246" y="200" width="20" height="19"/>
<rect x="262" y="200" width="21" height="19"/>
<rect x="279" y="200" width="20" height="19"/>
<rect x="246" y="186" width="20" height="19"/>
<rect x="262" y="186" width="21" height="19"/>
<rect x="279" y="186" width="20" height="19"/>
<rect x="213" y="228" width="20" height="19"/>
<rect x="213" y="214" width="20" height="19"/>
<rect x="42" y="153" width="21" height="21"/>
<rect x="42" y="80" width="22" height="19"/>
<rect x="42" y="169" width="21" height="20"/>
<rect x="25" y="25" width="21" height="19"/>
<rect x="41" y="10" width="21" height="20"/>
<rect x="25" y="10" width="21" height="20"/>
<rect x="9" y="40" width="21" height="18"/>
<rect x="9" y="53" width="21" height="19"/>
<rect x="107" y="67" width="19" height="19"/>
<rect x="92" y="67" width="20" height="19"/>
<rect x="136" y="67" width="19" height="19"/>
<rect x="136" y="81" width="19" height="18"/>
<rect x="0" y="124" width="13" height="19"/>
<rect x="42" y="67" width="22" height="18"/>
<rect x="42" y="138" width="21" height="19"/>
<rect x="42" y="109" width="22" height="19"/>
<rect x="26" y="271" width="21" height="25"/>
<rect x="76" y="165" width="8" height="8"/>
<rect x="231" y="187" width="21" height="19"/>
<rect x="231" y="201" width="21" height="18"/>
<rect x="214" y="187" width="21" height="19"/>
<rect x="180" y="244" width="21" height="18"/>
<rect x="180" y="271" width="21" height="18"/>
<rect x="196" y="271" width="21" height="18"/>
<rect x="212" y="257" width="21" height="18"/>
<rect x="212" y="244" width="21" height="18"/>
<rect x="121" y="270" width="19" height="19"/>
<rect x="136" y="200" width="19" height="20"/>
<rect x="150" y="169" width="20" height="20"/>
<rect x="197" y="95" width="21" height="19"/>
<rect x="188" y="104" width="14" height="17"/>
<rect x="0" y="215" width="13" height="19"/>
<rect x="0" y="153" width="13" height="21"/>
<rect x="214" y="201" width="21" height="18"/>
<rect x="196" y="257" width="21" height="19"/>
<rect x="60" y="242" width="21" height="19"/>
<rect x="60" y="256" width="21" height="19"/>
<rect x="77" y="242" width="21" height="19"/>
<rect x="77" y="256" width="21" height="19"/>
<rect x="93" y="256" width="19" height="19"/>
<rect x="107" y="242" width="18" height="19"/>
<rect x="107" y="256" width="18" height="19"/>
<rect x="93" y="242" width="19" height="19"/>
<rect x="60" y="216" width="21" height="18"/>
<rect x="60" y="229" width="21" height="19"/>
<rect x="180" y="229" width="21" height="18"/>
<rect x="77" y="216" width="21" height="18"/>
<rect x="77" y="229" width="21" height="19"/>
<rect x="93" y="229" width="18" height="18"/>
<rect x="107" y="215" width="18" height="19"/>
<rect x="107" y="229" width="18" height="18"/>
<rect x="93" y="215" width="18" height="19"/>
<rect x="60" y="185" width="21" height="20"/>
<rect x="60" y="200" width="21" height="20"/>
<rect x="77" y="185" width="21" height="20"/>
<rect x="77" y="200" width="21" height="20"/>
<rect x="196" y="216" width="21" height="18"/>
<rect x="93" y="200" width="19" height="20"/>
<rect x="107" y="185" width="18" height="20"/>
<rect x="107" y="200" width="18" height="20"/>
<rect x="93" y="185" width="19" height="20"/>
<rect x="197" y="67" width="21" height="19"/>
<rect x="60" y="153" width="21" height="21"/>
<rect x="60" y="169" width="21" height="20"/>
<rect x="76" y="153" width="21" height="21"/>
<rect x="76" y="169" width="21" height="20"/>
<rect x="93" y="153" width="19" height="21"/>
<rect x="196" y="229" width="21" height="18"/>
<rect x="93" y="169" width="19" height="21"/>
<rect x="107" y="153" width="18" height="21"/>
<rect x="107" y="169" width="18" height="21"/>
<rect x="60" y="124" width="21" height="19"/>
<rect x="60" y="138" width="21" height="19"/>
<rect x="76" y="124" width="21" height="19"/>
<rect x="76" y="138" width="21" height="19"/>
<rect x="93" y="138" width="19" height="19"/>
<rect x="107" y="138" width="18" height="19"/>
<rect x="60" y="95" width="21" height="19"/>
<rect x="180" y="216" width="21" height="18"/>
<rect x="60" y="109" width="21" height="19"/>
<rect x="76" y="95" width="21" height="19"/>
<rect x="76" y="109" width="21" height="19"/>
<rect x="93" y="109" width="19" height="19"/>
<rect x="107" y="109" width="18" height="19"/>
<rect x="60" y="66" width="21" height="19"/>
<rect x="60" y="80" width="21" height="19"/>
<rect x="76" y="66" width="21" height="19"/>
<rect x="76" y="80" width="21" height="19"/>
<rect x="197" y="81" width="21" height="19"/>
<rect x="121" y="284" width="19" height="16"/>
<rect x="121" y="256" width="19" height="19"/>
<rect x="135" y="270" width="20" height="19"/>
<rect x="136" y="242" width="19" height="19"/>
<rect x="136" y="256" width="19" height="19"/>
<rect x="121" y="242" width="19" height="19"/>
<rect x="121" y="242" width="19" height="19"/>
<rect x="150" y="256" width="19" height="19"/>
<rect x="165" y="243" width="19" height="18"/>
<rect x="165" y="256" width="19" height="19"/>
<rect x="121" y="215" width="19" height="19"/>
<rect x="121" y="229" width="19" height="18"/>
<rect x="136" y="215" width="19" height="19"/>
<rect x="136" y="229" width="19" height="18"/>
<rect x="150" y="216" width="19" height="18"/>
<rect x="150" y="229" width="19" height="18"/>
<rect x="165" y="216" width="19" height="18"/>
<rect x="165" y="229" width="19" height="18"/>
<rect x="121" y="200" width="19" height="20"/>
<rect x="136" y="185" width="19" height="20"/>
<rect x="121" y="185" width="19" height="20"/>
<rect x="150" y="185" width="19" height="20"/>
<rect x="150" y="200" width="19" height="20"/>
<rect x="165" y="185" width="19" height="20"/>
<rect x="165" y="185" width="19" height="20"/>
<rect x="121" y="153" width="19" height="21"/>
<rect x="121" y="169" width="19" height="20"/>
<rect x="136" y="153" width="19" height="21"/>
<rect x="136" y="169" width="19" height="20"/>
<rect x="150" y="153" width="20" height="21"/>
<rect x="122" y="138" width="19" height="19"/>
<rect x="136" y="124" width="19" height="19"/>
<rect x="136" y="138" width="19" height="19"/>
<rect x="151" y="138" width="19" height="20"/>
<rect x="165" y="124" width="19" height="19"/>
<rect x="165" y="138" width="19" height="20"/>
<rect x="122" y="95" width="19" height="19"/>
<rect x="122" y="109" width="19" height="19"/>
<rect x="136" y="95" width="19" height="19"/>
<rect x="180" y="186" width="21" height="19"/>
<rect x="180" y="200" width="21" height="19"/>
<rect x="197" y="186" width="21" height="19"/>
<rect x="197" y="200" width="21" height="19"/>
<rect x="180" y="169" width="21" height="21"/>
<rect x="197" y="169" width="21" height="21"/>
<rect x="180" y="153" width="21" height="21"/>
<rect x="214" y="153" width="22" height="21"/>
<rect x="214" y="169" width="22" height="20"/>
<rect x="231" y="153" width="21" height="21"/>
<rect x="231" y="169" width="21" height="20"/>
<rect x="180" y="124" width="21" height="19"/>
<rect x="180" y="138" width="21" height="20"/>
<rect x="197" y="124" width="21" height="19"/>
<rect x="197" y="138" width="21" height="20"/>
<rect x="214" y="122" width="22" height="20"/>
<rect x="214" y="137" width="22" height="21"/>
<rect x="231" y="122" width="21" height="20"/>
<rect x="231" y="137" width="21" height="21"/>
<rect x="43" y="271" width="22" height="25"/>
<rect x="0" y="80" width="13" height="19"/>
<rect x="27" y="242" width="20" height="19"/>
<rect x="27" y="256" width="20" height="18"/>
<rect x="43" y="242" width="21" height="19"/>
<rect x="43" y="256" width="21" height="18"/>
<rect x="0" y="256" width="13" height="19"/>
<rect x="9" y="243" width="21" height="18"/>
<rect x="9" y="67" width="21" height="18"/>
<rect x="9" y="256" width="21" height="19"/>
<rect x="0" y="243" width="13" height="18"/>
<rect x="0" y="109" width="13" height="20"/>
<rect x="9" y="80" width="21" height="19"/>
<rect x="9" y="93" width="21" height="21"/>
<rect x="9" y="109" width="21" height="20"/>
<rect x="0" y="93" width="13" height="21"/>
<rect x="214" y="108" width="22" height="18"/>
<rect x="231" y="95" width="22" height="18"/>
<rect x="231" y="108" width="22" height="18"/>
<rect x="214" y="95" width="22" height="18"/>
<rect x="0" y="25" width="13" height="19"/>
<rect x="9" y="10" width="21" height="20"/>
<rect x="9" y="25" width="21" height="19"/>
<rect x="0" y="10" width="13" height="20"/>
<rect x="180" y="95" width="21" height="19"/>
<rect x="75" y="10" width="20" height="20"/>
<rect x="75" y="25" width="20" height="19"/>
<rect x="58" y="10" width="21" height="20"/>
<rect x="91" y="23" width="21" height="19"/>
<rect x="107" y="8" width="21" height="19"/>
<rect x="107" y="23" width="21" height="19"/>
<rect x="91" y="8" width="21" height="19"/>
<rect x="92" y="52" width="20" height="19"/>
<rect x="107" y="37" width="19" height="20"/>
<rect x="26" y="95" width="21" height="19"/>
<rect x="107" y="52" width="19" height="19"/>
<rect x="92" y="37" width="20" height="20"/>
<rect x="121" y="52" width="19" height="19"/>
<rect x="136" y="37" width="19" height="20"/>
<rect x="121" y="37" width="19" height="20"/>
<rect x="9" y="215" width="21" height="19"/>
<rect x="9" y="229" width="21" height="19"/>
<rect x="0" y="229" width="13" height="19"/>
<rect x="43" y="216" width="21" height="18"/>
<rect x="193" y="95" width="17" height="15"/>
<rect x="43" y="229" width="21" height="18"/>
<rect x="27" y="216" width="20" height="18"/>
<rect x="27" y="229" width="20" height="18"/>
<rect x="26" y="109" width="21" height="19"/>
<rect x="42" y="95" width="22" height="19"/>
<rect x="0" y="200" width="13" height="20"/>
<rect x="43" y="185" width="21" height="20"/>
<rect x="43" y="200" width="21" height="20"/>
<rect x="27" y="185" width="20" height="20"/>
<rect x="27" y="200" width="20" height="20"/>
<rect x="0" y="169" width="13" height="20"/>
<rect x="9" y="153" width="21" height="21"/>
<rect x="9" y="169" width="21" height="20"/>
<rect x="0" y="184" width="13" height="20"/>
<rect x="26" y="153" width="21" height="21"/>
<rect x="0" y="138" width="13" height="19"/>
<rect x="9" y="124" width="21" height="19"/>
<rect x="180" y="67" width="21" height="19"/>
<rect x="9" y="138" width="21" height="19"/>
<rect x="26" y="169" width="21" height="20"/>
<rect x="26" y="138" width="21" height="19"/>
<rect x="42" y="124" width="21" height="19"/>
<rect x="26" y="124" width="21" height="19"/>
<rect x="180" y="81" width="21" height="19"/>
<rect x="26" y="80" width="21" height="19"/>
<rect x="26" y="67" width="21" height="18"/>
<rect x="4" y="270" width="26" height="25"/>
<rect x="180" y="257" width="21" height="19"/>
<rect x="77" y="271" width="21" height="25"/>
<rect x="60" y="271" width="21" height="25"/>
<rect x="93" y="283" width="19" height="17"/>
<rect x="107" y="270" width="18" height="18"/>
<rect x="107" y="283" width="18" height="17"/>
<rect x="93" y="270" width="19" height="18"/>
<rect x="52" y="83" width="10" height="10"/>
</g>
</svg>