<svg xmlns="http://www.w3.org/2000/svg" width="300" height="300" viewBox="0 0 300 300" class="creatureMap" style="position:absolute;">
<defs>
  <filter id="blur" x="-30%" y="-30%" width="160%" height="160%">
    <feGaussianBlur stdDeviation="3" />
</filter>
<pattern id="pattern-untameable" width="10" height="10" patternTransform="rotate(135)" patternUnits="userSpaceOnUse">
<rect width="4" height="10" fill="black"></rect>
</pattern><filter id="groupStroke"><feFlood result="outsideColor" flood-color="black"/><feMorphology in="SourceAlpha" operator="dilate" radius="2"/><feComposite result="strokeoutline1" in="outsideColor" operator="in"/><feComposite result="strokeoutline2" in="strokeoutline1" in2="SourceAlpha" operator="out"/><feGaussianBlur in="strokeoutline2" result="strokeblur" stdDeviation="1"/></filter><style>.spawningMap-very-common { fill: #0F0;}.spawningMap-common { fill: #B2FF00;}.spawningMap-uncommon { fill: #FF0;}.spawningMap-very-uncommon { fill: #FC0;}.spawningMap-rare { fill: #F60;}.spawningMap-very-rare { fill: #F00; }.spawning-map-point {stroke:black; stroke-width:1;}</style></defs>
<g filter="url(#blur)" opacity="0.7"><g class="spawningMap-common"><rect x="153" y="209" width="23" height="24" /></g><g class="spawningMap-very-common"><rect x="217" y="151" width="13" height="11" /><rect x="265" y="190" width="13" height="12" /><rect x="265" y="184" width="13" height="12" /><rect x="154" y="119" width="12" height="12" /><rect x="146" y="120" width="13" height="11" /><rect x="146" y="126" width="13" height="12" /><rect x="147" y="133" width="12" height="15" /><rect x="140" y="120" width="11" height="13" /><rect x="140" y="140" width="11" height="13" /><rect x="142" y="162" width="12" height="13" /><rect x="131" y="147" width="13" height="13" /><rect x="134" y="181" width="13" height="13" /><rect x="161" y="190" width="12" height="12" /><rect x="218" y="83" width="11" height="12" /><rect x="212" y="84" width="11" height="11" /><rect x="206" y="84" width="12" height="11" /><rect x="207" y="78" width="11" height="11" /><rect x="213" y="89" width="12" height="14" /><rect x="206" y="89" width="12" height="11" /><rect x="207" y="100" width="11" height="11" /><rect x="212" y="78" width="11" height="11" /><rect x="225" y="158" width="10" height="14" /><rect x="219" y="157" width="11" height="20" /><rect x="211" y="157" width="13" height="14" /><rect x="177" y="89" width="14" height="12" /><rect x="185" y="96" width="13" height="13" /><rect x="179" y="96" width="12" height="13" /><rect x="183" y="104" width="12" height="12" /><rect x="177" y="103" width="11" height="13" /><rect x="176" y="111" width="12" height="12" /><rect x="175" y="118" width="14" height="13" /><rect x="168" y="111" width="13" height="12" /><rect x="168" y="118" width="13" height="13" /><rect x="161" y="112" width="12" height="11" /><rect x="161" y="118" width="12" height="13" /><rect x="161" y="126" width="12" height="12" /><rect x="210" y="151" width="12" height="11" /><rect x="182" y="68" width="11" height="13" /><rect x="177" y="68" width="11" height="14" /><rect x="87" y="194" width="15" height="11" /><rect x="96" y="189" width="13" height="10" /><rect x="88" y="189" width="14" height="10" /><rect x="67" y="130" width="13" height="11" /><rect x="60" y="130" width="13" height="11" /><rect x="50" y="80" width="14" height="17" /><rect x="44" y="83" width="12" height="14" /><rect x="229" y="55" width="15" height="10" /><rect x="223" y="52" width="11" height="11" /><rect x="185" y="89" width="13" height="12" /><rect x="96" y="182" width="13" height="12" /><rect x="88" y="182" width="14" height="12" /><rect x="46" y="151" width="14" height="13" /><rect x="38" y="150" width="12" height="13" /><rect x="49" y="231" width="17" height="16" /><rect x="37" y="244" width="19" height="20" /><rect x="75" y="230" width="14" height="12" /><rect x="105" y="258" width="23" height="22" /><rect x="191" y="229" width="21" height="22" /><rect x="202" y="236" width="22" height="22" /><rect x="239" y="226" width="20" height="18" /><rect x="182" y="222" width="9" height="9" /><rect x="196" y="203" width="12" height="9" /><rect x="251" y="216" width="10" height="11" /><rect x="238" y="35" width="8" height="8" /><rect x="155" y="42" width="11" height="11" /><rect x="138" y="28" width="16" height="12" /><rect x="122" y="22" width="11" height="10" /><rect x="84" y="50" width="13" height="12" /><rect x="176" y="126" width="13" height="11" /><rect x="168" y="126" width="13" height="12" /><rect x="161" y="133" width="12" height="12" /><rect x="161" y="140" width="12" height="13" /><rect x="79" y="124" width="14" height="19" /><rect x="205" y="95" width="13" height="11" /><rect x="209" y="72" width="14" height="12" /><rect x="213" y="98" width="11" height="14" /><rect x="259" y="46" width="18" height="17" /><rect x="251" y="36" width="21" height="23" /><rect x="61" y="220" width="14" height="19" /><rect x="119" y="201" width="14" height="18" /><rect x="221" y="224" width="15" height="18" /><rect x="81" y="41" width="12" height="12" /><rect x="64" y="66" width="11" height="11" /><rect x="53" y="21" width="10" height="8" /><rect x="41" y="19" width="9" height="10" /><rect x="96" y="194" width="12" height="14" /><rect x="84" y="199" width="18" height="13" /><rect x="67" y="124" width="12" height="12" /><rect x="60" y="119" width="13" height="17" /><rect x="182" y="60" width="11" height="13" /><rect x="177" y="61" width="11" height="12" /><rect x="273" y="190" width="13" height="12" /><rect x="273" y="184" width="13" height="12" /><rect x="213" y="166" width="11" height="15" /><rect x="208" y="165" width="11" height="12" /><rect x="169" y="85" width="9" height="12" /><rect x="165" y="85" width="9" height="14" /><rect x="116" y="207" width="7" height="8" /></g></g>

<g fill="url(#pattern-untameable)" opacity="0.3"><rect x="116" y="207" width="7" height="8"/></g></svg>