<svg xmlns="http://www.w3.org/2000/svg" width="300" height="300" viewBox="0 0 300 300" class="creatureMap" style="position:absolute;">
<defs>
  <filter id="blur" x="-30%" y="-30%" width="160%" height="160%">
    <feGaussianBlur stdDeviation="3" />
</filter>
<pattern id="pattern-untameable" width="10" height="10" patternTransform="rotate(135)" patternUnits="userSpaceOnUse">
<rect width="4" height="10" fill="black"></rect>
</pattern><filter id="groupStroke"><feFlood result="outsideColor" flood-color="black"/><feMorphology in="SourceAlpha" operator="dilate" radius="2"/><feComposite result="strokeoutline1" in="outsideColor" operator="in"/><feComposite result="strokeoutline2" in="strokeoutline1" in2="SourceAlpha" operator="out"/><feGaussianBlur in="strokeoutline2" result="strokeblur" stdDeviation="1"/></filter><style>.spawningMap-very-common { fill: #0F0;}.spawningMap-common { fill: #B2FF00;}.spawningMap-uncommon { fill: #FF0;}.spawningMap-very-uncommon { fill: #FC0;}.spawningMap-rare { fill: #F60;}.spawningMap-very-rare { fill: #F00; }.spawning-map-point {stroke:black; stroke-width:1;}</style></defs>
<g class="spawning-map-point" opacity="0.8"><g class="spawningMap-very-rare"><circle cx="90" cy="189" r="4" /><circle cx="108" cy="191" r="4" /><circle cx="108" cy="201" r="4" /><circle cx="117" cy="202" r="4" /><circle cx="122" cy="208" r="4" /><circle cx="93" cy="213" r="4" /><circle cx="100" cy="214" r="4" /><circle cx="110" cy="212" r="4" /><circle cx="109" cy="215" r="4" /><circle cx="121" cy="218" r="4" /><circle cx="128" cy="218" r="4" /><circle cx="124" cy="223" r="4" /><circle cx="132" cy="221" r="4" /><circle cx="126" cy="230" r="4" /><circle cx="119" cy="233" r="4" /><circle cx="112" cy="231" r="4" /><circle cx="109" cy="228" r="4" /><circle cx="103" cy="231" r="4" /><circle cx="97" cy="227" r="4" /><circle cx="94" cy="222" r="4" /><circle cx="93" cy="229" r="4" /><circle cx="81" cy="224" r="4" /><circle cx="86" cy="230" r="4" /><circle cx="88" cy="236" r="4" /><circle cx="86" cy="239" r="4" /><circle cx="79" cy="245" r="4" /><circle cx="81" cy="237" r="4" /><circle cx="75" cy="239" r="4" /><circle cx="77" cy="227" r="4" /><circle cx="84" cy="228" r="4" /><circle cx="78" cy="225" r="4" /><circle cx="73" cy="220" r="4" /><circle cx="65" cy="219" r="4" /><circle cx="74" cy="226" r="4" /><circle cx="70" cy="235" r="4" /><circle cx="61" cy="229" r="4" /><circle cx="62" cy="231" r="4" /><circle cx="56" cy="243" r="4" /><circle cx="53" cy="255" r="4" /><circle cx="51" cy="239" r="4" /><circle cx="62" cy="242" r="4" /><circle cx="71" cy="250" r="4" /><circle cx="68" cy="258" r="4" /><circle cx="57" cy="259" r="4" /><circle cx="51" cy="251" r="4" /><circle cx="48" cy="255" r="4" /><circle cx="137" cy="207" r="4" /><circle cx="145" cy="213" r="4" /><circle cx="139" cy="219" r="4" /><circle cx="151" cy="218" r="4" /><circle cx="150" cy="237" r="4" /><circle cx="161" cy="252" r="4" /><circle cx="170" cy="260" r="4" /><circle cx="169" cy="268" r="4" /><circle cx="163" cy="284" r="4" /><circle cx="143" cy="293" r="4" /><circle cx="135" cy="286" r="4" /><circle cx="118" cy="295" r="4" /><circle cx="130" cy="268" r="4" /><circle cx="123" cy="264" r="4" /><circle cx="106" cy="261" r="4" /><circle cx="98" cy="255" r="4" /><circle cx="90" cy="257" r="4" /><circle cx="69" cy="256" r="4" /><circle cx="61" cy="260" r="4" /><circle cx="86" cy="262" r="4" /><circle cx="83" cy="281" r="4" /><circle cx="91" cy="283" r="4" /><circle cx="107" cy="290" r="4" /><circle cx="90" cy="292" r="4" /><circle cx="85" cy="288" r="4" /><circle cx="56" cy="269" r="4" /><circle cx="78" cy="292" r="4" /><circle cx="56" cy="289" r="4" /><circle cx="36" cy="287" r="4" /><circle cx="24" cy="277" r="4" /><circle cx="23" cy="262" r="4" /><circle cx="16" cy="271" r="4" /><circle cx="18" cy="283" r="4" /><circle cx="21" cy="250" r="4" /><circle cx="46" cy="231" r="4" /><circle cx="61" cy="214" r="4" /><circle cx="46" cy="213" r="4" /><circle cx="44" cy="239" r="4" /><circle cx="31" cy="228" r="4" /><circle cx="19" cy="230" r="4" /><circle cx="44" cy="209" r="4" /><circle cx="48" cy="191" r="4" /><circle cx="85" cy="187" r="4" /><circle cx="79" cy="177" r="4" /><circle cx="83" cy="167" r="4" /><circle cx="78" cy="163" r="4" /><circle cx="67" cy="164" r="4" /><circle cx="74" cy="153" r="4" /><circle cx="70" cy="148" r="4" /><circle cx="38" cy="186" r="4" /></g></g>
</svg>