<svg xmlns="http://www.w3.org/2000/svg" width="300" height="300" viewBox="0 0 300 300" class="creatureMap" style="position:absolute;">
<defs>
<filter id="blur" x="-30%" y="-30%" width="160%" height="160%"><feGaussianBlur stdDeviation="3" />
</filter>
<pattern id="pattern-untameable" width="10" height="10" patternTransform="rotate(135)" patternUnits="userSpaceOnUse"><rect width="4" height="10" fill="black"></rect>
</pattern>
<filter id="groupStroke"><feFlood result="outsideColor" flood-color="black"/><feMorphology in="SourceAlpha" operator="dilate" radius="2"/><feComposite result="strokeoutline1" in="outsideColor" operator="in"/><feComposite result="strokeoutline2" in="strokeoutline1" in2="SourceAlpha" operator="out"/><feGaussianBlur in="strokeoutline2" result="strokeblur" stdDeviation="1"/>
</filter>
<style>
.spawningMap-very-common { fill: #0F0;}
.spawningMap-common { fill: #B2FF00;}
.spawningMap-uncommon { fill: #FF0;}
.spawningMap-very-uncommon { fill: #FC0;}
.spawningMap-rare { fill: #F60;}
.spawningMap-very-rare { fill: #F00; }.spawning-map-point {stroke:black; stroke-width:1;}
</style>
</defs>
<g filter="url(#blur)" opacity="0.7">
<g class="spawningMap-very-common"><rect x="63" y="148" width="3" height="3" /><rect x="57" y="152" width="3" height="3" /><rect x="60" y="149" width="2" height="2" /><rect x="58" y="150" width="2" height="2" /><rect x="58" y="150" width="2" height="2" /><rect x="147" y="117" width="6" height="6" /><rect x="115" y="84" width="7" height="10" /><rect x="73" y="136" width="6" height="7" /><rect x="117" y="46" width="10" height="7" /><rect x="139" y="34" width="7" height="6" /><rect x="94" y="23" width="10" height="10" /><rect x="94" y="46" width="10" height="7" /><rect x="187" y="91" width="6" height="7" /><rect x="181" y="83" width="7" height="7" /><rect x="177" y="76" width="6" height="7" /><rect x="170" y="76" width="7" height="7" /><rect x="163" y="71" width="6" height="7" /><rect x="158" y="63" width="7" height="7" /><rect x="151" y="63" width="7" height="7" /><rect x="144" y="67" width="6" height="7" /><rect x="137" y="70" width="6" height="8" /><rect x="130" y="75" width="6" height="7" /><rect x="123" y="80" width="6" height="7" /><rect x="130" y="97" width="6" height="7" /><rect x="137" y="102" width="7" height="9" /><rect x="144" y="109" width="7" height="7" /><rect x="123" y="94" width="6" height="7" /><rect x="115" y="98" width="7" height="7" /><rect x="108" y="88" width="6" height="9" /><rect x="108" y="98" width="6" height="7" /><rect x="100" y="90" width="7" height="7" /><rect x="93" y="89" width="7" height="7" /><rect x="86" y="95" width="6" height="7" /><rect x="83" y="103" width="6" height="7" /><rect x="80" y="111" width="7" height="7" /><rect x="73" y="117" width="7" height="7" /><rect x="73" y="128" width="7" height="7" /><rect x="66" y="128" width="6" height="7" /><rect x="66" y="136" width="6" height="7" /><rect x="105" y="46" width="11" height="7" /><rect x="139" y="12" width="7" height="10" /><rect x="139" y="23" width="7" height="10" /><rect x="117" y="34" width="10" height="11" /><rect x="117" y="23" width="10" height="10" /><rect x="105" y="23" width="11" height="10" /><rect x="128" y="12" width="11" height="10" /><rect x="128" y="23" width="11" height="10" /><rect x="128" y="34" width="11" height="11" /><rect x="105" y="34" width="11" height="11" /><rect x="94" y="34" width="10" height="11" /><rect x="57" y="152" width="3" height="3" /><rect x="60" y="149" width="2" height="2" /><rect x="63" y="148" width="3" height="3" />
</g>
</g>
<g class="spawning-map-point" opacity="0.8">
</g>
<g filter="url(#groupStroke)" opacity="0.8"><rect x="63" y="148" width="3" height="3"/><rect x="57" y="152" width="3" height="3"/><rect x="60" y="149" width="2" height="2"/><rect x="58" y="150" width="2" height="2"/><rect x="58" y="150" width="2" height="2"/><rect x="57" y="152" width="3" height="3"/><rect x="60" y="149" width="2" height="2"/><rect x="63" y="148" width="3" height="3"/>
</g>
</svg>