<svg xmlns="http://www.w3.org/2000/svg" width="300" height="300" viewBox="0 0 300 300" class="creatureMap" style="position:absolute;">
<defs>
<filter id="blur" x="-30%" y="-30%" width="160%" height="160%"><feGaussianBlur stdDeviation="3" />
</filter>
<pattern id="pattern-untameable" width="10" height="10" patternTransform="rotate(135)" patternUnits="userSpaceOnUse"><rect width="4" height="10" fill="black"></rect>
</pattern>
<filter id="groupStroke"><feFlood result="outsideColor" flood-color="black"/><feMorphology in="SourceAlpha" operator="dilate" radius="2"/><feComposite result="strokeoutline1" in="outsideColor" operator="in"/><feComposite result="strokeoutline2" in="strokeoutline1" in2="SourceAlpha" operator="out"/><feGaussianBlur in="strokeoutline2" result="strokeblur" stdDeviation="1"/>
</filter>
<style>
.spawningMap-very-common { fill: #0F0;}
.spawningMap-common { fill: #B2FF00;}
.spawningMap-uncommon { fill: #FF0;}
.spawningMap-very-uncommon { fill: #FC0;}
.spawningMap-rare { fill: #F60;}
.spawningMap-very-rare { fill: #F00; }.spawning-map-point {stroke:black; stroke-width:1;}
</style>
</defs>
<g filter="url(#blur)" opacity="0.7">
<g class="spawningMap-very-rare"><rect x="16" y="48" width="10" height="10" /><rect x="27" y="6" width="9" height="10" /><rect x="37" y="6" width="10" height="10" /><rect x="48" y="6" width="9" height="10" /><rect x="58" y="6" width="10" height="10" /><rect x="16" y="17" width="10" height="10" /><rect x="6" y="17" width="9" height="10" /><rect x="27" y="17" width="9" height="10" /><rect x="58" y="17" width="10" height="10" /><rect x="58" y="27" width="10" height="10" /><rect x="37" y="27" width="10" height="10" /><rect x="27" y="27" width="9" height="10" /><rect x="16" y="27" width="10" height="10" /><rect x="6" y="27" width="9" height="10" /><rect x="6" y="38" width="9" height="10" /><rect x="16" y="38" width="10" height="10" /><rect x="6" y="59" width="9" height="10" /><rect x="16" y="59" width="10" height="10" /><rect x="27" y="59" width="9" height="10" /><rect x="58" y="59" width="10" height="10" /><rect x="58" y="48" width="10" height="10" /><rect x="58" y="38" width="10" height="10" /><rect x="69" y="17" width="9" height="10" /><rect x="69" y="6" width="9" height="10" /><rect x="69" y="27" width="9" height="10" /><rect x="79" y="27" width="10" height="10" /><rect x="79" y="38" width="10" height="10" /><rect x="69" y="38" width="9" height="10" /><rect x="69" y="48" width="9" height="10" /><rect x="79" y="48" width="10" height="10" /><rect x="90" y="48" width="9" height="10" /><rect x="111" y="59" width="9" height="10" /><rect x="100" y="59" width="10" height="10" /><rect x="90" y="59" width="9" height="10" /><rect x="79" y="59" width="10" height="10" /><rect x="69" y="59" width="9" height="10" /><rect x="121" y="48" width="10" height="10" /><rect x="121" y="59" width="10" height="10" /><rect x="132" y="59" width="9" height="10" /><rect x="132" y="48" width="9" height="10" /><rect x="142" y="48" width="10" height="10" /><rect x="142" y="59" width="10" height="10" /><rect x="153" y="48" width="9" height="10" /><rect x="153" y="59" width="9" height="10" /><rect x="163" y="48" width="10" height="10" /><rect x="163" y="38" width="10" height="10" /><rect x="163" y="27" width="10" height="10" /><rect x="174" y="38" width="9" height="10" /><rect x="174" y="48" width="9" height="10" /><rect x="237" y="111" width="9" height="10" /><rect x="247" y="111" width="10" height="10" /><rect x="268" y="111" width="10" height="10" /><rect x="279" y="111" width="9" height="10" /><rect x="258" y="111" width="9" height="10" /><rect x="226" y="111" width="10" height="10" /><rect x="216" y="111" width="9" height="10" /><rect x="205" y="111" width="10" height="10" /><rect x="195" y="111" width="9" height="10" /><rect x="184" y="111" width="10" height="10" /><rect x="174" y="101" width="9" height="10" /><rect x="184" y="101" width="10" height="10" /><rect x="195" y="101" width="9" height="10" /><rect x="205" y="101" width="10" height="10" /><rect x="184" y="69" width="10" height="10" /><rect x="184" y="90" width="10" height="10" /><rect x="174" y="90" width="9" height="10" /><rect x="174" y="80" width="9" height="10" /><rect x="184" y="80" width="10" height="10" /><rect x="195" y="90" width="9" height="10" /><rect x="174" y="59" width="9" height="10" /><rect x="174" y="69" width="9" height="10" /><rect x="163" y="80" width="10" height="10" /><rect x="163" y="69" width="10" height="10" /><rect x="153" y="69" width="9" height="10" /><rect x="142" y="69" width="10" height="10" /><rect x="132" y="69" width="9" height="10" /><rect x="121" y="69" width="10" height="10" /><rect x="121" y="80" width="10" height="10" /><rect x="132" y="80" width="9" height="10" /><rect x="142" y="80" width="10" height="10" /><rect x="153" y="80" width="9" height="10" /><rect x="121" y="90" width="10" height="10" /><rect x="132" y="90" width="9" height="10" /><rect x="142" y="90" width="10" height="10" /><rect x="153" y="90" width="9" height="10" /><rect x="163" y="90" width="10" height="10" /><rect x="163" y="101" width="10" height="10" /><rect x="111" y="90" width="9" height="10" /><rect x="111" y="80" width="9" height="10" /><rect x="111" y="69" width="9" height="10" /><rect x="100" y="69" width="10" height="10" /><rect x="90" y="69" width="9" height="10" /><rect x="79" y="69" width="10" height="10" /><rect x="69" y="69" width="9" height="10" /><rect x="58" y="69" width="10" height="10" /><rect x="58" y="80" width="10" height="10" /><rect x="58" y="90" width="10" height="10" /><rect x="58" y="101" width="10" height="10" /><rect x="58" y="111" width="10" height="10" /><rect x="69" y="111" width="9" height="10" /><rect x="100" y="90" width="10" height="10" /><rect x="100" y="80" width="10" height="10" /><rect x="90" y="80" width="9" height="10" /><rect x="79" y="80" width="10" height="10" /><rect x="69" y="80" width="9" height="10" /><rect x="69" y="90" width="9" height="10" /><rect x="69" y="101" width="9" height="10" /><rect x="90" y="90" width="9" height="10" /><rect x="79" y="90" width="10" height="10" /><rect x="48" y="111" width="9" height="10" /><rect x="37" y="111" width="10" height="10" /><rect x="6" y="101" width="9" height="10" /><rect x="16" y="101" width="10" height="10" /><rect x="27" y="101" width="9" height="10" /><rect x="37" y="101" width="10" height="10" /><rect x="48" y="101" width="9" height="10" /><rect x="48" y="90" width="9" height="10" /><rect x="37" y="90" width="10" height="10" /><rect x="27" y="90" width="9" height="10" /><rect x="16" y="90" width="10" height="10" /><rect x="6" y="80" width="9" height="10" /><rect x="16" y="80" width="10" height="10" /><rect x="27" y="80" width="9" height="10" /><rect x="37" y="80" width="10" height="10" /><rect x="48" y="80" width="9" height="10" /><rect x="48" y="69" width="9" height="10" /><rect x="37" y="69" width="10" height="10" /><rect x="27" y="69" width="9" height="10" /><rect x="16" y="69" width="10" height="10" /><rect x="6" y="69" width="9" height="10" /><rect x="6" y="111" width="9" height="10" /><rect x="6" y="122" width="9" height="10" /><rect x="16" y="122" width="10" height="10" /><rect x="27" y="122" width="9" height="10" /><rect x="37" y="122" width="10" height="10" /><rect x="48" y="122" width="9" height="10" /><rect x="6" y="132" width="9" height="10" /><rect x="16" y="132" width="10" height="10" /><rect x="27" y="132" width="9" height="10" /><rect x="37" y="132" width="10" height="10" /><rect x="258" y="154" width="9" height="9" /><rect x="268" y="154" width="10" height="9" /><rect x="279" y="154" width="9" height="9" /><rect x="289" y="143" width="10" height="10" /><rect x="268" y="143" width="10" height="10" /><rect x="258" y="143" width="9" height="10" /><rect x="237" y="122" width="9" height="10" /><rect x="247" y="122" width="10" height="10" /><rect x="247" y="132" width="10" height="10" /><rect x="258" y="122" width="9" height="10" /><rect x="258" y="132" width="9" height="10" /><rect x="268" y="132" width="10" height="10" /><rect x="279" y="132" width="9" height="10" /><rect x="289" y="132" width="10" height="10" /><rect x="289" y="122" width="10" height="10" /><rect x="279" y="122" width="9" height="10" /><rect x="268" y="122" width="10" height="10" />
</g>
<g class="spawningMap-uncommon"><rect x="37" y="280" width="10" height="9" /><rect x="174" y="280" width="9" height="9" /><rect x="289" y="175" width="10" height="9" />
</g>
</g>
<g class="spawning-map-point" opacity="0.8">
</g>
</svg>