<?xml version="1.0" encoding="utf-8"?>
<svg xmlns="http://www.w3.org/2000/svg" width="300" height="300" viewBox="0 0 300 300" class="creatureMap" style="position:absolute;">
<defs>
    <filter id="blur" x="-30%" y="-30%" width="160%" height="160%">
        <feGaussianBlur stdDeviation="3" />
    </filter>
    <style>
        .spawningMap-very-common { fill: #0F0; }
        .spawningMap-common { fill: #B2FF00; }
        .spawningMap-uncommon { fill: #FF0; }
        .spawningMap-very-uncommon { fill: #FC0; }
        .spawningMap-rare { fill: #F60; }
        .spawningMap-very-rare { fill: #F00; }
        .spawning-map-point { stroke:black; stroke-width:1; }
    </style>
</defs>
<g filter="url(#blur)" opacity="0.7">
    <g class="spawningMap-very-uncommon">
        <rect x="224" y="121" width="13" height="14" />
        <rect x="192" y="121" width="13" height="14" />
        <rect x="208" y="121" width="13" height="14" />
        <rect x="192" y="130" width="13" height="15" />
        <rect x="200" y="130" width="13" height="15" />
        <rect x="208" y="130" width="13" height="15" />
        <rect x="192" y="139" width="13" height="15" />
        <rect x="216" y="139" width="13" height="15" />
        <rect x="192" y="149" width="13" height="14" />
        <rect x="216" y="149" width="13" height="14" />
        <rect x="216" y="158" width="13" height="15" />
        <rect x="224" y="158" width="13" height="15" />
        <rect x="216" y="130" width="13" height="15" />
        <rect x="200" y="181" width="13" height="14" />
        <rect x="224" y="130" width="13" height="15" />
        <rect x="200" y="121" width="13" height="14" />
        <rect x="224" y="139" width="13" height="15" />
        <rect x="224" y="149" width="13" height="14" />
        <rect x="192" y="177" width="13" height="14" />
        <rect x="192" y="158" width="13" height="15" />
        <rect x="232" y="130" width="13" height="15" />
        <rect x="232" y="149" width="13" height="14" />
        <rect x="232" y="158" width="13" height="15" />
        <rect x="192" y="167" width="13" height="15" />
        <rect x="208" y="181" width="13" height="14" />
        <rect x="240" y="139" width="13" height="15" />
        <rect x="58" y="106" width="12" height="11" />
        <rect x="142" y="152" width="13" height="13" />
        <rect x="181" y="170" width="9" height="15" />
        <rect x="246" y="75" width="11" height="11" />
        <rect x="43" y="75" width="11" height="11" />
        <rect x="40" y="98" width="12" height="11" />
        <rect x="35" y="93" width="11" height="11" />
        <rect x="179" y="109" width="11" height="11" />
        <rect x="52" y="92" width="11" height="11" />
        <rect x="184" y="184" width="11" height="11" />
        <rect x="183" y="178" width="12" height="11" />
        <rect x="184" y="109" width="12" height="11" />
        <rect x="202" y="111" width="11" height="11" />
        <rect x="238" y="104" width="11" height="11" />
        <rect x="240" y="75" width="11" height="11" />
        <rect x="43" y="104" width="11" height="11" />
        <rect x="40" y="87" width="12" height="11" />
        <rect x="46" y="98" width="11" height="11" />
        <rect x="26" y="112" width="11" height="12" />
        <rect x="186" y="100" width="12" height="12" />
        <rect x="53" y="123" width="11" height="11" />
    </g>
    <g class="spawningMap-rare">
        <rect x="216" y="121" width="13" height="14" />
        <rect x="200" y="139" width="13" height="15" />
        <rect x="208" y="139" width="13" height="15" />
        <rect x="200" y="149" width="13" height="14" />
        <rect x="208" y="149" width="13" height="14" />
        <rect x="232" y="139" width="13" height="15" />
        <rect x="200" y="158" width="13" height="15" />
        <rect x="208" y="158" width="13" height="15" />
        <rect x="214" y="167" width="15" height="15" />
    </g>
    <g class="spawningMap-uncommon">
        <rect x="67" y="86" width="11" height="11" />
        <rect x="131" y="125" width="11" height="11" />
        <rect x="135" y="113" width="11" height="11" />
        <rect x="229" y="81" width="11" height="11" />
        <rect x="238" y="69" width="11" height="11" />
        <rect x="67" y="80" width="11" height="11" />
        <rect x="114" y="138" width="12" height="13" />
        <rect x="118" y="134" width="12" height="13" />
        <rect x="122" y="142" width="11" height="11" />
        <rect x="125" y="136" width="11" height="11" />
        <rect x="131" y="136" width="11" height="11" />
        <rect x="135" y="159" width="14" height="8" />
        <rect x="142" y="136" width="11" height="11" />
        <rect x="142" y="130" width="11" height="11" />
        <rect x="148" y="130" width="11" height="11" />
        <rect x="131" y="130" width="11" height="11" />
        <rect x="148" y="125" width="11" height="11" />
        <rect x="137" y="125" width="11" height="11" />
        <rect x="137" y="119" width="11" height="11" />
        <rect x="229" y="86" width="11" height="12" />
        <rect x="232" y="98" width="11" height="11" />
    </g>
    <g class="spawningMap-common">
        <rect x="118" y="144" width="10" height="9" />
        <rect x="128" y="147" width="11" height="11" />
        <rect x="144" y="147" width="11" height="11" />
        <rect x="133" y="153" width="11" height="11" />
        <rect x="142" y="113" width="11" height="11" />
        <rect x="169" y="136" width="11" height="11" />
        <rect x="156" y="126" width="13" height="11" />
        <rect x="169" y="125" width="11" height="11" />
        <rect x="148" y="108" width="11" height="11" />
        <rect x="181" y="138" width="11" height="11" />
        <rect x="181" y="132" width="11" height="11" />
        <rect x="186" y="148" width="11" height="11" />
        <rect x="148" y="113" width="11" height="11" />
        <rect x="114" y="134" width="11" height="8" />
        <rect x="120" y="139" width="10" height="9" />
        <rect x="139" y="153" width="11" height="11" />
        <rect x="128" y="142" width="11" height="11" />
        <rect x="133" y="142" width="11" height="11" />
        <rect x="139" y="142" width="11" height="11" />
        <rect x="133" y="147" width="11" height="11" />
        <rect x="139" y="147" width="11" height="11" />
        <rect x="137" y="136" width="11" height="11" />
        <rect x="148" y="136" width="11" height="11" />
        <rect x="154" y="113" width="11" height="11" />
        <rect x="159" y="109" width="11" height="11" />
        <rect x="137" y="130" width="11" height="11" />
        <rect x="142" y="125" width="11" height="11" />
        <rect x="142" y="119" width="11" height="11" />
        <rect x="148" y="119" width="11" height="11" />
        <rect x="154" y="119" width="11" height="11" />
        <rect x="159" y="119" width="11" height="11" />
        <rect x="157" y="131" width="13" height="11" />
        <rect x="169" y="130" width="11" height="11" />
        <rect x="144" y="142" width="11" height="11" />
        <rect x="150" y="142" width="11" height="11" />
        <rect x="150" y="147" width="11" height="11" />
        <rect x="156" y="145" width="11" height="11" />
        <rect x="161" y="145" width="11" height="11" />
        <rect x="167" y="145" width="11" height="11" />
        <rect x="156" y="150" width="11" height="11" />
        <rect x="156" y="156" width="11" height="11" />
        <rect x="161" y="150" width="11" height="11" />
        <rect x="167" y="150" width="11" height="11" />
        <rect x="173" y="150" width="11" height="11" />
        <rect x="175" y="143" width="11" height="11" />
        <rect x="181" y="141" width="11" height="11" />
        <rect x="186" y="138" width="11" height="11" />
        <rect x="186" y="132" width="11" height="11" />
        <rect x="186" y="126" width="11" height="11" />
        <rect x="186" y="121" width="11" height="11" />
        <rect x="181" y="126" width="11" height="11" />
        <rect x="181" y="121" width="11" height="11" />
        <rect x="175" y="126" width="11" height="11" />
        <rect x="175" y="121" width="11" height="11" />
        <rect x="175" y="138" width="11" height="11" />
        <rect x="175" y="132" width="11" height="11" />
        <rect x="186" y="144" width="11" height="10" />
        <rect x="159" y="113" width="11" height="11" />
    </g>
    <g class="spawningMap-very-rare">
        <rect x="117" y="179" width="12" height="11" />
        <rect x="123" y="173" width="12" height="11" />
        <rect x="113" y="170" width="14" height="16" />
        <rect x="135" y="173" width="12" height="11" />
        <rect x="134" y="164" width="18" height="9" />
        <rect x="144" y="157" width="9" height="13" />
        <rect x="154" y="173" width="11" height="11" />
        <rect x="154" y="184" width="11" height="12" />
        <rect x="147" y="209" width="12" height="11" />
        <rect x="141" y="202" width="11" height="11" />
        <rect x="168" y="201" width="17" height="19" />
        <rect x="242" y="175" width="10" height="11" />
        <rect x="205" y="175" width="13" height="11" />
        <rect x="207" y="169" width="11" height="11" />
        <rect x="201" y="169" width="11" height="11" />
        <rect x="123" y="184" width="12" height="12" />
        <rect x="129" y="184" width="12" height="12" />
        <rect x="129" y="179" width="12" height="11" />
        <rect x="117" y="173" width="12" height="11" />
        <rect x="129" y="173" width="12" height="11" />
        <rect x="129" y="167" width="12" height="11" />
        <rect x="123" y="179" width="12" height="11" />
        <rect x="135" y="167" width="12" height="11" />
        <rect x="141" y="167" width="12" height="11" />
        <rect x="141" y="173" width="12" height="11" />
        <rect x="147" y="173" width="12" height="11" />
        <rect x="135" y="184" width="12" height="11" />
        <rect x="135" y="178" width="12" height="11" />
        <rect x="141" y="178" width="12" height="11" />
        <rect x="149" y="178" width="12" height="11" />
        <rect x="147" y="167" width="12" height="11" />
        <rect x="147" y="162" width="12" height="11" />
        <rect x="147" y="156" width="12" height="11" />
        <rect x="154" y="167" width="11" height="11" />
        <rect x="154" y="161" width="11" height="12" />
        <rect x="154" y="179" width="11" height="11" />
        <rect x="141" y="183" width="12" height="11" />
        <rect x="147" y="186" width="12" height="11" />
        <rect x="147" y="192" width="12" height="11" />
        <rect x="147" y="197" width="12" height="11" />
        <rect x="153" y="192" width="12" height="11" />
        <rect x="153" y="197" width="12" height="11" />
        <rect x="153" y="209" width="12" height="11" />
        <rect x="147" y="203" width="12" height="11" />
        <rect x="153" y="203" width="12" height="11" />
        <rect x="159" y="204" width="12" height="11" />
        <rect x="164" y="198" width="12" height="11" />
        <rect x="160" y="192" width="11" height="12" />
        <rect x="158" y="187" width="11" height="11" />
        <rect x="187" y="161" width="11" height="11" />
        <rect x="182" y="155" width="12" height="12" />
        <rect x="180" y="150" width="12" height="11" />
        <rect x="236" y="167" width="12" height="11" />
        <rect x="230" y="167" width="12" height="11" />
        <rect x="224" y="167" width="12" height="11" />
        <rect x="242" y="167" width="10" height="11" />
        <rect x="236" y="173" width="12" height="11" />
        <rect x="230" y="173" width="12" height="11" />
        <rect x="224" y="173" width="12" height="11" />
        <rect x="234" y="179" width="12" height="11" />
        <rect x="228" y="179" width="12" height="11" />
        <rect x="222" y="179" width="11" height="11" />
    </g>
    <g class="spawningMap-very-common">
        <rect x="125" y="148" width="8" height="10" />
    </g></g>
</svg>