<?xml version="1.0" encoding="utf-8"?>
<svg xmlns="http://www.w3.org/2000/svg" width="300" height="300"
        viewBox="0 0 300 300" class="creatureMap" style="position:absolute;">
    <defs>
        <filter id="blur" x="-30%" y="-30%" width="160%" height="160%">
            <feGaussianBlur stdDeviation="3" />
        </filter>
        <pattern id="pattern-untameable" width="10" height="10" patternTransform="rotate(135)" patternUnits="userSpaceOnUse">
            <rect width="4" height="10" fill="black"></rect>
        </pattern>
        <filter id="groupStroke">
            <feFlood result="outsideColor" flood-color="black"/>
            <feMorphology in="SourceAlpha" operator="dilate" radius="2"/>
            <feComposite result="strokeoutline1" in="outsideColor" operator="in"/>
            <feComposite result="strokeoutline2" in="strokeoutline1" in2="SourceAlpha" operator="out"/>
            <feGaussianBlur in="strokeoutline2" result="strokeblur" stdDeviation="1"/>
        </filter>
        <style>
            .spawningMap-very-common { fill: #0F0; }
            .spawningMap-common { fill: #B2FF00; }
            .spawningMap-uncommon { fill: #FF0; }
            .spawningMap-very-uncommon { fill: #FC0; }
            .spawningMap-rare { fill: #F60; }
            .spawningMap-very-rare { fill: #F00; }
            .spawning-map-point { stroke:black; stroke-width:1; }
        </style>
    </defs>

<g filter="url(#blur)" opacity="0.7">
<g class="spawningMap-very-rare">
<rect x="168" y="150" width="10" height="16" />
<rect x="67" y="245" width="12" height="12" />
<rect x="74" y="245" width="12" height="12" />
<rect x="173" y="231" width="12" height="12" />
<rect x="179" y="231" width="12" height="12" />
<rect x="62" y="77" width="15" height="10" />
<rect x="193" y="224" width="12" height="12" />
<rect x="193" y="231" width="12" height="12" />
<rect x="193" y="238" width="12" height="12" />
<rect x="173" y="244" width="12" height="13" />
<rect x="199" y="251" width="12" height="12" />
<rect x="193" y="251" width="12" height="12" />
<rect x="186" y="251" width="12" height="12" />
<rect x="179" y="251" width="12" height="12" />
<rect x="179" y="156" width="12" height="13" />
<rect x="186" y="156" width="12" height="13" />
<rect x="112" y="72" width="15" height="11" />
<rect x="99" y="104" width="12" height="12" />
<rect x="72" y="104" width="12" height="13" />
<rect x="69" y="50" width="14" height="12" />
<rect x="105" y="56" width="14" height="12" />
<rect x="66" y="92" width="12" height="12" />
<rect x="120" y="79" width="12" height="11" />
<rect x="134" y="45" width="18" height="13" />
<rect x="124" y="68" width="23" height="10" />
<rect x="149" y="175" width="12" height="19" />
<rect x="198" y="112" width="12" height="13" />
<rect x="204" y="106" width="12" height="12" />
<rect x="211" y="106" width="12" height="12" />
<rect x="245" y="126" width="16" height="12" />
<rect x="245" y="119" width="16" height="12" />
<rect x="245" y="112" width="16" height="13" />
<rect x="245" y="106" width="16" height="12" />
<rect x="245" y="99" width="16" height="12" />
<rect x="245" y="92" width="16" height="12" />
<rect x="231" y="85" width="12" height="13" />
<rect x="218" y="85" width="12" height="13" />
<rect x="224" y="85" width="12" height="13" />
<rect x="244" y="85" width="12" height="13" />
<rect x="184" y="112" width="12" height="13" />
<rect x="184" y="140" width="12" height="12" />
<rect x="184" y="133" width="12" height="12" />
<rect x="79" y="84" width="12" height="12" />
<rect x="62" y="86" width="15" height="10" />
<rect x="152" y="72" width="15" height="13" />
<rect x="130" y="90" width="12" height="14" />
<rect x="53" y="84" width="14" height="12" />
<rect x="152" y="89" width="11" height="14" />
<rect x="161" y="98" width="17" height="10" />
<rect x="113" y="158" width="12" height="12" />
<rect x="109" y="147" width="13" height="21" />
<rect x="98" y="164" width="18" height="13" />
<rect x="88" y="156" width="12" height="12" />
<rect x="130" y="99" width="12" height="11" />
<rect x="138" y="118" width="11" height="11" />
<rect x="119" y="98" width="10" height="10" />
<rect x="107" y="104" width="10" height="13" />
<rect x="76" y="118" width="12" height="11" />
<rect x="81" y="124" width="12" height="12" />
<rect x="149" y="154" width="12" height="12" />
<rect x="142" y="168" width="12" height="12" />
<rect x="155" y="174" width="12" height="12" />
<rect x="87" y="169" width="16" height="10" />
<rect x="74" y="205" width="15" height="18" />
<rect x="84" y="205" width="14" height="18" />
<rect x="98" y="182" width="23" height="10" />
<rect x="87" y="182" width="15" height="10" />
<rect x="87" y="174" width="13" height="13" />
<rect x="103" y="174" width="15" height="13" />
<rect x="130" y="182" width="12" height="12" />
<rect x="123" y="203" width="12" height="12" />
<rect x="130" y="203" width="12" height="12" />
<rect x="113" y="203" width="15" height="12" />
<rect x="107" y="250" width="13" height="14" />
<rect x="123" y="226" width="13" height="13" />
<rect x="123" y="234" width="13" height="13" />
<rect x="123" y="242" width="13" height="13" />
<rect x="123" y="250" width="13" height="14" />
<rect x="136" y="208" width="15" height="15" />
<rect x="146" y="198" width="14" height="15" />
<rect x="143" y="182" width="11" height="12" />
<rect x="204" y="133" width="12" height="12" />
<rect x="211" y="133" width="12" height="12" />
<rect x="218" y="133" width="12" height="12" />
<rect x="224" y="133" width="12" height="12" />
<rect x="231" y="133" width="12" height="12" />
<rect x="191" y="133" width="12" height="12" />
<rect x="198" y="133" width="12" height="12" />
<rect x="204" y="126" width="12" height="12" />
<rect x="211" y="126" width="12" height="12" />
<rect x="218" y="126" width="12" height="12" />
<rect x="224" y="126" width="12" height="12" />
<rect x="231" y="126" width="12" height="12" />
<rect x="191" y="126" width="12" height="12" />
<rect x="198" y="126" width="12" height="12" />
<rect x="186" y="231" width="12" height="12" />
<rect x="166" y="204" width="12" height="12" />
<rect x="166" y="197" width="12" height="12" />
<rect x="159" y="204" width="12" height="12" />
<rect x="159" y="197" width="12" height="12" />
<rect x="159" y="190" width="12" height="12" />
<rect x="106" y="98" width="12" height="12" />
<rect x="166" y="190" width="12" height="12" />
<rect x="168" y="171" width="10" height="15" />
<rect x="168" y="161" width="10" height="15" />
<rect x="168" y="181" width="10" height="15" />
<rect x="92" y="104" width="12" height="12" />
<rect x="62" y="64" width="12" height="12" />
<rect x="86" y="84" width="12" height="12" />
<rect x="112" y="77" width="12" height="12" />
<rect x="92" y="72" width="15" height="11" />
<rect x="86" y="98" width="12" height="12" />
<rect x="86" y="104" width="12" height="12" />
<rect x="102" y="72" width="15" height="11" />
<rect x="79" y="104" width="12" height="12" />
<rect x="79" y="98" width="12" height="12" />
<rect x="79" y="91" width="12" height="12" />
<rect x="72" y="77" width="12" height="12" />
<rect x="82" y="68" width="15" height="10" />
<rect x="114" y="53" width="15" height="11" />
<rect x="114" y="68" width="15" height="10" />
<rect x="112" y="98" width="12" height="12" />
<rect x="158" y="47" width="15" height="21" />
<rect x="114" y="63" width="15" height="10" />
<rect x="105" y="63" width="14" height="10" />
<rect x="62" y="70" width="12" height="12" />
<rect x="86" y="91" width="12" height="12" />
<rect x="114" y="58" width="15" height="10" />
<rect x="120" y="72" width="12" height="13" />
<rect x="117" y="84" width="12" height="13" />
<rect x="124" y="45" width="14" height="13" />
<rect x="114" y="49" width="15" height="10" />
<rect x="124" y="84" width="12" height="13" />
<rect x="126" y="72" width="12" height="13" />
<rect x="126" y="79" width="12" height="11" />
<rect x="106" y="91" width="12" height="12" />
<rect x="133" y="79" width="12" height="11" />
<rect x="130" y="84" width="12" height="11" />
<rect x="133" y="72" width="12" height="13" />
<rect x="104" y="68" width="15" height="10" />
<rect x="152" y="80" width="15" height="14" />
<rect x="199" y="231" width="12" height="12" />
<rect x="114" y="44" width="15" height="10" />
<rect x="177" y="63" width="14" height="14" />
<rect x="198" y="119" width="12" height="12" />
<rect x="204" y="119" width="12" height="12" />
<rect x="211" y="119" width="12" height="12" />
<rect x="218" y="119" width="12" height="12" />
<rect x="224" y="119" width="12" height="12" />
<rect x="231" y="119" width="12" height="12" />
<rect x="137" y="85" width="15" height="19" />
<rect x="204" y="112" width="12" height="13" />
<rect x="211" y="112" width="12" height="13" />
<rect x="224" y="112" width="12" height="13" />
<rect x="231" y="112" width="12" height="13" />
<rect x="218" y="106" width="12" height="12" />
<rect x="224" y="106" width="12" height="12" />
<rect x="231" y="106" width="12" height="12" />
<rect x="231" y="99" width="12" height="12" />
<rect x="238" y="126" width="12" height="12" />
<rect x="238" y="119" width="12" height="12" />
<rect x="238" y="112" width="12" height="13" />
<rect x="238" y="106" width="12" height="12" />
<rect x="238" y="99" width="12" height="12" />
<rect x="218" y="99" width="12" height="12" />
<rect x="224" y="99" width="12" height="12" />
<rect x="231" y="92" width="12" height="12" />
<rect x="238" y="92" width="12" height="12" />
<rect x="218" y="92" width="12" height="12" />
<rect x="224" y="92" width="12" height="12" />
<rect x="238" y="85" width="12" height="13" />
<rect x="191" y="119" width="12" height="12" />
<rect x="191" y="112" width="12" height="13" />
<rect x="184" y="119" width="12" height="12" />
<rect x="56" y="64" width="12" height="12" />
<rect x="151" y="60" width="12" height="17" />
<rect x="69" y="57" width="14" height="12" />
<rect x="143" y="54" width="20" height="11" />
<rect x="143" y="60" width="13" height="17" />
<rect x="140" y="72" width="17" height="13" />
<rect x="140" y="80" width="17" height="10" />
<rect x="147" y="85" width="10" height="19" />
<rect x="137" y="99" width="17" height="9" />
<rect x="149" y="98" width="17" height="10" />
<rect x="77" y="54" width="11" height="15" />
<rect x="69" y="64" width="9" height="18" />
<rect x="82" y="54" width="12" height="12" />
<rect x="62" y="81" width="15" height="10" />
<rect x="86" y="77" width="12" height="12" />
<rect x="99" y="77" width="12" height="12" />
<rect x="106" y="77" width="12" height="12" />
<rect x="73" y="64" width="14" height="12" />
<rect x="218" y="112" width="12" height="13" />
<rect x="151" y="104" width="12" height="13" />
<rect x="151" y="111" width="12" height="12" />
<rect x="82" y="72" width="15" height="11" />
<rect x="150" y="118" width="12" height="12" />
<rect x="143" y="118" width="12" height="12" />
<rect x="134" y="124" width="12" height="12" />
<rect x="127" y="124" width="12" height="12" />
<rect x="121" y="124" width="12" height="12" />
<rect x="117" y="131" width="12" height="12" />
<rect x="117" y="138" width="12" height="12" />
<rect x="117" y="144" width="12" height="13" />
<rect x="117" y="151" width="12" height="12" />
<rect x="73" y="70" width="14" height="13" />
<rect x="120" y="165" width="12" height="12" />
<rect x="133" y="53" width="15" height="20" />
<rect x="109" y="131" width="13" height="21" />
<rect x="62" y="57" width="12" height="12" />
<rect x="101" y="131" width="13" height="21" />
<rect x="101" y="147" width="13" height="21" />
<rect x="120" y="158" width="12" height="12" />
<rect x="94" y="156" width="12" height="12" />
<rect x="72" y="98" width="12" height="12" />
<rect x="72" y="91" width="12" height="12" />
<rect x="114" y="124" width="12" height="12" />
<rect x="108" y="124" width="12" height="12" />
<rect x="101" y="124" width="12" height="12" />
<rect x="94" y="131" width="12" height="12" />
<rect x="145" y="111" width="12" height="12" />
<rect x="145" y="104" width="12" height="13" />
<rect x="124" y="118" width="12" height="11" />
<rect x="131" y="118" width="12" height="11" />
<rect x="117" y="91" width="12" height="11" />
<rect x="124" y="98" width="12" height="10" />
<rect x="124" y="91" width="12" height="11" />
<rect x="118" y="118" width="12" height="11" />
<rect x="111" y="111" width="12" height="12" />
<rect x="111" y="104" width="12" height="13" />
<rect x="111" y="118" width="12" height="11" />
<rect x="105" y="111" width="12" height="12" />
<rect x="105" y="118" width="12" height="11" />
<rect x="98" y="111" width="12" height="12" />
<rect x="98" y="118" width="12" height="11" />
<rect x="91" y="111" width="12" height="12" />
<rect x="84" y="111" width="12" height="12" />
<rect x="76" y="111" width="12" height="12" />
<rect x="91" y="118" width="12" height="11" />
<rect x="84" y="118" width="12" height="11" />
<rect x="94" y="124" width="12" height="12" />
<rect x="88" y="124" width="12" height="12" />
<rect x="138" y="111" width="12" height="12" />
<rect x="138" y="104" width="12" height="13" />
<rect x="131" y="111" width="12" height="12" />
<rect x="131" y="104" width="12" height="13" />
<rect x="125" y="111" width="11" height="12" />
<rect x="125" y="104" width="11" height="13" />
<rect x="118" y="111" width="12" height="12" />
<rect x="79" y="77" width="12" height="12" />
<rect x="118" y="104" width="12" height="13" />
<rect x="72" y="84" width="12" height="12" />
<rect x="54" y="252" width="12" height="12" />
<rect x="54" y="245" width="12" height="12" />
<rect x="61" y="252" width="11" height="12" />
<rect x="61" y="245" width="11" height="12" />
<rect x="113" y="165" width="12" height="12" />
<rect x="158" y="63" width="15" height="14" />
<rect x="71" y="252" width="15" height="12" />
<rect x="74" y="196" width="15" height="14" />
<rect x="81" y="252" width="12" height="12" />
<rect x="84" y="196" width="14" height="14" />
<rect x="87" y="187" width="15" height="14" />
<rect x="97" y="187" width="15" height="14" />
<rect x="87" y="162" width="16" height="13" />
<rect x="95" y="174" width="13" height="13" />
<rect x="113" y="172" width="12" height="15" />
<rect x="82" y="61" width="12" height="12" />
<rect x="81" y="245" width="12" height="12" />
<rect x="116" y="182" width="12" height="12" />
<rect x="123" y="182" width="12" height="12" />
<rect x="116" y="189" width="12" height="12" />
<rect x="123" y="189" width="12" height="12" />
<rect x="130" y="189" width="12" height="12" />
<rect x="113" y="196" width="15" height="12" />
<rect x="123" y="196" width="12" height="12" />
<rect x="130" y="196" width="12" height="12" />
<rect x="92" y="77" width="12" height="12" />
<rect x="184" y="126" width="12" height="12" />
<rect x="92" y="84" width="12" height="12" />
<rect x="117" y="218" width="14" height="13" />
<rect x="126" y="218" width="11" height="13" />
<rect x="107" y="226" width="13" height="13" />
<rect x="107" y="234" width="13" height="13" />
<rect x="107" y="242" width="13" height="13" />
<rect x="142" y="147" width="12" height="12" />
<rect x="115" y="226" width="13" height="13" />
<rect x="115" y="234" width="13" height="13" />
<rect x="99" y="84" width="12" height="12" />
<rect x="115" y="242" width="13" height="13" />
<rect x="115" y="250" width="13" height="14" />
<rect x="107" y="187" width="14" height="14" />
<rect x="149" y="147" width="12" height="12" />
<rect x="136" y="189" width="15" height="15" />
<rect x="136" y="198" width="15" height="15" />
<rect x="146" y="189" width="14" height="15" />
<rect x="120" y="172" width="12" height="15" />
<rect x="142" y="154" width="12" height="12" />
<rect x="106" y="84" width="12" height="12" />
<rect x="127" y="175" width="12" height="12" />
<rect x="133" y="175" width="12" height="12" />
<rect x="140" y="175" width="14" height="12" />
<rect x="136" y="182" width="12" height="12" />
<rect x="142" y="161" width="12" height="12" />
<rect x="124" y="53" width="14" height="20" />
<rect x="149" y="161" width="12" height="19" />
<rect x="112" y="84" width="12" height="12" />
<rect x="155" y="161" width="12" height="12" />
<rect x="112" y="91" width="12" height="12" />
<rect x="99" y="91" width="12" height="12" />
<rect x="92" y="91" width="12" height="12" />
<rect x="92" y="98" width="12" height="12" />
<rect x="199" y="238" width="12" height="12" />
<rect x="199" y="244" width="12" height="13" />
<rect x="193" y="244" width="12" height="13" />
<rect x="186" y="244" width="12" height="13" />
<rect x="179" y="244" width="12" height="13" />
<rect x="155" y="147" width="12" height="12" />
<rect x="179" y="238" width="12" height="12" />
<rect x="173" y="238" width="12" height="12" />
<rect x="186" y="224" width="12" height="12" />
<rect x="99" y="98" width="12" height="12" />
<rect x="186" y="238" width="12" height="12" />
<rect x="186" y="217" width="12" height="13" />
<rect x="186" y="197" width="12" height="12" />
<rect x="186" y="190" width="12" height="12" />
<rect x="186" y="184" width="12" height="12" />
<rect x="179" y="184" width="12" height="12" />
<rect x="179" y="177" width="12" height="12" />
<rect x="186" y="177" width="12" height="12" />
<rect x="179" y="170" width="12" height="12" />
<rect x="186" y="170" width="12" height="12" />
<rect x="179" y="163" width="12" height="12" />
<rect x="186" y="163" width="12" height="12" />
</g>
<g class="spawningMap-rare">
<rect x="155" y="204" width="10" height="12" />
<rect x="155" y="197" width="10" height="12" />
<rect x="156" y="188" width="18" height="8" />
<rect x="136" y="218" width="9" height="15" />
<rect x="155" y="190" width="10" height="12" />
</g>
</g>
<g fill="url(#pattern-untameable)" opacity="0.3">
<rect x="168" y="150" width="10" height="16"/>
<rect x="67" y="245" width="12" height="12"/>
<rect x="74" y="245" width="12" height="12"/>
<rect x="173" y="231" width="12" height="12"/>
<rect x="179" y="231" width="12" height="12"/>
<rect x="62" y="77" width="15" height="10"/>
<rect x="193" y="224" width="12" height="12"/>
<rect x="193" y="231" width="12" height="12"/>
<rect x="193" y="238" width="12" height="12"/>
<rect x="173" y="244" width="12" height="13"/>
<rect x="199" y="251" width="12" height="12"/>
<rect x="193" y="251" width="12" height="12"/>
<rect x="186" y="251" width="12" height="12"/>
<rect x="179" y="251" width="12" height="12"/>
<rect x="179" y="156" width="12" height="13"/>
<rect x="186" y="156" width="12" height="13"/>
<rect x="112" y="72" width="15" height="11"/>
<rect x="99" y="104" width="12" height="12"/>
<rect x="72" y="104" width="12" height="13"/>
<rect x="69" y="50" width="14" height="12"/>
<rect x="105" y="56" width="14" height="12"/>
<rect x="66" y="92" width="12" height="12"/>
<rect x="120" y="79" width="12" height="11"/>
<rect x="134" y="45" width="18" height="13"/>
<rect x="124" y="68" width="23" height="10"/>
<rect x="149" y="175" width="12" height="19"/>
<rect x="198" y="112" width="12" height="13"/>
<rect x="204" y="106" width="12" height="12"/>
<rect x="211" y="106" width="12" height="12"/>
<rect x="245" y="126" width="16" height="12"/>
<rect x="245" y="119" width="16" height="12"/>
<rect x="245" y="112" width="16" height="13"/>
<rect x="245" y="106" width="16" height="12"/>
<rect x="245" y="99" width="16" height="12"/>
<rect x="245" y="92" width="16" height="12"/>
<rect x="231" y="85" width="12" height="13"/>
<rect x="218" y="85" width="12" height="13"/>
<rect x="224" y="85" width="12" height="13"/>
<rect x="244" y="85" width="12" height="13"/>
<rect x="184" y="112" width="12" height="13"/>
<rect x="184" y="140" width="12" height="12"/>
<rect x="184" y="133" width="12" height="12"/>
<rect x="79" y="84" width="12" height="12"/>
<rect x="62" y="86" width="15" height="10"/>
<rect x="152" y="72" width="15" height="13"/>
<rect x="130" y="90" width="12" height="14"/>
<rect x="53" y="84" width="14" height="12"/>
<rect x="152" y="89" width="11" height="14"/>
<rect x="161" y="98" width="17" height="10"/>
<rect x="113" y="158" width="12" height="12"/>
<rect x="109" y="147" width="13" height="21"/>
<rect x="98" y="164" width="18" height="13"/>
<rect x="88" y="156" width="12" height="12"/>
<rect x="130" y="99" width="12" height="11"/>
<rect x="138" y="118" width="11" height="11"/>
<rect x="119" y="98" width="10" height="10"/>
<rect x="107" y="104" width="10" height="13"/>
<rect x="76" y="118" width="12" height="11"/>
<rect x="81" y="124" width="12" height="12"/>
<rect x="149" y="154" width="12" height="12"/>
<rect x="142" y="168" width="12" height="12"/>
<rect x="155" y="174" width="12" height="12"/>
<rect x="87" y="169" width="16" height="10"/>
<rect x="74" y="205" width="15" height="18"/>
<rect x="84" y="205" width="14" height="18"/>
<rect x="98" y="182" width="23" height="10"/>
<rect x="87" y="182" width="15" height="10"/>
<rect x="87" y="174" width="13" height="13"/>
<rect x="103" y="174" width="15" height="13"/>
<rect x="130" y="182" width="12" height="12"/>
<rect x="123" y="203" width="12" height="12"/>
<rect x="130" y="203" width="12" height="12"/>
<rect x="113" y="203" width="15" height="12"/>
<rect x="107" y="250" width="13" height="14"/>
<rect x="123" y="226" width="13" height="13"/>
<rect x="123" y="234" width="13" height="13"/>
<rect x="123" y="242" width="13" height="13"/>
<rect x="123" y="250" width="13" height="14"/>
<rect x="136" y="208" width="15" height="15"/>
<rect x="146" y="198" width="14" height="15"/>
<rect x="143" y="182" width="11" height="12"/>
<rect x="204" y="133" width="12" height="12"/>
<rect x="211" y="133" width="12" height="12"/>
<rect x="218" y="133" width="12" height="12"/>
<rect x="224" y="133" width="12" height="12"/>
<rect x="231" y="133" width="12" height="12"/>
<rect x="191" y="133" width="12" height="12"/>
<rect x="198" y="133" width="12" height="12"/>
<rect x="204" y="126" width="12" height="12"/>
<rect x="211" y="126" width="12" height="12"/>
<rect x="218" y="126" width="12" height="12"/>
<rect x="224" y="126" width="12" height="12"/>
<rect x="231" y="126" width="12" height="12"/>
<rect x="191" y="126" width="12" height="12"/>
<rect x="198" y="126" width="12" height="12"/>
<rect x="186" y="231" width="12" height="12"/>
<rect x="166" y="204" width="12" height="12"/>
<rect x="166" y="197" width="12" height="12"/>
<rect x="159" y="204" width="12" height="12"/>
<rect x="159" y="197" width="12" height="12"/>
<rect x="159" y="190" width="12" height="12"/>
<rect x="106" y="98" width="12" height="12"/>
<rect x="166" y="190" width="12" height="12"/>
<rect x="168" y="171" width="10" height="15"/>
<rect x="168" y="161" width="10" height="15"/>
<rect x="168" y="181" width="10" height="15"/>
<rect x="92" y="104" width="12" height="12"/>
<rect x="62" y="64" width="12" height="12"/>
<rect x="86" y="84" width="12" height="12"/>
<rect x="112" y="77" width="12" height="12"/>
<rect x="92" y="72" width="15" height="11"/>
<rect x="86" y="98" width="12" height="12"/>
<rect x="86" y="104" width="12" height="12"/>
<rect x="102" y="72" width="15" height="11"/>
<rect x="79" y="104" width="12" height="12"/>
<rect x="79" y="98" width="12" height="12"/>
<rect x="79" y="91" width="12" height="12"/>
<rect x="72" y="77" width="12" height="12"/>
<rect x="82" y="68" width="15" height="10"/>
<rect x="114" y="53" width="15" height="11"/>
<rect x="114" y="68" width="15" height="10"/>
<rect x="112" y="98" width="12" height="12"/>
<rect x="158" y="47" width="15" height="21"/>
<rect x="114" y="63" width="15" height="10"/>
<rect x="105" y="63" width="14" height="10"/>
<rect x="62" y="70" width="12" height="12"/>
<rect x="86" y="91" width="12" height="12"/>
<rect x="114" y="58" width="15" height="10"/>
<rect x="120" y="72" width="12" height="13"/>
<rect x="117" y="84" width="12" height="13"/>
<rect x="124" y="45" width="14" height="13"/>
<rect x="114" y="49" width="15" height="10"/>
<rect x="124" y="84" width="12" height="13"/>
<rect x="126" y="72" width="12" height="13"/>
<rect x="126" y="79" width="12" height="11"/>
<rect x="106" y="91" width="12" height="12"/>
<rect x="133" y="79" width="12" height="11"/>
<rect x="130" y="84" width="12" height="11"/>
<rect x="133" y="72" width="12" height="13"/>
<rect x="104" y="68" width="15" height="10"/>
<rect x="152" y="80" width="15" height="14"/>
<rect x="199" y="231" width="12" height="12"/>
<rect x="114" y="44" width="15" height="10"/>
<rect x="177" y="63" width="14" height="14"/>
<rect x="198" y="119" width="12" height="12"/>
<rect x="204" y="119" width="12" height="12"/>
<rect x="211" y="119" width="12" height="12"/>
<rect x="218" y="119" width="12" height="12"/>
<rect x="224" y="119" width="12" height="12"/>
<rect x="231" y="119" width="12" height="12"/>
<rect x="137" y="85" width="15" height="19"/>
<rect x="204" y="112" width="12" height="13"/>
<rect x="211" y="112" width="12" height="13"/>
<rect x="224" y="112" width="12" height="13"/>
<rect x="231" y="112" width="12" height="13"/>
<rect x="218" y="106" width="12" height="12"/>
<rect x="224" y="106" width="12" height="12"/>
<rect x="231" y="106" width="12" height="12"/>
<rect x="231" y="99" width="12" height="12"/>
<rect x="238" y="126" width="12" height="12"/>
<rect x="238" y="119" width="12" height="12"/>
<rect x="238" y="112" width="12" height="13"/>
<rect x="238" y="106" width="12" height="12"/>
<rect x="238" y="99" width="12" height="12"/>
<rect x="218" y="99" width="12" height="12"/>
<rect x="224" y="99" width="12" height="12"/>
<rect x="231" y="92" width="12" height="12"/>
<rect x="238" y="92" width="12" height="12"/>
<rect x="218" y="92" width="12" height="12"/>
<rect x="224" y="92" width="12" height="12"/>
<rect x="238" y="85" width="12" height="13"/>
<rect x="191" y="119" width="12" height="12"/>
<rect x="191" y="112" width="12" height="13"/>
<rect x="184" y="119" width="12" height="12"/>
<rect x="56" y="64" width="12" height="12"/>
<rect x="151" y="60" width="12" height="17"/>
<rect x="69" y="57" width="14" height="12"/>
<rect x="143" y="54" width="20" height="11"/>
<rect x="143" y="60" width="13" height="17"/>
<rect x="140" y="72" width="17" height="13"/>
<rect x="140" y="80" width="17" height="10"/>
<rect x="147" y="85" width="10" height="19"/>
<rect x="137" y="99" width="17" height="9"/>
<rect x="149" y="98" width="17" height="10"/>
<rect x="77" y="54" width="11" height="15"/>
<rect x="69" y="64" width="9" height="18"/>
<rect x="82" y="54" width="12" height="12"/>
<rect x="62" y="81" width="15" height="10"/>
<rect x="86" y="77" width="12" height="12"/>
<rect x="99" y="77" width="12" height="12"/>
<rect x="106" y="77" width="12" height="12"/>
<rect x="73" y="64" width="14" height="12"/>
<rect x="218" y="112" width="12" height="13"/>
<rect x="151" y="104" width="12" height="13"/>
<rect x="151" y="111" width="12" height="12"/>
<rect x="82" y="72" width="15" height="11"/>
<rect x="150" y="118" width="12" height="12"/>
<rect x="143" y="118" width="12" height="12"/>
<rect x="134" y="124" width="12" height="12"/>
<rect x="127" y="124" width="12" height="12"/>
<rect x="121" y="124" width="12" height="12"/>
<rect x="117" y="131" width="12" height="12"/>
<rect x="117" y="138" width="12" height="12"/>
<rect x="117" y="144" width="12" height="13"/>
<rect x="117" y="151" width="12" height="12"/>
<rect x="73" y="70" width="14" height="13"/>
<rect x="120" y="165" width="12" height="12"/>
<rect x="133" y="53" width="15" height="20"/>
<rect x="109" y="131" width="13" height="21"/>
<rect x="62" y="57" width="12" height="12"/>
<rect x="101" y="131" width="13" height="21"/>
<rect x="101" y="147" width="13" height="21"/>
<rect x="120" y="158" width="12" height="12"/>
<rect x="94" y="156" width="12" height="12"/>
<rect x="72" y="98" width="12" height="12"/>
<rect x="72" y="91" width="12" height="12"/>
<rect x="114" y="124" width="12" height="12"/>
<rect x="108" y="124" width="12" height="12"/>
<rect x="101" y="124" width="12" height="12"/>
<rect x="94" y="131" width="12" height="12"/>
<rect x="145" y="111" width="12" height="12"/>
<rect x="145" y="104" width="12" height="13"/>
<rect x="124" y="118" width="12" height="11"/>
<rect x="131" y="118" width="12" height="11"/>
<rect x="117" y="91" width="12" height="11"/>
<rect x="124" y="98" width="12" height="10"/>
<rect x="124" y="91" width="12" height="11"/>
<rect x="118" y="118" width="12" height="11"/>
<rect x="111" y="111" width="12" height="12"/>
<rect x="111" y="104" width="12" height="13"/>
<rect x="111" y="118" width="12" height="11"/>
<rect x="105" y="111" width="12" height="12"/>
<rect x="105" y="118" width="12" height="11"/>
<rect x="98" y="111" width="12" height="12"/>
<rect x="98" y="118" width="12" height="11"/>
<rect x="91" y="111" width="12" height="12"/>
<rect x="84" y="111" width="12" height="12"/>
<rect x="76" y="111" width="12" height="12"/>
<rect x="91" y="118" width="12" height="11"/>
<rect x="84" y="118" width="12" height="11"/>
<rect x="94" y="124" width="12" height="12"/>
<rect x="88" y="124" width="12" height="12"/>
<rect x="138" y="111" width="12" height="12"/>
<rect x="138" y="104" width="12" height="13"/>
<rect x="131" y="111" width="12" height="12"/>
<rect x="131" y="104" width="12" height="13"/>
<rect x="125" y="111" width="11" height="12"/>
<rect x="125" y="104" width="11" height="13"/>
<rect x="118" y="111" width="12" height="12"/>
<rect x="79" y="77" width="12" height="12"/>
<rect x="118" y="104" width="12" height="13"/>
<rect x="72" y="84" width="12" height="12"/>
<rect x="54" y="252" width="12" height="12"/>
<rect x="54" y="245" width="12" height="12"/>
<rect x="61" y="252" width="11" height="12"/>
<rect x="61" y="245" width="11" height="12"/>
<rect x="113" y="165" width="12" height="12"/>
<rect x="158" y="63" width="15" height="14"/>
<rect x="71" y="252" width="15" height="12"/>
<rect x="74" y="196" width="15" height="14"/>
<rect x="81" y="252" width="12" height="12"/>
<rect x="84" y="196" width="14" height="14"/>
<rect x="87" y="187" width="15" height="14"/>
<rect x="97" y="187" width="15" height="14"/>
<rect x="87" y="162" width="16" height="13"/>
<rect x="95" y="174" width="13" height="13"/>
<rect x="113" y="172" width="12" height="15"/>
<rect x="82" y="61" width="12" height="12"/>
<rect x="81" y="245" width="12" height="12"/>
<rect x="116" y="182" width="12" height="12"/>
<rect x="123" y="182" width="12" height="12"/>
<rect x="116" y="189" width="12" height="12"/>
<rect x="123" y="189" width="12" height="12"/>
<rect x="130" y="189" width="12" height="12"/>
<rect x="113" y="196" width="15" height="12"/>
<rect x="123" y="196" width="12" height="12"/>
<rect x="130" y="196" width="12" height="12"/>
<rect x="92" y="77" width="12" height="12"/>
<rect x="184" y="126" width="12" height="12"/>
<rect x="92" y="84" width="12" height="12"/>
<rect x="117" y="218" width="14" height="13"/>
<rect x="126" y="218" width="11" height="13"/>
<rect x="107" y="226" width="13" height="13"/>
<rect x="107" y="234" width="13" height="13"/>
<rect x="107" y="242" width="13" height="13"/>
<rect x="142" y="147" width="12" height="12"/>
<rect x="115" y="226" width="13" height="13"/>
<rect x="115" y="234" width="13" height="13"/>
<rect x="99" y="84" width="12" height="12"/>
<rect x="115" y="242" width="13" height="13"/>
<rect x="115" y="250" width="13" height="14"/>
<rect x="107" y="187" width="14" height="14"/>
<rect x="149" y="147" width="12" height="12"/>
<rect x="136" y="189" width="15" height="15"/>
<rect x="136" y="198" width="15" height="15"/>
<rect x="146" y="189" width="14" height="15"/>
<rect x="120" y="172" width="12" height="15"/>
<rect x="142" y="154" width="12" height="12"/>
<rect x="106" y="84" width="12" height="12"/>
<rect x="127" y="175" width="12" height="12"/>
<rect x="133" y="175" width="12" height="12"/>
<rect x="140" y="175" width="14" height="12"/>
<rect x="136" y="182" width="12" height="12"/>
<rect x="142" y="161" width="12" height="12"/>
<rect x="124" y="53" width="14" height="20"/>
<rect x="149" y="161" width="12" height="19"/>
<rect x="112" y="84" width="12" height="12"/>
<rect x="155" y="161" width="12" height="12"/>
<rect x="112" y="91" width="12" height="12"/>
<rect x="99" y="91" width="12" height="12"/>
<rect x="92" y="91" width="12" height="12"/>
<rect x="92" y="98" width="12" height="12"/>
<rect x="199" y="238" width="12" height="12"/>
<rect x="199" y="244" width="12" height="13"/>
<rect x="193" y="244" width="12" height="13"/>
<rect x="186" y="244" width="12" height="13"/>
<rect x="179" y="244" width="12" height="13"/>
<rect x="155" y="147" width="12" height="12"/>
<rect x="179" y="238" width="12" height="12"/>
<rect x="173" y="238" width="12" height="12"/>
<rect x="186" y="224" width="12" height="12"/>
<rect x="99" y="98" width="12" height="12"/>
<rect x="186" y="238" width="12" height="12"/>
<rect x="186" y="217" width="12" height="13"/>
<rect x="186" y="197" width="12" height="12"/>
<rect x="186" y="190" width="12" height="12"/>
<rect x="186" y="184" width="12" height="12"/>
<rect x="179" y="184" width="12" height="12"/>
<rect x="179" y="177" width="12" height="12"/>
<rect x="186" y="177" width="12" height="12"/>
<rect x="179" y="170" width="12" height="12"/>
<rect x="186" y="170" width="12" height="12"/>
<rect x="179" y="163" width="12" height="12"/>
<rect x="186" y="163" width="12" height="12"/>
<rect x="155" y="204" width="10" height="12"/>
<rect x="155" y="197" width="10" height="12"/>
<rect x="156" y="188" width="18" height="8"/>
<rect x="136" y="218" width="9" height="15"/>
<rect x="155" y="190" width="10" height="12"/>
</g>
</svg>