<svg xmlns="http://www.w3.org/2000/svg" width="300" height="300" viewBox="0 0 300 300" class="creatureMap" style="position:absolute;">
<defs>
  <filter id="blur" x="-30%" y="-30%" width="160%" height="160%">
    <feGaussianBlur stdDeviation="3" />
</filter>
<pattern id="pattern-untameable" width="10" height="10" patternTransform="rotate(135)" patternUnits="userSpaceOnUse">
<rect width="4" height="10" fill="black"></rect>
</pattern><filter id="groupStroke"><feFlood result="outsideColor" flood-color="black"/><feMorphology in="SourceAlpha" operator="dilate" radius="2"/><feComposite result="strokeoutline1" in="outsideColor" operator="in"/><feComposite result="strokeoutline2" in="strokeoutline1" in2="SourceAlpha" operator="out"/><feGaussianBlur in="strokeoutline2" result="strokeblur" stdDeviation="1"/></filter><style>.spawningMap-very-common { fill: #0F0;}.spawningMap-common { fill: #B2FF00;}.spawningMap-uncommon { fill: #FF0;}.spawningMap-very-uncommon { fill: #FC0;}.spawningMap-rare { fill: #F60;}.spawningMap-very-rare { fill: #F00; }.spawning-map-point {stroke:black; stroke-width:1;}</style></defs>
<g filter="url(#blur)" opacity="0.7"><g class="spawningMap-rare"><rect x="241" y="236" width="12" height="11" /><rect x="227" y="250" width="11" height="12" /><rect x="227" y="214" width="11" height="11" /><rect x="205" y="214" width="11" height="11" /><rect x="197" y="214" width="12" height="11" /><rect x="212" y="206" width="11" height="12" /><rect x="205" y="206" width="11" height="12" /><rect x="175" y="206" width="12" height="12" /><rect x="249" y="258" width="11" height="11" /><rect x="205" y="258" width="11" height="11" /><rect x="197" y="258" width="12" height="11" /><rect x="249" y="273" width="11" height="11" /><rect x="205" y="273" width="11" height="11" /><rect x="278" y="214" width="12" height="11" /><rect x="256" y="236" width="12" height="11" /><rect x="212" y="199" width="11" height="11" /><rect x="183" y="199" width="11" height="11" /><rect x="219" y="280" width="12" height="11" /><rect x="212" y="280" width="11" height="11" /></g><g class="spawningMap-very-uncommon"><rect x="241" y="228" width="12" height="12" /><rect x="205" y="243" width="11" height="12" /><rect x="219" y="258" width="12" height="11" /><rect x="264" y="265" width="11" height="12" /><rect x="234" y="265" width="12" height="12" /><rect x="227" y="265" width="11" height="12" /><rect x="219" y="273" width="12" height="11" /><rect x="212" y="273" width="11" height="11" /><rect x="234" y="284" width="12" height="12" /><rect x="278" y="243" width="12" height="12" /><rect x="278" y="221" width="12" height="12" /><rect x="271" y="250" width="11" height="12" /><rect x="271" y="228" width="11" height="12" /><rect x="271" y="206" width="11" height="12" /><rect x="256" y="243" width="12" height="12" /><rect x="110" y="157" width="18" height="17" /><rect x="249" y="280" width="11" height="11" /><rect x="227" y="280" width="11" height="11" /><rect x="256" y="284" width="12" height="12" /></g><g class="spawningMap-common"><rect x="256" y="221" width="12" height="12" /><rect x="256" y="206" width="12" height="12" /><rect x="249" y="250" width="11" height="12" /><rect x="249" y="236" width="11" height="11" /><rect x="249" y="243" width="11" height="12" /><rect x="249" y="228" width="11" height="12" /><rect x="249" y="214" width="11" height="11" /><rect x="249" y="221" width="11" height="12" /><rect x="249" y="206" width="11" height="12" /><rect x="241" y="250" width="12" height="12" /><rect x="241" y="243" width="12" height="12" /><rect x="241" y="214" width="12" height="11" /><rect x="241" y="221" width="12" height="12" /><rect x="241" y="206" width="12" height="12" /><rect x="234" y="250" width="12" height="12" /><rect x="234" y="236" width="12" height="11" /><rect x="234" y="243" width="12" height="12" /><rect x="234" y="228" width="12" height="12" /><rect x="234" y="214" width="12" height="11" /><rect x="234" y="221" width="12" height="12" /><rect x="234" y="206" width="12" height="12" /><rect x="227" y="236" width="11" height="11" /><rect x="227" y="243" width="11" height="12" /><rect x="227" y="228" width="11" height="12" /><rect x="227" y="221" width="11" height="12" /><rect x="227" y="206" width="11" height="12" /><rect x="219" y="250" width="12" height="12" /><rect x="219" y="236" width="12" height="11" /><rect x="219" y="243" width="12" height="12" /><rect x="219" y="228" width="12" height="12" /><rect x="219" y="214" width="12" height="11" /><rect x="219" y="221" width="12" height="12" /><rect x="212" y="250" width="11" height="12" /><rect x="212" y="236" width="11" height="11" /><rect x="212" y="243" width="11" height="12" /><rect x="212" y="228" width="11" height="12" /><rect x="212" y="214" width="11" height="11" /><rect x="212" y="221" width="11" height="12" /><rect x="278" y="192" width="12" height="11" /><rect x="205" y="250" width="11" height="12" /><rect x="205" y="236" width="11" height="11" /><rect x="205" y="228" width="11" height="12" /><rect x="205" y="221" width="11" height="12" /><rect x="271" y="192" width="12" height="11" /><rect x="264" y="192" width="11" height="11" /><rect x="197" y="250" width="12" height="12" /><rect x="197" y="236" width="12" height="11" /><rect x="197" y="243" width="12" height="12" /><rect x="197" y="228" width="12" height="12" /><rect x="197" y="221" width="12" height="12" /><rect x="256" y="192" width="12" height="11" /><rect x="190" y="258" width="11" height="11" /><rect x="190" y="250" width="11" height="12" /><rect x="190" y="236" width="11" height="11" /><rect x="190" y="243" width="11" height="12" /><rect x="190" y="228" width="11" height="12" /><rect x="190" y="214" width="11" height="11" /><rect x="190" y="221" width="11" height="12" /><rect x="30" y="140" width="12" height="11" /><rect x="183" y="258" width="11" height="11" /><rect x="183" y="250" width="11" height="12" /><rect x="183" y="236" width="11" height="11" /><rect x="183" y="243" width="11" height="12" /><rect x="183" y="228" width="11" height="12" /><rect x="183" y="214" width="11" height="11" /><rect x="183" y="221" width="11" height="12" /><rect x="131" y="179" width="12" height="12" /><rect x="219" y="206" width="12" height="12" /><rect x="197" y="206" width="12" height="12" /><rect x="190" y="206" width="11" height="12" /><rect x="183" y="206" width="11" height="12" /><rect x="205" y="199" width="11" height="11" /><rect x="205" y="192" width="11" height="11" /><rect x="197" y="192" width="12" height="11" /><rect x="175" y="236" width="12" height="11" /><rect x="175" y="243" width="12" height="12" /><rect x="175" y="228" width="12" height="12" /><rect x="175" y="214" width="12" height="11" /><rect x="175" y="221" width="12" height="12" /><rect x="264" y="258" width="11" height="11" /><rect x="256" y="258" width="12" height="11" /><rect x="241" y="258" width="12" height="11" /><rect x="234" y="258" width="12" height="11" /><rect x="227" y="258" width="11" height="11" /><rect x="212" y="258" width="11" height="11" /><rect x="256" y="265" width="12" height="12" /><rect x="249" y="265" width="11" height="12" /><rect x="241" y="265" width="12" height="12" /><rect x="219" y="265" width="12" height="12" /><rect x="212" y="265" width="11" height="12" /><rect x="205" y="265" width="11" height="12" /><rect x="197" y="265" width="12" height="12" /><rect x="264" y="273" width="11" height="11" /><rect x="256" y="273" width="12" height="11" /><rect x="241" y="273" width="12" height="11" /><rect x="234" y="273" width="12" height="11" /><rect x="227" y="273" width="11" height="11" /><rect x="197" y="273" width="12" height="11" /><rect x="234" y="280" width="12" height="11" /><rect x="153" y="192" width="12" height="11" /><rect x="131" y="194" width="12" height="12" /><rect x="146" y="199" width="11" height="12" /><rect x="146" y="192" width="11" height="11" /><rect x="146" y="184" width="11" height="12" /><rect x="117" y="177" width="11" height="12" /><rect x="155" y="119" width="12" height="12" /><rect x="91" y="159" width="12" height="12" /><rect x="139" y="184" width="11" height="12" /><rect x="99" y="159" width="11" height="12" /><rect x="155" y="112" width="12" height="11" /><rect x="162" y="110" width="12" height="11" /><rect x="170" y="110" width="11" height="11" /><rect x="131" y="187" width="12" height="11" /><rect x="139" y="199" width="11" height="12" /><rect x="173" y="89" width="11" height="11" /><rect x="101" y="167" width="11" height="11" /><rect x="148" y="115" width="11" height="12" /><rect x="124" y="69" width="11" height="12" /><rect x="150" y="150" width="11" height="12" /><rect x="30" y="147" width="12" height="11" /><rect x="231" y="79" width="11" height="11" /><rect x="238" y="79" width="11" height="11" /><rect x="238" y="71" width="11" height="12" /><rect x="227" y="115" width="11" height="12" /><rect x="227" y="108" width="11" height="12" /><rect x="204" y="141" width="11" height="12" /><rect x="189" y="141" width="11" height="12" /><rect x="204" y="134" width="11" height="11" /><rect x="196" y="141" width="12" height="12" /><rect x="196" y="134" width="12" height="11" /><rect x="110" y="91" width="11" height="12" /><rect x="110" y="84" width="11" height="11" /><rect x="129" y="106" width="11" height="12" /><rect x="129" y="99" width="11" height="11" /><rect x="136" y="106" width="11" height="12" /><rect x="136" y="99" width="11" height="11" /><rect x="143" y="106" width="12" height="12" /><rect x="143" y="99" width="12" height="11" /><rect x="150" y="106" width="12" height="12" /><rect x="150" y="99" width="12" height="11" /><rect x="139" y="82" width="11" height="12" /><rect x="139" y="75" width="11" height="11" /><rect x="117" y="77" width="11" height="11" /><rect x="124" y="77" width="12" height="11" /><rect x="220" y="175" width="11" height="12" /><rect x="220" y="168" width="11" height="11" /><rect x="227" y="170" width="11" height="11" /><rect x="227" y="177" width="11" height="11" /><rect x="234" y="177" width="12" height="11" /><rect x="234" y="184" width="12" height="12" /><rect x="242" y="184" width="11" height="12" /><rect x="247" y="192" width="11" height="11" /><rect x="247" y="199" width="11" height="11" /><rect x="157" y="148" width="12" height="12" /><rect x="164" y="148" width="12" height="11" /><rect x="116" y="236" width="12" height="11" /><rect x="82" y="88" width="11" height="12" /><rect x="82" y="96" width="11" height="11" /><rect x="82" y="103" width="11" height="11" /><rect x="82" y="110" width="11" height="12" /><rect x="82" y="118" width="11" height="11" /><rect x="124" y="236" width="11" height="11" /><rect x="74" y="88" width="12" height="12" /><rect x="74" y="96" width="12" height="11" /><rect x="74" y="103" width="12" height="11" /><rect x="74" y="110" width="12" height="12" /><rect x="67" y="88" width="12" height="12" /><rect x="67" y="96" width="12" height="11" /><rect x="67" y="103" width="12" height="11" /><rect x="67" y="110" width="12" height="12" /><rect x="67" y="118" width="12" height="11" /><rect x="150" y="157" width="11" height="12" /><rect x="60" y="88" width="11" height="12" /><rect x="60" y="96" width="11" height="11" /><rect x="60" y="103" width="11" height="11" /><rect x="60" y="110" width="11" height="12" /><rect x="60" y="118" width="11" height="11" /><rect x="52" y="81" width="12" height="11" /><rect x="52" y="88" width="12" height="12" /><rect x="52" y="96" width="12" height="11" /><rect x="52" y="103" width="12" height="11" /><rect x="52" y="110" width="12" height="12" /><rect x="52" y="118" width="12" height="11" /><rect x="45" y="81" width="12" height="11" /><rect x="45" y="88" width="12" height="12" /><rect x="45" y="96" width="12" height="11" /><rect x="45" y="103" width="12" height="11" /><rect x="45" y="110" width="12" height="12" /><rect x="271" y="273" width="12" height="11" /><rect x="93" y="167" width="12" height="11" /><rect x="116" y="243" width="12" height="12" /><rect x="278" y="265" width="12" height="12" /><rect x="124" y="243" width="11" height="12" /><rect x="157" y="167" width="12" height="12" /><rect x="109" y="243" width="12" height="12" /><rect x="278" y="206" width="12" height="12" /><rect x="278" y="258" width="12" height="11" /><rect x="102" y="236" width="11" height="11" /><rect x="278" y="250" width="12" height="12" /><rect x="278" y="236" width="12" height="11" /><rect x="102" y="243" width="11" height="12" /><rect x="278" y="228" width="12" height="12" /><rect x="102" y="250" width="11" height="12" /><rect x="164" y="170" width="12" height="12" /><rect x="23" y="140" width="11" height="11" /><rect x="172" y="96" width="12" height="11" /><rect x="23" y="147" width="11" height="11" /><rect x="23" y="125" width="11" height="11" /><rect x="271" y="258" width="11" height="11" /><rect x="169" y="178" width="12" height="11" /><rect x="23" y="132" width="11" height="12" /><rect x="177" y="178" width="11" height="11" /><rect x="23" y="110" width="11" height="12" /><rect x="23" y="118" width="11" height="11" /><rect x="181" y="170" width="11" height="12" /><rect x="188" y="170" width="12" height="12" /><rect x="164" y="141" width="12" height="11" /><rect x="164" y="133" width="12" height="12" /><rect x="164" y="126" width="12" height="11" /><rect x="172" y="129" width="11" height="11" /><rect x="179" y="129" width="12" height="11" /><rect x="183" y="121" width="12" height="12" /><rect x="109" y="177" width="12" height="12" /><rect x="16" y="140" width="11" height="11" /><rect x="16" y="147" width="11" height="11" /><rect x="124" y="179" width="12" height="12" /><rect x="271" y="199" width="11" height="11" /><rect x="82" y="81" width="11" height="11" /><rect x="74" y="81" width="12" height="11" /><rect x="67" y="81" width="12" height="11" /><rect x="60" y="81" width="11" height="11" /><rect x="38" y="81" width="11" height="11" /><rect x="30" y="81" width="12" height="11" /><rect x="30" y="74" width="12" height="11" /><rect x="16" y="125" width="11" height="11" /><rect x="143" y="128" width="12" height="12" /><rect x="143" y="135" width="12" height="12" /><rect x="138" y="143" width="12" height="11" /><rect x="131" y="143" width="11" height="11" /><rect x="119" y="135" width="11" height="11" /><rect x="111" y="135" width="12" height="11" /><rect x="271" y="236" width="11" height="11" /><rect x="111" y="127" width="12" height="12" /><rect x="73" y="130" width="12" height="12" /><rect x="81" y="130" width="11" height="12" /><rect x="80" y="137" width="11" height="12" /><rect x="84" y="145" width="12" height="11" /><rect x="89" y="152" width="11" height="12" /><rect x="271" y="243" width="11" height="12" /><rect x="271" y="214" width="11" height="11" /><rect x="271" y="221" width="11" height="12" /><rect x="16" y="132" width="11" height="12" /><rect x="16" y="110" width="11" height="12" /><rect x="278" y="199" width="12" height="11" /><rect x="264" y="250" width="11" height="12" /><rect x="264" y="236" width="11" height="11" /><rect x="264" y="243" width="11" height="12" /><rect x="264" y="228" width="11" height="12" /><rect x="16" y="118" width="11" height="11" /><rect x="139" y="192" width="11" height="11" /><rect x="74" y="118" width="12" height="11" /><rect x="45" y="118" width="12" height="11" /><rect x="38" y="118" width="11" height="11" /><rect x="30" y="118" width="12" height="11" /><rect x="52" y="125" width="12" height="11" /><rect x="45" y="125" width="12" height="11" /><rect x="38" y="125" width="11" height="11" /><rect x="30" y="125" width="12" height="11" /><rect x="52" y="132" width="12" height="12" /><rect x="45" y="132" width="12" height="12" /><rect x="38" y="132" width="11" height="12" /><rect x="30" y="132" width="12" height="12" /><rect x="52" y="140" width="12" height="11" /><rect x="45" y="140" width="12" height="11" /><rect x="38" y="140" width="11" height="11" /><rect x="16" y="96" width="11" height="11" /><rect x="52" y="147" width="12" height="11" /><rect x="45" y="147" width="12" height="11" /><rect x="38" y="147" width="11" height="11" /><rect x="16" y="103" width="11" height="12" /><rect x="52" y="154" width="12" height="12" /><rect x="45" y="154" width="12" height="12" /><rect x="38" y="154" width="11" height="12" /><rect x="30" y="154" width="12" height="12" /><rect x="16" y="81" width="11" height="12" /><rect x="16" y="88" width="11" height="12" /><rect x="16" y="66" width="11" height="12" /><rect x="16" y="74" width="11" height="11" /><rect x="8" y="96" width="12" height="11" /><rect x="8" y="103" width="12" height="12" /><rect x="8" y="81" width="12" height="12" /><rect x="8" y="88" width="12" height="12" /><rect x="8" y="66" width="12" height="12" /><rect x="8" y="74" width="12" height="11" /><rect x="45" y="162" width="12" height="11" /><rect x="38" y="162" width="11" height="11" /><rect x="30" y="162" width="12" height="11" /><rect x="264" y="214" width="11" height="11" /><rect x="153" y="199" width="12" height="12" /><rect x="153" y="206" width="12" height="12" /><rect x="153" y="221" width="12" height="11" /><rect x="153" y="228" width="12" height="12" /><rect x="161" y="221" width="11" height="11" /><rect x="161" y="228" width="11" height="12" /><rect x="264" y="221" width="11" height="12" /><rect x="264" y="206" width="11" height="12" /><rect x="256" y="250" width="12" height="12" /><rect x="256" y="228" width="12" height="12" /><rect x="256" y="214" width="12" height="11" /><rect x="196" y="170" width="11" height="12" /><rect x="150" y="165" width="11" height="11" /><rect x="142" y="152" width="12" height="12" /><rect x="183" y="106" width="12" height="12" /><rect x="142" y="159" width="12" height="12" /><rect x="183" y="114" width="12" height="11" /><rect x="153" y="184" width="12" height="12" /><rect x="146" y="206" width="11" height="12" /><rect x="161" y="206" width="11" height="12" /><rect x="153" y="214" width="12" height="11" /><rect x="271" y="265" width="12" height="12" /><rect x="175" y="258" width="12" height="11" /><rect x="175" y="250" width="12" height="12" /><rect x="219" y="199" width="12" height="11" /><rect x="197" y="199" width="12" height="11" /><rect x="190" y="199" width="11" height="11" /><rect x="175" y="199" width="12" height="11" /><rect x="190" y="192" width="11" height="11" /><rect x="168" y="236" width="11" height="11" /><rect x="168" y="243" width="11" height="12" /><rect x="168" y="228" width="11" height="12" /><rect x="168" y="214" width="11" height="11" /><rect x="168" y="221" width="11" height="12" /><rect x="168" y="206" width="11" height="12" /><rect x="264" y="280" width="11" height="11" /><rect x="256" y="280" width="12" height="11" /><rect x="241" y="280" width="12" height="11" /><rect x="205" y="280" width="11" height="11" /><rect x="197" y="280" width="12" height="11" /><rect x="264" y="199" width="11" height="11" /><rect x="256" y="199" width="12" height="11" /><rect x="189" y="148" width="11" height="12" /><rect x="204" y="126" width="11" height="12" /><rect x="204" y="119" width="11" height="12" /><rect x="196" y="119" width="12" height="12" /><rect x="117" y="84" width="11" height="11" /><rect x="234" y="86" width="12" height="12" /><rect x="124" y="84" width="12" height="11" /><rect x="132" y="82" width="11" height="12" /><rect x="132" y="75" width="11" height="11" /><rect x="146" y="80" width="12" height="11" /><rect x="146" y="72" width="12" height="12" /><rect x="117" y="69" width="11" height="12" /><rect x="231" y="71" width="11" height="12" /><rect x="109" y="236" width="12" height="11" /><rect x="116" y="250" width="12" height="12" /><rect x="124" y="250" width="11" height="12" /><rect x="109" y="250" width="12" height="12" /><rect x="94" y="228" width="12" height="12" /><rect x="94" y="236" width="12" height="11" /><rect x="94" y="243" width="12" height="12" /><rect x="223" y="71" width="12" height="12" /><rect x="249" y="184" width="12" height="12" /><rect x="234" y="170" width="12" height="11" /><rect x="239" y="192" width="12" height="11" /><rect x="1" y="96" width="11" height="11" /><rect x="1" y="103" width="11" height="12" /><rect x="1" y="81" width="11" height="12" /><rect x="1" y="88" width="11" height="12" /><rect x="1" y="66" width="11" height="12" /><rect x="1" y="74" width="11" height="11" /><rect x="45" y="169" width="12" height="11" /><rect x="38" y="169" width="11" height="11" /><rect x="30" y="169" width="12" height="11" /><rect x="38" y="88" width="11" height="12" /><rect x="38" y="96" width="11" height="11" /><rect x="38" y="103" width="11" height="11" /><rect x="38" y="110" width="11" height="12" /><rect x="30" y="88" width="12" height="12" /><rect x="30" y="96" width="12" height="11" /><rect x="30" y="103" width="12" height="11" /><rect x="30" y="110" width="12" height="12" /><rect x="82" y="74" width="11" height="11" /><rect x="74" y="74" width="12" height="11" /><rect x="67" y="74" width="12" height="11" /><rect x="60" y="74" width="11" height="11" /><rect x="38" y="74" width="11" height="11" /><rect x="52" y="162" width="12" height="11" /><rect x="23" y="74" width="11" height="11" /><rect x="23" y="81" width="11" height="11" /></g></g>
</svg>