<svg xmlns="http://www.w3.org/2000/svg" width="300" height="300" viewBox="0 0 300 300" class="creatureMap" style="position:absolute;">
<defs>
<filter id="blur" x="-30%" y="-30%" width="160%" height="160%"><feGaussianBlur stdDeviation="3" />
</filter>
<pattern id="pattern-untameable" width="10" height="10" patternTransform="rotate(135)" patternUnits="userSpaceOnUse"><rect width="4" height="10" fill="black"></rect>
</pattern>
<filter id="groupStroke"><feFlood result="outsideColor" flood-color="black"/><feMorphology in="SourceAlpha" operator="dilate" radius="2"/><feComposite result="strokeoutline1" in="outsideColor" operator="in"/><feComposite result="strokeoutline2" in="strokeoutline1" in2="SourceAlpha" operator="out"/><feGaussianBlur in="strokeoutline2" result="strokeblur" stdDeviation="1"/>
</filter>
<style>
.spawningMap-very-common { fill: #0F0;}
.spawningMap-common { fill: #B2FF00;}
.spawningMap-uncommon { fill: #FF0;}
.spawningMap-very-uncommon { fill: #FC0;}
.spawningMap-rare { fill: #F60;}
.spawningMap-very-rare { fill: #F00; }.spawning-map-point {stroke:black; stroke-width:1;}
</style>
</defs>
<g filter="url(#blur)" opacity="0.7">
<g class="spawningMap-common"><rect x="156" y="156" width="8" height="6" /><rect x="154" y="151" width="7" height="7" /><rect x="196" y="189" width="9" height="8" />
</g>
<g class="spawningMap-very-common"><rect x="165" y="160" width="6" height="4" /><rect x="165" y="164" width="6" height="4" /><rect x="172" y="164" width="5" height="4" /><rect x="172" y="159" width="5" height="5" /><rect x="172" y="155" width="5" height="4" /><rect x="165" y="155" width="6" height="4" /><rect x="158" y="153" width="6" height="4" /><rect x="153" y="160" width="4" height="5" /><rect x="150" y="152" width="5" height="5" /><rect x="149" y="149" width="4" height="5" /><rect x="156" y="165" width="4" height="4" /><rect x="159" y="158" width="5" height="5" /><rect x="156" y="161" width="4" height="4" /><rect x="156" y="183" width="5" height="5" /><rect x="152" y="184" width="4" height="5" /><rect x="149" y="168" width="5" height="5" /><rect x="146" y="166" width="5" height="5" /><rect x="145" y="161" width="5" height="5" /><rect x="148" y="157" width="5" height="5" /><rect x="148" y="157" width="4" height="4" /><rect x="81" y="112" width="23" height="15" /><rect x="81" y="126" width="9" height="9" /><rect x="198" y="279" width="5" height="8" /><rect x="92" y="111" width="10" height="9" /><rect x="98" y="111" width="6" height="9" /><rect x="87" y="124" width="5" height="9" /><rect x="91" y="116" width="10" height="9" /><rect x="99" y="262" width="10" height="8" /><rect x="96" y="283" width="9" height="6" />
</g>
</g>
<g class="spawning-map-point" opacity="0.8">
</g>
<g fill="url(#pattern-untameable)" opacity="0.3"><rect x="156" y="156" width="8" height="6"/><rect x="154" y="151" width="7" height="7"/><rect x="165" y="160" width="6" height="4"/><rect x="165" y="164" width="6" height="4"/><rect x="172" y="164" width="5" height="4"/><rect x="172" y="159" width="5" height="5"/><rect x="172" y="155" width="5" height="4"/><rect x="165" y="155" width="6" height="4"/><rect x="158" y="153" width="6" height="4"/><rect x="153" y="160" width="4" height="5"/><rect x="150" y="152" width="5" height="5"/><rect x="149" y="149" width="4" height="5"/><rect x="156" y="165" width="4" height="4"/><rect x="159" y="158" width="5" height="5"/><rect x="156" y="161" width="4" height="4"/><rect x="156" y="183" width="5" height="5"/><rect x="152" y="184" width="4" height="5"/><rect x="149" y="168" width="5" height="5"/><rect x="146" y="166" width="5" height="5"/><rect x="145" y="161" width="5" height="5"/><rect x="148" y="157" width="5" height="5"/><rect x="148" y="157" width="4" height="4"/>
</g>
<g filter="url(#groupStroke)" opacity="0.8"><rect x="156" y="156" width="8" height="6"/><rect x="154" y="151" width="7" height="7"/><rect x="196" y="189" width="9" height="8"/><rect x="165" y="160" width="6" height="4"/><rect x="165" y="164" width="6" height="4"/><rect x="172" y="164" width="5" height="4"/><rect x="172" y="159" width="5" height="5"/><rect x="172" y="155" width="5" height="4"/><rect x="165" y="155" width="6" height="4"/><rect x="158" y="153" width="6" height="4"/><rect x="153" y="160" width="4" height="5"/><rect x="150" y="152" width="5" height="5"/><rect x="149" y="149" width="4" height="5"/><rect x="156" y="165" width="4" height="4"/><rect x="159" y="158" width="5" height="5"/><rect x="156" y="161" width="4" height="4"/><rect x="156" y="183" width="5" height="5"/><rect x="152" y="184" width="4" height="5"/><rect x="149" y="168" width="5" height="5"/><rect x="146" y="166" width="5" height="5"/><rect x="145" y="161" width="5" height="5"/><rect x="148" y="157" width="5" height="5"/><rect x="148" y="157" width="4" height="4"/><rect x="81" y="112" width="23" height="15"/><rect x="81" y="126" width="9" height="9"/><rect x="198" y="279" width="5" height="8"/><rect x="92" y="111" width="10" height="9"/><rect x="98" y="111" width="6" height="9"/><rect x="87" y="124" width="5" height="9"/><rect x="91" y="116" width="10" height="9"/><rect x="99" y="262" width="10" height="8"/><rect x="96" y="283" width="9" height="6"/>
</g>
</svg>