<?xml version="1.0" encoding="utf-8"?>
<svg xmlns="http://www.w3.org/2000/svg" width="300" height="300" viewBox="0 0 300 300" class="creatureMap" style="position:absolute;">
<defs>
    <filter id="blur" x="-30%" y="-30%" width="160%" height="160%">
        <feGaussianBlur stdDeviation="3" />
    </filter>
    <style>
        .spawningMap-very-common { fill: #0F0; }
        .spawningMap-common { fill: #B2FF00; }
        .spawningMap-uncommon { fill: #FF0; }
        .spawningMap-very-uncommon { fill: #FC0; }
        .spawningMap-rare { fill: #F60; }
        .spawningMap-very-rare { fill: #F00; }
        .spawning-map-point { stroke:black; stroke-width:1; }
    </style>
    <pattern id="pattern-untameable" width="10" height="10" patternTransform="rotate(135)" patternUnits="userSpaceOnUse">
        <rect width="4" height="10" fill="black"></rect>
    </pattern>
</defs>
<g filter="url(#blur)" opacity="0.7">
    <g class="spawningMap-common">
        <rect x="140" y="218" width="64" height="25" />
        <rect x="105" y="38" width="44" height="24" />
        <rect x="147" y="38" width="44" height="20" />
        <rect x="18" y="256" width="43" height="20" />
        <rect x="66" y="240" width="48" height="20" />
        <rect x="19" y="240" width="48" height="20" />
    </g>
    <g class="spawningMap-very-common">
        <rect x="40" y="207" width="16" height="45" />
        <rect x="18" y="38" width="36" height="16" />
        <rect x="51" y="26" width="25" height="17" />
        <rect x="189" y="26" width="44" height="16" />
        <rect x="230" y="26" width="45" height="16" />
        <rect x="189" y="37" width="44" height="17" />
        <rect x="18" y="26" width="36" height="16" />
        <rect x="230" y="37" width="45" height="17" />
        <rect x="259" y="196" width="17" height="33" />
        <rect x="259" y="154" width="17" height="45" />
        <rect x="259" y="112" width="17" height="44" />
        <rect x="199" y="225" width="48" height="16" />
        <rect x="17" y="60" width="16" height="38" />
        <rect x="18" y="138" width="16" height="26" />
        <rect x="18" y="160" width="16" height="26" />
        <rect x="18" y="182" width="16" height="26" />
        <rect x="18" y="204" width="16" height="25" />
        <rect x="30" y="164" width="16" height="44" />
        <rect x="152" y="225" width="48" height="16" />
        <rect x="105" y="26" width="44" height="16" />
        <rect x="147" y="26" width="44" height="16" />
    </g></g>
<g fill="url(#pattern-untameable)" opacity="0.3">
        <rect x="140" y="218" width="64" height="25" />
        <rect x="105" y="38" width="44" height="24" />
        <rect x="147" y="38" width="44" height="20" />
        <rect x="18" y="256" width="43" height="20" />
        <rect x="66" y="240" width="48" height="20" />
        <rect x="19" y="240" width="48" height="20" />
        <rect x="40" y="207" width="16" height="45" />
        <rect x="18" y="38" width="36" height="16" />
        <rect x="51" y="26" width="25" height="17" />
        <rect x="189" y="26" width="44" height="16" />
        <rect x="230" y="26" width="45" height="16" />
        <rect x="189" y="37" width="44" height="17" />
        <rect x="18" y="26" width="36" height="16" />
        <rect x="230" y="37" width="45" height="17" />
        <rect x="259" y="196" width="17" height="33" />
        <rect x="259" y="154" width="17" height="45" />
        <rect x="259" y="112" width="17" height="44" />
        <rect x="199" y="225" width="48" height="16" />
        <rect x="17" y="60" width="16" height="38" />
        <rect x="18" y="138" width="16" height="26" />
        <rect x="18" y="160" width="16" height="26" />
        <rect x="18" y="182" width="16" height="26" />
        <rect x="18" y="204" width="16" height="25" />
        <rect x="30" y="164" width="16" height="44" />
        <rect x="152" y="225" width="48" height="16" />
        <rect x="105" y="26" width="44" height="16" />
        <rect x="147" y="26" width="44" height="16" />
</g>
</svg>