<?xml version="1.0" encoding="utf-8"?>
<svg xmlns="http://www.w3.org/2000/svg" width="300" height="300" viewBox="0 0 300 300" class="creatureMap" style="position:absolute;">
<defs>
    <filter id="blur" x="-30%" y="-30%" width="160%" height="160%">
        <feGaussianBlur stdDeviation="3" />
    </filter>
    <style>
        .spawningMap-very-common { fill: #0F0; }
        .spawningMap-common { fill: #B2FF00; }
        .spawningMap-uncommon { fill: #FF0; }
        .spawningMap-very-uncommon { fill: #FC0; }
        .spawningMap-rare { fill: #F60; }
        .spawningMap-very-rare { fill: #F00; }
        .spawning-map-point { stroke:black; stroke-width:1; }
    </style>
    <pattern id="pattern-untameable" width="10" height="10" patternTransform="rotate(135)" patternUnits="userSpaceOnUse">
        <rect width="4" height="10" fill="black"></rect>
    </pattern>
</defs>
<g filter="url(#blur)" opacity="0.7">
    <g class="spawningMap-very-common">
        <rect x="119" y="201" width="8" height="8" />
        <rect x="243" y="128" width="12" height="12" />
        <rect x="236" y="121" width="12" height="12" />
        <rect x="243" y="134" width="12" height="12" />
        <rect x="250" y="145" width="12" height="12" />
        <rect x="243" y="121" width="12" height="12" />
        <rect x="156" y="118" width="13" height="12" />
        <rect x="149" y="119" width="12" height="11" />
        <rect x="243" y="141" width="12" height="12" />
        <rect x="250" y="138" width="12" height="12" />
        <rect x="149" y="124" width="13" height="13" />
        <rect x="149" y="131" width="12" height="15" />
        <rect x="143" y="120" width="11" height="12" />
        <rect x="143" y="138" width="11" height="12" />
        <rect x="144" y="159" width="13" height="12" />
        <rect x="134" y="145" width="13" height="12" />
        <rect x="137" y="177" width="13" height="12" />
        <rect x="163" y="185" width="13" height="12" />
        <rect x="181" y="83" width="13" height="12" />
        <rect x="193" y="95" width="13" height="12" />
        <rect x="220" y="84" width="11" height="12" />
        <rect x="214" y="85" width="11" height="11" />
        <rect x="208" y="85" width="12" height="11" />
        <rect x="209" y="80" width="11" height="10" />
        <rect x="215" y="90" width="12" height="14" />
        <rect x="208" y="90" width="12" height="11" />
        <rect x="209" y="100" width="11" height="11" />
        <rect x="214" y="80" width="11" height="10" />
        <rect x="179" y="90" width="14" height="12" />
        <rect x="188" y="97" width="12" height="12" />
        <rect x="181" y="97" width="12" height="12" />
        <rect x="185" y="104" width="12" height="12" />
        <rect x="180" y="104" width="10" height="12" />
        <rect x="178" y="111" width="12" height="12" />
        <rect x="178" y="118" width="14" height="12" />
        <rect x="171" y="111" width="12" height="12" />
        <rect x="171" y="118" width="12" height="12" />
        <rect x="163" y="112" width="13" height="11" />
        <rect x="163" y="118" width="13" height="12" />
        <rect x="163" y="124" width="13" height="12" />
        <rect x="188" y="90" width="12" height="12" />
        <rect x="178" y="124" width="14" height="11" />
        <rect x="171" y="124" width="12" height="12" />
        <rect x="163" y="131" width="13" height="12" />
        <rect x="163" y="138" width="13" height="12" />
        <rect x="83" y="123" width="13" height="19" />
        <rect x="207" y="95" width="13" height="11" />
        <rect x="211" y="74" width="14" height="11" />
        <rect x="215" y="98" width="11" height="14" />
        <rect x="225" y="86" width="13" height="13" />
        <rect x="249" y="108" width="12" height="12" />
        <rect x="236" y="127" width="12" height="13" />
        <rect x="243" y="114" width="12" height="12" />
    </g>
    <g class="spawningMap-uncommon">
        <rect x="250" y="83" width="14" height="16" />
    </g>
    <g class="spawningMap-very-uncommon">
        <rect x="237" y="90" width="19" height="22" />
    </g>
    <g class="spawningMap-common">
        <rect x="156" y="203" width="23" height="23" />
    </g></g>
<g fill="url(#pattern-untameable)" opacity="0.3">
        <rect x="119" y="201" width="8" height="8" />
</g>
</svg>