<svg xmlns="http://www.w3.org/2000/svg" width="300" height="300" viewBox="0 0 300 300" class="creatureMap" style="position:absolute;">
<defs>
  <filter id="blur" x="-30%" y="-30%" width="160%" height="160%">
    <feGaussianBlur stdDeviation="3" />
</filter>
<pattern id="pattern-untameable" width="10" height="10" patternTransform="rotate(135)" patternUnits="userSpaceOnUse">
<rect width="4" height="10" fill="black"></rect>
</pattern><filter id="groupStroke"><feFlood result="outsideColor" flood-color="black"/><feMorphology in="SourceAlpha" operator="dilate" radius="2"/><feComposite result="strokeoutline1" in="outsideColor" operator="in"/><feComposite result="strokeoutline2" in="strokeoutline1" in2="SourceAlpha" operator="out"/><feGaussianBlur in="strokeoutline2" result="strokeblur" stdDeviation="1"/></filter><style>.spawningMap-very-common { fill: #0F0;}.spawningMap-common { fill: #B2FF00;}.spawningMap-uncommon { fill: #FF0;}.spawningMap-very-uncommon { fill: #FC0;}.spawningMap-rare { fill: #F60;}.spawningMap-very-rare { fill: #F00; }.spawning-map-point {stroke:black; stroke-width:1;}</style></defs>
<g filter="url(#blur)" opacity="0.7"><g class="spawningMap-uncommon"><rect x="239" y="114" width="15" height="14" /></g><g class="spawningMap-common"><rect x="204" y="27" width="15" height="15" /><rect x="212" y="36" width="15" height="15" /><rect x="252" y="150" width="13" height="13" /><rect x="247" y="145" width="13" height="13" /><rect x="247" y="138" width="12" height="12" /><rect x="243" y="123" width="12" height="13" /><rect x="235" y="123" width="13" height="13" /><rect x="200" y="36" width="15" height="15" /><rect x="221" y="34" width="15" height="15" /><rect x="233" y="31" width="15" height="15" /><rect x="247" y="130" width="13" height="13" /><rect x="248" y="109" width="12" height="12" /></g><g class="spawningMap-very-common"><rect x="208" y="29" width="7" height="7" /><rect x="242" y="25" width="8" height="7" /><rect x="241" y="23" width="8" height="8" /><rect x="239" y="23" width="8" height="8" /><rect x="237" y="23" width="8" height="8" /><rect x="235" y="23" width="8" height="7" /><rect x="208" y="24" width="7" height="8" /><rect x="203" y="25" width="8" height="8" /><rect x="206" y="28" width="7" height="8" /><rect x="209" y="21" width="9" height="9" /><rect x="210" y="24" width="8" height="9" /><rect x="212" y="20" width="9" height="9" /><rect x="213" y="23" width="9" height="9" /><rect x="215" y="19" width="9" height="9" /><rect x="216" y="23" width="9" height="9" /><rect x="219" y="19" width="9" height="9" /><rect x="219" y="22" width="9" height="9" /><rect x="222" y="19" width="9" height="9" /><rect x="223" y="22" width="9" height="9" /><rect x="225" y="18" width="9" height="9" /><rect x="226" y="21" width="9" height="9" /><rect x="242" y="27" width="8" height="7" /><rect x="229" y="19" width="9" height="9" /><rect x="228" y="22" width="9" height="9" /><rect x="232" y="20" width="9" height="9" /><rect x="231" y="23" width="9" height="9" /><rect x="111" y="215" width="9" height="10" /><rect x="113" y="219" width="8" height="8" /><rect x="103" y="208" width="11" height="11" /><rect x="116" y="218" width="8" height="9" /><rect x="103" y="214" width="12" height="14" /><rect x="109" y="208" width="10" height="11" /><rect x="115" y="221" width="9" height="7" /><rect x="114" y="210" width="8" height="8" /></g></g>

<g fill="url(#pattern-untameable)" opacity="0.3"><rect x="111" y="215" width="9" height="10"/><rect x="113" y="219" width="8" height="8"/><rect x="103" y="208" width="11" height="11"/><rect x="116" y="218" width="8" height="9"/><rect x="103" y="214" width="12" height="14"/><rect x="109" y="208" width="10" height="11"/><rect x="115" y="221" width="9" height="7"/><rect x="114" y="210" width="8" height="8"/></g>
<g filter="url(#groupStroke)" opacity="0.8"><rect x="111" y="215" width="9" height="10"/><rect x="113" y="219" width="8" height="8"/><rect x="103" y="208" width="11" height="11"/><rect x="116" y="218" width="8" height="9"/><rect x="103" y="214" width="12" height="14"/><rect x="109" y="208" width="10" height="11"/><rect x="115" y="221" width="9" height="7"/><rect x="114" y="210" width="8" height="8"/></g></svg>