<?xml version="1.0" encoding="utf-8"?>
<svg xmlns="http://www.w3.org/2000/svg" width="300" height="300" viewBox="0 0 300 300" class="creatureMap" style="position:absolute;">
<defs>
    <filter id="blur" x="-30%" y="-30%" width="160%" height="160%">
        <feGaussianBlur stdDeviation="3" />
    </filter>
    <style>
        .spawningMap-very-common { fill: #0F0; }
        .spawningMap-common { fill: #B2FF00; }
        .spawningMap-uncommon { fill: #FF0; }
        .spawningMap-very-uncommon { fill: #FC0; }
        .spawningMap-rare { fill: #F60; }
        .spawningMap-very-rare { fill: #F00; }
        .spawning-map-point { stroke:black; stroke-width:1; }
    </style>
</defs>
<g filter="url(#blur)" opacity="0.7">
    <g class="spawningMap-very-common">
        <rect x="185" y="243" width="12" height="13" />
        <rect x="177" y="236" width="13" height="13" />
        <rect x="185" y="236" width="12" height="13" />
        <rect x="192" y="236" width="12" height="13" />
        <rect x="177" y="229" width="13" height="13" />
        <rect x="170" y="222" width="13" height="13" />
        <rect x="170" y="215" width="13" height="13" />
        <rect x="177" y="215" width="13" height="13" />
        <rect x="220" y="187" width="13" height="12" />
        <rect x="292" y="187" width="8" height="12" />
        <rect x="213" y="180" width="13" height="12" />
        <rect x="220" y="180" width="13" height="12" />
        <rect x="227" y="180" width="13" height="12" />
        <rect x="242" y="180" width="12" height="12" />
        <rect x="256" y="180" width="12" height="12" />
        <rect x="285" y="180" width="12" height="12" />
        <rect x="292" y="180" width="8" height="12" />
        <rect x="220" y="49" width="13" height="12" />
        <rect x="227" y="49" width="13" height="12" />
        <rect x="277" y="49" width="13" height="12" />
        <rect x="285" y="49" width="12" height="12" />
        <rect x="227" y="56" width="13" height="12" />
        <rect x="256" y="63" width="12" height="12" />
        <rect x="263" y="63" width="13" height="12" />
        <rect x="270" y="63" width="13" height="12" />
        <rect x="277" y="70" width="13" height="12" />
        <rect x="192" y="77" width="12" height="12" />
        <rect x="277" y="77" width="13" height="12" />
        <rect x="192" y="84" width="12" height="12" />
        <rect x="170" y="152" width="13" height="12" />
        <rect x="192" y="152" width="12" height="12" />
        <rect x="199" y="152" width="12" height="12" />
        <rect x="206" y="152" width="13" height="12" />
        <rect x="227" y="152" width="13" height="12" />
        <rect x="235" y="152" width="12" height="12" />
        <rect x="242" y="152" width="12" height="12" />
        <rect x="270" y="152" width="13" height="12" />
        <rect x="277" y="152" width="13" height="12" />
        <rect x="285" y="152" width="12" height="12" />
        <rect x="292" y="152" width="8" height="12" />
        <rect x="292" y="56" width="8" height="12" />
        <rect x="299" y="56" width="1" height="12" />
        <rect x="292" y="63" width="8" height="12" />
        <rect x="299" y="63" width="1" height="12" />
        <rect x="299" y="70" width="1" height="12" />
        <rect x="292" y="77" width="8" height="12" />
        <rect x="299" y="77" width="1" height="12" />
        <rect x="299" y="84" width="1" height="12" />
        <rect x="285" y="91" width="12" height="12" />
        <rect x="292" y="91" width="8" height="12" />
        <rect x="299" y="91" width="1" height="12" />
        <rect x="285" y="98" width="12" height="12" />
        <rect x="292" y="98" width="8" height="12" />
        <rect x="299" y="98" width="1" height="12" />
        <rect x="285" y="105" width="12" height="13" />
        <rect x="292" y="105" width="8" height="13" />
        <rect x="177" y="250" width="13" height="13" />
        <rect x="185" y="250" width="12" height="13" />
        <rect x="192" y="250" width="12" height="13" />
        <rect x="299" y="250" width="1" height="13" />
        <rect x="177" y="243" width="13" height="13" />
        <rect x="192" y="243" width="12" height="13" />
        <rect x="263" y="243" width="13" height="13" />
        <rect x="270" y="243" width="13" height="13" />
        <rect x="299" y="243" width="1" height="13" />
        <rect x="299" y="28" width="1" height="12" />
        <rect x="220" y="236" width="13" height="13" />
        <rect x="199" y="229" width="12" height="13" />
        <rect x="206" y="229" width="13" height="13" />
        <rect x="242" y="229" width="12" height="13" />
        <rect x="249" y="229" width="12" height="13" />
        <rect x="277" y="229" width="13" height="13" />
        <rect x="285" y="229" width="12" height="13" />
        <rect x="299" y="229" width="1" height="13" />
        <rect x="177" y="222" width="13" height="13" />
        <rect x="227" y="222" width="13" height="13" />
        <rect x="235" y="222" width="12" height="13" />
        <rect x="242" y="222" width="12" height="13" />
        <rect x="285" y="222" width="12" height="13" />
        <rect x="299" y="222" width="1" height="13" />
        <rect x="220" y="215" width="13" height="13" />
        <rect x="256" y="215" width="12" height="13" />
        <rect x="299" y="215" width="1" height="13" />
        <rect x="170" y="208" width="13" height="13" />
        <rect x="299" y="208" width="1" height="13" />
        <rect x="170" y="201" width="13" height="13" />
        <rect x="199" y="201" width="12" height="13" />
        <rect x="206" y="201" width="13" height="13" />
        <rect x="242" y="201" width="12" height="13" />
        <rect x="249" y="201" width="12" height="13" />
        <rect x="285" y="201" width="12" height="13" />
        <rect x="292" y="201" width="8" height="13" />
        <rect x="299" y="201" width="1" height="13" />
        <rect x="242" y="194" width="12" height="12" />
        <rect x="249" y="194" width="12" height="12" />
        <rect x="270" y="194" width="13" height="12" />
        <rect x="299" y="194" width="1" height="12" />
        <rect x="213" y="187" width="13" height="12" />
        <rect x="242" y="187" width="12" height="12" />
        <rect x="256" y="187" width="12" height="12" />
        <rect x="270" y="187" width="13" height="12" />
        <rect x="285" y="187" width="12" height="12" />
        <rect x="299" y="187" width="1" height="12" />
        <rect x="185" y="180" width="12" height="12" />
        <rect x="192" y="180" width="12" height="12" />
        <rect x="199" y="180" width="12" height="12" />
        <rect x="270" y="180" width="13" height="12" />
        <rect x="277" y="180" width="13" height="12" />
        <rect x="299" y="180" width="1" height="12" />
        <rect x="199" y="173" width="12" height="12" />
        <rect x="206" y="173" width="13" height="12" />
        <rect x="299" y="35" width="1" height="12" />
        <rect x="277" y="166" width="13" height="12" />
        <rect x="170" y="159" width="13" height="12" />
        <rect x="192" y="159" width="12" height="12" />
        <rect x="199" y="159" width="12" height="12" />
        <rect x="206" y="159" width="13" height="12" />
        <rect x="227" y="159" width="13" height="12" />
        <rect x="235" y="159" width="12" height="12" />
        <rect x="242" y="159" width="12" height="12" />
        <rect x="270" y="159" width="13" height="12" />
        <rect x="277" y="159" width="13" height="12" />
        <rect x="285" y="159" width="12" height="12" />
        <rect x="292" y="159" width="8" height="12" />
        <rect x="185" y="257" width="12" height="13" />
        <rect x="192" y="257" width="12" height="13" />
        <rect x="199" y="257" width="12" height="13" />
        <rect x="206" y="257" width="13" height="13" />
        <rect x="213" y="257" width="13" height="13" />
        <rect x="220" y="257" width="13" height="13" />
        <rect x="227" y="257" width="13" height="13" />
        <rect x="242" y="257" width="12" height="13" />
        <rect x="249" y="257" width="12" height="13" />
        <rect x="263" y="257" width="13" height="13" />
        <rect x="270" y="257" width="13" height="13" />
        <rect x="277" y="257" width="13" height="13" />
        <rect x="285" y="257" width="12" height="13" />
        <rect x="299" y="257" width="1" height="13" />
        <rect x="32" y="63" width="12" height="12" />
        <rect x="32" y="70" width="12" height="12" />
        <rect x="39" y="70" width="12" height="12" />
        <rect x="53" y="70" width="13" height="12" />
        <rect x="60" y="70" width="13" height="12" />
        <rect x="299" y="42" width="1" height="12" />
        <rect x="32" y="77" width="12" height="12" />
        <rect x="39" y="77" width="12" height="12" />
        <rect x="46" y="77" width="12" height="12" />
        <rect x="53" y="77" width="13" height="12" />
        <rect x="60" y="77" width="13" height="12" />
        <rect x="39" y="84" width="12" height="12" />
        <rect x="46" y="84" width="12" height="12" />
        <rect x="53" y="84" width="13" height="12" />
        <rect x="46" y="91" width="12" height="12" />
        <rect x="256" y="257" width="12" height="13" />
        <rect x="292" y="49" width="8" height="12" />
        <rect x="299" y="49" width="1" height="12" />
    </g>
    <g class="spawningMap-common">
        <rect x="263" y="56" width="13" height="12" />
        <rect x="270" y="56" width="13" height="12" />
        <rect x="170" y="63" width="13" height="12" />
        <rect x="177" y="63" width="13" height="12" />
        <rect x="185" y="63" width="12" height="12" />
        <rect x="213" y="63" width="13" height="12" />
        <rect x="220" y="63" width="13" height="12" />
        <rect x="277" y="63" width="13" height="12" />
        <rect x="170" y="70" width="13" height="12" />
        <rect x="177" y="70" width="13" height="12" />
        <rect x="185" y="70" width="12" height="12" />
        <rect x="213" y="70" width="13" height="12" />
        <rect x="220" y="70" width="13" height="12" />
        <rect x="170" y="77" width="13" height="12" />
        <rect x="177" y="77" width="13" height="12" />
        <rect x="199" y="77" width="12" height="12" />
        <rect x="206" y="77" width="13" height="12" />
        <rect x="213" y="77" width="13" height="12" />
        <rect x="220" y="77" width="13" height="12" />
        <rect x="170" y="84" width="13" height="12" />
        <rect x="177" y="84" width="13" height="12" />
        <rect x="199" y="84" width="12" height="12" />
        <rect x="206" y="84" width="13" height="12" />
        <rect x="213" y="84" width="13" height="12" />
        <rect x="220" y="84" width="13" height="12" />
        <rect x="170" y="28" width="13" height="12" />
        <rect x="170" y="91" width="13" height="12" />
        <rect x="177" y="28" width="13" height="12" />
        <rect x="177" y="91" width="13" height="12" />
        <rect x="220" y="91" width="13" height="12" />
        <rect x="227" y="91" width="13" height="12" />
        <rect x="185" y="28" width="12" height="12" />
        <rect x="170" y="98" width="13" height="12" />
        <rect x="192" y="28" width="12" height="12" />
        <rect x="199" y="28" width="12" height="12" />
        <rect x="206" y="28" width="13" height="12" />
        <rect x="227" y="28" width="13" height="12" />
        <rect x="235" y="28" width="12" height="12" />
        <rect x="242" y="28" width="12" height="12" />
        <rect x="249" y="28" width="12" height="12" />
        <rect x="256" y="28" width="12" height="12" />
        <rect x="263" y="28" width="13" height="12" />
        <rect x="270" y="28" width="13" height="12" />
        <rect x="277" y="28" width="13" height="12" />
        <rect x="285" y="28" width="12" height="12" />
        <rect x="170" y="35" width="13" height="12" />
        <rect x="177" y="35" width="13" height="12" />
        <rect x="185" y="35" width="12" height="12" />
        <rect x="192" y="35" width="12" height="12" />
        <rect x="199" y="35" width="12" height="12" />
        <rect x="206" y="35" width="13" height="12" />
        <rect x="242" y="35" width="12" height="12" />
        <rect x="249" y="35" width="12" height="12" />
        <rect x="256" y="35" width="12" height="12" />
        <rect x="263" y="35" width="13" height="12" />
        <rect x="270" y="35" width="13" height="12" />
        <rect x="277" y="35" width="13" height="12" />
        <rect x="285" y="35" width="12" height="12" />
        <rect x="292" y="35" width="8" height="12" />
        <rect x="170" y="42" width="13" height="12" />
        <rect x="177" y="42" width="13" height="12" />
        <rect x="185" y="42" width="12" height="12" />
        <rect x="192" y="42" width="12" height="12" />
        <rect x="199" y="42" width="12" height="12" />
        <rect x="206" y="42" width="13" height="12" />
        <rect x="117" y="28" width="10" height="12" />
        <rect x="117" y="35" width="10" height="12" />
        <rect x="292" y="28" width="8" height="12" />
        <rect x="117" y="42" width="10" height="12" />
        <rect x="249" y="42" width="12" height="12" />
        <rect x="256" y="42" width="12" height="12" />
        <rect x="263" y="42" width="13" height="12" />
        <rect x="270" y="42" width="13" height="12" />
        <rect x="110" y="56" width="13" height="12" />
        <rect x="117" y="56" width="10" height="12" />
        <rect x="0" y="63" width="1" height="12" />
        <rect x="10" y="63" width="13" height="12" />
        <rect x="277" y="42" width="13" height="12" />
        <rect x="103" y="63" width="13" height="12" />
        <rect x="110" y="63" width="13" height="12" />
        <rect x="285" y="42" width="12" height="12" />
        <rect x="117" y="63" width="10" height="12" />
        <rect x="0" y="70" width="1" height="12" />
        <rect x="0" y="70" width="8" height="12" />
        <rect x="10" y="70" width="13" height="12" />
        <rect x="292" y="42" width="8" height="12" />
        <rect x="103" y="70" width="13" height="12" />
        <rect x="110" y="70" width="13" height="12" />
        <rect x="117" y="70" width="10" height="12" />
        <rect x="0" y="77" width="1" height="12" />
        <rect x="0" y="77" width="8" height="12" />
        <rect x="10" y="77" width="13" height="12" />
        <rect x="103" y="77" width="13" height="12" />
        <rect x="110" y="77" width="13" height="12" />
        <rect x="117" y="77" width="10" height="12" />
        <rect x="0" y="84" width="1" height="12" />
        <rect x="0" y="84" width="8" height="12" />
        <rect x="3" y="84" width="13" height="12" />
        <rect x="10" y="84" width="13" height="12" />
        <rect x="103" y="84" width="13" height="12" />
        <rect x="110" y="84" width="13" height="12" />
        <rect x="117" y="84" width="10" height="12" />
        <rect x="0" y="91" width="1" height="12" />
        <rect x="0" y="91" width="8" height="12" />
        <rect x="199" y="49" width="12" height="12" />
        <rect x="103" y="91" width="13" height="12" />
        <rect x="110" y="91" width="13" height="12" />
        <rect x="117" y="91" width="10" height="12" />
        <rect x="0" y="98" width="1" height="13" />
        <rect x="0" y="98" width="8" height="13" />
        <rect x="0" y="105" width="1" height="13" />
        <rect x="110" y="105" width="13" height="13" />
        <rect x="117" y="105" width="10" height="13" />
        <rect x="242" y="49" width="12" height="12" />
        <rect x="110" y="112" width="13" height="13" />
        <rect x="117" y="112" width="10" height="13" />
        <rect x="249" y="49" width="12" height="12" />
        <rect x="256" y="49" width="12" height="12" />
        <rect x="220" y="28" width="13" height="12" />
        <rect x="263" y="49" width="13" height="12" />
        <rect x="270" y="49" width="13" height="12" />
        <rect x="170" y="56" width="13" height="12" />
        <rect x="177" y="56" width="13" height="12" />
        <rect x="185" y="56" width="12" height="12" />
    </g>
    <g class="spawningMap-uncommon">
        <rect x="277" y="56" width="13" height="12" />
        <rect x="285" y="56" width="12" height="12" />
        <rect x="227" y="63" width="13" height="12" />
        <rect x="235" y="63" width="12" height="12" />
        <rect x="227" y="70" width="13" height="12" />
        <rect x="235" y="70" width="12" height="12" />
        <rect x="227" y="77" width="13" height="12" />
        <rect x="235" y="77" width="12" height="12" />
        <rect x="227" y="84" width="13" height="12" />
        <rect x="235" y="84" width="12" height="12" />
        <rect x="285" y="84" width="12" height="12" />
        <rect x="292" y="84" width="8" height="12" />
        <rect x="199" y="91" width="12" height="12" />
        <rect x="206" y="91" width="13" height="12" />
        <rect x="213" y="91" width="13" height="12" />
        <rect x="242" y="91" width="12" height="12" />
        <rect x="249" y="91" width="12" height="12" />
        <rect x="199" y="98" width="12" height="12" />
        <rect x="206" y="98" width="13" height="12" />
        <rect x="242" y="98" width="12" height="12" />
        <rect x="249" y="98" width="12" height="12" />
        <rect x="170" y="105" width="13" height="13" />
        <rect x="177" y="105" width="13" height="13" />
        <rect x="185" y="105" width="12" height="13" />
        <rect x="199" y="105" width="12" height="13" />
        <rect x="263" y="105" width="13" height="13" />
        <rect x="170" y="112" width="13" height="13" />
        <rect x="177" y="112" width="13" height="13" />
        <rect x="263" y="112" width="13" height="13" />
        <rect x="270" y="112" width="13" height="13" />
        <rect x="292" y="112" width="8" height="13" />
        <rect x="299" y="112" width="1" height="13" />
        <rect x="170" y="119" width="13" height="13" />
        <rect x="249" y="119" width="12" height="13" />
        <rect x="270" y="119" width="13" height="13" />
        <rect x="292" y="119" width="8" height="13" />
        <rect x="299" y="119" width="1" height="13" />
        <rect x="170" y="126" width="13" height="13" />
        <rect x="177" y="126" width="13" height="13" />
        <rect x="185" y="126" width="12" height="13" />
        <rect x="192" y="126" width="12" height="13" />
        <rect x="199" y="126" width="12" height="13" />
        <rect x="206" y="126" width="13" height="13" />
        <rect x="213" y="126" width="13" height="13" />
        <rect x="220" y="126" width="13" height="13" />
        <rect x="227" y="126" width="13" height="13" />
        <rect x="235" y="126" width="12" height="13" />
        <rect x="242" y="126" width="12" height="13" />
        <rect x="249" y="126" width="12" height="13" />
        <rect x="270" y="126" width="13" height="13" />
        <rect x="277" y="126" width="13" height="13" />
        <rect x="285" y="126" width="12" height="13" />
        <rect x="292" y="126" width="8" height="13" />
        <rect x="299" y="126" width="1" height="13" />
        <rect x="0" y="28" width="1" height="12" />
        <rect x="0" y="28" width="8" height="12" />
        <rect x="3" y="28" width="13" height="12" />
        <rect x="10" y="28" width="13" height="12" />
        <rect x="17" y="28" width="13" height="12" />
        <rect x="60" y="28" width="13" height="12" />
        <rect x="67" y="28" width="13" height="12" />
        <rect x="74" y="28" width="13" height="12" />
        <rect x="213" y="42" width="13" height="12" />
        <rect x="82" y="28" width="12" height="12" />
        <rect x="110" y="28" width="13" height="12" />
        <rect x="0" y="35" width="1" height="12" />
        <rect x="0" y="35" width="8" height="12" />
        <rect x="3" y="35" width="13" height="12" />
        <rect x="10" y="35" width="13" height="12" />
        <rect x="220" y="42" width="13" height="12" />
        <rect x="17" y="35" width="13" height="12" />
        <rect x="67" y="35" width="13" height="12" />
        <rect x="74" y="35" width="13" height="12" />
        <rect x="82" y="35" width="12" height="12" />
        <rect x="110" y="35" width="13" height="12" />
        <rect x="0" y="42" width="1" height="12" />
        <rect x="10" y="42" width="13" height="12" />
        <rect x="17" y="42" width="13" height="12" />
        <rect x="110" y="42" width="13" height="12" />
        <rect x="0" y="49" width="1" height="12" />
        <rect x="82" y="49" width="12" height="12" />
        <rect x="0" y="56" width="1" height="12" />
        <rect x="177" y="49" width="13" height="12" />
        <rect x="185" y="49" width="12" height="12" />
        <rect x="192" y="49" width="12" height="12" />
    </g></g>
<g class="spawning-map-point" opacity="0.8">
    <g class="spawningMap-rare">
        <circle cx="194" cy="149" r="4.0" />
        <circle cx="192" cy="148" r="4.0" />
        <circle cx="190" cy="149" r="4.0" />
        <circle cx="193" cy="148" r="4.0" />
        <circle cx="191" cy="148" r="4.0" />
        <circle cx="187" cy="153" r="4.0" />
        <circle cx="185" cy="153" r="4.0" />
        <circle cx="183" cy="153" r="4.0" />
        <circle cx="200" cy="153" r="4.0" />
        <circle cx="203" cy="153" r="4.0" />
        <circle cx="206" cy="153" r="4.0" />
        <circle cx="208" cy="153" r="4.0" />
        <circle cx="211" cy="153" r="4.0" />
        <circle cx="210" cy="152" r="4.0" />
        <circle cx="206" cy="152" r="4.0" />
        <circle cx="201" cy="152" r="4.0" />
        <circle cx="197" cy="152" r="4.0" />
        <circle cx="188" cy="152" r="4.0" />
        <circle cx="183" cy="152" r="4.0" />
        <circle cx="178" cy="152" r="4.0" />
        <circle cx="178" cy="138" r="4.0" />
        <circle cx="183" cy="138" r="4.0" />
        <circle cx="187" cy="138" r="4.0" />
        <circle cx="191" cy="138" r="4.0" />
        <circle cx="195" cy="138" r="4.0" />
        <circle cx="199" cy="138" r="4.0" />
        <circle cx="203" cy="138" r="4.0" />
        <circle cx="207" cy="138" r="4.0" />
        <circle cx="211" cy="138" r="4.0" />
        <circle cx="187" cy="145" r="4.0" />
        <circle cx="195" cy="143" r="4.0" />
        <circle cx="200" cy="147" r="4.0" />
        <circle cx="198" cy="145" r="4.0" />
        <circle cx="193" cy="143" r="4.0" />
        <circle cx="186" cy="146" r="4.0" />
        <circle cx="233" cy="153" r="4.0" />
        <circle cx="236" cy="153" r="4.0" />
        <circle cx="238" cy="153" r="4.0" />
        <circle cx="227" cy="153" r="4.0" />
        <circle cx="229" cy="153" r="4.0" />
        <circle cx="231" cy="153" r="4.0" />
        <circle cx="215" cy="152" r="4.0" />
        <circle cx="246" cy="153" r="4.0" />
        <circle cx="249" cy="153" r="4.0" />
        <circle cx="250" cy="149" r="4.0" />
        <circle cx="250" cy="149" r="4.0" />
        <circle cx="248" cy="145" r="4.0" />
        <circle cx="242" cy="143" r="4.0" />
        <circle cx="236" cy="145" r="4.0" />
        <circle cx="233" cy="149" r="4.0" />
        <circle cx="233" cy="152" r="4.0" />
        <circle cx="237" cy="152" r="4.0" />
        <circle cx="239" cy="150" r="4.0" />
        <circle cx="240" cy="147" r="4.0" />
        <circle cx="243" cy="147" r="4.0" />
        <circle cx="244" cy="149" r="4.0" />
        <circle cx="246" cy="150" r="4.0" />
        <circle cx="249" cy="152" r="4.0" />
        <circle cx="248" cy="147" r="4.0" />
        <circle cx="250" cy="138" r="4.0" />
        <circle cx="246" cy="138" r="4.0" />
        <circle cx="242" cy="137" r="4.0" />
        <circle cx="238" cy="138" r="4.0" />
        <circle cx="234" cy="138" r="4.0" />
        <circle cx="231" cy="138" r="4.0" />
        <circle cx="242" cy="142" r="4.0" />
        <circle cx="237" cy="142" r="4.0" />
        <circle cx="216" cy="146" r="4.0" />
        <circle cx="222" cy="145" r="4.0" />
        <circle cx="227" cy="147" r="4.0" />
        <circle cx="218" cy="142" r="4.0" />
        <circle cx="224" cy="142" r="4.0" />
        <circle cx="226" cy="138" r="4.0" />
        <circle cx="223" cy="138" r="4.0" />
        <circle cx="219" cy="138" r="4.0" />
        <circle cx="215" cy="138" r="4.0" />
        <circle cx="239" cy="149" r="4.0" />
        <circle cx="240" cy="148" r="4.0" />
        <circle cx="244" cy="149" r="4.0" />
        <circle cx="254" cy="153" r="4.0" />
        <circle cx="264" cy="153" r="4.0" />
        <circle cx="270" cy="153" r="4.0" />
        <circle cx="274" cy="153" r="4.0" />
        <circle cx="275" cy="150" r="4.0" />
        <circle cx="276" cy="148" r="4.0" />
        <circle cx="276" cy="143" r="4.0" />
        <circle cx="271" cy="148" r="4.0" />
        <circle cx="272" cy="143" r="4.0" />
        <circle cx="271" cy="138" r="4.0" />
        <circle cx="276" cy="138" r="4.0" />
        <circle cx="261" cy="138" r="4.0" />
        <circle cx="266" cy="138" r="4.0" />
        <circle cx="254" cy="138" r="4.0" />
        <circle cx="258" cy="138" r="4.0" />
        <circle cx="261" cy="144" r="4.0" />
        <circle cx="252" cy="142" r="4.0" />
        <circle cx="257" cy="144" r="4.0" />
        <circle cx="264" cy="147" r="4.0" />
        <circle cx="252" cy="146" r="4.0" />
        <circle cx="257" cy="149" r="4.0" />
        <circle cx="266" cy="151" r="4.0" />
        <circle cx="254" cy="152" r="4.0" />
        <circle cx="260" cy="153" r="4.0" />
        <circle cx="276" cy="148" r="4.0" />
        <circle cx="271" cy="152" r="4.0" />
        <circle cx="274" cy="152" r="4.0" />
        <circle cx="270" cy="142" r="4.0" />
        <circle cx="268" cy="147" r="4.0" />
        <circle cx="271" cy="149" r="4.0" />
        <circle cx="263" cy="149" r="4.0" />
        <circle cx="280" cy="148" r="4.0" />
        <circle cx="281" cy="150" r="4.0" />
        <circle cx="283" cy="153" r="4.0" />
        <circle cx="287" cy="153" r="4.0" />
        <circle cx="281" cy="143" r="4.0" />
        <circle cx="286" cy="147" r="4.0" />
        <circle cx="286" cy="144" r="4.0" />
        <circle cx="291" cy="151" r="4.0" />
        <circle cx="288" cy="142" r="4.0" />
        <circle cx="296" cy="151" r="4.0" />
        <circle cx="299" cy="154" r="4.0" />
        <circle cx="297" cy="138" r="4.0" />
        <circle cx="291" cy="138" r="4.0" />
        <circle cx="287" cy="138" r="4.0" />
        <circle cx="281" cy="138" r="4.0" />
        <circle cx="287" cy="152" r="4.0" />
        <circle cx="281" cy="152" r="4.0" />
        <circle cx="297" cy="152" r="4.0" />
        <circle cx="291" cy="152" r="4.0" />
        <circle cx="293" cy="146" r="4.0" />
        <circle cx="290" cy="147" r="4.0" />
        <circle cx="298" cy="147" r="4.0" />
        <circle cx="296" cy="143" r="4.0" />
        <circle cx="298" cy="147" r="4.0" />
        <circle cx="294" cy="143" r="4.0" />
        <circle cx="291" cy="142" r="4.0" />
        <circle cx="288" cy="144" r="4.0" />
        <circle cx="285" cy="146" r="4.0" />
        <circle cx="280" cy="144" r="4.0" />
        <circle cx="279" cy="147" r="4.0" />
        <circle cx="282" cy="148" r="4.0" />
    </g></g>
</svg>