<?xml version="1.0" encoding="utf-8"?>
<svg xmlns="http://www.w3.org/2000/svg" width="300" height="300"
        viewBox="0 0 300 300" class="creatureMap" style="position:absolute;">
    <defs>
        <filter id="blur" x="-30%" y="-30%" width="160%" height="160%">
            <feGaussianBlur stdDeviation="3" />
        </filter>
        <pattern id="pattern-untameable" width="10" height="10" patternTransform="rotate(135)" patternUnits="userSpaceOnUse">
            <rect width="4" height="10" fill="black"></rect>
        </pattern>
        <filter id="groupStroke">
            <feFlood result="outsideColor" flood-color="black"/>
            <feMorphology in="SourceAlpha" operator="dilate" radius="2"/>
            <feComposite result="strokeoutline1" in="outsideColor" operator="in"/>
            <feComposite result="strokeoutline2" in="strokeoutline1" in2="SourceAlpha" operator="out"/>
            <feGaussianBlur in="strokeoutline2" result="strokeblur" stdDeviation="1"/>
        </filter>
        <style>
            .spawningMap-very-common { fill: #0F0; }
            .spawningMap-common { fill: #B2FF00; }
            .spawningMap-uncommon { fill: #FF0; }
            .spawningMap-very-uncommon { fill: #FC0; }
            .spawningMap-rare { fill: #F60; }
            .spawningMap-very-rare { fill: #F00; }
            .spawning-map-point { stroke:black; stroke-width:1; }
        </style>
    </defs>

<g filter="url(#blur)" opacity="0.7">
<g class="spawningMap-rare">
<rect x="243" y="228" width="11" height="11" />
<rect x="228" y="242" width="12" height="11" />
<rect x="228" y="207" width="12" height="11" />
<rect x="207" y="207" width="11" height="11" />
<rect x="199" y="207" width="12" height="11" />
<rect x="214" y="200" width="11" height="12" />
<rect x="207" y="200" width="11" height="12" />
<rect x="178" y="200" width="11" height="12" />
<rect x="250" y="249" width="12" height="11" />
<rect x="207" y="249" width="11" height="11" />
<rect x="199" y="249" width="12" height="11" />
<rect x="250" y="263" width="12" height="11" />
<rect x="207" y="263" width="11" height="11" />
<rect x="279" y="207" width="12" height="11" />
<rect x="258" y="228" width="11" height="11" />
<rect x="214" y="193" width="11" height="12" />
<rect x="185" y="193" width="11" height="12" />
<rect x="221" y="270" width="12" height="11" />
<rect x="214" y="270" width="11" height="11" />
</g>
<g class="spawningMap-very-uncommon">
<rect x="243" y="221" width="11" height="11" />
<rect x="207" y="235" width="11" height="11" />
<rect x="221" y="249" width="12" height="11" />
<rect x="265" y="256" width="11" height="11" />
<rect x="236" y="256" width="11" height="11" />
<rect x="228" y="256" width="12" height="11" />
<rect x="221" y="263" width="12" height="11" />
<rect x="214" y="263" width="11" height="11" />
<rect x="236" y="274" width="11" height="11" />
<rect x="279" y="235" width="12" height="11" />
<rect x="279" y="214" width="12" height="11" />
<rect x="272" y="242" width="12" height="11" />
<rect x="272" y="221" width="12" height="11" />
<rect x="272" y="200" width="12" height="12" />
<rect x="258" y="235" width="11" height="11" />
<rect x="250" y="270" width="12" height="11" />
<rect x="228" y="270" width="12" height="11" />
<rect x="258" y="274" width="11" height="11" />
</g>
<g class="spawningMap-uncommon">
<rect x="258" y="214" width="11" height="11" />
<rect x="258" y="200" width="11" height="12" />
<rect x="250" y="242" width="12" height="11" />
<rect x="250" y="228" width="12" height="11" />
<rect x="250" y="235" width="12" height="11" />
<rect x="250" y="221" width="12" height="11" />
<rect x="250" y="207" width="12" height="11" />
<rect x="250" y="214" width="12" height="11" />
<rect x="250" y="200" width="12" height="12" />
<rect x="243" y="242" width="11" height="11" />
<rect x="243" y="235" width="11" height="11" />
<rect x="243" y="207" width="11" height="11" />
<rect x="243" y="214" width="11" height="11" />
<rect x="243" y="200" width="11" height="12" />
<rect x="236" y="242" width="11" height="11" />
<rect x="236" y="228" width="11" height="11" />
<rect x="236" y="235" width="11" height="11" />
<rect x="236" y="221" width="11" height="11" />
<rect x="236" y="207" width="11" height="11" />
<rect x="236" y="214" width="11" height="11" />
<rect x="236" y="200" width="11" height="12" />
<rect x="228" y="228" width="12" height="11" />
<rect x="228" y="235" width="12" height="11" />
<rect x="228" y="221" width="12" height="11" />
<rect x="228" y="214" width="12" height="11" />
<rect x="228" y="200" width="12" height="12" />
<rect x="221" y="242" width="12" height="11" />
<rect x="221" y="228" width="12" height="11" />
<rect x="221" y="235" width="12" height="11" />
<rect x="221" y="221" width="12" height="11" />
<rect x="221" y="207" width="12" height="11" />
<rect x="221" y="214" width="12" height="11" />
<rect x="214" y="242" width="11" height="11" />
<rect x="214" y="228" width="11" height="11" />
<rect x="214" y="235" width="11" height="11" />
<rect x="214" y="221" width="11" height="11" />
<rect x="214" y="207" width="11" height="11" />
<rect x="214" y="214" width="11" height="11" />
<rect x="279" y="187" width="12" height="11" />
<rect x="207" y="242" width="11" height="11" />
<rect x="207" y="228" width="11" height="11" />
<rect x="207" y="221" width="11" height="11" />
<rect x="207" y="214" width="11" height="11" />
<rect x="272" y="187" width="12" height="11" />
<rect x="265" y="187" width="11" height="11" />
<rect x="199" y="242" width="12" height="11" />
<rect x="199" y="228" width="12" height="11" />
<rect x="199" y="235" width="12" height="11" />
<rect x="199" y="221" width="12" height="11" />
<rect x="199" y="214" width="12" height="11" />
<rect x="258" y="187" width="11" height="11" />
<rect x="192" y="249" width="12" height="11" />
<rect x="192" y="242" width="12" height="11" />
<rect x="192" y="228" width="12" height="11" />
<rect x="192" y="235" width="12" height="11" />
<rect x="192" y="221" width="12" height="11" />
<rect x="192" y="207" width="12" height="11" />
<rect x="192" y="214" width="12" height="11" />
<rect x="185" y="249" width="11" height="11" />
<rect x="185" y="242" width="11" height="11" />
<rect x="185" y="228" width="11" height="11" />
<rect x="185" y="235" width="11" height="11" />
<rect x="185" y="221" width="11" height="11" />
<rect x="185" y="207" width="11" height="11" />
<rect x="185" y="214" width="11" height="11" />
<rect x="221" y="200" width="12" height="12" />
<rect x="199" y="200" width="12" height="12" />
<rect x="192" y="200" width="12" height="12" />
<rect x="185" y="200" width="11" height="12" />
<rect x="207" y="193" width="11" height="12" />
<rect x="207" y="186" width="11" height="12" />
<rect x="199" y="186" width="12" height="12" />
<rect x="178" y="228" width="11" height="11" />
<rect x="178" y="235" width="11" height="11" />
<rect x="178" y="221" width="11" height="11" />
<rect x="178" y="207" width="11" height="11" />
<rect x="178" y="214" width="11" height="11" />
<rect x="265" y="249" width="11" height="11" />
<rect x="258" y="249" width="11" height="11" />
<rect x="243" y="249" width="11" height="11" />
<rect x="236" y="249" width="11" height="11" />
<rect x="228" y="249" width="12" height="11" />
<rect x="214" y="249" width="11" height="11" />
<rect x="258" y="256" width="11" height="11" />
<rect x="250" y="256" width="12" height="11" />
<rect x="243" y="256" width="11" height="11" />
<rect x="221" y="256" width="12" height="11" />
<rect x="214" y="256" width="11" height="11" />
<rect x="207" y="256" width="11" height="11" />
<rect x="199" y="256" width="12" height="11" />
<rect x="265" y="263" width="11" height="11" />
<rect x="258" y="263" width="11" height="11" />
<rect x="243" y="263" width="11" height="11" />
<rect x="236" y="263" width="11" height="11" />
<rect x="228" y="263" width="12" height="11" />
<rect x="199" y="263" width="12" height="11" />
<rect x="236" y="270" width="11" height="11" />
<rect x="272" y="263" width="12" height="11" />
<rect x="279" y="256" width="12" height="11" />
<rect x="279" y="200" width="12" height="12" />
<rect x="279" y="249" width="12" height="11" />
<rect x="279" y="242" width="12" height="11" />
<rect x="279" y="228" width="12" height="11" />
<rect x="279" y="221" width="12" height="11" />
<rect x="272" y="249" width="12" height="11" />
<rect x="272" y="193" width="12" height="12" />
<rect x="272" y="228" width="12" height="11" />
<rect x="272" y="235" width="12" height="11" />
<rect x="272" y="207" width="12" height="11" />
<rect x="272" y="214" width="12" height="11" />
<rect x="279" y="193" width="12" height="12" />
<rect x="265" y="242" width="11" height="11" />
<rect x="265" y="228" width="11" height="11" />
<rect x="265" y="235" width="11" height="11" />
<rect x="265" y="221" width="11" height="11" />
<rect x="265" y="207" width="11" height="11" />
<rect x="265" y="214" width="11" height="11" />
<rect x="265" y="200" width="11" height="12" />
<rect x="258" y="242" width="11" height="11" />
<rect x="258" y="221" width="11" height="11" />
<rect x="258" y="207" width="11" height="11" />
<rect x="272" y="256" width="12" height="11" />
<rect x="178" y="249" width="11" height="11" />
<rect x="178" y="242" width="11" height="11" />
<rect x="221" y="193" width="12" height="12" />
<rect x="199" y="193" width="12" height="12" />
<rect x="192" y="193" width="12" height="12" />
<rect x="178" y="193" width="11" height="12" />
<rect x="192" y="186" width="12" height="12" />
<rect x="170" y="228" width="12" height="11" />
<rect x="170" y="235" width="12" height="11" />
<rect x="170" y="221" width="12" height="11" />
<rect x="170" y="207" width="12" height="11" />
<rect x="170" y="214" width="12" height="11" />
<rect x="170" y="200" width="12" height="12" />
<rect x="265" y="270" width="11" height="11" />
<rect x="258" y="270" width="11" height="11" />
<rect x="243" y="270" width="11" height="11" />
<rect x="207" y="270" width="11" height="11" />
<rect x="199" y="270" width="12" height="11" />
<rect x="265" y="193" width="11" height="12" />
<rect x="258" y="193" width="11" height="12" />
</g>
</g>
<g fill="url(#pattern-untameable)" opacity="0.3">
<rect x="243" y="228" width="11" height="11"/>
<rect x="228" y="242" width="12" height="11"/>
<rect x="228" y="207" width="12" height="11"/>
<rect x="207" y="207" width="11" height="11"/>
<rect x="199" y="207" width="12" height="11"/>
<rect x="214" y="200" width="11" height="12"/>
<rect x="207" y="200" width="11" height="12"/>
<rect x="178" y="200" width="11" height="12"/>
<rect x="250" y="249" width="12" height="11"/>
<rect x="207" y="249" width="11" height="11"/>
<rect x="199" y="249" width="12" height="11"/>
<rect x="250" y="263" width="12" height="11"/>
<rect x="207" y="263" width="11" height="11"/>
<rect x="279" y="207" width="12" height="11"/>
<rect x="258" y="228" width="11" height="11"/>
<rect x="214" y="193" width="11" height="12"/>
<rect x="185" y="193" width="11" height="12"/>
<rect x="221" y="270" width="12" height="11"/>
<rect x="214" y="270" width="11" height="11"/>
<rect x="243" y="221" width="11" height="11"/>
<rect x="207" y="235" width="11" height="11"/>
<rect x="221" y="249" width="12" height="11"/>
<rect x="265" y="256" width="11" height="11"/>
<rect x="236" y="256" width="11" height="11"/>
<rect x="228" y="256" width="12" height="11"/>
<rect x="221" y="263" width="12" height="11"/>
<rect x="214" y="263" width="11" height="11"/>
<rect x="236" y="274" width="11" height="11"/>
<rect x="279" y="235" width="12" height="11"/>
<rect x="279" y="214" width="12" height="11"/>
<rect x="272" y="242" width="12" height="11"/>
<rect x="272" y="221" width="12" height="11"/>
<rect x="272" y="200" width="12" height="12"/>
<rect x="258" y="235" width="11" height="11"/>
<rect x="250" y="270" width="12" height="11"/>
<rect x="228" y="270" width="12" height="11"/>
<rect x="258" y="274" width="11" height="11"/>
<rect x="258" y="214" width="11" height="11"/>
<rect x="258" y="200" width="11" height="12"/>
<rect x="250" y="242" width="12" height="11"/>
<rect x="250" y="228" width="12" height="11"/>
<rect x="250" y="235" width="12" height="11"/>
<rect x="250" y="221" width="12" height="11"/>
<rect x="250" y="207" width="12" height="11"/>
<rect x="250" y="214" width="12" height="11"/>
<rect x="250" y="200" width="12" height="12"/>
<rect x="243" y="242" width="11" height="11"/>
<rect x="243" y="235" width="11" height="11"/>
<rect x="243" y="207" width="11" height="11"/>
<rect x="243" y="214" width="11" height="11"/>
<rect x="243" y="200" width="11" height="12"/>
<rect x="236" y="242" width="11" height="11"/>
<rect x="236" y="228" width="11" height="11"/>
<rect x="236" y="235" width="11" height="11"/>
<rect x="236" y="221" width="11" height="11"/>
<rect x="236" y="207" width="11" height="11"/>
<rect x="236" y="214" width="11" height="11"/>
<rect x="236" y="200" width="11" height="12"/>
<rect x="228" y="228" width="12" height="11"/>
<rect x="228" y="235" width="12" height="11"/>
<rect x="228" y="221" width="12" height="11"/>
<rect x="228" y="214" width="12" height="11"/>
<rect x="228" y="200" width="12" height="12"/>
<rect x="221" y="242" width="12" height="11"/>
<rect x="221" y="228" width="12" height="11"/>
<rect x="221" y="235" width="12" height="11"/>
<rect x="221" y="221" width="12" height="11"/>
<rect x="221" y="207" width="12" height="11"/>
<rect x="221" y="214" width="12" height="11"/>
<rect x="214" y="242" width="11" height="11"/>
<rect x="214" y="228" width="11" height="11"/>
<rect x="214" y="235" width="11" height="11"/>
<rect x="214" y="221" width="11" height="11"/>
<rect x="214" y="207" width="11" height="11"/>
<rect x="214" y="214" width="11" height="11"/>
<rect x="279" y="187" width="12" height="11"/>
<rect x="207" y="242" width="11" height="11"/>
<rect x="207" y="228" width="11" height="11"/>
<rect x="207" y="221" width="11" height="11"/>
<rect x="207" y="214" width="11" height="11"/>
<rect x="272" y="187" width="12" height="11"/>
<rect x="265" y="187" width="11" height="11"/>
<rect x="199" y="242" width="12" height="11"/>
<rect x="199" y="228" width="12" height="11"/>
<rect x="199" y="235" width="12" height="11"/>
<rect x="199" y="221" width="12" height="11"/>
<rect x="199" y="214" width="12" height="11"/>
<rect x="258" y="187" width="11" height="11"/>
<rect x="192" y="249" width="12" height="11"/>
<rect x="192" y="242" width="12" height="11"/>
<rect x="192" y="228" width="12" height="11"/>
<rect x="192" y="235" width="12" height="11"/>
<rect x="192" y="221" width="12" height="11"/>
<rect x="192" y="207" width="12" height="11"/>
<rect x="192" y="214" width="12" height="11"/>
<rect x="185" y="249" width="11" height="11"/>
<rect x="185" y="242" width="11" height="11"/>
<rect x="185" y="228" width="11" height="11"/>
<rect x="185" y="235" width="11" height="11"/>
<rect x="185" y="221" width="11" height="11"/>
<rect x="185" y="207" width="11" height="11"/>
<rect x="185" y="214" width="11" height="11"/>
<rect x="221" y="200" width="12" height="12"/>
<rect x="199" y="200" width="12" height="12"/>
<rect x="192" y="200" width="12" height="12"/>
<rect x="185" y="200" width="11" height="12"/>
<rect x="207" y="193" width="11" height="12"/>
<rect x="207" y="186" width="11" height="12"/>
<rect x="199" y="186" width="12" height="12"/>
<rect x="178" y="228" width="11" height="11"/>
<rect x="178" y="235" width="11" height="11"/>
<rect x="178" y="221" width="11" height="11"/>
<rect x="178" y="207" width="11" height="11"/>
<rect x="178" y="214" width="11" height="11"/>
<rect x="265" y="249" width="11" height="11"/>
<rect x="258" y="249" width="11" height="11"/>
<rect x="243" y="249" width="11" height="11"/>
<rect x="236" y="249" width="11" height="11"/>
<rect x="228" y="249" width="12" height="11"/>
<rect x="214" y="249" width="11" height="11"/>
<rect x="258" y="256" width="11" height="11"/>
<rect x="250" y="256" width="12" height="11"/>
<rect x="243" y="256" width="11" height="11"/>
<rect x="221" y="256" width="12" height="11"/>
<rect x="214" y="256" width="11" height="11"/>
<rect x="207" y="256" width="11" height="11"/>
<rect x="199" y="256" width="12" height="11"/>
<rect x="265" y="263" width="11" height="11"/>
<rect x="258" y="263" width="11" height="11"/>
<rect x="243" y="263" width="11" height="11"/>
<rect x="236" y="263" width="11" height="11"/>
<rect x="228" y="263" width="12" height="11"/>
<rect x="199" y="263" width="12" height="11"/>
<rect x="236" y="270" width="11" height="11"/>
<rect x="272" y="263" width="12" height="11"/>
<rect x="279" y="256" width="12" height="11"/>
<rect x="279" y="200" width="12" height="12"/>
<rect x="279" y="249" width="12" height="11"/>
<rect x="279" y="242" width="12" height="11"/>
<rect x="279" y="228" width="12" height="11"/>
<rect x="279" y="221" width="12" height="11"/>
<rect x="272" y="249" width="12" height="11"/>
<rect x="272" y="193" width="12" height="12"/>
<rect x="272" y="228" width="12" height="11"/>
<rect x="272" y="235" width="12" height="11"/>
<rect x="272" y="207" width="12" height="11"/>
<rect x="272" y="214" width="12" height="11"/>
<rect x="279" y="193" width="12" height="12"/>
<rect x="265" y="242" width="11" height="11"/>
<rect x="265" y="228" width="11" height="11"/>
<rect x="265" y="235" width="11" height="11"/>
<rect x="265" y="221" width="11" height="11"/>
<rect x="265" y="207" width="11" height="11"/>
<rect x="265" y="214" width="11" height="11"/>
<rect x="265" y="200" width="11" height="12"/>
<rect x="258" y="242" width="11" height="11"/>
<rect x="258" y="221" width="11" height="11"/>
<rect x="258" y="207" width="11" height="11"/>
<rect x="272" y="256" width="12" height="11"/>
<rect x="178" y="249" width="11" height="11"/>
<rect x="178" y="242" width="11" height="11"/>
<rect x="221" y="193" width="12" height="12"/>
<rect x="199" y="193" width="12" height="12"/>
<rect x="192" y="193" width="12" height="12"/>
<rect x="178" y="193" width="11" height="12"/>
<rect x="192" y="186" width="12" height="12"/>
<rect x="170" y="228" width="12" height="11"/>
<rect x="170" y="235" width="12" height="11"/>
<rect x="170" y="221" width="12" height="11"/>
<rect x="170" y="207" width="12" height="11"/>
<rect x="170" y="214" width="12" height="11"/>
<rect x="170" y="200" width="12" height="12"/>
<rect x="265" y="270" width="11" height="11"/>
<rect x="258" y="270" width="11" height="11"/>
<rect x="243" y="270" width="11" height="11"/>
<rect x="207" y="270" width="11" height="11"/>
<rect x="199" y="270" width="12" height="11"/>
<rect x="265" y="193" width="11" height="12"/>
<rect x="258" y="193" width="11" height="12"/>
</g>
</svg>