<?xml version="1.0" encoding="utf-8"?>
<svg xmlns="http://www.w3.org/2000/svg" width="300" height="300" viewBox="0 0 300 300" class="creatureMap" style="position:absolute;">
<defs>
    <filter id="blur" x="-30%" y="-30%" width="160%" height="160%">
        <feGaussianBlur stdDeviation="3" />
    </filter>
    <style>
        .spawningMap-very-common { fill: #0F0; }
        .spawningMap-common { fill: #B2FF00; }
        .spawningMap-uncommon { fill: #FF0; }
        .spawningMap-very-uncommon { fill: #FC0; }
        .spawningMap-rare { fill: #F60; }
        .spawningMap-very-rare { fill: #F00; }
        .spawning-map-point { stroke:black; stroke-width:1; }
    </style>
    <pattern id="pattern-untameable" width="10" height="10" patternTransform="rotate(135)" patternUnits="userSpaceOnUse">
        <rect width="4" height="10" fill="black"></rect>
    </pattern>
    <filter id="groupStroke">
        <feFlood result="outsideColor" flood-color="black"/>
        <feMorphology in="SourceAlpha" operator="dilate" radius="2"/>
        <feComposite result="strokeoutline1" in="outsideColor" operator="in"/>
        <feComposite result="strokeoutline2" in="strokeoutline1" in2="SourceAlpha" operator="out"/>
        <feGaussianBlur in="strokeoutline2" result="strokeblur" stdDeviation="1"/>
    </filter>
</defs>
<g filter="url(#blur)" opacity="0.7">
    <g class="spawningMap-very-common">
        <rect x="117" y="82" width="8" height="7" />
        <rect x="115" y="81" width="7" height="7" />
        <rect x="116" y="81" width="7" height="7" />
        <rect x="86" y="109" width="7" height="8" />
        <rect x="84" y="110" width="8" height="7" />
        <rect x="82" y="112" width="8" height="8" />
        <rect x="32" y="111" width="6" height="7" />
        <rect x="32" y="111" width="6" height="6" />
        <rect x="133" y="181" width="7" height="7" />
        <rect x="85" y="114" width="8" height="8" />
        <rect x="56" y="63" width="8" height="7" />
        <rect x="132" y="179" width="8" height="7" />
        <rect x="192" y="93" width="11" height="11" />
        <rect x="186" y="93" width="11" height="11" />
        <rect x="180" y="93" width="11" height="11" />
        <rect x="174" y="93" width="11" height="11" />
        <rect x="175" y="87" width="11" height="11" />
        <rect x="175" y="82" width="11" height="11" />
        <rect x="175" y="76" width="11" height="11" />
        <rect x="174" y="72" width="11" height="11" />
        <rect x="180" y="70" width="11" height="11" />
    </g></g>
<g fill="url(#pattern-untameable)" opacity="0.3">
        <rect x="115" y="81" width="7" height="7" />
        <rect x="116" y="81" width="7" height="7" />
        <rect x="86" y="109" width="7" height="8" />
        <rect x="84" y="110" width="8" height="7" />
        <rect x="82" y="112" width="8" height="8" />
        <rect x="32" y="111" width="6" height="7" />
        <rect x="32" y="111" width="6" height="6" />
        <rect x="56" y="63" width="8" height="7" />
</g>
<g filter="url(#groupStroke)" opacity="0.8">
        <rect x="117" y="82" width="8" height="7" />
        <rect x="32" y="111" width="6" height="7" />
        <rect x="32" y="111" width="6" height="6" />
        <rect x="133" y="181" width="7" height="7" />
        <rect x="85" y="114" width="8" height="8" />
        <rect x="132" y="179" width="8" height="7" />
</g>
<g class="spawning-map-point" opacity="0.8">
    <g class="spawningMap-very-common">
        <circle cx="161" cy="90" r="4.0" />
        <circle cx="161" cy="90" r="4.0" />
        <circle cx="161" cy="91" r="4.0" />
        <circle cx="220" cy="177" r="4.0" />
        <circle cx="220" cy="177" r="4.0" />
        <circle cx="219" cy="173" r="4.0" />
        <circle cx="219" cy="172" r="4.0" />
        <circle cx="224" cy="177" r="4.0" />
        <circle cx="225" cy="176" r="4.0" />
        <circle cx="224" cy="176" r="4.0" />
        <circle cx="224" cy="178" r="4.0" />
        <circle cx="224" cy="178" r="4.0" />
        <circle cx="226" cy="178" r="4.0" />
        <circle cx="226" cy="178" r="4.0" />
        <circle cx="167" cy="90" r="4.0" />
        <circle cx="167" cy="89" r="4.0" />
        <circle cx="167" cy="89" r="4.0" />
        <circle cx="166" cy="90" r="4.0" />
        <circle cx="222" cy="173" r="4.0" />
        <circle cx="223" cy="174" r="4.0" />
        <circle cx="220" cy="171" r="4.0" />
        <circle cx="220" cy="171" r="4.0" />
        <circle cx="219" cy="171" r="4.0" />
        <circle cx="220" cy="170" r="4.0" />
        <circle cx="219" cy="176" r="4.0" />
        <circle cx="219" cy="175" r="4.0" />
        <circle cx="219" cy="177" r="4.0" />
        <circle cx="219" cy="178" r="4.0" />
        <circle cx="220" cy="179" r="4.0" />
        <circle cx="178" cy="185" r="4.0" />
        <circle cx="178" cy="185" r="4.0" />
        <circle cx="177" cy="186" r="4.0" />
        <circle cx="177" cy="185" r="4.0" />
        <circle cx="177" cy="185" r="4.0" />
        <circle cx="177" cy="182" r="4.0" />
        <circle cx="178" cy="182" r="4.0" />
        <circle cx="178" cy="182" r="4.0" />
        <circle cx="178" cy="183" r="4.0" />
        <circle cx="176" cy="183" r="4.0" />
        <circle cx="176" cy="183" r="4.0" />
        <circle cx="177" cy="183" r="4.0" />
        <circle cx="177" cy="184" r="4.0" />
        <circle cx="222" cy="179" r="4.0" />
        <circle cx="223" cy="178" r="4.0" />
        <circle cx="158" cy="90" r="4.0" />
        <circle cx="159" cy="90" r="4.0" />
        <circle cx="158" cy="91" r="4.0" />
        <circle cx="159" cy="91" r="4.0" />
        <circle cx="159" cy="91" r="4.0" />
        <circle cx="208" cy="84" r="4.0" />
        <circle cx="209" cy="83" r="4.0" />
        <circle cx="208" cy="82" r="4.0" />
        <circle cx="209" cy="81" r="4.0" />
        <circle cx="208" cy="81" r="4.0" />
        <circle cx="208" cy="80" r="4.0" />
        <circle cx="208" cy="79" r="4.0" />
        <circle cx="208" cy="78" r="4.0" />
        <circle cx="164" cy="91" r="4.0" />
        <circle cx="164" cy="91" r="4.0" />
        <circle cx="163" cy="91" r="4.0" />
        <circle cx="163" cy="90" r="4.0" />
        <circle cx="219" cy="175" r="4.0" />
        <circle cx="220" cy="175" r="4.0" />
        <circle cx="220" cy="176" r="4.0" />
        <circle cx="219" cy="174" r="4.0" />
        <circle cx="133" cy="181" r="4.0" />
        <circle cx="134" cy="181" r="4.0" />
        <circle cx="134" cy="182" r="4.0" />
        <circle cx="133" cy="182" r="4.0" />
        <circle cx="132" cy="182" r="4.0" />
        <circle cx="134" cy="182" r="4.0" />
        <circle cx="134" cy="182" r="4.0" />
        <circle cx="134" cy="182" r="4.0" />
        <circle cx="133" cy="182" r="4.0" />
        <circle cx="132" cy="181" r="4.0" />
        <circle cx="207" cy="73" r="4.0" />
        <circle cx="208" cy="71" r="4.0" />
        <circle cx="210" cy="70" r="4.0" />
        <circle cx="209" cy="71" r="4.0" />
        <circle cx="209" cy="72" r="4.0" />
        <circle cx="209" cy="73" r="4.0" />
        <circle cx="208" cy="73" r="4.0" />
        <circle cx="207" cy="77" r="4.0" />
        <circle cx="207" cy="77" r="4.0" />
        <circle cx="206" cy="77" r="4.0" />
        <circle cx="206" cy="77" r="4.0" />
        <circle cx="205" cy="75" r="4.0" />
        <circle cx="207" cy="75" r="4.0" />
        <circle cx="207" cy="76" r="4.0" />
        <circle cx="208" cy="77" r="4.0" />
        <circle cx="209" cy="76" r="4.0" />
        <circle cx="207" cy="74" r="4.0" />
        <circle cx="209" cy="73" r="4.0" />
        <circle cx="210" cy="73" r="4.0" />
        <circle cx="187" cy="90" r="4.0" />
        <circle cx="186" cy="90" r="4.0" />
        <circle cx="187" cy="91" r="4.0" />
        <circle cx="186" cy="92" r="4.0" />
        <circle cx="186" cy="91" r="4.0" />
        <circle cx="188" cy="91" r="4.0" />
        <circle cx="188" cy="91" r="4.0" />
        <circle cx="186" cy="90" r="4.0" />
    </g></g>
</svg>