<?xml version="1.0" encoding="utf-8"?>
<svg xmlns="http://www.w3.org/2000/svg" width="300" height="300" viewBox="0 0 300 300" class="creatureMap" style="position:absolute;">
<defs>
    <filter id="blur" x="-30%" y="-30%" width="160%" height="160%">
        <feGaussianBlur stdDeviation="3" />
    </filter>
    <style>
        .spawningMap-very-common { fill: #0F0; }
        .spawningMap-common { fill: #B2FF00; }
        .spawningMap-uncommon { fill: #FF0; }
        .spawningMap-very-uncommon { fill: #FC0; }
        .spawningMap-rare { fill: #F60; }
        .spawningMap-very-rare { fill: #F00; }
        .spawning-map-point { stroke:black; stroke-width:1; }
    </style>
</defs>
<g filter="url(#blur)" opacity="0.7">
    <g class="spawningMap-very-common">
        <rect x="103" y="190" width="13" height="12" />
        <rect x="110" y="190" width="13" height="12" />
        <rect x="117" y="190" width="10" height="12" />
        <rect x="103" y="197" width="13" height="12" />
        <rect x="110" y="197" width="13" height="12" />
        <rect x="117" y="197" width="10" height="12" />
        <rect x="96" y="204" width="12" height="12" />
        <rect x="103" y="204" width="13" height="12" />
        <rect x="110" y="204" width="13" height="12" />
        <rect x="117" y="204" width="10" height="12" />
        <rect x="82" y="211" width="12" height="12" />
        <rect x="89" y="211" width="12" height="12" />
        <rect x="96" y="211" width="12" height="12" />
        <rect x="103" y="211" width="13" height="12" />
        <rect x="110" y="211" width="13" height="12" />
        <rect x="117" y="211" width="10" height="12" />
        <rect x="89" y="218" width="12" height="12" />
        <rect x="96" y="218" width="12" height="12" />
        <rect x="103" y="218" width="13" height="12" />
        <rect x="110" y="218" width="13" height="12" />
        <rect x="117" y="218" width="10" height="12" />
        <rect x="103" y="225" width="13" height="12" />
        <rect x="110" y="225" width="13" height="12" />
        <rect x="117" y="225" width="10" height="12" />
        <rect x="103" y="232" width="13" height="12" />
        <rect x="110" y="232" width="13" height="12" />
        <rect x="117" y="232" width="10" height="12" />
        <rect x="110" y="239" width="13" height="12" />
        <rect x="117" y="239" width="10" height="12" />
        <rect x="110" y="246" width="13" height="12" />
        <rect x="117" y="246" width="10" height="12" />
        <rect x="117" y="253" width="10" height="12" />
    </g></g>
</svg>