<?xml version="1.0" encoding="utf-8"?>
<svg xmlns="http://www.w3.org/2000/svg" width="300" height="300" viewBox="0 0 300 300" class="creatureMap" style="position:absolute;">
<defs>
    <filter id="blur" x="-30%" y="-30%" width="160%" height="160%">
        <feGaussianBlur stdDeviation="3" />
    </filter>
    <style>
        .spawningMap-very-common { fill: #0F0; }
        .spawningMap-common { fill: #B2FF00; }
        .spawningMap-uncommon { fill: #FF0; }
        .spawningMap-very-uncommon { fill: #FC0; }
        .spawningMap-rare { fill: #F60; }
        .spawningMap-very-rare { fill: #F00; }
        .spawning-map-point { stroke:black; stroke-width:1; }
    </style>
</defs>
<g class="spawning-map-point" opacity="0.8">
    <g class="spawningMap-common">
        <circle cx="208" cy="84" r="4.0" />
        <circle cx="209" cy="83" r="4.0" />
    </g>
    <g class="spawningMap-very-common">
        <circle cx="208" cy="82" r="4.0" />
        <circle cx="209" cy="81" r="4.0" />
        <circle cx="208" cy="81" r="4.0" />
        <circle cx="208" cy="80" r="4.0" />
        <circle cx="208" cy="79" r="4.0" />
        <circle cx="208" cy="78" r="4.0" />
        <circle cx="207" cy="73" r="4.0" />
        <circle cx="208" cy="71" r="4.0" />
        <circle cx="210" cy="70" r="4.0" />
        <circle cx="209" cy="71" r="4.0" />
        <circle cx="209" cy="72" r="4.0" />
        <circle cx="209" cy="73" r="4.0" />
        <circle cx="208" cy="73" r="4.0" />
        <circle cx="207" cy="77" r="4.0" />
        <circle cx="207" cy="77" r="4.0" />
        <circle cx="206" cy="77" r="4.0" />
        <circle cx="206" cy="77" r="4.0" />
        <circle cx="205" cy="75" r="4.0" />
        <circle cx="207" cy="75" r="4.0" />
        <circle cx="207" cy="76" r="4.0" />
        <circle cx="208" cy="77" r="4.0" />
        <circle cx="209" cy="76" r="4.0" />
        <circle cx="207" cy="74" r="4.0" />
        <circle cx="209" cy="73" r="4.0" />
        <circle cx="210" cy="73" r="4.0" />
    </g></g>
</svg>