<?xml version="1.0" encoding="utf-8"?>
<svg xmlns="http://www.w3.org/2000/svg" width="300" height="300" viewBox="0 0 300 300" class="creatureMap" style="position:absolute;">
<defs>
    <filter id="blur" x="-30%" y="-30%" width="160%" height="160%">
        <feGaussianBlur stdDeviation="3" />
    </filter>
    <style>
        .spawningMap-very-common { fill: #0F0; }
        .spawningMap-common { fill: #B2FF00; }
        .spawningMap-uncommon { fill: #FF0; }
        .spawningMap-very-uncommon { fill: #FC0; }
        .spawningMap-rare { fill: #F60; }
        .spawningMap-very-rare { fill: #F00; }
        .spawning-map-point { stroke:black; stroke-width:1; }
    </style>
    <pattern id="pattern-untameable" width="10" height="10" patternTransform="rotate(135)" patternUnits="userSpaceOnUse">
        <rect width="4" height="10" fill="black"></rect>
    </pattern>
</defs>
<g filter="url(#blur)" opacity="0.7">
    <g class="spawningMap-very-common">
        <rect x="108" y="259" width="11" height="12" />
        <rect x="125" y="265" width="11" height="11" />
        <rect x="125" y="271" width="11" height="11" />
        <rect x="119" y="260" width="12" height="11" />
        <rect x="197" y="236" width="11" height="12" />
        <rect x="130" y="236" width="12" height="12" />
        <rect x="159" y="248" width="11" height="11" />
        <rect x="79" y="277" width="12" height="8" />
        <rect x="251" y="277" width="11" height="8" />
        <rect x="256" y="277" width="12" height="8" />
        <rect x="245" y="277" width="11" height="8" />
        <rect x="165" y="248" width="11" height="11" />
        <rect x="148" y="254" width="11" height="11" />
        <rect x="148" y="259" width="11" height="12" />
        <rect x="165" y="254" width="11" height="11" />
        <rect x="159" y="259" width="11" height="12" />
        <rect x="165" y="259" width="11" height="12" />
        <rect x="159" y="254" width="11" height="11" />
        <rect x="154" y="254" width="11" height="11" />
        <rect x="154" y="259" width="11" height="12" />
        <rect x="125" y="248" width="11" height="11" />
        <rect x="142" y="248" width="11" height="11" />
        <rect x="125" y="254" width="11" height="11" />
        <rect x="131" y="254" width="11" height="11" />
        <rect x="125" y="259" width="11" height="12" />
        <rect x="131" y="259" width="11" height="12" />
        <rect x="136" y="254" width="12" height="11" />
        <rect x="142" y="254" width="11" height="11" />
        <rect x="136" y="248" width="12" height="11" />
        <rect x="136" y="259" width="12" height="12" />
        <rect x="142" y="259" width="11" height="12" />
        <rect x="131" y="248" width="11" height="11" />
        <rect x="154" y="265" width="11" height="12" />
        <rect x="159" y="265" width="11" height="12" />
        <rect x="154" y="271" width="11" height="11" />
        <rect x="159" y="271" width="11" height="11" />
        <rect x="165" y="265" width="11" height="12" />
        <rect x="171" y="265" width="11" height="12" />
        <rect x="171" y="271" width="11" height="11" />
        <rect x="154" y="277" width="11" height="9" />
        <rect x="159" y="277" width="11" height="9" />
        <rect x="176" y="259" width="12" height="12" />
        <rect x="171" y="277" width="11" height="9" />
        <rect x="165" y="277" width="11" height="9" />
        <rect x="176" y="265" width="12" height="12" />
        <rect x="176" y="277" width="12" height="9" />
        <rect x="182" y="277" width="11" height="9" />
        <rect x="131" y="265" width="11" height="12" />
        <rect x="136" y="265" width="12" height="12" />
        <rect x="131" y="271" width="11" height="11" />
        <rect x="136" y="271" width="12" height="11" />
        <rect x="142" y="265" width="11" height="12" />
        <rect x="148" y="265" width="11" height="12" />
        <rect x="142" y="271" width="11" height="11" />
        <rect x="148" y="271" width="11" height="11" />
        <rect x="119" y="265" width="11" height="11" />
        <rect x="119" y="271" width="11" height="11" />
        <rect x="119" y="254" width="11" height="11" />
        <rect x="176" y="271" width="12" height="11" />
        <rect x="176" y="254" width="12" height="11" />
        <rect x="108" y="271" width="11" height="11" />
        <rect x="91" y="271" width="11" height="11" />
        <rect x="108" y="277" width="11" height="9" />
        <rect x="114" y="277" width="11" height="9" />
        <rect x="119" y="277" width="11" height="9" />
        <rect x="131" y="277" width="11" height="9" />
        <rect x="125" y="277" width="11" height="9" />
        <rect x="85" y="271" width="11" height="11" />
        <rect x="79" y="271" width="12" height="11" />
        <rect x="74" y="271" width="11" height="11" />
        <rect x="68" y="271" width="11" height="11" />
        <rect x="74" y="277" width="11" height="8" />
        <rect x="62" y="277" width="11" height="8" />
        <rect x="171" y="259" width="11" height="12" />
        <rect x="171" y="254" width="11" height="11" />
        <rect x="171" y="248" width="11" height="11" />
        <rect x="114" y="265" width="11" height="11" />
        <rect x="114" y="271" width="11" height="11" />
        <rect x="97" y="271" width="11" height="11" />
        <rect x="102" y="271" width="11" height="11" />
        <rect x="97" y="277" width="11" height="8" />
        <rect x="62" y="271" width="11" height="11" />
        <rect x="85" y="265" width="11" height="11" />
        <rect x="91" y="259" width="11" height="12" />
        <rect x="91" y="265" width="11" height="11" />
        <rect x="97" y="265" width="11" height="11" />
        <rect x="239" y="260" width="12" height="11" />
        <rect x="233" y="260" width="12" height="11" />
        <rect x="228" y="260" width="11" height="11" />
        <rect x="222" y="260" width="11" height="11" />
        <rect x="228" y="271" width="11" height="11" />
        <rect x="228" y="265" width="11" height="11" />
        <rect x="222" y="265" width="11" height="11" />
        <rect x="245" y="265" width="11" height="12" />
        <rect x="222" y="271" width="11" height="11" />
        <rect x="251" y="271" width="11" height="11" />
        <rect x="245" y="271" width="11" height="11" />
        <rect x="239" y="248" width="11" height="11" />
        <rect x="239" y="254" width="11" height="11" />
        <rect x="233" y="254" width="11" height="11" />
        <rect x="227" y="254" width="12" height="11" />
        <rect x="222" y="254" width="11" height="11" />
        <rect x="114" y="254" width="11" height="11" />
        <rect x="114" y="259" width="11" height="12" />
        <rect x="191" y="242" width="11" height="11" />
        <rect x="168" y="242" width="11" height="11" />
        <rect x="245" y="254" width="11" height="11" />
        <rect x="256" y="259" width="11" height="12" />
        <rect x="163" y="242" width="11" height="11" />
        <rect x="157" y="242" width="11" height="11" />
        <rect x="250" y="248" width="12" height="11" />
        <rect x="151" y="242" width="11" height="11" />
        <rect x="145" y="242" width="12" height="11" />
        <rect x="140" y="242" width="11" height="11" />
        <rect x="251" y="265" width="11" height="12" />
        <rect x="233" y="271" width="12" height="11" />
        <rect x="239" y="271" width="12" height="11" />
        <rect x="233" y="265" width="12" height="12" />
        <rect x="239" y="265" width="12" height="12" />
        <rect x="197" y="242" width="11" height="11" />
        <rect x="102" y="265" width="11" height="11" />
        <rect x="94" y="253" width="11" height="12" />
        <rect x="208" y="242" width="13" height="11" />
        <rect x="208" y="236" width="9" height="12" />
        <rect x="134" y="242" width="11" height="11" />
        <rect x="148" y="248" width="11" height="11" />
        <rect x="136" y="237" width="11" height="11" />
        <rect x="154" y="248" width="11" height="11" />
        <rect x="125" y="242" width="14" height="11" />
        <rect x="97" y="259" width="11" height="12" />
        <rect x="102" y="259" width="11" height="12" />
        <rect x="165" y="271" width="11" height="11" />
        <rect x="234" y="277" width="11" height="8" />
        <rect x="239" y="277" width="11" height="8" />
        <rect x="228" y="277" width="11" height="8" />
        <rect x="222" y="277" width="11" height="8" />
        <rect x="202" y="242" width="12" height="11" />
        <rect x="202" y="236" width="12" height="12" />
        <rect x="136" y="277" width="12" height="9" />
        <rect x="148" y="277" width="11" height="9" />
        <rect x="142" y="277" width="11" height="9" />
        <rect x="174" y="242" width="11" height="11" />
        <rect x="185" y="242" width="12" height="11" />
        <rect x="180" y="242" width="11" height="11" />
        <rect x="222" y="248" width="11" height="11" />
        <rect x="233" y="248" width="12" height="11" />
        <rect x="228" y="248" width="11" height="11" />
        <rect x="245" y="259" width="11" height="12" />
        <rect x="250" y="259" width="12" height="12" />
        <rect x="245" y="248" width="11" height="11" />
        <rect x="68" y="277" width="11" height="8" />
    </g>
    <g class="spawningMap-common">
        <rect x="188" y="259" width="11" height="12" />
        <rect x="188" y="265" width="11" height="11" />
        <rect x="194" y="259" width="11" height="12" />
        <rect x="216" y="271" width="11" height="11" />
        <rect x="182" y="259" width="11" height="12" />
        <rect x="182" y="265" width="11" height="11" />
        <rect x="194" y="271" width="11" height="11" />
        <rect x="188" y="271" width="11" height="11" />
        <rect x="182" y="271" width="11" height="11" />
        <rect x="194" y="265" width="11" height="12" />
        <rect x="199" y="254" width="11" height="11" />
        <rect x="193" y="254" width="12" height="11" />
        <rect x="188" y="254" width="11" height="11" />
        <rect x="199" y="248" width="11" height="11" />
        <rect x="166" y="236" width="36" height="12" />
        <rect x="194" y="83" width="13" height="14" />
        <rect x="202" y="83" width="12" height="14" />
        <rect x="180" y="74" width="12" height="14" />
        <rect x="187" y="74" width="13" height="14" />
        <rect x="180" y="83" width="12" height="14" />
        <rect x="187" y="83" width="13" height="14" />
        <rect x="216" y="92" width="12" height="15" />
        <rect x="209" y="92" width="12" height="15" />
        <rect x="202" y="92" width="12" height="15" />
        <rect x="202" y="74" width="12" height="14" />
        <rect x="183" y="92" width="17" height="11" />
        <rect x="209" y="74" width="12" height="14" />
        <rect x="209" y="65" width="12" height="14" />
        <rect x="187" y="65" width="13" height="14" />
        <rect x="183" y="92" width="17" height="11" />
        <rect x="183" y="92" width="17" height="11" />
        <rect x="183" y="92" width="17" height="11" />
        <rect x="194" y="55" width="13" height="15" />
        <rect x="202" y="55" width="12" height="15" />
        <rect x="194" y="65" width="13" height="14" />
        <rect x="202" y="65" width="12" height="14" />
        <rect x="182" y="248" width="11" height="11" />
        <rect x="182" y="254" width="11" height="11" />
        <rect x="194" y="74" width="13" height="14" />
        <rect x="194" y="92" width="13" height="15" />
        <rect x="209" y="83" width="12" height="14" />
        <rect x="216" y="83" width="12" height="14" />
        <rect x="209" y="55" width="12" height="15" />
        <rect x="183" y="92" width="17" height="11" />
        <rect x="183" y="92" width="17" height="11" />
    </g></g>
<g fill="url(#pattern-untameable)" opacity="0.3">
        <rect x="108" y="259" width="11" height="12" />
        <rect x="125" y="265" width="11" height="11" />
        <rect x="125" y="271" width="11" height="11" />
        <rect x="119" y="260" width="12" height="11" />
        <rect x="197" y="236" width="11" height="12" />
        <rect x="130" y="236" width="12" height="12" />
        <rect x="159" y="248" width="11" height="11" />
        <rect x="79" y="277" width="12" height="8" />
        <rect x="251" y="277" width="11" height="8" />
        <rect x="256" y="277" width="12" height="8" />
        <rect x="245" y="277" width="11" height="8" />
        <rect x="165" y="248" width="11" height="11" />
        <rect x="148" y="254" width="11" height="11" />
        <rect x="148" y="259" width="11" height="12" />
        <rect x="165" y="254" width="11" height="11" />
        <rect x="159" y="259" width="11" height="12" />
        <rect x="165" y="259" width="11" height="12" />
        <rect x="159" y="254" width="11" height="11" />
        <rect x="154" y="254" width="11" height="11" />
        <rect x="154" y="259" width="11" height="12" />
        <rect x="125" y="248" width="11" height="11" />
        <rect x="142" y="248" width="11" height="11" />
        <rect x="125" y="254" width="11" height="11" />
        <rect x="131" y="254" width="11" height="11" />
        <rect x="125" y="259" width="11" height="12" />
        <rect x="131" y="259" width="11" height="12" />
        <rect x="136" y="254" width="12" height="11" />
        <rect x="142" y="254" width="11" height="11" />
        <rect x="136" y="248" width="12" height="11" />
        <rect x="136" y="259" width="12" height="12" />
        <rect x="142" y="259" width="11" height="12" />
        <rect x="131" y="248" width="11" height="11" />
        <rect x="154" y="265" width="11" height="12" />
        <rect x="159" y="265" width="11" height="12" />
        <rect x="154" y="271" width="11" height="11" />
        <rect x="159" y="271" width="11" height="11" />
        <rect x="165" y="265" width="11" height="12" />
        <rect x="171" y="265" width="11" height="12" />
        <rect x="171" y="271" width="11" height="11" />
        <rect x="154" y="277" width="11" height="9" />
        <rect x="159" y="277" width="11" height="9" />
        <rect x="176" y="259" width="12" height="12" />
        <rect x="171" y="277" width="11" height="9" />
        <rect x="165" y="277" width="11" height="9" />
        <rect x="176" y="265" width="12" height="12" />
        <rect x="176" y="277" width="12" height="9" />
        <rect x="182" y="277" width="11" height="9" />
        <rect x="131" y="265" width="11" height="12" />
        <rect x="136" y="265" width="12" height="12" />
        <rect x="131" y="271" width="11" height="11" />
        <rect x="136" y="271" width="12" height="11" />
        <rect x="142" y="265" width="11" height="12" />
        <rect x="148" y="265" width="11" height="12" />
        <rect x="142" y="271" width="11" height="11" />
        <rect x="148" y="271" width="11" height="11" />
        <rect x="119" y="265" width="11" height="11" />
        <rect x="119" y="271" width="11" height="11" />
        <rect x="119" y="254" width="11" height="11" />
        <rect x="176" y="271" width="12" height="11" />
        <rect x="176" y="254" width="12" height="11" />
        <rect x="108" y="271" width="11" height="11" />
        <rect x="91" y="271" width="11" height="11" />
        <rect x="108" y="277" width="11" height="9" />
        <rect x="114" y="277" width="11" height="9" />
        <rect x="119" y="277" width="11" height="9" />
        <rect x="131" y="277" width="11" height="9" />
        <rect x="125" y="277" width="11" height="9" />
        <rect x="85" y="271" width="11" height="11" />
        <rect x="79" y="271" width="12" height="11" />
        <rect x="74" y="271" width="11" height="11" />
        <rect x="68" y="271" width="11" height="11" />
        <rect x="74" y="277" width="11" height="8" />
        <rect x="62" y="277" width="11" height="8" />
        <rect x="171" y="259" width="11" height="12" />
        <rect x="171" y="254" width="11" height="11" />
        <rect x="171" y="248" width="11" height="11" />
        <rect x="114" y="265" width="11" height="11" />
        <rect x="114" y="271" width="11" height="11" />
        <rect x="97" y="271" width="11" height="11" />
        <rect x="102" y="271" width="11" height="11" />
        <rect x="97" y="277" width="11" height="8" />
        <rect x="62" y="271" width="11" height="11" />
        <rect x="85" y="265" width="11" height="11" />
        <rect x="91" y="259" width="11" height="12" />
        <rect x="91" y="265" width="11" height="11" />
        <rect x="97" y="265" width="11" height="11" />
        <rect x="239" y="260" width="12" height="11" />
        <rect x="233" y="260" width="12" height="11" />
        <rect x="228" y="260" width="11" height="11" />
        <rect x="222" y="260" width="11" height="11" />
        <rect x="228" y="271" width="11" height="11" />
        <rect x="228" y="265" width="11" height="11" />
        <rect x="222" y="265" width="11" height="11" />
        <rect x="245" y="265" width="11" height="12" />
        <rect x="222" y="271" width="11" height="11" />
        <rect x="251" y="271" width="11" height="11" />
        <rect x="245" y="271" width="11" height="11" />
        <rect x="239" y="248" width="11" height="11" />
        <rect x="239" y="254" width="11" height="11" />
        <rect x="233" y="254" width="11" height="11" />
        <rect x="227" y="254" width="12" height="11" />
        <rect x="222" y="254" width="11" height="11" />
        <rect x="114" y="254" width="11" height="11" />
        <rect x="114" y="259" width="11" height="12" />
        <rect x="191" y="242" width="11" height="11" />
        <rect x="168" y="242" width="11" height="11" />
        <rect x="245" y="254" width="11" height="11" />
        <rect x="256" y="259" width="11" height="12" />
        <rect x="163" y="242" width="11" height="11" />
        <rect x="157" y="242" width="11" height="11" />
        <rect x="250" y="248" width="12" height="11" />
        <rect x="151" y="242" width="11" height="11" />
        <rect x="145" y="242" width="12" height="11" />
        <rect x="140" y="242" width="11" height="11" />
        <rect x="251" y="265" width="11" height="12" />
        <rect x="233" y="271" width="12" height="11" />
        <rect x="239" y="271" width="12" height="11" />
        <rect x="233" y="265" width="12" height="12" />
        <rect x="239" y="265" width="12" height="12" />
        <rect x="197" y="242" width="11" height="11" />
        <rect x="102" y="265" width="11" height="11" />
        <rect x="94" y="253" width="11" height="12" />
        <rect x="208" y="242" width="13" height="11" />
        <rect x="208" y="236" width="9" height="12" />
        <rect x="134" y="242" width="11" height="11" />
        <rect x="148" y="248" width="11" height="11" />
        <rect x="136" y="237" width="11" height="11" />
        <rect x="154" y="248" width="11" height="11" />
        <rect x="125" y="242" width="14" height="11" />
        <rect x="97" y="259" width="11" height="12" />
        <rect x="102" y="259" width="11" height="12" />
        <rect x="165" y="271" width="11" height="11" />
        <rect x="234" y="277" width="11" height="8" />
        <rect x="239" y="277" width="11" height="8" />
        <rect x="228" y="277" width="11" height="8" />
        <rect x="222" y="277" width="11" height="8" />
        <rect x="202" y="242" width="12" height="11" />
        <rect x="202" y="236" width="12" height="12" />
        <rect x="136" y="277" width="12" height="9" />
        <rect x="148" y="277" width="11" height="9" />
        <rect x="142" y="277" width="11" height="9" />
        <rect x="174" y="242" width="11" height="11" />
        <rect x="185" y="242" width="12" height="11" />
        <rect x="180" y="242" width="11" height="11" />
        <rect x="222" y="248" width="11" height="11" />
        <rect x="233" y="248" width="12" height="11" />
        <rect x="228" y="248" width="11" height="11" />
        <rect x="245" y="259" width="11" height="12" />
        <rect x="250" y="259" width="12" height="12" />
        <rect x="245" y="248" width="11" height="11" />
        <rect x="68" y="277" width="11" height="8" />
        <rect x="188" y="259" width="11" height="12" />
        <rect x="188" y="265" width="11" height="11" />
        <rect x="194" y="259" width="11" height="12" />
        <rect x="216" y="271" width="11" height="11" />
        <rect x="182" y="259" width="11" height="12" />
        <rect x="182" y="265" width="11" height="11" />
        <rect x="194" y="271" width="11" height="11" />
        <rect x="188" y="271" width="11" height="11" />
        <rect x="182" y="271" width="11" height="11" />
        <rect x="194" y="265" width="11" height="12" />
        <rect x="199" y="254" width="11" height="11" />
        <rect x="193" y="254" width="12" height="11" />
        <rect x="188" y="254" width="11" height="11" />
        <rect x="199" y="248" width="11" height="11" />
        <rect x="166" y="236" width="36" height="12" />
        <rect x="194" y="83" width="13" height="14" />
        <rect x="202" y="83" width="12" height="14" />
        <rect x="180" y="74" width="12" height="14" />
        <rect x="187" y="74" width="13" height="14" />
        <rect x="180" y="83" width="12" height="14" />
        <rect x="187" y="83" width="13" height="14" />
        <rect x="216" y="92" width="12" height="15" />
        <rect x="209" y="92" width="12" height="15" />
        <rect x="202" y="92" width="12" height="15" />
        <rect x="202" y="74" width="12" height="14" />
        <rect x="183" y="92" width="17" height="11" />
        <rect x="209" y="74" width="12" height="14" />
        <rect x="209" y="65" width="12" height="14" />
        <rect x="187" y="65" width="13" height="14" />
        <rect x="183" y="92" width="17" height="11" />
        <rect x="183" y="92" width="17" height="11" />
        <rect x="183" y="92" width="17" height="11" />
        <rect x="194" y="55" width="13" height="15" />
        <rect x="202" y="55" width="12" height="15" />
        <rect x="194" y="65" width="13" height="14" />
        <rect x="202" y="65" width="12" height="14" />
        <rect x="182" y="248" width="11" height="11" />
        <rect x="182" y="254" width="11" height="11" />
        <rect x="194" y="74" width="13" height="14" />
        <rect x="194" y="92" width="13" height="15" />
        <rect x="209" y="83" width="12" height="14" />
        <rect x="216" y="83" width="12" height="14" />
        <rect x="209" y="55" width="12" height="15" />
        <rect x="183" y="92" width="17" height="11" />
        <rect x="183" y="92" width="17" height="11" />
</g>
</svg>