<?xml version="1.0" encoding="utf-8"?>
<svg xmlns="http://www.w3.org/2000/svg" width="300" height="300" viewBox="0 0 300 300" class="creatureMap" style="position:absolute;">
<defs>
    <filter id="blur" x="-30%" y="-30%" width="160%" height="160%">
        <feGaussianBlur stdDeviation="3" />
    </filter>
    <style>
        .spawningMap-very-common { fill: #0F0; }
        .spawningMap-common { fill: #B2FF00; }
        .spawningMap-uncommon { fill: #FF0; }
        .spawningMap-very-uncommon { fill: #FC0; }
        .spawningMap-rare { fill: #F60; }
        .spawningMap-very-rare { fill: #F00; }
        .spawning-map-point { stroke:black; stroke-width:1; }
    </style>
</defs>
<g class="spawning-map-point" opacity="0.8">
    <g class="spawningMap-very-uncommon">
        <circle cx="129" cy="147" r="4.0" />
        <circle cx="129" cy="146" r="4.0" />
        <circle cx="129" cy="144" r="4.0" />
        <circle cx="136" cy="144" r="4.0" />
        <circle cx="132" cy="151" r="4.0" />
        <circle cx="131" cy="152" r="4.0" />
        <circle cx="133" cy="156" r="4.0" />
        <circle cx="134" cy="155" r="4.0" />
        <circle cx="134" cy="154" r="4.0" />
        <circle cx="139" cy="154" r="4.0" />
        <circle cx="145" cy="157" r="4.0" />
        <circle cx="145" cy="156" r="4.0" />
        <circle cx="145" cy="157" r="4.0" />
        <circle cx="150" cy="155" r="4.0" />
        <circle cx="143" cy="165" r="4.0" />
        <circle cx="144" cy="164" r="4.0" />
        <circle cx="137" cy="161" r="4.0" />
        <circle cx="135" cy="162" r="4.0" />
        <circle cx="148" cy="157" r="4.0" />
        <circle cx="149" cy="135" r="4.0" />
        <circle cx="149" cy="136" r="4.0" />
        <circle cx="142" cy="132" r="4.0" />
        <circle cx="142" cy="132" r="4.0" />
        <circle cx="134" cy="141" r="4.0" />
        <circle cx="139" cy="140" r="4.0" />
        <circle cx="139" cy="140" r="4.0" />
        <circle cx="141" cy="139" r="4.0" />
        <circle cx="143" cy="140" r="4.0" />
        <circle cx="146" cy="139" r="4.0" />
        <circle cx="149" cy="138" r="4.0" />
        <circle cx="150" cy="138" r="4.0" />
        <circle cx="151" cy="125" r="4.0" />
        <circle cx="152" cy="123" r="4.0" />
        <circle cx="150" cy="122" r="4.0" />
        <circle cx="150" cy="127" r="4.0" />
        <circle cx="152" cy="128" r="4.0" />
        <circle cx="161" cy="132" r="4.0" />
        <circle cx="165" cy="120" r="4.0" />
        <circle cx="174" cy="141" r="4.0" />
        <circle cx="184" cy="141" r="4.0" />
        <circle cx="185" cy="146" r="4.0" />
        <circle cx="169" cy="154" r="4.0" />
        <circle cx="169" cy="148" r="4.0" />
        <circle cx="170" cy="149" r="4.0" />
        <circle cx="164" cy="132" r="4.0" />
        <circle cx="167" cy="149" r="4.0" />
    </g>
    <g class="spawningMap-uncommon">
        <circle cx="107" cy="136" r="4.0" />
        <circle cx="115" cy="130" r="4.0" />
        <circle cx="105" cy="136" r="4.0" />
        <circle cx="105" cy="138" r="4.0" />
        <circle cx="104" cy="135" r="4.0" />
        <circle cx="101" cy="132" r="4.0" />
        <circle cx="100" cy="133" r="4.0" />
        <circle cx="102" cy="132" r="4.0" />
        <circle cx="101" cy="129" r="4.0" />
    </g></g>
</svg>