<?xml version="1.0" encoding="utf-8"?>
<svg xmlns="http://www.w3.org/2000/svg" width="300" height="300"
        viewBox="0 0 300 300" class="creatureMap" style="position:absolute;">
    <defs>
        <filter id="blur" x="-30%" y="-30%" width="160%" height="160%">
            <feGaussianBlur stdDeviation="3" />
        </filter>
        <pattern id="pattern-untameable" width="10" height="10" patternTransform="rotate(135)" patternUnits="userSpaceOnUse">
            <rect width="4" height="10" fill="black"></rect>
        </pattern>
        <filter id="groupStroke">
            <feFlood result="outsideColor" flood-color="black"/>
            <feMorphology in="SourceAlpha" operator="dilate" radius="2"/>
            <feComposite result="strokeoutline1" in="outsideColor" operator="in"/>
            <feComposite result="strokeoutline2" in="strokeoutline1" in2="SourceAlpha" operator="out"/>
            <feGaussianBlur in="strokeoutline2" result="strokeblur" stdDeviation="1"/>
        </filter>
        <style>
            .spawningMap-very-common { fill: #0F0; }
            .spawningMap-common { fill: #B2FF00; }
            .spawningMap-uncommon { fill: #FF0; }
            .spawningMap-very-uncommon { fill: #FC0; }
            .spawningMap-rare { fill: #F60; }
            .spawningMap-very-rare { fill: #F00; }
            .spawning-map-point { stroke:black; stroke-width:1; }
        </style>
    </defs>

<g filter="url(#blur)" opacity="0.7">
<g class="spawningMap-common">
<rect x="215" y="80" width="21" height="19" />
</g>
<g class="spawningMap-very-common">
<rect x="247" y="37" width="21" height="19" />
<rect x="264" y="23" width="21" height="19" />
<rect x="264" y="51" width="21" height="19" />
<rect x="215" y="23" width="21" height="19" />
<rect x="215" y="37" width="21" height="19" />
<rect x="215" y="51" width="21" height="19" />
<rect x="231" y="37" width="21" height="19" />
<rect x="231" y="51" width="21" height="19" />
<rect x="231" y="65" width="21" height="20" />
</g>
</g>
<g class="spawning-map-point" opacity="0.8">
<g class="spawningMap-very-common">
<circle cx="254" cy="149" r="4" />
<circle cx="250" cy="148" r="4" />
<circle cx="251" cy="149" r="4" />
<circle cx="249" cy="149" r="4" />
<circle cx="253" cy="147" r="4" />
<circle cx="251" cy="149" r="4" />
<circle cx="251" cy="147" r="4" />
<circle cx="252" cy="146" r="4" />
<circle cx="256" cy="148" r="4" />
<circle cx="253" cy="150" r="4" />
<circle cx="252" cy="147" r="4" />
<circle cx="251" cy="147" r="4" />
<circle cx="250" cy="146" r="4" />
<circle cx="253" cy="146" r="4" />
<circle cx="253" cy="146" r="4" />
<circle cx="254" cy="147" r="4" />
<circle cx="252" cy="149" r="4" />
</g>
</g>
<g fill="url(#pattern-untameable)" opacity="0.3">
<rect x="215" y="80" width="21" height="19"/>
<rect x="247" y="37" width="21" height="19"/>
<rect x="264" y="23" width="21" height="19"/>
<rect x="264" y="51" width="21" height="19"/>
<rect x="215" y="23" width="21" height="19"/>
<rect x="215" y="37" width="21" height="19"/>
<rect x="215" y="51" width="21" height="19"/>
<rect x="231" y="37" width="21" height="19"/>
<rect x="231" y="51" width="21" height="19"/>
<rect x="231" y="65" width="21" height="20"/>
</g>
</svg>