<?xml version="1.0" encoding="utf-8"?>
<svg xmlns="http://www.w3.org/2000/svg" width="300" height="300"
        viewBox="0 0 300 300" class="creatureMap" style="position:absolute;">
    <defs>
        <filter id="blur" x="-30%" y="-30%" width="160%" height="160%">
            <feGaussianBlur stdDeviation="3" />
        </filter>
        <pattern id="pattern-untameable" width="10" height="10" patternTransform="rotate(135)" patternUnits="userSpaceOnUse">
            <rect width="4" height="10" fill="black"></rect>
        </pattern>
        <filter id="groupStroke">
            <feFlood result="outsideColor" flood-color="black"/>
            <feMorphology in="SourceAlpha" operator="dilate" radius="2"/>
            <feComposite result="strokeoutline1" in="outsideColor" operator="in"/>
            <feComposite result="strokeoutline2" in="strokeoutline1" in2="SourceAlpha" operator="out"/>
            <feGaussianBlur in="strokeoutline2" result="strokeblur" stdDeviation="1"/>
        </filter>
        <style>
            .spawningMap-very-common { fill: #0F0; }
            .spawningMap-common { fill: #B2FF00; }
            .spawningMap-uncommon { fill: #FF0; }
            .spawningMap-very-uncommon { fill: #FC0; }
            .spawningMap-rare { fill: #F60; }
            .spawningMap-very-rare { fill: #F00; }
            .spawning-map-point { stroke:black; stroke-width:1; }
        </style>
    </defs>

<g filter="url(#blur)" opacity="0.7">
<g class="spawningMap-rare">
<rect x="206" y="32" width="15" height="14" />
<rect x="214" y="40" width="15" height="15" />
<rect x="202" y="40" width="15" height="15" />
<rect x="223" y="38" width="15" height="15" />
<rect x="235" y="36" width="15" height="14" />
</g>
<g class="spawningMap-very-uncommon">
<rect x="211" y="26" width="9" height="8" />
<rect x="212" y="29" width="8" height="9" />
<rect x="214" y="25" width="9" height="9" />
<rect x="215" y="28" width="9" height="9" />
<rect x="217" y="25" width="9" height="8" />
<rect x="218" y="28" width="9" height="8" />
<rect x="220" y="24" width="9" height="9" />
<rect x="221" y="27" width="9" height="9" />
<rect x="224" y="24" width="9" height="9" />
<rect x="224" y="27" width="9" height="9" />
<rect x="227" y="23" width="9" height="9" />
<rect x="228" y="26" width="9" height="9" />
<rect x="231" y="24" width="9" height="9" />
<rect x="230" y="27" width="9" height="9" />
<rect x="234" y="25" width="9" height="9" />
<rect x="233" y="28" width="9" height="9" />
</g>
<g class="spawningMap-very-common">
<rect x="210" y="33" width="7" height="8" />
<rect x="244" y="30" width="7" height="7" />
<rect x="243" y="28" width="8" height="7" />
<rect x="241" y="28" width="8" height="8" />
<rect x="239" y="28" width="8" height="8" />
<rect x="237" y="28" width="8" height="7" />
<rect x="210" y="29" width="7" height="7" />
<rect x="205" y="30" width="8" height="8" />
<rect x="208" y="33" width="7" height="7" />
<rect x="244" y="32" width="7" height="7" />
</g>
</g>
<g fill="url(#pattern-untameable)" opacity="0.3">
<rect x="206" y="32" width="15" height="14"/>
<rect x="214" y="40" width="15" height="15"/>
<rect x="202" y="40" width="15" height="15"/>
<rect x="223" y="38" width="15" height="15"/>
<rect x="235" y="36" width="15" height="14"/>
<rect x="211" y="26" width="9" height="8"/>
<rect x="212" y="29" width="8" height="9"/>
<rect x="214" y="25" width="9" height="9"/>
<rect x="215" y="28" width="9" height="9"/>
<rect x="217" y="25" width="9" height="8"/>
<rect x="218" y="28" width="9" height="8"/>
<rect x="220" y="24" width="9" height="9"/>
<rect x="221" y="27" width="9" height="9"/>
<rect x="224" y="24" width="9" height="9"/>
<rect x="224" y="27" width="9" height="9"/>
<rect x="227" y="23" width="9" height="9"/>
<rect x="228" y="26" width="9" height="9"/>
<rect x="231" y="24" width="9" height="9"/>
<rect x="230" y="27" width="9" height="9"/>
<rect x="234" y="25" width="9" height="9"/>
<rect x="233" y="28" width="9" height="9"/>
<rect x="210" y="33" width="7" height="8"/>
<rect x="244" y="30" width="7" height="7"/>
<rect x="243" y="28" width="8" height="7"/>
<rect x="241" y="28" width="8" height="8"/>
<rect x="239" y="28" width="8" height="8"/>
<rect x="237" y="28" width="8" height="7"/>
<rect x="210" y="29" width="7" height="7"/>
<rect x="205" y="30" width="8" height="8"/>
<rect x="208" y="33" width="7" height="7"/>
<rect x="244" y="32" width="7" height="7"/>
</g>
</svg>