<?xml version="1.0" encoding="utf-8"?>
<svg xmlns="http://www.w3.org/2000/svg" width="300" height="300" viewBox="0 0 300 300" class="creatureMap" style="position:absolute;">
<defs>
    <filter id="blur" x="-30%" y="-30%" width="160%" height="160%">
        <feGaussianBlur stdDeviation="3" />
    </filter>
    <style>
        .spawningMap-very-common { fill: #0F0; }
        .spawningMap-common { fill: #B2FF00; }
        .spawningMap-uncommon { fill: #FF0; }
        .spawningMap-very-uncommon { fill: #FC0; }
        .spawningMap-rare { fill: #F60; }
        .spawningMap-very-rare { fill: #F00; }
        .spawning-map-point { stroke:black; stroke-width:1; }
    </style>
</defs>
<g filter="url(#blur)" opacity="0.7">
    <g class="spawningMap-very-common">
        <rect x="64" y="191" width="8" height="10" />
        <rect x="60" y="191" width="9" height="9" />
        <rect x="60" y="186" width="8" height="10" />
        <rect x="63" y="186" width="8" height="7" />
        <rect x="66" y="186" width="9" height="7" />
        <rect x="73" y="179" width="8" height="9" />
        <rect x="69" y="177" width="8" height="8" />
        <rect x="66" y="167" width="8" height="9" />
        <rect x="71" y="167" width="8" height="9" />
        <rect x="69" y="167" width="7" height="9" />
        <rect x="67" y="196" width="9" height="9" />
        <rect x="70" y="196" width="9" height="9" />
        <rect x="70" y="191" width="9" height="10" />
        <rect x="67" y="191" width="9" height="10" />
        <rect x="69" y="189" width="10" height="7" />
        <rect x="64" y="196" width="8" height="9" />
        <rect x="63" y="189" width="10" height="7" />
        <rect x="70" y="186" width="9" height="7" />
        <rect x="66" y="182" width="9" height="9" />
        <rect x="70" y="182" width="8" height="9" />
        <rect x="73" y="182" width="8" height="9" />
        <rect x="70" y="179" width="8" height="9" />
        <rect x="66" y="179" width="9" height="9" />
        <rect x="66" y="174" width="8" height="8" />
        <rect x="71" y="174" width="8" height="8" />
        <rect x="69" y="174" width="7" height="8" />
        <rect x="66" y="170" width="8" height="9" />
        <rect x="71" y="170" width="8" height="9" />
        <rect x="69" y="170" width="7" height="9" />
        <rect x="103" y="112" width="13" height="13" />
        <rect x="0" y="119" width="1" height="13" />
        <rect x="0" y="119" width="8" height="13" />
        <rect x="3" y="119" width="13" height="13" />
        <rect x="103" y="119" width="13" height="13" />
        <rect x="32" y="133" width="12" height="13" />
        <rect x="39" y="133" width="12" height="13" />
        <rect x="32" y="140" width="12" height="13" />
        <rect x="39" y="140" width="12" height="13" />
        <rect x="32" y="147" width="12" height="13" />
        <rect x="39" y="147" width="12" height="13" />
        <rect x="46" y="140" width="12" height="13" />
        <rect x="53" y="140" width="13" height="13" />
        <rect x="60" y="140" width="13" height="13" />
        <rect x="67" y="140" width="13" height="13" />
        <rect x="74" y="140" width="13" height="13" />
        <rect x="82" y="140" width="12" height="13" />
        <rect x="89" y="140" width="12" height="13" />
        <rect x="96" y="140" width="12" height="13" />
        <rect x="103" y="140" width="13" height="13" />
        <rect x="3" y="133" width="13" height="13" />
        <rect x="0" y="140" width="8" height="13" />
        <rect x="3" y="140" width="13" height="13" />
        <rect x="10" y="140" width="13" height="13" />
        <rect x="17" y="140" width="13" height="13" />
        <rect x="24" y="140" width="13" height="13" />
        <rect x="0" y="133" width="1" height="13" />
        <rect x="0" y="133" width="8" height="13" />
        <rect x="10" y="133" width="13" height="13" />
        <rect x="17" y="133" width="13" height="13" />
        <rect x="24" y="133" width="13" height="13" />
        <rect x="46" y="133" width="12" height="13" />
        <rect x="53" y="133" width="13" height="13" />
        <rect x="60" y="133" width="13" height="13" />
        <rect x="67" y="133" width="13" height="13" />
        <rect x="74" y="133" width="13" height="13" />
        <rect x="82" y="133" width="12" height="13" />
        <rect x="89" y="133" width="12" height="13" />
        <rect x="96" y="133" width="12" height="13" />
        <rect x="103" y="133" width="13" height="13" />
        <rect x="110" y="133" width="13" height="13" />
        <rect x="117" y="133" width="10" height="13" />
        <rect x="0" y="140" width="1" height="13" />
        <rect x="0" y="112" width="1" height="13" />
        <rect x="0" y="112" width="8" height="13" />
        <rect x="3" y="112" width="13" height="13" />
        <rect x="10" y="112" width="13" height="13" />
        <rect x="17" y="112" width="13" height="13" />
        <rect x="32" y="112" width="12" height="13" />
        <rect x="110" y="140" width="13" height="13" />
        <rect x="117" y="140" width="10" height="13" />
        <rect x="0" y="147" width="1" height="13" />
        <rect x="0" y="147" width="8" height="13" />
        <rect x="3" y="147" width="13" height="13" />
        <rect x="10" y="147" width="13" height="13" />
        <rect x="17" y="147" width="13" height="13" />
        <rect x="24" y="147" width="13" height="13" />
        <rect x="46" y="147" width="12" height="13" />
        <rect x="53" y="147" width="13" height="13" />
        <rect x="60" y="147" width="13" height="13" />
        <rect x="67" y="147" width="13" height="13" />
        <rect x="74" y="147" width="13" height="13" />
        <rect x="82" y="147" width="12" height="13" />
        <rect x="89" y="147" width="12" height="13" />
        <rect x="96" y="147" width="12" height="13" />
        <rect x="103" y="147" width="13" height="13" />
        <rect x="110" y="147" width="13" height="13" />
        <rect x="117" y="147" width="10" height="13" />
    </g></g>
</svg>