<?xml version="1.0" encoding="utf-8"?>
<svg xmlns="http://www.w3.org/2000/svg" width="300" height="300" viewBox="0 0 300 300" class="creatureMap" style="position:absolute;">
<defs>
    <filter id="blur" x="-30%" y="-30%" width="160%" height="160%">
        <feGaussianBlur stdDeviation="3" />
    </filter>
    <style>
        .spawningMap-very-common { fill: #0F0; }
        .spawningMap-common { fill: #B2FF00; }
        .spawningMap-uncommon { fill: #FF0; }
        .spawningMap-very-uncommon { fill: #FC0; }
        .spawningMap-rare { fill: #F60; }
        .spawningMap-very-rare { fill: #F00; }
        .spawning-map-point { stroke:black; stroke-width:1; }
    </style>
</defs>
<g filter="url(#blur)" opacity="0.7">
    <g class="spawningMap-very-common">
        <rect x="0" y="126" width="1" height="13" />
        <rect x="0" y="126" width="8" height="13" />
        <rect x="74" y="126" width="13" height="13" />
        <rect x="82" y="126" width="12" height="13" />
        <rect x="89" y="126" width="12" height="13" />
        <rect x="96" y="126" width="12" height="13" />
        <rect x="3" y="126" width="13" height="13" />
        <rect x="10" y="126" width="13" height="13" />
        <rect x="17" y="126" width="13" height="13" />
        <rect x="24" y="126" width="13" height="13" />
        <rect x="32" y="126" width="12" height="13" />
        <rect x="24" y="35" width="13" height="12" />
        <rect x="32" y="35" width="12" height="12" />
        <rect x="39" y="35" width="12" height="12" />
        <rect x="24" y="42" width="13" height="12" />
        <rect x="32" y="42" width="12" height="12" />
        <rect x="53" y="42" width="13" height="12" />
        <rect x="60" y="42" width="13" height="12" />
        <rect x="67" y="42" width="13" height="12" />
        <rect x="3" y="49" width="13" height="12" />
        <rect x="24" y="49" width="13" height="12" />
        <rect x="32" y="49" width="12" height="12" />
        <rect x="60" y="49" width="13" height="12" />
        <rect x="67" y="49" width="13" height="12" />
        <rect x="17" y="56" width="13" height="12" />
        <rect x="46" y="56" width="12" height="12" />
        <rect x="53" y="56" width="13" height="12" />
        <rect x="60" y="56" width="13" height="12" />
        <rect x="67" y="56" width="13" height="12" />
        <rect x="39" y="126" width="12" height="13" />
        <rect x="46" y="63" width="12" height="12" />
        <rect x="53" y="63" width="13" height="12" />
        <rect x="60" y="63" width="13" height="12" />
        <rect x="67" y="63" width="13" height="12" />
        <rect x="17" y="84" width="13" height="12" />
        <rect x="67" y="84" width="13" height="12" />
        <rect x="89" y="84" width="12" height="12" />
        <rect x="96" y="84" width="12" height="12" />
        <rect x="17" y="91" width="13" height="12" />
        <rect x="82" y="91" width="12" height="12" />
        <rect x="89" y="91" width="12" height="12" />
        <rect x="46" y="126" width="12" height="13" />
        <rect x="89" y="98" width="12" height="13" />
        <rect x="96" y="98" width="12" height="13" />
        <rect x="82" y="105" width="12" height="13" />
        <rect x="89" y="105" width="12" height="13" />
        <rect x="60" y="112" width="13" height="13" />
        <rect x="89" y="112" width="12" height="13" />
        <rect x="10" y="119" width="13" height="13" />
        <rect x="17" y="119" width="13" height="13" />
        <rect x="32" y="119" width="12" height="13" />
        <rect x="39" y="119" width="12" height="13" />
        <rect x="89" y="119" width="12" height="13" />
        <rect x="96" y="119" width="12" height="13" />
    </g></g>
</svg>