<?xml version="1.0" encoding="utf-8"?>
<svg xmlns="http://www.w3.org/2000/svg" width="300" height="300" viewBox="0 0 300 300" class="creatureMap" style="position:absolute;">
<defs>
    <filter id="blur" x="-30%" y="-30%" width="160%" height="160%">
        <feGaussianBlur stdDeviation="3" />
    </filter>
    <style>
        .spawningMap-very-common { fill: #0F0; }
        .spawningMap-common { fill: #B2FF00; }
        .spawningMap-uncommon { fill: #FF0; }
        .spawningMap-very-uncommon { fill: #FC0; }
        .spawningMap-rare { fill: #F60; }
        .spawningMap-very-rare { fill: #F00; }
        .spawning-map-point { stroke:black; stroke-width:1; }
    </style>
</defs>
<g filter="url(#blur)" opacity="0.7">
    <g class="spawningMap-very-common">
        <rect x="172" y="156" width="12" height="11" />
        <rect x="190" y="159" width="12" height="11" />
        <rect x="178" y="150" width="12" height="11" />
        <rect x="184" y="151" width="12" height="11" />
        <rect x="186" y="157" width="11" height="11" />
        <rect x="178" y="156" width="12" height="11" />
        <rect x="183" y="162" width="11" height="11" />
        <rect x="119" y="81" width="8" height="8" />
        <rect x="112" y="68" width="10" height="8" />
        <rect x="121" y="60" width="10" height="8" />
        <rect x="126" y="56" width="9" height="10" />
        <rect x="169" y="142" width="11" height="11" />
        <rect x="152" y="71" width="11" height="11" />
        <rect x="183" y="166" width="11" height="11" />
        <rect x="189" y="166" width="11" height="11" />
        <rect x="218" y="103" width="11" height="11" />
        <rect x="224" y="103" width="11" height="11" />
        <rect x="134" y="176" width="13" height="12" />
        <rect x="151" y="124" width="11" height="11" />
        <rect x="164" y="136" width="11" height="11" />
        <rect x="163" y="139" width="11" height="11" />
        <rect x="161" y="124" width="11" height="11" />
        <rect x="116" y="76" width="8" height="8" />
        <rect x="115" y="65" width="10" height="10" />
        <rect x="119" y="75" width="10" height="10" />
        <rect x="118" y="78" width="8" height="8" />
        <rect x="117" y="62" width="8" height="10" />
        <rect x="118" y="59" width="9" height="9" />
        <rect x="120" y="55" width="8" height="10" />
        <rect x="117" y="53" width="9" height="10" />
        <rect x="116" y="57" width="9" height="9" />
        <rect x="113" y="55" width="9" height="10" />
        <rect x="115" y="52" width="8" height="10" />
        <rect x="115" y="62" width="8" height="9" />
        <rect x="192" y="148" width="11" height="11" />
        <rect x="155" y="75" width="12" height="11" />
    </g>
    <g class="spawningMap-common">
        <rect x="231" y="168" width="17" height="15" />
        <rect x="201" y="169" width="17" height="16" />
        <rect x="122" y="180" width="12" height="11" />
        <rect x="147" y="178" width="12" height="13" />
        <rect x="142" y="164" width="14" height="12" />
        <rect x="77" y="179" width="11" height="11" />
        <rect x="197" y="159" width="19" height="8" />
        <rect x="235" y="237" width="13" height="13" />
        <rect x="181" y="203" width="11" height="11" />
        <rect x="221" y="83" width="11" height="12" />
        <rect x="181" y="197" width="11" height="11" />
        <rect x="219" y="71" width="11" height="11" />
        <rect x="220" y="78" width="11" height="11" />
        <rect x="155" y="140" width="11" height="11" />
        <rect x="68" y="172" width="11" height="11" />
        <rect x="183" y="172" width="11" height="11" />
        <rect x="82" y="190" width="11" height="12" />
        <rect x="86" y="202" width="11" height="11" />
        <rect x="123" y="175" width="11" height="11" />
        <rect x="117" y="175" width="11" height="11" />
        <rect x="111" y="179" width="12" height="11" />
        <rect x="189" y="172" width="11" height="11" />
        <rect x="193" y="183" width="11" height="11" />
        <rect x="187" y="178" width="11" height="11" />
        <rect x="200" y="167" width="11" height="11" />
        <rect x="187" y="183" width="11" height="11" />
        <rect x="224" y="109" width="11" height="11" />
        <rect x="226" y="97" width="11" height="11" />
        <rect x="218" y="109" width="11" height="11" />
        <rect x="223" y="92" width="11" height="11" />
        <rect x="220" y="97" width="11" height="11" />
        <rect x="132" y="180" width="14" height="15" />
        <rect x="151" y="124" width="11" height="11" />
        <rect x="157" y="122" width="13" height="12" />
        <rect x="53" y="96" width="11" height="12" />
        <rect x="206" y="143" width="11" height="11" />
        <rect x="153" y="136" width="11" height="11" />
        <rect x="126" y="173" width="15" height="15" />
        <rect x="200" y="149" width="11" height="11" />
    </g>
    <g class="spawningMap-uncommon">
        <rect x="151" y="178" width="14" height="14" />
        <rect x="109" y="56" width="20" height="21" />
        <rect x="239" y="234" width="13" height="13" />
        <rect x="202" y="180" width="13" height="15" />
        <rect x="119" y="166" width="14" height="15" />
        <rect x="153" y="132" width="15" height="15" />
        <rect x="110" y="72" width="21" height="20" />
    </g></g>
</svg>