<svg xmlns="http://www.w3.org/2000/svg" width="300" height="300" viewBox="0 0 300 300" class="creatureMap" style="position:absolute;">
<defs>
<filter id="blur" x="-30%" y="-30%" width="160%" height="160%"><feGaussianBlur stdDeviation="3" />
</filter>
<pattern id="pattern-untameable" width="10" height="10" patternTransform="rotate(135)" patternUnits="userSpaceOnUse"><rect width="4" height="10" fill="black"></rect>
</pattern>
<filter id="groupStroke"><feFlood result="outsideColor" flood-color="black"/><feMorphology in="SourceAlpha" operator="dilate" radius="2"/><feComposite result="strokeoutline1" in="outsideColor" operator="in"/><feComposite result="strokeoutline2" in="strokeoutline1" in2="SourceAlpha" operator="out"/><feGaussianBlur in="strokeoutline2" result="strokeblur" stdDeviation="1"/>
</filter>
<style>
.spawningMap-very-common { fill: #0F0;}
.spawningMap-common { fill: #B2FF00;}
.spawningMap-uncommon { fill: #FF0;}
.spawningMap-very-uncommon { fill: #FC0;}
.spawningMap-rare { fill: #F60;}
.spawningMap-very-rare { fill: #F00; }.spawning-map-point {stroke:black; stroke-width:1;}
</style>
</defs>
<g filter="url(#blur)" opacity="0.7">
<g class="spawningMap-rare"><rect x="70" y="248" width="6" height="6" /><rect x="77" y="248" width="6" height="6" /><rect x="108" y="59" width="8" height="6" /><rect x="127" y="71" width="18" height="4" /><rect x="152" y="178" width="6" height="13" /><rect x="248" y="129" width="10" height="6" /><rect x="248" y="122" width="10" height="6" /><rect x="248" y="116" width="10" height="6" /><rect x="248" y="109" width="10" height="6" /><rect x="248" y="95" width="10" height="6" /><rect x="155" y="75" width="9" height="8" /><rect x="133" y="93" width="6" height="8" /><rect x="56" y="87" width="9" height="6" /><rect x="113" y="150" width="6" height="14" /><rect x="101" y="167" width="12" height="7" /><rect x="77" y="208" width="9" height="12" /><rect x="87" y="208" width="8" height="12" /><rect x="101" y="185" width="17" height="4" /><rect x="90" y="177" width="7" height="7" /><rect x="140" y="211" width="8" height="9" /><rect x="149" y="201" width="9" height="9" /><rect x="161" y="50" width="9" height="15" /><rect x="155" y="83" width="9" height="9" /><rect x="140" y="88" width="9" height="13" /><rect x="136" y="56" width="9" height="14" /><rect x="113" y="134" width="6" height="15" /><rect x="104" y="134" width="7" height="15" /><rect x="104" y="150" width="7" height="14" /><rect x="57" y="255" width="6" height="6" /><rect x="57" y="248" width="6" height="6" /><rect x="64" y="255" width="6" height="6" /><rect x="64" y="248" width="6" height="6" /><rect x="161" y="66" width="9" height="8" /><rect x="74" y="255" width="9" height="6" /><rect x="77" y="199" width="9" height="8" /><rect x="83" y="255" width="6" height="6" /><rect x="87" y="199" width="8" height="8" /><rect x="90" y="190" width="9" height="8" /><rect x="100" y="190" width="9" height="8" /><rect x="83" y="248" width="6" height="6" /><rect x="110" y="190" width="9" height="8" /><rect x="140" y="192" width="8" height="8" /><rect x="140" y="201" width="8" height="9" /><rect x="149" y="192" width="9" height="8" /><rect x="127" y="56" width="8" height="14" /><rect x="152" y="164" width="6" height="13" />
</g>
<g class="spawningMap-very-uncommon"><rect x="64" y="228" width="6" height="8" /><rect x="196" y="227" width="6" height="6" /><rect x="196" y="234" width="6" height="6" /><rect x="196" y="241" width="6" height="6" /><rect x="176" y="248" width="6" height="6" /><rect x="202" y="254" width="6" height="6" /><rect x="196" y="254" width="6" height="6" /><rect x="189" y="254" width="6" height="6" /><rect x="182" y="254" width="6" height="6" /><rect x="137" y="47" width="12" height="8" /><rect x="201" y="116" width="6" height="6" /><rect x="207" y="109" width="6" height="6" /><rect x="214" y="109" width="6" height="6" /><rect x="248" y="102" width="10" height="6" /><rect x="234" y="89" width="6" height="6" /><rect x="221" y="89" width="6" height="6" /><rect x="227" y="89" width="6" height="6" /><rect x="248" y="89" width="6" height="6" /><rect x="188" y="116" width="5" height="6" /><rect x="188" y="143" width="5" height="6" /><rect x="188" y="136" width="5" height="6" /><rect x="65" y="89" width="9" height="4" /><rect x="164" y="101" width="11" height="4" /><rect x="116" y="161" width="6" height="6" /><rect x="91" y="159" width="6" height="6" /><rect x="133" y="102" width="6" height="5" /><rect x="122" y="101" width="4" height="4" /><rect x="152" y="157" width="6" height="6" /><rect x="145" y="170" width="6" height="7" /><rect x="90" y="185" width="9" height="4" /><rect x="106" y="177" width="10" height="7" /><rect x="110" y="253" width="7" height="8" /><rect x="126" y="229" width="8" height="7" /><rect x="126" y="237" width="8" height="7" /><rect x="126" y="245" width="8" height="8" /><rect x="126" y="253" width="8" height="8" /><rect x="146" y="185" width="5" height="6" /><rect x="207" y="136" width="6" height="6" /><rect x="214" y="136" width="6" height="6" /><rect x="221" y="136" width="6" height="6" /><rect x="227" y="136" width="6" height="6" /><rect x="234" y="136" width="6" height="6" /><rect x="194" y="136" width="6" height="6" /><rect x="201" y="136" width="6" height="6" /><rect x="77" y="228" width="6" height="8" /><rect x="207" y="129" width="6" height="6" /><rect x="214" y="129" width="6" height="6" /><rect x="221" y="129" width="6" height="6" /><rect x="227" y="129" width="6" height="6" /><rect x="234" y="129" width="6" height="6" /><rect x="194" y="129" width="6" height="6" /><rect x="201" y="129" width="6" height="6" /><rect x="70" y="228" width="6" height="8" /><rect x="83" y="228" width="6" height="6" /><rect x="89" y="101" width="6" height="6" /><rect x="82" y="94" width="6" height="6" /><rect x="86" y="71" width="8" height="4" /><rect x="117" y="56" width="9" height="5" /><rect x="117" y="71" width="9" height="4" /><rect x="117" y="66" width="9" height="4" /><rect x="108" y="66" width="8" height="4" /><rect x="89" y="94" width="6" height="6" /><rect x="117" y="61" width="9" height="4" /><rect x="120" y="87" width="6" height="7" /><rect x="117" y="52" width="9" height="4" /><rect x="129" y="75" width="6" height="7" /><rect x="129" y="82" width="6" height="5" /><rect x="136" y="82" width="6" height="5" /><rect x="133" y="87" width="6" height="5" /><rect x="136" y="75" width="6" height="7" /><rect x="107" y="71" width="9" height="4" /><rect x="202" y="234" width="6" height="6" /><rect x="201" y="122" width="6" height="6" /><rect x="207" y="122" width="6" height="6" /><rect x="214" y="122" width="6" height="6" /><rect x="221" y="122" width="6" height="6" /><rect x="227" y="122" width="6" height="6" /><rect x="234" y="122" width="6" height="6" /><rect x="207" y="116" width="6" height="6" /><rect x="214" y="116" width="6" height="6" /><rect x="227" y="116" width="6" height="6" /><rect x="234" y="116" width="6" height="6" /><rect x="221" y="109" width="6" height="6" /><rect x="227" y="109" width="6" height="6" /><rect x="234" y="109" width="6" height="6" /><rect x="234" y="102" width="6" height="6" /><rect x="241" y="129" width="6" height="6" /><rect x="241" y="122" width="6" height="6" /><rect x="241" y="116" width="6" height="6" /><rect x="241" y="109" width="6" height="6" /><rect x="241" y="102" width="6" height="6" /><rect x="221" y="102" width="6" height="6" /><rect x="227" y="102" width="6" height="6" /><rect x="234" y="95" width="6" height="6" /><rect x="241" y="95" width="6" height="6" /><rect x="221" y="95" width="6" height="6" /><rect x="227" y="95" width="6" height="6" /><rect x="241" y="89" width="6" height="6" /><rect x="194" y="122" width="6" height="6" /><rect x="194" y="116" width="6" height="6" /><rect x="188" y="122" width="5" height="6" /><rect x="154" y="63" width="6" height="11" /><rect x="146" y="56" width="14" height="6" /><rect x="146" y="63" width="7" height="11" /><rect x="143" y="75" width="11" height="7" /><rect x="152" y="101" width="11" height="4" /><rect x="65" y="84" width="9" height="5" /><rect x="221" y="116" width="6" height="6" /><rect x="154" y="107" width="6" height="7" /><rect x="154" y="114" width="6" height="6" /><rect x="86" y="75" width="8" height="5" /><rect x="153" y="121" width="6" height="6" /><rect x="146" y="121" width="6" height="6" /><rect x="137" y="127" width="6" height="6" /><rect x="130" y="127" width="6" height="6" /><rect x="124" y="127" width="6" height="6" /><rect x="120" y="134" width="6" height="6" /><rect x="120" y="141" width="6" height="6" /><rect x="120" y="147" width="6" height="7" /><rect x="120" y="154" width="6" height="7" /><rect x="123" y="168" width="6" height="6" /><rect x="123" y="161" width="6" height="6" /><rect x="97" y="159" width="6" height="6" /><rect x="148" y="114" width="6" height="6" /><rect x="148" y="107" width="6" height="7" /><rect x="128" y="121" width="6" height="5" /><rect x="134" y="121" width="6" height="5" /><rect x="120" y="94" width="6" height="5" /><rect x="127" y="101" width="6" height="4" /><rect x="121" y="121" width="6" height="5" /><rect x="114" y="114" width="6" height="6" /><rect x="114" y="107" width="6" height="7" /><rect x="114" y="121" width="6" height="5" /><rect x="107" y="114" width="6" height="6" /><rect x="101" y="114" width="6" height="6" /><rect x="94" y="114" width="6" height="6" /><rect x="87" y="114" width="6" height="6" /><rect x="141" y="114" width="6" height="6" /><rect x="141" y="107" width="6" height="7" /><rect x="134" y="114" width="6" height="6" /><rect x="134" y="107" width="6" height="7" /><rect x="128" y="114" width="6" height="6" /><rect x="128" y="107" width="6" height="7" /><rect x="121" y="114" width="6" height="6" /><rect x="121" y="107" width="6" height="7" /><rect x="116" y="168" width="6" height="6" /><rect x="98" y="177" width="7" height="7" /><rect x="116" y="175" width="6" height="9" /><rect x="188" y="129" width="5" height="6" /><rect x="120" y="221" width="8" height="7" /><rect x="110" y="229" width="7" height="7" /><rect x="110" y="237" width="7" height="7" /><rect x="110" y="245" width="7" height="8" /><rect x="145" y="150" width="6" height="6" /><rect x="118" y="229" width="7" height="7" /><rect x="118" y="237" width="7" height="7" /><rect x="118" y="245" width="7" height="8" /><rect x="118" y="253" width="7" height="8" /><rect x="152" y="150" width="6" height="6" /><rect x="123" y="175" width="6" height="9" /><rect x="145" y="157" width="6" height="6" /><rect x="130" y="178" width="6" height="6" /><rect x="137" y="178" width="6" height="6" /><rect x="143" y="178" width="8" height="6" /><rect x="139" y="185" width="6" height="6" /><rect x="145" y="164" width="6" height="6" /><rect x="202" y="241" width="6" height="6" /><rect x="202" y="248" width="6" height="6" /><rect x="196" y="248" width="6" height="6" /><rect x="189" y="248" width="6" height="6" /><rect x="182" y="248" width="6" height="6" />
</g>
<g class="spawningMap-uncommon"><rect x="136" y="248" width="6" height="6" /><rect x="136" y="254" width="6" height="6" /><rect x="50" y="241" width="6" height="7" /><rect x="165" y="184" width="6" height="6" /><rect x="158" y="184" width="6" height="6" /><rect x="182" y="227" width="6" height="6" /><rect x="65" y="80" width="9" height="4" /><rect x="115" y="75" width="9" height="5" /><rect x="75" y="107" width="6" height="6" /><rect x="142" y="221" width="6" height="6" /><rect x="162" y="234" width="6" height="6" /><rect x="149" y="234" width="6" height="6" /><rect x="142" y="234" width="6" height="6" /><rect x="155" y="92" width="6" height="8" /><rect x="141" y="122" width="5" height="4" /><rect x="110" y="107" width="3" height="7" /><rect x="90" y="172" width="10" height="4" /><rect x="133" y="185" width="6" height="6" /><rect x="126" y="206" width="6" height="6" /><rect x="133" y="206" width="6" height="6" /><rect x="116" y="206" width="9" height="6" /><rect x="142" y="241" width="6" height="6" /><rect x="149" y="221" width="6" height="6" /><rect x="149" y="214" width="6" height="6" /><rect x="156" y="214" width="5" height="6" /><rect x="142" y="248" width="6" height="6" /><rect x="142" y="254" width="6" height="6" /><rect x="65" y="67" width="6" height="6" /><rect x="89" y="87" width="6" height="6" /><rect x="116" y="80" width="6" height="6" /><rect x="95" y="75" width="9" height="5" /><rect x="89" y="107" width="6" height="6" /><rect x="105" y="75" width="9" height="5" /><rect x="82" y="107" width="6" height="6" /><rect x="82" y="101" width="6" height="6" /><rect x="162" y="214" width="6" height="6" /><rect x="65" y="73" width="6" height="7" /><rect x="127" y="47" width="8" height="8" /><rect x="117" y="47" width="9" height="4" /><rect x="59" y="67" width="6" height="6" /><rect x="143" y="83" width="11" height="4" /><rect x="149" y="88" width="5" height="13" /><rect x="140" y="101" width="11" height="5" /><rect x="80" y="57" width="5" height="9" /><rect x="72" y="67" width="3" height="12" /><rect x="85" y="57" width="6" height="6" /><rect x="89" y="80" width="6" height="6" /><rect x="102" y="80" width="6" height="6" /><rect x="109" y="80" width="6" height="6" /><rect x="75" y="101" width="6" height="6" /><rect x="75" y="94" width="6" height="6" /><rect x="117" y="127" width="6" height="6" /><rect x="110" y="127" width="6" height="6" /><rect x="104" y="127" width="6" height="6" /><rect x="97" y="134" width="6" height="6" /><rect x="90" y="166" width="10" height="6" /><rect x="85" y="64" width="6" height="6" /><rect x="119" y="185" width="6" height="6" /><rect x="126" y="185" width="6" height="6" /><rect x="119" y="192" width="6" height="6" /><rect x="126" y="192" width="6" height="6" /><rect x="133" y="192" width="6" height="6" /><rect x="116" y="199" width="9" height="6" /><rect x="126" y="199" width="6" height="6" /><rect x="133" y="199" width="6" height="6" /><rect x="95" y="80" width="6" height="6" /><rect x="128" y="221" width="6" height="7" /><rect x="158" y="157" width="6" height="6" /><rect x="165" y="170" width="6" height="7" /><rect x="158" y="170" width="6" height="7" /><rect x="182" y="214" width="6" height="6" /><rect x="182" y="221" width="6" height="6" /><rect x="176" y="221" width="6" height="6" /><rect x="176" y="227" width="6" height="6" /><rect x="83" y="235" width="6" height="6" /><rect x="165" y="157" width="6" height="6" /><rect x="162" y="221" width="6" height="6" /><rect x="155" y="221" width="6" height="6" /><rect x="162" y="227" width="6" height="6" /><rect x="155" y="227" width="6" height="6" /><rect x="149" y="227" width="6" height="6" /><rect x="142" y="227" width="6" height="6" /><rect x="155" y="234" width="6" height="6" /><rect x="155" y="241" width="6" height="6" /><rect x="162" y="241" width="6" height="6" /><rect x="162" y="248" width="6" height="6" /><rect x="162" y="254" width="6" height="6" />
</g>
<g class="spawningMap-common"><rect x="142" y="261" width="6" height="3" /><rect x="165" y="177" width="6" height="7" /><rect x="176" y="159" width="6" height="7" /><rect x="176" y="153" width="6" height="6" /><rect x="155" y="248" width="6" height="6" /><rect x="149" y="254" width="6" height="6" /><rect x="155" y="254" width="6" height="6" /><rect x="165" y="164" width="6" height="6" /><rect x="165" y="150" width="6" height="6" /><rect x="169" y="234" width="6" height="6" /><rect x="169" y="227" width="6" height="6" /><rect x="169" y="221" width="6" height="6" /><rect x="169" y="214" width="6" height="6" /><rect x="176" y="214" width="6" height="6" /><rect x="176" y="207" width="6" height="6" /><rect x="182" y="207" width="6" height="6" /><rect x="182" y="200" width="6" height="6" /><rect x="182" y="193" width="6" height="7" /><rect x="176" y="200" width="6" height="6" /><rect x="176" y="193" width="6" height="7" /><rect x="176" y="187" width="6" height="6" /><rect x="176" y="180" width="6" height="6" /><rect x="176" y="173" width="6" height="6" /><rect x="176" y="166" width="6" height="7" /><rect x="169" y="241" width="6" height="6" /><rect x="149" y="241" width="6" height="6" /><rect x="149" y="248" width="6" height="6" />
</g>
<g class="spawningMap-very-common"><rect x="149" y="261" width="6" height="3" /><rect x="155" y="261" width="6" height="3" />
</g>
</g>
<g class="spawning-map-point" opacity="0.8">
</g>
</svg>