<svg xmlns="http://www.w3.org/2000/svg" width="300" height="300" viewBox="0 0 300 300" class="creatureMap" style="position:absolute;">
<defs>
<filter id="blur" x="-30%" y="-30%" width="160%" height="160%"><feGaussianBlur stdDeviation="3" />
</filter>
<pattern id="pattern-untameable" width="10" height="10" patternTransform="rotate(135)" patternUnits="userSpaceOnUse"><rect width="4" height="10" fill="black"></rect>
</pattern>
<filter id="groupStroke"><feFlood result="outsideColor" flood-color="black"/><feMorphology in="SourceAlpha" operator="dilate" radius="2"/><feComposite result="strokeoutline1" in="outsideColor" operator="in"/><feComposite result="strokeoutline2" in="strokeoutline1" in2="SourceAlpha" operator="out"/><feGaussianBlur in="strokeoutline2" result="strokeblur" stdDeviation="1"/>
</filter>
<style>
.spawningMap-very-common { fill: #0F0;}
.spawningMap-common { fill: #B2FF00;}
.spawningMap-uncommon { fill: #FF0;}
.spawningMap-very-uncommon { fill: #FC0;}
.spawningMap-rare { fill: #F60;}
.spawningMap-very-rare { fill: #F00; }.spawning-map-point {stroke:black; stroke-width:1;}
</style>
</defs>
<g filter="url(#blur)" opacity="0.7">
<g class="spawningMap-very-rare"><rect x="50" y="218" width="6" height="9" /><rect x="83" y="241" width="6" height="7" /><rect x="113" y="150" width="6" height="14" /><rect x="101" y="167" width="12" height="7" /><rect x="77" y="208" width="9" height="12" /><rect x="87" y="208" width="8" height="12" /><rect x="189" y="214" width="6" height="6" /><rect x="161" y="50" width="9" height="15" /><rect x="140" y="88" width="9" height="13" /><rect x="215" y="241" width="6" height="6" /><rect x="136" y="56" width="9" height="14" /><rect x="113" y="134" width="6" height="15" /><rect x="104" y="134" width="7" height="15" /><rect x="104" y="150" width="7" height="14" /><rect x="127" y="56" width="8" height="14" /><rect x="57" y="228" width="6" height="6" /><rect x="57" y="218" width="6" height="9" /><rect x="189" y="207" width="6" height="6" /><rect x="57" y="241" width="6" height="7" /><rect x="64" y="237" width="6" height="10" /><rect x="70" y="237" width="6" height="10" /><rect x="77" y="237" width="6" height="10" />
</g>
<g class="spawningMap-rare"><rect x="209" y="241" width="6" height="6" /><rect x="65" y="80" width="9" height="4" /><rect x="196" y="160" width="6" height="6" /><rect x="115" y="75" width="9" height="5" /><rect x="75" y="107" width="6" height="6" /><rect x="72" y="53" width="8" height="6" /><rect x="108" y="59" width="8" height="6" /><rect x="69" y="95" width="6" height="6" /><rect x="123" y="82" width="6" height="5" /><rect x="137" y="47" width="12" height="8" /><rect x="152" y="178" width="6" height="13" /><rect x="82" y="87" width="6" height="6" /><rect x="65" y="89" width="9" height="4" /><rect x="155" y="75" width="9" height="8" /><rect x="133" y="93" width="6" height="8" /><rect x="56" y="87" width="9" height="6" /><rect x="155" y="92" width="6" height="8" /><rect x="164" y="101" width="11" height="4" /><rect x="79" y="121" width="6" height="5" /><rect x="84" y="127" width="6" height="6" /><rect x="196" y="187" width="6" height="6" /><rect x="196" y="193" width="6" height="7" /><rect x="196" y="200" width="6" height="6" /><rect x="90" y="172" width="10" height="4" /><rect x="101" y="185" width="17" height="4" /><rect x="90" y="177" width="7" height="7" /><rect x="106" y="177" width="10" height="7" /><rect x="133" y="185" width="6" height="6" /><rect x="126" y="206" width="6" height="6" /><rect x="133" y="206" width="6" height="6" /><rect x="116" y="206" width="9" height="6" /><rect x="110" y="253" width="7" height="8" /><rect x="126" y="229" width="8" height="7" /><rect x="126" y="237" width="8" height="7" /><rect x="126" y="245" width="8" height="8" /><rect x="126" y="253" width="8" height="8" /><rect x="140" y="211" width="8" height="9" /><rect x="149" y="201" width="9" height="9" /><rect x="65" y="67" width="6" height="6" /><rect x="89" y="87" width="6" height="6" /><rect x="116" y="80" width="6" height="6" /><rect x="95" y="75" width="9" height="5" /><rect x="89" y="107" width="6" height="6" /><rect x="105" y="75" width="9" height="5" /><rect x="82" y="107" width="6" height="6" /><rect x="82" y="101" width="6" height="6" /><rect x="75" y="80" width="6" height="6" /><rect x="86" y="71" width="8" height="4" /><rect x="117" y="56" width="9" height="5" /><rect x="117" y="71" width="9" height="4" /><rect x="117" y="66" width="9" height="4" /><rect x="108" y="66" width="8" height="4" /><rect x="65" y="73" width="6" height="7" /><rect x="117" y="61" width="9" height="4" /><rect x="123" y="75" width="6" height="7" /><rect x="127" y="47" width="8" height="8" /><rect x="117" y="52" width="9" height="4" /><rect x="127" y="87" width="6" height="7" /><rect x="107" y="71" width="9" height="4" /><rect x="155" y="83" width="9" height="9" /><rect x="117" y="47" width="9" height="4" /><rect x="180" y="66" width="8" height="8" /><rect x="59" y="67" width="6" height="6" /><rect x="154" y="63" width="6" height="11" /><rect x="72" y="60" width="8" height="6" /><rect x="146" y="56" width="14" height="6" /><rect x="146" y="63" width="7" height="11" /><rect x="143" y="75" width="11" height="7" /><rect x="143" y="83" width="11" height="4" /><rect x="149" y="88" width="5" height="13" /><rect x="140" y="101" width="11" height="5" /><rect x="152" y="101" width="11" height="4" /><rect x="80" y="57" width="5" height="9" /><rect x="72" y="67" width="3" height="12" /><rect x="85" y="57" width="6" height="6" /><rect x="65" y="84" width="9" height="5" /><rect x="89" y="80" width="6" height="6" /><rect x="102" y="80" width="6" height="6" /><rect x="109" y="80" width="6" height="6" /><rect x="76" y="67" width="8" height="6" /><rect x="86" y="75" width="8" height="5" /><rect x="76" y="73" width="8" height="7" /><rect x="65" y="60" width="6" height="6" /><rect x="75" y="101" width="6" height="6" /><rect x="75" y="94" width="6" height="6" /><rect x="117" y="127" width="6" height="6" /><rect x="110" y="127" width="6" height="6" /><rect x="104" y="127" width="6" height="6" /><rect x="97" y="134" width="6" height="6" /><rect x="148" y="114" width="6" height="6" /><rect x="148" y="107" width="6" height="7" /><rect x="127" y="94" width="6" height="5" /><rect x="114" y="114" width="6" height="6" /><rect x="114" y="107" width="6" height="7" /><rect x="107" y="114" width="6" height="6" /><rect x="107" y="121" width="6" height="5" /><rect x="101" y="114" width="6" height="6" /><rect x="101" y="121" width="6" height="5" /><rect x="94" y="114" width="6" height="6" /><rect x="87" y="114" width="6" height="6" /><rect x="79" y="114" width="6" height="6" /><rect x="94" y="121" width="6" height="5" /><rect x="87" y="121" width="6" height="5" /><rect x="97" y="127" width="6" height="6" /><rect x="91" y="127" width="6" height="6" /><rect x="141" y="114" width="6" height="6" /><rect x="141" y="107" width="6" height="7" /><rect x="134" y="114" width="6" height="6" /><rect x="134" y="107" width="6" height="7" /><rect x="128" y="114" width="6" height="6" /><rect x="128" y="107" width="6" height="7" /><rect x="121" y="114" width="6" height="6" /><rect x="82" y="80" width="6" height="6" /><rect x="121" y="107" width="6" height="7" /><rect x="75" y="87" width="6" height="6" /><rect x="161" y="66" width="9" height="8" /><rect x="77" y="199" width="9" height="8" /><rect x="87" y="199" width="8" height="8" /><rect x="90" y="190" width="9" height="8" /><rect x="100" y="190" width="9" height="8" /><rect x="90" y="166" width="10" height="6" /><rect x="85" y="64" width="6" height="6" /><rect x="119" y="185" width="6" height="6" /><rect x="126" y="185" width="6" height="6" /><rect x="119" y="192" width="6" height="6" /><rect x="126" y="192" width="6" height="6" /><rect x="133" y="192" width="6" height="6" /><rect x="116" y="199" width="9" height="6" /><rect x="126" y="199" width="6" height="6" /><rect x="133" y="199" width="6" height="6" /><rect x="95" y="80" width="6" height="6" /><rect x="120" y="221" width="8" height="7" /><rect x="128" y="221" width="6" height="7" /><rect x="110" y="229" width="7" height="7" /><rect x="110" y="237" width="7" height="7" /><rect x="110" y="245" width="7" height="8" /><rect x="118" y="229" width="7" height="7" /><rect x="118" y="237" width="7" height="7" /><rect x="118" y="245" width="7" height="8" /><rect x="118" y="253" width="7" height="8" /><rect x="110" y="190" width="9" height="8" /><rect x="140" y="192" width="8" height="8" /><rect x="140" y="201" width="8" height="9" /><rect x="149" y="192" width="9" height="8" /><rect x="152" y="164" width="6" height="13" /><rect x="57" y="235" width="6" height="6" /><rect x="50" y="228" width="6" height="6" /><rect x="202" y="180" width="6" height="6" /><rect x="202" y="187" width="6" height="6" /><rect x="202" y="193" width="6" height="7" /><rect x="202" y="200" width="6" height="6" /><rect x="202" y="207" width="6" height="6" /><rect x="196" y="207" width="6" height="6" /><rect x="202" y="214" width="6" height="6" /><rect x="196" y="214" width="6" height="6" /><rect x="202" y="220" width="6" height="7" /><rect x="196" y="220" width="6" height="7" /><rect x="50" y="235" width="6" height="6" /><rect x="209" y="227" width="6" height="6" /><rect x="202" y="227" width="6" height="6" /><rect x="215" y="234" width="6" height="6" /><rect x="209" y="234" width="6" height="6" /><rect x="196" y="180" width="6" height="6" /><rect x="196" y="173" width="6" height="6" /><rect x="196" y="166" width="6" height="7" />
</g>
<g class="spawningMap-very-uncommon"><rect x="141" y="122" width="5" height="4" /><rect x="110" y="107" width="3" height="7" /><rect x="128" y="121" width="6" height="5" /><rect x="134" y="121" width="6" height="5" /><rect x="121" y="121" width="6" height="5" /><rect x="114" y="121" width="6" height="5" />
</g>
</g>
<g class="spawning-map-point" opacity="0.8">
</g>
</svg>