<svg xmlns="http://www.w3.org/2000/svg" width="300" height="300" viewBox="0 0 300 300" class="creatureMap" style="position:absolute;">
<defs>
<filter id="blur" x="-30%" y="-30%" width="160%" height="160%"><feGaussianBlur stdDeviation="3" />
</filter>
<pattern id="pattern-untameable" width="10" height="10" patternTransform="rotate(135)" patternUnits="userSpaceOnUse"><rect width="4" height="10" fill="black"></rect>
</pattern>
<filter id="groupStroke"><feFlood result="outsideColor" flood-color="black"/><feMorphology in="SourceAlpha" operator="dilate" radius="2"/><feComposite result="strokeoutline1" in="outsideColor" operator="in"/><feComposite result="strokeoutline2" in="strokeoutline1" in2="SourceAlpha" operator="out"/><feGaussianBlur in="strokeoutline2" result="strokeblur" stdDeviation="1"/>
</filter>
<style>
.spawningMap-very-common { fill: #0F0;}
.spawningMap-common { fill: #B2FF00;}
.spawningMap-uncommon { fill: #FF0;}
.spawningMap-very-uncommon { fill: #FC0;}
.spawningMap-rare { fill: #F60;}
.spawningMap-very-rare { fill: #F00; }.spawning-map-point {stroke:black; stroke-width:1;}
</style>
</defs>
<g filter="url(#blur)" opacity="0.7">
<g class="spawningMap-rare"><rect x="216" y="38" width="9" height="10" /><rect x="216" y="27" width="9" height="10" /><rect x="268" y="38" width="10" height="10" /><rect x="258" y="38" width="9" height="10" /><rect x="247" y="38" width="10" height="10" /><rect x="237" y="38" width="9" height="10" /><rect x="247" y="48" width="10" height="10" /><rect x="258" y="48" width="9" height="10" /><rect x="268" y="48" width="10" height="10" /><rect x="268" y="59" width="10" height="10" /><rect x="258" y="59" width="9" height="10" /><rect x="247" y="59" width="10" height="10" /><rect x="247" y="69" width="10" height="10" /><rect x="247" y="80" width="10" height="10" /><rect x="247" y="90" width="10" height="10" /><rect x="258" y="90" width="9" height="10" />
</g>
<g class="spawningMap-very-uncommon"><rect x="216" y="48" width="9" height="10" /><rect x="226" y="27" width="10" height="10" /><rect x="237" y="27" width="9" height="10" /><rect x="268" y="80" width="10" height="10" /><rect x="237" y="90" width="9" height="10" />
</g>
<g class="spawningMap-uncommon"><rect x="261" y="3" width="21" height="12" />
</g>
<g class="spawningMap-common"><rect x="246" y="48" width="11" height="11" /><rect x="246" y="38" width="11" height="10" /><rect x="257" y="48" width="10" height="11" /><rect x="257" y="59" width="10" height="9" /><rect x="267" y="48" width="10" height="11" /><rect x="277" y="48" width="10" height="11" /><rect x="277" y="48" width="10" height="11" /><rect x="277" y="48" width="10" height="11" /><rect x="259" y="16" width="10" height="14" /><rect x="251" y="6" width="10" height="9" />
</g>
<g class="spawningMap-very-common"><rect x="192" y="45" width="6" height="4" /><rect x="197" y="40" width="2" height="5" /><rect x="199" y="35" width="3" height="5" /><rect x="202" y="35" width="5" height="4" /><rect x="204" y="39" width="4" height="12" /><rect x="208" y="46" width="6" height="7" /><rect x="214" y="48" width="5" height="3" /><rect x="219" y="45" width="8" height="6" /><rect x="227" y="43" width="6" height="8" /><rect x="234" y="42" width="6" height="4" /><rect x="240" y="42" width="4" height="3" /><rect x="243" y="45" width="3" height="10" /><rect x="246" y="59" width="11" height="5" /><rect x="257" y="41" width="10" height="7" /><rect x="267" y="41" width="10" height="7" /><rect x="143" y="20" width="11" height="11" /><rect x="267" y="59" width="10" height="5" /><rect x="277" y="41" width="10" height="7" /><rect x="277" y="59" width="10" height="5" /><rect x="288" y="41" width="10" height="7" /><rect x="288" y="48" width="6" height="7" /><rect x="288" y="48" width="6" height="7" /><rect x="284" y="31" width="5" height="10" /><rect x="279" y="22" width="10" height="9" /><rect x="269" y="22" width="10" height="8" /><rect x="248" y="24" width="11" height="6" /><rect x="246" y="11" width="5" height="12" /><rect x="134" y="16" width="4" height="5" /><rect x="132" y="20" width="3" height="2" /><rect x="132" y="15" width="1" height="0" /><rect x="136" y="15" width="5" height="1" /><rect x="141" y="16" width="10" height="4" /><rect x="124" y="4" width="5" height="13" /><rect x="130" y="0" width="16" height="4" /><rect x="137" y="6" width="10" height="6" />
</g>
</g>
<g class="spawning-map-point" opacity="0.8">
</g>
<g fill="url(#pattern-untameable)" opacity="0.3"><rect x="261" y="3" width="21" height="12"/><rect x="246" y="48" width="11" height="11"/><rect x="246" y="38" width="11" height="10"/><rect x="257" y="48" width="10" height="11"/><rect x="267" y="48" width="10" height="11"/><rect x="277" y="48" width="10" height="11"/><rect x="277" y="48" width="10" height="11"/><rect x="277" y="48" width="10" height="11"/><rect x="259" y="16" width="10" height="14"/><rect x="251" y="6" width="10" height="9"/><rect x="192" y="45" width="6" height="4"/><rect x="197" y="40" width="2" height="5"/><rect x="199" y="35" width="3" height="5"/><rect x="202" y="35" width="5" height="4"/><rect x="204" y="39" width="4" height="12"/><rect x="208" y="46" width="6" height="7"/><rect x="214" y="48" width="5" height="3"/><rect x="219" y="45" width="8" height="6"/><rect x="227" y="43" width="6" height="8"/><rect x="234" y="42" width="6" height="4"/><rect x="240" y="42" width="4" height="3"/><rect x="243" y="45" width="3" height="10"/><rect x="257" y="41" width="10" height="7"/><rect x="267" y="41" width="10" height="7"/><rect x="143" y="20" width="11" height="11"/><rect x="277" y="41" width="10" height="7"/><rect x="288" y="41" width="10" height="7"/><rect x="288" y="48" width="6" height="7"/><rect x="288" y="48" width="6" height="7"/><rect x="284" y="31" width="5" height="10"/><rect x="279" y="22" width="10" height="9"/><rect x="269" y="22" width="10" height="8"/><rect x="248" y="24" width="11" height="6"/><rect x="246" y="11" width="5" height="12"/><rect x="134" y="16" width="4" height="5"/><rect x="132" y="20" width="3" height="2"/><rect x="132" y="15" width="1" height="0"/><rect x="136" y="15" width="5" height="1"/><rect x="141" y="16" width="10" height="4"/><rect x="124" y="4" width="5" height="13"/><rect x="130" y="0" width="16" height="4"/><rect x="137" y="6" width="10" height="6"/>
</g>
<g filter="url(#groupStroke)" opacity="0.8"><rect x="261" y="3" width="21" height="12"/><rect x="246" y="48" width="11" height="11"/><rect x="246" y="38" width="11" height="10"/><rect x="257" y="48" width="10" height="11"/><rect x="257" y="59" width="10" height="9"/><rect x="267" y="48" width="10" height="11"/><rect x="277" y="48" width="10" height="11"/><rect x="277" y="48" width="10" height="11"/><rect x="277" y="48" width="10" height="11"/><rect x="259" y="16" width="10" height="14"/><rect x="251" y="6" width="10" height="9"/><rect x="192" y="45" width="6" height="4"/><rect x="197" y="40" width="2" height="5"/><rect x="199" y="35" width="3" height="5"/><rect x="202" y="35" width="5" height="4"/><rect x="204" y="39" width="4" height="12"/><rect x="208" y="46" width="6" height="7"/><rect x="214" y="48" width="5" height="3"/><rect x="219" y="45" width="8" height="6"/><rect x="227" y="43" width="6" height="8"/><rect x="234" y="42" width="6" height="4"/><rect x="240" y="42" width="4" height="3"/><rect x="243" y="45" width="3" height="10"/><rect x="246" y="59" width="11" height="5"/><rect x="257" y="41" width="10" height="7"/><rect x="267" y="41" width="10" height="7"/><rect x="143" y="20" width="11" height="11"/><rect x="267" y="59" width="10" height="5"/><rect x="277" y="41" width="10" height="7"/><rect x="277" y="59" width="10" height="5"/><rect x="288" y="41" width="10" height="7"/><rect x="288" y="48" width="6" height="7"/><rect x="288" y="48" width="6" height="7"/><rect x="284" y="31" width="5" height="10"/><rect x="279" y="22" width="10" height="9"/><rect x="269" y="22" width="10" height="8"/><rect x="248" y="24" width="11" height="6"/><rect x="246" y="11" width="5" height="12"/><rect x="134" y="16" width="4" height="5"/><rect x="132" y="20" width="3" height="2"/><rect x="132" y="15" width="1" height="0"/><rect x="136" y="15" width="5" height="1"/><rect x="141" y="16" width="10" height="4"/><rect x="124" y="4" width="5" height="13"/><rect x="130" y="0" width="16" height="4"/><rect x="137" y="6" width="10" height="6"/>
</g>
</svg>