<svg xmlns="http://www.w3.org/2000/svg" width="300" height="300" viewBox="0 0 300 300" class="creatureMap" style="position:absolute;">
<defs>
  <filter id="blur" x="-30%" y="-30%" width="160%" height="160%">
    <feGaussianBlur stdDeviation="3" />
</filter>
<pattern id="pattern-untameable" width="10" height="10" patternTransform="rotate(135)" patternUnits="userSpaceOnUse">
<rect width="4" height="10" fill="black"></rect>
</pattern><filter id="groupStroke"><feFlood result="outsideColor" flood-color="black"/><feMorphology in="SourceAlpha" operator="dilate" radius="2"/><feComposite result="strokeoutline1" in="outsideColor" operator="in"/><feComposite result="strokeoutline2" in="strokeoutline1" in2="SourceAlpha" operator="out"/><feGaussianBlur in="strokeoutline2" result="strokeblur" stdDeviation="1"/></filter><style>.spawningMap-very-common { fill: #0F0;}.spawningMap-common { fill: #B2FF00;}.spawningMap-uncommon { fill: #FF0;}.spawningMap-very-uncommon { fill: #FC0;}.spawningMap-rare { fill: #F60;}.spawningMap-very-rare { fill: #F00; }.spawning-map-point {stroke:black; stroke-width:1;}</style></defs>
<g filter="url(#blur)" opacity="0.7"><g class="spawningMap-uncommon"><rect x="241" y="236" width="12" height="11" /><rect x="227" y="250" width="11" height="12" /><rect x="227" y="214" width="11" height="11" /><rect x="205" y="214" width="11" height="11" /><rect x="197" y="214" width="12" height="11" /><rect x="212" y="206" width="11" height="12" /><rect x="205" y="206" width="11" height="12" /><rect x="175" y="206" width="12" height="12" /><rect x="249" y="258" width="11" height="11" /><rect x="205" y="258" width="11" height="11" /><rect x="197" y="258" width="12" height="11" /><rect x="249" y="273" width="11" height="11" /><rect x="205" y="273" width="11" height="11" /><rect x="278" y="214" width="12" height="11" /><rect x="256" y="236" width="12" height="11" /><rect x="212" y="199" width="11" height="11" /><rect x="183" y="199" width="11" height="11" /><rect x="219" y="280" width="12" height="11" /><rect x="212" y="280" width="11" height="11" /></g><g class="spawningMap-very-common"><rect x="256" y="221" width="12" height="12" /><rect x="256" y="206" width="12" height="12" /><rect x="249" y="250" width="11" height="12" /><rect x="249" y="236" width="11" height="11" /><rect x="249" y="243" width="11" height="12" /><rect x="249" y="228" width="11" height="12" /><rect x="249" y="214" width="11" height="11" /><rect x="249" y="221" width="11" height="12" /><rect x="249" y="206" width="11" height="12" /><rect x="241" y="250" width="12" height="12" /><rect x="241" y="243" width="12" height="12" /><rect x="241" y="228" width="12" height="12" /><rect x="241" y="214" width="12" height="11" /><rect x="241" y="221" width="12" height="12" /><rect x="241" y="206" width="12" height="12" /><rect x="234" y="250" width="12" height="12" /><rect x="234" y="236" width="12" height="11" /><rect x="234" y="243" width="12" height="12" /><rect x="234" y="228" width="12" height="12" /><rect x="234" y="214" width="12" height="11" /><rect x="234" y="221" width="12" height="12" /><rect x="234" y="206" width="12" height="12" /><rect x="227" y="236" width="11" height="11" /><rect x="227" y="243" width="11" height="12" /><rect x="227" y="228" width="11" height="12" /><rect x="227" y="221" width="11" height="12" /><rect x="227" y="206" width="11" height="12" /><rect x="219" y="250" width="12" height="12" /><rect x="219" y="236" width="12" height="11" /><rect x="219" y="243" width="12" height="12" /><rect x="219" y="228" width="12" height="12" /><rect x="219" y="214" width="12" height="11" /><rect x="219" y="221" width="12" height="12" /><rect x="212" y="250" width="11" height="12" /><rect x="212" y="236" width="11" height="11" /><rect x="212" y="243" width="11" height="12" /><rect x="212" y="228" width="11" height="12" /><rect x="212" y="214" width="11" height="11" /><rect x="212" y="221" width="11" height="12" /><rect x="278" y="192" width="12" height="11" /><rect x="205" y="250" width="11" height="12" /><rect x="205" y="236" width="11" height="11" /><rect x="205" y="243" width="11" height="12" /><rect x="205" y="228" width="11" height="12" /><rect x="205" y="221" width="11" height="12" /><rect x="271" y="192" width="12" height="11" /><rect x="264" y="192" width="11" height="11" /><rect x="197" y="250" width="12" height="12" /><rect x="197" y="236" width="12" height="11" /><rect x="197" y="243" width="12" height="12" /><rect x="197" y="228" width="12" height="12" /><rect x="197" y="221" width="12" height="12" /><rect x="256" y="192" width="12" height="11" /><rect x="190" y="258" width="11" height="11" /><rect x="190" y="250" width="11" height="12" /><rect x="190" y="236" width="11" height="11" /><rect x="190" y="243" width="11" height="12" /><rect x="190" y="228" width="11" height="12" /><rect x="190" y="214" width="11" height="11" /><rect x="190" y="221" width="11" height="12" /><rect x="183" y="258" width="11" height="11" /><rect x="183" y="250" width="11" height="12" /><rect x="183" y="236" width="11" height="11" /><rect x="183" y="243" width="11" height="12" /><rect x="183" y="228" width="11" height="12" /><rect x="183" y="214" width="11" height="11" /><rect x="183" y="221" width="11" height="12" /><rect x="219" y="206" width="12" height="12" /><rect x="197" y="206" width="12" height="12" /><rect x="190" y="206" width="11" height="12" /><rect x="183" y="206" width="11" height="12" /><rect x="205" y="199" width="11" height="11" /><rect x="205" y="192" width="11" height="11" /><rect x="197" y="192" width="12" height="11" /><rect x="175" y="236" width="12" height="11" /><rect x="175" y="243" width="12" height="12" /><rect x="175" y="228" width="12" height="12" /><rect x="175" y="214" width="12" height="11" /><rect x="175" y="221" width="12" height="12" /><rect x="264" y="258" width="11" height="11" /><rect x="256" y="258" width="12" height="11" /><rect x="241" y="258" width="12" height="11" /><rect x="234" y="258" width="12" height="11" /><rect x="227" y="258" width="11" height="11" /><rect x="219" y="258" width="12" height="11" /><rect x="212" y="258" width="11" height="11" /><rect x="264" y="265" width="11" height="12" /><rect x="256" y="265" width="12" height="12" /><rect x="249" y="265" width="11" height="12" /><rect x="241" y="265" width="12" height="12" /><rect x="234" y="265" width="12" height="12" /><rect x="227" y="265" width="11" height="12" /><rect x="219" y="265" width="12" height="12" /><rect x="212" y="265" width="11" height="12" /><rect x="205" y="265" width="11" height="12" /><rect x="197" y="265" width="12" height="12" /><rect x="264" y="273" width="11" height="11" /><rect x="256" y="273" width="12" height="11" /><rect x="241" y="273" width="12" height="11" /><rect x="234" y="273" width="12" height="11" /><rect x="227" y="273" width="11" height="11" /><rect x="219" y="273" width="12" height="11" /><rect x="212" y="273" width="11" height="11" /><rect x="197" y="273" width="12" height="11" /><rect x="234" y="280" width="12" height="11" /><rect x="234" y="284" width="12" height="12" /><rect x="271" y="273" width="12" height="11" /><rect x="278" y="265" width="12" height="12" /><rect x="278" y="206" width="12" height="12" /><rect x="278" y="258" width="12" height="11" /><rect x="278" y="250" width="12" height="12" /><rect x="278" y="236" width="12" height="11" /><rect x="278" y="243" width="12" height="12" /><rect x="278" y="228" width="12" height="12" /><rect x="278" y="221" width="12" height="12" /><rect x="271" y="258" width="11" height="11" /><rect x="271" y="250" width="11" height="12" /><rect x="271" y="199" width="11" height="11" /><rect x="271" y="236" width="11" height="11" /><rect x="271" y="243" width="11" height="12" /><rect x="271" y="228" width="11" height="12" /><rect x="271" y="214" width="11" height="11" /><rect x="271" y="221" width="11" height="12" /><rect x="271" y="206" width="11" height="12" /><rect x="278" y="199" width="12" height="11" /><rect x="264" y="250" width="11" height="12" /><rect x="264" y="236" width="11" height="11" /><rect x="264" y="243" width="11" height="12" /><rect x="264" y="228" width="11" height="12" /><rect x="264" y="214" width="11" height="11" /><rect x="264" y="221" width="11" height="12" /><rect x="264" y="206" width="11" height="12" /><rect x="256" y="250" width="12" height="12" /><rect x="256" y="243" width="12" height="12" /><rect x="256" y="228" width="12" height="12" /><rect x="256" y="214" width="12" height="11" /><rect x="271" y="265" width="12" height="12" /><rect x="175" y="258" width="12" height="11" /><rect x="175" y="250" width="12" height="12" /><rect x="219" y="199" width="12" height="11" /><rect x="197" y="199" width="12" height="11" /><rect x="190" y="199" width="11" height="11" /><rect x="175" y="199" width="12" height="11" /><rect x="190" y="192" width="11" height="11" /><rect x="168" y="236" width="11" height="11" /><rect x="168" y="243" width="11" height="12" /><rect x="168" y="228" width="11" height="12" /><rect x="168" y="214" width="11" height="11" /><rect x="168" y="221" width="11" height="12" /><rect x="168" y="206" width="11" height="12" /><rect x="264" y="280" width="11" height="11" /><rect x="256" y="280" width="12" height="11" /><rect x="249" y="280" width="11" height="11" /><rect x="241" y="280" width="12" height="11" /><rect x="227" y="280" width="11" height="11" /><rect x="205" y="280" width="11" height="11" /><rect x="197" y="280" width="12" height="11" /><rect x="256" y="284" width="12" height="12" /><rect x="264" y="199" width="11" height="11" /><rect x="256" y="199" width="12" height="11" /></g></g>
</svg>