<svg xmlns="http://www.w3.org/2000/svg" width="300" height="300" viewBox="0 0 300 300" class="creatureMap" style="position:absolute;">
<defs>
<filter id="blur" x="-30%" y="-30%" width="160%" height="160%"><feGaussianBlur stdDeviation="3" />
</filter>
<pattern id="pattern-untameable" width="10" height="10" patternTransform="rotate(135)" patternUnits="userSpaceOnUse"><rect width="4" height="10" fill="black"></rect>
</pattern>
<filter id="groupStroke"><feFlood result="outsideColor" flood-color="black"/><feMorphology in="SourceAlpha" operator="dilate" radius="2"/><feComposite result="strokeoutline1" in="outsideColor" operator="in"/><feComposite result="strokeoutline2" in="strokeoutline1" in2="SourceAlpha" operator="out"/><feGaussianBlur in="strokeoutline2" result="strokeblur" stdDeviation="1"/>
</filter>
<style>
.spawningMap-very-common { fill: #0F0;}
.spawningMap-common { fill: #B2FF00;}
.spawningMap-uncommon { fill: #FF0;}
.spawningMap-very-uncommon { fill: #FC0;}
.spawningMap-rare { fill: #F60;}
.spawningMap-very-rare { fill: #F00; }.spawning-map-point {stroke:black; stroke-width:1;}
</style>
</defs>
<g filter="url(#blur)" opacity="0.7">
</g>
<g class="spawning-map-point" opacity="0.8">
<g class="spawningMap-uncommon"><circle cx="114" cy="130" r="4" /><circle cx="118" cy="134" r="4" /><circle cx="113" cy="140" r="4" /><circle cx="118" cy="144" r="4" /><circle cx="117" cy="155" r="4" /><circle cx="118" cy="155" r="4" /><circle cx="107" cy="164" r="4" /><circle cx="104" cy="165" r="4" /><circle cx="109" cy="135" r="4" /><circle cx="103" cy="137" r="4" /><circle cx="104" cy="139" r="4" /><circle cx="104" cy="138" r="4" /><circle cx="104" cy="136" r="4" /><circle cx="104" cy="136" r="4" /><circle cx="120" cy="146" r="4" /><circle cx="112" cy="153" r="4" /><circle cx="112" cy="132" r="4" /><circle cx="110" cy="161" r="4" /><circle cx="113" cy="154" r="4" /><circle cx="109" cy="137" r="4" /><circle cx="112" cy="139" r="4" /><circle cx="114" cy="138" r="4" /><circle cx="117" cy="162" r="4" /><circle cx="117" cy="162" r="4" /><circle cx="119" cy="163" r="4" />
</g>
<g class="spawningMap-common"><circle cx="118" cy="77" r="4" /><circle cx="118" cy="78" r="4" /><circle cx="118" cy="78" r="4" /><circle cx="119" cy="79" r="4" /><circle cx="119" cy="79" r="4" /><circle cx="118" cy="81" r="4" /><circle cx="119" cy="81" r="4" /><circle cx="119" cy="81" r="4" /><circle cx="121" cy="80" r="4" /><circle cx="121" cy="79" r="4" /><circle cx="123" cy="79" r="4" /><circle cx="123" cy="79" r="4" /><circle cx="123" cy="77" r="4" /><circle cx="121" cy="72" r="4" /><circle cx="125" cy="65" r="4" /><circle cx="125" cy="65" r="4" /><circle cx="124" cy="62" r="4" /><circle cx="130" cy="80" r="4" /><circle cx="129" cy="82" r="4" /><circle cx="120" cy="67" r="4" /><circle cx="119" cy="66" r="4" /><circle cx="118" cy="65" r="4" /><circle cx="118" cy="65" r="4" /><circle cx="123" cy="61" r="4" /><circle cx="123" cy="61" r="4" /><circle cx="125" cy="62" r="4" /><circle cx="84" cy="101" r="4" /><circle cx="85" cy="100" r="4" /><circle cx="87" cy="100" r="4" /><circle cx="89" cy="97" r="4" /><circle cx="89" cy="96" r="4" /><circle cx="85" cy="97" r="4" /><circle cx="82" cy="94" r="4" /><circle cx="80" cy="92" r="4" /><circle cx="80" cy="95" r="4" /><circle cx="78" cy="93" r="4" /><circle cx="77" cy="93" r="4" /><circle cx="77" cy="95" r="4" /><circle cx="80" cy="101" r="4" /><circle cx="77" cy="101" r="4" /><circle cx="77" cy="101" r="4" />
</g>
</g>
</svg>