<?xml version="1.0" encoding="utf-8"?>
<svg xmlns="http://www.w3.org/2000/svg" width="300" height="300"
        viewBox="0 0 300 300" class="creatureMap" style="position:absolute;">
    <defs>
        <filter id="blur" x="-30%" y="-30%" width="160%" height="160%">
            <feGaussianBlur stdDeviation="3" />
        </filter>
        <pattern id="pattern-untameable" width="10" height="10" patternTransform="rotate(135)" patternUnits="userSpaceOnUse">
            <rect width="4" height="10" fill="black"></rect>
        </pattern>
        <filter id="groupStroke">
            <feFlood result="outsideColor" flood-color="black"/>
            <feMorphology in="SourceAlpha" operator="dilate" radius="2"/>
            <feComposite result="strokeoutline1" in="outsideColor" operator="in"/>
            <feComposite result="strokeoutline2" in="strokeoutline1" in2="SourceAlpha" operator="out"/>
            <feGaussianBlur in="strokeoutline2" result="strokeblur" stdDeviation="1"/>
        </filter>
        <style>
            .spawningMap-very-common { fill: #0F0; }
            .spawningMap-common { fill: #B2FF00; }
            .spawningMap-uncommon { fill: #FF0; }
            .spawningMap-very-uncommon { fill: #FC0; }
            .spawningMap-rare { fill: #F60; }
            .spawningMap-very-rare { fill: #F00; }
            .spawning-map-point { stroke:black; stroke-width:1; }
        </style>
    </defs>

<g filter="url(#blur)" opacity="0.7">
<g class="spawningMap-very-uncommon">
<rect x="0" y="84" width="24" height="67" />
<rect x="250" y="75" width="6" height="7" />
<rect x="194" y="10" width="106" height="27" />
<rect x="0" y="18" width="23" height="68" />
</g>
<g class="spawningMap-uncommon">
<rect x="65" y="2" width="68" height="25" />
<rect x="203" y="74" width="72" height="27" />
<rect x="272" y="33" width="26" height="72" />
</g>
<g class="spawningMap-common">
<rect x="0" y="7" width="64" height="14" />
</g>
</g>
<g class="spawning-map-point" opacity="0.8">
<g class="spawningMap-very-rare">
<circle cx="13" cy="98" r="4" />
<circle cx="11" cy="104" r="4" />
<circle cx="14" cy="101" r="4" />
<circle cx="14" cy="99" r="4" />
<circle cx="13" cy="95" r="4" />
<circle cx="16" cy="93" r="4" />
<circle cx="12" cy="105" r="4" />
<circle cx="12" cy="102" r="4" />
<circle cx="28" cy="106" r="4" />
<circle cx="28" cy="102" r="4" />
<circle cx="26" cy="99" r="4" />
<circle cx="28" cy="95" r="4" />
<circle cx="29" cy="97" r="4" />
<circle cx="31" cy="96" r="4" />
<circle cx="33" cy="93" r="4" />
<circle cx="16" cy="88" r="4" />
<circle cx="47" cy="82" r="4" />
<circle cx="43" cy="87" r="4" />
<circle cx="59" cy="85" r="4" />
<circle cx="36" cy="88" r="4" />
<circle cx="65" cy="84" r="4" />
<circle cx="64" cy="85" r="4" />
<circle cx="62" cy="85" r="4" />
<circle cx="56" cy="83" r="4" />
<circle cx="56" cy="86" r="4" />
<circle cx="50" cy="82" r="4" />
<circle cx="52" cy="85" r="4" />
<circle cx="49" cy="85" r="4" />
<circle cx="45" cy="82" r="4" />
<circle cx="44" cy="85" r="4" />
<circle cx="42" cy="88" r="4" />
<circle cx="39" cy="88" r="4" />
</g>
<g class="spawningMap-rare">
<circle cx="120" cy="60" r="4" />
<circle cx="113" cy="38" r="4" />
<circle cx="113" cy="41" r="4" />
<circle cx="110" cy="44" r="4" />
<circle cx="111" cy="46" r="4" />
<circle cx="114" cy="46" r="4" />
<circle cx="116" cy="50" r="4" />
<circle cx="119" cy="47" r="4" />
<circle cx="124" cy="45" r="4" />
<circle cx="122" cy="49" r="4" />
<circle cx="126" cy="49" r="4" />
<circle cx="125" cy="52" r="4" />
<circle cx="127" cy="57" r="4" />
<circle cx="121" cy="51" r="4" />
<circle cx="127" cy="61" r="4" />
<circle cx="125" cy="60" r="4" />
<circle cx="125" cy="58" r="4" />
<circle cx="126" cy="55" r="4" />
<circle cx="131" cy="57" r="4" />
<circle cx="135" cy="57" r="4" />
<circle cx="137" cy="56" r="4" />
<circle cx="140" cy="55" r="4" />
<circle cx="141" cy="57" r="4" />
<circle cx="139" cy="61" r="4" />
<circle cx="138" cy="60" r="4" />
<circle cx="136" cy="62" r="4" />
<circle cx="133" cy="60" r="4" />
<circle cx="129" cy="57" r="4" />
<circle cx="138" cy="68" r="4" />
<circle cx="139" cy="69" r="4" />
<circle cx="136" cy="72" r="4" />
<circle cx="136" cy="75" r="4" />
<circle cx="135" cy="68" r="4" />
<circle cx="141" cy="76" r="4" />
<circle cx="120" cy="60" r="4" />
<circle cx="116" cy="60" r="4" />
<circle cx="115" cy="59" r="4" />
<circle cx="115" cy="57" r="4" />
<circle cx="120" cy="56" r="4" />
<circle cx="161" cy="77" r="4" />
<circle cx="143" cy="66" r="4" />
<circle cx="145" cy="67" r="4" />
<circle cx="144" cy="69" r="4" />
<circle cx="144" cy="73" r="4" />
<circle cx="145" cy="75" r="4" />
<circle cx="143" cy="77" r="4" />
<circle cx="144" cy="77" r="4" />
<circle cx="149" cy="81" r="4" />
<circle cx="150" cy="81" r="4" />
<circle cx="152" cy="82" r="4" />
<circle cx="153" cy="83" r="4" />
<circle cx="156" cy="82" r="4" />
<circle cx="157" cy="80" r="4" />
<circle cx="157" cy="78" r="4" />
<circle cx="158" cy="76" r="4" />
<circle cx="163" cy="78" r="4" />
<circle cx="163" cy="80" r="4" />
<circle cx="166" cy="81" r="4" />
<circle cx="167" cy="84" r="4" />
<circle cx="168" cy="85" r="4" />
<circle cx="169" cy="85" r="4" />
<circle cx="169" cy="84" r="4" />
<circle cx="170" cy="84" r="4" />
<circle cx="170" cy="83" r="4" />
<circle cx="170" cy="80" r="4" />
<circle cx="169" cy="77" r="4" />
<circle cx="168" cy="75" r="4" />
<circle cx="168" cy="74" r="4" />
<circle cx="167" cy="72" r="4" />
<circle cx="166" cy="70" r="4" />
<circle cx="169" cy="70" r="4" />
<circle cx="128" cy="93" r="4" />
<circle cx="136" cy="79" r="4" />
<circle cx="137" cy="81" r="4" />
<circle cx="137" cy="84" r="4" />
<circle cx="138" cy="86" r="4" />
<circle cx="135" cy="87" r="4" />
<circle cx="133" cy="85" r="4" />
<circle cx="132" cy="85" r="4" />
<circle cx="130" cy="86" r="4" />
<circle cx="130" cy="89" r="4" />
<circle cx="128" cy="85" r="4" />
<circle cx="126" cy="86" r="4" />
<circle cx="124" cy="87" r="4" />
<circle cx="130" cy="93" r="4" />
<circle cx="130" cy="92" r="4" />
<circle cx="130" cy="91" r="4" />
</g>
</g>
</svg>