<svg xmlns="http://www.w3.org/2000/svg" width="300" height="300" viewBox="0 0 300 300" class="creatureMap" style="position:absolute;">
<defs>
<filter id="blur" x="-30%" y="-30%" width="160%" height="160%"><feGaussianBlur stdDeviation="3" />
</filter>
<pattern id="pattern-untameable" width="10" height="10" patternTransform="rotate(135)" patternUnits="userSpaceOnUse"><rect width="4" height="10" fill="black"></rect>
</pattern>
<filter id="groupStroke"><feFlood result="outsideColor" flood-color="black"/><feMorphology in="SourceAlpha" operator="dilate" radius="2"/><feComposite result="strokeoutline1" in="outsideColor" operator="in"/><feComposite result="strokeoutline2" in="strokeoutline1" in2="SourceAlpha" operator="out"/><feGaussianBlur in="strokeoutline2" result="strokeblur" stdDeviation="1"/>
</filter>
<style>
.spawningMap-very-common { fill: #0F0;}
.spawningMap-common { fill: #B2FF00;}
.spawningMap-uncommon { fill: #FF0;}
.spawningMap-very-uncommon { fill: #FC0;}
.spawningMap-rare { fill: #F60;}
.spawningMap-very-rare { fill: #F00; }.spawning-map-point {stroke:black; stroke-width:1;}
</style>
</defs>
<g filter="url(#blur)" opacity="0.7">
<g class="spawningMap-common"><rect x="161" y="86" width="9" height="8" /><rect x="74" y="247" width="18" height="10" /><rect x="105" y="234" width="11" height="17" /><rect x="126" y="281" width="18" height="11" /><rect x="163" y="242" width="19" height="11" /><rect x="175" y="271" width="11" height="11" /><rect x="178" y="87" width="8" height="8" />
</g>
<g class="spawningMap-very-common"><rect x="186" y="123" width="9" height="8" /><rect x="155" y="155" width="8" height="7" /><rect x="87" y="115" width="8" height="8" /><rect x="189" y="149" width="9" height="8" /><rect x="101" y="86" width="9" height="8" /><rect x="63" y="94" width="9" height="8" /><rect x="48" y="120" width="9" height="8" /><rect x="200" y="117" width="9" height="8" /><rect x="190" y="156" width="8" height="7" /><rect x="177" y="155" width="9" height="7" /><rect x="177" y="167" width="8" height="8" /><rect x="77" y="150" width="9" height="8" /><rect x="124" y="128" width="8" height="8" /><rect x="126" y="114" width="9" height="8" /><rect x="138" y="254" width="10" height="9" /><rect x="196" y="265" width="8" height="8" />
</g>
</g>
<g class="spawning-map-point" opacity="0.8">
</g>
</svg>