<?xml version="1.0" encoding="utf-8"?>
<svg xmlns="http://www.w3.org/2000/svg" width="300" height="300" viewBox="0 0 300 300" class="creatureMap" style="position:absolute;">
<defs>
    <filter id="blur" x="-30%" y="-30%" width="160%" height="160%">
        <feGaussianBlur stdDeviation="3" />
    </filter>
    <style>
        .spawningMap-very-common { fill: #0F0; }
        .spawningMap-common { fill: #B2FF00; }
        .spawningMap-uncommon { fill: #FF0; }
        .spawningMap-very-uncommon { fill: #FC0; }
        .spawningMap-rare { fill: #F60; }
        .spawningMap-very-rare { fill: #F00; }
        .spawning-map-point { stroke:black; stroke-width:1; }
    </style>
</defs>
<g filter="url(#blur)" opacity="0.7">
    <g class="spawningMap-uncommon">
        <rect x="137" y="105" width="11" height="11" />
        <rect x="168" y="105" width="12" height="11" />
        <rect x="120" y="100" width="11" height="11" />
        <rect x="90" y="81" width="13" height="13" />
        <rect x="109" y="88" width="11" height="11" />
        <rect x="158" y="88" width="12" height="11" />
        <rect x="126" y="111" width="11" height="11" />
        <rect x="141" y="88" width="11" height="11" />
        <rect x="126" y="105" width="11" height="11" />
        <rect x="132" y="105" width="11" height="11" />
        <rect x="132" y="100" width="11" height="11" />
        <rect x="137" y="100" width="12" height="11" />
        <rect x="143" y="100" width="12" height="11" />
        <rect x="143" y="94" width="12" height="11" />
        <rect x="138" y="94" width="11" height="11" />
        <rect x="132" y="94" width="11" height="11" />
        <rect x="154" y="94" width="11" height="11" />
        <rect x="148" y="94" width="11" height="11" />
        <rect x="120" y="88" width="11" height="11" />
        <rect x="159" y="94" width="12" height="11" />
        <rect x="165" y="94" width="12" height="11" />
        <rect x="171" y="94" width="11" height="11" />
        <rect x="163" y="100" width="11" height="11" />
        <rect x="160" y="103" width="11" height="11" />
        <rect x="114" y="88" width="12" height="11" />
        <rect x="114" y="94" width="12" height="11" />
        <rect x="109" y="94" width="11" height="11" />
        <rect x="114" y="100" width="12" height="11" />
        <rect x="114" y="105" width="12" height="11" />
        <rect x="109" y="100" width="11" height="11" />
        <rect x="168" y="100" width="12" height="11" />
        <rect x="94" y="87" width="11" height="11" />
        <rect x="109" y="105" width="11" height="11" />
        <rect x="126" y="94" width="11" height="11" />
        <rect x="126" y="88" width="11" height="11" />
    </g>
    <g class="spawningMap-very-uncommon">
        <rect x="153" y="104" width="10" height="9" />
        <rect x="120" y="94" width="11" height="11" />
        <rect x="99" y="88" width="12" height="12" />
    </g>
    <g class="spawningMap-very-common">
        <rect x="186" y="115" width="11" height="11" />
        <rect x="192" y="115" width="11" height="11" />
        <rect x="198" y="115" width="11" height="11" />
        <rect x="195" y="109" width="12" height="11" />
    </g></g>
</svg>