<svg xmlns="http://www.w3.org/2000/svg" width="300" height="300" viewBox="0 0 300 300" class="creatureMap" style="position:absolute;">
<defs>
<filter id="blur" x="-30%" y="-30%" width="160%" height="160%"><feGaussianBlur stdDeviation="3" />
</filter>
<pattern id="pattern-untameable" width="10" height="10" patternTransform="rotate(135)" patternUnits="userSpaceOnUse"><rect width="4" height="10" fill="black"></rect>
</pattern>
<filter id="groupStroke"><feFlood result="outsideColor" flood-color="black"/><feMorphology in="SourceAlpha" operator="dilate" radius="2"/><feComposite result="strokeoutline1" in="outsideColor" operator="in"/><feComposite result="strokeoutline2" in="strokeoutline1" in2="SourceAlpha" operator="out"/><feGaussianBlur in="strokeoutline2" result="strokeblur" stdDeviation="1"/>
</filter>
<style>
.spawningMap-very-common { fill: #0F0;}
.spawningMap-common { fill: #B2FF00;}
.spawningMap-uncommon { fill: #FF0;}
.spawningMap-very-uncommon { fill: #FC0;}
.spawningMap-rare { fill: #F60;}
.spawningMap-very-rare { fill: #F00; }.spawning-map-point {stroke:black; stroke-width:1;}
</style>
</defs>
<g filter="url(#blur)" opacity="0.7">
<g class="spawningMap-common"><rect x="246" y="294" width="8" height="6" /><rect x="254" y="303" width="10" height="-3" /><rect x="276" y="278" width="8" height="7" /><rect x="278" y="292" width="5" height="8" /><rect x="287" y="304" width="12" height="-4" /><rect x="287" y="311" width="12" height="-11" />
</g>
<g class="spawningMap-very-common"><rect x="245" y="304" width="5" height="-4" /><rect x="219" y="282" width="2" height="2" /><rect x="282" y="283" width="2" height="5" /><rect x="282" y="289" width="2" height="3" /><rect x="248" y="308" width="2" height="-8" /><rect x="250" y="307" width="4" height="-7" /><rect x="217" y="284" width="2" height="2" /><rect x="217" y="286" width="2" height="2" /><rect x="220" y="288" width="2" height="3" /><rect x="221" y="291" width="3" height="3" /><rect x="223" y="294" width="2" height="4" /><rect x="226" y="297" width="5" height="1" /><rect x="230" y="298" width="10" height="2" /><rect x="238" y="292" width="4" height="6" /><rect x="242" y="291" width="8" height="3" /><rect x="254" y="294" width="3" height="6" /><rect x="264" y="298" width="12" height="2" /><rect x="266" y="289" width="5" height="4" /><rect x="271" y="279" width="5" height="6" /><rect x="269" y="285" width="7" height="4" /><rect x="276" y="287" width="6" height="5" /><rect x="283" y="297" width="9" height="3" /><rect x="251" y="309" width="3" height="-9" />
</g>
</g>
<g class="spawning-map-point" opacity="0.8">
</g>
<g fill="url(#pattern-untameable)" opacity="0.3"><rect x="254" y="303" width="10" height="-3"/><rect x="276" y="278" width="8" height="7"/><rect x="278" y="292" width="5" height="8"/><rect x="287" y="304" width="12" height="-4"/><rect x="287" y="311" width="12" height="-11"/><rect x="245" y="304" width="5" height="-4"/><rect x="219" y="282" width="2" height="2"/><rect x="282" y="283" width="2" height="5"/><rect x="282" y="289" width="2" height="3"/><rect x="248" y="308" width="2" height="-8"/><rect x="250" y="307" width="4" height="-7"/><rect x="217" y="284" width="2" height="2"/><rect x="217" y="286" width="2" height="2"/><rect x="220" y="288" width="2" height="3"/><rect x="221" y="291" width="3" height="3"/><rect x="223" y="294" width="2" height="4"/><rect x="226" y="297" width="5" height="1"/><rect x="230" y="298" width="10" height="2"/><rect x="238" y="292" width="4" height="6"/><rect x="242" y="291" width="8" height="3"/><rect x="254" y="294" width="3" height="6"/><rect x="264" y="298" width="12" height="2"/><rect x="266" y="289" width="5" height="4"/><rect x="271" y="279" width="5" height="6"/><rect x="269" y="285" width="7" height="4"/><rect x="276" y="287" width="6" height="5"/><rect x="283" y="297" width="9" height="3"/><rect x="251" y="309" width="3" height="-9"/>
</g>
<g filter="url(#groupStroke)" opacity="0.8"><rect x="246" y="294" width="8" height="6"/><rect x="254" y="303" width="10" height="-3"/><rect x="276" y="278" width="8" height="7"/><rect x="278" y="292" width="5" height="8"/><rect x="287" y="304" width="12" height="-4"/><rect x="287" y="311" width="12" height="-11"/><rect x="245" y="304" width="5" height="-4"/><rect x="219" y="282" width="2" height="2"/><rect x="282" y="283" width="2" height="5"/><rect x="282" y="289" width="2" height="3"/><rect x="248" y="308" width="2" height="-8"/><rect x="250" y="307" width="4" height="-7"/><rect x="217" y="284" width="2" height="2"/><rect x="217" y="286" width="2" height="2"/><rect x="220" y="288" width="2" height="3"/><rect x="221" y="291" width="3" height="3"/><rect x="223" y="294" width="2" height="4"/><rect x="226" y="297" width="5" height="1"/><rect x="230" y="298" width="10" height="2"/><rect x="238" y="292" width="4" height="6"/><rect x="242" y="291" width="8" height="3"/><rect x="254" y="294" width="3" height="6"/><rect x="264" y="298" width="12" height="2"/><rect x="266" y="289" width="5" height="4"/><rect x="271" y="279" width="5" height="6"/><rect x="269" y="285" width="7" height="4"/><rect x="276" y="287" width="6" height="5"/><rect x="283" y="297" width="9" height="3"/><rect x="251" y="309" width="3" height="-9"/>
</g>
</svg>