<svg xmlns="http://www.w3.org/2000/svg" width="300" height="300" viewBox="0 0 300 300" class="creatureMap" style="position:absolute;">
<defs>
<filter id="blur" x="-30%" y="-30%" width="160%" height="160%"><feGaussianBlur stdDeviation="3" />
</filter>
<pattern id="pattern-untameable" width="10" height="10" patternTransform="rotate(135)" patternUnits="userSpaceOnUse"><rect width="4" height="10" fill="black"></rect>
</pattern>
<filter id="groupStroke"><feFlood result="outsideColor" flood-color="black"/><feMorphology in="SourceAlpha" operator="dilate" radius="2"/><feComposite result="strokeoutline1" in="outsideColor" operator="in"/><feComposite result="strokeoutline2" in="strokeoutline1" in2="SourceAlpha" operator="out"/><feGaussianBlur in="strokeoutline2" result="strokeblur" stdDeviation="1"/>
</filter>
<style>
.spawningMap-very-common { fill: #0F0;}
.spawningMap-common { fill: #B2FF00;}
.spawningMap-uncommon { fill: #FF0;}
.spawningMap-very-uncommon { fill: #FC0;}
.spawningMap-rare { fill: #F60;}
.spawningMap-very-rare { fill: #F00; }.spawning-map-point {stroke:black; stroke-width:1;}
</style>
</defs>
<g filter="url(#blur)" opacity="0.7">
<g class="spawningMap-common"><rect x="268" y="13" width="13" height="9" /><rect x="252" y="15" width="9" height="8" /><rect x="39" y="36" width="19" height="20" /><rect x="12" y="67" width="76" height="27" /><rect x="12" y="9" width="76" height="27" /><rect x="12" y="40" width="76" height="26" /><rect x="39" y="36" width="19" height="20" />
</g>
<g class="spawningMap-very-common"><rect x="266" y="21" width="8" height="9" /><rect x="292" y="31" width="6" height="13" /><rect x="292" y="27" width="6" height="4" /><rect x="286" y="23" width="6" height="5" /><rect x="281" y="18" width="8" height="5" /><rect x="261" y="13" width="7" height="3" /><rect x="257" y="21" width="9" height="9" /><rect x="121" y="162" width="13" height="10" /><rect x="121" y="151" width="10" height="10" /><rect x="121" y="141" width="10" height="9" /><rect x="153" y="132" width="6" height="8" /><rect x="175" y="158" width="10" height="8" /><rect x="179" y="145" width="6" height="7" /><rect x="73" y="146" width="14" height="13" /><rect x="13" y="9" width="74" height="27" /><rect x="13" y="40" width="74" height="26" /><rect x="13" y="67" width="74" height="27" />
</g>
</g>
<g class="spawning-map-point" opacity="0.8">
</g>
<g fill="url(#pattern-untameable)" opacity="0.3"><rect x="268" y="13" width="13" height="9"/><rect x="252" y="15" width="9" height="8"/><rect x="266" y="21" width="8" height="9"/><rect x="292" y="31" width="6" height="13"/><rect x="292" y="27" width="6" height="4"/><rect x="286" y="23" width="6" height="5"/><rect x="281" y="18" width="8" height="5"/><rect x="261" y="13" width="7" height="3"/><rect x="257" y="21" width="9" height="9"/>
</g>
</svg>