<?xml version="1.0" encoding="utf-8"?>
<svg xmlns="http://www.w3.org/2000/svg" width="300" height="300" viewBox="0 0 300 300" class="creatureMap" style="position:absolute;">
<defs>
    <filter id="blur" x="-30%" y="-30%" width="160%" height="160%">
        <feGaussianBlur stdDeviation="3" />
    </filter>
    <style>
        .spawningMap-very-common { fill: #0F0; }
        .spawningMap-common { fill: #B2FF00; }
        .spawningMap-uncommon { fill: #FF0; }
        .spawningMap-very-uncommon { fill: #FC0; }
        .spawningMap-rare { fill: #F60; }
        .spawningMap-very-rare { fill: #F00; }
        .spawning-map-point { stroke:black; stroke-width:1; }
    </style>
</defs>
<g filter="url(#blur)" opacity="0.7">
    <g class="spawningMap-common">
        <rect x="177" y="152" width="13" height="12" />
        <rect x="185" y="152" width="12" height="12" />
        <rect x="249" y="152" width="12" height="12" />
        <rect x="263" y="180" width="13" height="12" />
        <rect x="263" y="173" width="13" height="12" />
        <rect x="270" y="173" width="13" height="12" />
        <rect x="185" y="166" width="12" height="12" />
        <rect x="192" y="166" width="12" height="12" />
        <rect x="199" y="166" width="12" height="12" />
        <rect x="206" y="166" width="13" height="12" />
        <rect x="227" y="166" width="13" height="12" />
        <rect x="235" y="166" width="12" height="12" />
        <rect x="242" y="166" width="12" height="12" />
        <rect x="263" y="166" width="13" height="12" />
        <rect x="270" y="166" width="13" height="12" />
        <rect x="185" y="159" width="12" height="12" />
    </g>
    <g class="spawningMap-very-common">
        <rect x="299" y="152" width="1" height="12" />
        <rect x="299" y="159" width="1" height="12" />
    </g></g>
</svg>