<svg xmlns="http://www.w3.org/2000/svg" width="300" height="300" viewBox="0 0 300 300" class="creatureMap" style="position:absolute;">
<defs>
<filter id="blur" x="-30%" y="-30%" width="160%" height="160%"><feGaussianBlur stdDeviation="3" />
</filter>
<pattern id="pattern-untameable" width="10" height="10" patternTransform="rotate(135)" patternUnits="userSpaceOnUse"><rect width="4" height="10" fill="black"></rect>
</pattern>
<filter id="groupStroke"><feFlood result="outsideColor" flood-color="black"/><feMorphology in="SourceAlpha" operator="dilate" radius="2"/><feComposite result="strokeoutline1" in="outsideColor" operator="in"/><feComposite result="strokeoutline2" in="strokeoutline1" in2="SourceAlpha" operator="out"/><feGaussianBlur in="strokeoutline2" result="strokeblur" stdDeviation="1"/>
</filter>
<style>
.spawningMap-very-common { fill: #0F0;}
.spawningMap-common { fill: #B2FF00;}
.spawningMap-uncommon { fill: #FF0;}
.spawningMap-very-uncommon { fill: #FC0;}
.spawningMap-rare { fill: #F60;}
.spawningMap-very-rare { fill: #F00; }.spawning-map-point {stroke:black; stroke-width:1;}
</style>
</defs>
<g filter="url(#blur)" opacity="0.7">
<g class="spawningMap-rare"><rect x="93" y="276" width="8" height="7" /><rect x="95" y="268" width="9" height="8" />
</g>
<g class="spawningMap-very-uncommon"><rect x="109" y="174" width="9" height="7" /><rect x="188" y="230" width="8" height="8" /><rect x="77" y="230" width="9" height="8" /><rect x="49" y="256" width="9" height="8" /><rect x="49" y="247" width="9" height="8" /><rect x="179" y="273" width="8" height="8" /><rect x="169" y="273" width="9" height="8" /><rect x="105" y="273" width="8" height="8" /><rect x="160" y="282" width="9" height="7" /><rect x="151" y="282" width="8" height="7" /><rect x="142" y="282" width="8" height="7" /><rect x="132" y="282" width="9" height="8" /><rect x="123" y="282" width="9" height="8" /><rect x="114" y="282" width="8" height="8" /><rect x="59" y="221" width="8" height="8" /><rect x="49" y="221" width="9" height="8" /><rect x="244" y="266" width="8" height="8" /><rect x="234" y="256" width="9" height="8" /><rect x="234" y="247" width="9" height="8" /><rect x="234" y="273" width="9" height="8" /><rect x="225" y="256" width="8" height="8" /><rect x="225" y="247" width="8" height="8" /><rect x="225" y="273" width="8" height="8" /><rect x="234" y="264" width="9" height="8" /><rect x="225" y="264" width="8" height="8" /><rect x="216" y="256" width="8" height="8" /><rect x="216" y="247" width="8" height="8" /><rect x="216" y="239" width="8" height="7" /><rect x="216" y="264" width="8" height="8" /><rect x="216" y="230" width="8" height="8" /><rect x="206" y="256" width="9" height="8" /><rect x="206" y="247" width="9" height="8" /><rect x="206" y="239" width="9" height="7" /><rect x="206" y="264" width="9" height="8" /><rect x="206" y="230" width="9" height="8" /><rect x="197" y="256" width="9" height="8" /><rect x="197" y="247" width="9" height="8" /><rect x="197" y="239" width="9" height="7" /><rect x="197" y="264" width="9" height="8" /><rect x="197" y="230" width="9" height="8" /><rect x="188" y="256" width="8" height="8" /><rect x="188" y="247" width="8" height="8" /><rect x="188" y="239" width="8" height="7" /><rect x="188" y="264" width="8" height="8" /><rect x="179" y="256" width="8" height="8" /><rect x="179" y="247" width="8" height="8" /><rect x="179" y="239" width="8" height="7" /><rect x="169" y="256" width="9" height="8" /><rect x="169" y="247" width="9" height="8" /><rect x="169" y="239" width="9" height="7" /><rect x="160" y="256" width="9" height="8" /><rect x="160" y="247" width="9" height="8" /><rect x="160" y="239" width="9" height="7" /><rect x="151" y="256" width="8" height="8" /><rect x="151" y="247" width="8" height="8" /><rect x="151" y="239" width="8" height="7" /><rect x="151" y="230" width="8" height="8" /><rect x="142" y="256" width="8" height="8" /><rect x="142" y="247" width="8" height="8" /><rect x="142" y="239" width="8" height="7" /><rect x="142" y="230" width="8" height="8" /><rect x="132" y="256" width="9" height="8" /><rect x="132" y="247" width="9" height="8" /><rect x="132" y="239" width="9" height="7" /><rect x="132" y="230" width="9" height="8" /><rect x="123" y="256" width="9" height="8" /><rect x="123" y="247" width="9" height="8" /><rect x="123" y="239" width="9" height="7" /><rect x="123" y="230" width="9" height="8" /><rect x="114" y="256" width="8" height="8" /><rect x="114" y="247" width="8" height="8" /><rect x="114" y="239" width="8" height="7" /><rect x="114" y="230" width="8" height="8" /><rect x="105" y="256" width="8" height="8" /><rect x="105" y="247" width="8" height="8" /><rect x="105" y="239" width="8" height="7" /><rect x="105" y="230" width="8" height="8" /><rect x="95" y="256" width="9" height="8" /><rect x="95" y="239" width="9" height="7" /><rect x="95" y="266" width="9" height="8" /><rect x="95" y="230" width="9" height="8" /><rect x="86" y="256" width="9" height="8" /><rect x="86" y="247" width="9" height="8" /><rect x="86" y="239" width="9" height="7" /><rect x="86" y="230" width="9" height="8" /><rect x="77" y="256" width="9" height="8" /><rect x="77" y="247" width="9" height="8" /><rect x="77" y="239" width="9" height="7" /><rect x="68" y="256" width="8" height="8" /><rect x="68" y="247" width="8" height="8" /><rect x="68" y="239" width="8" height="7" /><rect x="68" y="265" width="8" height="7" /><rect x="59" y="256" width="8" height="8" /><rect x="59" y="247" width="8" height="8" /><rect x="59" y="265" width="8" height="7" /><rect x="179" y="264" width="8" height="8" /><rect x="169" y="264" width="9" height="8" /><rect x="160" y="264" width="9" height="8" /><rect x="151" y="264" width="8" height="8" /><rect x="142" y="264" width="8" height="8" /><rect x="132" y="264" width="9" height="8" /><rect x="123" y="264" width="9" height="8" /><rect x="114" y="264" width="8" height="8" /><rect x="105" y="264" width="8" height="8" /><rect x="160" y="273" width="9" height="8" /><rect x="151" y="273" width="8" height="8" /><rect x="142" y="273" width="8" height="8" /><rect x="132" y="273" width="9" height="8" /><rect x="123" y="273" width="9" height="8" /><rect x="114" y="273" width="8" height="8" /><rect x="59" y="239" width="8" height="7" /><rect x="49" y="239" width="9" height="7" /><rect x="59" y="230" width="8" height="8" /><rect x="49" y="230" width="9" height="8" /><rect x="216" y="273" width="8" height="8" /><rect x="95" y="247" width="9" height="8" />
</g>
<g class="spawningMap-uncommon"><rect x="100" y="148" width="8" height="7" /><rect x="100" y="156" width="8" height="8" /><rect x="100" y="165" width="8" height="8" /><rect x="100" y="174" width="8" height="7" /><rect x="118" y="130" width="9" height="8" /><rect x="128" y="130" width="8" height="8" /><rect x="128" y="122" width="8" height="7" /><rect x="128" y="113" width="8" height="8" /><rect x="128" y="104" width="8" height="8" /><rect x="53" y="130" width="9" height="8" /><rect x="53" y="113" width="9" height="8" /><rect x="53" y="104" width="9" height="8" /><rect x="53" y="96" width="9" height="7" /><rect x="44" y="122" width="8" height="7" /><rect x="90" y="87" width="9" height="8" /><rect x="90" y="150" width="9" height="5" /><rect x="90" y="156" width="9" height="8" /><rect x="81" y="87" width="8" height="8" /><rect x="44" y="113" width="8" height="8" /><rect x="72" y="87" width="8" height="8" /><rect x="100" y="87" width="8" height="8" /><rect x="72" y="148" width="8" height="7" /><rect x="44" y="104" width="8" height="8" /><rect x="62" y="139" width="9" height="8" /><rect x="62" y="96" width="9" height="7" />
</g>
<g class="spawningMap-common"><rect x="120" y="122" width="7" height="7" /><rect x="122" y="113" width="5" height="8" /><rect x="107" y="139" width="11" height="8" /><rect x="53" y="122" width="6" height="7" /><rect x="109" y="87" width="9" height="8" /><rect x="81" y="150" width="8" height="5" /><rect x="72" y="96" width="8" height="5" />
</g>
<g class="spawningMap-very-common"><rect x="118" y="139" width="9" height="8" /><rect x="118" y="104" width="9" height="8" /><rect x="118" y="96" width="9" height="7" /><rect x="118" y="87" width="9" height="8" /><rect x="109" y="96" width="9" height="7" /><rect x="109" y="148" width="9" height="7" /><rect x="109" y="156" width="9" height="8" /><rect x="109" y="165" width="9" height="8" />
</g>
</g>
<g class="spawning-map-point" opacity="0.8">
</g>
</svg>