<svg xmlns="http://www.w3.org/2000/svg" width="300" height="300" viewBox="0 0 300 300" class="creatureMap" style="position:absolute;">
<defs>
<filter id="blur" x="-30%" y="-30%" width="160%" height="160%"><feGaussianBlur stdDeviation="3" />
</filter>
<pattern id="pattern-untameable" width="10" height="10" patternTransform="rotate(135)" patternUnits="userSpaceOnUse"><rect width="4" height="10" fill="black"></rect>
</pattern>
<filter id="groupStroke"><feFlood result="outsideColor" flood-color="black"/><feMorphology in="SourceAlpha" operator="dilate" radius="2"/><feComposite result="strokeoutline1" in="outsideColor" operator="in"/><feComposite result="strokeoutline2" in="strokeoutline1" in2="SourceAlpha" operator="out"/><feGaussianBlur in="strokeoutline2" result="strokeblur" stdDeviation="1"/>
</filter>
<style>
.spawningMap-very-common { fill: #0F0;}
.spawningMap-common { fill: #B2FF00;}
.spawningMap-uncommon { fill: #FF0;}
.spawningMap-very-uncommon { fill: #FC0;}
.spawningMap-rare { fill: #F60;}
.spawningMap-very-rare { fill: #F00; }.spawning-map-point {stroke:black; stroke-width:1;}
</style>
</defs>
<g filter="url(#blur)" opacity="0.7">
<g class="spawningMap-rare"><rect x="145" y="65" width="10" height="11" /><rect x="145" y="76" width="10" height="11" /><rect x="156" y="76" width="11" height="11" /><rect x="145" y="88" width="10" height="10" /><rect x="134" y="99" width="10" height="11" /><rect x="145" y="99" width="10" height="11" /><rect x="134" y="111" width="10" height="10" /><rect x="156" y="111" width="11" height="10" />
</g>
<g class="spawningMap-very-uncommon"><rect x="213" y="76" width="11" height="11" /><rect x="202" y="88" width="10" height="10" /><rect x="213" y="88" width="11" height="10" /><rect x="225" y="88" width="10" height="10" /><rect x="202" y="99" width="10" height="11" /><rect x="213" y="99" width="11" height="11" /><rect x="225" y="99" width="10" height="11" /><rect x="202" y="111" width="10" height="10" /><rect x="213" y="111" width="11" height="10" /><rect x="225" y="111" width="10" height="10" /><rect x="236" y="88" width="10" height="10" /><rect x="236" y="99" width="10" height="11" /><rect x="236" y="111" width="10" height="10" /><rect x="190" y="122" width="11" height="10" /><rect x="225" y="122" width="10" height="10" /><rect x="179" y="134" width="11" height="10" /><rect x="190" y="134" width="11" height="10" /><rect x="202" y="134" width="10" height="10" /><rect x="179" y="145" width="11" height="10" /><rect x="190" y="145" width="11" height="10" /><rect x="202" y="145" width="10" height="10" /><rect x="236" y="122" width="10" height="10" /><rect x="247" y="145" width="11" height="10" /><rect x="259" y="145" width="10" height="10" /><rect x="270" y="145" width="11" height="10" /><rect x="236" y="156" width="10" height="11" /><rect x="247" y="156" width="11" height="11" /><rect x="259" y="156" width="10" height="11" /><rect x="270" y="156" width="11" height="11" /><rect x="259" y="168" width="10" height="10" /><rect x="202" y="202" width="10" height="10" /><rect x="247" y="179" width="11" height="11" /><rect x="259" y="179" width="10" height="11" />
</g>
<g class="spawningMap-uncommon"><rect x="190" y="20" width="11" height="10" /><rect x="179" y="20" width="11" height="10" /><rect x="225" y="8" width="10" height="11" /><rect x="213" y="8" width="11" height="11" /><rect x="202" y="8" width="10" height="11" /><rect x="190" y="8" width="11" height="11" /><rect x="179" y="8" width="11" height="11" /><rect x="236" y="8" width="10" height="11" /><rect x="247" y="8" width="11" height="11" /><rect x="259" y="8" width="10" height="11" /><rect x="270" y="8" width="11" height="11" /><rect x="281" y="8" width="11" height="11" /><rect x="236" y="20" width="10" height="10" /><rect x="247" y="20" width="11" height="10" /><rect x="259" y="20" width="10" height="10" /><rect x="270" y="20" width="11" height="10" /><rect x="281" y="20" width="11" height="10" /><rect x="236" y="31" width="10" height="10" /><rect x="247" y="31" width="11" height="10" /><rect x="259" y="31" width="10" height="10" /><rect x="270" y="31" width="11" height="10" /><rect x="281" y="31" width="11" height="10" /><rect x="236" y="42" width="10" height="11" /><rect x="247" y="42" width="11" height="11" /><rect x="259" y="42" width="10" height="11" /><rect x="270" y="42" width="11" height="11" /><rect x="281" y="42" width="11" height="11" /><rect x="236" y="54" width="10" height="10" /><rect x="247" y="54" width="11" height="10" /><rect x="259" y="54" width="10" height="10" /><rect x="270" y="54" width="11" height="10" /><rect x="281" y="54" width="11" height="10" /><rect x="20" y="111" width="10" height="10" /><rect x="8" y="111" width="11" height="10" /><rect x="20" y="99" width="10" height="11" /><rect x="8" y="99" width="11" height="11" /><rect x="20" y="88" width="10" height="10" /><rect x="8" y="88" width="11" height="10" /><rect x="20" y="76" width="10" height="11" /><rect x="8" y="76" width="11" height="11" /><rect x="20" y="65" width="10" height="11" /><rect x="8" y="65" width="11" height="11" /><rect x="190" y="65" width="11" height="11" /><rect x="202" y="65" width="10" height="11" /><rect x="213" y="65" width="11" height="11" /><rect x="225" y="65" width="10" height="11" /><rect x="190" y="76" width="11" height="11" /><rect x="202" y="76" width="10" height="11" /><rect x="225" y="76" width="10" height="11" /><rect x="236" y="65" width="10" height="11" /><rect x="247" y="65" width="11" height="11" /><rect x="259" y="65" width="10" height="11" /><rect x="270" y="65" width="11" height="11" /><rect x="281" y="65" width="11" height="11" /><rect x="236" y="76" width="10" height="11" /><rect x="247" y="76" width="11" height="11" /><rect x="259" y="76" width="10" height="11" /><rect x="270" y="76" width="11" height="11" /><rect x="281" y="76" width="11" height="11" /><rect x="247" y="88" width="11" height="10" /><rect x="259" y="88" width="10" height="10" /><rect x="270" y="88" width="11" height="10" /><rect x="281" y="88" width="11" height="10" /><rect x="247" y="99" width="11" height="11" /><rect x="259" y="99" width="10" height="11" /><rect x="270" y="99" width="11" height="11" /><rect x="281" y="99" width="11" height="11" /><rect x="247" y="111" width="11" height="10" /><rect x="259" y="111" width="10" height="10" /><rect x="270" y="111" width="11" height="10" /><rect x="281" y="111" width="11" height="10" /><rect x="8" y="122" width="11" height="10" /><rect x="20" y="122" width="10" height="10" /><rect x="31" y="122" width="10" height="10" /><rect x="8" y="134" width="11" height="10" /><rect x="20" y="134" width="10" height="10" /><rect x="31" y="134" width="10" height="10" /><rect x="8" y="145" width="11" height="10" /><rect x="20" y="145" width="10" height="10" /><rect x="31" y="145" width="10" height="10" /><rect x="8" y="156" width="11" height="11" /><rect x="20" y="156" width="10" height="11" /><rect x="8" y="168" width="11" height="10" /><rect x="20" y="168" width="10" height="10" /><rect x="31" y="168" width="10" height="10" /><rect x="122" y="122" width="10" height="10" /><rect x="134" y="122" width="10" height="10" /><rect x="156" y="122" width="11" height="10" /><rect x="134" y="134" width="10" height="10" /><rect x="145" y="134" width="10" height="10" /><rect x="156" y="134" width="11" height="10" /><rect x="145" y="145" width="10" height="10" /><rect x="156" y="145" width="11" height="10" /><rect x="145" y="156" width="10" height="11" /><rect x="168" y="156" width="10" height="11" /><rect x="156" y="168" width="11" height="10" /><rect x="247" y="122" width="11" height="10" /><rect x="259" y="122" width="10" height="10" /><rect x="270" y="122" width="11" height="10" /><rect x="281" y="122" width="11" height="10" /><rect x="236" y="134" width="10" height="10" /><rect x="247" y="134" width="11" height="10" /><rect x="259" y="134" width="10" height="10" /><rect x="270" y="134" width="11" height="10" /><rect x="281" y="134" width="11" height="10" /><rect x="281" y="145" width="11" height="10" /><rect x="281" y="156" width="11" height="11" /><rect x="270" y="168" width="11" height="10" /><rect x="281" y="168" width="11" height="10" /><rect x="8" y="179" width="11" height="11" /><rect x="20" y="179" width="10" height="11" /><rect x="31" y="179" width="10" height="11" /><rect x="8" y="190" width="11" height="11" /><rect x="20" y="190" width="10" height="11" /><rect x="31" y="190" width="10" height="11" /><rect x="8" y="202" width="11" height="10" /><rect x="20" y="202" width="10" height="10" /><rect x="31" y="202" width="10" height="10" /><rect x="8" y="213" width="11" height="11" /><rect x="20" y="213" width="10" height="11" /><rect x="31" y="213" width="10" height="11" /><rect x="8" y="225" width="11" height="10" /><rect x="20" y="225" width="10" height="10" /><rect x="31" y="225" width="10" height="10" /><rect x="42" y="225" width="11" height="10" /><rect x="54" y="225" width="10" height="10" /><rect x="213" y="202" width="11" height="10" /><rect x="179" y="213" width="11" height="11" /><rect x="213" y="213" width="11" height="11" /><rect x="270" y="179" width="11" height="11" /><rect x="281" y="179" width="11" height="11" /><rect x="270" y="190" width="11" height="11" /><rect x="281" y="190" width="11" height="11" /><rect x="270" y="202" width="11" height="10" /><rect x="281" y="202" width="11" height="10" /><rect x="236" y="213" width="10" height="11" /><rect x="259" y="213" width="10" height="11" /><rect x="270" y="213" width="11" height="11" /><rect x="281" y="213" width="11" height="11" /><rect x="236" y="225" width="10" height="10" /><rect x="247" y="225" width="11" height="10" /><rect x="259" y="225" width="10" height="10" /><rect x="270" y="225" width="11" height="10" /><rect x="281" y="225" width="11" height="10" /><rect x="54" y="236" width="10" height="10" /><rect x="20" y="259" width="10" height="10" /><rect x="31" y="259" width="10" height="10" /><rect x="42" y="259" width="11" height="10" /><rect x="54" y="259" width="10" height="10" /><rect x="8" y="270" width="11" height="11" /><rect x="20" y="270" width="10" height="11" /><rect x="31" y="270" width="10" height="11" /><rect x="42" y="270" width="11" height="11" /><rect x="54" y="270" width="10" height="11" /><rect x="8" y="281" width="11" height="11" /><rect x="20" y="281" width="10" height="11" /><rect x="31" y="281" width="10" height="11" /><rect x="42" y="281" width="11" height="11" /><rect x="54" y="281" width="10" height="11" /><rect x="65" y="236" width="11" height="10" /><rect x="65" y="247" width="11" height="11" /><rect x="76" y="247" width="11" height="11" /><rect x="88" y="247" width="10" height="11" /><rect x="65" y="259" width="11" height="10" /><rect x="76" y="259" width="11" height="10" /><rect x="88" y="259" width="10" height="10" /><rect x="99" y="259" width="11" height="10" /><rect x="111" y="259" width="10" height="10" /><rect x="65" y="270" width="11" height="11" /><rect x="76" y="270" width="11" height="11" /><rect x="88" y="270" width="10" height="11" /><rect x="99" y="270" width="11" height="11" /><rect x="111" y="270" width="10" height="11" /><rect x="65" y="281" width="11" height="11" /><rect x="76" y="281" width="11" height="11" /><rect x="88" y="281" width="10" height="11" /><rect x="99" y="281" width="11" height="11" /><rect x="111" y="281" width="10" height="11" /><rect x="134" y="259" width="10" height="10" /><rect x="145" y="259" width="10" height="10" /><rect x="156" y="259" width="11" height="10" /><rect x="168" y="259" width="10" height="10" /><rect x="122" y="270" width="10" height="11" /><rect x="134" y="270" width="10" height="11" /><rect x="156" y="270" width="11" height="11" /><rect x="168" y="270" width="10" height="11" /><rect x="122" y="281" width="10" height="11" /><rect x="134" y="281" width="10" height="11" /><rect x="145" y="281" width="10" height="11" /><rect x="156" y="281" width="11" height="11" /><rect x="168" y="281" width="10" height="11" /><rect x="225" y="247" width="10" height="11" /><rect x="213" y="259" width="11" height="10" /><rect x="225" y="259" width="10" height="10" /><rect x="179" y="270" width="11" height="11" /><rect x="190" y="270" width="11" height="11" /><rect x="202" y="270" width="10" height="11" /><rect x="213" y="270" width="11" height="11" /><rect x="225" y="270" width="10" height="11" /><rect x="179" y="281" width="11" height="11" /><rect x="190" y="281" width="11" height="11" /><rect x="202" y="281" width="10" height="11" /><rect x="213" y="281" width="11" height="11" /><rect x="225" y="281" width="10" height="11" /><rect x="236" y="236" width="10" height="10" /><rect x="247" y="236" width="11" height="10" /><rect x="259" y="236" width="10" height="10" /><rect x="270" y="236" width="11" height="10" /><rect x="281" y="236" width="11" height="10" /><rect x="236" y="247" width="10" height="11" /><rect x="247" y="247" width="11" height="11" /><rect x="259" y="247" width="10" height="11" /><rect x="270" y="247" width="11" height="11" /><rect x="281" y="247" width="11" height="11" /><rect x="236" y="259" width="10" height="10" /><rect x="247" y="259" width="11" height="10" /><rect x="259" y="259" width="10" height="10" /><rect x="270" y="259" width="11" height="10" /><rect x="281" y="259" width="11" height="10" /><rect x="236" y="270" width="10" height="11" /><rect x="247" y="270" width="11" height="11" /><rect x="259" y="270" width="10" height="11" /><rect x="270" y="270" width="11" height="11" /><rect x="281" y="270" width="11" height="11" /><rect x="236" y="281" width="10" height="11" /><rect x="247" y="281" width="11" height="11" /><rect x="259" y="281" width="10" height="11" /><rect x="270" y="281" width="11" height="11" /><rect x="281" y="281" width="11" height="11" /><rect x="20" y="8" width="10" height="11" /><rect x="31" y="20" width="10" height="10" /><rect x="42" y="20" width="11" height="10" /><rect x="8" y="31" width="11" height="10" /><rect x="20" y="31" width="10" height="10" /><rect x="31" y="31" width="10" height="10" /><rect x="8" y="42" width="11" height="11" /><rect x="20" y="42" width="10" height="11" /><rect x="31" y="42" width="10" height="11" /><rect x="111" y="20" width="10" height="10" /><rect x="111" y="8" width="10" height="11" /><rect x="99" y="8" width="11" height="11" /><rect x="145" y="31" width="10" height="10" /><rect x="88" y="8" width="10" height="11" /><rect x="76" y="8" width="11" height="11" /><rect x="65" y="8" width="11" height="11" /><rect x="168" y="20" width="10" height="10" /><rect x="8" y="236" width="11" height="10" /><rect x="156" y="20" width="11" height="10" /><rect x="20" y="236" width="10" height="10" /><rect x="31" y="236" width="10" height="10" /><rect x="42" y="236" width="11" height="10" /><rect x="8" y="247" width="11" height="11" /><rect x="20" y="247" width="10" height="11" /><rect x="31" y="247" width="10" height="11" /><rect x="42" y="247" width="11" height="11" /><rect x="54" y="247" width="10" height="11" /><rect x="8" y="259" width="11" height="10" /><rect x="145" y="20" width="10" height="10" /><rect x="134" y="20" width="10" height="10" /><rect x="122" y="20" width="10" height="10" /><rect x="168" y="8" width="10" height="11" /><rect x="156" y="8" width="11" height="11" /><rect x="145" y="8" width="10" height="11" /><rect x="134" y="8" width="10" height="11" /><rect x="122" y="8" width="10" height="11" /><rect x="225" y="54" width="10" height="10" /><rect x="213" y="54" width="11" height="10" /><rect x="202" y="54" width="10" height="10" /><rect x="190" y="54" width="11" height="10" /><rect x="225" y="42" width="10" height="11" /><rect x="213" y="42" width="11" height="11" /><rect x="202" y="42" width="10" height="11" /><rect x="190" y="42" width="11" height="11" /><rect x="225" y="31" width="10" height="10" /><rect x="213" y="31" width="11" height="10" /><rect x="202" y="31" width="10" height="10" /><rect x="190" y="31" width="11" height="10" /><rect x="179" y="31" width="11" height="10" /><rect x="225" y="20" width="10" height="10" /><rect x="213" y="20" width="11" height="10" /><rect x="202" y="20" width="10" height="10" /><rect x="213" y="247" width="11" height="11" /><rect x="8" y="8" width="11" height="11" /><rect x="8" y="54" width="11" height="10" /><rect x="20" y="54" width="10" height="10" /><rect x="31" y="54" width="10" height="10" /><rect x="31" y="8" width="10" height="11" /><rect x="42" y="8" width="11" height="11" /><rect x="54" y="8" width="10" height="11" /><rect x="20" y="20" width="10" height="10" /><rect x="145" y="42" width="10" height="11" /><rect x="145" y="54" width="10" height="10" />
</g>
<g class="spawningMap-common"><rect x="99" y="65" width="11" height="11" /><rect x="111" y="65" width="10" height="11" /><rect x="111" y="76" width="10" height="11" /><rect x="99" y="88" width="11" height="10" /><rect x="111" y="88" width="10" height="10" /><rect x="99" y="99" width="11" height="11" /><rect x="111" y="99" width="10" height="11" /><rect x="99" y="111" width="11" height="10" /><rect x="111" y="111" width="10" height="10" /><rect x="122" y="65" width="10" height="11" /><rect x="134" y="65" width="10" height="11" /><rect x="156" y="65" width="11" height="11" /><rect x="134" y="76" width="10" height="11" /><rect x="134" y="88" width="10" height="10" /><rect x="156" y="88" width="11" height="10" /><rect x="122" y="99" width="10" height="11" /><rect x="156" y="99" width="11" height="11" /><rect x="122" y="111" width="10" height="10" /><rect x="145" y="111" width="10" height="10" /><rect x="168" y="111" width="10" height="10" /><rect x="179" y="76" width="11" height="11" /><rect x="179" y="88" width="11" height="10" /><rect x="190" y="88" width="11" height="10" /><rect x="179" y="99" width="11" height="11" /><rect x="190" y="99" width="11" height="11" /><rect x="179" y="111" width="11" height="10" /><rect x="190" y="111" width="11" height="10" /><rect x="54" y="134" width="10" height="10" /><rect x="42" y="145" width="11" height="10" /><rect x="54" y="145" width="10" height="10" /><rect x="31" y="156" width="10" height="11" /><rect x="42" y="156" width="11" height="11" /><rect x="54" y="156" width="10" height="11" /><rect x="65" y="122" width="11" height="10" /><rect x="99" y="122" width="11" height="10" /><rect x="111" y="122" width="10" height="10" /><rect x="65" y="134" width="11" height="10" /><rect x="76" y="134" width="11" height="10" /><rect x="88" y="134" width="10" height="10" /><rect x="99" y="134" width="11" height="10" /><rect x="111" y="134" width="10" height="10" /><rect x="65" y="145" width="11" height="10" /><rect x="76" y="145" width="11" height="10" /><rect x="88" y="145" width="10" height="10" /><rect x="99" y="145" width="11" height="10" /><rect x="111" y="145" width="10" height="10" /><rect x="65" y="156" width="11" height="11" /><rect x="76" y="156" width="11" height="11" /><rect x="88" y="156" width="10" height="11" /><rect x="99" y="156" width="11" height="11" /><rect x="111" y="156" width="10" height="11" /><rect x="65" y="168" width="11" height="10" /><rect x="76" y="168" width="11" height="10" /><rect x="88" y="168" width="10" height="10" /><rect x="99" y="168" width="11" height="10" /><rect x="145" y="122" width="10" height="10" /><rect x="168" y="122" width="10" height="10" /><rect x="122" y="134" width="10" height="10" /><rect x="168" y="134" width="10" height="10" /><rect x="122" y="145" width="10" height="10" /><rect x="134" y="145" width="10" height="10" /><rect x="168" y="145" width="10" height="10" /><rect x="122" y="156" width="10" height="11" /><rect x="134" y="156" width="10" height="11" /><rect x="156" y="156" width="11" height="11" /><rect x="168" y="168" width="10" height="10" /><rect x="179" y="122" width="11" height="10" /><rect x="202" y="122" width="10" height="10" /><rect x="213" y="122" width="11" height="10" /><rect x="213" y="134" width="11" height="10" /><rect x="225" y="134" width="10" height="10" /><rect x="213" y="145" width="11" height="10" /><rect x="179" y="156" width="11" height="11" /><rect x="190" y="156" width="11" height="11" /><rect x="225" y="156" width="10" height="11" /><rect x="179" y="168" width="11" height="10" /><rect x="236" y="168" width="10" height="10" /><rect x="247" y="168" width="11" height="10" /><rect x="65" y="179" width="11" height="11" /><rect x="111" y="202" width="10" height="10" /><rect x="65" y="213" width="11" height="11" /><rect x="76" y="213" width="11" height="11" /><rect x="122" y="202" width="10" height="10" /><rect x="134" y="202" width="10" height="10" /><rect x="156" y="225" width="11" height="10" /><rect x="168" y="225" width="10" height="10" /><rect x="179" y="179" width="11" height="11" /><rect x="190" y="179" width="11" height="11" /><rect x="179" y="190" width="11" height="11" /><rect x="190" y="190" width="11" height="11" /><rect x="202" y="190" width="10" height="11" /><rect x="213" y="190" width="11" height="11" /><rect x="225" y="190" width="10" height="11" /><rect x="190" y="202" width="11" height="10" /><rect x="225" y="202" width="10" height="10" /><rect x="190" y="213" width="11" height="11" /><rect x="202" y="213" width="10" height="11" /><rect x="225" y="213" width="10" height="11" /><rect x="179" y="225" width="11" height="10" /><rect x="190" y="225" width="11" height="10" /><rect x="225" y="225" width="10" height="10" /><rect x="236" y="179" width="10" height="11" /><rect x="236" y="190" width="10" height="11" /><rect x="247" y="190" width="11" height="11" /><rect x="259" y="190" width="10" height="11" /><rect x="236" y="202" width="10" height="10" /><rect x="247" y="202" width="11" height="10" /><rect x="259" y="202" width="10" height="10" /><rect x="247" y="213" width="11" height="11" /><rect x="168" y="236" width="10" height="10" /><rect x="156" y="247" width="11" height="11" /><rect x="168" y="247" width="10" height="11" /><rect x="179" y="236" width="11" height="10" /><rect x="202" y="236" width="10" height="10" /><rect x="134" y="42" width="10" height="11" /><rect x="122" y="42" width="10" height="11" /><rect x="111" y="54" width="10" height="10" /><rect x="168" y="31" width="10" height="10" /><rect x="111" y="42" width="10" height="11" /><rect x="88" y="42" width="10" height="11" /><rect x="111" y="31" width="10" height="10" /><rect x="99" y="31" width="11" height="10" /><rect x="156" y="31" width="11" height="10" /><rect x="88" y="31" width="10" height="10" /><rect x="99" y="20" width="11" height="10" /><rect x="88" y="20" width="10" height="10" /><rect x="156" y="42" width="11" height="11" /><rect x="122" y="54" width="10" height="10" /><rect x="134" y="54" width="10" height="10" /><rect x="156" y="54" width="11" height="10" /><rect x="134" y="31" width="10" height="10" /><rect x="122" y="31" width="10" height="10" />
</g>
<g class="spawningMap-very-common"><rect x="111" y="168" width="10" height="10" /><rect x="145" y="168" width="10" height="10" /><rect x="202" y="156" width="10" height="11" /><rect x="213" y="156" width="11" height="11" /><rect x="190" y="168" width="11" height="10" /><rect x="202" y="168" width="10" height="10" /><rect x="213" y="168" width="11" height="10" /><rect x="225" y="168" width="10" height="10" /><rect x="111" y="179" width="10" height="11" /><rect x="111" y="190" width="10" height="11" /><rect x="122" y="179" width="10" height="11" /><rect x="134" y="179" width="10" height="11" /><rect x="145" y="179" width="10" height="11" /><rect x="156" y="179" width="11" height="11" /><rect x="168" y="179" width="10" height="11" /><rect x="122" y="190" width="10" height="11" /><rect x="134" y="190" width="10" height="11" /><rect x="145" y="190" width="10" height="11" /><rect x="156" y="190" width="11" height="11" /><rect x="168" y="190" width="10" height="11" /><rect x="145" y="202" width="10" height="10" /><rect x="156" y="202" width="11" height="10" /><rect x="168" y="202" width="10" height="10" /><rect x="156" y="213" width="11" height="11" /><rect x="168" y="213" width="10" height="11" /><rect x="202" y="179" width="10" height="11" /><rect x="213" y="179" width="11" height="11" /><rect x="225" y="179" width="10" height="11" /><rect x="179" y="202" width="11" height="10" /><rect x="225" y="236" width="10" height="10" />
</g>
</g>
<g class="spawning-map-point" opacity="0.8">
</g>
</svg>