<?xml version="1.0" encoding="utf-8"?>
<svg xmlns="http://www.w3.org/2000/svg" width="300" height="300" viewBox="0 0 300 300" class="creatureMap" style="position:absolute;">
<defs>
    <filter id="blur" x="-30%" y="-30%" width="160%" height="160%">
        <feGaussianBlur stdDeviation="3" />
    </filter>
    <style>
        .spawningMap-very-common { fill: #0F0; }
        .spawningMap-common { fill: #B2FF00; }
        .spawningMap-uncommon { fill: #FF0; }
        .spawningMap-very-uncommon { fill: #FC0; }
        .spawningMap-rare { fill: #F60; }
        .spawningMap-very-rare { fill: #F00; }
        .spawning-map-point { stroke:black; stroke-width:1; }
    </style>
</defs>
<g filter="url(#blur)" opacity="0.7">
    <g class="spawningMap-very-common">
        <rect x="242" y="70" width="12" height="12" />
        <rect x="249" y="70" width="12" height="12" />
        <rect x="256" y="70" width="12" height="12" />
        <rect x="263" y="70" width="13" height="12" />
        <rect x="242" y="77" width="12" height="12" />
        <rect x="249" y="77" width="12" height="12" />
        <rect x="256" y="77" width="12" height="12" />
        <rect x="263" y="77" width="13" height="12" />
        <rect x="242" y="84" width="12" height="12" />
        <rect x="249" y="84" width="12" height="12" />
        <rect x="256" y="84" width="12" height="12" />
        <rect x="263" y="84" width="13" height="12" />
        <rect x="199" y="250" width="12" height="13" />
        <rect x="206" y="250" width="13" height="13" />
        <rect x="199" y="243" width="12" height="13" />
        <rect x="206" y="243" width="13" height="13" />
        <rect x="192" y="222" width="12" height="13" />
        <rect x="199" y="222" width="12" height="13" />
        <rect x="263" y="222" width="13" height="13" />
        <rect x="270" y="222" width="13" height="13" />
        <rect x="277" y="222" width="13" height="13" />
        <rect x="192" y="215" width="12" height="13" />
        <rect x="199" y="215" width="12" height="13" />
        <rect x="213" y="215" width="13" height="13" />
        <rect x="263" y="215" width="13" height="13" />
        <rect x="270" y="215" width="13" height="13" />
        <rect x="277" y="215" width="13" height="13" />
        <rect x="206" y="208" width="13" height="13" />
        <rect x="263" y="208" width="13" height="13" />
        <rect x="270" y="208" width="13" height="13" />
        <rect x="277" y="208" width="13" height="13" />
        <rect x="0" y="28" width="1" height="12" />
        <rect x="0" y="28" width="8" height="12" />
        <rect x="3" y="28" width="13" height="12" />
        <rect x="10" y="28" width="13" height="12" />
        <rect x="17" y="28" width="13" height="12" />
        <rect x="60" y="28" width="13" height="12" />
        <rect x="67" y="28" width="13" height="12" />
        <rect x="74" y="28" width="13" height="12" />
        <rect x="82" y="28" width="12" height="12" />
        <rect x="110" y="28" width="13" height="12" />
        <rect x="117" y="28" width="10" height="12" />
        <rect x="0" y="35" width="1" height="12" />
        <rect x="0" y="35" width="8" height="12" />
        <rect x="3" y="35" width="13" height="12" />
        <rect x="10" y="35" width="13" height="12" />
        <rect x="17" y="35" width="13" height="12" />
        <rect x="67" y="35" width="13" height="12" />
        <rect x="74" y="35" width="13" height="12" />
        <rect x="82" y="35" width="12" height="12" />
        <rect x="110" y="35" width="13" height="12" />
        <rect x="117" y="35" width="10" height="12" />
        <rect x="0" y="42" width="1" height="12" />
        <rect x="10" y="42" width="13" height="12" />
        <rect x="17" y="42" width="13" height="12" />
        <rect x="110" y="42" width="13" height="12" />
        <rect x="117" y="42" width="10" height="12" />
        <rect x="0" y="49" width="1" height="12" />
        <rect x="82" y="49" width="12" height="12" />
        <rect x="0" y="56" width="1" height="12" />
        <rect x="110" y="56" width="13" height="12" />
        <rect x="117" y="56" width="10" height="12" />
        <rect x="0" y="63" width="1" height="12" />
        <rect x="10" y="63" width="13" height="12" />
        <rect x="32" y="63" width="12" height="12" />
        <rect x="103" y="63" width="13" height="12" />
        <rect x="110" y="63" width="13" height="12" />
        <rect x="117" y="63" width="10" height="12" />
        <rect x="0" y="70" width="1" height="12" />
        <rect x="0" y="70" width="8" height="12" />
        <rect x="10" y="70" width="13" height="12" />
        <rect x="32" y="70" width="12" height="12" />
        <rect x="39" y="70" width="12" height="12" />
        <rect x="53" y="70" width="13" height="12" />
        <rect x="60" y="70" width="13" height="12" />
        <rect x="103" y="70" width="13" height="12" />
        <rect x="110" y="70" width="13" height="12" />
        <rect x="117" y="70" width="10" height="12" />
        <rect x="0" y="77" width="1" height="12" />
        <rect x="0" y="77" width="8" height="12" />
        <rect x="10" y="77" width="13" height="12" />
        <rect x="32" y="77" width="12" height="12" />
        <rect x="39" y="77" width="12" height="12" />
        <rect x="46" y="77" width="12" height="12" />
        <rect x="53" y="77" width="13" height="12" />
        <rect x="60" y="77" width="13" height="12" />
        <rect x="103" y="77" width="13" height="12" />
        <rect x="110" y="77" width="13" height="12" />
        <rect x="117" y="77" width="10" height="12" />
        <rect x="0" y="84" width="1" height="12" />
        <rect x="0" y="84" width="8" height="12" />
        <rect x="3" y="84" width="13" height="12" />
        <rect x="10" y="84" width="13" height="12" />
        <rect x="39" y="84" width="12" height="12" />
        <rect x="46" y="84" width="12" height="12" />
        <rect x="53" y="84" width="13" height="12" />
        <rect x="103" y="84" width="13" height="12" />
        <rect x="110" y="84" width="13" height="12" />
        <rect x="117" y="84" width="10" height="12" />
        <rect x="0" y="91" width="1" height="12" />
        <rect x="0" y="91" width="8" height="12" />
        <rect x="46" y="91" width="12" height="12" />
        <rect x="103" y="91" width="13" height="12" />
        <rect x="110" y="91" width="13" height="12" />
        <rect x="117" y="91" width="10" height="12" />
        <rect x="0" y="98" width="1" height="13" />
        <rect x="0" y="98" width="8" height="13" />
        <rect x="0" y="105" width="1" height="13" />
        <rect x="110" y="105" width="13" height="13" />
        <rect x="117" y="105" width="10" height="13" />
        <rect x="110" y="112" width="13" height="13" />
        <rect x="117" y="112" width="10" height="13" />
    </g></g>
</svg>