<svg xmlns="http://www.w3.org/2000/svg" width="300" height="300" viewBox="0 0 300 300" class="creatureMap" style="position:absolute;">
<defs>
  <filter id="blur" x="-30%" y="-30%" width="160%" height="160%">
    <feGaussianBlur stdDeviation="3" />
</filter>
<pattern id="pattern-untameable" width="10" height="10" patternTransform="rotate(135)" patternUnits="userSpaceOnUse">
<rect width="4" height="10" fill="black"></rect>
</pattern><filter id="groupStroke"><feFlood result="outsideColor" flood-color="black"/><feMorphology in="SourceAlpha" operator="dilate" radius="2"/><feComposite result="strokeoutline1" in="outsideColor" operator="in"/><feComposite result="strokeoutline2" in="strokeoutline1" in2="SourceAlpha" operator="out"/><feGaussianBlur in="strokeoutline2" result="strokeblur" stdDeviation="1"/></filter><style>.spawningMap-very-common { fill: #0F0;}.spawningMap-common { fill: #B2FF00;}.spawningMap-uncommon { fill: #FF0;}.spawningMap-very-uncommon { fill: #FC0;}.spawningMap-rare { fill: #F60;}.spawningMap-very-rare { fill: #F00; }.spawning-map-point {stroke:black; stroke-width:1;}</style></defs>
<g filter="url(#blur)" opacity="0.7"><g class="spawningMap-rare"><rect x="278" y="177" width="12" height="11" /><rect x="234" y="162" width="12" height="12" /><rect x="234" y="155" width="12" height="11" /><rect x="242" y="162" width="11" height="12" /><rect x="242" y="155" width="11" height="11" /><rect x="242" y="170" width="11" height="11" /><rect x="249" y="162" width="11" height="12" /><rect x="249" y="155" width="11" height="11" /><rect x="249" y="170" width="11" height="11" /><rect x="256" y="162" width="12" height="12" /><rect x="256" y="155" width="12" height="11" /><rect x="256" y="170" width="12" height="11" /><rect x="234" y="147" width="12" height="12" /><rect x="229" y="133" width="12" height="11" /><rect x="227" y="147" width="11" height="12" /><rect x="227" y="140" width="11" height="12" /><rect x="234" y="101" width="12" height="11" /><rect x="245" y="79" width="12" height="11" /><rect x="245" y="71" width="12" height="12" /><rect x="245" y="64" width="12" height="12" /><rect x="245" y="57" width="12" height="11" /><rect x="253" y="64" width="11" height="12" /><rect x="253" y="57" width="11" height="11" /><rect x="253" y="93" width="11" height="12" /><rect x="253" y="86" width="11" height="12" /><rect x="253" y="108" width="11" height="12" /><rect x="253" y="101" width="11" height="11" /><rect x="245" y="103" width="12" height="12" /><rect x="245" y="96" width="12" height="12" /><rect x="260" y="102" width="11" height="11" /><rect x="260" y="94" width="11" height="12" /><rect x="245" y="116" width="12" height="11" /><rect x="245" y="123" width="12" height="11" /><rect x="253" y="123" width="11" height="11" /><rect x="255" y="130" width="11" height="12" /><rect x="234" y="93" width="12" height="12" /><rect x="242" y="177" width="11" height="11" /><rect x="249" y="177" width="11" height="11" /><rect x="256" y="177" width="12" height="11" /><rect x="264" y="155" width="11" height="11" /><rect x="271" y="155" width="12" height="11" /><rect x="278" y="155" width="12" height="11" /><rect x="264" y="148" width="11" height="11" /><rect x="271" y="148" width="12" height="11" /><rect x="278" y="148" width="12" height="11" /><rect x="264" y="140" width="11" height="12" /><rect x="271" y="140" width="12" height="12" /><rect x="278" y="140" width="12" height="12" /><rect x="264" y="133" width="11" height="11" /><rect x="271" y="133" width="12" height="11" /><rect x="278" y="133" width="12" height="11" /><rect x="264" y="125" width="11" height="12" /><rect x="271" y="125" width="12" height="12" /><rect x="278" y="125" width="12" height="12" /><rect x="264" y="177" width="11" height="11" /><rect x="271" y="177" width="12" height="11" /><rect x="264" y="170" width="11" height="11" /><rect x="271" y="170" width="12" height="11" /><rect x="278" y="170" width="12" height="11" /><rect x="264" y="162" width="11" height="12" /><rect x="271" y="162" width="12" height="12" /><rect x="278" y="162" width="12" height="12" /><rect x="275" y="87" width="11" height="11" /><rect x="275" y="80" width="11" height="11" /><rect x="282" y="87" width="12" height="11" /><rect x="282" y="80" width="12" height="11" /><rect x="286" y="125" width="11" height="12" /><rect x="234" y="140" width="12" height="12" /><rect x="219" y="140" width="12" height="12" /><rect x="234" y="108" width="12" height="12" /><rect x="253" y="79" width="11" height="11" /><rect x="253" y="71" width="11" height="12" /><rect x="253" y="116" width="11" height="11" /><rect x="247" y="130" width="12" height="12" /><rect x="255" y="138" width="11" height="11" /><rect x="242" y="86" width="11" height="12" /><rect x="267" y="118" width="12" height="12" /><rect x="275" y="118" width="11" height="12" /><rect x="282" y="118" width="12" height="12" /><rect x="260" y="118" width="11" height="12" /><rect x="275" y="111" width="11" height="11" /><rect x="282" y="111" width="12" height="11" /><rect x="260" y="111" width="11" height="11" /><rect x="275" y="103" width="11" height="12" /><rect x="282" y="103" width="12" height="12" /><rect x="267" y="96" width="12" height="12" /><rect x="275" y="96" width="11" height="12" /><rect x="282" y="96" width="12" height="12" /><rect x="260" y="87" width="11" height="11" /><rect x="267" y="87" width="12" height="11" /><rect x="260" y="80" width="11" height="11" /><rect x="267" y="80" width="12" height="11" /><rect x="260" y="72" width="11" height="12" /><rect x="267" y="72" width="12" height="12" /><rect x="275" y="72" width="11" height="12" /><rect x="286" y="133" width="11" height="11" /><rect x="286" y="161" width="11" height="11" /></g><g class="spawningMap-very-uncommon"><rect x="187" y="163" width="11" height="12" /><rect x="187" y="156" width="11" height="11" /><rect x="194" y="163" width="11" height="12" /><rect x="194" y="156" width="11" height="11" /><rect x="201" y="156" width="12" height="11" /><rect x="204" y="148" width="11" height="12" /><rect x="209" y="159" width="11" height="12" /><rect x="211" y="145" width="12" height="11" /><rect x="211" y="137" width="12" height="12" /><rect x="211" y="130" width="12" height="12" /><rect x="218" y="130" width="12" height="12" /><rect x="215" y="123" width="11" height="11" /><rect x="222" y="123" width="12" height="11" /><rect x="212" y="115" width="12" height="12" /><rect x="220" y="115" width="11" height="12" /><rect x="212" y="108" width="12" height="12" /><rect x="165" y="97" width="12" height="12" /><rect x="220" y="108" width="11" height="12" /><rect x="165" y="104" width="12" height="12" /><rect x="124" y="69" width="11" height="12" /><rect x="109" y="77" width="12" height="11" /><rect x="212" y="101" width="12" height="11" /><rect x="158" y="104" width="11" height="12" /><rect x="158" y="97" width="11" height="12" /><rect x="157" y="154" width="12" height="11" /><rect x="157" y="161" width="12" height="12" /><rect x="165" y="156" width="11" height="11" /><rect x="220" y="101" width="11" height="11" /><rect x="172" y="165" width="11" height="11" /><rect x="172" y="157" width="11" height="12" /><rect x="212" y="93" width="12" height="12" /><rect x="220" y="93" width="11" height="12" /><rect x="220" y="86" width="11" height="12" /><rect x="227" y="86" width="11" height="12" /><rect x="216" y="79" width="11" height="11" /><rect x="223" y="79" width="12" height="11" /><rect x="198" y="90" width="11" height="12" /><rect x="205" y="90" width="11" height="12" /><rect x="195" y="83" width="11" height="12" /><rect x="202" y="83" width="12" height="12" /><rect x="213" y="55" width="11" height="11" /><rect x="220" y="55" width="12" height="11" /><rect x="227" y="57" width="12" height="12" /><rect x="235" y="57" width="11" height="12" /><rect x="194" y="129" width="11" height="11" /><rect x="136" y="135" width="11" height="12" /><rect x="129" y="135" width="11" height="12" /><rect x="136" y="128" width="11" height="12" /><rect x="129" y="128" width="11" height="12" /><rect x="136" y="121" width="11" height="11" /><rect x="136" y="113" width="11" height="12" /><rect x="129" y="121" width="11" height="11" /><rect x="129" y="113" width="11" height="12" /><rect x="121" y="121" width="12" height="11" /><rect x="121" y="106" width="12" height="12" /><rect x="121" y="99" width="12" height="11" /><rect x="114" y="106" width="11" height="12" /><rect x="114" y="99" width="11" height="11" /><rect x="107" y="106" width="11" height="12" /><rect x="107" y="99" width="11" height="11" /><rect x="124" y="91" width="12" height="12" /><rect x="117" y="91" width="11" height="12" /><rect x="102" y="77" width="11" height="11" /><rect x="231" y="79" width="11" height="11" /><rect x="238" y="79" width="11" height="11" /><rect x="238" y="71" width="11" height="12" /><rect x="227" y="115" width="11" height="12" /><rect x="227" y="108" width="11" height="12" /><rect x="204" y="141" width="11" height="12" /><rect x="189" y="141" width="11" height="12" /><rect x="204" y="134" width="11" height="11" /><rect x="196" y="141" width="12" height="12" /><rect x="196" y="134" width="12" height="11" /><rect x="110" y="91" width="11" height="12" /><rect x="110" y="84" width="11" height="11" /><rect x="129" y="106" width="11" height="12" /><rect x="129" y="99" width="11" height="11" /><rect x="136" y="106" width="11" height="12" /><rect x="136" y="99" width="11" height="11" /><rect x="143" y="106" width="12" height="12" /><rect x="143" y="99" width="12" height="11" /><rect x="150" y="106" width="12" height="12" /><rect x="150" y="99" width="12" height="11" /><rect x="139" y="82" width="11" height="12" /><rect x="139" y="75" width="11" height="11" /><rect x="117" y="77" width="11" height="11" /><rect x="124" y="77" width="12" height="11" /><rect x="116" y="236" width="12" height="11" /><rect x="124" y="236" width="11" height="11" /><rect x="116" y="243" width="12" height="12" /><rect x="124" y="243" width="11" height="12" /><rect x="109" y="243" width="12" height="12" /><rect x="102" y="236" width="11" height="11" /><rect x="102" y="243" width="11" height="12" /><rect x="102" y="250" width="11" height="12" /><rect x="109" y="69" width="12" height="12" /><rect x="165" y="163" width="11" height="11" /><rect x="172" y="150" width="11" height="11" /><rect x="172" y="142" width="11" height="12" /><rect x="172" y="135" width="11" height="12" /><rect x="179" y="142" width="12" height="12" /><rect x="179" y="135" width="12" height="12" /><rect x="179" y="165" width="12" height="11" /><rect x="179" y="157" width="12" height="12" /><rect x="179" y="150" width="12" height="11" /><rect x="201" y="163" width="12" height="12" /><rect x="196" y="148" width="12" height="12" /><rect x="227" y="101" width="11" height="11" /><rect x="227" y="93" width="11" height="12" /><rect x="205" y="101" width="11" height="11" /><rect x="187" y="129" width="11" height="11" /><rect x="173" y="170" width="11" height="12" /><rect x="121" y="113" width="12" height="12" /><rect x="121" y="128" width="12" height="12" /><rect x="102" y="91" width="11" height="12" /><rect x="102" y="84" width="11" height="12" /><rect x="102" y="69" width="11" height="12" /><rect x="158" y="90" width="11" height="11" /><rect x="158" y="82" width="11" height="12" /><rect x="165" y="90" width="12" height="11" /><rect x="165" y="82" width="12" height="12" /><rect x="189" y="148" width="11" height="12" /><rect x="204" y="126" width="11" height="12" /><rect x="204" y="119" width="11" height="12" /><rect x="196" y="119" width="12" height="12" /><rect x="117" y="84" width="11" height="11" /><rect x="234" y="86" width="12" height="12" /><rect x="124" y="84" width="12" height="11" /><rect x="132" y="82" width="11" height="12" /><rect x="132" y="75" width="11" height="11" /><rect x="146" y="80" width="12" height="11" /><rect x="146" y="72" width="12" height="12" /><rect x="117" y="69" width="11" height="12" /><rect x="231" y="71" width="11" height="12" /><rect x="109" y="236" width="12" height="11" /><rect x="116" y="250" width="12" height="12" /><rect x="124" y="250" width="11" height="12" /><rect x="109" y="250" width="12" height="12" /><rect x="94" y="228" width="12" height="12" /><rect x="94" y="236" width="12" height="11" /><rect x="94" y="243" width="12" height="12" /><rect x="223" y="71" width="12" height="12" /></g><g class="spawningMap-uncommon"><rect x="131" y="199" width="12" height="12" /><rect x="30" y="140" width="12" height="11" /><rect x="131" y="206" width="12" height="12" /><rect x="109" y="221" width="12" height="12" /><rect x="102" y="214" width="11" height="11" /><rect x="102" y="221" width="11" height="12" /><rect x="87" y="221" width="12" height="12" /><rect x="139" y="214" width="11" height="11" /><rect x="131" y="228" width="12" height="12" /><rect x="146" y="228" width="11" height="12" /><rect x="138" y="228" width="12" height="12" /><rect x="124" y="228" width="11" height="12" /><rect x="117" y="184" width="11" height="12" /><rect x="30" y="147" width="12" height="11" /><rect x="139" y="206" width="11" height="12" /><rect x="95" y="221" width="11" height="12" /><rect x="124" y="236" width="11" height="11" /><rect x="82" y="88" width="11" height="12" /><rect x="82" y="96" width="11" height="11" /><rect x="82" y="103" width="11" height="11" /><rect x="82" y="110" width="11" height="12" /><rect x="82" y="118" width="11" height="11" /><rect x="74" y="88" width="12" height="12" /><rect x="74" y="96" width="12" height="11" /><rect x="74" y="103" width="12" height="11" /><rect x="74" y="110" width="12" height="12" /><rect x="67" y="88" width="12" height="12" /><rect x="67" y="96" width="12" height="11" /><rect x="67" y="103" width="12" height="11" /><rect x="67" y="110" width="12" height="12" /><rect x="67" y="118" width="12" height="11" /><rect x="60" y="88" width="11" height="12" /><rect x="60" y="96" width="11" height="11" /><rect x="60" y="103" width="11" height="11" /><rect x="60" y="110" width="11" height="12" /><rect x="60" y="118" width="11" height="11" /><rect x="52" y="81" width="12" height="11" /><rect x="52" y="88" width="12" height="12" /><rect x="52" y="96" width="12" height="11" /><rect x="52" y="103" width="12" height="11" /><rect x="52" y="110" width="12" height="12" /><rect x="52" y="118" width="12" height="11" /><rect x="45" y="81" width="12" height="11" /><rect x="45" y="88" width="12" height="12" /><rect x="45" y="96" width="12" height="11" /><rect x="45" y="103" width="12" height="11" /><rect x="45" y="110" width="12" height="12" /><rect x="80" y="193" width="11" height="11" /><rect x="80" y="185" width="11" height="12" /><rect x="95" y="178" width="11" height="11" /><rect x="80" y="178" width="11" height="11" /><rect x="80" y="206" width="11" height="12" /><rect x="109" y="206" width="12" height="12" /><rect x="102" y="206" width="11" height="12" /><rect x="102" y="199" width="11" height="12" /><rect x="95" y="199" width="11" height="12" /><rect x="117" y="206" width="11" height="12" /><rect x="131" y="214" width="12" height="11" /><rect x="117" y="199" width="11" height="12" /><rect x="124" y="199" width="11" height="12" /><rect x="117" y="192" width="11" height="11" /><rect x="124" y="192" width="11" height="11" /><rect x="131" y="221" width="12" height="12" /><rect x="109" y="214" width="12" height="11" /><rect x="80" y="214" width="11" height="11" /><rect x="80" y="221" width="11" height="12" /><rect x="138" y="236" width="12" height="11" /><rect x="58" y="250" width="11" height="12" /><rect x="50" y="250" width="12" height="12" /><rect x="23" y="140" width="11" height="11" /><rect x="23" y="147" width="11" height="11" /><rect x="23" y="125" width="11" height="11" /><rect x="43" y="221" width="12" height="12" /><rect x="23" y="132" width="11" height="12" /><rect x="23" y="110" width="11" height="12" /><rect x="50" y="236" width="12" height="11" /><rect x="23" y="118" width="11" height="11" /><rect x="116" y="228" width="12" height="12" /><rect x="16" y="140" width="11" height="11" /><rect x="16" y="147" width="11" height="11" /><rect x="80" y="163" width="11" height="12" /><rect x="73" y="163" width="11" height="12" /><rect x="65" y="163" width="12" height="12" /><rect x="65" y="214" width="12" height="11" /><rect x="58" y="214" width="11" height="11" /><rect x="50" y="214" width="12" height="11" /><rect x="43" y="214" width="12" height="11" /><rect x="65" y="206" width="12" height="12" /><rect x="58" y="206" width="11" height="12" /><rect x="50" y="206" width="12" height="12" /><rect x="43" y="206" width="12" height="12" /><rect x="82" y="81" width="11" height="11" /><rect x="74" y="81" width="12" height="11" /><rect x="67" y="81" width="12" height="11" /><rect x="60" y="81" width="11" height="11" /><rect x="38" y="81" width="11" height="11" /><rect x="30" y="81" width="12" height="11" /><rect x="30" y="74" width="12" height="11" /><rect x="16" y="125" width="11" height="11" /><rect x="131" y="236" width="12" height="11" /><rect x="138" y="243" width="12" height="12" /><rect x="131" y="243" width="12" height="12" /><rect x="16" y="132" width="11" height="12" /><rect x="16" y="110" width="11" height="12" /><rect x="138" y="250" width="12" height="12" /><rect x="131" y="250" width="12" height="12" /><rect x="73" y="206" width="11" height="12" /><rect x="58" y="199" width="11" height="12" /><rect x="72" y="228" width="12" height="12" /><rect x="72" y="236" width="12" height="11" /><rect x="72" y="214" width="12" height="11" /><rect x="72" y="221" width="12" height="12" /><rect x="65" y="228" width="12" height="12" /><rect x="65" y="236" width="12" height="11" /><rect x="58" y="236" width="11" height="11" /><rect x="58" y="221" width="11" height="12" /><rect x="50" y="221" width="12" height="12" /><rect x="58" y="228" width="11" height="12" /><rect x="80" y="228" width="11" height="12" /><rect x="80" y="236" width="11" height="11" /><rect x="87" y="228" width="12" height="12" /><rect x="87" y="236" width="12" height="11" /><rect x="94" y="250" width="12" height="12" /><rect x="50" y="199" width="12" height="12" /><rect x="43" y="199" width="12" height="12" /><rect x="87" y="243" width="12" height="12" /><rect x="87" y="250" width="12" height="12" /><rect x="16" y="118" width="11" height="11" /><rect x="58" y="192" width="11" height="11" /><rect x="80" y="243" width="11" height="12" /><rect x="80" y="250" width="11" height="12" /><rect x="50" y="192" width="12" height="11" /><rect x="43" y="192" width="12" height="11" /><rect x="102" y="258" width="11" height="11" /><rect x="94" y="258" width="12" height="11" /><rect x="43" y="228" width="12" height="12" /><rect x="43" y="236" width="12" height="11" /><rect x="87" y="258" width="12" height="11" /><rect x="80" y="258" width="11" height="11" /><rect x="72" y="258" width="12" height="11" /><rect x="65" y="258" width="12" height="11" /><rect x="87" y="178" width="12" height="11" /><rect x="43" y="243" width="12" height="11" /><rect x="87" y="171" width="12" height="11" /><rect x="87" y="206" width="12" height="12" /><rect x="109" y="184" width="12" height="12" /><rect x="95" y="206" width="11" height="12" /><rect x="95" y="214" width="11" height="11" /><rect x="87" y="214" width="12" height="11" /><rect x="73" y="156" width="11" height="11" /><rect x="43" y="250" width="12" height="12" /><rect x="43" y="257" width="12" height="12" /><rect x="36" y="228" width="11" height="12" /><rect x="80" y="156" width="12" height="11" /><rect x="36" y="236" width="11" height="11" /><rect x="36" y="243" width="11" height="11" /><rect x="36" y="250" width="11" height="12" /><rect x="65" y="141" width="12" height="12" /><rect x="65" y="149" width="12" height="11" /><rect x="74" y="118" width="12" height="11" /><rect x="45" y="118" width="12" height="11" /><rect x="38" y="118" width="11" height="11" /><rect x="30" y="118" width="12" height="11" /><rect x="52" y="125" width="12" height="11" /><rect x="45" y="125" width="12" height="11" /><rect x="38" y="125" width="11" height="11" /><rect x="30" y="125" width="12" height="11" /><rect x="52" y="132" width="12" height="12" /><rect x="45" y="132" width="12" height="12" /><rect x="38" y="132" width="11" height="12" /><rect x="30" y="132" width="12" height="12" /><rect x="52" y="140" width="12" height="11" /><rect x="45" y="140" width="12" height="11" /><rect x="38" y="140" width="11" height="11" /><rect x="16" y="96" width="11" height="11" /><rect x="52" y="147" width="12" height="11" /><rect x="45" y="147" width="12" height="11" /><rect x="38" y="147" width="11" height="11" /><rect x="16" y="103" width="11" height="12" /><rect x="52" y="154" width="12" height="12" /><rect x="45" y="154" width="12" height="12" /><rect x="38" y="154" width="11" height="12" /><rect x="30" y="154" width="12" height="12" /><rect x="36" y="257" width="11" height="12" /><rect x="28" y="228" width="12" height="12" /><rect x="28" y="236" width="12" height="11" /><rect x="28" y="243" width="12" height="11" /><rect x="28" y="250" width="12" height="12" /><rect x="16" y="81" width="11" height="12" /><rect x="21" y="228" width="11" height="12" /><rect x="21" y="236" width="11" height="11" /><rect x="21" y="243" width="11" height="11" /><rect x="21" y="250" width="11" height="12" /><rect x="16" y="88" width="11" height="12" /><rect x="14" y="228" width="11" height="12" /><rect x="14" y="236" width="11" height="11" /><rect x="14" y="243" width="11" height="11" /><rect x="14" y="250" width="11" height="12" /><rect x="14" y="257" width="11" height="12" /><rect x="6" y="228" width="12" height="12" /><rect x="6" y="236" width="12" height="11" /><rect x="6" y="243" width="12" height="11" /><rect x="6" y="250" width="12" height="12" /><rect x="6" y="257" width="12" height="12" /><rect x="6" y="192" width="12" height="11" /><rect x="6" y="199" width="12" height="12" /><rect x="6" y="206" width="12" height="12" /><rect x="6" y="214" width="12" height="11" /><rect x="6" y="221" width="12" height="11" /><rect x="14" y="192" width="11" height="11" /><rect x="14" y="199" width="11" height="12" /><rect x="14" y="206" width="11" height="12" /><rect x="14" y="214" width="11" height="11" /><rect x="14" y="221" width="11" height="11" /><rect x="21" y="192" width="11" height="11" /><rect x="21" y="199" width="11" height="12" /><rect x="21" y="206" width="11" height="12" /><rect x="21" y="214" width="11" height="11" /><rect x="21" y="221" width="11" height="11" /><rect x="28" y="192" width="12" height="11" /><rect x="28" y="199" width="12" height="12" /><rect x="28" y="206" width="12" height="12" /><rect x="28" y="214" width="12" height="11" /><rect x="28" y="221" width="12" height="11" /><rect x="65" y="199" width="12" height="12" /><rect x="65" y="192" width="12" height="11" /><rect x="65" y="184" width="12" height="12" /><rect x="58" y="184" width="11" height="12" /><rect x="146" y="236" width="11" height="11" /><rect x="146" y="243" width="11" height="12" /><rect x="146" y="250" width="11" height="12" /><rect x="146" y="258" width="11" height="11" /><rect x="16" y="66" width="11" height="12" /><rect x="16" y="74" width="11" height="11" /><rect x="8" y="96" width="12" height="11" /><rect x="8" y="103" width="12" height="12" /><rect x="8" y="81" width="12" height="12" /><rect x="8" y="88" width="12" height="12" /><rect x="8" y="66" width="12" height="12" /><rect x="8" y="74" width="12" height="11" /><rect x="138" y="265" width="12" height="12" /><rect x="138" y="272" width="12" height="12" /><rect x="138" y="280" width="12" height="11" /><rect x="138" y="287" width="12" height="12" /><rect x="131" y="265" width="12" height="12" /><rect x="131" y="272" width="12" height="12" /><rect x="131" y="280" width="12" height="11" /><rect x="45" y="162" width="12" height="11" /><rect x="124" y="265" width="11" height="12" /><rect x="124" y="272" width="11" height="12" /><rect x="124" y="280" width="11" height="11" /><rect x="38" y="162" width="11" height="11" /><rect x="102" y="265" width="11" height="12" /><rect x="102" y="272" width="11" height="12" /><rect x="102" y="280" width="11" height="11" /><rect x="102" y="287" width="11" height="12" /><rect x="94" y="265" width="12" height="12" /><rect x="94" y="272" width="12" height="12" /><rect x="94" y="280" width="12" height="11" /><rect x="94" y="287" width="12" height="12" /><rect x="87" y="265" width="12" height="12" /><rect x="87" y="272" width="11" height="12" /><rect x="87" y="280" width="12" height="11" /><rect x="87" y="287" width="11" height="12" /><rect x="30" y="162" width="12" height="11" /><rect x="28" y="184" width="12" height="12" /><rect x="12" y="180" width="12" height="11" /><rect x="80" y="265" width="11" height="12" /><rect x="80" y="272" width="11" height="12" /><rect x="80" y="280" width="11" height="11" /><rect x="80" y="287" width="11" height="12" /><rect x="72" y="265" width="12" height="12" /><rect x="72" y="272" width="12" height="12" /><rect x="72" y="280" width="12" height="11" /><rect x="72" y="287" width="12" height="12" /><rect x="28" y="257" width="12" height="12" /><rect x="21" y="257" width="11" height="12" /><rect x="28" y="265" width="12" height="11" /><rect x="21" y="265" width="11" height="11" /><rect x="28" y="287" width="12" height="12" /><rect x="21" y="287" width="11" height="12" /><rect x="13" y="287" width="12" height="12" /><rect x="6" y="287" width="12" height="12" /><rect x="21" y="280" width="11" height="11" /><rect x="13" y="280" width="12" height="11" /><rect x="21" y="272" width="11" height="12" /><rect x="13" y="272" width="12" height="12" /><rect x="36" y="184" width="11" height="12" /><rect x="12" y="173" width="12" height="11" /><rect x="43" y="177" width="12" height="12" /><rect x="36" y="177" width="11" height="12" /><rect x="65" y="265" width="11" height="12" /><rect x="58" y="265" width="11" height="12" /><rect x="65" y="287" width="11" height="12" /><rect x="58" y="287" width="11" height="12" /><rect x="146" y="265" width="11" height="12" /><rect x="146" y="272" width="11" height="12" /><rect x="146" y="280" width="11" height="11" /><rect x="146" y="287" width="11" height="12" /><rect x="153" y="265" width="12" height="12" /><rect x="153" y="272" width="12" height="12" /><rect x="153" y="280" width="12" height="11" /><rect x="153" y="287" width="12" height="12" /><rect x="161" y="265" width="11" height="12" /><rect x="160" y="272" width="12" height="12" /><rect x="161" y="280" width="11" height="11" /><rect x="160" y="287" width="12" height="12" /><rect x="161" y="236" width="11" height="11" /><rect x="160" y="243" width="12" height="12" /><rect x="161" y="250" width="11" height="12" /><rect x="160" y="258" width="12" height="11" /><rect x="153" y="236" width="12" height="11" /><rect x="153" y="243" width="12" height="12" /><rect x="153" y="250" width="12" height="12" /><rect x="153" y="258" width="12" height="11" /><rect x="12" y="165" width="12" height="12" /><rect x="168" y="280" width="11" height="11" /><rect x="168" y="287" width="11" height="12" /><rect x="175" y="287" width="12" height="12" /><rect x="175" y="280" width="12" height="11" /><rect x="182" y="280" width="12" height="11" /><rect x="182" y="265" width="12" height="12" /><rect x="131" y="287" width="12" height="12" /><rect x="124" y="287" width="11" height="12" /><rect x="72" y="243" width="12" height="12" /><rect x="72" y="250" width="12" height="12" /><rect x="58" y="258" width="11" height="11" /><rect x="50" y="258" width="12" height="11" /><rect x="73" y="141" width="11" height="12" /><rect x="73" y="149" width="11" height="11" /><rect x="65" y="156" width="12" height="11" /><rect x="80" y="171" width="11" height="11" /><rect x="73" y="171" width="11" height="11" /><rect x="65" y="171" width="12" height="11" /><rect x="109" y="199" width="12" height="12" /><rect x="50" y="184" width="12" height="12" /><rect x="43" y="184" width="12" height="12" /><rect x="109" y="192" width="12" height="11" /><rect x="36" y="192" width="11" height="11" /><rect x="102" y="192" width="11" height="11" /><rect x="36" y="199" width="11" height="12" /><rect x="36" y="206" width="11" height="12" /><rect x="36" y="214" width="11" height="11" /><rect x="36" y="221" width="11" height="11" /><rect x="73" y="192" width="11" height="12" /><rect x="73" y="185" width="11" height="11" /><rect x="73" y="178" width="11" height="11" /><rect x="65" y="177" width="12" height="12" /><rect x="124" y="206" width="11" height="12" /><rect x="43" y="265" width="12" height="12" /><rect x="43" y="272" width="12" height="12" /><rect x="43" y="280" width="12" height="11" /><rect x="43" y="287" width="12" height="12" /><rect x="36" y="265" width="11" height="12" /><rect x="36" y="272" width="11" height="12" /><rect x="36" y="280" width="11" height="11" /><rect x="36" y="287" width="11" height="12" /><rect x="102" y="184" width="11" height="12" /><rect x="-1" y="258" width="11" height="11" /><rect x="-1" y="265" width="11" height="11" /><rect x="-1" y="272" width="11" height="12" /><rect x="-1" y="280" width="11" height="11" /><rect x="65" y="280" width="11" height="11" /><rect x="58" y="280" width="11" height="11" /><rect x="168" y="251" width="11" height="11" /><rect x="168" y="258" width="11" height="12" /><rect x="168" y="265" width="11" height="12" /><rect x="182" y="287" width="12" height="12" /><rect x="175" y="265" width="12" height="12" /><rect x="190" y="265" width="11" height="12" /><rect x="116" y="287" width="12" height="12" /><rect x="109" y="287" width="11" height="12" /><rect x="20" y="167" width="11" height="12" /><rect x="20" y="160" width="11" height="11" /><rect x="146" y="214" width="11" height="11" /><rect x="146" y="221" width="11" height="11" /><rect x="87" y="163" width="12" height="12" /><rect x="65" y="243" width="12" height="11" /><rect x="65" y="250" width="12" height="12" /><rect x="73" y="199" width="11" height="12" /><rect x="50" y="228" width="12" height="12" /><rect x="109" y="228" width="12" height="12" /><rect x="102" y="228" width="11" height="12" /><rect x="138" y="221" width="12" height="12" /><rect x="138" y="258" width="12" height="11" /><rect x="131" y="258" width="12" height="11" /><rect x="124" y="258" width="11" height="11" /><rect x="116" y="258" width="12" height="11" /><rect x="1" y="96" width="11" height="11" /><rect x="1" y="103" width="11" height="12" /><rect x="1" y="81" width="11" height="12" /><rect x="1" y="88" width="11" height="12" /><rect x="1" y="66" width="11" height="12" /><rect x="1" y="74" width="11" height="11" /><rect x="45" y="169" width="12" height="11" /><rect x="38" y="169" width="11" height="11" /><rect x="30" y="169" width="12" height="11" /><rect x="38" y="88" width="11" height="12" /><rect x="38" y="96" width="11" height="11" /><rect x="38" y="103" width="11" height="11" /><rect x="38" y="110" width="11" height="12" /><rect x="30" y="88" width="12" height="12" /><rect x="30" y="96" width="12" height="11" /><rect x="30" y="103" width="12" height="11" /><rect x="30" y="110" width="12" height="12" /><rect x="82" y="74" width="11" height="11" /><rect x="74" y="74" width="12" height="11" /><rect x="67" y="74" width="12" height="11" /><rect x="60" y="74" width="11" height="11" /><rect x="38" y="74" width="11" height="11" /><rect x="52" y="162" width="12" height="11" /><rect x="23" y="74" width="11" height="11" /><rect x="23" y="81" width="11" height="11" /></g><g class="spawningMap-common"><rect x="139" y="86" width="12" height="12" /><rect x="139" y="94" width="12" height="11" /><rect x="146" y="86" width="12" height="12" /><rect x="146" y="94" width="12" height="11" /><rect x="132" y="91" width="11" height="11" /><rect x="154" y="86" width="11" height="12" /><rect x="154" y="94" width="11" height="11" /></g></g>
</svg>