<svg xmlns="http://www.w3.org/2000/svg" width="300" height="300" viewBox="0 0 300 300" class="creatureMap" style="position:absolute;">
<defs>
<filter id="blur" x="-30%" y="-30%" width="160%" height="160%"><feGaussianBlur stdDeviation="3" />
</filter>
<pattern id="pattern-untameable" width="10" height="10" patternTransform="rotate(135)" patternUnits="userSpaceOnUse"><rect width="4" height="10" fill="black"></rect>
</pattern>
<filter id="groupStroke"><feFlood result="outsideColor" flood-color="black"/><feMorphology in="SourceAlpha" operator="dilate" radius="2"/><feComposite result="strokeoutline1" in="outsideColor" operator="in"/><feComposite result="strokeoutline2" in="strokeoutline1" in2="SourceAlpha" operator="out"/><feGaussianBlur in="strokeoutline2" result="strokeblur" stdDeviation="1"/>
</filter>
<style>
.spawningMap-very-common { fill: #0F0;}
.spawningMap-common { fill: #B2FF00;}
.spawningMap-uncommon { fill: #FF0;}
.spawningMap-very-uncommon { fill: #FC0;}
.spawningMap-rare { fill: #F60;}
.spawningMap-very-rare { fill: #F00; }.spawning-map-point {stroke:black; stroke-width:1;}
</style>
</defs>
<g filter="url(#blur)" opacity="0.7">
<g class="spawningMap-rare"><rect x="213" y="76" width="11" height="11" /><rect x="202" y="88" width="10" height="10" /><rect x="213" y="88" width="11" height="10" /><rect x="225" y="88" width="10" height="10" /><rect x="202" y="99" width="10" height="11" /><rect x="213" y="99" width="11" height="11" /><rect x="225" y="99" width="10" height="11" /><rect x="202" y="111" width="10" height="10" /><rect x="213" y="111" width="11" height="10" /><rect x="225" y="111" width="10" height="10" /><rect x="236" y="88" width="10" height="10" /><rect x="236" y="99" width="10" height="11" /><rect x="236" y="111" width="10" height="10" /><rect x="190" y="122" width="11" height="10" /><rect x="225" y="122" width="10" height="10" /><rect x="179" y="134" width="11" height="10" /><rect x="190" y="134" width="11" height="10" /><rect x="202" y="134" width="10" height="10" /><rect x="179" y="145" width="11" height="10" /><rect x="190" y="145" width="11" height="10" /><rect x="202" y="145" width="10" height="10" /><rect x="236" y="122" width="10" height="10" /><rect x="247" y="145" width="11" height="10" /><rect x="259" y="145" width="10" height="10" /><rect x="270" y="145" width="11" height="10" /><rect x="236" y="156" width="10" height="11" /><rect x="247" y="156" width="11" height="11" /><rect x="259" y="156" width="10" height="11" /><rect x="270" y="156" width="11" height="11" /><rect x="259" y="168" width="10" height="10" /><rect x="202" y="202" width="10" height="10" /><rect x="247" y="179" width="11" height="11" /><rect x="259" y="179" width="10" height="11" />
</g>
</g>
<g class="spawning-map-point" opacity="0.8">
</g>
</svg>