<svg xmlns="http://www.w3.org/2000/svg" width="300" height="300" viewBox="0 0 300 300" class="creatureMap" style="position:absolute;">
<defs>
<filter id="blur" x="-30%" y="-30%" width="160%" height="160%"><feGaussianBlur stdDeviation="3" />
</filter>
<pattern id="pattern-untameable" width="10" height="10" patternTransform="rotate(135)" patternUnits="userSpaceOnUse"><rect width="4" height="10" fill="black"></rect>
</pattern>
<filter id="groupStroke"><feFlood result="outsideColor" flood-color="black"/><feMorphology in="SourceAlpha" operator="dilate" radius="2"/><feComposite result="strokeoutline1" in="outsideColor" operator="in"/><feComposite result="strokeoutline2" in="strokeoutline1" in2="SourceAlpha" operator="out"/><feGaussianBlur in="strokeoutline2" result="strokeblur" stdDeviation="1"/>
</filter>
<style>
.spawningMap-very-common { fill: #0F0;}
.spawningMap-common { fill: #B2FF00;}
.spawningMap-uncommon { fill: #FF0;}
.spawningMap-very-uncommon { fill: #FC0;}
.spawningMap-rare { fill: #F60;}
.spawningMap-very-rare { fill: #F00; }.spawning-map-point {stroke:black; stroke-width:1;}
</style>
</defs>
<g filter="url(#blur)" opacity="0.7">
<g class="spawningMap-very-rare"><rect x="80" y="135" width="48" height="44" /><rect x="139" y="124" width="49" height="45" /><rect x="198" y="118" width="48" height="45" /><rect x="141" y="116" width="96" height="53" />
</g>
<g class="spawningMap-common"><rect x="125" y="127" width="11" height="11" /><rect x="87" y="223" width="11" height="10" /><rect x="110" y="223" width="11" height="10" /><rect x="98" y="212" width="11" height="10" /><rect x="98" y="200" width="11" height="11" /><rect x="98" y="189" width="11" height="10" /><rect x="98" y="223" width="11" height="10" /><rect x="87" y="212" width="11" height="10" /><rect x="87" y="200" width="11" height="11" /><rect x="87" y="189" width="11" height="10" /><rect x="167" y="223" width="10" height="10" /><rect x="155" y="223" width="11" height="10" /><rect x="144" y="223" width="11" height="10" /><rect x="132" y="223" width="11" height="10" /><rect x="76" y="223" width="10" height="10" /><rect x="64" y="223" width="11" height="10" /><rect x="110" y="234" width="11" height="11" /><rect x="132" y="212" width="11" height="10" /><rect x="132" y="200" width="11" height="11" /><rect x="121" y="212" width="11" height="10" /><rect x="98" y="234" width="11" height="11" /><rect x="87" y="236" width="11" height="11" /><rect x="76" y="234" width="10" height="11" /><rect x="64" y="234" width="11" height="11" /><rect x="110" y="246" width="11" height="10" /><rect x="98" y="246" width="11" height="10" /><rect x="87" y="246" width="11" height="10" /><rect x="121" y="200" width="11" height="11" /><rect x="76" y="246" width="10" height="10" /><rect x="121" y="189" width="11" height="10" /><rect x="121" y="178" width="11" height="10" /><rect x="76" y="212" width="10" height="10" /><rect x="76" y="200" width="10" height="11" /><rect x="76" y="189" width="10" height="10" /><rect x="64" y="212" width="11" height="10" /><rect x="201" y="200" width="10" height="11" /><rect x="190" y="200" width="10" height="11" /><rect x="178" y="200" width="11" height="11" /><rect x="201" y="189" width="10" height="10" /><rect x="190" y="189" width="10" height="10" /><rect x="178" y="189" width="11" height="10" /><rect x="167" y="212" width="10" height="10" /><rect x="167" y="200" width="10" height="11" /><rect x="110" y="257" width="11" height="10" /><rect x="98" y="257" width="11" height="10" /><rect x="87" y="257" width="11" height="10" /><rect x="110" y="268" width="11" height="11" /><rect x="98" y="268" width="11" height="11" /><rect x="121" y="234" width="11" height="11" /><rect x="121" y="246" width="11" height="10" /><rect x="121" y="257" width="11" height="10" /><rect x="132" y="246" width="11" height="10" /><rect x="189" y="254" width="10" height="10" /><rect x="189" y="265" width="10" height="11" /><rect x="189" y="276" width="10" height="11" /><rect x="177" y="265" width="11" height="11" /><rect x="173" y="238" width="11" height="10" /><rect x="173" y="248" width="11" height="11" /><rect x="201" y="223" width="10" height="10" /><rect x="190" y="223" width="10" height="10" /><rect x="201" y="212" width="10" height="10" /><rect x="190" y="212" width="10" height="10" /><rect x="178" y="212" width="11" height="10" /><rect x="234" y="208" width="11" height="11" /><rect x="245" y="208" width="11" height="11" /><rect x="245" y="219" width="11" height="11" /><rect x="245" y="231" width="11" height="10" /><rect x="245" y="242" width="11" height="11" /><rect x="245" y="253" width="11" height="11" /><rect x="245" y="265" width="11" height="10" /><rect x="257" y="265" width="10" height="10" /><rect x="245" y="276" width="11" height="11" /><rect x="234" y="276" width="11" height="11" /><rect x="234" y="287" width="11" height="11" /><rect x="223" y="287" width="10" height="11" /><rect x="211" y="287" width="11" height="11" /><rect x="200" y="287" width="11" height="11" /><rect x="200" y="276" width="11" height="11" /><rect x="178" y="223" width="11" height="10" /><rect x="200" y="265" width="11" height="10" /><rect x="211" y="265" width="11" height="10" /><rect x="223" y="265" width="10" height="10" /><rect x="110" y="212" width="11" height="10" /><rect x="223" y="253" width="10" height="11" /><rect x="223" y="242" width="10" height="11" /><rect x="234" y="242" width="11" height="11" /><rect x="234" y="231" width="11" height="10" /><rect x="234" y="219" width="11" height="11" /><rect x="223" y="219" width="10" height="11" /><rect x="223" y="231" width="10" height="10" /><rect x="200" y="242" width="10" height="11" /><rect x="200" y="254" width="10" height="10" /><rect x="110" y="200" width="11" height="11" /><rect x="211" y="254" width="11" height="10" /><rect x="167" y="189" width="10" height="10" /><rect x="155" y="212" width="11" height="10" /><rect x="155" y="200" width="11" height="11" /><rect x="155" y="189" width="11" height="10" /><rect x="144" y="200" width="11" height="11" /><rect x="144" y="189" width="11" height="10" /><rect x="132" y="189" width="11" height="10" /><rect x="132" y="178" width="11" height="10" /><rect x="212" y="189" width="11" height="7" /><rect x="223" y="185" width="10" height="11" /><rect x="234" y="197" width="11" height="10" /><rect x="144" y="212" width="11" height="10" /><rect x="140" y="205" width="11" height="11" /><rect x="152" y="205" width="10" height="11" /><rect x="114" y="123" width="11" height="11" /><rect x="114" y="134" width="11" height="11" /><rect x="125" y="138" width="11" height="11" /><rect x="110" y="189" width="11" height="10" /><rect x="110" y="178" width="11" height="10" />
</g>
<g class="spawningMap-very-common"><rect x="100" y="120" width="10" height="10" /><rect x="111" y="120" width="10" height="10" /><rect x="111" y="130" width="10" height="10" /><rect x="133" y="130" width="10" height="10" /><rect x="144" y="130" width="10" height="10" /><rect x="144" y="141" width="10" height="10" /><rect x="133" y="141" width="10" height="10" /><rect x="122" y="141" width="10" height="10" /><rect x="122" y="152" width="10" height="10" /><rect x="122" y="163" width="10" height="9" /><rect x="111" y="163" width="10" height="9" /><rect x="111" y="152" width="10" height="10" /><rect x="122" y="120" width="10" height="10" /><rect x="73" y="250" width="2" height="2" /><rect x="184" y="276" width="4" height="4" /><rect x="212" y="216" width="11" height="6" /><rect x="229" y="208" width="4" height="11" /><rect x="257" y="249" width="6" height="11" /><rect x="122" y="130" width="10" height="10" /><rect x="223" y="213" width="5" height="6" /><rect x="257" y="249" width="6" height="11" /><rect x="212" y="197" width="5" height="10" /><rect x="230" y="197" width="3" height="10" /><rect x="212" y="208" width="5" height="7" /><rect x="111" y="141" width="10" height="10" /><rect x="133" y="152" width="10" height="10" /><rect x="144" y="152" width="10" height="10" /><rect x="155" y="152" width="10" height="10" /><rect x="166" y="152" width="10" height="10" /><rect x="166" y="163" width="10" height="9" /><rect x="166" y="173" width="10" height="10" /><rect x="177" y="173" width="10" height="10" /><rect x="177" y="184" width="10" height="9" /><rect x="173" y="195" width="10" height="9" /><rect x="173" y="205" width="10" height="10" /><rect x="184" y="205" width="10" height="10" /><rect x="184" y="195" width="10" height="9" /><rect x="195" y="189" width="10" height="10" /><rect x="191" y="179" width="11" height="10" /><rect x="191" y="168" width="11" height="10" /><rect x="188" y="170" width="3" height="10" /><rect x="173" y="216" width="10" height="3" /><rect x="162" y="216" width="10" height="9" /><rect x="162" y="205" width="10" height="10" /><rect x="151" y="216" width="10" height="9" /><rect x="140" y="216" width="10" height="9" /><rect x="129" y="216" width="10" height="9" /><rect x="129" y="205" width="10" height="10" /><rect x="140" y="205" width="10" height="10" /><rect x="151" y="205" width="10" height="10" /><rect x="151" y="195" width="10" height="9" /><rect x="151" y="184" width="10" height="9" /><rect x="151" y="173" width="10" height="10" /><rect x="151" y="163" width="10" height="9" /><rect x="140" y="163" width="10" height="9" /><rect x="140" y="173" width="10" height="10" /><rect x="140" y="184" width="10" height="9" /><rect x="129" y="184" width="10" height="9" /><rect x="118" y="184" width="10" height="9" /><rect x="107" y="184" width="10" height="9" /><rect x="107" y="195" width="10" height="9" /><rect x="118" y="195" width="10" height="9" /><rect x="129" y="195" width="10" height="9" />
</g>
</g>
<g class="spawning-map-point" opacity="0.8">
</g>
</svg>