<?xml version="1.0" encoding="utf-8"?>
<svg xmlns="http://www.w3.org/2000/svg" width="300" height="300"
        viewBox="0 0 300 300" class="creatureMap" style="position:absolute;">
    <defs>
        <filter id="blur" x="-30%" y="-30%" width="160%" height="160%">
            <feGaussianBlur stdDeviation="3" />
        </filter>
        <pattern id="pattern-untameable" width="10" height="10" patternTransform="rotate(135)" patternUnits="userSpaceOnUse">
            <rect width="4" height="10" fill="black"></rect>
        </pattern>
        <filter id="groupStroke">
            <feFlood result="outsideColor" flood-color="black"/>
            <feMorphology in="SourceAlpha" operator="dilate" radius="2"/>
            <feComposite result="strokeoutline1" in="outsideColor" operator="in"/>
            <feComposite result="strokeoutline2" in="strokeoutline1" in2="SourceAlpha" operator="out"/>
            <feGaussianBlur in="strokeoutline2" result="strokeblur" stdDeviation="1"/>
        </filter>
        <style>
            .spawningMap-very-common { fill: #0F0; }
            .spawningMap-common { fill: #B2FF00; }
            .spawningMap-uncommon { fill: #FF0; }
            .spawningMap-very-uncommon { fill: #FC0; }
            .spawningMap-rare { fill: #F60; }
            .spawningMap-very-rare { fill: #F00; }
            .spawning-map-point { stroke:black; stroke-width:1; }
        </style>
    </defs>

<g filter="url(#blur)" opacity="0.7">
<g class="spawningMap-uncommon">
<rect x="121" y="284" width="19" height="16" />
<rect x="135" y="284" width="20" height="16" />
</g>
<g class="spawningMap-common">
<rect x="93" y="256" width="19" height="18" />
<rect x="247" y="80" width="21" height="19" />
<rect x="231" y="80" width="21" height="19" />
<rect x="121" y="200" width="19" height="20" />
</g>
<g class="spawningMap-very-common">
<rect x="93" y="269" width="19" height="19" />
<rect x="107" y="269" width="18" height="19" />
<rect x="107" y="283" width="18" height="17" />
<rect x="136" y="228" width="19" height="19" />
<rect x="93" y="242" width="19" height="19" />
<rect x="25" y="25" width="21" height="19" />
<rect x="92" y="81" width="20" height="19" />
<rect x="121" y="81" width="19" height="18" />
<rect x="247" y="23" width="21" height="19" />
<rect x="247" y="51" width="21" height="19" />
<rect x="264" y="37" width="21" height="19" />
<rect x="264" y="65" width="21" height="20" />
<rect x="264" y="80" width="21" height="19" />
<rect x="93" y="95" width="19" height="19" />
<rect x="231" y="23" width="21" height="19" />
<rect x="121" y="270" width="19" height="19" />
<rect x="135" y="270" width="20" height="19" />
<rect x="127" y="243" width="15" height="14" />
<rect x="127" y="253" width="15" height="15" />
<rect x="136" y="256" width="19" height="19" />
<rect x="150" y="256" width="19" height="18" />
<rect x="121" y="228" width="19" height="19" />
<rect x="136" y="215" width="19" height="18" />
<rect x="121" y="215" width="19" height="18" />
<rect x="165" y="228" width="19" height="19" />
<rect x="136" y="185" width="19" height="20" />
<rect x="136" y="153" width="19" height="20" />
<rect x="136" y="168" width="19" height="21" />
<rect x="150" y="153" width="19" height="20" />
<rect x="150" y="168" width="19" height="21" />
<rect x="165" y="153" width="19" height="20" />
<rect x="136" y="138" width="19" height="19" />
<rect x="151" y="124" width="19" height="19" />
<rect x="165" y="124" width="19" height="19" />
<rect x="0" y="25" width="13" height="19" />
<rect x="58" y="25" width="21" height="19" />
<rect x="91" y="23" width="21" height="19" />
<rect x="121" y="52" width="19" height="19" />
<rect x="215" y="65" width="21" height="20" />
<rect x="107" y="200" width="18" height="19" />
<rect x="42" y="108" width="22" height="19" />
<rect x="61" y="85" width="10" height="11" />
<rect x="61" y="85" width="9" height="11" />
<rect x="146" y="175" width="10" height="8" />
<rect x="141" y="176" width="12" height="8" />
<rect x="48" y="85" width="11" height="10" />
<rect x="52" y="84" width="9" height="9" />
<rect x="49" y="85" width="10" height="9" />
</g>
</g>
<g filter="url(#groupStroke)" opacity="0.8">
<rect x="61" y="85" width="10" height="11"/>
<rect x="61" y="85" width="9" height="11"/>
<rect x="146" y="175" width="10" height="8"/>
<rect x="141" y="176" width="12" height="8"/>
<rect x="48" y="85" width="11" height="10"/>
<rect x="52" y="84" width="9" height="9"/>
<rect x="49" y="85" width="10" height="9"/>
</g>
</svg>