<svg xmlns="http://www.w3.org/2000/svg" width="300" height="300" viewBox="0 0 300 300" class="creatureMap" style="position:absolute;">
<defs>
<filter id="blur" x="-30%" y="-30%" width="160%" height="160%"><feGaussianBlur stdDeviation="3" />
</filter>
<pattern id="pattern-untameable" width="10" height="10" patternTransform="rotate(135)" patternUnits="userSpaceOnUse"><rect width="4" height="10" fill="black"></rect>
</pattern>
<filter id="groupStroke"><feFlood result="outsideColor" flood-color="black"/><feMorphology in="SourceAlpha" operator="dilate" radius="2"/><feComposite result="strokeoutline1" in="outsideColor" operator="in"/><feComposite result="strokeoutline2" in="strokeoutline1" in2="SourceAlpha" operator="out"/><feGaussianBlur in="strokeoutline2" result="strokeblur" stdDeviation="1"/>
</filter>
<style>
.spawningMap-very-common { fill: #0F0;}
.spawningMap-common { fill: #B2FF00;}
.spawningMap-uncommon { fill: #FF0;}
.spawningMap-very-uncommon { fill: #FC0;}
.spawningMap-rare { fill: #F60;}
.spawningMap-very-rare { fill: #F00; }.spawning-map-point {stroke:black; stroke-width:1;}
</style>
</defs>
<g filter="url(#blur)" opacity="0.7">
<g class="spawningMap-common"><rect x="257" y="28" width="10" height="10" /><rect x="268" y="28" width="10" height="10" /><rect x="257" y="39" width="10" height="10" /><rect x="268" y="39" width="10" height="10" /><rect x="257" y="61" width="10" height="10" /><rect x="268" y="61" width="10" height="10" /><rect x="40" y="186" width="10" height="11" /><rect x="50" y="186" width="11" height="11" /><rect x="26" y="219" width="10" height="11" /><rect x="15" y="219" width="10" height="11" /><rect x="26" y="230" width="10" height="10" /><rect x="15" y="230" width="10" height="10" /><rect x="26" y="252" width="10" height="11" /><rect x="15" y="252" width="10" height="11" /><rect x="26" y="274" width="10" height="10" />
</g>
<g class="spawningMap-very-common"><rect x="203" y="17" width="10" height="10" /><rect x="213" y="17" width="11" height="10" /><rect x="224" y="17" width="10" height="10" /><rect x="235" y="17" width="10" height="10" /><rect x="246" y="17" width="10" height="10" /><rect x="257" y="17" width="10" height="10" /><rect x="268" y="17" width="10" height="10" /><rect x="279" y="17" width="10" height="10" /><rect x="213" y="28" width="11" height="10" /><rect x="224" y="28" width="10" height="10" /><rect x="235" y="28" width="10" height="10" /><rect x="246" y="28" width="10" height="10" /><rect x="279" y="28" width="10" height="10" /><rect x="213" y="39" width="11" height="10" /><rect x="224" y="39" width="10" height="10" /><rect x="235" y="39" width="10" height="10" /><rect x="246" y="39" width="10" height="10" /><rect x="279" y="39" width="10" height="10" /><rect x="213" y="50" width="11" height="10" /><rect x="224" y="50" width="10" height="10" /><rect x="235" y="50" width="10" height="10" /><rect x="246" y="50" width="10" height="10" /><rect x="257" y="50" width="10" height="10" /><rect x="268" y="50" width="10" height="10" /><rect x="279" y="50" width="10" height="10" /><rect x="213" y="61" width="11" height="10" /><rect x="235" y="61" width="10" height="10" /><rect x="246" y="61" width="10" height="10" /><rect x="279" y="61" width="10" height="10" /><rect x="268" y="72" width="10" height="10" /><rect x="268" y="83" width="10" height="10" /><rect x="257" y="83" width="10" height="10" /><rect x="257" y="72" width="10" height="10" /><rect x="246" y="72" width="10" height="10" /><rect x="47" y="17" width="10" height="10" /><rect x="47" y="28" width="10" height="11" /><rect x="47" y="39" width="10" height="10" /><rect x="36" y="39" width="10" height="10" /><rect x="25" y="39" width="10" height="10" /><rect x="25" y="28" width="10" height="10" /><rect x="36" y="28" width="10" height="10" /><rect x="36" y="17" width="10" height="10" /><rect x="25" y="17" width="10" height="10" /><rect x="36" y="11" width="10" height="5" /><rect x="51" y="175" width="10" height="10" /><rect x="40" y="175" width="10" height="10" /><rect x="29" y="186" width="10" height="11" /><rect x="50" y="197" width="11" height="10" /><rect x="40" y="197" width="10" height="10" /><rect x="29" y="197" width="10" height="10" /><rect x="37" y="208" width="10" height="10" /><rect x="26" y="208" width="10" height="10" /><rect x="15" y="208" width="10" height="10" /><rect x="37" y="219" width="10" height="11" /><rect x="37" y="230" width="10" height="10" /><rect x="37" y="241" width="10" height="10" /><rect x="26" y="241" width="10" height="10" /><rect x="15" y="241" width="10" height="10" /><rect x="37" y="252" width="10" height="11" /><rect x="37" y="263" width="10" height="10" /><rect x="26" y="263" width="10" height="10" /><rect x="15" y="263" width="10" height="10" /><rect x="4" y="263" width="10" height="10" /><rect x="4" y="252" width="10" height="11" /><rect x="48" y="252" width="10" height="11" /><rect x="48" y="263" width="10" height="10" /><rect x="37" y="274" width="10" height="10" /><rect x="48" y="274" width="10" height="11" /><rect x="48" y="241" width="10" height="10" />
</g>
</g>
<g class="spawning-map-point" opacity="0.8">
</g>
<g fill="url(#pattern-untameable)" opacity="0.3"><rect x="257" y="28" width="10" height="10"/><rect x="268" y="28" width="10" height="10"/><rect x="257" y="39" width="10" height="10"/><rect x="268" y="39" width="10" height="10"/><rect x="257" y="61" width="10" height="10"/><rect x="268" y="61" width="10" height="10"/><rect x="40" y="186" width="10" height="11"/><rect x="50" y="186" width="11" height="11"/><rect x="26" y="219" width="10" height="11"/><rect x="15" y="219" width="10" height="11"/><rect x="26" y="230" width="10" height="10"/><rect x="15" y="230" width="10" height="10"/><rect x="26" y="252" width="10" height="11"/><rect x="15" y="252" width="10" height="11"/><rect x="26" y="274" width="10" height="10"/><rect x="203" y="17" width="10" height="10"/><rect x="213" y="17" width="11" height="10"/><rect x="224" y="17" width="10" height="10"/><rect x="235" y="17" width="10" height="10"/><rect x="246" y="17" width="10" height="10"/><rect x="257" y="17" width="10" height="10"/><rect x="268" y="17" width="10" height="10"/><rect x="279" y="17" width="10" height="10"/><rect x="213" y="28" width="11" height="10"/><rect x="224" y="28" width="10" height="10"/><rect x="235" y="28" width="10" height="10"/><rect x="246" y="28" width="10" height="10"/><rect x="279" y="28" width="10" height="10"/><rect x="213" y="39" width="11" height="10"/><rect x="224" y="39" width="10" height="10"/><rect x="235" y="39" width="10" height="10"/><rect x="246" y="39" width="10" height="10"/><rect x="279" y="39" width="10" height="10"/><rect x="213" y="50" width="11" height="10"/><rect x="224" y="50" width="10" height="10"/><rect x="235" y="50" width="10" height="10"/><rect x="246" y="50" width="10" height="10"/><rect x="257" y="50" width="10" height="10"/><rect x="268" y="50" width="10" height="10"/><rect x="279" y="50" width="10" height="10"/><rect x="213" y="61" width="11" height="10"/><rect x="235" y="61" width="10" height="10"/><rect x="246" y="61" width="10" height="10"/><rect x="279" y="61" width="10" height="10"/><rect x="268" y="72" width="10" height="10"/><rect x="268" y="83" width="10" height="10"/><rect x="257" y="83" width="10" height="10"/><rect x="257" y="72" width="10" height="10"/><rect x="246" y="72" width="10" height="10"/><rect x="47" y="17" width="10" height="10"/><rect x="47" y="28" width="10" height="11"/><rect x="47" y="39" width="10" height="10"/><rect x="36" y="39" width="10" height="10"/><rect x="25" y="39" width="10" height="10"/><rect x="25" y="28" width="10" height="10"/><rect x="36" y="28" width="10" height="10"/><rect x="36" y="17" width="10" height="10"/><rect x="25" y="17" width="10" height="10"/><rect x="36" y="11" width="10" height="5"/><rect x="51" y="175" width="10" height="10"/><rect x="40" y="175" width="10" height="10"/><rect x="29" y="186" width="10" height="11"/><rect x="50" y="197" width="11" height="10"/><rect x="40" y="197" width="10" height="10"/><rect x="29" y="197" width="10" height="10"/><rect x="37" y="208" width="10" height="10"/><rect x="26" y="208" width="10" height="10"/><rect x="15" y="208" width="10" height="10"/><rect x="37" y="219" width="10" height="11"/><rect x="37" y="230" width="10" height="10"/><rect x="37" y="241" width="10" height="10"/><rect x="26" y="241" width="10" height="10"/><rect x="15" y="241" width="10" height="10"/><rect x="37" y="252" width="10" height="11"/><rect x="37" y="263" width="10" height="10"/><rect x="26" y="263" width="10" height="10"/><rect x="15" y="263" width="10" height="10"/><rect x="4" y="263" width="10" height="10"/><rect x="4" y="252" width="10" height="11"/><rect x="48" y="252" width="10" height="11"/><rect x="48" y="263" width="10" height="10"/><rect x="37" y="274" width="10" height="10"/><rect x="48" y="274" width="10" height="11"/><rect x="48" y="241" width="10" height="10"/>
</g>
</svg>