<svg xmlns="http://www.w3.org/2000/svg" width="300" height="300" viewBox="0 0 300 300" class="creatureMap" style="position:absolute;">
<defs>
<filter id="blur" x="-30%" y="-30%" width="160%" height="160%"><feGaussianBlur stdDeviation="3" />
</filter>
<pattern id="pattern-untameable" width="10" height="10" patternTransform="rotate(135)" patternUnits="userSpaceOnUse"><rect width="4" height="10" fill="black"></rect>
</pattern>
<filter id="groupStroke"><feFlood result="outsideColor" flood-color="black"/><feMorphology in="SourceAlpha" operator="dilate" radius="2"/><feComposite result="strokeoutline1" in="outsideColor" operator="in"/><feComposite result="strokeoutline2" in="strokeoutline1" in2="SourceAlpha" operator="out"/><feGaussianBlur in="strokeoutline2" result="strokeblur" stdDeviation="1"/>
</filter>
<style>
.spawningMap-very-common { fill: #0F0;}
.spawningMap-common { fill: #B2FF00;}
.spawningMap-uncommon { fill: #FF0;}
.spawningMap-very-uncommon { fill: #FC0;}
.spawningMap-rare { fill: #F60;}
.spawningMap-very-rare { fill: #F00; }.spawning-map-point {stroke:black; stroke-width:1;}
</style>
</defs>
<g filter="url(#blur)" opacity="0.7">
<g class="spawningMap-very-rare"><rect x="163" y="270" width="1" height="1" /><rect x="157" y="265" width="1" height="1" /><rect x="164" y="266" width="1" height="2" /><rect x="158" y="270" width="1" height="2" /><rect x="184" y="223" width="1" height="1" /><rect x="183" y="219" width="1" height="2" /><rect x="182" y="214" width="1" height="2" /><rect x="271" y="218" width="1" height="2" /><rect x="270" y="222" width="1" height="1" /><rect x="264" y="214" width="1" height="2" /><rect x="275" y="210" width="1" height="1" /><rect x="270" y="31" width="1" height="1" /><rect x="268" y="33" width="1" height="1" /><rect x="271" y="30" width="1" height="2" /><rect x="138" y="114" width="1" height="1" /><rect x="136" y="114" width="1" height="1" /><rect x="141" y="117" width="1" height="1" />
</g>
<g class="spawningMap-rare"><rect x="106" y="120" width="8" height="9" /><rect x="111" y="108" width="12" height="14" /><rect x="111" y="108" width="12" height="14" />
</g>
<g class="spawningMap-very-common"><rect x="103" y="120" width="8" height="9" /><rect x="115" y="120" width="8" height="9" /><rect x="115" y="120" width="8" height="9" /><rect x="101" y="117" width="5" height="5" /><rect x="103" y="120" width="8" height="9" /><rect x="101" y="117" width="5" height="5" /><rect x="104" y="120" width="8" height="9" /><rect x="104" y="120" width="8" height="9" /><rect x="106" y="120" width="8" height="9" /><rect x="115" y="120" width="8" height="9" /><rect x="111" y="108" width="12" height="14" /><rect x="101" y="117" width="5" height="5" /><rect x="103" y="120" width="8" height="9" /><rect x="106" y="120" width="8" height="9" /><rect x="104" y="120" width="8" height="9" />
</g>
</g>
<g class="spawning-map-point" opacity="0.8">
</g>
<g fill="url(#pattern-untameable)" opacity="0.3"><rect x="106" y="120" width="8" height="9"/><rect x="111" y="108" width="12" height="14"/><rect x="111" y="108" width="12" height="14"/><rect x="103" y="120" width="8" height="9"/><rect x="115" y="120" width="8" height="9"/><rect x="115" y="120" width="8" height="9"/><rect x="101" y="117" width="5" height="5"/><rect x="103" y="120" width="8" height="9"/><rect x="101" y="117" width="5" height="5"/><rect x="104" y="120" width="8" height="9"/><rect x="104" y="120" width="8" height="9"/><rect x="106" y="120" width="8" height="9"/><rect x="115" y="120" width="8" height="9"/><rect x="111" y="108" width="12" height="14"/><rect x="101" y="117" width="5" height="5"/><rect x="103" y="120" width="8" height="9"/><rect x="106" y="120" width="8" height="9"/><rect x="104" y="120" width="8" height="9"/>
</g>
<g filter="url(#groupStroke)" opacity="0.8"><rect x="163" y="270" width="1" height="1"/><rect x="157" y="265" width="1" height="1"/><rect x="164" y="266" width="1" height="2"/><rect x="158" y="270" width="1" height="2"/><rect x="184" y="223" width="1" height="1"/><rect x="183" y="219" width="1" height="2"/><rect x="182" y="214" width="1" height="2"/><rect x="271" y="218" width="1" height="2"/><rect x="270" y="222" width="1" height="1"/><rect x="264" y="214" width="1" height="2"/><rect x="275" y="210" width="1" height="1"/><rect x="270" y="31" width="1" height="1"/><rect x="268" y="33" width="1" height="1"/><rect x="271" y="30" width="1" height="2"/><rect x="138" y="114" width="1" height="1"/><rect x="136" y="114" width="1" height="1"/><rect x="141" y="117" width="1" height="1"/><rect x="106" y="120" width="8" height="9"/><rect x="111" y="108" width="12" height="14"/><rect x="111" y="108" width="12" height="14"/><rect x="103" y="120" width="8" height="9"/><rect x="115" y="120" width="8" height="9"/><rect x="115" y="120" width="8" height="9"/><rect x="101" y="117" width="5" height="5"/><rect x="103" y="120" width="8" height="9"/><rect x="101" y="117" width="5" height="5"/><rect x="104" y="120" width="8" height="9"/><rect x="104" y="120" width="8" height="9"/><rect x="106" y="120" width="8" height="9"/><rect x="115" y="120" width="8" height="9"/><rect x="111" y="108" width="12" height="14"/><rect x="101" y="117" width="5" height="5"/><rect x="103" y="120" width="8" height="9"/><rect x="106" y="120" width="8" height="9"/><rect x="104" y="120" width="8" height="9"/>
</g>
</svg>